<svg xmlns="http://www.w3.org/2000/svg" width="220" height="220" viewBox="0 0 220 220">

  <rect x="0" y="0" width="220" height="220" fill="white" />

  <defs>
    <!-- стрелка для осей -->
    <marker id="axis-arrow"
            viewBox="0 0 15 8"
            refX="13" refY="4"
            markerWidth="12" markerHeight="6.4"
            orient="auto"
            markerUnits="userSpaceOnUse">
      <path d="M 3 0 L 15 4 L 3 8 L 7 4 Z"
            fill="black" />
    </marker>
  </defs>

  <!-- тонкая клетчатая сетка 10×10, без окаймления по периметру -->
  <g stroke="#d1d5db" stroke-width="0.5" shape-rendering="crispEdges">
    <!-- вертикальные линии: только внутренние -->
    <line x1="30"  y1="10" x2="30"  y2="210" />
    <line x1="50"  y1="10" x2="50"  y2="210" />
    <line x1="70"  y1="10" x2="70"  y2="210" />
    <line x1="90"  y1="10" x2="90"  y2="210" />
    <line x1="110" y1="10" x2="110" y2="210" />
    <line x1="130" y1="10" x2="130" y2="210" />
    <line x1="150" y1="10" x2="150" y2="210" />
    <line x1="170" y1="10" x2="170" y2="210" />
    <line x1="190" y1="10" x2="190" y2="210" />

    <!-- горизонтальные линии: только внутренние -->
    <line x1="10" y1="30"  x2="210" y2="30"  />
    <line x1="10" y1="50"  x2="210" y2="50"  />
    <line x1="10" y1="70"  x2="210" y2="70"  />
    <line x1="10" y1="90"  x2="210" y2="90"  />
    <line x1="10" y1="110" x2="210" y2="110" />
    <line x1="10" y1="130" x2="210" y2="130" />
    <line x1="10" y1="150" x2="210" y2="150" />
    <line x1="10" y1="170" x2="210" y2="170" />
    <line x1="10" y1="190" x2="210" y2="190" />

</g>

  <!-- оси x и y -->
  <g stroke="#111827" stroke-width="1.25">
    <line x1="10" y1="150" x2="210" y2="150"
          marker-end="url(#axis-arrow)" />
    <line x1="70" y1="210" x2="70" y2="10"
          marker-end="url(#axis-arrow)" />
  </g>

  <!-- подписи осей и делений -->
  <g font-family="sans-serif" font-size="11" fill="#111827">
    <text x="67" y="164" text-anchor="end"
          font-size="13" font-style="italic"
          font-family="Georgia, 'Times New Roman', serif">O</text>

    <rect x="87" y="153" width="7" height="12" fill="white" />
    <text x="90" y="164" text-anchor="middle" font-size="13"
          font-family="'Times New Roman', serif"
          font-weight="300">1</text>

    <text x="63" y="134" text-anchor="end" font-size="13"
          font-family="'Times New Roman', serif"
          font-weight="300">1</text>

    <text x="206" y="163" text-anchor="start"
          font-family="Georgia, 'Times New Roman', serif"
          font-style="italic" font-size="13">x</text>

    <text x="64" y="13" text-anchor="end"
          font-family="Georgia, 'Times New Roman', serif"
          font-style="italic" font-size="13">y</text>
  </g>

  <!-- график y = 2sqrt(x), МНК: y≈2.00000022*sqrt(x)-0.00000030, 50 точек (округление 5 знаков), цвет #2d70b3 -->
  <g stroke="#2d70b3" stroke-width="1.25" fill="none"
     stroke-linecap="round" stroke-linejoin="round">
    <path d="M 70.000 150.000 L 70.281 145.262 L 70.561 143.300 L 70.842 141.794 L 71.122 140.525 L 71.403 139.406 L 71.683 138.395 L 71.964 137.465 L 72.244 136.600 L 72.525 135.787 L 72.806 135.018 L 73.086 134.287 L 73.367 133.588 L 73.647 132.918 L 73.928 132.274 L 74.208 131.651 L 74.489 131.050 L 74.770 130.466 L 75.050 129.900 L 75.331 129.349 L 75.611 128.813 L 75.892 128.290 L 76.172 127.779 L 76.453 127.279 L 76.733 126.791 L 77.014 126.312 L 77.295 125.843 L 77.575 125.383 L 77.856 124.931 L 78.136 124.487 L 78.417 124.051 L 78.697 123.622 L 78.978 123.200 L 79.259 122.785 L 79.539 122.375 L 79.820 121.972 L 80.100 121.574 L 80.381 121.182 L 80.661 120.795 L 80.942 120.414 L 81.222 120.037 L 81.503 119.665 L 81.784 119.297 L 82.064 118.933 L 82.345 118.574 L 82.625 118.219 L 82.906 117.868 L 83.186 117.521 L 83.467 117.177 L 83.747 116.837 L 84.028 116.500 L 84.309 116.167 L 84.589 115.837 L 84.870 115.510 L 85.150 115.186 L 85.431 114.865 L 85.711 114.547 L 85.992 114.232 L 86.273 113.919 L 86.553 113.610 L 86.834 113.303 L 87.114 112.998 L 87.395 112.696 L 87.675 112.396 L 87.956 112.099 L 88.236 111.804 L 88.517 111.512 L 88.798 111.221 L 89.078 110.933 L 89.359 110.647 L 89.639 110.362 L 89.920 110.080 L 90.200 109.800 L 90.481 109.522 L 90.762 109.246 L 91.042 108.971 L 91.323 108.699 L 91.603 108.428 L 91.884 108.159 L 92.164 107.891 L 92.445 107.626 L 92.725 107.362 L 93.006 107.099 L 93.287 106.838 L 93.567 106.579 L 93.848 106.321 L 94.128 106.065 L 94.409 105.811 L 94.689 105.557 L 94.970 105.306 L 95.251 105.055 L 95.531 104.806 L 95.812 104.559 L 96.092 104.312 L 96.373 104.067 L 96.653 103.824 L 96.934 103.581 L 97.214 103.340 L 97.495 103.100 L 97.776 102.861 L 98.056 102.624 L 98.337 102.388 L 98.617 102.153 L 98.898 101.919 L 99.178 101.686 L 99.459 101.454 L 99.739 101.223 L 100.020 100.994 L 100.301 100.765 L 100.581 100.538 L 100.862 100.312 L 101.142 100.086 L 101.423 99.862 L 101.703 99.639 L 101.984 99.416 L 102.265 99.195 L 102.545 98.974 L 102.826 98.755 L 103.106 98.536 L 103.387 98.319 L 103.667 98.102 L 103.948 97.886 L 104.228 97.671 L 104.509 97.457 L 104.790 97.244 L 105.070 97.032 L 105.351 96.821 L 105.631 96.610 L 105.912 96.400 L 106.192 96.191 L 106.473 95.983 L 106.754 95.776 L 107.034 95.569 L 107.315 95.363 L 107.595 95.158 L 107.876 94.954 L 108.156 94.751 L 108.437 94.548 L 108.717 94.346 L 108.998 94.144 L 109.279 93.944 L 109.559 93.744 L 109.840 93.545 L 110.120 93.346 L 110.401 93.149 L 110.681 92.952 L 110.962 92.755 L 111.242 92.560 L 111.523 92.365 L 111.804 92.170 L 112.084 91.976 L 112.365 91.783 L 112.645 91.591 L 112.926 91.399 L 113.206 91.208 L 113.487 91.017 L 113.768 90.827 L 114.048 90.638 L 114.329 90.449 L 114.609 90.261 L 114.890 90.074 L 115.170 89.887 L 115.451 89.700 L 115.731 89.514 L 116.012 89.329 L 116.293 89.144 L 116.573 88.960 L 116.854 88.777 L 117.134 88.594 L 117.415 88.411 L 117.695 88.229 L 117.976 88.048 L 118.257 87.867 L 118.537 87.687 L 118.818 87.507 L 119.098 87.327 L 119.379 87.149 L 119.659 86.970 L 119.940 86.792 L 120.220 86.615 L 120.501 86.438 L 120.782 86.262 L 121.062 86.086 L 121.343 85.911 L 121.623 85.736 L 121.904 85.562 L 122.184 85.388 L 122.465 85.214 L 122.745 85.041 L 123.026 84.869 L 123.307 84.697 L 123.587 84.525 L 123.868 84.354 L 124.148 84.183 L 124.429 84.013 L 124.709 83.843 L 124.990 83.674 L 125.271 83.505 L 125.551 83.336 L 125.832 83.168 L 126.112 83.000 L 126.393 82.833 L 126.673 82.666 L 126.954 82.500 L 127.234 82.333 L 127.515 82.168 L 127.796 82.003 L 128.076 81.838 L 128.357 81.673 L 128.637 81.509 L 128.918 81.346 L 129.198 81.182 L 129.479 81.019 L 129.760 80.857 L 130.040 80.695 L 130.321 80.533 L 130.601 80.372 L 130.882 80.211 L 131.162 80.050 L 131.443 79.890 L 131.723 79.730 L 132.004 79.570 L 132.285 79.411 L 132.565 79.252 L 132.846 79.094 L 133.126 78.936 L 133.407 78.778 L 133.687 78.621 L 133.968 78.464 L 134.248 78.307 L 134.529 78.151 L 134.810 77.995 L 135.090 77.839 L 135.371 77.684 L 135.651 77.529 L 135.932 77.374 L 136.212 77.220 L 136.493 77.066 L 136.774 76.912 L 137.054 76.758 L 137.335 76.605 L 137.615 76.453 L 137.896 76.300 L 138.176 76.148 L 138.457 75.996 L 138.737 75.845 L 139.018 75.694 L 139.299 75.543 L 139.579 75.392 L 139.860 75.242 L 140.140 75.092 L 140.421 74.942 L 140.701 74.793 L 140.982 74.644 L 141.263 74.495 L 141.543 74.347 L 141.824 74.198 L 142.104 74.050 L 142.385 73.903 L 142.665 73.755 L 142.946 73.608 L 143.226 73.462 L 143.507 73.315 L 143.788 73.169 L 144.068 73.023 L 144.349 72.877 L 144.629 72.732 L 144.910 72.587 L 145.190 72.442 L 145.471 72.298 L 145.752 72.153 L 146.032 72.009 L 146.313 71.865 L 146.593 71.722 L 146.874 71.579 L 147.154 71.436 L 147.435 71.293 L 147.715 71.151 L 147.996 71.008 L 148.277 70.866 L 148.557 70.725 L 148.838 70.583 L 149.118 70.442 L 149.399 70.301 L 149.679 70.160 L 149.960 70.020 L 150.240 69.880 L 150.521 69.740 L 150.802 69.600 L 151.082 69.461 L 151.363 69.322 L 151.643 69.183 L 151.924 69.044 L 152.204 68.905 L 152.485 68.767 L 152.766 68.629 L 153.046 68.491 L 153.327 68.354 L 153.607 68.216 L 153.888 68.079 L 154.168 67.942 L 154.449 67.806 L 154.729 67.669 L 155.010 67.533 L 155.291 67.397 L 155.571 67.261 L 155.852 67.126 L 156.132 66.990 L 156.413 66.855 L 156.693 66.721 L 156.974 66.586 L 157.255 66.451 L 157.535 66.317 L 157.816 66.183 L 158.096 66.049 L 158.377 65.916 L 158.657 65.783 L 158.938 65.649 L 159.218 65.516 L 159.499 65.384 L 159.780 65.251 L 160.060 65.119 L 160.341 64.987 L 160.621 64.855 L 160.902 64.723 L 161.182 64.592 L 161.463 64.460 L 161.743 64.329 L 162.024 64.198 L 162.305 64.068 L 162.585 63.937 L 162.866 63.807 L 163.146 63.677 L 163.427 63.547 L 163.707 63.417 L 163.988 63.288 L 164.269 63.158 L 164.549 63.029 L 164.830 62.900 L 165.110 62.771 L 165.391 62.643 L 165.671 62.515 L 165.952 62.386 L 166.232 62.258 L 166.513 62.131 L 166.794 62.003 L 167.074 61.875 L 167.355 61.748 L 167.635 61.621 L 167.916 61.494 L 168.196 61.368 L 168.477 61.241 L 168.758 61.115 L 169.038 60.989 L 169.319 60.863 L 169.599 60.737 L 169.880 60.611 L 170.160 60.486 L 170.441 60.360 L 170.721 60.235 L 171.002 60.110 L 171.283 59.986 L 171.563 59.861 L 171.844 59.737 L 172.124 59.612 L 172.405 59.488 L 172.685 59.364 L 172.966 59.241 L 173.246 59.117 L 173.527 58.994 L 173.808 58.870 L 174.088 58.747 L 174.369 58.624 L 174.649 58.502 L 174.930 58.379 L 175.210 58.257 L 175.491 58.134 L 175.772 58.012 L 176.052 57.890 L 176.333 57.769 L 176.613 57.647 L 176.894 57.526 L 177.174 57.404 L 177.455 57.283 L 177.735 57.162 L 178.016 57.041 L 178.297 56.921 L 178.577 56.800 L 178.858 56.680 L 179.138 56.560 L 179.419 56.440 L 179.699 56.320 L 179.980 56.200 L 180.261 56.081 L 180.541 55.961 L 180.822 55.842 L 181.102 55.723 L 181.383 55.604 L 181.663 55.485 L 181.944 55.366 L 182.224 55.248 L 182.505 55.130 L 182.786 55.011 L 183.066 54.893 L 183.347 54.775 L 183.627 54.658 L 183.908 54.540 L 184.188 54.422 L 184.469 54.305 L 184.749 54.188 L 185.030 54.071 L 185.311 53.954 L 185.591 53.837 L 185.872 53.721 L 186.152 53.604 L 186.433 53.488 L 186.713 53.371 L 186.994 53.255 L 187.275 53.139 L 187.555 53.024 L 187.836 52.908 L 188.116 52.792 L 188.397 52.677 L 188.677 52.562 L 188.958 52.447 L 189.238 52.332 L 189.519 52.217 L 189.800 52.102 L 190.080 51.988 L 190.361 51.873 L 190.641 51.759 L 190.922 51.645 L 191.202 51.531 L 191.483 51.417 L 191.764 51.303 L 192.044 51.189 L 192.325 51.076 L 192.605 50.963 L 192.886 50.849 L 193.166 50.736 L 193.447 50.623 L 193.727 50.510 L 194.008 50.398 L 194.289 50.285 L 194.569 50.172 L 194.850 50.060 L 195.130 49.948 L 195.411 49.836 L 195.691 49.724 L 195.972 49.612 L 196.253 49.500 L 196.533 49.389 L 196.814 49.277 L 197.094 49.166 L 197.375 49.055 L 197.655 48.943 L 197.936 48.832 L 198.216 48.722 L 198.497 48.611 L 198.778 48.500 L 199.058 48.390 L 199.339 48.279 L 199.619 48.169 L 199.900 48.059 L 200.180 47.949 L 200.461 47.839 L 200.741 47.729 L 201.022 47.620 L 201.303 47.510 L 201.583 47.401 L 201.864 47.291 L 202.144 47.182 L 202.425 47.073 L 202.705 46.964 L 202.986 46.855 L 203.267 46.746 L 203.547 46.638 L 203.828 46.529 L 204.108 46.421 L 204.389 46.312 L 204.669 46.204 L 204.950 46.096 L 205.230 45.988 L 205.511 45.880 L 205.792 45.773 L 206.072 45.665 L 206.353 45.558 L 206.633 45.450 L 206.914 45.343 L 207.194 45.236 L 207.475 45.129 L 207.756 45.022 L 208.036 44.915 L 208.317 44.808 L 208.597 44.701 L 208.878 44.595 L 209.158 44.489 L 209.439 44.382 L 209.719 44.276 L 210.000 44.170" />
  </g>





  <!-- точки на параболе y = x^2 - 4x (радиус 2.2) -->
<!-- точки на параболе y = x^2 - 5x (радиус 2.2) -->
<!-- точки на параболе y = x^2 - 3x (радиус 2.2) -->
<!-- точки на параболе y = x^2 - 2x (радиус 2.2) -->
  
  

  <!-- прямая y = kx, k = 1/4 (через (4;1)) -->
  <g stroke="#166534" stroke-width="1.25" fill="none">
    <line x1="10" y1="165" x2="210" y2="115" />
</g>
  <circle cx="150" cy="130" r="2.2" fill="#166534" />
<circle cx="90" cy="110" r="2.2" fill="#2d70b3" />
<!-- точки на новой параболе (радиус 2.2) -->
  <circle cx="70" cy="150" r="2.2" fill="#166534" />
  
  
  <!-- точки на графиках (радиус 2.2) -->
  <!-- точки на параболе — тем же цветом, что и парабола -->
<!-- точка на прямой: (1; 4) -->
<!-- подписи y = f(x), y = g(x) -->
  <text x="161" y="46"
        font-family="Georgia, 'Times New Roman', serif"
        font-style="italic"
        font-size="13"
        fill="#2d70b3">
    f(x)
  </text>

  <text x="160" y="110"
        font-family="Georgia, 'Times New Roman', serif"
        font-style="italic"
        font-size="13"
        fill="#166534">
    g(x)
  </text>

  <!-- точка A -->
  <text x="75" y="142"
        font-family="Georgia, 'Times New Roman', serif"
        font-size="13"
        fill="#166534">
    A
  </text> y="145"
        font-family="Georgia, 'Times New Roman', serif"
        font-size="13"
        fill="#166534" y="145"
        font-family="Georgia, 'Times New Roman', serif"
        font-size="13"
        fill="#166534"

</svg>
