<svg xmlns="http://www.w3.org/2000/svg" width="220" height="220" viewBox="0 0 220 220">

  <rect x="0" y="0" width="220" height="220" fill="white" />

  <defs>
    <!-- стрелка для осей -->
    <marker id="axis-arrow"
            viewBox="0 0 15 8"
            refX="13" refY="4"
            markerWidth="12" markerHeight="6.4"
            orient="auto"
            markerUnits="userSpaceOnUse">
      <path d="M 3 0 L 15 4 L 3 8 L 7 4 Z"
            fill="black" />
    </marker>
  </defs>

  <!-- тонкая клетчатая сетка 10×10, без окаймления по периметру -->
  <g stroke="#d1d5db" stroke-width="0.5" shape-rendering="crispEdges">
    <!-- вертикальные линии: только внутренние -->
    <line x1="30"  y1="10" x2="30"  y2="210" />
    <line x1="50"  y1="10" x2="50"  y2="210" />
    <line x1="70"  y1="10" x2="70"  y2="210" />
    <line x1="90"  y1="10" x2="90"  y2="210" />
    <line x1="110" y1="10" x2="110" y2="210" />
    <line x1="130" y1="10" x2="130" y2="210" />
    <line x1="150" y1="10" x2="150" y2="210" />
    <line x1="170" y1="10" x2="170" y2="210" />
    <line x1="190" y1="10" x2="190" y2="210" />

    <!-- горизонтальные линии: только внутренние -->
    <line x1="10" y1="30"  x2="210" y2="30"  />
    <line x1="10" y1="50"  x2="210" y2="50"  />
    <line x1="10" y1="70"  x2="210" y2="70"  />
    <line x1="10" y1="90"  x2="210" y2="90"  />
    <line x1="10" y1="110" x2="210" y2="110" />
    <line x1="10" y1="130" x2="210" y2="130" />
    <line x1="10" y1="150" x2="210" y2="150" />
    <line x1="10" y1="170" x2="210" y2="170" />
    <line x1="10" y1="190" x2="210" y2="190" />

</g>

  <!-- оси x и y -->
  <g stroke="#111827" stroke-width="1.25">
    <line x1="10" y1="150" x2="210" y2="150"
          marker-end="url(#axis-arrow)" />
    <line x1="70" y1="210" x2="70" y2="10"
          marker-end="url(#axis-arrow)" />
  </g>

  <!-- подписи осей и делений -->
  <g font-family="sans-serif" font-size="11" fill="#111827">
    <text x="67" y="164" text-anchor="end"
          font-size="13" font-style="italic"
          font-family="Georgia, 'Times New Roman', serif">O</text>

    <rect x="87" y="153" width="7" height="12" fill="white" />
    <text x="90" y="164" text-anchor="middle" font-size="13"
          font-family="'Times New Roman', serif"
          font-weight="300">1</text>

    <text x="63" y="134" text-anchor="end" font-size="13"
          font-family="'Times New Roman', serif"
          font-weight="300">1</text>

    <text x="206" y="163" text-anchor="start"
          font-family="Georgia, 'Times New Roman', serif"
          font-style="italic" font-size="13">x</text>

    <text x="64" y="13" text-anchor="end"
          font-family="Georgia, 'Times New Roman', serif"
          font-style="italic" font-size="13">y</text>
  </g>

  <!-- график y = 4sqrt(x), цвет #2d70b3 -->
  <g stroke="#2d70b3" stroke-width="1.25" fill="none"
     stroke-linecap="round" stroke-linejoin="round">
    <path d="M 70.000 150.000 L 70.146 143.161 L 70.292 140.328 L 70.439 138.154 L 70.585 136.321 L 70.731 134.707 L 70.877 133.247 L 71.023 131.905 L 71.169 130.655 L 71.316 129.482 L 71.462 128.372 L 71.608 127.316 L 71.754 126.307 L 71.900 125.340 L 72.047 124.409 L 72.193 123.511 L 72.339 122.642 L 72.485 121.800 L 72.631 120.983 L 72.777 120.188 L 72.924 119.413 L 73.070 118.658 L 73.216 117.920 L 73.362 117.199 L 73.508 116.494 L 73.655 115.803 L 73.801 115.126 L 73.947 114.461 L 74.093 113.809 L 74.239 113.168 L 74.385 112.539 L 74.532 111.920 L 74.678 111.310 L 74.824 110.710 L 74.970 110.120 L 75.116 109.537 L 75.263 108.963 L 75.409 108.397 L 75.555 107.839 L 75.701 107.288 L 75.847 106.744 L 75.993 106.206 L 76.140 105.675 L 76.286 105.151 L 76.432 104.632 L 76.578 104.120 L 76.724 103.613 L 76.871 103.111 L 77.017 102.615 L 77.163 102.124 L 77.309 101.638 L 77.455 101.157 L 77.601 100.680 L 77.748 100.208 L 77.894 99.741 L 78.040 99.277 L 78.186 98.818 L 78.332 98.363 L 78.479 97.912 L 78.625 97.465 L 78.771 97.022 L 78.917 96.582 L 79.063 96.146 L 79.209 95.714 L 79.356 95.284 L 79.502 94.859 L 79.648 94.436 L 79.794 94.017 L 79.940 93.600 L 80.087 93.187 L 80.233 92.777 L 80.379 92.370 L 80.525 91.965 L 80.671 91.564 L 80.817 91.165 L 80.964 90.769 L 81.110 90.375 L 81.256 89.984 L 81.402 89.596 L 81.548 89.210 L 81.695 88.826 L 81.841 88.445 L 81.987 88.066 L 82.133 87.690 L 82.279 87.315 L 82.425 86.943 L 82.572 86.574 L 82.718 86.206 L 82.864 85.840 L 83.010 85.477 L 83.156 85.115 L 83.303 84.756 L 83.449 84.398 L 83.595 84.043 L 83.741 83.689 L 83.887 83.337 L 84.033 82.987 L 84.180 82.639 L 84.326 82.293 L 84.472 81.948 L 84.618 81.606 L 84.764 81.264 L 84.911 80.925 L 85.057 80.587 L 85.203 80.251 L 85.349 79.917 L 85.495 79.584 L 85.641 79.252 L 85.788 78.922 L 85.934 78.594 L 86.080 78.267 L 86.226 77.942 L 86.372 77.618 L 86.518 77.296 L 86.665 76.975 L 86.811 76.655 L 86.957 76.337 L 87.103 76.020 L 87.249 75.705 L 87.396 75.390 L 87.542 75.078 L 87.688 74.766 L 87.834 74.456 L 87.980 74.147 L 88.126 73.839 L 88.273 73.533 L 88.419 73.227 L 88.565 72.923 L 88.711 72.620 L 88.857 72.319 L 89.004 72.018 L 89.150 71.719 L 89.296 71.421 L 89.442 71.124 L 89.588 70.828 L 89.734 70.533 L 89.881 70.239 L 90.027 69.946 L 90.173 69.655 L 90.319 69.364 L 90.465 69.075 L 90.612 68.786 L 90.758 68.499 L 90.904 68.212 L 91.050 67.927 L 91.196 67.642 L 91.342 67.359 L 91.489 67.076 L 91.635 66.795 L 91.781 66.514 L 91.927 66.234 L 92.073 65.955 L 92.220 65.678 L 92.366 65.401 L 92.512 65.125 L 92.658 64.850 L 92.804 64.575 L 92.950 64.302 L 93.097 64.029 L 93.243 63.758 L 93.389 63.487 L 93.535 63.217 L 93.681 62.948 L 93.828 62.680 L 93.974 62.412 L 94.120 62.146 L 94.266 61.880 L 94.412 61.615 L 94.558 61.351 L 94.705 61.087 L 94.851 60.825 L 94.997 60.563 L 95.143 60.301 L 95.289 60.041 L 95.436 59.781 L 95.582 59.523 L 95.728 59.264 L 95.874 59.007 L 96.020 58.750 L 96.166 58.494 L 96.313 58.239 L 96.459 57.985 L 96.605 57.731 L 96.751 57.478 L 96.897 57.225 L 97.044 56.973 L 97.190 56.722 L 97.336 56.472 L 97.482 56.222 L 97.628 55.973 L 97.774 55.725 L 97.921 55.477 L 98.067 55.230 L 98.213 54.983 L 98.359 54.738 L 98.505 54.492 L 98.652 54.248 L 98.798 54.004 L 98.944 53.760 L 99.090 53.518 L 99.236 53.276 L 99.382 53.034 L 99.529 52.793 L 99.675 52.553 L 99.821 52.313 L 99.967 52.074 L 100.113 51.835 L 100.260 51.597 L 100.406 51.360 L 100.552 51.123 L 100.698 50.887 L 100.844 50.651 L 100.990 50.416 L 101.137 50.182 L 101.283 49.948 L 101.429 49.714 L 101.575 49.481 L 101.721 49.249 L 101.868 49.017 L 102.014 48.785 L 102.160 48.555 L 102.306 48.324 L 102.452 48.095 L 102.598 47.865 L 102.745 47.637 L 102.891 47.408 L 103.037 47.181 L 103.183 46.953 L 103.329 46.727 L 103.476 46.500 L 103.622 46.275 L 103.768 46.049 L 103.914 45.825 L 104.060 45.600 L 104.206 45.377 L 104.353 45.153 L 104.499 44.930 L 104.645 44.708 L 104.791 44.486 L 104.937 44.265 L 105.084 44.044 L 105.230 43.823 L 105.376 43.603 L 105.522 43.384 L 105.668 43.164 L 105.814 42.946 L 105.961 42.727 L 106.107 42.510 L 106.253 42.292 L 106.399 42.075 L 106.545 41.859 L 106.692 41.643 L 106.838 41.427 L 106.984 41.212 L 107.130 40.997 L 107.276 40.783 L 107.422 40.569 L 107.569 40.355 L 107.715 40.142 L 107.861 39.930 L 108.007 39.717 L 108.153 39.505 L 108.300 39.294 L 108.446 39.083 L 108.592 38.872 L 108.738 38.662 L 108.884 38.452 L 109.030 38.243 L 109.177 38.033 L 109.323 37.825 L 109.469 37.616 L 109.615 37.408 L 109.761 37.201 L 109.908 36.994 L 110.054 36.787 L 110.200 36.581 L 110.346 36.375 L 110.492 36.169 L 110.638 35.964 L 110.785 35.759 L 110.931 35.554 L 111.077 35.350 L 111.223 35.146 L 111.369 34.943 L 111.516 34.740 L 111.662 34.537 L 111.808 34.334 L 111.954 34.132 L 112.100 33.931 L 112.246 33.729 L 112.393 33.528 L 112.539 33.328 L 112.685 33.127 L 112.831 32.928 L 112.977 32.728 L 113.124 32.529 L 113.270 32.330 L 113.416 32.131 L 113.562 31.933 L 113.708 31.735 L 113.854 31.537 L 114.001 31.340 L 114.147 31.143 L 114.293 30.946 L 114.439 30.750 L 114.585 30.554 L 114.732 30.359 L 114.878 30.163 L 115.024 29.968 L 115.170 29.773 L 115.316 29.579 L 115.462 29.385 L 115.609 29.191 L 115.755 28.998 L 115.901 28.805 L 116.047 28.612 L 116.193 28.419 L 116.339 28.227 L 116.486 28.035 L 116.632 27.844 L 116.778 27.652 L 116.924 27.461 L 117.070 27.271 L 117.217 27.080 L 117.363 26.890 L 117.509 26.700 L 117.655 26.511 L 117.801 26.321 L 117.947 26.132 L 118.094 25.944 L 118.240 25.755 L 118.386 25.567 L 118.532 25.379 L 118.678 25.192 L 118.825 25.005 L 118.971 24.818 L 119.117 24.631 L 119.263 24.444 L 119.409 24.258 L 119.555 24.072 L 119.702 23.887 L 119.848 23.701 L 119.994 23.516 L 120.140 23.332 L 120.286 23.147 L 120.433 22.963 L 120.579 22.779 L 120.725 22.595 L 120.871 22.412 L 121.017 22.229 L 121.163 22.046 L 121.310 21.863 L 121.456 21.681 L 121.602 21.498 L 121.748 21.317 L 121.894 21.135 L 122.041 20.954 L 122.187 20.772 L 122.333 20.592 L 122.479 20.411 L 122.625 20.231 L 122.771 20.050 L 122.918 19.871 L 123.064 19.691 L 123.210 19.512 L 123.356 19.333 L 123.502 19.154 L 123.649 18.975 L 123.795 18.797 L 123.941 18.619 L 124.087 18.441 L 124.233 18.263 L 124.379 18.086 L 124.526 17.908 L 124.672 17.731 L 124.818 17.555 L 124.964 17.378 L 125.110 17.202 L 125.257 17.026 L 125.403 16.850 L 125.549 16.675 L 125.695 16.499 L 125.841 16.324 L 125.987 16.149 L 126.134 15.975 L 126.280 15.800 L 126.426 15.626 L 126.572 15.452 L 126.718 15.279 L 126.865 15.105 L 127.011 14.932 L 127.157 14.759 L 127.303 14.586 L 127.449 14.413 L 127.595 14.241 L 127.742 14.069 L 127.888 13.897 L 128.034 13.725 L 128.180 13.553 L 128.326 13.382 L 128.473 13.211 L 128.619 13.040 L 128.765 12.870 L 128.911 12.699 L 129.057 12.529 L 129.203 12.359 L 129.350 12.189 L 129.496 12.019 L 129.642 11.850 L 129.788 11.681 L 129.934 11.512 L 130.081 11.343 L 130.227 11.174 L 130.373 11.006 L 130.519 10.838 L 130.665 10.670 L 130.811 10.502 L 130.958 10.335 L 131.104 10.167 L 131.250 10.000" />
  </g>
  <circle cx="90" cy="70" r="2.2" fill="#2d70b3" />
<!-- точки на параболе y = x^2 - 4x (радиус 2.2) -->
<!-- точки на параболе y = x^2 - 5x (радиус 2.2) -->
<!-- точки на параболе y = x^2 - 3x (радиус 2.2) -->
<!-- точки на параболе y = x^2 - 2x (радиус 2.2) -->
  
  

  <!-- прямая y = kx, k = 1/6 (через (6;1)) -->
  <g stroke="#166534" stroke-width="1.25" fill="none">
    <line x1="10" y1="160" x2="210" y2="126.667" />
</g>
  <circle cx="190" cy="130" r="2.2" fill="#166534" />
<!-- точки на новой параболе (радиус 2.2) -->
  <circle cx="70" cy="150" r="2.2" fill="#166534" />
  
  
  <!-- точки на графиках (радиус 2.2) -->
  <!-- точки на параболе — тем же цветом, что и парабола -->
<!-- точка на прямой: (1; 4) -->
<!-- подписи y = f(x), y = g(x) -->
  <text x="120" y="46"
        font-family="Georgia, 'Times New Roman', serif"
        font-style="italic"
        font-size="13"
        fill="#2d70b3">
    f(x)
  </text>

  <text x="160" y="123"
        font-family="Georgia, 'Times New Roman', serif"
        font-style="italic"
        font-size="13"
        fill="#166534">
    g(x)
  </text>

  <!-- точка A -->
  <text x="75" y="142"
        font-family="Georgia, 'Times New Roman', serif"
        font-size="13"
        fill="#166534">
    A
  </text> y="145"
        font-family="Georgia, 'Times New Roman', serif"
        font-size="13"
        fill="#166534" y="145"
        font-family="Georgia, 'Times New Roman', serif"
        font-size="13"
        fill="#166534"

</svg>
