<svg xmlns="http://www.w3.org/2000/svg" width="220" height="220" viewBox="0 0 220 220">

  <rect x="0" y="0" width="220" height="220" fill="white" />

  <defs>
    <!-- стрелка для осей -->
    <marker id="axis-arrow"
            viewBox="0 0 15 8"
            refX="13" refY="4"
            markerWidth="12" markerHeight="6.4"
            orient="auto"
            markerUnits="userSpaceOnUse">
      <path d="M 3 0 L 15 4 L 3 8 L 7 4 Z"
            fill="black" />
    </marker>
  </defs>

  <!-- тонкая клетчатая сетка 10×10, без окаймления по периметру -->
  <g stroke="#d1d5db" stroke-width="0.5" shape-rendering="crispEdges">
    <!-- вертикальные линии: только внутренние -->
    <line x1="30"  y1="10" x2="30"  y2="210" />
    <line x1="50"  y1="10" x2="50"  y2="210" />
    <line x1="70"  y1="10" x2="70"  y2="210" />
    <line x1="90"  y1="10" x2="90"  y2="210" />
    <line x1="110" y1="10" x2="110" y2="210" />
    <line x1="130" y1="10" x2="130" y2="210" />
    <line x1="150" y1="10" x2="150" y2="210" />
    <line x1="170" y1="10" x2="170" y2="210" />
    <line x1="190" y1="10" x2="190" y2="210" />

    <!-- горизонтальные линии: только внутренние -->
    <line x1="10" y1="30"  x2="210" y2="30"  />
    <line x1="10" y1="50"  x2="210" y2="50"  />
    <line x1="10" y1="70"  x2="210" y2="70"  />
    <line x1="10" y1="90"  x2="210" y2="90"  />
    <line x1="10" y1="110" x2="210" y2="110" />
    <line x1="10" y1="130" x2="210" y2="130" />
    <line x1="10" y1="150" x2="210" y2="150" />
    <line x1="10" y1="170" x2="210" y2="170" />
    <line x1="10" y1="190" x2="210" y2="190" />

</g>

  <!-- оси x и y -->
  <g stroke="#111827" stroke-width="1.25">
    <line x1="10" y1="150" x2="210" y2="150"
          marker-end="url(#axis-arrow)" />
    <line x1="70" y1="210" x2="70" y2="10"
          marker-end="url(#axis-arrow)" />
  </g>

  <!-- подписи осей и делений -->
  <g font-family="sans-serif" font-size="11" fill="#111827">
    <text x="67" y="164" text-anchor="end"
          font-size="13" font-style="italic"
          font-family="Georgia, 'Times New Roman', serif">O</text>

    <rect x="87" y="153" width="7" height="12" fill="white" />
    <text x="90" y="164" text-anchor="middle" font-size="13"
          font-family="'Times New Roman', serif"
          font-weight="300">1</text>

    <text x="63" y="134" text-anchor="end" font-size="13"
          font-family="'Times New Roman', serif"
          font-weight="300">1</text>

    <text x="206" y="163" text-anchor="start"
          font-family="Georgia, 'Times New Roman', serif"
          font-style="italic" font-size="13">x</text>

    <text x="64" y="13" text-anchor="end"
          font-family="Georgia, 'Times New Roman', serif"
          font-style="italic" font-size="13">y</text>
  </g>

  <!-- график y = 3sqrt(x), цвет #2d70b3 -->
  <g stroke="#2d70b3" stroke-width="1.25" fill="none"
     stroke-linecap="round" stroke-linejoin="round">
    <path d="M 70.000 150.000 L 70.260 143.161 L 70.520 140.328 L 70.780 138.154 L 71.040 136.321 L 71.299 134.707 L 71.559 133.247 L 71.819 131.905 L 72.079 130.655 L 72.339 129.482 L 72.599 128.372 L 72.859 127.316 L 73.119 126.307 L 73.378 125.340 L 73.638 124.409 L 73.898 123.511 L 74.158 122.642 L 74.418 121.800 L 74.678 120.983 L 74.938 120.188 L 75.198 119.413 L 75.457 118.658 L 75.717 117.920 L 75.977 117.199 L 76.237 116.494 L 76.497 115.803 L 76.757 115.126 L 77.017 114.461 L 77.277 113.809 L 77.536 113.168 L 77.796 112.539 L 78.056 111.920 L 78.316 111.310 L 78.576 110.710 L 78.836 110.120 L 79.096 109.537 L 79.356 108.963 L 79.615 108.397 L 79.875 107.839 L 80.135 107.288 L 80.395 106.744 L 80.655 106.206 L 80.915 105.675 L 81.175 105.151 L 81.435 104.632 L 81.695 104.120 L 81.954 103.613 L 82.214 103.111 L 82.474 102.615 L 82.734 102.124 L 82.994 101.638 L 83.254 101.157 L 83.514 100.680 L 83.774 100.208 L 84.033 99.741 L 84.293 99.277 L 84.553 98.818 L 84.813 98.363 L 85.073 97.912 L 85.333 97.465 L 85.593 97.022 L 85.853 96.582 L 86.112 96.146 L 86.372 95.714 L 86.632 95.284 L 86.892 94.859 L 87.152 94.436 L 87.412 94.017 L 87.672 93.600 L 87.932 93.187 L 88.191 92.777 L 88.451 92.370 L 88.711 91.965 L 88.971 91.564 L 89.231 91.165 L 89.491 90.769 L 89.751 90.375 L 90.011 89.984 L 90.270 89.596 L 90.530 89.210 L 90.790 88.826 L 91.050 88.445 L 91.310 88.066 L 91.570 87.690 L 91.830 87.315 L 92.090 86.943 L 92.350 86.574 L 92.609 86.206 L 92.869 85.840 L 93.129 85.477 L 93.389 85.115 L 93.649 84.756 L 93.909 84.398 L 94.169 84.043 L 94.429 83.689 L 94.688 83.337 L 94.948 82.987 L 95.208 82.639 L 95.468 82.293 L 95.728 81.948 L 95.988 81.606 L 96.248 81.264 L 96.508 80.925 L 96.767 80.587 L 97.027 80.251 L 97.287 79.917 L 97.547 79.584 L 97.807 79.252 L 98.067 78.922 L 98.327 78.594 L 98.587 78.267 L 98.846 77.942 L 99.106 77.618 L 99.366 77.296 L 99.626 76.975 L 99.886 76.655 L 100.146 76.337 L 100.406 76.020 L 100.666 75.705 L 100.925 75.390 L 101.185 75.078 L 101.445 74.766 L 101.705 74.456 L 101.965 74.147 L 102.225 73.839 L 102.485 73.533 L 102.745 73.227 L 103.005 72.923 L 103.264 72.620 L 103.524 72.319 L 103.784 72.018 L 104.044 71.719 L 104.304 71.421 L 104.564 71.124 L 104.824 70.828 L 105.084 70.533 L 105.343 70.239 L 105.603 69.946 L 105.863 69.655 L 106.123 69.364 L 106.383 69.075 L 106.643 68.786 L 106.903 68.499 L 107.163 68.212 L 107.422 67.927 L 107.682 67.642 L 107.942 67.359 L 108.202 67.076 L 108.462 66.795 L 108.722 66.514 L 108.982 66.234 L 109.242 65.955 L 109.501 65.678 L 109.761 65.401 L 110.021 65.125 L 110.281 64.850 L 110.541 64.575 L 110.801 64.302 L 111.061 64.029 L 111.321 63.758 L 111.580 63.487 L 111.840 63.217 L 112.100 62.948 L 112.360 62.680 L 112.620 62.412 L 112.880 62.146 L 113.140 61.880 L 113.400 61.615 L 113.660 61.351 L 113.919 61.087 L 114.179 60.825 L 114.439 60.563 L 114.699 60.301 L 114.959 60.041 L 115.219 59.781 L 115.479 59.523 L 115.739 59.264 L 115.998 59.007 L 116.258 58.750 L 116.518 58.494 L 116.778 58.239 L 117.038 57.985 L 117.298 57.731 L 117.558 57.478 L 117.818 57.225 L 118.077 56.973 L 118.337 56.722 L 118.597 56.472 L 118.857 56.222 L 119.117 55.973 L 119.377 55.725 L 119.637 55.477 L 119.897 55.230 L 120.156 54.983 L 120.416 54.738 L 120.676 54.492 L 120.936 54.248 L 121.196 54.004 L 121.456 53.760 L 121.716 53.518 L 121.976 53.276 L 122.235 53.034 L 122.495 52.793 L 122.755 52.553 L 123.015 52.313 L 123.275 52.074 L 123.535 51.835 L 123.795 51.597 L 124.055 51.360 L 124.315 51.123 L 124.574 50.887 L 124.834 50.651 L 125.094 50.416 L 125.354 50.182 L 125.614 49.948 L 125.874 49.714 L 126.134 49.481 L 126.394 49.249 L 126.653 49.017 L 126.913 48.785 L 127.173 48.555 L 127.433 48.324 L 127.693 48.095 L 127.953 47.865 L 128.213 47.637 L 128.473 47.408 L 128.732 47.181 L 128.992 46.953 L 129.252 46.727 L 129.512 46.500 L 129.772 46.275 L 130.032 46.049 L 130.292 45.825 L 130.552 45.600 L 130.811 45.377 L 131.071 45.153 L 131.331 44.930 L 131.591 44.708 L 131.851 44.486 L 132.111 44.265 L 132.371 44.044 L 132.631 43.823 L 132.890 43.603 L 133.150 43.384 L 133.410 43.164 L 133.670 42.946 L 133.930 42.727 L 134.190 42.510 L 134.450 42.292 L 134.710 42.075 L 134.970 41.859 L 135.229 41.643 L 135.489 41.427 L 135.749 41.212 L 136.009 40.997 L 136.269 40.783 L 136.529 40.569 L 136.789 40.355 L 137.049 40.142 L 137.308 39.930 L 137.568 39.717 L 137.828 39.505 L 138.088 39.294 L 138.348 39.083 L 138.608 38.872 L 138.868 38.662 L 139.128 38.452 L 139.387 38.243 L 139.647 38.033 L 139.907 37.825 L 140.167 37.616 L 140.427 37.408 L 140.687 37.201 L 140.947 36.994 L 141.207 36.787 L 141.466 36.581 L 141.726 36.375 L 141.986 36.169 L 142.246 35.964 L 142.506 35.759 L 142.766 35.554 L 143.026 35.350 L 143.286 35.146 L 143.545 34.943 L 143.805 34.740 L 144.065 34.537 L 144.325 34.334 L 144.585 34.132 L 144.845 33.931 L 145.105 33.729 L 145.365 33.528 L 145.625 33.328 L 145.884 33.127 L 146.144 32.928 L 146.404 32.728 L 146.664 32.529 L 146.924 32.330 L 147.184 32.131 L 147.444 31.933 L 147.704 31.735 L 147.963 31.537 L 148.223 31.340 L 148.483 31.143 L 148.743 30.946 L 149.003 30.750 L 149.263 30.554 L 149.523 30.359 L 149.783 30.163 L 150.042 29.968 L 150.302 29.773 L 150.562 29.579 L 150.822 29.385 L 151.082 29.191 L 151.342 28.998 L 151.602 28.805 L 151.862 28.612 L 152.121 28.419 L 152.381 28.227 L 152.641 28.035 L 152.901 27.844 L 153.161 27.652 L 153.421 27.461 L 153.681 27.271 L 153.941 27.080 L 154.200 26.890 L 154.460 26.700 L 154.720 26.511 L 154.980 26.321 L 155.240 26.132 L 155.500 25.944 L 155.760 25.755 L 156.020 25.567 L 156.280 25.379 L 156.539 25.192 L 156.799 25.005 L 157.059 24.818 L 157.319 24.631 L 157.579 24.444 L 157.839 24.258 L 158.099 24.072 L 158.359 23.887 L 158.618 23.701 L 158.878 23.516 L 159.138 23.332 L 159.398 23.147 L 159.658 22.963 L 159.918 22.779 L 160.178 22.595 L 160.438 22.412 L 160.697 22.229 L 160.957 22.046 L 161.217 21.863 L 161.477 21.681 L 161.737 21.498 L 161.997 21.317 L 162.257 21.135 L 162.517 20.954 L 162.776 20.772 L 163.036 20.592 L 163.296 20.411 L 163.556 20.231 L 163.816 20.050 L 164.076 19.871 L 164.336 19.691 L 164.596 19.512 L 164.855 19.333 L 165.115 19.154 L 165.375 18.975 L 165.635 18.797 L 165.895 18.619 L 166.155 18.441 L 166.415 18.263 L 166.675 18.086 L 166.935 17.908 L 167.194 17.731 L 167.454 17.555 L 167.714 17.378 L 167.974 17.202 L 168.234 17.026 L 168.494 16.850 L 168.754 16.675 L 169.014 16.499 L 169.273 16.324 L 169.533 16.149 L 169.793 15.975 L 170.053 15.800 L 170.313 15.626 L 170.573 15.452 L 170.833 15.279 L 171.093 15.105 L 171.352 14.932 L 171.612 14.759 L 171.872 14.586 L 172.132 14.413 L 172.392 14.241 L 172.652 14.069 L 172.912 13.897 L 173.172 13.725 L 173.431 13.553 L 173.691 13.382 L 173.951 13.211 L 174.211 13.040 L 174.471 12.870 L 174.731 12.699 L 174.991 12.529 L 175.251 12.359 L 175.510 12.189 L 175.770 12.019 L 176.030 11.850 L 176.290 11.681 L 176.550 11.512 L 176.810 11.343 L 177.070 11.174 L 177.330 11.006 L 177.589 10.838 L 177.849 10.670 L 178.109 10.502 L 178.369 10.335 L 178.629 10.167 L 178.889 10.000" />
  </g>





  <circle cx="90" cy="90" r="2.2" fill="#2d70b3" />
  <!-- точки на параболе y = x^2 - 4x (радиус 2.2) -->
<!-- точки на параболе y = x^2 - 5x (радиус 2.2) -->
<!-- точки на параболе y = x^2 - 3x (радиус 2.2) -->
<!-- точки на параболе y = x^2 - 2x (радиус 2.2) -->
  
  

  <!-- прямая y = kx, k = 1/6 (через (6;1)) -->
  <g stroke="#166534" stroke-width="1.25" fill="none">
    <line x1="10" y1="160" x2="210" y2="126.667" />
</g>
  <circle cx="190" cy="130" r="2.2" fill="#166534" />
<!-- точки на новой параболе (радиус 2.2) -->
  <circle cx="70" cy="150" r="2.2" fill="#166534" />
  
  
  <!-- точки на графиках (радиус 2.2) -->
  <!-- точки на параболе — тем же цветом, что и парабола -->
<!-- точка на прямой: (1; 4) -->
<!-- подписи y = f(x), y = g(x) -->
  <text x="151" y="46"
        font-family="Georgia, 'Times New Roman', serif"
        font-style="italic"
        font-size="13"
        fill="#2d70b3">
    f(x)
  </text>

  <text x="160" y="123"
        font-family="Georgia, 'Times New Roman', serif"
        font-style="italic"
        font-size="13"
        fill="#166534">
    g(x)
  </text>

  <!-- точка A -->
  <text x="75" y="142"
        font-family="Georgia, 'Times New Roman', serif"
        font-size="13"
        fill="#166534">
    A
  </text> y="145"
        font-family="Georgia, 'Times New Roman', serif"
        font-size="13"
        fill="#166534" y="145"
        font-family="Georgia, 'Times New Roman', serif"
        font-size="13"
        fill="#166534"

</svg>
