<svg xmlns="http://www.w3.org/2000/svg" width="220" height="220" viewBox="0 0 220 220">

  <rect x="0" y="0" width="220" height="220" fill="white" />

  <defs>
    <!-- стрелка для осей -->
    <marker id="axis-arrow"
            viewBox="0 0 15 8"
            refX="13" refY="4"
            markerWidth="12" markerHeight="6.4"
            orient="auto"
            markerUnits="userSpaceOnUse">
      <path d="M 3 0 L 15 4 L 3 8 L 7 4 Z"
            fill="black" />
    </marker>
  </defs>

  <!-- тонкая клетчатая сетка: по x и y от -5 до 5 (10×10), без окаймления -->
  <g stroke="#d1d5db" stroke-width="0.5" shape-rendering="crispEdges">
    <!-- вертикальные линии: только внутренние -->
    <line x1="30"  y1="10" x2="30"  y2="210" />
    <line x1="50"  y1="10" x2="50"  y2="210" />
    <line x1="70"  y1="10" x2="70"  y2="210" />
    <line x1="90"  y1="10" x2="90"  y2="210" />
    <line x1="110" y1="10" x2="110" y2="210" />
    <line x1="130" y1="10" x2="130" y2="210" />
    <line x1="150" y1="10" x2="150" y2="210" />
    <line x1="170" y1="10" x2="170" y2="210" />
    <line x1="190" y1="10" x2="190" y2="210" />

    <!-- горизонтальные линии: только внутренние -->
    <line x1="10" y1="30"  x2="210" y2="30"  />
    <line x1="10" y1="50"  x2="210" y2="50"  />
    <line x1="10" y1="70"  x2="210" y2="70"  />
    <line x1="10" y1="90"  x2="210" y2="90"  />
    <line x1="10" y1="110" x2="210" y2="110" />
    <line x1="10" y1="130" x2="210" y2="130" />
    <line x1="10" y1="150" x2="210" y2="150" />
    <line x1="10" y1="170" x2="210" y2="170" />
    <line x1="10" y1="190" x2="210" y2="190" />
  </g>

  <!-- оси x и y (0 находится в точке (110;110)) -->
  <g stroke="#111827" stroke-width="1.25">
    <line x1="10" y1="110" x2="210" y2="110"
          marker-end="url(#axis-arrow)" />
    <line x1="110" y1="210" x2="110" y2="10"
          marker-end="url(#axis-arrow)" />
  </g>

  <!-- подписи осей и делений -->
  <g font-family="sans-serif" font-size="11" fill="#111827">
    <text x="106" y="123" text-anchor="end"
          font-size="13" font-style="italic"
          font-family="Georgia, 'Times New Roman', serif">O</text>

    <rect x="127" y="113" width="7" height="12" fill="white" />
    <text x="130" y="124" text-anchor="middle" font-size="13"
          font-family="'Times New Roman', serif"
          font-weight="300">1</text>

    <text x="103" y="94" text-anchor="end" font-size="13"
          font-family="'Times New Roman', serif"
          font-weight="300">1</text>

    <text x="206" y="123" text-anchor="start"
          font-family="Georgia, 'Times New Roman', serif"
          font-style="italic" font-size="13">x</text>

    <text x="107" y="13" text-anchor="end"
          font-family="Georgia, 'Times New Roman', serif"
          font-style="italic" font-size="13">y</text>
  </g>

  <!-- гипербола y = -8/x (в пределах окна [-5;5]×[-5;5]) -->
  <g stroke="#2d70b3" stroke-width="1.25" fill="none"
     stroke-linecap="round" stroke-linejoin="round">
    <!-- ветвь во II квадранте -->
    <polyline points="
      10.00000,78.00000 11.38776,77.54967 12.77551,77.08648 14.16327,76.60988 15.55102,76.11927
      16.93878,75.61404 18.32653,75.09350 19.71429,74.55696 21.10204,74.00367 22.48980,73.43284
      23.87755,72.84360 25.26531,72.23507 26.65306,71.60627 28.04082,70.95618 29.42857,70.28369
      30.81633,69.58763 32.20408,68.86674 33.59184,68.11966 34.97959,67.34494 36.36735,66.54102
      37.75510,65.70621 39.14286,64.83871 40.53061,63.93655 41.91837,62.99760 43.30612,62.01958
      44.69388,61.00000 46.08163,59.93614 47.46939,58.82507 48.85714,57.66355 50.24490,56.44809
      51.63265,55.17483 53.02041,53.83954 54.40816,52.43759 55.79592,50.96386 57.18367,49.41267
      58.57143,47.77778 59.95918,46.05220 61.34694,44.22819 62.73469,42.29706 64.12245,40.24911
      65.51020,38.07339 66.89796,35.75758 68.28571,33.28767 69.67347,30.64777 71.06122,27.81971
      72.44898,24.78261 73.83673,21.51242 75.22449,17.98122 76.61224,14.15648 78.00000,10.00000
    " />
    <!-- ветвь в IV квадранте -->
    <polyline points="
      142.00000,210.00000 143.38776,205.84352 144.77551,202.01878 146.16327,198.48758 147.55102,195.21739
      148.93878,192.18029 150.32653,189.35223 151.71429,186.71233 153.10204,184.24242 154.48980,181.92661
      155.87755,179.75089 157.26531,177.70294 158.65306,175.77181 160.04082,173.94780 161.42857,172.22222
      162.81633,170.58733 164.20408,169.03614 165.59184,167.56241 166.97959,166.16046 168.36735,164.82517
      169.75510,163.55191 171.14286,162.33645 172.53061,161.17493 173.91837,160.06386 175.30612,159.00000
      176.69388,157.98042 178.08163,157.00240 179.46939,156.06345 180.85714,155.16129 182.24490,154.29379
      183.63265,153.45898 185.02041,152.65506 186.40816,151.88034 187.79592,151.13326 189.18367,150.41237
      190.57143,149.71631 191.95918,149.04382 193.34694,148.39373 194.73469,147.76493 196.12245,147.15640
      197.51020,146.56716 198.89796,145.99633 200.28571,145.44304 201.67347,144.90650 203.06122,144.38596
      204.44898,143.88073 205.83673,143.39012 207.22449,142.91352 208.61224,142.45033 210.00000,142.00000
    " />
  </g>


  <!-- прямая через точки (4;-2) и (0;-1) -->
  <g stroke="#166534" stroke-width="1.25" fill="none" stroke-linecap="round" stroke-linejoin="round">
    <line x1="10" y1="105" x2="210" y2="155" />
  </g>

  <!-- отмеченные точки (4;-2) и (0;-1) -->
  <circle cx="190" cy="150" r="2.2" fill="#166534" />
  <circle cx="110" cy="130" r="2.2" fill="#166534" />

  <!-- подпись A -->
  <text x="186.0" y="168.0"
        font-family="Georgia, 'Times New Roman', serif"
        font-style="italic"
        font-size="13"
        fill="#166534">А</text>

  <!-- подпись f(x) -->
  <text x="23" y="50"
        font-family="Georgia, 'Times New Roman', serif"
        font-style="italic"
        font-size="13"
        fill="#2d70b3">
    f(x)
  </text>
  <!-- подпись g(x) -->
  <text x="30" y="130"
        font-family="Georgia, 'Times New Roman', serif"
        font-style="italic"
        font-size="13"
        fill="#166534">
    g(x)
  </text>

</svg>
