<svg xmlns="http://www.w3.org/2000/svg" width="260" height="260" viewBox="0 0 260 260">

  <rect x="0" y="0" width="260" height="260" fill="white" />

  <defs>
    <marker id="axis-arrow"
            viewBox="0 0 15 8"
            refX="13" refY="4"
            markerWidth="12" markerHeight="6.4"
            orient="auto"
            markerUnits="userSpaceOnUse">
      <path d="M 3 0 L 15 4 L 3 8 L 7 4 Z" fill="black" />
    </marker>
  </defs>

  <!-- тонкая клетчатая сетка: по x и y от -6 до 6 (12×12), без окаймления -->
  <g stroke="#d1d5db" stroke-width="0.5" shape-rendering="crispEdges">
    <!-- вертикальные линии: только внутренние -->
    <line x1="30" y1="10" x2="30" y2="250" />
    <line x1="50" y1="10" x2="50" y2="250" />
    <line x1="70" y1="10" x2="70" y2="250" />
    <line x1="90" y1="10" x2="90" y2="250" />
    <line x1="110" y1="10" x2="110" y2="250" />
    <line x1="130" y1="10" x2="130" y2="250" />
    <line x1="150" y1="10" x2="150" y2="250" />
    <line x1="170" y1="10" x2="170" y2="250" />
    <line x1="190" y1="10" x2="190" y2="250" />
    <line x1="210" y1="10" x2="210" y2="250" />
    <line x1="230" y1="10" x2="230" y2="250" />

    <!-- горизонтальные линии: только внутренние -->
    <line x1="10" y1="30" x2="250" y2="30" />
    <line x1="10" y1="50" x2="250" y2="50" />
    <line x1="10" y1="70" x2="250" y2="70" />
    <line x1="10" y1="90" x2="250" y2="90" />
    <line x1="10" y1="110" x2="250" y2="110" />
    <line x1="10" y1="130" x2="250" y2="130" />
    <line x1="10" y1="150" x2="250" y2="150" />
    <line x1="10" y1="170" x2="250" y2="170" />
    <line x1="10" y1="190" x2="250" y2="190" />
    <line x1="10" y1="210" x2="250" y2="210" />
    <line x1="10" y1="230" x2="250" y2="230" />
  </g>

  <!-- оси x и y (0 находится в точке (130;130)) -->
  <g stroke="#111827" stroke-width="1.25">
    <line x1="10" y1="130" x2="250" y2="130" marker-end="url(#axis-arrow)" />
    <line x1="130" y1="250" x2="130" y2="10" marker-end="url(#axis-arrow)" />
  </g>

  <!-- подписи осей и делений -->
  <g font-family="sans-serif" font-size="11" fill="#111827">
    <text x="126" y="143" text-anchor="end"
          font-size="13" font-style="italic"
          font-family="Georgia, 'Times New Roman', serif">O</text>

    <!-- 1 по оси x (сдвиг -2px по x и -1px по y), фон белый -->
    <rect x="145" y="132" width="7" height="12" fill="white" />
    <text x="148" y="143" text-anchor="middle" font-size="13"
          font-family="'Times New Roman', serif" font-weight="300">1</text>

    <!-- 1 по оси y -->
    <text x="123" y="114" text-anchor="end" font-size="13"
          font-family="'Times New Roman', serif" font-weight="300">1</text>

    <text x="246" y="143" text-anchor="start"
          font-family="Georgia, 'Times New Roman', serif"
          font-style="italic" font-size="13">x</text>

    <text x="127" y="13" text-anchor="end"
          font-family="Georgia, 'Times New Roman', serif"
          font-style="italic" font-size="13">y</text>
  </g>

  <!-- прямая g(x), проходящая через (-3;-4) и (0;-3); рисуем до x=5.5 -->
  <g stroke="#166534" stroke-width="1.25" fill="none"
     stroke-linecap="round" stroke-linejoin="round">
    <line x1="10.00000" y1="230.00000" x2="240.00000" y2="153.33333" />
  </g>

  <!-- гипербола y ≈ a/x (аппроксимация МНК), 100 точек на ветвь, 5 знаков; проходит через (-3;-4) (k=12) -->
  <g stroke="#2d70b3" stroke-width="1.25" fill="none"
     stroke-linecap="round" stroke-linejoin="round">
    <!-- ветвь в III квадранте -->
    <polyline points="
      10.00000,170.00000 10.80808,170.27119 11.61616,170.54608 12.42424,170.82474 13.23232,171.10727
      14.04040,171.39373 14.84848,171.68421 15.65657,171.97880 16.46465,172.27758 17.27273,172.58065
      18.08081,172.88809 18.88889,173.20000 19.69697,173.51648 20.50505,173.83764 21.31313,174.16357
      22.12121,174.49438 22.92929,174.83019 23.73737,175.17110 24.54545,175.51724 25.35354,175.86873
      26.16162,176.22568 26.96970,176.58824 27.77778,176.95652 28.58586,177.33068 29.39394,177.71084
      30.20202,178.09717 31.01010,178.48980 31.81818,178.88889 32.62626,179.29461 33.43434,179.70711
      34.24242,180.12658 35.05051,180.55319 35.85859,180.98712 36.66667,181.42857 37.47475,181.87773
      38.28283,182.33480 39.09091,182.80000 39.89899,183.27354 40.70707,183.75566 41.51515,184.24658
      42.32323,184.74654 43.13131,185.25581 43.93939,185.77465 44.74747,186.30332 45.55556,186.84211
      46.36364,187.39130 47.17172,187.95122 47.97980,188.52217 48.78788,189.10448 49.59596,189.69849
      50.40404,190.30457 51.21212,190.92308 52.02020,191.55440 52.82828,192.19895 53.63636,192.85714
      54.44444,193.52941 55.25253,194.21622 56.06061,194.91803 56.86869,195.63536 57.67677,196.36872
      58.48485,197.11864 59.29293,197.88571 60.10101,198.67052 60.90909,199.47368 61.71717,200.29586
      62.52525,201.13772 63.33333,202.00000 64.14141,202.88344 64.94949,203.78882 65.75758,204.71698
      66.56566,205.66879 67.37374,206.64516 68.18182,207.64706 68.98990,208.67550 69.79798,209.73154
      70.60606,210.81633 71.41414,211.93103 72.22222,213.07692 73.03030,214.25532 73.83838,215.46763
      74.64646,216.71533 75.45455,218.00000 76.26263,219.32331 77.07071,220.68702 77.87879,222.09302
      78.68687,223.54331 79.49495,225.04000 80.30303,226.58537 81.11111,228.18182 81.91919,229.83193
      82.72727,231.53846 83.53535,233.30435 84.34343,235.13274 85.15152,237.02703 85.95960,238.99083
      86.76768,241.02804 87.57576,243.14286 88.38384,245.33981 89.19192,247.62376 90.00000,250.00000
    " />
    <!-- ветвь в I квадранте -->
    <polyline points="
      170.00000,10.00000 170.80808,12.37624 171.61616,14.66019 172.42424,16.85714 173.23232,18.97196
      174.04040,21.00917 174.84848,22.97297 175.65657,24.86726 176.46465,26.69565 177.27273,28.46154
      178.08081,30.16807 178.88889,31.81818 179.69697,33.41463 180.50505,34.96000 181.31313,36.45669
      182.12121,37.90698 182.92929,39.31298 183.73737,40.67669 184.54545,42.00000 185.35354,43.28467
      186.16162,44.53237 186.96970,45.74468 187.77778,46.92308 188.58586,48.06897 189.39394,49.18367
      190.20202,50.26846 191.01010,51.32450 191.81818,52.35294 192.62626,53.35484 193.43434,54.33121
      194.24242,55.28302 195.05051,56.21118 195.85859,57.11656 196.66667,58.00000 197.47475,58.86228
      198.28283,59.70414 199.09091,60.52632 199.89899,61.32948 200.70707,62.11429 201.51515,62.88136
      202.32323,63.63128 203.13131,64.36464 203.93939,65.08197 204.74747,65.78378 205.55556,66.47059
      206.36364,67.14286 207.17172,67.80105 207.97980,68.44560 208.78788,69.07692 209.59596,69.69543
      210.40404,70.30151 211.21212,70.89552 212.02020,71.47783 212.82828,72.04878 213.63636,72.60870
      214.44444,73.15789 215.25253,73.69668 216.06061,74.22535 216.86869,74.74419 217.67677,75.25346
      218.48485,75.75342 219.29293,76.24434 220.10101,76.72646 220.90909,77.20000 221.71717,77.66520
      222.52525,78.12227 223.33333,78.57143 224.14141,79.01288 224.94949,79.44681 225.75758,79.87342
      226.56566,80.29289 227.37374,80.70539 228.18182,81.11111 228.98990,81.51020 229.79798,81.90283
      230.60606,82.28916 231.41414,82.66932 232.22222,83.04348 233.03030,83.41176 233.83838,83.77432
      234.64646,84.13127 235.45455,84.48276 236.26263,84.82890 237.07071,85.16981 237.87879,85.50562
      238.68687,85.83643 239.49495,86.16236 240.30303,86.48352 241.11111,86.80000 241.91919,87.11191
      242.72727,87.41935 243.53535,87.72242 244.34343,88.02120 245.15152,88.31579 245.95960,88.60627
      246.76768,88.89273 247.57576,89.17526 248.38384,89.45392 249.19192,89.72881 250.00000,90.00000
    " />
  </g>

  <!-- точки (-3;-4) и (0;-3) -->
  <circle cx="70" cy="210" r="2.2" fill="#166534" />
  <circle cx="130" cy="190" r="2.2" fill="#166534" />

  <!-- буква A в (-3;-3.5), затем +6 px вправо -->
  <text x="76" y="200"
        text-anchor="middle"
        font-family="Georgia, 'Times New Roman', serif"
        font-style="italic"
        font-size="13"
        fill="#166534">A</text>

  <!-- подписи функций -->
  <text x="170" y="199"
        font-family="Georgia, 'Times New Roman', serif"
        font-style="italic"
        font-size="13"
        fill="#166534">g(x)</text>

  <text x="210" y="50"
        font-family="Georgia, 'Times New Roman', serif"
        font-style="italic"
        font-size="13"
        fill="#2d70b3">f(x)</text>

</svg>
