<svg xmlns="http://www.w3.org/2000/svg" width="220" height="220" viewBox="0 0 220 220">

  <rect x="0" y="0" width="220" height="220" fill="white" />

  <defs>
    <!-- стрелка для осей -->
    <marker id="axis-arrow"
            viewBox="0 0 15 8"
            refX="13" refY="4"
            markerWidth="12" markerHeight="6.4"
            orient="auto"
            markerUnits="userSpaceOnUse">
      <path d="M 3 0 L 15 4 L 3 8 L 7 4 Z"
            fill="black" />
    </marker>
  </defs>

  <!-- тонкая клетчатая сетка: по x и y от -5 до 5 (10×10), без окаймления -->
  <g stroke="#d1d5db" stroke-width="0.5" shape-rendering="crispEdges">
    <!-- вертикальные линии: только внутренние -->
    <line x1="30"  y1="10" x2="30"  y2="210" />
    <line x1="50"  y1="10" x2="50"  y2="210" />
    <line x1="70"  y1="10" x2="70"  y2="210" />
    <line x1="90"  y1="10" x2="90"  y2="210" />
    <line x1="110" y1="10" x2="110" y2="210" />
    <line x1="130" y1="10" x2="130" y2="210" />
    <line x1="150" y1="10" x2="150"  y2="210" />
    <line x1="170" y1="10" x2="170"  y2="210" />
    <line x1="190" y1="10" x2="190"  y2="210" />

    <!-- горизонтальные линии: только внутренние -->
    <line x1="10" y1="30"  x2="210" y2="30"  />
    <line x1="10" y1="50"  x2="210" y2="50"  />
    <line x1="10" y1="70"  x2="210" y2="70"  />
    <line x1="10" y1="90"  x2="210" y2="90"  />
    <line x1="10" y1="110" x2="210" y2="110" />
    <line x1="10" y1="130" x2="210" y2="130" />
    <line x1="10" y1="150" x2="210" y2="150" />
    <line x1="10" y1="170" x2="210" y2="170" />
    <line x1="10" y1="190" x2="210" y2="190" />
  </g>

  <!-- оси x и y (0 находится в точке (110;110)) -->
  <g stroke="#111827" stroke-width="1.25">
    <line x1="10" y1="110" x2="210" y2="110"
          marker-end="url(#axis-arrow)" />
    <line x1="110" y1="210" x2="110" y2="10"
          marker-end="url(#axis-arrow)" />
  </g>

  <!-- подписи осей и делений -->
  <g font-family="sans-serif" font-size="11" fill="#111827">
    <text x="106" y="123" text-anchor="end"
          font-size="13" font-style="italic"
          font-family="Georgia, 'Times New Roman', serif">O</text>

    <!-- 1 по оси x: сдвиг на 2 px влево и на 1 px вверх -->
    <rect x="125" y="112" width="7" height="12" fill="white" />
    <text x="128" y="123" text-anchor="middle" font-size="13"
          font-family="'Times New Roman', serif"
          font-weight="300">1</text>

    <text x="103" y="94" text-anchor="end" font-size="13"
          font-family="'Times New Roman', serif"
          font-weight="300">1</text>

    <text x="206" y="123" text-anchor="start"
          font-family="Georgia, 'Times New Roman', serif"
          font-style="italic" font-size="13">x</text>

    <text x="107" y="13" text-anchor="end"
          font-family="Georgia, 'Times New Roman', serif"
          font-style="italic" font-size="13">y</text>
  </g>

  <!-- прямая g(x), проходящая через (-2;-4) и (0;-3) -->
  <g stroke="#166534" stroke-width="1.25" fill="none"
     stroke-linecap="round" stroke-linejoin="round">
    <!-- y = x/4 - 1, в пределах окна [-5;5]×[-5;5] -->
    <line x1="30" y1="210" x2="200" y2="125" />
  </g>

  <!-- гипербола y ≈ a/x (аппроксимация МНК), 100 точек на ветвь, координаты с 5 знаками -->
  <g stroke="#2d70b3" stroke-width="1.25" fill="none"
     stroke-linecap="round" stroke-linejoin="round">
    <!-- ветвь в III квадранте -->
    <polyline points="
      10.00000,142.00000 10.68687,142.22132 11.37374,142.44572 12.06061,142.67327 12.74747,142.90403
      13.43434,143.13808 14.12121,143.37547 14.80808,143.61630 15.49495,143.86062 16.18182,144.10853
      16.86869,144.36009 17.55556,144.61538 18.24242,144.87450 18.92929,145.13753 19.61616,145.40456
      20.30303,145.67568 20.98990,145.95098 21.67677,146.23056 22.36364,146.51452 23.05051,146.80297
      23.73737,147.09602 24.42424,147.39377 25.11111,147.69634 25.79798,148.00384 26.48485,148.31640
      27.17172,148.63415 27.85859,148.95721 28.54545,149.28571 29.23232,149.61981 29.91919,149.95964
      30.60606,150.30534 31.29293,150.65708 31.97980,151.01502 32.66667,151.37931 33.35354,151.75013
      34.04040,152.12766 34.72727,152.51208 35.41414,152.90358 36.10101,153.30235 36.78788,153.70861
      37.47475,154.12256 38.16162,154.54443 38.84848,154.97445 39.53535,155.41284 40.22222,155.85987
      40.90909,156.31579 41.59596,156.78086 42.28283,157.25537 42.96970,157.73960 43.65657,158.23386
      44.34343,158.73846 45.03030,159.25373 45.71717,159.78001 46.40404,160.31766 47.09091,160.86705
      47.77778,161.42857 48.46465,162.00263 49.15152,162.58964 49.83838,163.19006 50.52525,163.80435
      51.21212,164.43299 51.89899,165.07650 52.58586,165.73540 53.27273,166.41026 53.95960,167.10166
      54.64646,167.81022 55.33333,168.53659 56.02020,169.28144 56.70707,170.04549 57.39394,170.82949
      58.08081,171.63424 58.76768,172.46057 59.45455,173.30935 60.14141,174.18152 60.82828,175.07806
      61.51515,176.00000 62.20202,176.94844 62.88889,177.92453 63.57576,178.92950 64.26263,179.96466
      64.94949,181.03139 65.63636,182.13115 66.32323,183.26549 67.01010,184.43609 67.69697,185.64470
      68.38384,186.89320 69.07071,188.18361 69.75758,189.51807 70.44444,190.89888 71.13131,192.32848
      71.81818,193.80952 72.50505,195.34483 73.19192,196.93743 73.87879,198.59060 74.56566,200.30787
      75.25253,202.09302 75.93939,203.95018 76.62626,205.88378 77.31313,207.89864 78.00000,210.00000
    " />
    <!-- ветвь в I квадранте -->
    <polyline points="
      142.00000,10.00000 142.68687,12.10136 143.37374,14.11622 144.06061,16.04982 144.74747,17.90698
      145.43434,19.69213 146.12121,21.40940 146.80808,23.06257 147.49495,24.65517 148.18182,26.19048
      148.86869,27.67152 149.55556,29.10112 150.24242,30.48193 150.92929,31.81639 151.61616,33.10680
      152.30303,34.35530 152.98990,35.56391 153.67677,36.73451 154.36364,37.86885 155.05051,38.96861
      155.73737,40.03534 156.42424,41.07050 157.11111,42.07547 157.79798,43.05156 158.48485,44.00000
      159.17172,44.92194 159.85859,45.81848 160.54545,46.69065 161.23232,47.53943 161.91919,48.36576
      162.60606,49.17051 163.29293,49.95451 163.97980,50.71856 164.66667,51.46341 165.35354,52.18978
      166.04040,52.89834 166.72727,53.58974 167.41414,54.26460 168.10101,54.92350 168.78788,55.56701
      169.47475,56.19565 170.16162,56.80994 170.84848,57.41036 171.53535,57.99737 172.22222,58.57143
      172.90909,59.13295 173.59596,59.68234 174.28283,60.21999 174.96970,60.74627 175.65657,61.26154
      176.34343,61.76614 177.03030,62.26040 177.71717,62.74463 178.40404,63.21914 179.09091,63.68421
      179.77778,64.14013 180.46465,64.58716 181.15152,65.02555 181.83838,65.45557 182.52525,65.87744
      183.21212,66.29139 183.89899,66.69765 184.58586,67.09642 185.27273,67.48792 185.95960,67.87234
      186.64646,68.24987 187.33333,68.62069 188.02020,68.98498 188.70707,69.34292 189.39394,69.69466
      190.08081,70.04036 190.76768,70.38019 191.45455,70.71429 192.14141,71.04279 192.82828,71.36585
      193.51515,71.68360 194.20202,71.99616 194.88889,72.30366 195.57576,72.60623 196.26263,72.90398
      196.94949,73.19703 197.63636,73.48548 198.32323,73.76944 199.01010,74.04902 199.69697,74.32432
      200.38384,74.59544 201.07071,74.86247 201.75758,75.12550 202.44444,75.38462 203.13131,75.63991
      203.81818,75.89147 204.50505,76.13938 205.19192,76.38370 205.87879,76.62453 206.56566,76.86192
      207.25253,77.09597 207.93939,77.32673 208.62626,77.55428 209.31313,77.77868 210.00000,78.00000
    " />
  </g>
  <!-- точки (-2;-4) и (0;-3) -->
  <circle cx="70" cy="190" r="2.2" fill="#166534" />
  <circle cx="110" cy="170" r="2.2" fill="#166534" />

  <!-- буква A в (-2;-3) -->
  <text x="76" y="180"
        text-anchor="middle"
        font-family="Georgia, 'Times New Roman', serif"
        font-style="italic"
        font-size="13"
        fill="#166534">A</text>

<!-- подписи функций: f(x) и g(x) поменяны местами (и цветом) -->
  <text x="150" y="169"
        font-family="Georgia, 'Times New Roman', serif"
        font-style="italic"
        font-size="13"
        fill="#166534">g(x)</text>

  <text x="170" y="30"
        font-family="Georgia, 'Times New Roman', serif"
        font-style="italic"
        font-size="13"
        fill="#2d70b3">
    f(x)
  </text>

</svg>
