<svg xmlns="http://www.w3.org/2000/svg" width="220" height="220" viewBox="0 0 220 220">

  <rect x="0" y="0" width="220" height="220" fill="white" />

  <defs>
    <!-- стрелка для осей -->
    <marker id="axis-arrow"
            viewBox="0 0 15 8"
            refX="13" refY="4"
            markerWidth="12" markerHeight="6.4"
            orient="auto"
            markerUnits="userSpaceOnUse">
      <path d="M 3 0 L 15 4 L 3 8 L 7 4 Z"
            fill="black" />
    </marker>
  </defs>

  <!-- тонкая клетчатая сетка: по x и y от -5 до 5 (10×10), без окаймления -->
  <g stroke="#d1d5db" stroke-width="0.5" shape-rendering="crispEdges">
    <!-- вертикальные линии: только внутренние -->
    <line x1="30"  y1="10" x2="30"  y2="210" />
    <line x1="50"  y1="10" x2="50"  y2="210" />
    <line x1="70"  y1="10" x2="70"  y2="210" />
    <line x1="90"  y1="10" x2="90"  y2="210" />
    <line x1="110" y1="10" x2="110" y2="210" />
    <line x1="130" y1="10" x2="130" y2="210" />
    <line x1="150" y1="10" x2="150" y2="210" />
    <line x1="170" y1="10" x2="170" y2="210" />
    <line x1="190" y1="10" x2="190" y2="210" />

    <!-- горизонтальные линии: только внутренние -->
    <line x1="10" y1="30"  x2="210" y2="30"  />
    <line x1="10" y1="50"  x2="210" y2="50"  />
    <line x1="10" y1="70"  x2="210" y2="70"  />
    <line x1="10" y1="90"  x2="210" y2="90"  />
    <line x1="10" y1="110" x2="210" y2="110" />
    <line x1="10" y1="130" x2="210" y2="130" />
    <line x1="10" y1="150" x2="210" y2="150" />
    <line x1="10" y1="170" x2="210" y2="170" />
    <line x1="10" y1="190" x2="210" y2="190" />
  </g>

  <!-- оси x и y (0 находится в точке (110;110)) -->
  <g stroke="#111827" stroke-width="1.25">
    <line x1="10" y1="110" x2="210" y2="110"
          marker-end="url(#axis-arrow)" />
    <line x1="110" y1="210" x2="110" y2="10"
          marker-end="url(#axis-arrow)" />
  </g>

  <!-- подписи осей и делений -->
  <g font-family="sans-serif" font-size="11" fill="#111827">
    <text x="106" y="123" text-anchor="end"
          font-size="13" font-style="italic"
          font-family="Georgia, 'Times New Roman', serif">O</text>

    <rect x="127" y="113" width="7" height="12" fill="white" />
    <text x="130" y="124" text-anchor="middle" font-size="13"
          font-family="'Times New Roman', serif"
          font-weight="300">1</text>

    <text x="99.0" y="96.0" text-anchor="end" font-size="13"
          font-family="'Times New Roman', serif"
          font-weight="300">1</text>

    <text x="206" y="123" text-anchor="start"
          font-family="Georgia, 'Times New Roman', serif"
          font-style="italic" font-size="13">x</text>

    <text x="107" y="13" text-anchor="end"
          font-family="Georgia, 'Times New Roman', serif"
          font-style="italic" font-size="13">y</text>
  </g>

  <!-- гипербола y = -6/x; МНК-аппроксимация по 10 точкам (по 5 на ветку), модель y = c*(1/x), c = -6.00000 -->
  <g stroke="#2d70b3" stroke-width="1.25" fill="none"
     stroke-linecap="round" stroke-linejoin="round">
    <polyline points="10.00,86.00 10.00,86.00 10.00,86.00 10.00,86.00 10.00,86.00 10.00,86.00 10.00,86.00 10.00,86.00 10.00,86.00 10.00,86.00 10.00,86.00 10.00,86.00 10.00,86.00 10.00,86.00 10.00,86.00 10.00,86.00 10.00,86.00 10.00,86.00 10.00,86.00 10.00,86.00 10.00,86.00 10.00,86.00 10.00,86.00 10.01,86.00 10.01,86.00 10.01,86.00 10.01,86.00 10.01,86.00 10.01,86.00 10.01,86.00 10.01,86.00 10.01,86.00 10.01,86.00 10.01,86.00 10.02,86.00 10.02,86.00 10.02,86.00 10.02,86.00 10.02,86.00 10.02,85.99 10.02,85.99 10.02,85.99 10.03,85.99 10.03,85.99 10.03,85.99 10.03,85.99 10.03,85.99 10.04,85.99 10.04,85.99 10.04,85.99 10.04,85.99 10.04,85.99 10.05,85.99 10.05,85.99 10.05,85.99 10.05,85.99 10.06,85.99 10.06,85.99 10.06,85.99 10.06,85.98 10.07,85.98 10.07,85.98 10.07,85.98 10.08,85.98 10.08,85.98 10.08,85.98 10.09,85.98 10.09,85.98 10.09,85.98 10.10,85.98 10.10,85.98 10.10,85.98 10.11,85.97 10.11,85.97 10.12,85.97 10.12,85.97 10.12,85.97 10.13,85.97 10.13,85.97 10.14,85.97 10.14,85.97 10.15,85.97 10.15,85.96 10.16,85.96 10.16,85.96 10.17,85.96 10.17,85.96 10.18,85.96 10.18,85.96 10.19,85.96 10.19,85.95 10.20,85.95 10.20,85.95 10.21,85.95 10.21,85.95 10.22,85.95 10.23,85.95 10.23,85.94 10.24,85.94 10.25,85.94 10.25,85.94 10.26,85.94 10.27,85.94 10.27,85.93 10.28,85.93 10.29,85.93 10.29,85.93 10.30,85.93 10.31,85.93 10.32,85.92 10.32,85.92 10.33,85.92 10.34,85.92 10.35,85.92 10.35,85.91 10.36,85.91 10.37,85.91 10.38,85.91 10.39,85.91 10.40,85.90 10.40,85.90 10.41,85.90 10.42,85.90 10.43,85.90 10.44,85.89 10.45,85.89 10.46,85.89 10.47,85.89 10.48,85.88 10.49,85.88 10.50,85.88 10.51,85.88 10.52,85.87 10.53,85.87 10.54,85.87 10.55,85.87 10.56,85.86 10.57,85.86 10.58,85.86 10.59,85.86 10.60,85.85 10.62,85.85 10.63,85.85 10.64,85.85 10.65,85.84 10.66,85.84 10.67,85.84 10.69,85.83 10.70,85.83 10.71,85.83 10.72,85.83 10.74,85.82 10.75,85.82 10.76,85.82 10.77,85.81 10.79,85.81 10.80,85.81 10.81,85.80 10.83,85.80 10.84,85.80 10.85,85.79 10.87,85.79 10.88,85.79 10.90,85.78 10.91,85.78 10.93,85.78 10.94,85.77 10.96,85.77 10.97,85.76 10.99,85.76 11.00,85.76 11.02,85.75 11.03,85.75 11.05,85.75 11.06,85.74 11.08,85.74 11.09,85.73 11.11,85.73 11.13,85.73 11.14,85.72 11.16,85.72 11.18,85.71 11.19,85.71 11.21,85.71 11.23,85.70 11.25,85.70 11.26,85.69 11.28,85.69 11.30,85.68 11.32,85.68 11.34,85.68 11.35,85.67 11.37,85.67 11.39,85.66 11.41,85.66 11.43,85.65 11.45,85.65 11.47,85.64 11.49,85.64 11.51,85.63 11.53,85.63 11.55,85.62 11.57,85.62 11.59,85.61 11.61,85.61 11.63,85.60 11.65,85.60 11.67,85.59 11.69,85.59 11.71,85.58 11.73,85.58 11.75,85.57 11.78,85.57 11.80,85.56 11.82,85.56 11.84,85.55 11.86,85.54 11.89,85.54 11.91,85.53 11.93,85.53 11.96,85.52 11.98,85.52 12.00,85.51 12.03,85.50 12.05,85.50 12.07,85.49 12.10,85.49 12.12,85.48 12.15,85.47 12.17,85.47 12.20,85.46 12.22,85.46 12.25,85.45 12.27,85.44 12.30,85.44 12.32,85.43 12.35,85.42 12.37,85.42 12.40,85.41 12.43,85.40 12.45,85.40 12.48,85.39 12.51,85.38 12.53,85.38 12.56,85.37 12.59,85.36 12.61,85.36 12.64,85.35 12.67,85.34 12.70,85.33 12.73,85.33 12.76,85.32 12.78,85.31 12.81,85.31 12.84,85.30 12.87,85.29 12.90,85.28 12.93,85.28 12.96,85.27 12.99,85.26 13.02,85.25 13.05,85.24 13.08,85.24 13.11,85.23 13.14,85.22 13.17,85.21 13.20,85.21 13.24,85.20 13.27,85.19 13.30,85.18 13.33,85.17 13.36,85.16 13.40,85.16 13.43,85.15 13.46,85.14 13.49,85.13 13.53,85.12 13.56,85.11 13.59,85.11 13.63,85.10 13.66,85.09 13.70,85.08 13.73,85.07 13.76,85.06 13.80,85.05 13.83,85.04 13.87,85.03 13.90,85.02 13.94,85.02 13.98,85.01 14.01,85.00 14.05,84.99 14.08,84.98 14.12,84.97 14.16,84.96 14.19,84.95 14.23,84.94 14.27,84.93 14.31,84.92 14.34,84.91 14.38,84.90 14.42,84.89 14.46,84.88 14.50,84.87 14.53,84.86 14.57,84.85 14.61,84.84 14.65,84.83 14.69,84.82 14.73,84.81 14.77,84.80 14.81,84.79 14.85,84.78 14.89,84.77 14.93,84.75 14.97,84.74 15.01,84.73 15.06,84.72 15.10,84.71 15.14,84.70 15.18,84.69 15.22,84.68 15.27,84.67 15.31,84.65 15.35,84.64 15.39,84.63 15.44,84.62 15.48,84.61 15.52,84.60 15.57,84.58 15.61,84.57 15.66,84.56 15.70,84.55 15.75,84.54 15.79,84.52 15.84,84.51 15.88,84.50 15.93,84.49 15.97,84.48 16.02,84.46 16.07,84.45 16.11,84.44 16.16,84.42 16.21,84.41 16.25,84.40 16.30,84.39 16.35,84.37 16.40,84.36 16.44,84.35 16.49,84.33 16.54,84.32 16.59,84.31 16.64,84.29 16.69,84.28 16.74,84.27 16.79,84.25 16.84,84.24 16.89,84.23 16.94,84.21 16.99,84.20 17.04,84.18 17.09,84.17 17.14,84.15 17.19,84.14 17.24,84.13 17.29,84.11 17.35,84.10 17.40,84.08 17.45,84.07 17.50,84.05 17.56,84.04 17.61,84.02 17.66,84.01 17.72,83.99 17.77,83.98 17.83,83.96 17.88,83.95 17.93,83.93 17.99,83.92 18.04,83.90 18.10,83.88 18.16,83.87 18.21,83.85 18.27,83.84 18.32,83.82 18.38,83.80 18.44,83.79 18.49,83.77 18.55,83.76 18.61,83.74 18.67,83.72 18.72,83.71 18.78,83.69 18.84,83.67 18.90,83.66 18.96,83.64 19.02,83.62 19.08,83.60 19.14,83.59 19.20,83.57 19.26,83.55 19.32,83.53 19.38,83.52 19.44,83.50 19.50,83.48 19.56,83.46 19.62,83.45 19.68,83.43 19.74,83.41 19.81,83.39 19.87,83.37 19.93,83.35 19.99,83.33 20.06,83.32 20.12,83.30 20.19,83.28 20.25,83.26 20.31,83.24 20.38,83.22 20.44,83.20 20.51,83.18 20.57,83.16 20.64,83.14 20.70,83.12 20.77,83.10 20.84,83.08 20.90,83.06 20.97,83.04 21.04,83.02 21.10,83.00 21.17,82.98 21.24,82.96 21.31,82.94 21.37,82.92 21.44,82.90 21.51,82.88 21.58,82.86 21.65,82.84 21.72,82.81 21.79,82.79 21.86,82.77 21.93,82.75 22.00,82.73 22.07,82.71 22.14,82.68 22.21,82.66 22.28,82.64 22.35,82.62 22.43,82.59 22.50,82.57 22.57,82.55 22.64,82.53 22.72,82.50 22.79,82.48 22.86,82.46 22.94,82.43 23.01,82.41 23.09,82.39 23.16,82.36 23.24,82.34 23.31,82.31 23.39,82.29 23.46,82.27 23.54,82.24 23.61,82.22 23.69,82.19 23.77,82.17 23.84,82.14 23.92,82.12 24.00,82.09 24.08,82.07 24.15,82.04 24.23,82.02 24.31,81.99 24.39,81.97 24.47,81.94 24.55,81.91 24.63,81.89 24.71,81.86 24.79,81.83 24.87,81.81 24.95,81.78 25.03,81.75 25.11,81.73 25.19,81.70 25.27,81.67 25.36,81.65 25.44,81.62 25.52,81.59 25.60,81.56 25.69,81.53 25.77,81.51 25.85,81.48 25.94,81.45 26.02,81.42 26.11,81.39 26.19,81.36 26.28,81.33 26.36,81.30 26.45,81.28 26.53,81.25 26.62,81.22 26.71,81.19 26.79,81.16 26.88,81.13 26.97,81.10 27.05,81.07 27.14,81.03 27.23,81.00 27.32,80.97 27.41,80.94 27.50,80.91 27.58,80.88 27.67,80.85 27.76,80.82 27.85,80.78 27.94,80.75 28.03,80.72 28.13,80.69 28.22,80.65 28.31,80.62 28.40,80.59 28.49,80.56 28.58,80.52 28.68,80.49 28.77,80.45 28.86,80.42 28.96,80.39 29.05,80.35 29.14,80.32 29.24,80.28 29.33,80.25 29.43,80.21 29.52,80.18 29.62,80.14 29.71,80.11 29.81,80.07 29.91,80.04 30.00,80.00 30.10,79.96 30.20,79.93 30.29,79.89 30.39,79.85 30.49,79.82 30.59,79.78 30.69,79.74 30.78,79.70 30.88,79.66 30.98,79.63 31.08,79.59 31.18,79.55 31.28,79.51 31.38,79.47 31.48,79.43 31.59,79.39 31.69,79.35 31.79,79.31 31.89,79.27 31.99,79.23 32.10,79.19 32.20,79.15 32.30,79.11 32.41,79.07 32.51,79.03 32.61,78.99 32.72,78.95 32.82,78.90 32.93,78.86 33.03,78.82 33.14,78.78 33.24,78.73 33.35,78.69 33.46,78.65 33.56,78.60 33.67,78.56 33.78,78.51 33.89,78.47 33.99,78.42 34.10,78.38 34.21,78.33 34.32,78.29 34.43,78.24 34.54,78.20 34.65,78.15 34.76,78.10 34.87,78.06 34.98,78.01 35.09,77.96 35.20,77.91 35.31,77.87 35.42,77.82 35.54,77.77 35.65,77.72 35.76,77.67 35.88,77.62 35.99,77.57 36.10,77.52 36.22,77.47 36.33,77.42 36.45,77.37 36.56,77.32 36.68,77.27 36.79,77.22 36.91,77.17 37.02,77.11 37.14,77.06 37.26,77.01 37.37,76.95 37.49,76.90 37.61,76.85 37.73,76.79 37.84,76.74 37.96,76.68 38.08,76.63 38.20,76.57 38.32,76.52 38.44,76.46 38.56,76.40 38.68,76.35 38.80,76.29 38.92,76.23 39.05,76.18 39.17,76.12 39.29,76.06 39.41,76.00 39.53,75.94 39.66,75.88 39.78,75.82 39.90,75.76 40.03,75.70 40.15,75.64 40.28,75.58 40.40,75.52 40.53,75.45 40.65,75.39 40.78,75.33 40.90,75.27 41.03,75.20 41.16,75.14 41.29,75.07 41.41,75.01 41.54,74.94 41.67,74.88 41.80,74.81 41.93,74.74 42.05,74.68 42.18,74.61 42.31,74.54 42.44,74.47 42.57,74.41 42.70,74.34 42.84,74.27 42.97,74.20 43.10,74.13 43.23,74.06 43.36,73.98 43.50,73.91 43.63,73.84 43.76,73.77 43.90,73.69 44.03,73.62 44.16,73.55 44.30,73.47 44.43,73.40 44.57,73.32 44.70,73.24 44.84,73.17 44.98,73.09 45.11,73.01 45.25,72.93 45.39,72.86 45.52,72.78 45.66,72.70 45.80,72.62 45.94,72.54 46.08,72.45 46.22,72.37 46.36,72.29 46.50,72.21 46.64,72.12 46.78,72.04 46.92,71.96 47.06,71.87 47.20,71.78 47.34,71.70 47.48,71.61 47.63,71.52 47.77,71.43 47.91,71.35 48.05,71.26 48.20,71.17 48.34,71.08 48.49,70.98 48.63,70.89 48.78,70.80 48.92,70.71 49.07,70.61 49.21,70.52 49.36,70.42 49.51,70.33 49.65,70.23 49.80,70.13 49.95,70.03 50.10,69.93 50.25,69.84 50.40,69.73 50.54,69.63 50.69,69.53 50.84,69.43 50.99,69.33 51.14,69.22 51.30,69.12 51.45,69.01 51.60,68.91 51.75,68.80 51.90,68.69 52.05,68.58 52.21,68.47 52.36,68.36 52.51,68.25 52.67,68.14 52.82,68.03 52.98,67.91 53.13,67.80 53.29,67.68 53.44,67.57 53.60,67.45 53.76,67.33 53.91,67.21 54.07,67.09 54.23,66.97 54.38,66.85 54.54,66.72 54.70,66.60 54.86,66.48 55.02,66.35 55.18,66.22 55.34,66.09 55.50,65.97 55.66,65.84 55.82,65.70 55.98,65.57 56.14,65.44 56.30,65.30 56.47,65.17 56.63,65.03 56.79,64.90 56.95,64.76 57.12,64.62 57.28,64.48 57.45,64.33 57.61,64.19 57.78,64.04 57.94,63.90 58.11,63.75 58.27,63.60 58.44,63.45 58.61,63.30 58.77,63.15 58.94,63.00 59.11,62.84 59.28,62.68 59.44,62.53 59.61,62.37 59.78,62.21 59.95,62.05 60.12,61.88 60.29,61.72 60.46,61.55 60.63,61.38 60.81,61.21 60.98,61.04 61.15,60.87 61.32,60.70 61.49,60.52 61.67,60.34 61.84,60.16 62.02,59.98 62.19,59.80 62.36,59.62 62.54,59.43 62.71,59.24 62.89,59.06 63.07,58.86 63.24,58.67 63.42,58.48 63.60,58.28 63.77,58.08 63.95,57.88 64.13,57.68 64.31,57.47 64.49,57.27 64.67,57.06 64.85,56.85 65.03,56.64 65.21,56.42 65.39,56.20 65.57,55.98 65.75,55.76 65.93,55.54 66.11,55.31 66.30,55.08 66.48,54.85 66.66,54.62 66.85,54.38 67.03,54.15 67.21,53.91 67.40,53.66 67.58,53.42 67.77,53.17 67.96,52.92 68.14,52.66 68.33,52.41 68.52,52.15 68.70,51.88 68.89,51.62 69.08,51.35 69.27,51.08 69.46,50.80 69.65,50.53 69.83,50.25 70.02,49.96 70.22,49.68 70.41,49.39 70.60,49.09 70.79,48.79 70.98,48.49 71.17,48.19 71.36,47.88 71.56,47.57 71.75,47.25 71.94,46.93 72.14,46.61 72.33,46.28 72.53,45.95 72.72,45.62 72.92,45.28 73.11,44.93 73.31,44.59 73.51,44.23 73.70,43.88 73.90,43.52 74.10,43.15 74.30,42.78 74.50,42.40 74.69,42.02 74.89,41.64 75.09,41.25 75.29,40.85 75.49,40.45 75.69,40.04 75.90,39.63 76.10,39.21 76.30,38.79 76.50,38.36 76.70,37.92 76.91,37.48 77.11,37.03 77.31,36.57 77.52,36.11 77.72,35.64 77.93,35.17 78.13,34.69 78.34,34.20 78.54,33.70 78.75,33.20 78.96,32.69 79.17,32.17 79.37,31.64 79.58,31.10 79.79,30.56 80.00,30.01 80.21,29.44 80.42,28.87 80.63,28.29 80.84,27.70 81.05,27.11 81.26,26.50 81.47,25.88 81.68,25.25 81.89,24.61 82.11,23.96 82.32,23.30 82.53,22.62 82.75,21.94 82.96,21.24 83.18,20.53 83.39,19.81 83.61,19.07 83.82,18.32 84.04,17.56 84.25,16.78 84.47,15.99 84.69,15.18 84.91,14.36 85.12,13.52 85.34,12.67 85.56,11.80 85.78,10.91 86.00,10.00" />
    <polyline points="134.00,210.00 134.00,210.00 134.00,210.00 134.00,210.00 134.00,210.00 134.00,210.00 134.00,210.00 134.00,210.00 134.00,210.00 134.00,210.00 134.00,210.00 134.00,210.00 134.00,210.00 134.00,209.99 134.00,209.99 134.00,209.99 134.00,209.99 134.00,209.99 134.00,209.99 134.00,209.99 134.00,209.98 134.00,209.98 134.00,209.98 134.01,209.98 134.01,209.97 134.01,209.97 134.01,209.97 134.01,209.97 134.01,209.96 134.01,209.96 134.01,209.95 134.01,209.95 134.01,209.95 134.01,209.94 134.02,209.94 134.02,209.93 134.02,209.93 134.02,209.92 134.02,209.92 134.02,209.91 134.02,209.90 134.02,209.90 134.03,209.89 134.03,209.88 134.03,209.88 134.03,209.87 134.03,209.86 134.04,209.85 134.04,209.84 134.04,209.84 134.04,209.83 134.04,209.82 134.05,209.81 134.05,209.80 134.05,209.79 134.05,209.78 134.06,209.77 134.06,209.76 134.06,209.75 134.06,209.73 134.07,209.72 134.07,209.71 134.07,209.70 134.08,209.69 134.08,209.67 134.08,209.66 134.09,209.65 134.09,209.63 134.09,209.62 134.10,209.60 134.10,209.59 134.10,209.57 134.11,209.56 134.11,209.54 134.12,209.52 134.12,209.51 134.12,209.49 134.13,209.47 134.13,209.45 134.14,209.43 134.14,209.42 134.15,209.40 134.15,209.38 134.16,209.36 134.16,209.34 134.17,209.32 134.17,209.30 134.18,209.27 134.18,209.25 134.19,209.23 134.19,209.21 134.20,209.19 134.20,209.16 134.21,209.14 134.21,209.11 134.22,209.09 134.23,209.07 134.23,209.04 134.24,209.01 134.25,208.99 134.25,208.96 134.26,208.93 134.27,208.91 134.27,208.88 134.28,208.85 134.29,208.82 134.29,208.79 134.30,208.76 134.31,208.73 134.32,208.70 134.32,208.67 134.33,208.64 134.34,208.61 134.35,208.58 134.35,208.55 134.36,208.51 134.37,208.48 134.38,208.45 134.39,208.41 134.40,208.38 134.40,208.34 134.41,208.31 134.42,208.27 134.43,208.23 134.44,208.20 134.45,208.16 134.46,208.12 134.47,208.08 134.48,208.05 134.49,208.01 134.50,207.97 134.51,207.93 134.52,207.89 134.53,207.85 134.54,207.80 134.55,207.76 134.56,207.72 134.57,207.68 134.58,207.63 134.59,207.59 134.60,207.55 134.62,207.50 134.63,207.46 134.64,207.41 134.65,207.36 134.66,207.32 134.67,207.27 134.69,207.22 134.70,207.17 134.71,207.13 134.72,207.08 134.74,207.03 134.75,206.98 134.76,206.93 134.77,206.88 134.79,206.83 134.80,206.77 134.81,206.72 134.83,206.67 134.84,206.62 134.85,206.56 134.87,206.51 134.88,206.45 134.90,206.40 134.91,206.34 134.93,206.29 134.94,206.23 134.96,206.17 134.97,206.11 134.99,206.06 135.00,206.00 135.02,205.94 135.03,205.88 135.05,205.82 135.06,205.76 135.08,205.70 135.09,205.64 135.11,205.58 135.13,205.51 135.14,205.45 135.16,205.39 135.18,205.32 135.19,205.26 135.21,205.19 135.23,205.13 135.25,205.06 135.26,205.00 135.28,204.93 135.30,204.86 135.32,204.80 135.34,204.73 135.35,204.66 135.37,204.59 135.39,204.52 135.41,204.45 135.43,204.38 135.45,204.31 135.47,204.24 135.49,204.16 135.51,204.09 135.53,204.02 135.55,203.95 135.57,203.87 135.59,203.80 135.61,203.72 135.63,203.65 135.65,203.57 135.67,203.50 135.69,203.42 135.71,203.34 135.73,203.27 135.75,203.19 135.78,203.11 135.80,203.03 135.82,202.95 135.84,202.87 135.86,202.79 135.89,202.71 135.91,202.63 135.93,202.55 135.96,202.46 135.98,202.38 136.00,202.30 136.03,202.22 136.05,202.13 136.07,202.05 136.10,201.96 136.12,201.88 136.15,201.79 136.17,201.71 136.20,201.62 136.22,201.53 136.25,201.44 136.27,201.36 136.30,201.27 136.32,201.18 136.35,201.09 136.37,201.00 136.40,200.91 136.43,200.82 136.45,200.73 136.48,200.64 136.51,200.55 136.53,200.45 136.56,200.36 136.59,200.27 136.61,200.17 136.64,200.08 136.67,199.99 136.70,199.89 136.73,199.80 136.76,199.70 136.78,199.61 136.81,199.51 136.84,199.41 136.87,199.32 136.90,199.22 136.93,199.12 136.96,199.02 136.99,198.92 137.02,198.82 137.05,198.72 137.08,198.62 137.11,198.52 137.14,198.42 137.17,198.32 137.20,198.22 137.24,198.12 137.27,198.02 137.30,197.92 137.33,197.81 137.36,197.71 137.40,197.61 137.43,197.50 137.46,197.40 137.49,197.29 137.53,197.19 137.56,197.08 137.59,196.98 137.63,196.87 137.66,196.76 137.70,196.66 137.73,196.55 137.76,196.44 137.80,196.33 137.83,196.23 137.87,196.12 137.90,196.01 137.94,195.90 137.98,195.79 138.01,195.68 138.05,195.57 138.08,195.46 138.12,195.35 138.16,195.24 138.19,195.13 138.23,195.01 138.27,194.90 138.31,194.79 138.34,194.68 138.38,194.56 138.42,194.45 138.46,194.34 138.50,194.22 138.53,194.11 138.57,193.99 138.61,193.88 138.65,193.77 138.69,193.65 138.73,193.53 138.77,193.42 138.81,193.30 138.85,193.19 138.89,193.07 138.93,192.95 138.97,192.83 139.01,192.72 139.06,192.60 139.10,192.48 139.14,192.36 139.18,192.24 139.22,192.13 139.27,192.01 139.31,191.89 139.35,191.77 139.39,191.65 139.44,191.53 139.48,191.41 139.52,191.29 139.57,191.17 139.61,191.05 139.66,190.93 139.70,190.80 139.75,190.68 139.79,190.56 139.84,190.44 139.88,190.32 139.93,190.19 139.97,190.07 140.02,189.95 140.07,189.83 140.11,189.70 140.16,189.58 140.21,189.45 140.25,189.33 140.30,189.21 140.35,189.08 140.40,188.96 140.44,188.83 140.49,188.71 140.54,188.58 140.59,188.46 140.64,188.33 140.69,188.21 140.74,188.08 140.79,187.96 140.84,187.83 140.89,187.70 140.94,187.58 140.99,187.45 141.04,187.33 141.09,187.20 141.14,187.07 141.19,186.95 141.24,186.82 141.29,186.69 141.35,186.56 141.40,186.44 141.45,186.31 141.50,186.18 141.56,186.05 141.61,185.92 141.66,185.80 141.72,185.67 141.77,185.54 141.83,185.41 141.88,185.28 141.93,185.15 141.99,185.02 142.04,184.90 142.10,184.77 142.16,184.64 142.21,184.51 142.27,184.38 142.32,184.25 142.38,184.12 142.44,183.99 142.49,183.86 142.55,183.73 142.61,183.60 142.67,183.47 142.72,183.34 142.78,183.21 142.84,183.08 142.90,182.95 142.96,182.82 143.02,182.69 143.08,182.56 143.14,182.43 143.20,182.30 143.26,182.17 143.32,182.04 143.38,181.91 143.44,181.78 143.50,181.65 143.56,181.52 143.62,181.38 143.68,181.25 143.74,181.12 143.81,180.99 143.87,180.86 143.93,180.73 143.99,180.60 144.06,180.47 144.12,180.34 144.19,180.21 144.25,180.08 144.31,179.94 144.38,179.81 144.44,179.68 144.51,179.55 144.57,179.42 144.64,179.29 144.70,179.16 144.77,179.03 144.84,178.90 144.90,178.76 144.97,178.63 145.04,178.50 145.10,178.37 145.17,178.24 145.24,178.11 145.31,177.98 145.37,177.85 145.44,177.72 145.51,177.58 145.58,177.45 145.65,177.32 145.72,177.19 145.79,177.06 145.86,176.93 145.93,176.80 146.00,176.67 146.07,176.54 146.14,176.41 146.21,176.28 146.28,176.15 146.35,176.02 146.43,175.89 146.50,175.76 146.57,175.62 146.64,175.49 146.72,175.36 146.79,175.23 146.86,175.10 146.94,174.97 147.01,174.84 147.09,174.71 147.16,174.58 147.24,174.45 147.31,174.32 147.39,174.19 147.46,174.07 147.54,173.94 147.61,173.81 147.69,173.68 147.77,173.55 147.84,173.42 147.92,173.29 148.00,173.16 148.08,173.03 148.15,172.90 148.23,172.77 148.31,172.64 148.39,172.52 148.47,172.39 148.55,172.26 148.63,172.13 148.71,172.00 148.79,171.87 148.87,171.75 148.95,171.62 149.03,171.49 149.11,171.36 149.19,171.24 149.27,171.11 149.36,170.98 149.44,170.85 149.52,170.73 149.60,170.60 149.69,170.47 149.77,170.35 149.85,170.22 149.94,170.09 150.02,169.97 150.11,169.84 150.19,169.71 150.28,169.59 150.36,169.46 150.45,169.34 150.53,169.21 150.62,169.09 150.71,168.96 150.79,168.83 150.88,168.71 150.97,168.58 151.05,168.46 151.14,168.33 151.23,168.21 151.32,168.09 151.41,167.96 151.50,167.84 151.58,167.71 151.67,167.59 151.76,167.47 151.85,167.34 151.94,167.22 152.03,167.10 152.13,166.97 152.22,166.85 152.31,166.73 152.40,166.60 152.49,166.48 152.58,166.36 152.68,166.24 152.77,166.11 152.86,165.99 152.96,165.87 153.05,165.75 153.14,165.63 153.24,165.51 153.33,165.39 153.43,165.26 153.52,165.14 153.62,165.02 153.71,164.90 153.81,164.78 153.91,164.66 154.00,164.54 154.10,164.42 154.20,164.30 154.29,164.18 154.39,164.07 154.49,163.95 154.59,163.83 154.69,163.71 154.78,163.59 154.88,163.47 154.98,163.35 155.08,163.24 155.18,163.12 155.28,163.00 155.38,162.88 155.48,162.77 155.59,162.65 155.69,162.53 155.79,162.41 155.89,162.30 155.99,162.18 156.10,162.07 156.20,161.95 156.30,161.83 156.41,161.72 156.51,161.60 156.61,161.49 156.72,161.37 156.82,161.26 156.93,161.14 157.03,161.03 157.14,160.91 157.24,160.80 157.35,160.69 157.46,160.57 157.56,160.46 157.67,160.35 157.78,160.23 157.89,160.12 157.99,160.01 158.10,159.89 158.21,159.78 158.32,159.67 158.43,159.56 158.54,159.45 158.65,159.33 158.76,159.22 158.87,159.11 158.98,159.00 159.09,158.89 159.20,158.78 159.31,158.67 159.42,158.56 159.54,158.45 159.65,158.34 159.76,158.23 159.88,158.12 159.99,158.01 160.10,157.90 160.22,157.79 160.33,157.68 160.45,157.58 160.56,157.47 160.68,157.36 160.79,157.25 160.91,157.14 161.02,157.04 161.14,156.93 161.26,156.82 161.37,156.72 161.49,156.61 161.61,156.50 161.73,156.40 161.84,156.29 161.96,156.19 162.08,156.08 162.20,155.98 162.32,155.87 162.44,155.77 162.56,155.66 162.68,155.56 162.80,155.45 162.92,155.35 163.05,155.24 163.17,155.14 163.29,155.04 163.41,154.93 163.53,154.83 163.66,154.73 163.78,154.63 163.90,154.52 164.03,154.42 164.15,154.32 164.28,154.22 164.40,154.12 164.53,154.01 164.65,153.91 164.78,153.81 164.90,153.71 165.03,153.61 165.16,153.51 165.29,153.41 165.41,153.31 165.54,153.21 165.67,153.11 165.80,153.01 165.93,152.91 166.05,152.82 166.18,152.72 166.31,152.62 166.44,152.52 166.57,152.42 166.70,152.32 166.84,152.23 166.97,152.13 167.10,152.03 167.23,151.94 167.36,151.84 167.50,151.74 167.63,151.65 167.76,151.55 167.90,151.45 168.03,151.36 168.16,151.26 168.30,151.17 168.43,151.07 168.57,150.98 168.70,150.88 168.84,150.79 168.98,150.69 169.11,150.60 169.25,150.51 169.39,150.41 169.52,150.32 169.66,150.23 169.80,150.13 169.94,150.04 170.08,149.95 170.22,149.86 170.36,149.76 170.50,149.67 170.64,149.58 170.78,149.49 170.92,149.40 171.06,149.31 171.20,149.22 171.34,149.13 171.48,149.04 171.63,148.94 171.77,148.85 171.91,148.77 172.05,148.68 172.20,148.59 172.34,148.50 172.49,148.41 172.63,148.32 172.78,148.23 172.92,148.14 173.07,148.05 173.21,147.97 173.36,147.88 173.51,147.79 173.65,147.70 173.80,147.62 173.95,147.53 174.10,147.44 174.25,147.36 174.40,147.27 174.54,147.18 174.69,147.10 174.84,147.01 174.99,146.93 175.14,146.84 175.30,146.76 175.45,146.67 175.60,146.59 175.75,146.50 175.90,146.42 176.05,146.33 176.21,146.25 176.36,146.17 176.51,146.08 176.67,146.00 176.82,145.92 176.98,145.83 177.13,145.75 177.29,145.67 177.44,145.59 177.60,145.50 177.76,145.42 177.91,145.34 178.07,145.26 178.23,145.18 178.38,145.10 178.54,145.02 178.70,144.93 178.86,144.85 179.02,144.77 179.18,144.69 179.34,144.61 179.50,144.53 179.66,144.45 179.82,144.37 179.98,144.30 180.14,144.22 180.30,144.14 180.47,144.06 180.63,143.98 180.79,143.90 180.95,143.82 181.12,143.75 181.28,143.67 181.45,143.59 181.61,143.51 181.78,143.44 181.94,143.36 182.11,143.28 182.27,143.21 182.44,143.13 182.61,143.06 182.77,142.98 182.94,142.90 183.11,142.83 183.28,142.75 183.44,142.68 183.61,142.60 183.78,142.53 183.95,142.45 184.12,142.38 184.29,142.30 184.46,142.23 184.63,142.16 184.81,142.08 184.98,142.01 185.15,141.94 185.32,141.86 185.49,141.79 185.67,141.72 185.84,141.64 186.02,141.57 186.19,141.50 186.36,141.43 186.54,141.36 186.71,141.28 186.89,141.21 187.07,141.14 187.24,141.07 187.42,141.00 187.60,140.93 187.77,140.86 187.95,140.79 188.13,140.72 188.31,140.65 188.49,140.58 188.67,140.51 188.85,140.44 189.03,140.37 189.21,140.30 189.39,140.23 189.57,140.16 189.75,140.09 189.93,140.03 190.11,139.96 190.30,139.89 190.48,139.82 190.66,139.75 190.85,139.69 191.03,139.62 191.21,139.55 191.40,139.48 191.58,139.42 191.77,139.35 191.96,139.28 192.14,139.22 192.33,139.15 192.52,139.09 192.70,139.02 192.89,138.95 193.08,138.89 193.27,138.82 193.46,138.76 193.65,138.69 193.83,138.63 194.02,138.56 194.22,138.50 194.41,138.43 194.60,138.37 194.79,138.31 194.98,138.24 195.17,138.18 195.36,138.11 195.56,138.05 195.75,137.99 195.94,137.93 196.14,137.86 196.33,137.80 196.53,137.74 196.72,137.67 196.92,137.61 197.11,137.55 197.31,137.49 197.51,137.43 197.70,137.36 197.90,137.30 198.10,137.24 198.30,137.18 198.50,137.12 198.69,137.06 198.89,137.00 199.09,136.94 199.29,136.88 199.49,136.82 199.69,136.76 199.90,136.70 200.10,136.64 200.30,136.58 200.50,136.52 200.70,136.46 200.91,136.40 201.11,136.34 201.31,136.28 201.52,136.22 201.72,136.17 201.93,136.11 202.13,136.05 202.34,135.99 202.54,135.93 202.75,135.88 202.96,135.82 203.17,135.76 203.37,135.70 203.58,135.65 203.79,135.59 204.00,135.53 204.21,135.48 204.42,135.42 204.63,135.36 204.84,135.31 205.05,135.25 205.26,135.19 205.47,135.14 205.68,135.08 205.89,135.03 206.11,134.97 206.32,134.92 206.53,134.86 206.75,134.81 206.96,134.75 207.18,134.70 207.39,134.64 207.61,134.59 207.82,134.53 208.04,134.48 208.25,134.43 208.47,134.37 208.69,134.32 208.91,134.27 209.12,134.21 209.34,134.16 209.56,134.11 209.78,134.05 210.00,134.00" />
  </g>

  <!-- прямая через (-3;2) и (0;1) -->
  <g stroke="#166534" stroke-width="1.25" fill="none"
     stroke-linecap="round" stroke-linejoin="round">
    <line x1="10.0" y1="20.0" x2="200.0" y2="115.0" />
  </g>

  <!-- точки (-3;2) и (0;1) -->
  <circle cx="70.0" cy="50.0" r="2.2" fill="#166534" />
  <circle cx="110.0" cy="70.0" r="2.2" fill="#166534" />

  <!-- подпись A -->
  <text x="60.0" y="40.0"
        font-family="Georgia, 'Times New Roman', serif"
        font-style="italic"
        font-size="13"
        fill="#166534">A</text>

  <!-- подпись f(x) -->
  <text x="166.0" y="169.0"
        font-family="Georgia, 'Times New Roman', serif"
        font-style="italic"
        font-size="13"
        fill="#2d70b3">f(x)</text>
<text x="170" y="90"
        font-family="Georgia, 'Times New Roman', serif"
        font-style="italic"
        font-size="13"
        fill="#166534">g(x)</text>
</svg>
