<svg xmlns="http://www.w3.org/2000/svg" width="220" height="220" viewBox="0 0 220 220">

  <rect x="0" y="0" width="220" height="220" fill="white" />

  <defs>
    <!-- стрелка для осей -->
    <marker id="axis-arrow"
            viewBox="0 0 15 8"
            refX="13" refY="4"
            markerWidth="12" markerHeight="6.4"
            orient="auto"
            markerUnits="userSpaceOnUse">
      <path d="M 3 0 L 15 4 L 3 8 L 7 4 Z"
            fill="black" />
    </marker>
  </defs>

  <!-- тонкая клетчатая сетка: по x и y от -7 до 7 (14×14), без окаймления -->
  <g stroke="#d1d5db" stroke-width="0.5" shape-rendering="crispEdges">
    <!-- вертикальные линии: только внутренние -->
    <line x1="24.286" y1="10" x2="24.286" y2="210" />
    <line x1="38.571" y1="10" x2="38.571" y2="210" />
    <line x1="52.857" y1="10" x2="52.857" y2="210" />
    <line x1="67.143" y1="10" x2="67.143" y2="210" />
    <line x1="81.429" y1="10" x2="81.429" y2="210" />
    <line x1="95.714" y1="10" x2="95.714" y2="210" />
    <line x1="110.000" y1="10" x2="110.000" y2="210" />
    <line x1="124.286" y1="10" x2="124.286" y2="210" />
    <line x1="138.571" y1="10" x2="138.571" y2="210" />
    <line x1="152.857" y1="10" x2="152.857" y2="210" />
    <line x1="167.143" y1="10" x2="167.143" y2="210" />
    <line x1="181.429" y1="10" x2="181.429" y2="210" />
    <line x1="195.714" y1="10" x2="195.714" y2="210" />

    <!-- горизонтальные линии: только внутренние -->
    <line x1="10" y1="195.714" x2="210" y2="195.714" />
    <line x1="10" y1="181.429" x2="210" y2="181.429" />
    <line x1="10" y1="167.143" x2="210" y2="167.143" />
    <line x1="10" y1="152.857" x2="210" y2="152.857" />
    <line x1="10" y1="138.571" x2="210" y2="138.571" />
    <line x1="10" y1="124.286" x2="210" y2="124.286" />
    <line x1="10" y1="110.000" x2="210" y2="110.000" />
    <line x1="10" y1="95.714" x2="210" y2="95.714" />
    <line x1="10" y1="81.429" x2="210" y2="81.429" />
    <line x1="10" y1="67.143" x2="210" y2="67.143" />
    <line x1="10" y1="52.857" x2="210" y2="52.857" />
    <line x1="10" y1="38.571" x2="210" y2="38.571" />
    <line x1="10" y1="24.286" x2="210" y2="24.286" />
  </g>

  <!-- оси x и y (0 находится в точке (110;110)) -->
  <g stroke="#111827" stroke-width="1.25">
    <line x1="10" y1="110" x2="210" y2="110"
          marker-end="url(#axis-arrow)" />
    <line x1="110" y1="210" x2="110" y2="10"
          marker-end="url(#axis-arrow)" />
  </g>

  <!-- подписи осей и делений -->
  <g font-family="sans-serif" font-size="11" fill="#111827">
    <text x="106.000" y="122.000" text-anchor="end"
          font-size="13" font-style="italic"
          font-family="Georgia, 'Times New Roman', serif">O</text>

    <rect x="121.286" y="113" width="7" height="12" fill="white" />
    <text x="124.286" y="122.000" text-anchor="middle" font-size="13"
          font-family="'Times New Roman', serif"
          font-weight="300">1</text>

    <text x="105.857" y="99.714" text-anchor="end" font-size="13"
          font-family="'Times New Roman', serif"
          font-weight="300">1</text>

    <text x="206" y="123" text-anchor="start"
          font-family="Georgia, 'Times New Roman', serif"
          font-style="italic" font-size="13">x</text>

    <text x="107" y="13" text-anchor="end"
          font-family="Georgia, 'Times New Roman', serif"
          font-style="italic" font-size="13">y</text>
  </g>

  <!-- гипербола y = -12/x (в пределах окна [-7;7]×[-7;7]) -->
  <g stroke="#2d70b3" stroke-width="1.25" fill="none"
     stroke-linecap="round" stroke-linejoin="round">
    <polyline points="10.00,85.51 10.13,85.48 10.25,85.45 10.38,85.42 10.51,85.38 10.64,85.35 10.76,85.32 10.89,85.29 11.02,85.26 11.14,85.23 11.27,85.20 11.39,85.16 11.52,85.13 11.65,85.10 11.77,85.07 11.90,85.04 12.02,85.00 12.15,84.97 12.27,84.94 12.40,84.91 12.52,84.88 12.65,84.84 12.77,84.81 12.90,84.78 13.02,84.75 13.15,84.71 13.27,84.68 13.39,84.65 13.52,84.62 13.64,84.58 13.76,84.55 13.89,84.52 14.01,84.49 14.13,84.45 14.26,84.42 14.38,84.39 14.50,84.36 14.63,84.32 14.75,84.29 14.87,84.26 14.99,84.22 15.11,84.19 15.24,84.16 15.36,84.12 15.48,84.09 15.60,84.06 15.72,84.02 15.84,83.99 15.97,83.96 16.09,83.92 16.21,83.89 16.33,83.86 16.45,83.82 16.57,83.79 16.69,83.75 16.81,83.72 16.93,83.69 17.05,83.65 17.17,83.62 17.29,83.58 17.41,83.55 17.53,83.52 17.65,83.48 17.77,83.45 17.89,83.41 18.00,83.38 18.12,83.35 18.24,83.31 18.36,83.28 18.48,83.24 18.60,83.21 18.71,83.17 18.83,83.14 18.95,83.10 19.07,83.07 19.19,83.03 19.30,83.00 19.42,82.96 19.54,82.93 19.65,82.89 19.77,82.86 19.89,82.82 20.00,82.79 20.12,82.75 20.24,82.72 20.35,82.68 20.47,82.65 20.59,82.61 20.70,82.58 20.82,82.54 20.93,82.50 21.05,82.47 21.16,82.43 21.28,82.40 21.39,82.36 21.51,82.32 21.62,82.29 21.74,82.25 21.85,82.22 21.97,82.18 22.08,82.14 22.20,82.11 22.31,82.07 22.42,82.04 22.54,82.00 22.65,81.96 22.77,81.93 22.88,81.89 22.99,81.85 23.11,81.82 23.22,81.78 23.33,81.74 23.44,81.71 23.56,81.67 23.67,81.63 23.78,81.60 23.89,81.56 24.01,81.52 24.12,81.48 24.23,81.45 24.34,81.41 24.45,81.37 24.56,81.34 24.68,81.30 24.79,81.26 24.90,81.22 25.01,81.19 25.12,81.15 25.23,81.11 25.34,81.07 25.45,81.03 25.56,81.00 25.67,80.96 25.78,80.92 25.89,80.88 26.00,80.84 26.11,80.81 26.22,80.77 26.33,80.73 26.44,80.69 26.55,80.65 26.66,80.62 26.77,80.58 26.88,80.54 26.98,80.50 27.09,80.46 27.20,80.42 27.31,80.38 27.42,80.34 27.53,80.31 27.63,80.27 27.74,80.23 27.85,80.19 27.96,80.15 28.06,80.11 28.17,80.07 28.28,80.03 28.39,79.99 28.49,79.95 28.60,79.91 28.71,79.87 28.81,79.84 28.92,79.80 29.03,79.76 29.13,79.72 29.24,79.68 29.34,79.64 29.45,79.60 29.55,79.56 29.66,79.52 29.77,79.48 29.87,79.44 29.98,79.40 30.08,79.36 30.19,79.32 30.29,79.28 30.40,79.24 30.50,79.20 30.60,79.15 30.71,79.11 30.81,79.07 30.92,79.03 31.02,78.99 31.12,78.95 31.23,78.91 31.33,78.87 31.43,78.83 31.54,78.79 31.64,78.75 31.74,78.71 31.85,78.66 31.95,78.62 32.05,78.58 32.16,78.54 32.26,78.50 32.36,78.46 32.46,78.42 32.56,78.37 32.67,78.33 32.77,78.29 32.87,78.25 32.97,78.21 33.07,78.17 33.17,78.12 33.27,78.08 33.38,78.04 33.48,78.00 33.58,77.95 33.68,77.91 33.78,77.87 33.88,77.83 33.98,77.79 34.08,77.74 34.18,77.70 34.28,77.66 34.38,77.61 34.48,77.57 34.58,77.53 34.68,77.49 34.78,77.44 34.88,77.40 34.98,77.36 35.07,77.31 35.17,77.27 35.27,77.23 35.37,77.18 35.47,77.14 35.57,77.10 35.67,77.05 35.76,77.01 35.86,76.97 35.96,76.92 36.06,76.88 36.16,76.84 36.25,76.79 36.35,76.75 36.45,76.70 36.54,76.66 36.64,76.62 36.74,76.57 36.84,76.53 36.93,76.48 37.03,76.44 37.12,76.39 37.22,76.35 37.32,76.31 37.41,76.26 37.51,76.22 37.60,76.17 37.70,76.13 37.80,76.08 37.89,76.04 37.99,75.99 38.08,75.95 38.18,75.90 38.27,75.86 38.37,75.81 38.46,75.77 38.56,75.72 38.65,75.68 38.75,75.63 38.84,75.59 38.93,75.54 39.03,75.49 39.12,75.45 39.22,75.40 39.31,75.36 39.40,75.31 39.50,75.26 39.59,75.22 39.68,75.17 39.78,75.13 39.87,75.08 39.96,75.03 40.05,74.99 40.15,74.94 40.24,74.89 40.33,74.85 40.42,74.80 40.52,74.76 40.61,74.71 40.70,74.66 40.79,74.61 40.88,74.57 40.97,74.52 41.07,74.47 41.16,74.43 41.25,74.38 41.34,74.33 41.43,74.29 41.52,74.24 41.61,74.19 41.70,74.14 41.79,74.10 41.88,74.05 41.97,74.00 42.06,73.95 42.15,73.90 42.24,73.86 42.33,73.81 42.42,73.76 42.51,73.71 42.60,73.66 42.69,73.62 42.78,73.57 42.87,73.52 42.96,73.47 43.05,73.42 43.13,73.37 43.22,73.33 43.31,73.28 43.40,73.23 43.49,73.18 43.58,73.13 43.66,73.08 43.75,73.03 43.84,72.98 43.93,72.93 44.02,72.89 44.10,72.84 44.19,72.79 44.28,72.74 44.36,72.69 44.45,72.64 44.54,72.59 44.62,72.54 44.71,72.49 44.80,72.44 44.88,72.39 44.97,72.34 45.06,72.29 45.14,72.24 45.23,72.19 45.31,72.14 45.40,72.09 45.49,72.04 45.57,71.99 45.66,71.94 45.74,71.89 45.83,71.84 45.91,71.79 46.00,71.74 46.08,71.69 46.17,71.64 46.25,71.58 46.33,71.53 46.42,71.48 46.50,71.43 46.59,71.38 46.67,71.33 46.75,71.28 46.84,71.23 46.92,71.18 47.01,71.12 47.09,71.07 47.17,71.02 47.26,70.97 47.34,70.92 47.42,70.87 47.50,70.81 47.59,70.76 47.67,70.71 47.75,70.66 47.83,70.61 47.92,70.55 48.00,70.50 48.08,70.45 48.16,70.40 48.24,70.34 48.33,70.29 48.41,70.24 48.49,70.19 48.57,70.13 48.65,70.08 48.73,70.03 48.81,69.98 48.89,69.92 48.98,69.87 49.06,69.82 49.14,69.76 49.22,69.71 49.30,69.66 49.38,69.60 49.46,69.55 49.54,69.50 49.62,69.44 49.70,69.39 49.78,69.33 49.86,69.28 49.94,69.23 50.02,69.17 50.09,69.12 50.17,69.07 50.25,69.01 50.33,68.96 50.41,68.90 50.49,68.85 50.57,68.79 50.65,68.74 50.72,68.68 50.80,68.63 50.88,68.58 50.96,68.52 51.04,68.47 51.11,68.41 51.19,68.36 51.27,68.30 51.35,68.25 51.42,68.19 51.50,68.14 51.58,68.08 51.66,68.03 51.73,67.97 51.81,67.91 51.89,67.86 51.96,67.80 52.04,67.75 52.12,67.69 52.19,67.64 52.27,67.58 52.34,67.52 52.42,67.47 52.50,67.41 52.57,67.36 52.65,67.30 52.72,67.24 52.80,67.19 52.87,67.13 52.95,67.07 53.02,67.02 53.10,66.96 53.17,66.91 53.25,66.85 53.32,66.79 53.40,66.73 53.47,66.68 53.54,66.62 53.62,66.56 53.69,66.51 53.77,66.45 53.84,66.39 53.91,66.33 53.99,66.28 54.06,66.22 54.14,66.16 54.21,66.10 54.28,66.05 54.35,65.99 54.43,65.93 54.50,65.87 54.57,65.82 54.65,65.76 54.72,65.70 54.79,65.64 54.86,65.58 54.94,65.53 55.01,65.47 55.08,65.41 55.15,65.35 55.22,65.29 55.29,65.23 55.37,65.17 55.44,65.12 55.51,65.06 55.58,65.00 55.65,64.94 55.72,64.88 55.79,64.82 55.86,64.76 55.94,64.70 56.01,64.64 56.08,64.58 56.15,64.53 56.22,64.47 56.29,64.41 56.36,64.35 56.43,64.29 56.50,64.23 56.57,64.17 56.64,64.11 56.71,64.05 56.78,63.99 56.84,63.93 56.91,63.87 56.98,63.81 57.05,63.75 57.12,63.69 57.19,63.63 57.26,63.57 57.33,63.51 57.40,63.45 57.46,63.38 57.53,63.32 57.60,63.26 57.67,63.20 57.74,63.14 57.80,63.08 57.87,63.02 57.94,62.96 58.01,62.90 58.07,62.84 58.14,62.77 58.21,62.71 58.28,62.65 58.34,62.59 58.41,62.53 58.48,62.47 58.54,62.41 58.61,62.34 58.68,62.28 58.74,62.22 58.81,62.16 58.88,62.10 58.94,62.03 59.01,61.97 59.07,61.91 59.14,61.85 59.21,61.79 59.27,61.72 59.34,61.66 59.40,61.60 59.47,61.54 59.53,61.47 59.60,61.41 59.66,61.35 59.73,61.29 59.79,61.22 59.86,61.16 59.92,61.10 59.99,61.03 60.05,60.97 60.11,60.91 60.18,60.84 60.24,60.78 60.31,60.72 60.37,60.65 60.43,60.59 60.50,60.53 60.56,60.46 60.63,60.40 60.69,60.34 60.75,60.27 60.81,60.21 60.88,60.15 60.94,60.08 61.00,60.02 61.07,59.95 61.13,59.89 61.19,59.82 61.25,59.76 61.32,59.70 61.38,59.63 61.44,59.57 61.50,59.50 61.56,59.44 61.63,59.37 61.69,59.31 61.75,59.24 61.81,59.18 61.87,59.11 61.93,59.05 62.00,58.98 62.06,58.92 62.12,58.85 62.18,58.79 62.24,58.72 62.30,58.66 62.36,58.59 62.42,58.53 62.48,58.46 62.54,58.40 62.60,58.33 62.66,58.27 62.72,58.20 62.78,58.13 62.84,58.07 62.90,58.00 62.96,57.94 63.02,57.87 63.08,57.81 63.14,57.74 63.20,57.67 63.26,57.61 63.32,57.54 63.38,57.47 63.43,57.41 63.49,57.34 63.55,57.28 63.61,57.21 63.67,57.14 63.73,57.08 63.79,57.01 63.84,56.94 63.90,56.88 63.96,56.81 64.02,56.74 64.08,56.67 64.13,56.61 64.19,56.54 64.25,56.47 64.31,56.41 64.36,56.34 64.42,56.27 64.48,56.20 64.53,56.14 64.59,56.07 64.65,56.00 64.70,55.93 64.76,55.87 64.82,55.80 64.87,55.73 64.93,55.66 64.99,55.60 65.04,55.53 65.10,55.46 65.15,55.39 65.21,55.32 65.27,55.26 65.32,55.19 65.38,55.12 65.43,55.05 65.49,54.98 65.54,54.91 65.60,54.85 65.65,54.78 65.71,54.71 65.76,54.64 65.82,54.57 65.87,54.50 65.93,54.43 65.98,54.37 66.04,54.30 66.09,54.23 66.14,54.16 66.20,54.09 66.25,54.02 66.31,53.95 66.36,53.88 66.41,53.81 66.47,53.74 66.52,53.68 66.57,53.61 66.63,53.54 66.68,53.47 66.73,53.40 66.79,53.33 66.84,53.26 66.89,53.19 66.94,53.12 67.00,53.05 67.05,52.98 67.10,52.91 67.15,52.84 67.21,52.77 67.26,52.70 67.31,52.63 67.36,52.56 67.42,52.49 67.47,52.42 67.52,52.35 67.57,52.28 67.62,52.21 67.67,52.14 67.72,52.07 67.78,52.00 67.83,51.93 67.88,51.86 67.93,51.79 67.98,51.72 68.03,51.65 68.08,51.58 68.13,51.51 68.18,51.44 68.23,51.37 68.28,51.29 68.33,51.22 68.38,51.15 68.43,51.08 68.48,51.01 68.53,50.94 68.58,50.87 68.63,50.80 68.68,50.73 68.73,50.66 68.78,50.58 68.83,50.51 68.88,50.44 68.93,50.37 68.98,50.30 69.03,50.23 69.08,50.16 69.13,50.09 69.17,50.01 69.22,49.94 69.27,49.87 69.32,49.80 69.37,49.73 69.42,49.66 69.46,49.59 69.51,49.51 69.56,49.44 69.61,49.37 69.66,49.30 69.70,49.23 69.75,49.15 69.80,49.08 69.85,49.01 69.89,48.94 69.94,48.87 69.99,48.79 70.03,48.72 70.08,48.65 70.13,48.58 70.18,48.51 70.22,48.43 70.27,48.36 70.31,48.29 70.36,48.22 70.41,48.15 70.45,48.07 70.50,48.00 70.55,47.93 70.59,47.86 70.64,47.78 70.68,47.71 70.73,47.64 70.78,47.57 70.82,47.49 70.87,47.42 70.91,47.35 70.96,47.28 71.00,47.20 71.05,47.13 71.09,47.06 71.14,46.98 71.18,46.91 71.23,46.84 71.27,46.77 71.32,46.69 71.36,46.62 71.40,46.55 71.45,46.47 71.49,46.40 71.54,46.33 71.58,46.26 71.63,46.18 71.67,46.11 71.71,46.04 71.76,45.96 71.80,45.89 71.84,45.82 71.89,45.74 71.93,45.67 71.97,45.60 72.02,45.53 72.06,45.45 72.10,45.38 72.15,45.31 72.19,45.23 72.23,45.16 72.27,45.09 72.32,45.01 72.36,44.94 72.40,44.87 72.44,44.79 72.49,44.72 72.53,44.65 72.57,44.57 72.61,44.50 72.65,44.43 72.70,44.35 72.74,44.28 72.78,44.20 72.82,44.13 72.86,44.06 72.90,43.98 72.94,43.91 72.99,43.84 73.03,43.76 73.07,43.69 73.11,43.62 73.15,43.54 73.19,43.47 73.23,43.40 73.27,43.32 73.31,43.25 73.35,43.18 73.39,43.10 73.43,43.03 73.47,42.95 73.51,42.88 73.55,42.81 73.59,42.73 73.63,42.66 73.67,42.59 73.71,42.51 73.75,42.44 73.79,42.36 73.83,42.29 73.87,42.22 73.91,42.14 73.95,42.07 73.99,42.00 74.03,41.92 74.07,41.85 74.10,41.78 74.14,41.70 74.18,41.63 74.22,41.55 74.26,41.48 74.30,41.41 74.34,41.33 74.37,41.26 74.41,41.19 74.45,41.11 74.49,41.04 74.53,40.96 74.56,40.89 74.60,40.82 74.64,40.74 74.68,40.67 74.71,40.60 74.75,40.52 74.79,40.45 74.83,40.37 74.86,40.30 74.90,40.23 74.94,40.15 74.97,40.08 75.01,40.01 75.05,39.93 75.08,39.86 75.12,39.79 75.16,39.71 75.19,39.64 75.23,39.56 75.27,39.49 75.30,39.42 75.34,39.34 75.38,39.27 75.41,39.20 75.45,39.12 75.48,39.05 75.52,38.98 75.55,38.90 75.59,38.83 75.63,38.76 75.66,38.68 75.70,38.61 75.73,38.54 75.77,38.46 75.80,38.39 75.84,38.32 75.87,38.24 75.91,38.17 75.94,38.10 75.98,38.02 76.01,37.95 76.05,37.88 76.08,37.80 76.11,37.73 76.15,37.66 76.18,37.58 76.22,37.51 76.25,37.44 76.28,37.36 76.32,37.29 76.35,37.22 76.39,37.14 76.42,37.07 76.45,37.00 76.49,36.92 76.52,36.85 76.55,36.78 76.59,36.71 76.62,36.63 76.65,36.56 76.69,36.49 76.72,36.41 76.75,36.34 76.78,36.27 76.82,36.20 76.85,36.12 76.88,36.05 76.92,35.98 76.95,35.91 76.98,35.83 77.01,35.76 77.04,35.69 77.08,35.62 77.11,35.54 77.14,35.47 77.17,35.40 77.20,35.33 77.24,35.25 77.27,35.18 77.30,35.11 77.33,35.04 77.36,34.97 77.39,34.89 77.42,34.82 77.46,34.75 77.49,34.68 77.52,34.60 77.55,34.53 77.58,34.46 77.61,34.39 77.64,34.32 77.67,34.25 77.70,34.17 77.73,34.10 77.76,34.03 77.79,33.96 77.82,33.89 77.85,33.82 77.88,33.74 77.91,33.67 77.94,33.60 77.97,33.53 78.00,33.46 78.03,33.39 78.06,33.32 78.09,33.24 78.12,33.17 78.15,33.10 78.18,33.03 78.21,32.96 78.24,32.89 78.27,32.82 78.30,32.75 78.33,32.68 78.36,32.61 78.39,32.54 78.41,32.47 78.44,32.39 78.47,32.32 78.50,32.25 78.53,32.18 78.56,32.11 78.59,32.04 78.61,31.97 78.64,31.90 78.67,31.83 78.70,31.76 78.73,31.69 78.75,31.62 78.78,31.55 78.81,31.48 78.84,31.41 78.87,31.34 78.89,31.27 78.92,31.20 78.95,31.13 78.98,31.06 79.00,30.99 79.03,30.92 79.06,30.86 79.08,30.79 79.11,30.72 79.14,30.65 79.16,30.58 79.19,30.51 79.22,30.44 79.24,30.37 79.27,30.30 79.30,30.23 79.32,30.17 79.35,30.10 79.38,30.03 79.40,29.96 79.43,29.89 79.46,29.82 79.48,29.75 79.51,29.69 79.53,29.62 79.56,29.55 79.58,29.48 79.61,29.41 79.64,29.35 79.66,29.28 79.69,29.21 79.71,29.14 79.74,29.08 79.76,29.01 79.79,28.94 79.81,28.87 79.84,28.81 79.86,28.74 79.89,28.67 79.91,28.60 79.94,28.54 79.96,28.47 79.99,28.40 80.01,28.34 80.04,28.27 80.06,28.20 80.08,28.14 80.11,28.07 80.13,28.00 80.16,27.94 80.18,27.87 80.20,27.81 80.23,27.74 80.25,27.67 80.28,27.61 80.30,27.54 80.32,27.48 80.35,27.41 80.37,27.35 80.39,27.28 80.42,27.21 80.44,27.15 80.46,27.08 80.49,27.02 80.51,26.95 80.53,26.89 80.56,26.82 80.58,26.76 80.60,26.69 80.63,26.63 80.65,26.57 80.67,26.50 80.69,26.44 80.72,26.37 80.74,26.31 80.76,26.24 80.78,26.18 80.80,26.12 80.83,26.05 80.85,25.99 80.87,25.93 80.89,25.86 80.92,25.80 80.94,25.74 80.96,25.67 80.98,25.61 81.00,25.55 81.02,25.48 81.05,25.42 81.07,25.36 81.09,25.30 81.11,25.23 81.13,25.17 81.15,25.11 81.17,25.05 81.19,24.98 81.22,24.92 81.24,24.86 81.26,24.80 81.28,24.74 81.30,24.67 81.32,24.61 81.34,24.55 81.36,24.49 81.38,24.43 81.40,24.37 81.42,24.31 81.44,24.25 81.46,24.18 81.48,24.12 81.50,24.06 81.52,24.00 81.54,23.94 81.56,23.88 81.58,23.82 81.60,23.76 81.62,23.70 81.64,23.64 81.66,23.58 81.68,23.52 81.70,23.46 81.72,23.40 81.74,23.34 81.76,23.29 81.78,23.23 81.80,23.17 81.82,23.11 81.83,23.05 81.85,22.99 81.87,22.93 81.89,22.87 81.91,22.82 81.93,22.76 81.95,22.70 81.97,22.64 81.98,22.58 82.00,22.53 82.02,22.47 82.04,22.41 82.06,22.35 82.08,22.30 82.09,22.24 82.11,22.18 82.13,22.13 82.15,22.07 82.17,22.01 82.18,21.96 82.20,21.90 82.22,21.84 82.24,21.79 82.26,21.73 82.27,21.67 82.29,21.62 82.31,21.56 82.33,21.51 82.34,21.45 82.36,21.40 82.38,21.34 82.39,21.29 82.41,21.23 82.43,21.18 82.45,21.12 82.46,21.07 82.48,21.01 82.50,20.96 82.51,20.90 82.53,20.85 82.55,20.80 82.56,20.74 82.58,20.69 82.60,20.63 82.61,20.58 82.63,20.53 82.65,20.47 82.66,20.42 82.68,20.37 82.69,20.32 82.71,20.26 82.73,20.21 82.74,20.16 82.76,20.10 82.77,20.05 82.79,20.00 82.80,19.95 82.82,19.90 82.84,19.85 82.85,19.79 82.87,19.74 82.88,19.69 82.90,19.64 82.91,19.59 82.93,19.54 82.94,19.49 82.96,19.44 82.97,19.39 82.99,19.34 83.00,19.28 83.02,19.23 83.03,19.18 83.05,19.13 83.06,19.09 83.08,19.04 83.09,18.99 83.11,18.94 83.12,18.89 83.14,18.84 83.15,18.79 83.16,18.74 83.18,18.69 83.19,18.64 83.21,18.60 83.22,18.55 83.24,18.50 83.25,18.45 83.26,18.40 83.28,18.36 83.29,18.31 83.31,18.26 83.32,18.21 83.33,18.17 83.35,18.12 83.36,18.07 83.37,18.03 83.39,17.98 83.40,17.93 83.41,17.89 83.43,17.84 83.44,17.79 83.45,17.75 83.47,17.70 83.48,17.66 83.49,17.61 83.51,17.57 83.52,17.52 83.53,17.48 83.54,17.43 83.56,17.39 83.57,17.34 83.58,17.30 83.60,17.25 83.61,17.21 83.62,17.16 83.63,17.12 83.65,17.08 83.66,17.03 83.67,16.99 83.68,16.95 83.69,16.90 83.71,16.86 83.72,16.82 83.73,16.77 83.74,16.73 83.75,16.69 83.77,16.65 83.78,16.60 83.79,16.56 83.80,16.52 83.81,16.48 83.83,16.44 83.84,16.39 83.85,16.35 83.86,16.31 83.87,16.27 83.88,16.23 83.89,16.19 83.91,16.15 83.92,16.11 83.93,16.07 83.94,16.03 83.95,15.99 83.96,15.95 83.97,15.91 83.98,15.87 83.99,15.83 84.01,15.79 84.02,15.75 84.03,15.71 84.04,15.67 84.05,15.63 84.06,15.59 84.07,15.56 84.08,15.52 84.09,15.48 84.10,15.44 84.11,15.40 84.12,15.37 84.13,15.33 84.14,15.29 84.15,15.25 84.16,15.22 84.17,15.18 84.18,15.14 84.19,15.11 84.20,15.07 84.21,15.03 84.22,15.00 84.23,14.96 84.24,14.92 84.25,14.89 84.26,14.85 84.27,14.82 84.28,14.78 84.29,14.75 84.30,14.71 84.31,14.68 84.32,14.64 84.33,14.61 84.34,14.57 84.35,14.54 84.36,14.50 84.36,14.47 84.37,14.44 84.38,14.40 84.39,14.37 84.40,14.34 84.41,14.30 84.42,14.27 84.43,14.24 84.44,14.20 84.44,14.17 84.45,14.14 84.46,14.10 84.47,14.07 84.48,14.04 84.49,14.01 84.50,13.98 84.50,13.94 84.51,13.91 84.52,13.88 84.53,13.85 84.54,13.82 84.55,13.79 84.55,13.76 84.56,13.73 84.57,13.70 84.58,13.67 84.59,13.64 84.59,13.60 84.60,13.57 84.61,13.55 84.62,13.52 84.63,13.49 84.63,13.46 84.64,13.43 84.65,13.40 84.66,13.37 84.66,13.34 84.67,13.31 84.68,13.28 84.69,13.25 84.69,13.23 84.70,13.20 84.71,13.17 84.72,13.14 84.72,13.11 84.73,13.09 84.74,13.06 84.74,13.03 84.75,13.01 84.76,12.98 84.77,12.95 84.77,12.92 84.78,12.90 84.79,12.87 84.79,12.85 84.80,12.82 84.81,12.79 84.81,12.77 84.82,12.74 84.83,12.72 84.83,12.69 84.84,12.67 84.85,12.64 84.85,12.62 84.86,12.59 84.87,12.57 84.87,12.54 84.88,12.52 84.88,12.49 84.89,12.47 84.90,12.44 84.90,12.42 84.91,12.40 84.91,12.37 84.92,12.35 84.93,12.33 84.93,12.30 84.94,12.28 84.94,12.26 84.95,12.23 84.96,12.21 84.96,12.19 84.97,12.17 84.97,12.15 84.98,12.12 84.98,12.10 84.99,12.08 85.00,12.06 85.00,12.04 85.01,12.01 85.01,11.99 85.02,11.97 85.02,11.95 85.03,11.93 85.03,11.91 85.04,11.89 85.04,11.87 85.05,11.85 85.05,11.83 85.06,11.81 85.06,11.79 85.07,11.77 85.07,11.75 85.08,11.73 85.08,11.71 85.09,11.69 85.09,11.67 85.10,11.65 85.10,11.63 85.11,11.62 85.11,11.60 85.12,11.58 85.12,11.56 85.13,11.54 85.13,11.52 85.14,11.51 85.14,11.49 85.14,11.47 85.15,11.45 85.15,11.44 85.16,11.42 85.16,11.40 85.17,11.38 85.17,11.37 85.18,11.35 85.18,11.33 85.18,11.32 85.19,11.30 85.19,11.28 85.20,11.27 85.20,11.25 85.20,11.24 85.21,11.22 85.21,11.20 85.22,11.19 85.22,11.17 85.22,11.16 85.23,11.14 85.23,11.13 85.23,11.11 85.24,11.10 85.24,11.08 85.25,11.07 85.25,11.05 85.25,11.04 85.26,11.03 85.26,11.01 85.26,11.00 85.27,10.98 85.27,10.97 85.27,10.96 85.28,10.94 85.28,10.93 85.28,10.92 85.29,10.90 85.29,10.89 85.29,10.88 85.30,10.87 85.30,10.85 85.30,10.84 85.31,10.83 85.31,10.82 85.31,10.80 85.31,10.79 85.32,10.78 85.32,10.77 85.32,10.76 85.33,10.74 85.33,10.73 85.33,10.72 85.34,10.71 85.34,10.70 85.34,10.69 85.34,10.68 85.35,10.67 85.35,10.65 85.35,10.64 85.35,10.63 85.36,10.62 85.36,10.61 85.36,10.60 85.36,10.59 85.37,10.58 85.37,10.57 85.37,10.56 85.37,10.55 85.38,10.54 85.38,10.53 85.38,10.52 85.38,10.52 85.39,10.51 85.39,10.50 85.39,10.49 85.39,10.48 85.39,10.47 85.40,10.46 85.40,10.45 85.40,10.44 85.40,10.44 85.40,10.43 85.41,10.42 85.41,10.41 85.41,10.40 85.41,10.40 85.41,10.39 85.42,10.38 85.42,10.37 85.42,10.37 85.42,10.36 85.42,10.35 85.43,10.34 85.43,10.34 85.43,10.33 85.43,10.32 85.43,10.32 85.43,10.31 85.44,10.30 85.44,10.30 85.44,10.29 85.44,10.28 85.44,10.28 85.44,10.27 85.45,10.26 85.45,10.26 85.45,10.25 85.45,10.25 85.45,10.24 85.45,10.23 85.45,10.23 85.46,10.22 85.46,10.22 85.46,10.21 85.46,10.21 85.46,10.20 85.46,10.20 85.46,10.19 85.46,10.19 85.47,10.18 85.47,10.18 85.47,10.17 85.47,10.17 85.47,10.16 85.47,10.16 85.47,10.15 85.47,10.15 85.47,10.15 85.48,10.14 85.48,10.14 85.48,10.13 85.48,10.13 85.48,10.13 85.48,10.12 85.48,10.12 85.48,10.12 85.48,10.11 85.48,10.11 85.48,10.10 85.49,10.10 85.49,10.10 85.49,10.09 85.49,10.09 85.49,10.09 85.49,10.09 85.49,10.08 85.49,10.08 85.49,10.08 85.49,10.07 85.49,10.07 85.49,10.07 85.49,10.07 85.49,10.06 85.50,10.06 85.50,10.06 85.50,10.06 85.50,10.05 85.50,10.05 85.50,10.05 85.50,10.05 85.50,10.05 85.50,10.04 85.50,10.04 85.50,10.04 85.50,10.04 85.50,10.04 85.50,10.03 85.50,10.03 85.50,10.03 85.50,10.03 85.50,10.03 85.50,10.03 85.50,10.03 85.50,10.02 85.50,10.02 85.50,10.02 85.51,10.02 85.51,10.02 85.51,10.02 85.51,10.02 85.51,10.02 85.51,10.01 85.51,10.01 85.51,10.01 85.51,10.01 85.51,10.01 85.51,10.01 85.51,10.01 85.51,10.01 85.51,10.01 85.51,10.01 85.51,10.01 85.51,10.01 85.51,10.01 85.51,10.01 85.51,10.00 85.51,10.00 85.51,10.00 85.51,10.00 85.51,10.00 85.51,10.00 85.51,10.00 85.51,10.00 85.51,10.00 85.51,10.00 85.51,10.00 85.51,10.00 85.51,10.00 85.51,10.00 85.51,10.00 85.51,10.00 85.51,10.00 85.51,10.00 85.51,10.00 85.51,10.00 85.51,10.00 85.51,10.00 85.51,10.00 85.51,10.00 85.51,10.00 85.51,10.00 85.51,10.00" />
    <polyline points="134.49,210.00 134.49,210.00 134.49,210.00 134.49,210.00 134.49,210.00 134.49,210.00 134.49,210.00 134.49,210.00 134.49,210.00 134.49,210.00 134.49,210.00 134.49,210.00 134.49,210.00 134.49,210.00 134.49,210.00 134.49,210.00 134.49,210.00 134.49,210.00 134.49,210.00 134.49,210.00 134.49,210.00 134.49,210.00 134.49,210.00 134.49,210.00 134.49,210.00 134.49,210.00 134.49,210.00 134.49,209.99 134.49,209.99 134.49,209.99 134.49,209.99 134.49,209.99 134.49,209.99 134.49,209.99 134.49,209.99 134.49,209.99 134.49,209.99 134.49,209.99 134.49,209.99 134.49,209.99 134.49,209.99 134.49,209.98 134.49,209.98 134.49,209.98 134.49,209.98 134.49,209.98 134.50,209.98 134.50,209.98 134.50,209.98 134.50,209.97 134.50,209.97 134.50,209.97 134.50,209.97 134.50,209.97 134.50,209.97 134.50,209.97 134.50,209.96 134.50,209.96 134.50,209.96 134.50,209.96 134.50,209.96 134.50,209.95 134.50,209.95 134.50,209.95 134.50,209.95 134.50,209.95 134.50,209.94 134.50,209.94 134.50,209.94 134.51,209.94 134.51,209.93 134.51,209.93 134.51,209.93 134.51,209.93 134.51,209.92 134.51,209.92 134.51,209.92 134.51,209.91 134.51,209.91 134.51,209.91 134.51,209.91 134.51,209.90 134.51,209.90 134.52,209.90 134.52,209.89 134.52,209.89 134.52,209.88 134.52,209.88 134.52,209.88 134.52,209.87 134.52,209.87 134.52,209.87 134.52,209.86 134.52,209.86 134.53,209.85 134.53,209.85 134.53,209.85 134.53,209.84 134.53,209.84 134.53,209.83 134.53,209.83 134.53,209.82 134.53,209.82 134.54,209.81 134.54,209.81 134.54,209.80 134.54,209.80 134.54,209.79 134.54,209.79 134.54,209.78 134.54,209.78 134.55,209.77 134.55,209.77 134.55,209.76 134.55,209.75 134.55,209.75 134.55,209.74 134.55,209.74 134.56,209.73 134.56,209.72 134.56,209.72 134.56,209.71 134.56,209.70 134.56,209.70 134.57,209.69 134.57,209.68 134.57,209.68 134.57,209.67 134.57,209.66 134.57,209.66 134.58,209.65 134.58,209.64 134.58,209.63 134.58,209.63 134.58,209.62 134.59,209.61 134.59,209.60 134.59,209.60 134.59,209.59 134.59,209.58 134.60,209.57 134.60,209.56 134.60,209.56 134.60,209.55 134.60,209.54 134.61,209.53 134.61,209.52 134.61,209.51 134.61,209.50 134.61,209.49 134.62,209.48 134.62,209.48 134.62,209.47 134.62,209.46 134.63,209.45 134.63,209.44 134.63,209.43 134.63,209.42 134.64,209.41 134.64,209.40 134.64,209.39 134.64,209.38 134.65,209.37 134.65,209.36 134.65,209.35 134.65,209.33 134.66,209.32 134.66,209.31 134.66,209.30 134.66,209.29 134.67,209.28 134.67,209.27 134.67,209.26 134.68,209.24 134.68,209.23 134.68,209.22 134.69,209.21 134.69,209.20 134.69,209.18 134.69,209.17 134.70,209.16 134.70,209.15 134.70,209.13 134.71,209.12 134.71,209.11 134.71,209.10 134.72,209.08 134.72,209.07 134.72,209.06 134.73,209.04 134.73,209.03 134.73,209.02 134.74,209.00 134.74,208.99 134.74,208.97 134.75,208.96 134.75,208.95 134.75,208.93 134.76,208.92 134.76,208.90 134.77,208.89 134.77,208.87 134.77,208.86 134.78,208.84 134.78,208.83 134.78,208.81 134.79,208.80 134.79,208.78 134.80,208.76 134.80,208.75 134.80,208.73 134.81,208.72 134.81,208.70 134.82,208.68 134.82,208.67 134.82,208.65 134.83,208.63 134.83,208.62 134.84,208.60 134.84,208.58 134.85,208.56 134.85,208.55 134.86,208.53 134.86,208.51 134.86,208.49 134.87,208.48 134.87,208.46 134.88,208.44 134.88,208.42 134.89,208.40 134.89,208.38 134.90,208.37 134.90,208.35 134.91,208.33 134.91,208.31 134.92,208.29 134.92,208.27 134.93,208.25 134.93,208.23 134.94,208.21 134.94,208.19 134.95,208.17 134.95,208.15 134.96,208.13 134.96,208.11 134.97,208.09 134.97,208.07 134.98,208.05 134.98,208.03 134.99,208.01 134.99,207.99 135.00,207.96 135.00,207.94 135.01,207.92 135.02,207.90 135.02,207.88 135.03,207.85 135.03,207.83 135.04,207.81 135.04,207.79 135.05,207.77 135.06,207.74 135.06,207.72 135.07,207.70 135.07,207.67 135.08,207.65 135.09,207.63 135.09,207.60 135.10,207.58 135.10,207.56 135.11,207.53 135.12,207.51 135.12,207.48 135.13,207.46 135.13,207.43 135.14,207.41 135.15,207.38 135.15,207.36 135.16,207.33 135.17,207.31 135.17,207.28 135.18,207.26 135.19,207.23 135.19,207.21 135.20,207.18 135.21,207.15 135.21,207.13 135.22,207.10 135.23,207.08 135.23,207.05 135.24,207.02 135.25,206.99 135.26,206.97 135.26,206.94 135.27,206.91 135.28,206.89 135.28,206.86 135.29,206.83 135.30,206.80 135.31,206.77 135.31,206.75 135.32,206.72 135.33,206.69 135.34,206.66 135.34,206.63 135.35,206.60 135.36,206.57 135.37,206.54 135.37,206.51 135.38,206.48 135.39,206.45 135.40,206.43 135.41,206.40 135.41,206.36 135.42,206.33 135.43,206.30 135.44,206.27 135.45,206.24 135.45,206.21 135.46,206.18 135.47,206.15 135.48,206.12 135.49,206.09 135.50,206.06 135.50,206.02 135.51,205.99 135.52,205.96 135.53,205.93 135.54,205.90 135.55,205.86 135.56,205.83 135.56,205.80 135.57,205.76 135.58,205.73 135.59,205.70 135.60,205.66 135.61,205.63 135.62,205.60 135.63,205.56 135.64,205.53 135.64,205.50 135.65,205.46 135.66,205.43 135.67,205.39 135.68,205.36 135.69,205.32 135.70,205.29 135.71,205.25 135.72,205.22 135.73,205.18 135.74,205.15 135.75,205.11 135.76,205.08 135.77,205.04 135.78,205.00 135.79,204.97 135.80,204.93 135.81,204.89 135.82,204.86 135.83,204.82 135.84,204.78 135.85,204.75 135.86,204.71 135.87,204.67 135.88,204.63 135.89,204.60 135.90,204.56 135.91,204.52 135.92,204.48 135.93,204.44 135.94,204.41 135.95,204.37 135.96,204.33 135.97,204.29 135.98,204.25 135.99,204.21 136.01,204.17 136.02,204.13 136.03,204.09 136.04,204.05 136.05,204.01 136.06,203.97 136.07,203.93 136.08,203.89 136.09,203.85 136.11,203.81 136.12,203.77 136.13,203.73 136.14,203.69 136.15,203.65 136.16,203.61 136.17,203.56 136.19,203.52 136.20,203.48 136.21,203.44 136.22,203.40 136.23,203.35 136.25,203.31 136.26,203.27 136.27,203.23 136.28,203.18 136.29,203.14 136.31,203.10 136.32,203.05 136.33,203.01 136.34,202.97 136.35,202.92 136.37,202.88 136.38,202.84 136.39,202.79 136.40,202.75 136.42,202.70 136.43,202.66 136.44,202.61 136.46,202.57 136.47,202.52 136.48,202.48 136.49,202.43 136.51,202.39 136.52,202.34 136.53,202.30 136.55,202.25 136.56,202.21 136.57,202.16 136.59,202.11 136.60,202.07 136.61,202.02 136.63,201.97 136.64,201.93 136.65,201.88 136.67,201.83 136.68,201.79 136.69,201.74 136.71,201.69 136.72,201.64 136.74,201.60 136.75,201.55 136.76,201.50 136.78,201.45 136.79,201.40 136.81,201.36 136.82,201.31 136.84,201.26 136.85,201.21 136.86,201.16 136.88,201.11 136.89,201.06 136.91,201.01 136.92,200.96 136.94,200.91 136.95,200.87 136.97,200.82 136.98,200.77 137.00,200.72 137.01,200.66 137.03,200.61 137.04,200.56 137.06,200.51 137.07,200.46 137.09,200.41 137.10,200.36 137.12,200.31 137.13,200.26 137.15,200.21 137.16,200.15 137.18,200.10 137.20,200.05 137.21,200.00 137.23,199.95 137.24,199.90 137.26,199.84 137.27,199.79 137.29,199.74 137.31,199.68 137.32,199.63 137.34,199.58 137.35,199.53 137.37,199.47 137.39,199.42 137.40,199.37 137.42,199.31 137.44,199.26 137.45,199.20 137.47,199.15 137.49,199.10 137.50,199.04 137.52,198.99 137.54,198.93 137.55,198.88 137.57,198.82 137.59,198.77 137.61,198.71 137.62,198.66 137.64,198.60 137.66,198.55 137.67,198.49 137.69,198.44 137.71,198.38 137.73,198.33 137.74,198.27 137.76,198.21 137.78,198.16 137.80,198.10 137.82,198.04 137.83,197.99 137.85,197.93 137.87,197.87 137.89,197.82 137.91,197.76 137.92,197.70 137.94,197.65 137.96,197.59 137.98,197.53 138.00,197.47 138.02,197.42 138.03,197.36 138.05,197.30 138.07,197.24 138.09,197.18 138.11,197.13 138.13,197.07 138.15,197.01 138.17,196.95 138.18,196.89 138.20,196.83 138.22,196.77 138.24,196.71 138.26,196.66 138.28,196.60 138.30,196.54 138.32,196.48 138.34,196.42 138.36,196.36 138.38,196.30 138.40,196.24 138.42,196.18 138.44,196.12 138.46,196.06 138.48,196.00 138.50,195.94 138.52,195.88 138.54,195.82 138.56,195.75 138.58,195.69 138.60,195.63 138.62,195.57 138.64,195.51 138.66,195.45 138.68,195.39 138.70,195.33 138.72,195.26 138.74,195.20 138.76,195.14 138.78,195.08 138.81,195.02 138.83,194.95 138.85,194.89 138.87,194.83 138.89,194.77 138.91,194.70 138.93,194.64 138.95,194.58 138.98,194.52 139.00,194.45 139.02,194.39 139.04,194.33 139.06,194.26 139.08,194.20 139.11,194.14 139.13,194.07 139.15,194.01 139.17,193.95 139.20,193.88 139.22,193.82 139.24,193.76 139.26,193.69 139.28,193.63 139.31,193.56 139.33,193.50 139.35,193.43 139.37,193.37 139.40,193.31 139.42,193.24 139.44,193.18 139.47,193.11 139.49,193.05 139.51,192.98 139.54,192.92 139.56,192.85 139.58,192.79 139.61,192.72 139.63,192.65 139.65,192.59 139.68,192.52 139.70,192.46 139.72,192.39 139.75,192.33 139.77,192.26 139.80,192.19 139.82,192.13 139.84,192.06 139.87,192.00 139.89,191.93 139.92,191.86 139.94,191.80 139.96,191.73 139.99,191.66 140.01,191.60 140.04,191.53 140.06,191.46 140.09,191.40 140.11,191.33 140.14,191.26 140.16,191.19 140.19,191.13 140.21,191.06 140.24,190.99 140.26,190.92 140.29,190.86 140.31,190.79 140.34,190.72 140.36,190.65 140.39,190.59 140.42,190.52 140.44,190.45 140.47,190.38 140.49,190.31 140.52,190.25 140.54,190.18 140.57,190.11 140.60,190.04 140.62,189.97 140.65,189.90 140.68,189.83 140.70,189.77 140.73,189.70 140.76,189.63 140.78,189.56 140.81,189.49 140.84,189.42 140.86,189.35 140.89,189.28 140.92,189.21 140.94,189.14 140.97,189.08 141.00,189.01 141.02,188.94 141.05,188.87 141.08,188.80 141.11,188.73 141.13,188.66 141.16,188.59 141.19,188.52 141.22,188.45 141.25,188.38 141.27,188.31 141.30,188.24 141.33,188.17 141.36,188.10 141.39,188.03 141.41,187.96 141.44,187.89 141.47,187.82 141.50,187.75 141.53,187.68 141.56,187.61 141.59,187.53 141.61,187.46 141.64,187.39 141.67,187.32 141.70,187.25 141.73,187.18 141.76,187.11 141.79,187.04 141.82,186.97 141.85,186.90 141.88,186.83 141.91,186.76 141.94,186.68 141.97,186.61 142.00,186.54 142.03,186.47 142.06,186.40 142.09,186.33 142.12,186.26 142.15,186.18 142.18,186.11 142.21,186.04 142.24,185.97 142.27,185.90 142.30,185.83 142.33,185.75 142.36,185.68 142.39,185.61 142.42,185.54 142.45,185.47 142.48,185.40 142.51,185.32 142.54,185.25 142.58,185.18 142.61,185.11 142.64,185.03 142.67,184.96 142.70,184.89 142.73,184.82 142.76,184.75 142.80,184.67 142.83,184.60 142.86,184.53 142.89,184.46 142.92,184.38 142.96,184.31 142.99,184.24 143.02,184.17 143.05,184.09 143.08,184.02 143.12,183.95 143.15,183.88 143.18,183.80 143.22,183.73 143.25,183.66 143.28,183.59 143.31,183.51 143.35,183.44 143.38,183.37 143.41,183.29 143.45,183.22 143.48,183.15 143.51,183.08 143.55,183.00 143.58,182.93 143.61,182.86 143.65,182.78 143.68,182.71 143.72,182.64 143.75,182.56 143.78,182.49 143.82,182.42 143.85,182.34 143.89,182.27 143.92,182.20 143.95,182.12 143.99,182.05 144.02,181.98 144.06,181.90 144.09,181.83 144.13,181.76 144.16,181.68 144.20,181.61 144.23,181.54 144.27,181.46 144.30,181.39 144.34,181.32 144.37,181.24 144.41,181.17 144.45,181.10 144.48,181.02 144.52,180.95 144.55,180.88 144.59,180.80 144.62,180.73 144.66,180.66 144.70,180.58 144.73,180.51 144.77,180.44 144.81,180.36 144.84,180.29 144.88,180.21 144.92,180.14 144.95,180.07 144.99,179.99 145.03,179.92 145.06,179.85 145.10,179.77 145.14,179.70 145.17,179.63 145.21,179.55 145.25,179.48 145.29,179.40 145.32,179.33 145.36,179.26 145.40,179.18 145.44,179.11 145.47,179.04 145.51,178.96 145.55,178.89 145.59,178.81 145.63,178.74 145.66,178.67 145.70,178.59 145.74,178.52 145.78,178.45 145.82,178.37 145.86,178.30 145.90,178.22 145.93,178.15 145.97,178.08 146.01,178.00 146.05,177.93 146.09,177.86 146.13,177.78 146.17,177.71 146.21,177.64 146.25,177.56 146.29,177.49 146.33,177.41 146.37,177.34 146.41,177.27 146.45,177.19 146.49,177.12 146.53,177.05 146.57,176.97 146.61,176.90 146.65,176.82 146.69,176.75 146.73,176.68 146.77,176.60 146.81,176.53 146.85,176.46 146.89,176.38 146.93,176.31 146.97,176.24 147.01,176.16 147.06,176.09 147.10,176.02 147.14,175.94 147.18,175.87 147.22,175.80 147.26,175.72 147.30,175.65 147.35,175.57 147.39,175.50 147.43,175.43 147.47,175.35 147.51,175.28 147.56,175.21 147.60,175.13 147.64,175.06 147.68,174.99 147.73,174.91 147.77,174.84 147.81,174.77 147.85,174.69 147.90,174.62 147.94,174.55 147.98,174.47 148.03,174.40 148.07,174.33 148.11,174.26 148.16,174.18 148.20,174.11 148.24,174.04 148.29,173.96 148.33,173.89 148.37,173.82 148.42,173.74 148.46,173.67 148.51,173.60 148.55,173.53 148.60,173.45 148.64,173.38 148.68,173.31 148.73,173.23 148.77,173.16 148.82,173.09 148.86,173.02 148.91,172.94 148.95,172.87 149.00,172.80 149.04,172.72 149.09,172.65 149.13,172.58 149.18,172.51 149.22,172.43 149.27,172.36 149.32,172.29 149.36,172.22 149.41,172.14 149.45,172.07 149.50,172.00 149.55,171.93 149.59,171.85 149.64,171.78 149.69,171.71 149.73,171.64 149.78,171.57 149.82,171.49 149.87,171.42 149.92,171.35 149.97,171.28 150.01,171.21 150.06,171.13 150.11,171.06 150.15,170.99 150.20,170.92 150.25,170.85 150.30,170.77 150.34,170.70 150.39,170.63 150.44,170.56 150.49,170.49 150.54,170.41 150.58,170.34 150.63,170.27 150.68,170.20 150.73,170.13 150.78,170.06 150.83,169.99 150.87,169.91 150.92,169.84 150.97,169.77 151.02,169.70 151.07,169.63 151.12,169.56 151.17,169.49 151.22,169.42 151.27,169.34 151.32,169.27 151.37,169.20 151.42,169.13 151.47,169.06 151.52,168.99 151.57,168.92 151.62,168.85 151.67,168.78 151.72,168.71 151.77,168.63 151.82,168.56 151.87,168.49 151.92,168.42 151.97,168.35 152.02,168.28 152.07,168.21 152.12,168.14 152.17,168.07 152.22,168.00 152.28,167.93 152.33,167.86 152.38,167.79 152.43,167.72 152.48,167.65 152.53,167.58 152.58,167.51 152.64,167.44 152.69,167.37 152.74,167.30 152.79,167.23 152.85,167.16 152.90,167.09 152.95,167.02 153.00,166.95 153.06,166.88 153.11,166.81 153.16,166.74 153.21,166.67 153.27,166.60 153.32,166.53 153.37,166.46 153.43,166.39 153.48,166.32 153.53,166.26 153.59,166.19 153.64,166.12 153.69,166.05 153.75,165.98 153.80,165.91 153.86,165.84 153.91,165.77 153.96,165.70 154.02,165.63 154.07,165.57 154.13,165.50 154.18,165.43 154.24,165.36 154.29,165.29 154.35,165.22 154.40,165.15 154.46,165.09 154.51,165.02 154.57,164.95 154.62,164.88 154.68,164.81 154.73,164.74 154.79,164.68 154.85,164.61 154.90,164.54 154.96,164.47 155.01,164.40 155.07,164.34 155.13,164.27 155.18,164.20 155.24,164.13 155.30,164.07 155.35,164.00 155.41,163.93 155.47,163.86 155.52,163.80 155.58,163.73 155.64,163.66 155.69,163.59 155.75,163.53 155.81,163.46 155.87,163.39 155.92,163.33 155.98,163.26 156.04,163.19 156.10,163.12 156.16,163.06 156.21,162.99 156.27,162.92 156.33,162.86 156.39,162.79 156.45,162.72 156.51,162.66 156.57,162.59 156.62,162.53 156.68,162.46 156.74,162.39 156.80,162.33 156.86,162.26 156.92,162.19 156.98,162.13 157.04,162.06 157.10,162.00 157.16,161.93 157.22,161.87 157.28,161.80 157.34,161.73 157.40,161.67 157.46,161.60 157.52,161.54 157.58,161.47 157.64,161.41 157.70,161.34 157.76,161.28 157.82,161.21 157.88,161.15 157.94,161.08 158.00,161.02 158.07,160.95 158.13,160.89 158.19,160.82 158.25,160.76 158.31,160.69 158.37,160.63 158.44,160.56 158.50,160.50 158.56,160.43 158.62,160.37 158.68,160.30 158.75,160.24 158.81,160.18 158.87,160.11 158.93,160.05 159.00,159.98 159.06,159.92 159.12,159.85 159.19,159.79 159.25,159.73 159.31,159.66 159.37,159.60 159.44,159.54 159.50,159.47 159.57,159.41 159.63,159.35 159.69,159.28 159.76,159.22 159.82,159.16 159.89,159.09 159.95,159.03 160.01,158.97 160.08,158.90 160.14,158.84 160.21,158.78 160.27,158.71 160.34,158.65 160.40,158.59 160.47,158.53 160.53,158.46 160.60,158.40 160.66,158.34 160.73,158.28 160.79,158.21 160.86,158.15 160.93,158.09 160.99,158.03 161.06,157.97 161.12,157.90 161.19,157.84 161.26,157.78 161.32,157.72 161.39,157.66 161.46,157.59 161.52,157.53 161.59,157.47 161.66,157.41 161.72,157.35 161.79,157.29 161.86,157.23 161.93,157.16 161.99,157.10 162.06,157.04 162.13,156.98 162.20,156.92 162.26,156.86 162.33,156.80 162.40,156.74 162.47,156.68 162.54,156.62 162.60,156.55 162.67,156.49 162.74,156.43 162.81,156.37 162.88,156.31 162.95,156.25 163.02,156.19 163.09,156.13 163.16,156.07 163.22,156.01 163.29,155.95 163.36,155.89 163.43,155.83 163.50,155.77 163.57,155.71 163.64,155.65 163.71,155.59 163.78,155.53 163.85,155.47 163.92,155.42 163.99,155.36 164.06,155.30 164.14,155.24 164.21,155.18 164.28,155.12 164.35,155.06 164.42,155.00 164.49,154.94 164.56,154.88 164.63,154.83 164.71,154.77 164.78,154.71 164.85,154.65 164.92,154.59 164.99,154.53 165.06,154.47 165.14,154.42 165.21,154.36 165.28,154.30 165.35,154.24 165.43,154.18 165.50,154.13 165.57,154.07 165.65,154.01 165.72,153.95 165.79,153.90 165.86,153.84 165.94,153.78 166.01,153.72 166.09,153.67 166.16,153.61 166.23,153.55 166.31,153.49 166.38,153.44 166.46,153.38 166.53,153.32 166.60,153.27 166.68,153.21 166.75,153.15 166.83,153.09 166.90,153.04 166.98,152.98 167.05,152.93 167.13,152.87 167.20,152.81 167.28,152.76 167.35,152.70 167.43,152.64 167.50,152.59 167.58,152.53 167.66,152.48 167.73,152.42 167.81,152.36 167.88,152.31 167.96,152.25 168.04,152.20 168.11,152.14 168.19,152.09 168.27,152.03 168.34,151.97 168.42,151.92 168.50,151.86 168.58,151.81 168.65,151.75 168.73,151.70 168.81,151.64 168.89,151.59 168.96,151.53 169.04,151.48 169.12,151.42 169.20,151.37 169.28,151.32 169.35,151.26 169.43,151.21 169.51,151.15 169.59,151.10 169.67,151.04 169.75,150.99 169.83,150.93 169.91,150.88 169.98,150.83 170.06,150.77 170.14,150.72 170.22,150.67 170.30,150.61 170.38,150.56 170.46,150.50 170.54,150.45 170.62,150.40 170.70,150.34 170.78,150.29 170.86,150.24 170.94,150.18 171.02,150.13 171.11,150.08 171.19,150.02 171.27,149.97 171.35,149.92 171.43,149.87 171.51,149.81 171.59,149.76 171.67,149.71 171.76,149.66 171.84,149.60 171.92,149.55 172.00,149.50 172.08,149.45 172.17,149.39 172.25,149.34 172.33,149.29 172.41,149.24 172.50,149.19 172.58,149.13 172.66,149.08 172.74,149.03 172.83,148.98 172.91,148.93 172.99,148.88 173.08,148.82 173.16,148.77 173.25,148.72 173.33,148.67 173.41,148.62 173.50,148.57 173.58,148.52 173.67,148.47 173.75,148.42 173.83,148.36 173.92,148.31 174.00,148.26 174.09,148.21 174.17,148.16 174.26,148.11 174.34,148.06 174.43,148.01 174.51,147.96 174.60,147.91 174.69,147.86 174.77,147.81 174.86,147.76 174.94,147.71 175.03,147.66 175.12,147.61 175.20,147.56 175.29,147.51 175.38,147.46 175.46,147.41 175.55,147.36 175.64,147.31 175.72,147.26 175.81,147.21 175.90,147.16 175.98,147.11 176.07,147.07 176.16,147.02 176.25,146.97 176.34,146.92 176.42,146.87 176.51,146.82 176.60,146.77 176.69,146.72 176.78,146.67 176.87,146.63 176.95,146.58 177.04,146.53 177.13,146.48 177.22,146.43 177.31,146.38 177.40,146.34 177.49,146.29 177.58,146.24 177.67,146.19 177.76,146.14 177.85,146.10 177.94,146.05 178.03,146.00 178.12,145.95 178.21,145.90 178.30,145.86 178.39,145.81 178.48,145.76 178.57,145.71 178.66,145.67 178.75,145.62 178.84,145.57 178.93,145.53 179.03,145.48 179.12,145.43 179.21,145.39 179.30,145.34 179.39,145.29 179.48,145.24 179.58,145.20 179.67,145.15 179.76,145.11 179.85,145.06 179.95,145.01 180.04,144.97 180.13,144.92 180.22,144.87 180.32,144.83 180.41,144.78 180.50,144.74 180.60,144.69 180.69,144.64 180.78,144.60 180.88,144.55 180.97,144.51 181.07,144.46 181.16,144.41 181.25,144.37 181.35,144.32 181.44,144.28 181.54,144.23 181.63,144.19 181.73,144.14 181.82,144.10 181.92,144.05 182.01,144.01 182.11,143.96 182.20,143.92 182.30,143.87 182.40,143.83 182.49,143.78 182.59,143.74 182.68,143.69 182.78,143.65 182.88,143.61 182.97,143.56 183.07,143.52 183.16,143.47 183.26,143.43 183.36,143.38 183.46,143.34 183.55,143.30 183.65,143.25 183.75,143.21 183.84,143.16 183.94,143.12 184.04,143.08 184.14,143.03 184.24,142.99 184.33,142.95 184.43,142.90 184.53,142.86 184.63,142.82 184.73,142.77 184.83,142.73 184.93,142.69 185.02,142.64 185.12,142.60 185.22,142.56 185.32,142.51 185.42,142.47 185.52,142.43 185.62,142.39 185.72,142.34 185.82,142.30 185.92,142.26 186.02,142.21 186.12,142.17 186.22,142.13 186.32,142.09 186.42,142.05 186.52,142.00 186.62,141.96 186.73,141.92 186.83,141.88 186.93,141.83 187.03,141.79 187.13,141.75 187.23,141.71 187.33,141.67 187.44,141.63 187.54,141.58 187.64,141.54 187.74,141.50 187.84,141.46 187.95,141.42 188.05,141.38 188.15,141.34 188.26,141.29 188.36,141.25 188.46,141.21 188.57,141.17 188.67,141.13 188.77,141.09 188.88,141.05 188.98,141.01 189.08,140.97 189.19,140.93 189.29,140.89 189.40,140.85 189.50,140.80 189.60,140.76 189.71,140.72 189.81,140.68 189.92,140.64 190.02,140.60 190.13,140.56 190.23,140.52 190.34,140.48 190.45,140.44 190.55,140.40 190.66,140.36 190.76,140.32 190.87,140.28 190.97,140.24 191.08,140.20 191.19,140.16 191.29,140.13 191.40,140.09 191.51,140.05 191.61,140.01 191.72,139.97 191.83,139.93 191.94,139.89 192.04,139.85 192.15,139.81 192.26,139.77 192.37,139.73 192.47,139.69 192.58,139.66 192.69,139.62 192.80,139.58 192.91,139.54 193.02,139.50 193.12,139.46 193.23,139.42 193.34,139.38 193.45,139.35 193.56,139.31 193.67,139.27 193.78,139.23 193.89,139.19 194.00,139.16 194.11,139.12 194.22,139.08 194.33,139.04 194.44,139.00 194.55,138.97 194.66,138.93 194.77,138.89 194.88,138.85 194.99,138.81 195.10,138.78 195.21,138.74 195.32,138.70 195.44,138.66 195.55,138.63 195.66,138.59 195.77,138.55 195.88,138.52 195.99,138.48 196.11,138.44 196.22,138.40 196.33,138.37 196.44,138.33 196.56,138.29 196.67,138.26 196.78,138.22 196.89,138.18 197.01,138.15 197.12,138.11 197.23,138.07 197.35,138.04 197.46,138.00 197.58,137.96 197.69,137.93 197.80,137.89 197.92,137.86 198.03,137.82 198.15,137.78 198.26,137.75 198.38,137.71 198.49,137.68 198.61,137.64 198.72,137.60 198.84,137.57 198.95,137.53 199.07,137.50 199.18,137.46 199.30,137.42 199.41,137.39 199.53,137.35 199.65,137.32 199.76,137.28 199.88,137.25 200.00,137.21 200.11,137.18 200.23,137.14 200.35,137.11 200.46,137.07 200.58,137.04 200.70,137.00 200.81,136.97 200.93,136.93 201.05,136.90 201.17,136.86 201.29,136.83 201.40,136.79 201.52,136.76 201.64,136.72 201.76,136.69 201.88,136.65 202.00,136.62 202.11,136.59 202.23,136.55 202.35,136.52 202.47,136.48 202.59,136.45 202.71,136.42 202.83,136.38 202.95,136.35 203.07,136.31 203.19,136.28 203.31,136.25 203.43,136.21 203.55,136.18 203.67,136.14 203.79,136.11 203.91,136.08 204.03,136.04 204.16,136.01 204.28,135.98 204.40,135.94 204.52,135.91 204.64,135.88 204.76,135.84 204.89,135.81 205.01,135.78 205.13,135.74 205.25,135.71 205.37,135.68 205.50,135.64 205.62,135.61 205.74,135.58 205.87,135.55 205.99,135.51 206.11,135.48 206.24,135.45 206.36,135.42 206.48,135.38 206.61,135.35 206.73,135.32 206.85,135.29 206.98,135.25 207.10,135.22 207.23,135.19 207.35,135.16 207.48,135.12 207.60,135.09 207.73,135.06 207.85,135.03 207.98,135.00 208.10,134.96 208.23,134.93 208.35,134.90 208.48,134.87 208.61,134.84 208.73,134.80 208.86,134.77 208.98,134.74 209.11,134.71 209.24,134.68 209.36,134.65 209.49,134.62 209.62,134.58 209.75,134.55 209.87,134.52 210.00,134.49" />
  </g>

  <!-- прямая через (-4;3) и (0;2), продлена до границ сетки -->
  <g stroke="#166534" stroke-width="1.25" fill="none"
     stroke-linecap="round" stroke-linejoin="round">
    <line x1="10.00" y1="113.57" x2="210.00" y2="163.57" />
  </g>

  <!-- точки (-4;3) и (0;2) -->
  <circle cx="167.14" cy="152.86" r="2.2" fill="#166534" />
  <circle cx="110.00" cy="138.57" r="2.2" fill="#166534" />

  <!-- подписи -->
  <text x="46.57" y="38.57"
        font-family="Georgia, 'Times New Roman', serif"
        font-style="italic"
        font-size="13"
        fill="#2d70b3">f(x)</text>

  <text x="160.00" y="142.86"
        font-family="Georgia, 'Times New Roman', serif"
        font-style="italic"
        font-size="13"
        fill="#166534">A</text>

  <!-- подпись g(x) -->
  <text x="24.29" y="138.57"
        font-family="Georgia, 'Times New Roman', serif"
        font-style="italic"
        font-size="13"
        fill="#166534">g(x)</text>

</svg>
