<svg xmlns="http://www.w3.org/2000/svg" width="220" height="220" viewBox="0 0 220 220">
  <rect x="0" y="0" width="220" height="220" fill="white" />

  <defs>
    <marker id="axis-arrow"
            viewBox="0 0 15 8"
            refX="13" refY="4"
            markerWidth="12" markerHeight="6.4"
            orient="auto"
            markerUnits="userSpaceOnUse">
      <path d="M 3 0 L 15 4 L 3 8 L 7 4 Z" fill="black" />
    </marker>
  </defs>

  <!-- сетка: x от -4 до 7, y от -2 до 11 -->
  <g stroke="#d1d5db" stroke-width="0.5" shape-rendering="crispEdges">
    <line x1="30.769" y1="10.000" x2="30.769" y2="210.000" />
    <line x1="46.154" y1="10.000" x2="46.154" y2="210.000" />
    <line x1="61.538" y1="10.000" x2="61.538" y2="210.000" />
    <line x1="76.923" y1="10.000" x2="76.923" y2="210.000" />
    <line x1="92.308" y1="10.000" x2="92.308" y2="210.000" />
    <line x1="107.692" y1="10.000" x2="107.692" y2="210.000" />
    <line x1="123.077" y1="10.000" x2="123.077" y2="210.000" />
    <line x1="138.462" y1="10.000" x2="138.462" y2="210.000" />
    <line x1="153.846" y1="10.000" x2="153.846" y2="210.000" />
    <line x1="169.231" y1="10.000" x2="169.231" y2="210.000" />
    <line x1="15.385" y1="194.615" x2="184.615" y2="194.615" />
    <line x1="15.385" y1="179.231" x2="184.615" y2="179.231" />
    <line x1="15.385" y1="163.846" x2="184.615" y2="163.846" />
    <line x1="15.385" y1="148.462" x2="184.615" y2="148.462" />
    <line x1="15.385" y1="133.077" x2="184.615" y2="133.077" />
    <line x1="15.385" y1="117.692" x2="184.615" y2="117.692" />
    <line x1="15.385" y1="102.308" x2="184.615" y2="102.308" />
    <line x1="15.385" y1="86.923" x2="184.615" y2="86.923" />
    <line x1="15.385" y1="71.538" x2="184.615" y2="71.538" />
    <line x1="15.385" y1="56.154" x2="184.615" y2="56.154" />
    <line x1="15.385" y1="40.769" x2="184.615" y2="40.769" />
    <line x1="15.385" y1="25.385" x2="184.615" y2="25.385" />
  </g>

  <!-- оси -->
  <g stroke="#111827" stroke-width="1.25">
    <line x1="15.385" y1="179.231" x2="184.615" y2="179.231" />
    <line x1="76.923" y1="210.000" x2="76.923" y2="10.000" marker-end="url(#axis-arrow)" />
  </g>

  <!-- подписи осей и делений -->
  <g font-family="sans-serif" font-size="11" fill="#111827">
    <text x="72.923" y="192.231" text-anchor="end"
          font-size="13" font-style="italic"
          font-family="Georgia, 'Times New Roman', serif">O</text>

    <rect x="88.808" y="182.231" width="7" height="12" fill="white" />
    <text x="92.308" y="193.231" text-anchor="middle" font-size="13"
          font-family="'Times New Roman', serif"
          font-weight="300">1</text>

    <text x="69.923" y="167.846" text-anchor="end" font-size="13"
          font-family="'Times New Roman', serif"
          font-weight="300">1</text>

    <text x="181.615" y="192.231" text-anchor="start"
          font-family="Georgia, 'Times New Roman', serif"
          font-style="italic" font-size="13">x</text>

    <text x="73.923" y="13.000" text-anchor="end"
          font-family="Georgia, 'Times New Roman', serif"
          font-style="italic" font-size="13">y</text>
  </g>

  <!-- интерполяция (PCHIP) -->
  <g stroke="#2d70b3" stroke-width="1.25" fill="none"
     stroke-linecap="round" stroke-linejoin="round">
    <polyline points="
      56.733,17.692
      56.809,19.077
      56.884,20.468
      56.959,21.858
      57.034,23.241
      57.109,24.609
      57.184,25.958
      57.260,27.293
      57.335,28.618
      57.410,29.931
      57.485,31.233
      57.560,32.522
      57.635,33.800
      57.711,35.068
      57.786,36.325
      57.861,37.571
      57.936,38.806
      58.011,40.029
      58.086,41.242
      58.162,42.444
      58.237,43.637
      58.312,44.819
      58.387,45.991
      58.462,47.153
      58.537,48.303
      58.613,49.444
      58.688,50.575
      58.763,51.697
      58.838,52.809
      58.913,53.911
      58.988,55.003
      59.064,56.085
      59.139,57.158
      59.214,58.222
      59.289,59.277
      59.364,60.323
      59.439,61.360
      59.515,62.387
      59.590,63.405
      59.665,64.414
      59.740,65.414
      59.815,66.407
      59.890,67.390
      59.966,68.366
      60.041,69.332
      60.116,70.290
      60.191,71.239
      60.266,72.180
      60.341,73.112
      60.417,74.037
      60.492,74.955
      60.567,75.864
      60.642,76.766
      60.717,77.659
      60.792,78.544
      60.868,79.421
      60.943,80.290
      61.018,81.152
      61.093,82.007
      61.168,82.855
      61.243,83.696
      61.319,84.529
      61.394,85.355
      61.469,86.173
      61.544,86.983
      61.619,87.786
      61.694,88.582
      61.770,89.373
      61.845,90.157
      61.920,90.934
      61.995,91.704
      62.070,92.467
      62.145,93.224
      62.220,93.973
      62.296,94.715
      62.371,95.450
      62.446,96.180
      62.521,96.904
      62.596,97.622
      62.671,98.334
      62.747,99.040
      62.822,99.740
      62.897,100.433
      62.972,101.120
      63.047,101.800
      63.122,102.473
      63.198,103.141
      63.273,103.804
      63.348,104.462
      63.423,105.114
      63.498,105.761
      63.573,106.402
      63.649,107.037
      63.724,107.667
      63.799,108.291
      63.874,108.909
      63.949,109.522
      64.024,110.128
      64.100,110.729
      64.175,111.325
      64.250,111.917
      64.325,112.504
      64.400,113.086
      64.475,113.664
      64.551,114.236
      64.626,114.804
      64.701,115.366
      64.776,115.923
      64.851,116.475
      64.926,117.021
      65.002,117.562
      65.077,118.097
      65.152,118.629
      65.227,119.157
      65.302,119.680
      65.377,120.200
      65.453,120.715
      65.528,121.226
      65.603,121.733
      65.678,122.235
      65.753,122.733
      65.828,123.226
      65.904,123.714
      65.979,124.198
      66.054,124.677
      66.129,125.151
      66.204,125.620
      66.279,126.086
      66.355,126.548
      66.430,127.007
      66.505,127.462
      66.580,127.914
      66.655,128.362
      66.730,128.807
      66.806,129.248
      66.881,129.685
      66.956,130.118
      67.031,130.547
      67.106,130.972
      67.181,131.393
      67.257,131.810
      67.332,132.222
      67.407,132.631
      67.482,133.034
      67.557,133.435
      67.632,133.832
      67.708,134.227
      67.783,134.619
      67.858,135.008
      67.933,135.394
      68.008,135.777
      68.083,136.157
      68.159,136.533
      68.234,136.907
      68.309,137.278
      68.384,137.645
      68.459,138.009
      68.534,138.369
      68.610,138.726
      68.685,139.079
      68.760,139.429
      68.835,139.775
      68.910,140.118
      68.985,140.457
      69.061,140.792
      69.136,141.124
      69.211,141.454
      69.286,141.782
      69.361,142.107
      69.436,142.431
      69.512,142.752
      69.587,143.070
      69.662,143.387
      69.737,143.700
      69.812,144.012
      69.887,144.321
      69.963,144.627
      70.038,144.930
      70.113,145.231
      70.188,145.529
      70.263,145.825
      70.338,146.117
      70.414,146.407
      70.489,146.693
      70.564,146.977
      70.639,147.258
      70.714,147.535
      70.789,147.810
      70.865,148.081
      70.940,148.349
      71.015,148.614
      71.090,148.878
      71.165,149.140
      71.240,149.400
      71.316,149.659
      71.391,149.916
      71.466,150.171
      71.541,150.425
      71.616,150.677
      71.691,150.927
      71.767,151.176
      71.842,151.422
      71.917,151.667
      71.992,151.909
      72.067,152.150
      72.142,152.388
      72.218,152.625
      72.293,152.859
      72.368,153.092
      72.443,153.322
      72.518,153.550
      72.593,153.775
      72.669,153.999
      72.744,154.220
      72.819,154.438
      72.894,154.655
      72.969,154.868
      73.044,155.080
      73.119,155.289
      73.195,155.495
      73.270,155.698
      73.345,155.899
      73.420,156.098
      73.495,156.294
      73.570,156.488
      73.646,156.682
      73.721,156.874
      73.796,157.065
      73.871,157.255
      73.946,157.444
      74.021,157.631
      74.097,157.817
      74.172,158.002
      74.247,158.186
      74.322,158.368
      74.397,158.549
      74.472,158.729
      74.548,158.907
      74.623,159.085
      74.698,159.261
      74.773,159.435
      74.848,159.608
      74.923,159.780
      74.999,159.951
      75.074,160.120
      75.149,160.288
      75.224,160.455
      75.299,160.620
      75.374,160.784
      75.450,160.946
      75.525,161.108
      75.600,161.267
      75.675,161.426
      75.750,161.583
      75.825,161.738
      75.901,161.892
      75.976,162.045
      76.051,162.196
      76.126,162.346
      76.201,162.495
      76.276,162.642
      76.352,162.787
      76.427,162.932
      76.502,163.074
      76.577,163.215
      76.652,163.355
      76.727,163.493
      76.803,163.630
      76.878,163.765
      76.953,163.899
      77.028,164.032
      77.103,164.164
      77.178,164.294
      77.254,164.424
      77.329,164.552
      77.404,164.680
      77.479,164.807
      77.554,164.932
      77.629,165.057
      77.705,165.181
      77.780,165.303
      77.855,165.425
      77.930,165.545
      78.005,165.665
      78.080,165.784
      78.156,165.901
      78.231,166.018
      78.306,166.134
      78.381,166.248
      78.456,166.362
      78.531,166.475
      78.607,166.586
      78.682,166.697
      78.757,166.807
      78.832,166.916
      78.907,167.024
      78.982,167.130
      79.058,167.236
      79.133,167.341
      79.208,167.445
      79.283,167.548
      79.358,167.650
      79.433,167.751
      79.509,167.851
      79.584,167.950
      79.659,168.048
      79.734,168.145
      79.809,168.242
      79.884,168.337
      79.960,168.431
      80.035,168.525
      80.110,168.617
      80.185,168.709
      80.260,168.799
      80.335,168.889
      80.411,168.979
      80.486,169.067
      80.561,169.156
      80.636,169.243
      80.711,169.330
      80.786,169.416
      80.862,169.501
      80.937,169.586
      81.012,169.670
      81.087,169.753
      81.162,169.836
      81.237,169.918
      81.313,170.000
      81.388,170.080
      81.463,170.161
      81.538,170.240
      81.613,170.319
      81.688,170.397
      81.764,170.474
      81.839,170.551
      81.914,170.627
      81.989,170.703
      82.064,170.777
      82.139,170.851
      82.215,170.925
      82.290,170.998
      82.365,171.070
      82.440,171.141
      82.515,171.212
      82.590,171.282
      82.666,171.351
      82.741,171.420
      82.816,171.488
      82.891,171.556
      82.966,171.623
      83.041,171.689
      83.117,171.754
      83.192,171.819
      83.267,171.883
      83.342,171.947
      83.417,172.009
      83.492,172.072
      83.568,172.133
      83.643,172.195
      83.718,172.256
      83.793,172.316
      83.868,172.376
      83.943,172.436
      84.018,172.495
      84.094,172.553
      84.169,172.611
      84.244,172.669
      84.319,172.726
      84.394,172.783
      84.469,172.840
      84.545,172.895
      84.620,172.951
      84.695,173.006
      84.770,173.060
      84.845,173.114
      84.920,173.168
      84.996,173.221
      85.071,173.274
      85.146,173.326
      85.221,173.378
      85.296,173.429
      85.371,173.480
      85.447,173.530
      85.522,173.580
      85.597,173.630
      85.672,173.679
      85.747,173.727
      85.822,173.775
      85.898,173.823
      85.973,173.870
      86.048,173.917
      86.123,173.963
      86.198,174.009
      86.273,174.055
      86.349,174.100
      86.424,174.144
      86.499,174.188
      86.574,174.232
      86.649,174.275
      86.724,174.317
      86.800,174.360
      86.875,174.402
      86.950,174.444
      87.025,174.485
      87.100,174.526
      87.175,174.567
      87.251,174.608
      87.326,174.648
      87.401,174.688
      87.476,174.727
      87.551,174.767
      87.626,174.806
      87.702,174.844
      87.777,174.883
      87.852,174.921
      87.927,174.958
      88.002,174.996
      88.077,175.033
      88.153,175.070
      88.228,175.106
      88.303,175.142
      88.378,175.178
      88.453,175.214
      88.528,175.249
      88.604,175.284
      88.679,175.318
      88.754,175.353
      88.829,175.387
      88.904,175.420
      88.979,175.454
      89.055,175.487
      89.130,175.519
      89.205,175.552
      89.280,175.584
      89.355,175.616
      89.430,175.647
      89.506,175.678
      89.581,175.709
      89.656,175.740
      89.731,175.770
      89.806,175.800
      89.881,175.829
      89.957,175.859
      90.032,175.888
      90.107,175.917
      90.182,175.945
      90.257,175.974
      90.332,176.002
      90.408,176.030
      90.483,176.058
      90.558,176.086
      90.633,176.113
      90.708,176.140
      90.783,176.167
      90.859,176.194
      90.934,176.220
      91.009,176.247
      91.084,176.273
      91.159,176.299
      91.234,176.324
      91.310,176.350
      91.385,176.375
      91.460,176.400
      91.535,176.425
      91.610,176.449
      91.685,176.474
      91.761,176.498
      91.836,176.522
      91.911,176.546
      91.986,176.569
      92.061,176.593
      92.136,176.616
      92.212,176.639
      92.287,176.661
      92.362,176.684
      92.437,176.706
      92.512,176.728
      92.587,176.750
      92.663,176.771
      92.738,176.793
      92.813,176.814
      92.888,176.835
      92.963,176.856
      93.038,176.876
      93.114,176.896
      93.189,176.916
      93.264,176.936
      93.339,176.956
      93.414,176.976
      93.489,176.996
      93.565,177.015
      93.640,177.034
      93.715,177.053
      93.790,177.072
      93.865,177.091
      93.940,177.110
      94.016,177.128
      94.091,177.146
      94.166,177.165
      94.241,177.183
      94.316,177.201
      94.391,177.218
      94.467,177.236
      94.542,177.254
      94.617,177.271
      94.692,177.288
      94.767,177.305
      94.842,177.322
      94.917,177.339
      94.993,177.355
      95.068,177.372
      95.143,177.388
      95.218,177.404
      95.293,177.420
      95.368,177.436
      95.444,177.452
      95.519,177.467
      95.594,177.483
      95.669,177.498
      95.744,177.513
      95.819,177.528
      95.895,177.543
      95.970,177.558
      96.045,177.572
      96.120,177.586
      96.195,177.601
      96.270,177.615
      96.346,177.629
      96.421,177.642
      96.496,177.656
      96.571,177.670
      96.646,177.683
      96.721,177.697
      96.797,177.710
      96.872,177.723
      96.947,177.736
      97.022,177.749
      97.097,177.762
      97.172,177.775
      97.248,177.788
      97.323,177.800
      97.398,177.813
      97.473,177.825
      97.548,177.837
      97.623,177.850
      97.699,177.862
      97.774,177.874
      97.849,177.886
      97.924,177.897
      97.999,177.909
      98.074,177.921
      98.150,177.932
      98.225,177.944
      98.300,177.955
      98.375,177.966
      98.450,177.977
      98.525,177.988
      98.601,177.999
      98.676,178.010
      98.751,178.020
      98.826,178.031
      98.901,178.042
      98.976,178.052
      99.052,178.062
      99.127,178.072
      99.202,178.082
      99.277,178.092
      99.352,178.102
      99.427,178.112
      99.503,178.122
      99.578,178.131
      99.653,178.141
      99.728,178.150
      99.803,178.159
      99.878,178.169
      99.954,178.178
      100.029,178.187
      100.104,178.196
      100.179,178.205
      100.254,178.214
      100.329,178.223
      100.405,178.232
      100.480,178.240
      100.555,178.249
      100.630,178.258
      100.705,178.266
      100.780,178.275
      100.856,178.283
      100.931,178.291
      101.006,178.299
      101.081,178.308
      101.156,178.316
      101.231,178.324
      101.307,178.332
      101.382,178.340
      101.457,178.347
      101.532,178.355
      101.607,178.363
      101.682,178.370
      101.758,178.378
      101.833,178.385
      101.908,178.393
      101.983,178.400
      102.058,178.407
      102.133,178.415
      102.209,178.422
      102.284,178.429
      102.359,178.436
      102.434,178.443
      102.509,178.449
      102.584,178.456
      102.660,178.463
      102.735,178.470
      102.810,178.476
      102.885,178.483
      102.960,178.489
      103.035,178.496
      103.111,178.502
      103.186,178.508
      103.261,178.514
      103.336,178.521
      103.411,178.527
      103.486,178.533
      103.562,178.539
      103.637,178.545
      103.712,178.551
      103.787,178.557
      103.862,178.563
      103.937,178.569
      104.013,178.574
      104.088,178.580
      104.163,178.586
      104.238,178.592
      104.313,178.597
      104.388,178.603
      104.464,178.608
      104.539,178.614
      104.614,178.619
      104.689,178.624
      104.764,178.630
      104.839,178.635
      104.915,178.640
      104.990,178.645
      105.065,178.651
      105.140,178.656
      105.215,178.661
      105.290,178.666
      105.366,178.671
      105.441,178.675
      105.516,178.680
      105.591,178.685
      105.666,178.690
      105.741,178.695
      105.816,178.699
      105.892,178.704
      105.967,178.708
      106.042,178.713
      106.117,178.717
      106.192,178.722
      106.267,178.726
      106.343,178.731
      106.418,178.735
      106.493,178.739
      106.568,178.743
      106.643,178.748
      106.718,178.752
      106.794,178.756
      106.869,178.760
      106.944,178.764
      107.019,178.768
      107.094,178.772
      107.169,178.776
      107.245,178.780
      107.320,178.784
      107.395,178.788
      107.470,178.792
      107.545,178.796
      107.620,178.800
      107.696,178.804
      107.771,178.807
      107.846,178.811
      107.921,178.815
      107.996,178.818
      108.071,178.822
      108.147,178.826
      108.222,178.829
      108.297,178.833
      108.372,178.836
      108.447,178.840
      108.522,178.843
      108.598,178.846
      108.673,178.850
      108.748,178.853
      108.823,178.856
      108.898,178.860
      108.973,178.863
      109.049,178.866
      109.124,178.869
      109.199,178.872
      109.274,178.875
      109.349,178.878
      109.424,178.881
      109.500,178.884
      109.575,178.887
      109.650,178.890
      109.725,178.893
      109.800,178.896
      109.875,178.899
      109.951,178.902
      110.026,178.905
      110.101,178.908
      110.176,178.911
      110.251,178.913
      110.326,178.916
      110.402,178.919
      110.477,178.922
      110.552,178.924
      110.627,178.927
      110.702,178.930
      110.777,178.932
      110.853,178.935
      110.928,178.938
      111.003,178.940
      111.078,178.943
      111.153,178.945
      111.228,178.948
      111.304,178.950
      111.379,178.953
      111.454,178.955
      111.529,178.957
      111.604,178.960
      111.679,178.962
      111.755,178.965
      111.830,178.967
      111.905,178.969
      111.980,178.971
      112.055,178.974
      112.130,178.976
      112.206,178.978
      112.281,178.980
      112.356,178.983
      112.431,178.985
      112.506,178.987
      112.581,178.989
      112.657,178.991
      112.732,178.993
      112.807,178.995
      112.882,178.997
      112.957,178.999
      113.032,179.001
      113.108,179.003
      113.183,179.005
      113.258,179.007
      113.333,179.009
      113.408,179.011
      113.483,179.013
      113.559,179.015
      113.634,179.017
      113.709,179.019
      113.784,179.020
      113.859,179.022
      113.934,179.024
      114.010,179.026
      114.085,179.028
      114.160,179.030
      114.235,179.031
      114.310,179.033
      114.385,179.035
      114.461,179.036
      114.536,179.038
      114.611,179.040
      114.686,179.042
      114.761,179.043
      114.836,179.045
      114.912,179.046
      114.987,179.048
      115.062,179.050
      115.137,179.051
      115.212,179.053
      115.287,179.054
      115.363,179.056
      115.438,179.057
      115.513,179.059
      115.588,179.060
      115.663,179.062
      115.738,179.063
      115.814,179.065
      115.889,179.066
      115.964,179.068
      116.039,179.069
      116.114,179.070
      116.189,179.072
      116.265,179.073
      116.340,179.075
      116.415,179.076
      116.490,179.077
      116.565,179.079
      116.640,179.080
      116.715,179.081
      116.791,179.083
      116.866,179.084
      116.941,179.085
      117.016,179.086
      117.091,179.088
      117.166,179.089
      117.242,179.090
      117.317,179.091
      117.392,179.093
      117.467,179.094
      117.542,179.095
      117.617,179.096
      117.693,179.097
      117.768,179.099
      117.843,179.100
      117.918,179.101
      117.993,179.102
      118.068,179.103
      118.144,179.104
      118.219,179.105
      118.294,179.106
      118.369,179.108
      118.444,179.109
      118.519,179.110
      118.595,179.111
      118.670,179.112
      118.745,179.113
      118.820,179.114
      118.895,179.115
      118.970,179.116
      119.046,179.117
      119.121,179.118
      119.196,179.119
      119.271,179.120
      119.346,179.121
      119.421,179.122
      119.497,179.123
      119.572,179.124
      119.647,179.125
      119.722,179.125
      119.797,179.126
      119.872,179.127
      119.948,179.128
      120.023,179.129
      120.098,179.130
      120.173,179.131
      120.248,179.132
      120.323,179.133
      120.399,179.133
      120.474,179.134
      120.549,179.135
      120.624,179.136
      120.699,179.137
      120.774,179.138
      120.850,179.138
      120.925,179.139
      121.000,179.140
      121.075,179.141
      121.150,179.142
      121.225,179.142
      121.301,179.143
      121.376,179.144
      121.451,179.145
      121.526,179.145
      121.601,179.146
      121.676,179.147
      121.752,179.148
      121.827,179.148
      121.902,179.149
      121.977,179.150
      122.052,179.151
      122.127,179.151
      122.203,179.152
      122.278,179.153
      122.353,179.153
      122.428,179.154
      122.503,179.155
      122.578,179.155
      122.654,179.156
      122.729,179.157
      122.804,179.157
      122.879,179.158
      122.954,179.158
      123.029,179.159
      123.105,179.160
      123.180,179.160
      123.255,179.161
      123.330,179.162
      123.405,179.162
      123.480,179.163
      123.556,179.163
      123.631,179.164
      123.706,179.165
      123.781,179.165
      123.856,179.166
      123.931,179.166
      124.007,179.167
      124.082,179.167
      124.157,179.168
      124.232,179.169
      124.307,179.169
      124.382,179.170
      124.458,179.170
      124.533,179.171
      124.608,179.171
      124.683,179.172
      124.758,179.172
      124.833,179.173
      124.909,179.173
      124.984,179.174
      125.059,179.174
      125.134,179.175
      125.209,179.175
      125.284,179.176
      125.360,179.176
      125.435,179.177
      125.510,179.177
      125.585,179.178
      125.660,179.178
      125.735,179.178
      125.811,179.179
      125.886,179.179
      125.961,179.180
      126.036,179.180
      126.111,179.181
      126.186,179.181
      126.262,179.182
      126.337,179.182
      126.412,179.182
      126.487,179.183
      126.562,179.183
      126.637,179.184
      126.713,179.184
      126.788,179.185
      126.863,179.185
      126.938,179.185
      127.013,179.186
      127.088,179.186
      127.164,179.187
      127.239,179.187
      127.314,179.187
      127.389,179.188
      127.464,179.188
      127.539,179.188
      127.614,179.189
      127.690,179.189
      127.765,179.190
      127.840,179.190
      127.915,179.190
      127.990,179.191
      128.065,179.191
      128.141,179.191
      128.216,179.192
      128.291,179.192
      128.366,179.192
      128.441,179.193
      128.516,179.193
      128.592,179.193
      128.667,179.194
      128.742,179.194
      128.817,179.194
      128.892,179.195
      128.967,179.195
      129.043,179.195
      129.118,179.196
      129.193,179.196
      129.268,179.196
      129.343,179.196
      129.418,179.197
      129.494,179.197
      129.569,179.197
      129.644,179.198
      129.719,179.198
      129.794,179.198
      129.869,179.198
      129.945,179.199
      130.020,179.199
      130.095,179.199
      130.170,179.200
      130.245,179.200
      130.320,179.200
      130.396,179.200
      130.471,179.201
      130.546,179.201
      130.621,179.201
      130.696,179.201
      130.771,179.202
      130.847,179.202
      130.922,179.202
      130.997,179.202
      131.072,179.203
      131.147,179.203
      131.222,179.203
      131.298,179.203
      131.373,179.204
      131.448,179.204
      131.523,179.204
      131.598,179.204
      131.673,179.205
      131.749,179.205
      131.824,179.205
      131.899,179.205
      131.974,179.205
      132.049,179.206
      132.124,179.206
      132.200,179.206
      132.275,179.206
      132.350,179.207
      132.425,179.207
      132.500,179.207
      132.575,179.207
      132.651,179.207
      132.726,179.208
      132.801,179.208
      132.876,179.208
      132.951,179.208
      133.026,179.208
      133.102,179.209
      133.177,179.209
      133.252,179.209
      133.327,179.209
      133.402,179.209
      133.477,179.210
      133.553,179.210
      133.628,179.210
      133.703,179.210
      133.778,179.210
      133.853,179.210
      133.928,179.211
      134.004,179.211
      134.079,179.211
      134.154,179.211
      134.229,179.211
      134.304,179.212
      134.379,179.212
      134.455,179.212
      134.530,179.212
      134.605,179.212
      134.680,179.212
      134.755,179.212
      134.830,179.213
      134.906,179.213
      134.981,179.213
      135.056,179.213
      135.131,179.213
      135.206,179.213
      135.281,179.214
      135.357,179.214
      135.432,179.214
      135.507,179.214
      135.582,179.214
      135.657,179.214
      135.732,179.214
      135.808,179.215
      135.883,179.215
      135.958,179.215
      136.033,179.215
      136.108,179.215
      136.183,179.215
      136.259,179.215
      136.334,179.216
      136.409,179.216
      136.484,179.216
      136.559,179.216
      136.634,179.216
      136.710,179.216
      136.785,179.216
      136.860,179.217
      136.935,179.217
      137.010,179.217
      137.085,179.217
      137.161,179.217
      137.236,179.217
      137.311,179.217
      137.386,179.217
      137.461,179.218
      137.536,179.218
      137.612,179.218
      137.687,179.218
      137.762,179.218
      137.837,179.218
      137.912,179.218
      137.987,179.218
      138.063,179.218
      138.138,179.218
      138.213,179.219
      138.288,179.219
      138.363,179.219
      138.438,179.219
      138.513,179.219
      138.589,179.219
      138.664,179.219
      138.739,179.219
      138.814,179.219
      138.889,179.219
      138.964,179.219
      139.040,179.220
      139.115,179.220
      139.190,179.220
      139.265,179.220
      139.340,179.220
      139.415,179.220
      139.491,179.220
      139.566,179.220
      139.641,179.220
      139.716,179.220
      139.791,179.220
      139.866,179.220
      139.942,179.221
      140.017,179.221
      140.092,179.221
      140.167,179.221
      140.242,179.221
      140.317,179.221
      140.393,179.221
      140.468,179.221
      140.543,179.221
      140.618,179.221
      140.693,179.221
      140.768,179.221
      140.844,179.222
      140.919,179.222
      140.994,179.222
      141.069,179.222
      141.144,179.222
      141.219,179.222
      141.295,179.222
      141.370,179.222
      141.445,179.222
      141.520,179.222
      141.595,179.222
      141.670,179.222
      141.746,179.222
      141.821,179.223
      141.896,179.223
      141.971,179.223
      142.046,179.223
      142.121,179.223
      142.197,179.223
      142.272,179.223
      142.347,179.223
      142.422,179.223
      142.497,179.223
      142.572,179.223
      142.648,179.223
      142.723,179.223
      142.798,179.223
      142.873,179.223
      142.948,179.224
      143.023,179.224
      143.099,179.224
      143.174,179.224
      143.249,179.224
      143.324,179.224
      143.399,179.224
      143.474,179.224
      143.550,179.224
      143.625,179.224
      143.700,179.224
      143.775,179.224
      143.850,179.224
      143.925,179.224
      144.001,179.224
      144.076,179.224
      144.151,179.225
      144.226,179.225
      144.301,179.225
      144.376,179.225
      144.452,179.225
      144.527,179.225
      144.602,179.225
      144.677,179.225
      144.752,179.225
      144.827,179.225
      144.903,179.225
      144.978,179.225
      145.053,179.225
      145.128,179.225
      145.203,179.225
      145.278,179.225
      145.354,179.225
      145.429,179.225
      145.504,179.226
      145.579,179.226
      145.654,179.226
      145.729,179.226
      145.805,179.226
      145.880,179.226
      145.955,179.226
      146.030,179.226
      146.105,179.226
      146.180,179.226
      146.256,179.226
      146.331,179.226
      146.406,179.226
      146.481,179.226
      146.556,179.226
      146.631,179.226
      146.707,179.226
      146.782,179.226
      146.857,179.226
      146.932,179.226
      147.007,179.226
      147.082,179.226
      147.158,179.226
      147.233,179.227
      147.308,179.227
      147.383,179.227
      147.458,179.227
      147.533,179.227
      147.609,179.227
      147.684,179.227
      147.759,179.227
      147.834,179.227
      147.909,179.227
      147.984,179.227
      148.060,179.227
      148.135,179.227
      148.210,179.227
      148.285,179.227
      148.360,179.227
      148.435,179.227
      148.511,179.227
      148.586,179.227
      148.661,179.227
      148.736,179.227
      148.811,179.227
      148.886,179.227
      148.962,179.227
      149.037,179.227
      149.112,179.227
      149.187,179.227
      149.262,179.227
      149.337,179.227
      149.412,179.227
      149.488,179.227
      149.563,179.227
      149.638,179.227
      149.713,179.228
      149.788,179.228
      149.863,179.228
      149.939,179.228
      150.014,179.228
      150.089,179.228
      150.164,179.228
      150.239,179.228
      150.314,179.228
      150.390,179.228
      150.465,179.228
      150.540,179.228
      150.615,179.228
      150.690,179.228
      150.765,179.228
      150.841,179.228
      150.916,179.228
      150.991,179.228
      151.066,179.228
      151.141,179.228
      151.216,179.228
      151.292,179.228
      151.367,179.228
      151.442,179.228
      151.517,179.228
      151.592,179.228
      151.667,179.228
      151.743,179.228
      151.818,179.228
      151.893,179.228
      151.968,179.228
      152.043,179.228
      152.118,179.228
      152.194,179.228
      152.269,179.228
      152.344,179.228
      152.419,179.228
      152.494,179.228
      152.569,179.228
      152.645,179.228
      152.720,179.228
      152.795,179.229
      152.870,179.229
      152.945,179.229
      153.020,179.229
      153.096,179.229
      153.171,179.229
      153.246,179.229
      153.321,179.229
      153.396,179.229
      153.471,179.229
      153.547,179.229
      153.622,179.229
      153.697,179.229
      153.772,179.229
      153.847,179.229
      153.922,179.229
      153.998,179.229
      154.073,179.229
      154.148,179.229
      154.223,179.229
      154.298,179.229
      154.373,179.229
      154.449,179.229
      154.524,179.229
      154.599,179.229
      154.674,179.229
      154.749,179.229
      154.824,179.229
      154.900,179.229
      154.975,179.229
      155.050,179.229
      155.125,179.229
      155.200,179.229
      155.275,179.229
      155.351,179.229
      155.426,179.229
      155.501,179.229
      155.576,179.229
      155.651,179.229
      155.726,179.229
      155.802,179.229
      155.877,179.229
      155.952,179.229
      156.027,179.229
      156.102,179.229
      156.177,179.229
      156.253,179.229
      156.328,179.229
      156.403,179.229
      156.478,179.229
      156.553,179.229
      156.628,179.229
      156.704,179.229
      156.779,179.229
      156.854,179.229
      156.929,179.229
      157.004,179.229
      157.079,179.229
      157.155,179.229
      157.230,179.229
      157.305,179.229
      157.380,179.229
      157.455,179.229
      157.530,179.229
      157.606,179.229
      157.681,179.230
      157.756,179.230
      157.831,179.230
      157.906,179.230
      157.981,179.230
      158.057,179.230
      158.132,179.230
      158.207,179.230
      158.282,179.230
      158.357,179.230
      158.432,179.230
      158.508,179.230
      158.583,179.230
      158.658,179.230
      158.733,179.230
      158.808,179.230
      158.883,179.230
      158.959,179.230
      159.034,179.230
      159.109,179.230
      159.184,179.230
      159.259,179.230
      159.334,179.230
      159.410,179.230
      159.485,179.230
      159.560,179.230
      159.635,179.230
      159.710,179.230
      159.785,179.230
      159.861,179.230
      159.936,179.230
      160.011,179.230
      160.086,179.230
      160.161,179.230
      160.236,179.230
      160.311,179.230
      160.387,179.230
      160.462,179.230
      160.537,179.230
      160.612,179.230
      160.687,179.230
      160.762,179.230
      160.838,179.230
      160.913,179.230
      160.988,179.230
      161.063,179.230
      161.138,179.230
      161.213,179.230
      161.289,179.230
      161.364,179.230
      161.439,179.230
      161.514,179.230
      161.589,179.230
      161.664,179.230
      161.740,179.230
      161.815,179.230
      161.890,179.230
      161.965,179.230
      162.040,179.230
      162.115,179.230
      162.191,179.230
      162.266,179.230
      162.341,179.230
      162.416,179.230
      162.491,179.230
      162.566,179.230
      162.642,179.230
      162.717,179.230
      162.792,179.230
      162.867,179.230
      162.942,179.230
      163.017,179.230
      163.093,179.230
      163.168,179.230
      163.243,179.230
      163.318,179.230
      163.393,179.230
      163.468,179.230
      163.544,179.230
      163.619,179.230
      163.694,179.230
      163.769,179.230
      163.844,179.230
      163.919,179.230
      163.995,179.230
      164.070,179.230
      164.145,179.230
      164.220,179.230
      164.295,179.230
      164.370,179.230
      164.446,179.230
      164.521,179.230
      164.596,179.230
      164.671,179.230
      164.746,179.230
      164.821,179.230
      164.897,179.230
      164.972,179.230
      165.047,179.230
      165.122,179.230
      165.197,179.230
      165.272,179.230
      165.348,179.230
      165.423,179.230
      165.498,179.230
      165.573,179.230
      165.648,179.230
      165.723,179.230
      165.799,179.230
      165.874,179.230
      165.949,179.230
      166.024,179.230
      166.099,179.230
      166.174,179.230
      166.250,179.230
      166.325,179.230
      166.400,179.230
      166.475,179.230
      166.550,179.230
      166.625,179.230
      166.701,179.230
      166.776,179.230
      166.851,179.230
      166.926,179.230
      167.001,179.230
      167.076,179.230
      167.152,179.230
      167.227,179.230
      167.302,179.230
      167.377,179.230
      167.452,179.230
      167.527,179.230
      167.603,179.230
      167.678,179.230
      167.753,179.230
      167.828,179.230
      167.903,179.230
      167.978,179.230
      168.054,179.230
      168.129,179.230
      168.204,179.230
      168.279,179.230
      168.354,179.230
      168.429,179.230
      168.505,179.230
      168.580,179.230
      168.655,179.230
      168.730,179.230
      168.805,179.230
      168.880,179.230
      168.956,179.230
      169.031,179.230
      169.106,179.230
      169.181,179.230
      169.256,179.230
      169.331,179.230
      169.407,179.230
      169.482,179.230
      169.557,179.230
      169.632,179.230
      169.707,179.230
      169.782,179.230
      169.858,179.230
      169.933,179.230
      170.008,179.230
      170.083,179.230
      170.158,179.230
      170.233,179.230
      170.309,179.230
      170.384,179.230
      170.459,179.230
      170.534,179.230
      170.609,179.230
      170.684,179.230
      170.760,179.230
      170.835,179.230
      170.910,179.230
      170.985,179.230
      171.060,179.230
      171.135,179.230
      171.210,179.230
      171.286,179.230
      171.361,179.230
      171.436,179.230
      171.511,179.230
      171.586,179.230
      171.661,179.230
      171.737,179.231
      171.812,179.231
      171.887,179.231
      171.962,179.231
      172.037,179.231
      172.112,179.231
      172.188,179.231
      172.263,179.231
      172.338,179.231
      172.413,179.231
      172.488,179.231
      172.563,179.231
      172.639,179.231
      172.714,179.231
      172.789,179.231
      172.864,179.231
      172.939,179.231
      173.014,179.231
      173.090,179.231
      173.165,179.231
      173.240,179.231
      173.315,179.231
      173.390,179.231
      173.465,179.231
      173.541,179.231
      173.616,179.231
      173.691,179.231
      173.766,179.231
      173.841,179.231
      173.916,179.231
      173.992,179.231
      174.067,179.231
      174.142,179.231
      174.217,179.231
      174.292,179.231
      174.367,179.231
      174.443,179.231
      174.518,179.231
      174.593,179.231
      174.668,179.231
      174.743,179.231
      174.818,179.231
      174.894,179.231
      174.969,179.231
      175.044,179.231
      175.119,179.231
      175.194,179.231
      175.269,179.231
      175.345,179.231
      175.420,179.231
      175.495,179.231
      175.570,179.231
      175.645,179.231
      175.720,179.231
      175.796,179.231
      175.871,179.231
      175.946,179.231
      176.021,179.231
      176.096,179.231
      176.171,179.231
      176.247,179.231
      176.322,179.231
      176.397,179.231
      176.472,179.231
      176.547,179.231
      176.622,179.231
      176.698,179.231
      176.773,179.231
      176.848,179.231
      176.923,179.231
    " />
  </g>

  <!-- точка (-1;6) -->
  <circle cx="61.538" cy="86.923" r="2.2" fill="#2d70b3" stroke="#2d70b3" stroke-width="0.6" />

  <!-- стрелка оси x поверх графика -->
  <g stroke="#111827" stroke-width="1.25">
    <line x1="169.615" y1="179.231" x2="184.615" y2="179.231" marker-end="url(#axis-arrow)" />
  </g>

  <!-- подпись -->
  <text x="92.308" y="160.846"
        font-family="Georgia, 'Times New Roman', serif"
        font-style="italic"
        font-size="13"
        fill="#2d70b3">f(x)</text>
</svg>
