<svg xmlns="http://www.w3.org/2000/svg" width="220" height="220" viewBox="0 0 220 220">
  <rect x="0" y="0" width="220" height="220" fill="white" />

  <defs>
    <marker id="axis-arrow"
            viewBox="0 0 15 8"
            refX="13" refY="4"
            markerWidth="12" markerHeight="6.4"
            orient="auto"
            markerUnits="userSpaceOnUse">
      <path d="M 3 0 L 15 4 L 3 8 L 7 4 Z" fill="black" />
    </marker>
  </defs>

  <!-- сетка: x от -4 до 7, y от -2 до 11 -->
  <g stroke="#d1d5db" stroke-width="0.5" shape-rendering="crispEdges">
    <line x1="30.769" y1="10.000" x2="30.769" y2="210.000" />
    <line x1="46.154" y1="10.000" x2="46.154" y2="210.000" />
    <line x1="61.538" y1="10.000" x2="61.538" y2="210.000" />
    <line x1="76.923" y1="10.000" x2="76.923" y2="210.000" />
    <line x1="92.308" y1="10.000" x2="92.308" y2="210.000" />
    <line x1="107.692" y1="10.000" x2="107.692" y2="210.000" />
    <line x1="123.077" y1="10.000" x2="123.077" y2="210.000" />
    <line x1="138.462" y1="10.000" x2="138.462" y2="210.000" />
    <line x1="153.846" y1="10.000" x2="153.846" y2="210.000" />
    <line x1="169.231" y1="10.000" x2="169.231" y2="210.000" />
    <line x1="15.385" y1="194.615" x2="184.615" y2="194.615" />
    <line x1="15.385" y1="179.231" x2="184.615" y2="179.231" />
    <line x1="15.385" y1="163.846" x2="184.615" y2="163.846" />
    <line x1="15.385" y1="148.462" x2="184.615" y2="148.462" />
    <line x1="15.385" y1="133.077" x2="184.615" y2="133.077" />
    <line x1="15.385" y1="117.692" x2="184.615" y2="117.692" />
    <line x1="15.385" y1="102.308" x2="184.615" y2="102.308" />
    <line x1="15.385" y1="86.923" x2="184.615" y2="86.923" />
    <line x1="15.385" y1="71.538" x2="184.615" y2="71.538" />
    <line x1="15.385" y1="56.154" x2="184.615" y2="56.154" />
    <line x1="15.385" y1="40.769" x2="184.615" y2="40.769" />
    <line x1="15.385" y1="25.385" x2="184.615" y2="25.385" />
  </g>

  <!-- оси -->
  <g stroke="#111827" stroke-width="1.25">
    <line x1="15.385" y1="179.231" x2="184.615" y2="179.231" />
    <line x1="76.923" y1="210.000" x2="76.923" y2="10.000" marker-end="url(#axis-arrow)" />
  </g>

  <!-- подписи осей и делений -->
  <g font-family="sans-serif" font-size="11" fill="#111827">
    <text x="72.923" y="192.231" text-anchor="end"
          font-size="13" font-style="italic"
          font-family="Georgia, 'Times New Roman', serif">O</text>

    <rect x="88.808" y="182.231" width="7" height="12" fill="white" />
    <text x="92.308" y="193.231" text-anchor="middle" font-size="13"
          font-family="'Times New Roman', serif"
          font-weight="300">1</text>

    <text x="69.923" y="167.846" text-anchor="end" font-size="13"
          font-family="'Times New Roman', serif"
          font-weight="300">1</text>

    <text x="181.615" y="192.231" text-anchor="start"
          font-family="Georgia, 'Times New Roman', serif"
          font-style="italic" font-size="13">x</text>

    <text x="73.923" y="13.000" text-anchor="end"
          font-family="Georgia, 'Times New Roman', serif"
          font-style="italic" font-size="13">y</text>
  </g>

  <!-- интерполяция (PCHIP) -->
  <g stroke="#2d70b3" stroke-width="1.25" fill="none"
     stroke-linecap="round" stroke-linejoin="round">
    <polyline points="
      59.527,17.692
      59.600,19.263
      59.673,20.840
      59.747,22.414
      59.820,23.974
      59.894,25.512
      59.967,27.029
      60.041,28.533
      60.114,30.021
      60.187,31.495
      60.261,32.953
      60.334,34.397
      60.408,35.827
      60.481,37.244
      60.554,38.646
      60.628,40.034
      60.701,41.408
      60.775,42.769
      60.848,44.117
      60.922,45.451
      60.995,46.773
      61.068,48.080
      61.142,49.374
      61.215,50.657
      61.289,51.927
      61.362,53.184
      61.435,54.429
      61.509,55.661
      61.582,56.881
      61.656,58.089
      61.729,59.285
      61.803,60.470
      61.876,61.643
      61.949,62.804
      62.023,63.953
      62.096,65.091
      62.170,66.218
      62.243,67.335
      62.316,68.440
      62.390,69.534
      62.463,70.618
      62.537,71.689
      62.610,72.750
      62.684,73.802
      62.757,74.843
      62.830,75.875
      62.904,76.896
      62.977,77.907
      63.051,78.907
      63.124,79.896
      63.198,80.877
      63.271,81.848
      63.344,82.810
      63.418,83.763
      63.491,84.706
      63.565,85.640
      63.638,86.563
      63.711,87.477
      63.785,88.382
      63.858,89.280
      63.932,90.169
      64.005,91.049
      64.079,91.920
      64.152,92.783
      64.225,93.636
      64.299,94.481
      64.372,95.316
      64.446,96.144
      64.519,96.965
      64.592,97.778
      64.666,98.583
      64.739,99.380
      64.813,100.169
      64.886,100.950
      64.960,101.722
      65.033,102.486
      65.106,103.243
      65.180,103.993
      65.253,104.736
      65.327,105.473
      65.400,106.202
      65.473,106.924
      65.547,107.639
      65.620,108.346
      65.694,109.046
      65.767,109.737
      65.841,110.422
      65.914,111.100
      65.987,111.773
      66.061,112.439
      66.134,113.100
      66.208,113.754
      66.281,114.401
      66.355,115.043
      66.428,115.677
      66.501,116.305
      66.575,116.925
      66.648,117.539
      66.722,118.146
      66.795,118.748
      66.868,119.345
      66.942,119.937
      67.015,120.523
      67.089,121.104
      67.162,121.679
      67.236,122.249
      67.309,122.812
      67.382,123.370
      67.456,123.922
      67.529,124.468
      67.603,125.007
      67.676,125.540
      67.749,126.068
      67.823,126.592
      67.896,127.112
      67.970,127.627
      68.043,128.137
      68.117,128.643
      68.190,129.144
      68.263,129.640
      68.337,130.131
      68.410,130.617
      68.484,131.098
      68.557,131.573
      68.631,132.043
      68.704,132.508
      68.777,132.967
      68.851,133.421
      68.924,133.871
      68.998,134.318
      69.071,134.761
      69.144,135.201
      69.218,135.637
      69.291,136.068
      69.365,136.496
      69.438,136.920
      69.512,137.340
      69.585,137.755
      69.658,138.166
      69.732,138.572
      69.805,138.975
      69.879,139.372
      69.952,139.765
      70.025,140.153
      70.099,140.536
      70.172,140.915
      70.246,141.290
      70.319,141.663
      70.393,142.033
      70.466,142.400
      70.539,142.764
      70.613,143.125
      70.686,143.483
      70.760,143.837
      70.833,144.189
      70.906,144.537
      70.980,144.882
      71.053,145.223
      71.127,145.561
      71.200,145.895
      71.274,146.226
      71.347,146.553
      71.420,146.876
      71.494,147.195
      71.567,147.510
      71.641,147.821
      71.714,148.128
      71.788,148.431
      71.861,148.731
      71.934,149.029
      72.008,149.325
      72.081,149.618
      72.155,149.910
      72.228,150.200
      72.301,150.487
      72.375,150.772
      72.448,151.054
      72.522,151.335
      72.595,151.613
      72.669,151.888
      72.742,152.161
      72.815,152.431
      72.889,152.699
      72.962,152.963
      73.036,153.225
      73.109,153.485
      73.182,153.741
      73.256,153.995
      73.329,154.245
      73.403,154.492
      73.476,154.737
      73.550,154.978
      73.623,155.216
      73.696,155.450
      73.770,155.681
      73.843,155.909
      73.917,156.134
      73.990,156.356
      74.063,156.576
      74.137,156.795
      74.210,157.012
      74.284,157.228
      74.357,157.442
      74.431,157.655
      74.504,157.866
      74.577,158.076
      74.651,158.284
      74.724,158.490
      74.798,158.695
      74.871,158.898
      74.945,159.100
      75.018,159.300
      75.091,159.498
      75.165,159.694
      75.238,159.889
      75.312,160.082
      75.385,160.273
      75.458,160.462
      75.532,160.650
      75.605,160.836
      75.679,161.020
      75.752,161.202
      75.826,161.382
      75.899,161.561
      75.972,161.737
      76.046,161.912
      76.119,162.085
      76.193,162.255
      76.266,162.424
      76.339,162.591
      76.413,162.756
      76.486,162.919
      76.560,163.080
      76.633,163.239
      76.707,163.396
      76.780,163.550
      76.853,163.703
      76.927,163.854
      77.000,164.003
      77.074,164.151
      77.147,164.297
      77.220,164.443
      77.294,164.587
      77.367,164.731
      77.441,164.873
      77.514,165.014
      77.588,165.153
      77.661,165.292
      77.734,165.429
      77.808,165.565
      77.881,165.701
      77.955,165.834
      78.028,165.967
      78.102,166.099
      78.175,166.229
      78.248,166.358
      78.322,166.486
      78.395,166.613
      78.469,166.738
      78.542,166.863
      78.615,166.986
      78.689,167.108
      78.762,167.229
      78.836,167.348
      78.909,167.467
      78.983,167.584
      79.056,167.700
      79.129,167.815
      79.203,167.928
      79.276,168.041
      79.350,168.152
      79.423,168.262
      79.496,168.371
      79.570,168.478
      79.643,168.585
      79.717,168.690
      79.790,168.793
      79.864,168.896
      79.937,168.997
      80.010,169.098
      80.084,169.197
      80.157,169.294
      80.231,169.391
      80.304,169.487
      80.377,169.582
      80.451,169.676
      80.524,169.770
      80.598,169.863
      80.671,169.954
      80.745,170.046
      80.818,170.136
      80.891,170.226
      80.965,170.315
      81.038,170.403
      81.112,170.490
      81.185,170.577
      81.259,170.662
      81.332,170.747
      81.405,170.831
      81.479,170.915
      81.552,170.997
      81.626,171.079
      81.699,171.160
      81.772,171.241
      81.846,171.320
      81.919,171.399
      81.993,171.477
      82.066,171.554
      82.140,171.630
      82.213,171.706
      82.286,171.781
      82.360,171.855
      82.433,171.928
      82.507,172.001
      82.580,172.072
      82.653,172.143
      82.727,172.214
      82.800,172.283
      82.874,172.351
      82.947,172.419
      83.021,172.486
      83.094,172.553
      83.167,172.618
      83.241,172.683
      83.314,172.747
      83.388,172.810
      83.461,172.872
      83.534,172.934
      83.608,172.996
      83.681,173.057
      83.755,173.117
      83.828,173.177
      83.902,173.236
      83.975,173.295
      84.048,173.354
      84.122,173.412
      84.195,173.469
      84.269,173.526
      84.342,173.582
      84.416,173.638
      84.489,173.694
      84.562,173.749
      84.636,173.803
      84.709,173.857
      84.783,173.910
      84.856,173.963
      84.929,174.016
      85.003,174.067
      85.076,174.119
      85.150,174.170
      85.223,174.220
      85.297,174.270
      85.370,174.319
      85.443,174.368
      85.517,174.417
      85.590,174.464
      85.664,174.512
      85.737,174.559
      85.810,174.605
      85.884,174.651
      85.957,174.696
      86.031,174.741
      86.104,174.785
      86.178,174.829
      86.251,174.872
      86.324,174.915
      86.398,174.958
      86.471,174.999
      86.545,175.041
      86.618,175.082
      86.692,175.122
      86.765,175.162
      86.838,175.202
      86.912,175.241
      86.985,175.280
      87.059,175.319
      87.132,175.357
      87.205,175.395
      87.279,175.433
      87.352,175.470
      87.426,175.508
      87.499,175.544
      87.573,175.581
      87.646,175.617
      87.719,175.653
      87.793,175.688
      87.866,175.723
      87.940,175.758
      88.013,175.793
      88.086,175.827
      88.160,175.861
      88.233,175.894
      88.307,175.927
      88.380,175.960
      88.454,175.993
      88.527,176.025
      88.600,176.057
      88.674,176.089
      88.747,176.120
      88.821,176.151
      88.894,176.181
      88.967,176.212
      89.041,176.242
      89.114,176.271
      89.188,176.300
      89.261,176.329
      89.335,176.358
      89.408,176.386
      89.481,176.414
      89.555,176.442
      89.628,176.469
      89.702,176.497
      89.775,176.523
      89.849,176.550
      89.922,176.576
      89.995,176.602
      90.069,176.627
      90.142,176.653
      90.216,176.678
      90.289,176.703
      90.362,176.728
      90.436,176.752
      90.509,176.777
      90.583,176.801
      90.656,176.825
      90.730,176.849
      90.803,176.872
      90.876,176.895
      90.950,176.919
      91.023,176.942
      91.097,176.964
      91.170,176.987
      91.243,177.009
      91.317,177.031
      91.390,177.053
      91.464,177.075
      91.537,177.096
      91.611,177.117
      91.684,177.138
      91.757,177.159
      91.831,177.180
      91.904,177.200
      91.978,177.220
      92.051,177.240
      92.124,177.260
      92.198,177.280
      92.271,177.299
      92.345,177.318
      92.418,177.337
      92.492,177.356
      92.565,177.374
      92.638,177.393
      92.712,177.411
      92.785,177.429
      92.859,177.446
      92.932,177.464
      93.006,177.481
      93.079,177.498
      93.152,177.515
      93.226,177.532
      93.299,177.548
      93.373,177.565
      93.446,177.581
      93.519,177.597
      93.593,177.613
      93.666,177.629
      93.740,177.645
      93.813,177.661
      93.887,177.676
      93.960,177.691
      94.033,177.707
      94.107,177.722
      94.180,177.737
      94.254,177.751
      94.327,177.766
      94.400,177.781
      94.474,177.795
      94.547,177.809
      94.621,177.823
      94.694,177.837
      94.768,177.851
      94.841,177.865
      94.914,177.879
      94.988,177.892
      95.061,177.905
      95.135,177.919
      95.208,177.932
      95.281,177.945
      95.355,177.957
      95.428,177.970
      95.502,177.983
      95.575,177.995
      95.649,178.007
      95.722,178.019
      95.795,178.031
      95.869,178.043
      95.942,178.055
      96.016,178.066
      96.089,178.078
      96.163,178.089
      96.236,178.100
      96.309,178.111
      96.383,178.122
      96.456,178.133
      96.530,178.144
      96.603,178.154
      96.676,178.165
      96.750,178.175
      96.823,178.186
      96.897,178.196
      96.970,178.206
      97.044,178.216
      97.117,178.226
      97.190,178.236
      97.264,178.246
      97.337,178.256
      97.411,178.265
      97.484,178.275
      97.557,178.284
      97.631,178.294
      97.704,178.303
      97.778,178.312
      97.851,178.321
      97.925,178.330
      97.998,178.339
      98.071,178.348
      98.145,178.357
      98.218,178.366
      98.292,178.374
      98.365,178.383
      98.438,178.391
      98.512,178.400
      98.585,178.408
      98.659,178.416
      98.732,178.424
      98.806,178.432
      98.879,178.440
      98.952,178.448
      99.026,178.456
      99.099,178.463
      99.173,178.471
      99.246,178.478
      99.320,178.486
      99.393,178.493
      99.466,178.500
      99.540,178.507
      99.613,178.514
      99.687,178.521
      99.760,178.528
      99.833,178.535
      99.907,178.542
      99.980,178.549
      100.054,178.555
      100.127,178.562
      100.201,178.569
      100.274,178.575
      100.347,178.582
      100.421,178.588
      100.494,178.594
      100.568,178.601
      100.641,178.607
      100.714,178.613
      100.788,178.619
      100.861,178.625
      100.935,178.631
      101.008,178.637
      101.082,178.643
      101.155,178.649
      101.228,178.655
      101.302,178.660
      101.375,178.666
      101.449,178.672
      101.522,178.677
      101.595,178.683
      101.669,178.688
      101.742,178.694
      101.816,178.699
      101.889,178.704
      101.963,178.710
      102.036,178.715
      102.109,178.720
      102.183,178.725
      102.256,178.730
      102.330,178.735
      102.403,178.740
      102.477,178.745
      102.550,178.749
      102.623,178.754
      102.697,178.759
      102.770,178.763
      102.844,178.768
      102.917,178.772
      102.990,178.777
      103.064,178.781
      103.137,178.786
      103.211,178.790
      103.284,178.794
      103.358,178.799
      103.431,178.803
      103.504,178.807
      103.578,178.811
      103.651,178.815
      103.725,178.819
      103.798,178.824
      103.871,178.828
      103.945,178.832
      104.018,178.836
      104.092,178.839
      104.165,178.843
      104.239,178.847
      104.312,178.851
      104.385,178.855
      104.459,178.859
      104.532,178.862
      104.606,178.866
      104.679,178.870
      104.753,178.873
      104.826,178.877
      104.899,178.880
      104.973,178.884
      105.046,178.887
      105.120,178.891
      105.193,178.894
      105.266,178.897
      105.340,178.901
      105.413,178.904
      105.487,178.907
      105.560,178.910
      105.634,178.913
      105.707,178.917
      105.780,178.920
      105.854,178.923
      105.927,178.926
      106.001,178.929
      106.074,178.932
      106.147,178.935
      106.221,178.937
      106.294,178.940
      106.368,178.943
      106.441,178.946
      106.515,178.949
      106.588,178.951
      106.661,178.954
      106.735,178.957
      106.808,178.960
      106.882,178.962
      106.955,178.965
      107.028,178.968
      107.102,178.970
      107.175,178.973
      107.249,178.975
      107.322,178.978
      107.396,178.980
      107.469,178.983
      107.542,178.985
      107.616,178.988
      107.689,178.990
      107.763,178.993
      107.836,178.995
      107.910,178.997
      107.983,179.000
      108.056,179.002
      108.130,179.004
      108.203,179.006
      108.277,179.009
      108.350,179.011
      108.423,179.013
      108.497,179.015
      108.570,179.017
      108.644,179.020
      108.717,179.022
      108.791,179.024
      108.864,179.026
      108.937,179.028
      109.011,179.030
      109.084,179.032
      109.158,179.034
      109.231,179.036
      109.304,179.037
      109.378,179.039
      109.451,179.041
      109.525,179.043
      109.598,179.045
      109.672,179.047
      109.745,179.049
      109.818,179.050
      109.892,179.052
      109.965,179.054
      110.039,179.056
      110.112,179.057
      110.185,179.059
      110.259,179.061
      110.332,179.062
      110.406,179.064
      110.479,179.066
      110.553,179.067
      110.626,179.069
      110.699,179.071
      110.773,179.072
      110.846,179.074
      110.920,179.075
      110.993,179.077
      111.067,179.078
      111.140,179.080
      111.213,179.081
      111.287,179.083
      111.360,179.084
      111.434,179.086
      111.507,179.087
      111.580,179.089
      111.654,179.090
      111.727,179.092
      111.801,179.093
      111.874,179.094
      111.948,179.096
      112.021,179.097
      112.094,179.098
      112.168,179.100
      112.241,179.101
      112.315,179.102
      112.388,179.103
      112.461,179.105
      112.535,179.106
      112.608,179.107
      112.682,179.108
      112.755,179.109
      112.829,179.111
      112.902,179.112
      112.975,179.113
      113.049,179.114
      113.122,179.115
      113.196,179.116
      113.269,179.118
      113.342,179.119
      113.416,179.120
      113.489,179.121
      113.563,179.122
      113.636,179.123
      113.710,179.124
      113.783,179.125
      113.856,179.126
      113.930,179.127
      114.003,179.128
      114.077,179.129
      114.150,179.130
      114.224,179.131
      114.297,179.132
      114.370,179.133
      114.444,179.134
      114.517,179.135
      114.591,179.136
      114.664,179.137
      114.737,179.138
      114.811,179.139
      114.884,179.140
      114.958,179.141
      115.031,179.142
      115.105,179.143
      115.178,179.143
      115.251,179.144
      115.325,179.145
      115.398,179.146
      115.472,179.147
      115.545,179.148
      115.618,179.148
      115.692,179.149
      115.765,179.150
      115.839,179.151
      115.912,179.152
      115.986,179.152
      116.059,179.153
      116.132,179.154
      116.206,179.155
      116.279,179.155
      116.353,179.156
      116.426,179.157
      116.499,179.158
      116.573,179.158
      116.646,179.159
      116.720,179.160
      116.793,179.160
      116.867,179.161
      116.940,179.162
      117.013,179.163
      117.087,179.163
      117.160,179.164
      117.234,179.165
      117.307,179.165
      117.381,179.166
      117.454,179.167
      117.527,179.167
      117.601,179.168
      117.674,179.168
      117.748,179.169
      117.821,179.170
      117.894,179.170
      117.968,179.171
      118.041,179.171
      118.115,179.172
      118.188,179.173
      118.262,179.173
      118.335,179.174
      118.408,179.174
      118.482,179.175
      118.555,179.175
      118.629,179.176
      118.702,179.177
      118.775,179.177
      118.849,179.178
      118.922,179.178
      118.996,179.179
      119.069,179.179
      119.143,179.180
      119.216,179.180
      119.289,179.181
      119.363,179.181
      119.436,179.182
      119.510,179.182
      119.583,179.183
      119.656,179.183
      119.730,179.183
      119.803,179.184
      119.877,179.184
      119.950,179.185
      120.024,179.185
      120.097,179.186
      120.170,179.186
      120.244,179.187
      120.317,179.187
      120.391,179.188
      120.464,179.188
      120.538,179.188
      120.611,179.189
      120.684,179.189
      120.758,179.190
      120.831,179.190
      120.905,179.190
      120.978,179.191
      121.051,179.191
      121.125,179.192
      121.198,179.192
      121.272,179.192
      121.345,179.193
      121.419,179.193
      121.492,179.194
      121.565,179.194
      121.639,179.194
      121.712,179.195
      121.786,179.195
      121.859,179.195
      121.932,179.196
      122.006,179.196
      122.079,179.196
      122.153,179.197
      122.226,179.197
      122.300,179.197
      122.373,179.198
      122.446,179.198
      122.520,179.198
      122.593,179.199
      122.667,179.199
      122.740,179.199
      122.813,179.200
      122.887,179.200
      122.960,179.200
      123.034,179.201
      123.107,179.201
      123.181,179.201
      123.254,179.201
      123.327,179.202
      123.401,179.202
      123.474,179.202
      123.548,179.203
      123.621,179.203
      123.695,179.203
      123.768,179.203
      123.841,179.204
      123.915,179.204
      123.988,179.204
      124.062,179.204
      124.135,179.205
      124.208,179.205
      124.282,179.205
      124.355,179.206
      124.429,179.206
      124.502,179.206
      124.576,179.206
      124.649,179.206
      124.722,179.207
      124.796,179.207
      124.869,179.207
      124.943,179.207
      125.016,179.208
      125.089,179.208
      125.163,179.208
      125.236,179.208
      125.310,179.209
      125.383,179.209
      125.457,179.209
      125.530,179.209
      125.603,179.209
      125.677,179.210
      125.750,179.210
      125.824,179.210
      125.897,179.210
      125.971,179.210
      126.044,179.211
      126.117,179.211
      126.191,179.211
      126.264,179.211
      126.338,179.211
      126.411,179.212
      126.484,179.212
      126.558,179.212
      126.631,179.212
      126.705,179.212
      126.778,179.213
      126.852,179.213
      126.925,179.213
      126.998,179.213
      127.072,179.213
      127.145,179.213
      127.219,179.214
      127.292,179.214
      127.365,179.214
      127.439,179.214
      127.512,179.214
      127.586,179.214
      127.659,179.215
      127.733,179.215
      127.806,179.215
      127.879,179.215
      127.953,179.215
      128.026,179.215
      128.100,179.216
      128.173,179.216
      128.246,179.216
      128.320,179.216
      128.393,179.216
      128.467,179.216
      128.540,179.216
      128.614,179.217
      128.687,179.217
      128.760,179.217
      128.834,179.217
      128.907,179.217
      128.981,179.217
      129.054,179.217
      129.128,179.217
      129.201,179.218
      129.274,179.218
      129.348,179.218
      129.421,179.218
      129.495,179.218
      129.568,179.218
      129.641,179.218
      129.715,179.219
      129.788,179.219
      129.862,179.219
      129.935,179.219
      130.009,179.219
      130.082,179.219
      130.155,179.219
      130.229,179.219
      130.302,179.219
      130.376,179.220
      130.449,179.220
      130.522,179.220
      130.596,179.220
      130.669,179.220
      130.743,179.220
      130.816,179.220
      130.890,179.220
      130.963,179.220
      131.036,179.221
      131.110,179.221
      131.183,179.221
      131.257,179.221
      131.330,179.221
      131.403,179.221
      131.477,179.221
      131.550,179.221
      131.624,179.221
      131.697,179.221
      131.771,179.221
      131.844,179.222
      131.917,179.222
      131.991,179.222
      132.064,179.222
      132.138,179.222
      132.211,179.222
      132.285,179.222
      132.358,179.222
      132.431,179.222
      132.505,179.222
      132.578,179.222
      132.652,179.223
      132.725,179.223
      132.798,179.223
      132.872,179.223
      132.945,179.223
      133.019,179.223
      133.092,179.223
      133.166,179.223
      133.239,179.223
      133.312,179.223
      133.386,179.223
      133.459,179.223
      133.533,179.223
      133.606,179.224
      133.679,179.224
      133.753,179.224
      133.826,179.224
      133.900,179.224
      133.973,179.224
      134.047,179.224
      134.120,179.224
      134.193,179.224
      134.267,179.224
      134.340,179.224
      134.414,179.224
      134.487,179.224
      134.560,179.224
      134.634,179.224
      134.707,179.225
      134.781,179.225
      134.854,179.225
      134.928,179.225
      135.001,179.225
      135.074,179.225
      135.148,179.225
      135.221,179.225
      135.295,179.225
      135.368,179.225
      135.442,179.225
      135.515,179.225
      135.588,179.225
      135.662,179.225
      135.735,179.225
      135.809,179.225
      135.882,179.225
      135.955,179.226
      136.029,179.226
      136.102,179.226
      136.176,179.226
      136.249,179.226
      136.323,179.226
      136.396,179.226
      136.469,179.226
      136.543,179.226
      136.616,179.226
      136.690,179.226
      136.763,179.226
      136.836,179.226
      136.910,179.226
      136.983,179.226
      137.057,179.226
      137.130,179.226
      137.204,179.226
      137.277,179.226
      137.350,179.226
      137.424,179.226
      137.497,179.227
      137.571,179.227
      137.644,179.227
      137.717,179.227
      137.791,179.227
      137.864,179.227
      137.938,179.227
      138.011,179.227
      138.085,179.227
      138.158,179.227
      138.231,179.227
      138.305,179.227
      138.378,179.227
      138.452,179.227
      138.525,179.227
      138.599,179.227
      138.672,179.227
      138.745,179.227
      138.819,179.227
      138.892,179.227
      138.966,179.227
      139.039,179.227
      139.112,179.227
      139.186,179.227
      139.259,179.227
      139.333,179.227
      139.406,179.227
      139.480,179.227
      139.553,179.227
      139.626,179.227
      139.700,179.228
      139.773,179.228
      139.847,179.228
      139.920,179.228
      139.993,179.228
      140.067,179.228
      140.140,179.228
      140.214,179.228
      140.287,179.228
      140.361,179.228
      140.434,179.228
      140.507,179.228
      140.581,179.228
      140.654,179.228
      140.728,179.228
      140.801,179.228
      140.874,179.228
      140.948,179.228
      141.021,179.228
      141.095,179.228
      141.168,179.228
      141.242,179.228
      141.315,179.228
      141.388,179.228
      141.462,179.228
      141.535,179.228
      141.609,179.228
      141.682,179.228
      141.756,179.228
      141.829,179.228
      141.902,179.228
      141.976,179.228
      142.049,179.228
      142.123,179.228
      142.196,179.228
      142.269,179.228
      142.343,179.228
      142.416,179.228
      142.490,179.228
      142.563,179.229
      142.637,179.229
      142.710,179.229
      142.783,179.229
      142.857,179.229
      142.930,179.229
      143.004,179.229
      143.077,179.229
      143.150,179.229
      143.224,179.229
      143.297,179.229
      143.371,179.229
      143.444,179.229
      143.518,179.229
      143.591,179.229
      143.664,179.229
      143.738,179.229
      143.811,179.229
      143.885,179.229
      143.958,179.229
      144.032,179.229
      144.105,179.229
      144.178,179.229
      144.252,179.229
      144.325,179.229
      144.399,179.229
      144.472,179.229
      144.545,179.229
      144.619,179.229
      144.692,179.229
      144.766,179.229
      144.839,179.229
      144.913,179.229
      144.986,179.229
      145.059,179.229
      145.133,179.229
      145.206,179.229
      145.280,179.229
      145.353,179.229
      145.426,179.229
      145.500,179.229
      145.573,179.229
      145.647,179.229
      145.720,179.229
      145.794,179.229
      145.867,179.229
      145.940,179.229
      146.014,179.229
      146.087,179.229
      146.161,179.229
      146.234,179.229
      146.307,179.229
      146.381,179.229
      146.454,179.229
      146.528,179.230
      146.601,179.230
      146.675,179.230
      146.748,179.230
      146.821,179.230
      146.895,179.230
      146.968,179.230
      147.042,179.230
      147.115,179.230
      147.189,179.230
      147.262,179.230
      147.335,179.230
      147.409,179.230
      147.482,179.230
      147.556,179.230
      147.629,179.230
      147.702,179.230
      147.776,179.230
      147.849,179.230
      147.923,179.230
      147.996,179.230
      148.070,179.230
      148.143,179.230
      148.216,179.230
      148.290,179.230
      148.363,179.230
      148.437,179.230
      148.510,179.230
      148.583,179.230
      148.657,179.230
      148.730,179.230
      148.804,179.230
      148.877,179.230
      148.951,179.230
      149.024,179.230
      149.097,179.230
      149.171,179.230
      149.244,179.230
      149.318,179.230
      149.391,179.230
      149.464,179.230
      149.538,179.230
      149.611,179.230
      149.685,179.230
      149.758,179.230
      149.832,179.230
      149.905,179.230
      149.978,179.230
      150.052,179.230
      150.125,179.230
      150.199,179.230
      150.272,179.230
      150.346,179.230
      150.419,179.230
      150.492,179.230
      150.566,179.230
      150.639,179.230
      150.713,179.230
      150.786,179.230
      150.859,179.230
      150.933,179.230
      151.006,179.230
      151.080,179.230
      151.153,179.230
      151.227,179.230
      151.300,179.230
      151.373,179.230
      151.447,179.230
      151.520,179.230
      151.594,179.230
      151.667,179.230
      151.740,179.230
      151.814,179.230
      151.887,179.230
      151.961,179.230
      152.034,179.230
      152.108,179.230
      152.181,179.230
      152.254,179.230
      152.328,179.230
      152.401,179.230
      152.475,179.230
      152.548,179.230
      152.621,179.230
      152.695,179.230
      152.768,179.230
      152.842,179.230
      152.915,179.230
      152.989,179.230
      153.062,179.230
      153.135,179.230
      153.209,179.230
      153.282,179.230
      153.356,179.230
      153.429,179.230
      153.503,179.230
      153.576,179.230
      153.649,179.230
      153.723,179.230
      153.796,179.230
      153.870,179.230
      153.943,179.230
      154.016,179.230
      154.090,179.230
      154.163,179.230
      154.237,179.230
      154.310,179.230
      154.384,179.230
      154.457,179.230
      154.530,179.230
      154.604,179.230
      154.677,179.230
      154.751,179.230
      154.824,179.230
      154.897,179.230
      154.971,179.230
      155.044,179.230
      155.118,179.230
      155.191,179.230
      155.265,179.230
      155.338,179.230
      155.411,179.230
      155.485,179.230
      155.558,179.230
      155.632,179.230
      155.705,179.230
      155.778,179.230
      155.852,179.230
      155.925,179.230
      155.999,179.230
      156.072,179.230
      156.146,179.230
      156.219,179.230
      156.292,179.230
      156.366,179.230
      156.439,179.230
      156.513,179.230
      156.586,179.230
      156.660,179.230
      156.733,179.230
      156.806,179.230
      156.880,179.230
      156.953,179.230
      157.027,179.230
      157.100,179.230
      157.173,179.230
      157.247,179.230
      157.320,179.230
      157.394,179.230
      157.467,179.230
      157.541,179.230
      157.614,179.230
      157.687,179.230
      157.761,179.230
      157.834,179.230
      157.908,179.230
      157.981,179.231
      158.054,179.231
      158.128,179.231
      158.201,179.231
      158.275,179.231
      158.348,179.231
      158.422,179.231
      158.495,179.231
      158.568,179.231
      158.642,179.231
      158.715,179.231
      158.789,179.231
      158.862,179.231
      158.935,179.231
      159.009,179.231
      159.082,179.231
      159.156,179.231
      159.229,179.231
      159.303,179.231
      159.376,179.231
      159.449,179.231
      159.523,179.231
      159.596,179.231
      159.670,179.231
      159.743,179.231
      159.817,179.231
      159.890,179.231
      159.963,179.231
      160.037,179.231
      160.110,179.231
      160.184,179.231
      160.257,179.231
      160.330,179.231
      160.404,179.231
      160.477,179.231
      160.551,179.231
      160.624,179.231
      160.698,179.231
      160.771,179.231
      160.844,179.231
      160.918,179.231
      160.991,179.231
      161.065,179.231
      161.138,179.231
      161.211,179.231
      161.285,179.231
      161.358,179.231
      161.432,179.231
      161.505,179.231
      161.579,179.231
      161.652,179.231
      161.725,179.231
      161.799,179.231
      161.872,179.231
      161.946,179.231
      162.019,179.231
      162.093,179.231
      162.166,179.231
      162.239,179.231
      162.313,179.231
      162.386,179.231
      162.460,179.231
      162.533,179.231
      162.606,179.231
      162.680,179.231
      162.753,179.231
      162.827,179.231
      162.900,179.231
      162.974,179.231
      163.047,179.231
      163.120,179.231
      163.194,179.231
      163.267,179.231
      163.341,179.231
      163.414,179.231
      163.487,179.231
      163.561,179.231
      163.634,179.231
      163.708,179.231
      163.781,179.231
      163.855,179.231
      163.928,179.231
      164.001,179.231
      164.075,179.231
      164.148,179.231
      164.222,179.231
      164.295,179.231
      164.368,179.231
      164.442,179.231
      164.515,179.231
      164.589,179.231
      164.662,179.231
      164.736,179.231
      164.809,179.231
      164.882,179.231
      164.956,179.231
      165.029,179.231
      165.103,179.231
      165.176,179.231
      165.250,179.231
      165.323,179.231
      165.396,179.231
      165.470,179.231
      165.543,179.231
      165.617,179.231
      165.690,179.231
      165.763,179.231
      165.837,179.231
      165.910,179.231
      165.984,179.231
      166.057,179.231
      166.131,179.231
      166.204,179.231
      166.277,179.231
      166.351,179.231
      166.424,179.231
      166.498,179.231
      166.571,179.231
      166.644,179.231
      166.718,179.231
      166.791,179.231
      166.865,179.231
      166.938,179.231
      167.012,179.231
      167.085,179.231
      167.158,179.231
      167.232,179.231
      167.305,179.231
      167.379,179.231
      167.452,179.231
      167.525,179.231
      167.599,179.231
      167.672,179.231
      167.746,179.231
      167.819,179.231
      167.893,179.231
      167.966,179.231
      168.039,179.231
      168.113,179.231
      168.186,179.231
      168.260,179.231
      168.333,179.231
      168.407,179.231
      168.480,179.231
      168.553,179.231
      168.627,179.231
      168.700,179.231
      168.774,179.231
      168.847,179.231
      168.920,179.231
      168.994,179.231
      169.067,179.231
      169.141,179.231
      169.214,179.231
      169.288,179.231
      169.361,179.231
      169.434,179.231
      169.508,179.231
      169.581,179.231
      169.655,179.231
      169.728,179.231
      169.801,179.231
      169.875,179.231
      169.948,179.231
      170.022,179.231
      170.095,179.231
      170.169,179.231
      170.242,179.231
      170.315,179.231
      170.389,179.231
      170.462,179.231
      170.536,179.231
      170.609,179.231
      170.682,179.231
      170.756,179.231
      170.829,179.231
      170.903,179.231
      170.976,179.231
      171.050,179.231
      171.123,179.231
      171.196,179.231
      171.270,179.231
      171.343,179.231
      171.417,179.231
      171.490,179.231
      171.564,179.231
      171.637,179.231
      171.710,179.231
      171.784,179.231
      171.857,179.231
      171.931,179.231
      172.004,179.231
      172.077,179.231
      172.151,179.231
      172.224,179.231
      172.298,179.231
      172.371,179.231
      172.445,179.231
      172.518,179.231
      172.591,179.231
      172.665,179.231
      172.738,179.231
      172.812,179.231
      172.885,179.231
      172.958,179.231
      173.032,179.231
      173.105,179.231
      173.179,179.231
      173.252,179.231
      173.326,179.231
      173.399,179.231
      173.472,179.231
      173.546,179.231
      173.619,179.231
      173.693,179.231
      173.766,179.231
      173.839,179.231
      173.913,179.231
      173.986,179.231
      174.060,179.231
      174.133,179.231
      174.207,179.231
      174.280,179.231
      174.353,179.231
      174.427,179.231
      174.500,179.231
      174.574,179.231
      174.647,179.231
      174.721,179.231
      174.794,179.231
      174.867,179.231
      174.941,179.231
      175.014,179.231
      175.088,179.231
      175.161,179.231
      175.234,179.231
      175.308,179.231
      175.381,179.231
      175.455,179.231
      175.528,179.231
      175.602,179.231
      175.675,179.231
      175.748,179.231
      175.822,179.231
      175.895,179.231
      175.969,179.231
      176.042,179.231
      176.115,179.231
      176.189,179.231
      176.262,179.231
      176.336,179.231
      176.409,179.231
      176.483,179.231
      176.556,179.231
      176.629,179.231
      176.703,179.231
      176.776,179.231
      176.850,179.231
      176.923,179.231
    " />
  </g>

  <!-- точка (-1;8) -->
  <circle cx="61.538" cy="56.154" r="2.2" fill="#2d70b3" stroke="#2d70b3" stroke-width="0.6" />

  <!-- стрелка оси x поверх графика -->
  <g stroke="#111827" stroke-width="1.25">
    <line x1="169.615" y1="179.231" x2="184.615" y2="179.231" marker-end="url(#axis-arrow)" />
  </g>

  <!-- подпись -->
  <text x="92.308" y="160.846"
        font-family="Georgia, 'Times New Roman', serif"
        font-style="italic"
        font-size="13"
        fill="#2d70b3">f(x)</text>
</svg>
