<svg xmlns="http://www.w3.org/2000/svg" width="220" height="220" viewBox="0 0 220 220">
  <rect x="0" y="0" width="220" height="220" fill="white" />

  <defs>
    <marker id="axis-arrow"
            viewBox="0 0 15 8"
            refX="13" refY="4"
            markerWidth="12" markerHeight="6.4"
            orient="auto"
            markerUnits="userSpaceOnUse">
      <path d="M 3 0 L 15 4 L 3 8 L 7 4 Z" fill="black" />
    </marker>
  </defs>

  <!-- сетка: x от -4 до 7, y от -2 до 11 -->
  <g stroke="#d1d5db" stroke-width="0.5" shape-rendering="crispEdges">
    <line x1="30.769" y1="10.000" x2="30.769" y2="210.000" />
    <line x1="46.154" y1="10.000" x2="46.154" y2="210.000" />
    <line x1="61.538" y1="10.000" x2="61.538" y2="210.000" />
    <line x1="76.923" y1="10.000" x2="76.923" y2="210.000" />
    <line x1="92.308" y1="10.000" x2="92.308" y2="210.000" />
    <line x1="107.692" y1="10.000" x2="107.692" y2="210.000" />
    <line x1="123.077" y1="10.000" x2="123.077" y2="210.000" />
    <line x1="138.462" y1="10.000" x2="138.462" y2="210.000" />
    <line x1="153.846" y1="10.000" x2="153.846" y2="210.000" />
    <line x1="169.231" y1="10.000" x2="169.231" y2="210.000" />
    <line x1="15.385" y1="194.615" x2="184.615" y2="194.615" />
    <line x1="15.385" y1="179.231" x2="184.615" y2="179.231" />
    <line x1="15.385" y1="163.846" x2="184.615" y2="163.846" />
    <line x1="15.385" y1="148.462" x2="184.615" y2="148.462" />
    <line x1="15.385" y1="133.077" x2="184.615" y2="133.077" />
    <line x1="15.385" y1="117.692" x2="184.615" y2="117.692" />
    <line x1="15.385" y1="102.308" x2="184.615" y2="102.308" />
    <line x1="15.385" y1="86.923" x2="184.615" y2="86.923" />
    <line x1="15.385" y1="71.538" x2="184.615" y2="71.538" />
    <line x1="15.385" y1="56.154" x2="184.615" y2="56.154" />
    <line x1="15.385" y1="40.769" x2="184.615" y2="40.769" />
    <line x1="15.385" y1="25.385" x2="184.615" y2="25.385" />
  </g>

  <!-- оси -->
  <g stroke="#111827" stroke-width="1.25">
    <line x1="15.385" y1="179.231" x2="184.615" y2="179.231" />
    <line x1="76.923" y1="210.000" x2="76.923" y2="10.000" marker-end="url(#axis-arrow)" />
  </g>

  <!-- подписи осей и делений -->
  <g font-family="sans-serif" font-size="11" fill="#111827">
    <text x="72.923" y="192.231" text-anchor="end"
          font-size="13" font-style="italic"
          font-family="Georgia, 'Times New Roman', serif">O</text>

    <rect x="88.808" y="182.231" width="7" height="12" fill="white" />
    <text x="92.308" y="193.231" text-anchor="middle" font-size="13"
          font-family="'Times New Roman', serif"
          font-weight="300">1</text>

    <text x="69.923" y="167.846" text-anchor="end" font-size="13"
          font-family="'Times New Roman', serif"
          font-weight="300">1</text>

    <text x="181.615" y="192.231" text-anchor="start"
          font-family="Georgia, 'Times New Roman', serif"
          font-style="italic" font-size="13">x</text>

    <text x="73.923" y="13.000" text-anchor="end"
          font-family="Georgia, 'Times New Roman', serif"
          font-style="italic" font-size="13">y</text>
  </g>

  <!-- интерполяция (PCHIP) -->
  <g stroke="#2d70b3" stroke-width="1.25" fill="none"
     stroke-linecap="round" stroke-linejoin="round">
    <polyline points="
      43.995,17.692
      44.084,18.693
      44.173,19.699
      44.261,20.705
      44.350,21.711
      44.439,22.712
      44.527,23.708
      44.616,24.695
      44.705,25.672
      44.793,26.641
      44.882,27.604
      44.971,28.561
      45.059,29.513
      45.148,30.458
      45.237,31.397
      45.325,32.330
      45.414,33.257
      45.503,34.178
      45.591,35.094
      45.680,36.004
      45.769,36.908
      45.857,37.807
      45.946,38.700
      46.035,39.587
      46.123,40.468
      46.212,41.344
      46.301,42.214
      46.389,43.079
      46.478,43.939
      46.567,44.793
      46.656,45.642
      46.744,46.485
      46.833,47.323
      46.922,48.156
      47.010,48.982
      47.099,49.804
      47.188,50.621
      47.276,51.433
      47.365,52.241
      47.454,53.043
      47.542,53.839
      47.631,54.631
      47.720,55.417
      47.808,56.198
      47.897,56.974
      47.986,57.746
      48.074,58.513
      48.163,59.275
      48.252,60.033
      48.340,60.786
      48.429,61.534
      48.518,62.277
      48.606,63.015
      48.695,63.748
      48.784,64.476
      48.872,65.200
      48.961,65.920
      49.050,66.636
      49.138,67.347
      49.227,68.054
      49.316,68.756
      49.405,69.453
      49.493,70.146
      49.582,70.835
      49.671,71.518
      49.759,72.198
      49.848,72.873
      49.937,73.544
      50.025,74.212
      50.114,74.875
      50.203,75.534
      50.291,76.189
      50.380,76.840
      50.469,77.486
      50.557,78.129
      50.646,78.766
      50.735,79.400
      50.823,80.029
      50.912,80.655
      51.001,81.278
      51.089,81.896
      51.178,82.511
      51.267,83.122
      51.355,83.729
      51.444,84.332
      51.533,84.932
      51.621,85.527
      51.710,86.118
      51.799,86.705
      51.887,87.289
      51.976,87.868
      52.065,88.445
      52.154,89.018
      52.242,89.588
      52.331,90.154
      52.420,90.717
      52.508,91.276
      52.597,91.832
      52.686,92.384
      52.774,92.932
      52.863,93.477
      52.952,94.018
      53.040,94.555
      53.129,95.088
      53.218,95.619
      53.306,96.147
      53.395,96.671
      53.484,97.193
      53.572,97.711
      53.661,98.226
      53.750,98.738
      53.838,99.247
      53.927,99.752
      54.016,100.254
      54.104,100.753
      54.193,101.248
      54.282,101.740
      54.370,102.228
      54.459,102.713
      54.548,103.195
      54.636,103.675
      54.725,104.152
      54.814,104.626
      54.903,105.097
      54.991,105.566
      55.080,106.031
      55.169,106.494
      55.257,106.954
      55.346,107.411
      55.435,107.864
      55.523,108.315
      55.612,108.763
      55.701,109.207
      55.789,109.648
      55.878,110.086
      55.967,110.522
      56.055,110.955
      56.144,111.385
      56.233,111.814
      56.321,112.240
      56.410,112.663
      56.499,113.084
      56.587,113.502
      56.676,113.917
      56.765,114.330
      56.853,114.741
      56.942,115.148
      57.031,115.553
      57.119,115.956
      57.208,116.355
      57.297,116.751
      57.386,117.145
      57.474,117.536
      57.563,117.924
      57.652,118.310
      57.740,118.694
      57.829,119.076
      57.918,119.455
      58.006,119.833
      58.095,120.208
      58.184,120.581
      58.272,120.952
      58.361,121.321
      58.450,121.687
      58.538,122.051
      58.627,122.413
      58.716,122.772
      58.804,123.129
      58.893,123.484
      58.982,123.836
      59.070,124.185
      59.159,124.532
      59.248,124.877
      59.336,125.218
      59.425,125.558
      59.514,125.895
      59.602,126.231
      59.691,126.565
      59.780,126.897
      59.868,127.228
      59.957,127.556
      60.046,127.883
      60.135,128.208
      60.223,128.530
      60.312,128.851
      60.401,129.170
      60.489,129.487
      60.578,129.802
      60.667,130.115
      60.755,130.426
      60.844,130.735
      60.933,131.041
      61.021,131.346
      61.110,131.648
      61.199,131.948
      61.287,132.246
      61.376,132.541
      61.465,132.835
      61.553,133.126
      61.642,133.415
      61.731,133.703
      61.819,133.989
      61.908,134.274
      61.997,134.558
      62.085,134.840
      62.174,135.120
      62.263,135.399
      62.351,135.676
      62.440,135.952
      62.529,136.226
      62.617,136.499
      62.706,136.770
      62.795,137.039
      62.884,137.306
      62.972,137.572
      63.061,137.836
      63.150,138.098
      63.238,138.359
      63.327,138.617
      63.416,138.874
      63.504,139.129
      63.593,139.382
      63.682,139.633
      63.770,139.883
      63.859,140.130
      63.948,140.375
      64.036,140.619
      64.125,140.860
      64.214,141.100
      64.302,141.339
      64.391,141.577
      64.480,141.814
      64.568,142.049
      64.657,142.284
      64.746,142.517
      64.834,142.749
      64.923,142.980
      65.012,143.209
      65.100,143.438
      65.189,143.665
      65.278,143.890
      65.367,144.115
      65.455,144.338
      65.544,144.559
      65.633,144.780
      65.721,144.998
      65.810,145.216
      65.899,145.432
      65.987,145.646
      66.076,145.860
      66.165,146.071
      66.253,146.281
      66.342,146.490
      66.431,146.697
      66.519,146.902
      66.608,147.106
      66.697,147.309
      66.785,147.509
      66.874,147.708
      66.963,147.906
      67.051,148.102
      67.140,148.296
      67.229,148.488
      67.317,148.679
      67.406,148.870
      67.495,149.059
      67.583,149.248
      67.672,149.436
      67.761,149.623
      67.849,149.810
      67.938,149.995
      68.027,150.180
      68.116,150.363
      68.204,150.546
      68.293,150.728
      68.382,150.909
      68.470,151.089
      68.559,151.268
      68.648,151.446
      68.736,151.623
      68.825,151.799
      68.914,151.974
      69.002,152.148
      69.091,152.320
      69.180,152.492
      69.268,152.663
      69.357,152.832
      69.446,153.001
      69.534,153.168
      69.623,153.334
      69.712,153.499
      69.800,153.663
      69.889,153.826
      69.978,153.987
      70.066,154.147
      70.155,154.306
      70.244,154.464
      70.332,154.620
      70.421,154.776
      70.510,154.929
      70.598,155.082
      70.687,155.233
      70.776,155.383
      70.865,155.532
      70.953,155.679
      71.042,155.825
      71.131,155.969
      71.219,156.112
      71.308,156.254
      71.397,156.395
      71.485,156.536
      71.574,156.675
      71.663,156.814
      71.751,156.952
      71.840,157.090
      71.929,157.227
      72.017,157.363
      72.106,157.498
      72.195,157.633
      72.283,157.767
      72.372,157.900
      72.461,158.033
      72.549,158.165
      72.638,158.296
      72.727,158.426
      72.815,158.556
      72.904,158.685
      72.993,158.814
      73.081,158.942
      73.170,159.069
      73.259,159.195
      73.347,159.321
      73.436,159.446
      73.525,159.570
      73.614,159.694
      73.702,159.817
      73.791,159.939
      73.880,160.061
      73.968,160.182
      74.057,160.303
      74.146,160.422
      74.234,160.541
      74.323,160.660
      74.412,160.777
      74.500,160.895
      74.589,161.011
      74.678,161.127
      74.766,161.242
      74.855,161.356
      74.944,161.470
      75.032,161.583
      75.121,161.696
      75.210,161.808
      75.298,161.919
      75.387,162.030
      75.476,162.140
      75.564,162.249
      75.653,162.358
      75.742,162.466
      75.830,162.573
      75.919,162.680
      76.008,162.786
      76.097,162.892
      76.185,162.997
      76.274,163.101
      76.363,163.205
      76.451,163.308
      76.540,163.410
      76.629,163.512
      76.717,163.613
      76.806,163.714
      76.895,163.814
      76.983,163.914
      77.072,164.012
      77.161,164.110
      77.249,164.207
      77.338,164.303
      77.427,164.399
      77.515,164.493
      77.604,164.587
      77.693,164.681
      77.781,164.773
      77.870,164.865
      77.959,164.956
      78.047,165.046
      78.136,165.136
      78.225,165.225
      78.313,165.314
      78.402,165.401
      78.491,165.489
      78.579,165.575
      78.668,165.661
      78.757,165.746
      78.846,165.831
      78.934,165.915
      79.023,165.999
      79.112,166.082
      79.200,166.164
      79.289,166.246
      79.378,166.328
      79.466,166.409
      79.555,166.489
      79.644,166.569
      79.732,166.649
      79.821,166.728
      79.910,166.806
      79.998,166.884
      80.087,166.962
      80.176,167.039
      80.264,167.116
      80.353,167.192
      80.442,167.268
      80.530,167.343
      80.619,167.418
      80.708,167.493
      80.796,167.567
      80.885,167.641
      80.974,167.714
      81.062,167.787
      81.151,167.859
      81.240,167.931
      81.328,168.003
      81.417,168.074
      81.506,168.145
      81.595,168.215
      81.683,168.285
      81.772,168.354
      81.861,168.423
      81.949,168.491
      82.038,168.559
      82.127,168.627
      82.215,168.694
      82.304,168.761
      82.393,168.827
      82.481,168.893
      82.570,168.958
      82.659,169.023
      82.747,169.088
      82.836,169.152
      82.925,169.216
      83.013,169.279
      83.102,169.342
      83.191,169.404
      83.279,169.466
      83.368,169.528
      83.457,169.589
      83.545,169.650
      83.634,169.710
      83.723,169.770
      83.811,169.830
      83.900,169.889
      83.989,169.948
      84.078,170.007
      84.166,170.065
      84.255,170.123
      84.344,170.181
      84.432,170.238
      84.521,170.295
      84.610,170.351
      84.698,170.408
      84.787,170.463
      84.876,170.519
      84.964,170.574
      85.053,170.629
      85.142,170.684
      85.230,170.738
      85.319,170.792
      85.408,170.845
      85.496,170.898
      85.585,170.951
      85.674,171.003
      85.762,171.055
      85.851,171.107
      85.940,171.159
      86.028,171.210
      86.117,171.260
      86.206,171.311
      86.294,171.361
      86.383,171.410
      86.472,171.460
      86.560,171.509
      86.649,171.557
      86.738,171.606
      86.827,171.654
      86.915,171.701
      87.004,171.749
      87.093,171.796
      87.181,171.843
      87.270,171.890
      87.359,171.936
      87.447,171.982
      87.536,172.028
      87.625,172.074
      87.713,172.119
      87.802,172.164
      87.891,172.209
      87.979,172.253
      88.068,172.297
      88.157,172.341
      88.245,172.385
      88.334,172.428
      88.423,172.472
      88.511,172.514
      88.600,172.557
      88.689,172.599
      88.777,172.641
      88.866,172.683
      88.955,172.724
      89.043,172.766
      89.132,172.807
      89.221,172.847
      89.309,172.888
      89.398,172.928
      89.487,172.967
      89.576,173.007
      89.664,173.046
      89.753,173.085
      89.842,173.124
      89.930,173.162
      90.019,173.201
      90.108,173.239
      90.196,173.276
      90.285,173.314
      90.374,173.351
      90.462,173.389
      90.551,173.425
      90.640,173.462
      90.728,173.499
      90.817,173.535
      90.906,173.571
      90.994,173.607
      91.083,173.642
      91.172,173.678
      91.260,173.713
      91.349,173.748
      91.438,173.783
      91.526,173.817
      91.615,173.852
      91.704,173.886
      91.792,173.920
      91.881,173.953
      91.970,173.987
      92.058,174.020
      92.147,174.053
      92.236,174.086
      92.325,174.118
      92.413,174.151
      92.502,174.183
      92.591,174.215
      92.679,174.246
      92.768,174.278
      92.857,174.309
      92.945,174.340
      93.034,174.371
      93.123,174.402
      93.211,174.432
      93.300,174.462
      93.389,174.492
      93.477,174.522
      93.566,174.552
      93.655,174.582
      93.743,174.611
      93.832,174.640
      93.921,174.669
      94.009,174.698
      94.098,174.727
      94.187,174.755
      94.275,174.784
      94.364,174.812
      94.453,174.840
      94.541,174.868
      94.630,174.895
      94.719,174.923
      94.808,174.950
      94.896,174.977
      94.985,175.004
      95.074,175.031
      95.162,175.058
      95.251,175.084
      95.340,175.110
      95.428,175.137
      95.517,175.162
      95.606,175.188
      95.694,175.214
      95.783,175.239
      95.872,175.264
      95.960,175.290
      96.049,175.314
      96.138,175.339
      96.226,175.364
      96.315,175.388
      96.404,175.412
      96.492,175.436
      96.581,175.460
      96.670,175.484
      96.758,175.508
      96.847,175.531
      96.936,175.555
      97.024,175.578
      97.113,175.601
      97.202,175.624
      97.290,175.647
      97.379,175.670
      97.468,175.692
      97.557,175.715
      97.645,175.737
      97.734,175.759
      97.823,175.781
      97.911,175.803
      98.000,175.825
      98.089,175.846
      98.177,175.868
      98.266,175.889
      98.355,175.910
      98.443,175.931
      98.532,175.952
      98.621,175.973
      98.709,175.994
      98.798,176.014
      98.887,176.035
      98.975,176.055
      99.064,176.075
      99.153,176.095
      99.241,176.115
      99.330,176.134
      99.419,176.154
      99.507,176.173
      99.596,176.193
      99.685,176.212
      99.773,176.231
      99.862,176.250
      99.951,176.269
      100.039,176.287
      100.128,176.306
      100.217,176.325
      100.306,176.343
      100.394,176.361
      100.483,176.379
      100.572,176.397
      100.660,176.415
      100.749,176.433
      100.838,176.451
      100.926,176.469
      101.015,176.486
      101.104,176.504
      101.192,176.521
      101.281,176.538
      101.370,176.555
      101.458,176.572
      101.547,176.589
      101.636,176.606
      101.724,176.623
      101.813,176.639
      101.902,176.656
      101.990,176.672
      102.079,176.688
      102.168,176.704
      102.256,176.720
      102.345,176.736
      102.434,176.752
      102.522,176.768
      102.611,176.783
      102.700,176.799
      102.788,176.814
      102.877,176.829
      102.966,176.844
      103.055,176.860
      103.143,176.875
      103.232,176.889
      103.321,176.904
      103.409,176.919
      103.498,176.934
      103.587,176.948
      103.675,176.963
      103.764,176.977
      103.853,176.991
      103.941,177.006
      104.030,177.020
      104.119,177.034
      104.207,177.048
      104.296,177.062
      104.385,177.075
      104.473,177.089
      104.562,177.103
      104.651,177.116
      104.739,177.130
      104.828,177.143
      104.917,177.156
      105.005,177.170
      105.094,177.183
      105.183,177.196
      105.271,177.209
      105.360,177.221
      105.449,177.234
      105.538,177.247
      105.626,177.259
      105.715,177.272
      105.804,177.284
      105.892,177.297
      105.981,177.309
      106.070,177.321
      106.158,177.333
      106.247,177.345
      106.336,177.357
      106.424,177.369
      106.513,177.381
      106.602,177.392
      106.690,177.404
      106.779,177.416
      106.868,177.427
      106.956,177.439
      107.045,177.450
      107.134,177.461
      107.222,177.473
      107.311,177.484
      107.400,177.495
      107.488,177.506
      107.577,177.517
      107.666,177.528
      107.754,177.539
      107.843,177.550
      107.932,177.560
      108.020,177.571
      108.109,177.581
      108.198,177.592
      108.287,177.602
      108.375,177.613
      108.464,177.623
      108.553,177.633
      108.641,177.644
      108.730,177.654
      108.819,177.664
      108.907,177.674
      108.996,177.683
      109.085,177.693
      109.173,177.703
      109.262,177.713
      109.351,177.722
      109.439,177.732
      109.528,177.741
      109.617,177.751
      109.705,177.760
      109.794,177.770
      109.883,177.779
      109.971,177.788
      110.060,177.797
      110.149,177.806
      110.237,177.816
      110.326,177.825
      110.415,177.834
      110.503,177.842
      110.592,177.851
      110.681,177.860
      110.769,177.869
      110.858,177.878
      110.947,177.886
      111.036,177.895
      111.124,177.903
      111.213,177.912
      111.302,177.920
      111.390,177.929
      111.479,177.937
      111.568,177.945
      111.656,177.953
      111.745,177.962
      111.834,177.970
      111.922,177.978
      112.011,177.986
      112.100,177.994
      112.188,178.002
      112.277,178.009
      112.366,178.017
      112.454,178.025
      112.543,178.033
      112.632,178.040
      112.720,178.048
      112.809,178.055
      112.898,178.063
      112.986,178.070
      113.075,178.078
      113.164,178.085
      113.252,178.092
      113.341,178.100
      113.430,178.107
      113.519,178.114
      113.607,178.121
      113.696,178.128
      113.785,178.135
      113.873,178.143
      113.962,178.150
      114.051,178.156
      114.139,178.163
      114.228,178.170
      114.317,178.177
      114.405,178.184
      114.494,178.191
      114.583,178.197
      114.671,178.204
      114.760,178.210
      114.849,178.217
      114.937,178.223
      115.026,178.230
      115.115,178.236
      115.203,178.243
      115.292,178.249
      115.381,178.255
      115.469,178.262
      115.558,178.268
      115.647,178.274
      115.735,178.280
      115.824,178.286
      115.913,178.292
      116.001,178.298
      116.090,178.304
      116.179,178.310
      116.268,178.316
      116.356,178.322
      116.445,178.328
      116.534,178.334
      116.622,178.340
      116.711,178.345
      116.800,178.351
      116.888,178.357
      116.977,178.362
      117.066,178.368
      117.154,178.374
      117.243,178.379
      117.332,178.385
      117.420,178.390
      117.509,178.396
      117.598,178.401
      117.686,178.406
      117.775,178.412
      117.864,178.417
      117.952,178.422
      118.041,178.428
      118.130,178.433
      118.218,178.438
      118.307,178.443
      118.396,178.448
      118.484,178.453
      118.573,178.458
      118.662,178.462
      118.750,178.467
      118.839,178.472
      118.928,178.477
      119.017,178.481
      119.105,178.486
      119.194,178.490
      119.283,178.495
      119.371,178.499
      119.460,178.504
      119.549,178.508
      119.637,178.512
      119.726,178.517
      119.815,178.521
      119.903,178.525
      119.992,178.529
      120.081,178.533
      120.169,178.537
      120.258,178.541
      120.347,178.545
      120.435,178.549
      120.524,178.553
      120.613,178.557
      120.701,178.561
      120.790,178.565
      120.879,178.569
      120.967,178.573
      121.056,178.576
      121.145,178.580
      121.233,178.584
      121.322,178.588
      121.411,178.591
      121.499,178.595
      121.588,178.599
      121.677,178.603
      121.766,178.606
      121.854,178.610
      121.943,178.614
      122.032,178.617
      122.120,178.621
      122.209,178.625
      122.298,178.628
      122.386,178.632
      122.475,178.636
      122.564,178.639
      122.652,178.643
      122.741,178.647
      122.830,178.650
      122.918,178.654
      123.007,178.657
      123.096,178.661
      123.184,178.665
      123.273,178.668
      123.362,178.672
      123.450,178.675
      123.539,178.679
      123.628,178.682
      123.716,178.686
      123.805,178.689
      123.894,178.693
      123.982,178.696
      124.071,178.699
      124.160,178.703
      124.249,178.706
      124.337,178.710
      124.426,178.713
      124.515,178.716
      124.603,178.720
      124.692,178.723
      124.781,178.726
      124.869,178.729
      124.958,178.733
      125.047,178.736
      125.135,178.739
      125.224,178.742
      125.313,178.745
      125.401,178.748
      125.490,178.751
      125.579,178.754
      125.667,178.757
      125.756,178.760
      125.845,178.763
      125.933,178.766
      126.022,178.769
      126.111,178.772
      126.199,178.775
      126.288,178.778
      126.377,178.781
      126.465,178.783
      126.554,178.786
      126.643,178.789
      126.731,178.792
      126.820,178.795
      126.909,178.797
      126.998,178.800
      127.086,178.803
      127.175,178.806
      127.264,178.808
      127.352,178.811
      127.441,178.814
      127.530,178.816
      127.618,178.819
      127.707,178.821
      127.796,178.824
      127.884,178.827
      127.973,178.829
      128.062,178.832
      128.150,178.834
      128.239,178.837
      128.328,178.839
      128.416,178.842
      128.505,178.844
      128.594,178.847
      128.682,178.849
      128.771,178.851
      128.860,178.854
      128.948,178.856
      129.037,178.858
      129.126,178.861
      129.214,178.863
      129.303,178.865
      129.392,178.868
      129.480,178.870
      129.569,178.872
      129.658,178.875
      129.747,178.877
      129.835,178.879
      129.924,178.881
      130.013,178.884
      130.101,178.886
      130.190,178.888
      130.279,178.890
      130.367,178.892
      130.456,178.894
      130.545,178.896
      130.633,178.899
      130.722,178.901
      130.811,178.903
      130.899,178.905
      130.988,178.907
      131.077,178.909
      131.165,178.911
      131.254,178.913
      131.343,178.915
      131.431,178.917
      131.520,178.919
      131.609,178.921
      131.697,178.923
      131.786,178.925
      131.875,178.927
      131.963,178.929
      132.052,178.931
      132.141,178.932
      132.230,178.934
      132.318,178.936
      132.407,178.938
      132.496,178.940
      132.584,178.942
      132.673,178.944
      132.762,178.945
      132.850,178.947
      132.939,178.949
      133.028,178.951
      133.116,178.953
      133.205,178.954
      133.294,178.956
      133.382,178.958
      133.471,178.960
      133.560,178.961
      133.648,178.963
      133.737,178.965
      133.826,178.966
      133.914,178.968
      134.003,178.970
      134.092,178.971
      134.180,178.973
      134.269,178.975
      134.358,178.976
      134.446,178.978
      134.535,178.979
      134.624,178.981
      134.712,178.983
      134.801,178.984
      134.890,178.986
      134.979,178.987
      135.067,178.989
      135.156,178.990
      135.245,178.992
      135.333,178.993
      135.422,178.995
      135.511,178.996
      135.599,178.998
      135.688,178.999
      135.777,179.001
      135.865,179.002
      135.954,179.004
      136.043,179.005
      136.131,179.007
      136.220,179.008
      136.309,179.010
      136.397,179.011
      136.486,179.012
      136.575,179.014
      136.663,179.015
      136.752,179.017
      136.841,179.018
      136.929,179.019
      137.018,179.021
      137.107,179.022
      137.195,179.023
      137.284,179.025
      137.373,179.026
      137.461,179.027
      137.550,179.029
      137.639,179.030
      137.728,179.031
      137.816,179.032
      137.905,179.034
      137.994,179.035
      138.082,179.036
      138.171,179.037
      138.260,179.038
      138.348,179.039
      138.437,179.041
      138.526,179.042
      138.614,179.043
      138.703,179.044
      138.792,179.045
      138.880,179.046
      138.969,179.047
      139.058,179.048
      139.146,179.049
      139.235,179.050
      139.324,179.051
      139.412,179.052
      139.501,179.053
      139.590,179.055
      139.678,179.056
      139.767,179.057
      139.856,179.058
      139.944,179.059
      140.033,179.060
      140.122,179.061
      140.210,179.062
      140.299,179.063
      140.388,179.064
      140.477,179.065
      140.565,179.066
      140.654,179.067
      140.743,179.068
      140.831,179.069
      140.920,179.070
      141.009,179.071
      141.097,179.072
      141.186,179.073
      141.275,179.074
      141.363,179.075
      141.452,179.076
      141.541,179.077
      141.629,179.078
      141.718,179.079
      141.807,179.080
      141.895,179.081
      141.984,179.082
      142.073,179.083
      142.161,179.084
      142.250,179.085
      142.339,179.085
      142.427,179.086
      142.516,179.087
      142.605,179.088
      142.693,179.089
      142.782,179.090
      142.871,179.091
      142.960,179.092
      143.048,179.093
      143.137,179.094
      143.226,179.095
      143.314,179.095
      143.403,179.096
      143.492,179.097
      143.580,179.098
      143.669,179.099
      143.758,179.100
      143.846,179.101
      143.935,179.102
      144.024,179.102
      144.112,179.103
      144.201,179.104
      144.290,179.105
      144.378,179.106
      144.467,179.107
      144.556,179.107
      144.644,179.108
      144.733,179.109
      144.822,179.110
      144.910,179.111
      144.999,179.111
      145.088,179.112
      145.176,179.113
      145.265,179.114
      145.354,179.114
      145.442,179.115
      145.531,179.116
      145.620,179.117
      145.709,179.117
      145.797,179.118
      145.886,179.119
      145.975,179.120
      146.063,179.120
      146.152,179.121
      146.241,179.122
      146.329,179.122
      146.418,179.123
      146.507,179.124
      146.595,179.125
      146.684,179.125
      146.773,179.126
      146.861,179.127
      146.950,179.127
      147.039,179.128
      147.127,179.129
      147.216,179.129
      147.305,179.130
      147.393,179.131
      147.482,179.131
      147.571,179.132
      147.659,179.132
      147.748,179.133
      147.837,179.134
      147.925,179.134
      148.014,179.135
      148.103,179.135
      148.191,179.136
      148.280,179.137
      148.369,179.137
      148.458,179.138
      148.546,179.138
      148.635,179.139
      148.724,179.139
      148.812,179.140
      148.901,179.140
      148.990,179.141
      149.078,179.142
      149.167,179.142
      149.256,179.143
      149.344,179.143
      149.433,179.144
      149.522,179.144
      149.610,179.145
      149.699,179.145
      149.788,179.146
      149.876,179.146
      149.965,179.147
      150.054,179.148
      150.142,179.148
      150.231,179.149
      150.320,179.149
      150.408,179.150
      150.497,179.150
      150.586,179.151
      150.674,179.151
      150.763,179.152
      150.852,179.152
      150.941,179.153
      151.029,179.153
      151.118,179.154
      151.207,179.154
      151.295,179.155
      151.384,179.155
      151.473,179.156
      151.561,179.156
      151.650,179.156
      151.739,179.157
      151.827,179.157
      151.916,179.158
      152.005,179.158
      152.093,179.159
      152.182,179.159
      152.271,179.160
      152.359,179.160
      152.448,179.161
      152.537,179.161
      152.625,179.162
      152.714,179.162
      152.803,179.162
      152.891,179.163
      152.980,179.163
      153.069,179.164
      153.157,179.164
      153.246,179.165
      153.335,179.165
      153.423,179.165
      153.512,179.166
      153.601,179.166
      153.690,179.167
      153.778,179.167
      153.867,179.168
      153.956,179.168
      154.044,179.168
      154.133,179.169
      154.222,179.169
      154.310,179.170
      154.399,179.170
      154.488,179.170
      154.576,179.171
      154.665,179.171
      154.754,179.171
      154.842,179.172
      154.931,179.172
      155.020,179.173
      155.108,179.173
      155.197,179.173
      155.286,179.174
      155.374,179.174
      155.463,179.174
      155.552,179.175
      155.640,179.175
      155.729,179.176
      155.818,179.176
      155.906,179.176
      155.995,179.177
      156.084,179.177
      156.172,179.177
      156.261,179.178
      156.350,179.178
      156.439,179.178
      156.527,179.179
      156.616,179.179
      156.705,179.179
      156.793,179.180
      156.882,179.180
      156.971,179.180
      157.059,179.181
      157.148,179.181
      157.237,179.181
      157.325,179.181
      157.414,179.182
      157.503,179.182
      157.591,179.182
      157.680,179.183
      157.769,179.183
      157.857,179.183
      157.946,179.183
      158.035,179.184
      158.123,179.184
      158.212,179.184
      158.301,179.185
      158.389,179.185
      158.478,179.185
      158.567,179.185
      158.655,179.186
      158.744,179.186
      158.833,179.186
      158.921,179.187
      159.010,179.187
      159.099,179.187
      159.188,179.187
      159.276,179.188
      159.365,179.188
      159.454,179.188
      159.542,179.188
      159.631,179.189
      159.720,179.189
      159.808,179.189
      159.897,179.190
      159.986,179.190
      160.074,179.190
      160.163,179.190
      160.252,179.191
      160.340,179.191
      160.429,179.191
      160.518,179.191
      160.606,179.192
      160.695,179.192
      160.784,179.192
      160.872,179.192
      160.961,179.193
      161.050,179.193
      161.138,179.193
      161.227,179.193
      161.316,179.194
      161.404,179.194
      161.493,179.194
      161.582,179.194
      161.671,179.194
      161.759,179.195
      161.848,179.195
      161.937,179.195
      162.025,179.195
      162.114,179.196
      162.203,179.196
      162.291,179.196
      162.380,179.196
      162.469,179.197
      162.557,179.197
      162.646,179.197
      162.735,179.197
      162.823,179.197
      162.912,179.198
      163.001,179.198
      163.089,179.198
      163.178,179.198
      163.267,179.198
      163.355,179.199
      163.444,179.199
      163.533,179.199
      163.621,179.199
      163.710,179.199
      163.799,179.200
      163.887,179.200
      163.976,179.200
      164.065,179.200
      164.153,179.200
      164.242,179.201
      164.331,179.201
      164.420,179.201
      164.508,179.201
      164.597,179.201
      164.686,179.202
      164.774,179.202
      164.863,179.202
      164.952,179.202
      165.040,179.202
      165.129,179.203
      165.218,179.203
      165.306,179.203
      165.395,179.203
      165.484,179.203
      165.572,179.203
      165.661,179.204
      165.750,179.204
      165.838,179.204
      165.927,179.204
      166.016,179.204
      166.104,179.204
      166.193,179.205
      166.282,179.205
      166.370,179.205
      166.459,179.205
      166.548,179.205
      166.636,179.205
      166.725,179.206
      166.814,179.206
      166.902,179.206
      166.991,179.206
      167.080,179.206
      167.169,179.206
      167.257,179.206
      167.346,179.207
      167.435,179.207
      167.523,179.207
      167.612,179.207
      167.701,179.207
      167.789,179.207
      167.878,179.207
      167.967,179.208
      168.055,179.208
      168.144,179.208
      168.233,179.208
      168.321,179.208
      168.410,179.208
      168.499,179.208
      168.587,179.209
      168.676,179.209
      168.765,179.209
      168.853,179.209
      168.942,179.209
      169.031,179.209
      169.119,179.209
      169.208,179.209
      169.297,179.210
      169.385,179.210
      169.474,179.210
      169.563,179.210
      169.652,179.210
      169.740,179.210
      169.829,179.210
      169.918,179.210
      170.006,179.211
      170.095,179.211
      170.184,179.211
      170.272,179.211
      170.361,179.211
      170.450,179.211
      170.538,179.211
      170.627,179.211
      170.716,179.211
      170.804,179.212
      170.893,179.212
      170.982,179.212
      171.070,179.212
      171.159,179.212
      171.248,179.212
      171.336,179.212
      171.425,179.212
      171.514,179.212
      171.602,179.212
      171.691,179.213
      171.780,179.213
      171.868,179.213
      171.957,179.213
      172.046,179.213
      172.134,179.213
      172.223,179.213
      172.312,179.213
      172.401,179.213
      172.489,179.213
      172.578,179.214
      172.667,179.214
      172.755,179.214
      172.844,179.214
      172.933,179.214
      173.021,179.214
      173.110,179.214
      173.199,179.214
      173.287,179.214
      173.376,179.214
      173.465,179.215
      173.553,179.215
      173.642,179.215
      173.731,179.215
      173.819,179.215
      173.908,179.215
      173.997,179.215
      174.085,179.215
      174.174,179.215
      174.263,179.215
      174.351,179.216
      174.440,179.216
      174.529,179.216
      174.617,179.216
      174.706,179.216
      174.795,179.216
      174.883,179.216
      174.972,179.216
      175.061,179.216
      175.150,179.216
      175.238,179.217
      175.327,179.217
      175.416,179.217
      175.504,179.217
      175.593,179.217
      175.682,179.217
      175.770,179.217
      175.859,179.217
      175.948,179.217
      176.036,179.218
      176.125,179.218
      176.214,179.218
      176.302,179.218
      176.391,179.218
      176.480,179.218
      176.568,179.218
      176.657,179.218
      176.746,179.218
      176.834,179.218
      176.923,179.219
    " />
  </g>

  <!-- точка (-1;3) -->
  <circle cx="61.538" cy="133.077" r="2.2" fill="#2d70b3" stroke="#2d70b3" stroke-width="0.6" />

  <!-- стрелка оси x поверх графика -->
  <g stroke="#111827" stroke-width="1.25">
    <line x1="169.615" y1="179.231" x2="184.615" y2="179.231" marker-end="url(#axis-arrow)" />
  </g>

  <!-- подпись -->
  <text x="27" y="93"
        font-family="Georgia, 'Times New Roman', serif"
        font-style="italic"
        font-size="13"
        fill="#2d70b3">f(x)</text>
</svg>
