<svg xmlns="http://www.w3.org/2000/svg" width="220" height="220" viewBox="0 0 220 220">
  <rect x="0" y="0" width="220" height="220" fill="white" />

  <defs>
    <marker id="axis-arrow"
            viewBox="0 0 15 8"
            refX="13" refY="4"
            markerWidth="12" markerHeight="6.4"
            orient="auto"
            markerUnits="userSpaceOnUse">
      <path d="M 3 0 L 15 4 L 3 8 L 7 4 Z" fill="black" />
    </marker>
  </defs>

  <!-- сетка: x от -4 до 7, y от -2 до 11 -->
  <g stroke="#d1d5db" stroke-width="0.5" shape-rendering="crispEdges">
    <line x1="30.769" y1="10.000" x2="30.769" y2="210.000" />
    <line x1="46.154" y1="10.000" x2="46.154" y2="210.000" />
    <line x1="61.538" y1="10.000" x2="61.538" y2="210.000" />
    <line x1="76.923" y1="10.000" x2="76.923" y2="210.000" />
    <line x1="92.308" y1="10.000" x2="92.308" y2="210.000" />
    <line x1="107.692" y1="10.000" x2="107.692" y2="210.000" />
    <line x1="123.077" y1="10.000" x2="123.077" y2="210.000" />
    <line x1="138.462" y1="10.000" x2="138.462" y2="210.000" />
    <line x1="153.846" y1="10.000" x2="153.846" y2="210.000" />
    <line x1="169.231" y1="10.000" x2="169.231" y2="210.000" />
    <line x1="15.385" y1="194.615" x2="184.615" y2="194.615" />
    <line x1="15.385" y1="179.231" x2="184.615" y2="179.231" />
    <line x1="15.385" y1="163.846" x2="184.615" y2="163.846" />
    <line x1="15.385" y1="148.462" x2="184.615" y2="148.462" />
    <line x1="15.385" y1="133.077" x2="184.615" y2="133.077" />
    <line x1="15.385" y1="117.692" x2="184.615" y2="117.692" />
    <line x1="15.385" y1="102.308" x2="184.615" y2="102.308" />
    <line x1="15.385" y1="86.923" x2="184.615" y2="86.923" />
    <line x1="15.385" y1="71.538" x2="184.615" y2="71.538" />
    <line x1="15.385" y1="56.154" x2="184.615" y2="56.154" />
    <line x1="15.385" y1="40.769" x2="184.615" y2="40.769" />
    <line x1="15.385" y1="25.385" x2="184.615" y2="25.385" />
  </g>

  <!-- оси -->
  <g stroke="#111827" stroke-width="1.25">
    <line x1="15.385" y1="179.231" x2="184.615" y2="179.231" />
    <line x1="76.923" y1="210.000" x2="76.923" y2="10.000" marker-end="url(#axis-arrow)" />
  </g>

  <!-- подписи осей и делений -->
  <g font-family="sans-serif" font-size="11" fill="#111827">
    <text x="72.923" y="192.231" text-anchor="end"
          font-size="13" font-style="italic"
          font-family="Georgia, 'Times New Roman', serif">O</text>

    <rect x="88.808" y="182.231" width="7" height="12" fill="white" />
    <text x="92.308" y="193.231" text-anchor="middle" font-size="13"
          font-family="'Times New Roman', serif"
          font-weight="300">1</text>

    <text x="69.923" y="167.846" text-anchor="end" font-size="13"
          font-family="'Times New Roman', serif"
          font-weight="300">1</text>

    <text x="181.615" y="192.231" text-anchor="start"
          font-family="Georgia, 'Times New Roman', serif"
          font-style="italic" font-size="13">x</text>

    <text x="73.923" y="13.000" text-anchor="end"
          font-family="Georgia, 'Times New Roman', serif"
          font-style="italic" font-size="13">y</text>
  </g>

  <!-- интерполяция (PCHIP) -->
  <g stroke="#2d70b3" stroke-width="1.25" fill="none"
     stroke-linecap="round" stroke-linejoin="round">
    <polyline points="
      50.828,17.692
      50.918,18.977
      51.009,20.267
      51.099,21.558
      51.189,22.842
      51.279,24.117
      51.369,25.375
      51.459,26.619
      51.549,27.854
      51.640,29.079
      51.730,30.294
      51.820,31.499
      51.910,32.693
      52.000,33.878
      52.090,35.054
      52.180,36.220
      52.270,37.377
      52.361,38.525
      52.451,39.663
      52.541,40.792
      52.631,41.911
      52.721,43.022
      52.811,44.124
      52.901,45.217
      52.991,46.301
      53.082,47.377
      53.172,48.443
      53.262,49.500
      53.352,50.549
      53.442,51.590
      53.532,52.623
      53.622,53.648
      53.713,54.664
      53.803,55.671
      53.893,56.670
      53.983,57.661
      54.073,58.644
      54.163,59.620
      54.253,60.588
      54.343,61.548
      54.434,62.500
      54.524,63.444
      54.614,64.380
      54.704,65.308
      54.794,66.230
      54.884,67.144
      54.974,68.052
      55.065,68.951
      55.155,69.844
      55.245,70.728
      55.335,71.605
      55.425,72.475
      55.515,73.338
      55.605,74.195
      55.695,75.045
      55.786,75.889
      55.876,76.725
      55.966,77.554
      56.056,78.377
      56.146,79.192
      56.236,80.000
      56.326,80.802
      56.417,81.599
      56.507,82.389
      56.597,83.173
      56.687,83.950
      56.777,84.722
      56.867,85.486
      56.957,86.244
      57.047,86.995
      57.138,87.740
      57.228,88.480
      57.318,89.214
      57.408,89.943
      57.498,90.666
      57.588,91.383
      57.678,92.094
      57.768,92.799
      57.859,93.498
      57.949,94.191
      58.039,94.878
      58.129,95.559
      58.219,96.236
      58.309,96.907
      58.399,97.574
      58.490,98.235
      58.580,98.891
      58.670,99.541
      58.760,100.186
      58.850,100.826
      58.940,101.460
      59.030,102.088
      59.120,102.710
      59.211,103.329
      59.301,103.942
      59.391,104.552
      59.481,105.156
      59.571,105.756
      59.661,106.351
      59.751,106.941
      59.842,107.527
      59.932,108.107
      60.022,108.683
      60.112,109.253
      60.202,109.818
      60.292,110.378
      60.382,110.934
      60.472,111.486
      60.563,112.034
      60.653,112.578
      60.743,113.118
      60.833,113.653
      60.923,114.185
      61.013,114.712
      61.103,115.234
      61.194,115.752
      61.284,116.266
      61.374,116.775
      61.464,117.279
      61.554,117.778
      61.644,118.274
      61.734,118.766
      61.824,119.255
      61.915,119.740
      62.005,120.222
      62.095,120.700
      62.185,121.174
      62.275,121.645
      62.365,122.112
      62.455,122.575
      62.545,123.034
      62.636,123.489
      62.726,123.940
      62.816,124.387
      62.906,124.829
      62.996,125.268
      63.086,125.702
      63.176,126.134
      63.267,126.562
      63.357,126.988
      63.447,127.411
      63.537,127.831
      63.627,128.247
      63.717,128.661
      63.807,129.071
      63.897,129.478
      63.988,129.881
      64.078,130.282
      64.168,130.679
      64.258,131.072
      64.348,131.462
      64.438,131.848
      64.528,132.230
      64.619,132.609
      64.709,132.984
      64.799,133.356
      64.889,133.725
      64.979,134.092
      65.069,134.457
      65.159,134.819
      65.249,135.178
      65.340,135.535
      65.430,135.890
      65.520,136.242
      65.610,136.591
      65.700,136.937
      65.790,137.281
      65.880,137.621
      65.971,137.959
      66.061,138.294
      66.151,138.626
      66.241,138.955
      66.331,139.281
      66.421,139.604
      66.511,139.923
      66.601,140.240
      66.692,140.553
      66.782,140.863
      66.872,141.171
      66.962,141.477
      67.052,141.781
      67.142,142.083
      67.232,142.383
      67.322,142.681
      67.413,142.977
      67.503,143.272
      67.593,143.564
      67.683,143.854
      67.773,144.141
      67.863,144.427
      67.953,144.710
      68.044,144.991
      68.134,145.270
      68.224,145.546
      68.314,145.820
      68.404,146.092
      68.494,146.361
      68.584,146.627
      68.674,146.891
      68.765,147.153
      68.855,147.411
      68.945,147.667
      69.035,147.921
      69.125,148.171
      69.215,148.419
      69.305,148.665
      69.396,148.909
      69.486,149.152
      69.576,149.393
      69.666,149.634
      69.756,149.872
      69.846,150.110
      69.936,150.345
      70.026,150.580
      70.117,150.813
      70.207,151.044
      70.297,151.273
      70.387,151.502
      70.477,151.728
      70.567,151.953
      70.657,152.176
      70.748,152.397
      70.838,152.616
      70.928,152.834
      71.018,153.050
      71.108,153.264
      71.198,153.476
      71.288,153.686
      71.378,153.894
      71.469,154.100
      71.559,154.304
      71.649,154.506
      71.739,154.706
      71.829,154.904
      71.919,155.100
      72.009,155.294
      72.099,155.485
      72.190,155.674
      72.280,155.861
      72.370,156.045
      72.460,156.228
      72.550,156.409
      72.640,156.589
      72.730,156.767
      72.821,156.945
      72.911,157.122
      73.001,157.297
      73.091,157.471
      73.181,157.645
      73.271,157.817
      73.361,157.988
      73.451,158.157
      73.542,158.326
      73.632,158.494
      73.722,158.660
      73.812,158.826
      73.902,158.990
      73.992,159.153
      74.082,159.315
      74.173,159.476
      74.263,159.636
      74.353,159.794
      74.443,159.952
      74.533,160.108
      74.623,160.264
      74.713,160.418
      74.803,160.571
      74.894,160.723
      74.984,160.873
      75.074,161.023
      75.164,161.172
      75.254,161.319
      75.344,161.465
      75.434,161.611
      75.525,161.755
      75.615,161.898
      75.705,162.039
      75.795,162.180
      75.885,162.320
      75.975,162.458
      76.065,162.596
      76.155,162.732
      76.246,162.867
      76.336,163.001
      76.426,163.134
      76.516,163.265
      76.606,163.396
      76.696,163.525
      76.786,163.654
      76.876,163.781
      76.967,163.907
      77.057,164.032
      77.147,164.156
      77.237,164.279
      77.327,164.400
      77.417,164.521
      77.507,164.641
      77.598,164.759
      77.688,164.877
      77.778,164.994
      77.868,165.109
      77.958,165.224
      78.048,165.337
      78.138,165.450
      78.228,165.562
      78.319,165.672
      78.409,165.782
      78.499,165.891
      78.589,165.999
      78.679,166.106
      78.769,166.212
      78.859,166.317
      78.950,166.421
      79.040,166.524
      79.130,166.627
      79.220,166.728
      79.310,166.829
      79.400,166.929
      79.490,167.028
      79.580,167.126
      79.671,167.224
      79.761,167.320
      79.851,167.416
      79.941,167.511
      80.031,167.605
      80.121,167.698
      80.211,167.791
      80.302,167.883
      80.392,167.974
      80.482,168.065
      80.572,168.155
      80.662,168.244
      80.752,168.333
      80.842,168.421
      80.932,168.509
      81.023,168.595
      81.113,168.681
      81.203,168.767
      81.293,168.852
      81.383,168.936
      81.473,169.019
      81.563,169.102
      81.653,169.184
      81.744,169.266
      81.834,169.347
      81.924,169.427
      82.014,169.507
      82.104,169.586
      82.194,169.664
      82.284,169.741
      82.375,169.818
      82.465,169.895
      82.555,169.970
      82.645,170.045
      82.735,170.120
      82.825,170.193
      82.915,170.267
      83.005,170.339
      83.096,170.411
      83.186,170.482
      83.276,170.552
      83.366,170.622
      83.456,170.691
      83.546,170.760
      83.636,170.828
      83.727,170.896
      83.817,170.963
      83.907,171.030
      83.997,171.096
      84.087,171.162
      84.177,171.227
      84.267,171.292
      84.357,171.356
      84.448,171.420
      84.538,171.483
      84.628,171.546
      84.718,171.608
      84.808,171.670
      84.898,171.731
      84.988,171.792
      85.079,171.853
      85.169,171.912
      85.259,171.972
      85.349,172.031
      85.439,172.089
      85.529,172.147
      85.619,172.205
      85.709,172.262
      85.800,172.318
      85.890,172.374
      85.980,172.430
      86.070,172.485
      86.160,172.539
      86.250,172.593
      86.340,172.647
      86.430,172.700
      86.521,172.752
      86.611,172.804
      86.701,172.856
      86.791,172.907
      86.881,172.958
      86.971,173.009
      87.061,173.059
      87.152,173.109
      87.242,173.158
      87.332,173.207
      87.422,173.256
      87.512,173.304
      87.602,173.352
      87.692,173.400
      87.782,173.447
      87.873,173.494
      87.963,173.541
      88.053,173.587
      88.143,173.633
      88.233,173.678
      88.323,173.723
      88.413,173.768
      88.504,173.812
      88.594,173.856
      88.684,173.900
      88.774,173.943
      88.864,173.986
      88.954,174.028
      89.044,174.071
      89.134,174.112
      89.225,174.154
      89.315,174.195
      89.405,174.236
      89.495,174.276
      89.585,174.316
      89.675,174.355
      89.765,174.395
      89.856,174.434
      89.946,174.472
      90.036,174.510
      90.126,174.548
      90.216,174.586
      90.306,174.624
      90.396,174.661
      90.486,174.698
      90.577,174.734
      90.667,174.771
      90.757,174.807
      90.847,174.843
      90.937,174.878
      91.027,174.913
      91.117,174.948
      91.207,174.983
      91.298,175.018
      91.388,175.052
      91.478,175.086
      91.568,175.119
      91.658,175.153
      91.748,175.186
      91.838,175.219
      91.929,175.251
      92.019,175.284
      92.109,175.316
      92.199,175.347
      92.289,175.379
      92.379,175.410
      92.469,175.441
      92.559,175.472
      92.650,175.502
      92.740,175.532
      92.830,175.562
      92.920,175.591
      93.010,175.621
      93.100,175.650
      93.190,175.679
      93.281,175.707
      93.371,175.735
      93.461,175.764
      93.551,175.792
      93.641,175.819
      93.731,175.847
      93.821,175.874
      93.911,175.901
      94.002,175.928
      94.092,175.955
      94.182,175.982
      94.272,176.008
      94.362,176.034
      94.452,176.060
      94.542,176.086
      94.633,176.111
      94.723,176.137
      94.813,176.162
      94.903,176.187
      94.993,176.211
      95.083,176.236
      95.173,176.260
      95.263,176.284
      95.354,176.308
      95.444,176.332
      95.534,176.355
      95.624,176.379
      95.714,176.402
      95.804,176.425
      95.894,176.447
      95.984,176.470
      96.075,176.492
      96.165,176.514
      96.255,176.536
      96.345,176.558
      96.435,176.579
      96.525,176.600
      96.615,176.622
      96.706,176.643
      96.796,176.663
      96.886,176.684
      96.976,176.705
      97.066,176.725
      97.156,176.745
      97.246,176.766
      97.336,176.786
      97.427,176.805
      97.517,176.825
      97.607,176.845
      97.697,176.864
      97.787,176.883
      97.877,176.902
      97.967,176.921
      98.058,176.940
      98.148,176.958
      98.238,176.977
      98.328,176.995
      98.418,177.013
      98.508,177.031
      98.598,177.049
      98.688,177.067
      98.779,177.084
      98.869,177.102
      98.959,177.119
      99.049,177.136
      99.139,177.153
      99.229,177.170
      99.319,177.186
      99.410,177.203
      99.500,177.219
      99.590,177.235
      99.680,177.251
      99.770,177.267
      99.860,177.283
      99.950,177.299
      100.040,177.314
      100.131,177.330
      100.221,177.345
      100.311,177.360
      100.401,177.376
      100.491,177.391
      100.581,177.405
      100.671,177.420
      100.761,177.435
      100.852,177.449
      100.942,177.464
      101.032,177.478
      101.122,177.492
      101.212,177.507
      101.302,177.521
      101.392,177.534
      101.483,177.548
      101.573,177.562
      101.663,177.575
      101.753,177.589
      101.843,177.602
      101.933,177.615
      102.023,177.628
      102.113,177.641
      102.204,177.654
      102.294,177.667
      102.384,177.680
      102.474,177.692
      102.564,177.705
      102.654,177.717
      102.744,177.729
      102.835,177.741
      102.925,177.753
      103.015,177.765
      103.105,177.777
      103.195,177.789
      103.285,177.800
      103.375,177.812
      103.465,177.823
      103.556,177.835
      103.646,177.846
      103.736,177.857
      103.826,177.868
      103.916,177.879
      104.006,177.890
      104.096,177.901
      104.187,177.912
      104.277,177.923
      104.367,177.933
      104.457,177.944
      104.547,177.954
      104.637,177.965
      104.727,177.975
      104.817,177.985
      104.908,177.995
      104.998,178.005
      105.088,178.015
      105.178,178.025
      105.268,178.035
      105.358,178.044
      105.448,178.054
      105.538,178.063
      105.629,178.073
      105.719,178.082
      105.809,178.092
      105.899,178.101
      105.989,178.110
      106.079,178.119
      106.169,178.128
      106.260,178.137
      106.350,178.145
      106.440,178.154
      106.530,178.163
      106.620,178.171
      106.710,178.180
      106.800,178.189
      106.890,178.197
      106.981,178.205
      107.071,178.214
      107.161,178.222
      107.251,178.230
      107.341,178.238
      107.431,178.246
      107.521,178.254
      107.612,178.262
      107.702,178.270
      107.792,178.278
      107.882,178.286
      107.972,178.293
      108.062,178.301
      108.152,178.308
      108.242,178.316
      108.333,178.323
      108.423,178.331
      108.513,178.338
      108.603,178.345
      108.693,178.352
      108.783,178.359
      108.873,178.366
      108.964,178.373
      109.054,178.380
      109.144,178.387
      109.234,178.394
      109.324,178.401
      109.414,178.407
      109.504,178.414
      109.594,178.421
      109.685,178.427
      109.775,178.434
      109.865,178.440
      109.955,178.446
      110.045,178.453
      110.135,178.459
      110.225,178.465
      110.315,178.471
      110.406,178.478
      110.496,178.484
      110.586,178.490
      110.676,178.496
      110.766,178.502
      110.856,178.508
      110.946,178.514
      111.037,178.519
      111.127,178.525
      111.217,178.531
      111.307,178.537
      111.397,178.542
      111.487,178.548
      111.577,178.553
      111.667,178.559
      111.758,178.564
      111.848,178.570
      111.938,178.575
      112.028,178.580
      112.118,178.586
      112.208,178.591
      112.298,178.596
      112.389,178.601
      112.479,178.606
      112.569,178.611
      112.659,178.616
      112.749,178.621
      112.839,178.626
      112.929,178.631
      113.019,178.636
      113.110,178.640
      113.200,178.645
      113.290,178.650
      113.380,178.655
      113.470,178.659
      113.560,178.664
      113.650,178.669
      113.741,178.673
      113.831,178.678
      113.921,178.682
      114.011,178.687
      114.101,178.691
      114.191,178.695
      114.281,178.700
      114.371,178.704
      114.462,178.708
      114.552,178.713
      114.642,178.717
      114.732,178.721
      114.822,178.725
      114.912,178.729
      115.002,178.733
      115.092,178.737
      115.183,178.741
      115.273,178.745
      115.363,178.749
      115.453,178.753
      115.543,178.757
      115.633,178.761
      115.723,178.764
      115.814,178.768
      115.904,178.772
      115.994,178.776
      116.084,178.779
      116.174,178.783
      116.264,178.787
      116.354,178.790
      116.444,178.794
      116.535,178.797
      116.625,178.801
      116.715,178.804
      116.805,178.808
      116.895,178.811
      116.985,178.815
      117.075,178.818
      117.166,178.821
      117.256,178.825
      117.346,178.828
      117.436,178.831
      117.526,178.834
      117.616,178.838
      117.706,178.841
      117.796,178.844
      117.887,178.847
      117.977,178.850
      118.067,178.853
      118.157,178.856
      118.247,178.859
      118.337,178.862
      118.427,178.865
      118.518,178.868
      118.608,178.871
      118.698,178.874
      118.788,178.877
      118.878,178.880
      118.968,178.883
      119.058,178.885
      119.148,178.888
      119.239,178.891
      119.329,178.894
      119.419,178.896
      119.509,178.899
      119.599,178.902
      119.689,178.904
      119.779,178.907
      119.869,178.910
      119.960,178.912
      120.050,178.915
      120.140,178.917
      120.230,178.920
      120.320,178.923
      120.410,178.925
      120.500,178.928
      120.591,178.930
      120.681,178.932
      120.771,178.935
      120.861,178.937
      120.951,178.940
      121.041,178.942
      121.131,178.944
      121.221,178.947
      121.312,178.949
      121.402,178.951
      121.492,178.954
      121.582,178.956
      121.672,178.958
      121.762,178.960
      121.852,178.962
      121.943,178.965
      122.033,178.967
      122.123,178.969
      122.213,178.971
      122.303,178.973
      122.393,178.975
      122.483,178.977
      122.573,178.979
      122.664,178.981
      122.754,178.983
      122.844,178.985
      122.934,178.987
      123.024,178.989
      123.114,178.991
      123.204,178.993
      123.295,178.995
      123.385,178.997
      123.475,178.999
      123.565,179.001
      123.655,179.003
      123.745,179.004
      123.835,179.006
      123.925,179.008
      124.016,179.010
      124.106,179.012
      124.196,179.013
      124.286,179.015
      124.376,179.017
      124.466,179.019
      124.556,179.020
      124.646,179.022
      124.737,179.024
      124.827,179.025
      124.917,179.027
      125.007,179.029
      125.097,179.030
      125.187,179.032
      125.277,179.034
      125.368,179.035
      125.458,179.037
      125.548,179.038
      125.638,179.040
      125.728,179.041
      125.818,179.043
      125.908,179.044
      125.998,179.046
      126.089,179.047
      126.179,179.049
      126.269,179.050
      126.359,179.052
      126.449,179.053
      126.539,179.055
      126.629,179.056
      126.720,179.058
      126.810,179.059
      126.900,179.060
      126.990,179.062
      127.080,179.063
      127.170,179.065
      127.260,179.066
      127.350,179.067
      127.441,179.069
      127.531,179.070
      127.621,179.071
      127.711,179.072
      127.801,179.074
      127.891,179.075
      127.981,179.076
      128.071,179.078
      128.162,179.079
      128.252,179.080
      128.342,179.081
      128.432,179.082
      128.522,179.084
      128.612,179.085
      128.702,179.086
      128.793,179.087
      128.883,179.088
      128.973,179.089
      129.063,179.091
      129.153,179.092
      129.243,179.093
      129.333,179.094
      129.423,179.095
      129.514,179.096
      129.604,179.097
      129.694,179.098
      129.784,179.099
      129.874,179.100
      129.964,179.102
      130.054,179.103
      130.145,179.104
      130.235,179.105
      130.325,179.106
      130.415,179.107
      130.505,179.108
      130.595,179.109
      130.685,179.110
      130.775,179.111
      130.866,179.112
      130.956,179.113
      131.046,179.114
      131.136,179.114
      131.226,179.115
      131.316,179.116
      131.406,179.117
      131.497,179.118
      131.587,179.119
      131.677,179.120
      131.767,179.121
      131.857,179.122
      131.947,179.123
      132.037,179.124
      132.127,179.124
      132.218,179.125
      132.308,179.126
      132.398,179.127
      132.488,179.128
      132.578,179.129
      132.668,179.129
      132.758,179.130
      132.848,179.131
      132.939,179.132
      133.029,179.133
      133.119,179.133
      133.209,179.134
      133.299,179.135
      133.389,179.136
      133.479,179.137
      133.570,179.137
      133.660,179.138
      133.750,179.139
      133.840,179.140
      133.930,179.140
      134.020,179.141
      134.110,179.142
      134.200,179.143
      134.291,179.143
      134.381,179.144
      134.471,179.145
      134.561,179.145
      134.651,179.146
      134.741,179.147
      134.831,179.147
      134.922,179.148
      135.012,179.149
      135.102,179.149
      135.192,179.150
      135.282,179.151
      135.372,179.151
      135.462,179.152
      135.552,179.153
      135.643,179.153
      135.733,179.154
      135.823,179.155
      135.913,179.155
      136.003,179.156
      136.093,179.156
      136.183,179.157
      136.274,179.158
      136.364,179.158
      136.454,179.159
      136.544,179.160
      136.634,179.160
      136.724,179.161
      136.814,179.161
      136.904,179.162
      136.995,179.162
      137.085,179.163
      137.175,179.164
      137.265,179.164
      137.355,179.165
      137.445,179.165
      137.535,179.166
      137.625,179.166
      137.716,179.167
      137.806,179.167
      137.896,179.168
      137.986,179.168
      138.076,179.169
      138.166,179.169
      138.256,179.170
      138.347,179.170
      138.437,179.171
      138.527,179.171
      138.617,179.171
      138.707,179.172
      138.797,179.172
      138.887,179.173
      138.977,179.173
      139.068,179.174
      139.158,179.174
      139.248,179.174
      139.338,179.175
      139.428,179.175
      139.518,179.176
      139.608,179.176
      139.699,179.176
      139.789,179.177
      139.879,179.177
      139.969,179.178
      140.059,179.178
      140.149,179.179
      140.239,179.179
      140.329,179.179
      140.420,179.180
      140.510,179.180
      140.600,179.181
      140.690,179.181
      140.780,179.181
      140.870,179.182
      140.960,179.182
      141.051,179.182
      141.141,179.183
      141.231,179.183
      141.321,179.184
      141.411,179.184
      141.501,179.184
      141.591,179.185
      141.681,179.185
      141.772,179.185
      141.862,179.186
      141.952,179.186
      142.042,179.187
      142.132,179.187
      142.222,179.187
      142.312,179.188
      142.402,179.188
      142.493,179.188
      142.583,179.189
      142.673,179.189
      142.763,179.189
      142.853,179.190
      142.943,179.190
      143.033,179.190
      143.124,179.191
      143.214,179.191
      143.304,179.191
      143.394,179.192
      143.484,179.192
      143.574,179.192
      143.664,179.193
      143.754,179.193
      143.845,179.193
      143.935,179.194
      144.025,179.194
      144.115,179.194
      144.205,179.195
      144.295,179.195
      144.385,179.195
      144.476,179.196
      144.566,179.196
      144.656,179.196
      144.746,179.196
      144.836,179.197
      144.926,179.197
      145.016,179.197
      145.106,179.198
      145.197,179.198
      145.287,179.198
      145.377,179.198
      145.467,179.199
      145.557,179.199
      145.647,179.199
      145.737,179.200
      145.828,179.200
      145.918,179.200
      146.008,179.200
      146.098,179.201
      146.188,179.201
      146.278,179.201
      146.368,179.201
      146.458,179.202
      146.549,179.202
      146.639,179.202
      146.729,179.202
      146.819,179.203
      146.909,179.203
      146.999,179.203
      147.089,179.203
      147.179,179.203
      147.270,179.204
      147.360,179.204
      147.450,179.204
      147.540,179.204
      147.630,179.205
      147.720,179.205
      147.810,179.205
      147.901,179.205
      147.991,179.205
      148.081,179.206
      148.171,179.206
      148.261,179.206
      148.351,179.206
      148.441,179.206
      148.531,179.206
      148.622,179.207
      148.712,179.207
      148.802,179.207
      148.892,179.207
      148.982,179.207
      149.072,179.208
      149.162,179.208
      149.253,179.208
      149.343,179.208
      149.433,179.208
      149.523,179.208
      149.613,179.209
      149.703,179.209
      149.793,179.209
      149.883,179.209
      149.974,179.209
      150.064,179.210
      150.154,179.210
      150.244,179.210
      150.334,179.210
      150.424,179.210
      150.514,179.210
      150.605,179.211
      150.695,179.211
      150.785,179.211
      150.875,179.211
      150.965,179.211
      151.055,179.211
      151.145,179.211
      151.235,179.212
      151.326,179.212
      151.416,179.212
      151.506,179.212
      151.596,179.212
      151.686,179.212
      151.776,179.213
      151.866,179.213
      151.956,179.213
      152.047,179.213
      152.137,179.213
      152.227,179.213
      152.317,179.213
      152.407,179.214
      152.497,179.214
      152.587,179.214
      152.678,179.214
      152.768,179.214
      152.858,179.214
      152.948,179.214
      153.038,179.215
      153.128,179.215
      153.218,179.215
      153.308,179.215
      153.399,179.215
      153.489,179.215
      153.579,179.215
      153.669,179.215
      153.759,179.216
      153.849,179.216
      153.939,179.216
      154.030,179.216
      154.120,179.216
      154.210,179.216
      154.300,179.216
      154.390,179.216
      154.480,179.217
      154.570,179.217
      154.660,179.217
      154.751,179.217
      154.841,179.217
      154.931,179.217
      155.021,179.217
      155.111,179.217
      155.201,179.217
      155.291,179.218
      155.382,179.218
      155.472,179.218
      155.562,179.218
      155.652,179.218
      155.742,179.218
      155.832,179.218
      155.922,179.218
      156.012,179.218
      156.103,179.219
      156.193,179.219
      156.283,179.219
      156.373,179.219
      156.463,179.219
      156.553,179.219
      156.643,179.219
      156.733,179.219
      156.824,179.219
      156.914,179.219
      157.004,179.219
      157.094,179.220
      157.184,179.220
      157.274,179.220
      157.364,179.220
      157.455,179.220
      157.545,179.220
      157.635,179.220
      157.725,179.220
      157.815,179.220
      157.905,179.220
      157.995,179.220
      158.085,179.220
      158.176,179.221
      158.266,179.221
      158.356,179.221
      158.446,179.221
      158.536,179.221
      158.626,179.221
      158.716,179.221
      158.807,179.221
      158.897,179.221
      158.987,179.221
      159.077,179.221
      159.167,179.221
      159.257,179.221
      159.347,179.222
      159.437,179.222
      159.528,179.222
      159.618,179.222
      159.708,179.222
      159.798,179.222
      159.888,179.222
      159.978,179.222
      160.068,179.222
      160.159,179.222
      160.249,179.222
      160.339,179.222
      160.429,179.222
      160.519,179.222
      160.609,179.223
      160.699,179.223
      160.789,179.223
      160.880,179.223
      160.970,179.223
      161.060,179.223
      161.150,179.223
      161.240,179.223
      161.330,179.223
      161.420,179.223
      161.510,179.223
      161.601,179.223
      161.691,179.223
      161.781,179.223
      161.871,179.223
      161.961,179.223
      162.051,179.224
      162.141,179.224
      162.232,179.224
      162.322,179.224
      162.412,179.224
      162.502,179.224
      162.592,179.224
      162.682,179.224
      162.772,179.224
      162.862,179.224
      162.953,179.224
      163.043,179.224
      163.133,179.224
      163.223,179.224
      163.313,179.224
      163.403,179.224
      163.493,179.224
      163.584,179.225
      163.674,179.225
      163.764,179.225
      163.854,179.225
      163.944,179.225
      164.034,179.225
      164.124,179.225
      164.214,179.225
      164.305,179.225
      164.395,179.225
      164.485,179.225
      164.575,179.225
      164.665,179.225
      164.755,179.225
      164.845,179.225
      164.936,179.225
      165.026,179.225
      165.116,179.225
      165.206,179.225
      165.296,179.225
      165.386,179.225
      165.476,179.226
      165.566,179.226
      165.657,179.226
      165.747,179.226
      165.837,179.226
      165.927,179.226
      166.017,179.226
      166.107,179.226
      166.197,179.226
      166.287,179.226
      166.378,179.226
      166.468,179.226
      166.558,179.226
      166.648,179.226
      166.738,179.226
      166.828,179.226
      166.918,179.226
      167.009,179.226
      167.099,179.226
      167.189,179.226
      167.279,179.226
      167.369,179.226
      167.459,179.226
      167.549,179.226
      167.639,179.226
      167.730,179.226
      167.820,179.226
      167.910,179.227
      168.000,179.227
      168.090,179.227
      168.180,179.227
      168.270,179.227
      168.361,179.227
      168.451,179.227
      168.541,179.227
      168.631,179.227
      168.721,179.227
      168.811,179.227
      168.901,179.227
      168.991,179.227
      169.082,179.227
      169.172,179.227
      169.262,179.227
      169.352,179.227
      169.442,179.227
      169.532,179.227
      169.622,179.227
      169.713,179.227
      169.803,179.227
      169.893,179.227
      169.983,179.227
      170.073,179.227
      170.163,179.227
      170.253,179.227
      170.343,179.227
      170.434,179.227
      170.524,179.227
      170.614,179.227
      170.704,179.227
      170.794,179.227
      170.884,179.227
      170.974,179.227
      171.064,179.227
      171.155,179.227
      171.245,179.228
      171.335,179.228
      171.425,179.228
      171.515,179.228
      171.605,179.228
      171.695,179.228
      171.786,179.228
      171.876,179.228
      171.966,179.228
      172.056,179.228
      172.146,179.228
      172.236,179.228
      172.326,179.228
      172.416,179.228
      172.507,179.228
      172.597,179.228
      172.687,179.228
      172.777,179.228
      172.867,179.228
      172.957,179.228
      173.047,179.228
      173.138,179.228
      173.228,179.228
      173.318,179.228
      173.408,179.228
      173.498,179.228
      173.588,179.228
      173.678,179.228
      173.768,179.228
      173.859,179.228
      173.949,179.228
      174.039,179.228
      174.129,179.228
      174.219,179.228
      174.309,179.228
      174.399,179.228
      174.490,179.228
      174.580,179.228
      174.670,179.228
      174.760,179.228
      174.850,179.228
      174.940,179.228
      175.030,179.228
      175.120,179.228
      175.211,179.228
      175.301,179.228
      175.391,179.229
      175.481,179.229
      175.571,179.229
      175.661,179.229
      175.751,179.229
      175.841,179.229
      175.932,179.229
      176.022,179.229
      176.112,179.229
      176.202,179.229
      176.292,179.229
      176.382,179.229
      176.472,179.229
      176.563,179.229
      176.653,179.229
      176.743,179.229
      176.833,179.229
      176.923,179.229
    " />
  </g>

  <!-- точка (-1;4) -->
  <circle cx="61.538" cy="117.692" r="2.2" fill="#2d70b3" stroke="#2d70b3" stroke-width="0.6" />

  <!-- стрелка оси x поверх графика -->
  <g stroke="#111827" stroke-width="1.25">
    <line x1="169.615" y1="179.231" x2="184.615" y2="179.231" marker-end="url(#axis-arrow)" />
  </g>

  <!-- подпись -->
  <text x="27" y="93"
        font-family="Georgia, 'Times New Roman', serif"
        font-style="italic"
        font-size="13"
        fill="#2d70b3">f(x)</text>
</svg>
