<svg xmlns="http://www.w3.org/2000/svg" width="220" height="220" viewBox="0 0 220 220">
  <rect x="0" y="0" width="220" height="220" fill="white" />

  <defs>
    <marker id="axis-arrow"
            viewBox="0 0 15 8"
            refX="13" refY="4"
            markerWidth="12" markerHeight="6.4"
            orient="auto"
            markerUnits="userSpaceOnUse">
      <path d="M 3 0 L 15 4 L 3 8 L 7 4 Z" fill="black" />
    </marker>
  </defs>

  <!-- сетка: x от -4 до 7, y от -2 до 11 -->
  <g stroke="#d1d5db" stroke-width="0.5" shape-rendering="crispEdges">
    <line x1="30.769" y1="10.000" x2="30.769" y2="210.000" />
    <line x1="46.154" y1="10.000" x2="46.154" y2="210.000" />
    <line x1="61.538" y1="10.000" x2="61.538" y2="210.000" />
    <line x1="76.923" y1="10.000" x2="76.923" y2="210.000" />
    <line x1="92.308" y1="10.000" x2="92.308" y2="210.000" />
    <line x1="107.692" y1="10.000" x2="107.692" y2="210.000" />
    <line x1="123.077" y1="10.000" x2="123.077" y2="210.000" />
    <line x1="138.462" y1="10.000" x2="138.462" y2="210.000" />
    <line x1="153.846" y1="10.000" x2="153.846" y2="210.000" />
    <line x1="169.231" y1="10.000" x2="169.231" y2="210.000" />
    <line x1="15.385" y1="194.615" x2="184.615" y2="194.615" />
    <line x1="15.385" y1="179.231" x2="184.615" y2="179.231" />
    <line x1="15.385" y1="163.846" x2="184.615" y2="163.846" />
    <line x1="15.385" y1="148.462" x2="184.615" y2="148.462" />
    <line x1="15.385" y1="133.077" x2="184.615" y2="133.077" />
    <line x1="15.385" y1="117.692" x2="184.615" y2="117.692" />
    <line x1="15.385" y1="102.308" x2="184.615" y2="102.308" />
    <line x1="15.385" y1="86.923" x2="184.615" y2="86.923" />
    <line x1="15.385" y1="71.538" x2="184.615" y2="71.538" />
    <line x1="15.385" y1="56.154" x2="184.615" y2="56.154" />
    <line x1="15.385" y1="40.769" x2="184.615" y2="40.769" />
    <line x1="15.385" y1="25.385" x2="184.615" y2="25.385" />
  </g>

  <!-- оси -->
  <g stroke="#111827" stroke-width="1.25">
    <line x1="15.385" y1="179.231" x2="184.615" y2="179.231" />
    <line x1="76.923" y1="210.000" x2="76.923" y2="10.000" marker-end="url(#axis-arrow)" />
  </g>

  <!-- подписи осей и делений -->
  <g font-family="sans-serif" font-size="11" fill="#111827">
    <text x="72.923" y="192.231" text-anchor="end"
          font-size="13" font-style="italic"
          font-family="Georgia, 'Times New Roman', serif">O</text>

    <rect x="88.808" y="182.231" width="7" height="12" fill="white" />
    <text x="92.308" y="193.231" text-anchor="middle" font-size="13"
          font-family="'Times New Roman', serif"
          font-weight="300">1</text>

    <text x="67.923" y="165.846" text-anchor="end" font-size="13"
          font-family="'Times New Roman', serif"
          font-weight="300">1</text>

    <text x="181.615" y="192.231" text-anchor="start"
          font-family="Georgia, 'Times New Roman', serif"
          font-style="italic" font-size="13">x</text>

    <text x="73.923" y="13.000" text-anchor="end"
          font-family="Georgia, 'Times New Roman', serif"
          font-style="italic" font-size="13">y</text>
  </g>

  <!-- интерполяция (PCHIP) -->
  <g stroke="#2d70b3" stroke-width="1.25" fill="none"
     stroke-linecap="round" stroke-linejoin="round">
    <polyline points="
      15.385,178.269
      15.448,178.266
      15.511,178.263
      15.574,178.260
      15.637,178.257
      15.701,178.255
      15.764,178.252
      15.827,178.249
      15.890,178.246
      15.954,178.243
      16.017,178.240
      16.080,178.237
      16.143,178.234
      16.206,178.231
      16.270,178.228
      16.333,178.226
      16.396,178.223
      16.459,178.220
      16.523,178.217
      16.586,178.214
      16.649,178.211
      16.712,178.208
      16.775,178.205
      16.839,178.202
      16.902,178.200
      16.965,178.197
      17.028,178.194
      17.091,178.191
      17.155,178.188
      17.218,178.185
      17.281,178.182
      17.344,178.179
      17.408,178.176
      17.471,178.173
      17.534,178.170
      17.597,178.167
      17.660,178.164
      17.724,178.161
      17.787,178.159
      17.850,178.156
      17.913,178.153
      17.977,178.150
      18.040,178.147
      18.103,178.144
      18.166,178.140
      18.229,178.137
      18.293,178.134
      18.356,178.131
      18.419,178.128
      18.482,178.125
      18.545,178.122
      18.609,178.119
      18.672,178.116
      18.735,178.113
      18.798,178.109
      18.862,178.106
      18.925,178.103
      18.988,178.100
      19.051,178.097
      19.114,178.093
      19.178,178.090
      19.241,178.087
      19.304,178.084
      19.367,178.080
      19.431,178.077
      19.494,178.074
      19.557,178.070
      19.620,178.067
      19.683,178.064
      19.747,178.060
      19.810,178.057
      19.873,178.054
      19.936,178.050
      19.999,178.047
      20.063,178.044
      20.126,178.040
      20.189,178.037
      20.252,178.033
      20.316,178.030
      20.379,178.027
      20.442,178.023
      20.505,178.020
      20.568,178.016
      20.632,178.013
      20.695,178.009
      20.758,178.006
      20.821,178.002
      20.885,177.999
      20.948,177.995
      21.011,177.992
      21.074,177.988
      21.137,177.985
      21.201,177.981
      21.264,177.978
      21.327,177.974
      21.390,177.970
      21.453,177.967
      21.517,177.963
      21.580,177.960
      21.643,177.956
      21.706,177.952
      21.770,177.949
      21.833,177.945
      21.896,177.941
      21.959,177.938
      22.022,177.934
      22.086,177.930
      22.149,177.927
      22.212,177.923
      22.275,177.919
      22.339,177.915
      22.402,177.912
      22.465,177.908
      22.528,177.904
      22.591,177.900
      22.655,177.897
      22.718,177.893
      22.781,177.889
      22.844,177.885
      22.907,177.881
      22.971,177.877
      23.034,177.874
      23.097,177.870
      23.160,177.866
      23.224,177.862
      23.287,177.858
      23.350,177.854
      23.413,177.850
      23.476,177.846
      23.540,177.842
      23.603,177.838
      23.666,177.834
      23.729,177.830
      23.793,177.826
      23.856,177.822
      23.919,177.818
      23.982,177.814
      24.045,177.810
      24.109,177.806
      24.172,177.802
      24.235,177.798
      24.298,177.794
      24.361,177.790
      24.425,177.786
      24.488,177.782
      24.551,177.778
      24.614,177.773
      24.678,177.769
      24.741,177.765
      24.804,177.761
      24.867,177.757
      24.930,177.752
      24.994,177.748
      25.057,177.744
      25.120,177.740
      25.183,177.736
      25.247,177.731
      25.310,177.727
      25.373,177.723
      25.436,177.718
      25.499,177.714
      25.563,177.710
      25.626,177.705
      25.689,177.701
      25.752,177.697
      25.815,177.692
      25.879,177.688
      25.942,177.684
      26.005,177.679
      26.068,177.675
      26.132,177.670
      26.195,177.666
      26.258,177.661
      26.321,177.657
      26.384,177.652
      26.448,177.648
      26.511,177.643
      26.574,177.639
      26.637,177.634
      26.701,177.630
      26.764,177.625
      26.827,177.621
      26.890,177.616
      26.953,177.611
      27.017,177.607
      27.080,177.602
      27.143,177.598
      27.206,177.593
      27.269,177.588
      27.333,177.584
      27.396,177.579
      27.459,177.574
      27.522,177.569
      27.586,177.565
      27.649,177.560
      27.712,177.555
      27.775,177.550
      27.838,177.546
      27.902,177.541
      27.965,177.536
      28.028,177.531
      28.091,177.526
      28.155,177.521
      28.218,177.516
      28.281,177.512
      28.344,177.507
      28.407,177.502
      28.471,177.497
      28.534,177.492
      28.597,177.487
      28.660,177.482
      28.723,177.477
      28.787,177.472
      28.850,177.467
      28.913,177.462
      28.976,177.457
      29.040,177.452
      29.103,177.447
      29.166,177.442
      29.229,177.437
      29.292,177.432
      29.356,177.426
      29.419,177.421
      29.482,177.416
      29.545,177.411
      29.609,177.406
      29.672,177.401
      29.735,177.395
      29.798,177.390
      29.861,177.385
      29.925,177.380
      29.988,177.374
      30.051,177.369
      30.114,177.364
      30.177,177.358
      30.241,177.353
      30.304,177.348
      30.367,177.342
      30.430,177.337
      30.494,177.331
      30.557,177.326
      30.620,177.321
      30.683,177.315
      30.746,177.310
      30.810,177.304
      30.873,177.299
      30.936,177.293
      30.999,177.288
      31.063,177.282
      31.126,177.277
      31.189,177.271
      31.252,177.265
      31.315,177.260
      31.379,177.254
      31.442,177.248
      31.505,177.243
      31.568,177.237
      31.631,177.231
      31.695,177.226
      31.758,177.220
      31.821,177.214
      31.884,177.209
      31.948,177.203
      32.011,177.197
      32.074,177.191
      32.137,177.185
      32.200,177.180
      32.264,177.174
      32.327,177.168
      32.390,177.162
      32.453,177.156
      32.517,177.150
      32.580,177.144
      32.643,177.138
      32.706,177.132
      32.769,177.126
      32.833,177.120
      32.896,177.114
      32.959,177.108
      33.022,177.102
      33.085,177.096
      33.149,177.090
      33.212,177.084
      33.275,177.078
      33.338,177.072
      33.402,177.066
      33.465,177.059
      33.528,177.053
      33.591,177.047
      33.654,177.041
      33.718,177.035
      33.781,177.028
      33.844,177.022
      33.907,177.016
      33.971,177.009
      34.034,177.003
      34.097,176.997
      34.160,176.990
      34.223,176.984
      34.287,176.977
      34.350,176.971
      34.413,176.965
      34.476,176.958
      34.539,176.952
      34.603,176.945
      34.666,176.939
      34.729,176.932
      34.792,176.925
      34.856,176.919
      34.919,176.912
      34.982,176.906
      35.045,176.899
      35.108,176.892
      35.172,176.886
      35.235,176.879
      35.298,176.872
      35.361,176.866
      35.425,176.859
      35.488,176.852
      35.551,176.845
      35.614,176.839
      35.677,176.832
      35.741,176.825
      35.804,176.818
      35.867,176.811
      35.930,176.804
      35.993,176.797
      36.057,176.790
      36.120,176.783
      36.183,176.777
      36.246,176.770
      36.310,176.762
      36.373,176.755
      36.436,176.748
      36.499,176.741
      36.562,176.734
      36.626,176.727
      36.689,176.720
      36.752,176.713
      36.815,176.706
      36.879,176.698
      36.942,176.691
      37.005,176.684
      37.068,176.677
      37.131,176.669
      37.195,176.662
      37.258,176.655
      37.321,176.647
      37.384,176.640
      37.447,176.633
      37.511,176.625
      37.574,176.618
      37.637,176.610
      37.700,176.603
      37.764,176.595
      37.827,176.588
      37.890,176.580
      37.953,176.573
      38.016,176.565
      38.080,176.557
      38.143,176.550
      38.206,176.542
      38.269,176.535
      38.333,176.527
      38.396,176.519
      38.459,176.511
      38.522,176.504
      38.585,176.496
      38.649,176.488
      38.712,176.480
      38.775,176.472
      38.838,176.464
      38.901,176.457
      38.965,176.449
      39.028,176.441
      39.091,176.433
      39.154,176.425
      39.218,176.417
      39.281,176.409
      39.344,176.401
      39.407,176.393
      39.470,176.385
      39.534,176.377
      39.597,176.368
      39.660,176.360
      39.723,176.352
      39.786,176.344
      39.850,176.336
      39.913,176.327
      39.976,176.319
      40.039,176.311
      40.103,176.303
      40.166,176.294
      40.229,176.286
      40.292,176.277
      40.355,176.269
      40.419,176.260
      40.482,176.252
      40.545,176.244
      40.608,176.235
      40.672,176.226
      40.735,176.218
      40.798,176.209
      40.861,176.201
      40.924,176.192
      40.988,176.183
      41.051,176.175
      41.114,176.166
      41.177,176.157
      41.240,176.148
      41.304,176.140
      41.367,176.131
      41.430,176.122
      41.493,176.113
      41.557,176.104
      41.620,176.095
      41.683,176.086
      41.746,176.077
      41.809,176.068
      41.873,176.059
      41.936,176.050
      41.999,176.041
      42.062,176.032
      42.126,176.023
      42.189,176.014
      42.252,176.005
      42.315,175.995
      42.378,175.986
      42.442,175.977
      42.505,175.968
      42.568,175.958
      42.631,175.949
      42.694,175.940
      42.758,175.930
      42.821,175.921
      42.884,175.911
      42.947,175.902
      43.011,175.893
      43.074,175.883
      43.137,175.873
      43.200,175.864
      43.263,175.854
      43.327,175.845
      43.390,175.835
      43.453,175.825
      43.516,175.815
      43.580,175.806
      43.643,175.796
      43.706,175.786
      43.769,175.776
      43.832,175.766
      43.896,175.756
      43.959,175.746
      44.022,175.736
      44.085,175.726
      44.148,175.716
      44.212,175.706
      44.275,175.696
      44.338,175.686
      44.401,175.676
      44.465,175.666
      44.528,175.656
      44.591,175.645
      44.654,175.635
      44.717,175.625
      44.781,175.615
      44.844,175.604
      44.907,175.594
      44.970,175.583
      45.034,175.573
      45.097,175.563
      45.160,175.552
      45.223,175.542
      45.286,175.531
      45.350,175.521
      45.413,175.510
      45.476,175.500
      45.539,175.489
      45.602,175.478
      45.666,175.468
      45.729,175.457
      45.792,175.446
      45.855,175.436
      45.919,175.425
      45.982,175.414
      46.045,175.403
      46.108,175.392
      46.171,175.382
      46.235,175.371
      46.298,175.360
      46.361,175.349
      46.424,175.338
      46.488,175.327
      46.551,175.316
      46.614,175.305
      46.677,175.293
      46.740,175.282
      46.804,175.271
      46.867,175.260
      46.930,175.248
      46.993,175.237
      47.056,175.226
      47.120,175.214
      47.183,175.203
      47.246,175.191
      47.309,175.179
      47.373,175.168
      47.436,175.156
      47.499,175.145
      47.562,175.133
      47.625,175.121
      47.689,175.109
      47.752,175.098
      47.815,175.086
      47.878,175.074
      47.942,175.062
      48.005,175.050
      48.068,175.038
      48.131,175.026
      48.194,175.014
      48.258,175.002
      48.321,174.990
      48.384,174.978
      48.447,174.966
      48.510,174.954
      48.574,174.942
      48.637,174.929
      48.700,174.917
      48.763,174.905
      48.827,174.892
      48.890,174.880
      48.953,174.868
      49.016,174.855
      49.079,174.843
      49.143,174.830
      49.206,174.818
      49.269,174.805
      49.332,174.792
      49.396,174.780
      49.459,174.767
      49.522,174.754
      49.585,174.742
      49.648,174.729
      49.712,174.716
      49.775,174.703
      49.838,174.690
      49.901,174.677
      49.964,174.664
      50.028,174.651
      50.091,174.638
      50.154,174.625
      50.217,174.612
      50.281,174.599
      50.344,174.585
      50.407,174.572
      50.470,174.559
      50.533,174.546
      50.597,174.532
      50.660,174.519
      50.723,174.505
      50.786,174.492
      50.850,174.478
      50.913,174.465
      50.976,174.451
      51.039,174.438
      51.102,174.424
      51.166,174.410
      51.229,174.397
      51.292,174.383
      51.355,174.369
      51.418,174.355
      51.482,174.341
      51.545,174.327
      51.608,174.313
      51.671,174.299
      51.735,174.285
      51.798,174.271
      51.861,174.257
      51.924,174.243
      51.987,174.228
      52.051,174.214
      52.114,174.200
      52.177,174.185
      52.240,174.171
      52.304,174.157
      52.367,174.142
      52.430,174.128
      52.493,174.113
      52.556,174.099
      52.620,174.084
      52.683,174.069
      52.746,174.055
      52.809,174.040
      52.872,174.025
      52.936,174.010
      52.999,173.995
      53.062,173.980
      53.125,173.965
      53.189,173.950
      53.252,173.935
      53.315,173.920
      53.378,173.905
      53.441,173.890
      53.505,173.875
      53.568,173.859
      53.631,173.844
      53.694,173.829
      53.758,173.813
      53.821,173.798
      53.884,173.782
      53.947,173.767
      54.010,173.751
      54.074,173.735
      54.137,173.720
      54.200,173.704
      54.263,173.688
      54.326,173.672
      54.390,173.657
      54.453,173.641
      54.516,173.625
      54.579,173.609
      54.643,173.593
      54.706,173.577
      54.769,173.561
      54.832,173.544
      54.895,173.528
      54.959,173.512
      55.022,173.496
      55.085,173.479
      55.148,173.463
      55.212,173.446
      55.275,173.430
      55.338,173.413
      55.401,173.397
      55.464,173.380
      55.528,173.363
      55.591,173.347
      55.654,173.330
      55.717,173.313
      55.780,173.296
      55.844,173.279
      55.907,173.262
      55.970,173.245
      56.033,173.228
      56.097,173.211
      56.160,173.194
      56.223,173.177
      56.286,173.159
      56.349,173.142
      56.413,173.125
      56.476,173.107
      56.539,173.090
      56.602,173.072
      56.666,173.055
      56.729,173.037
      56.792,173.019
      56.855,173.002
      56.918,172.984
      56.982,172.966
      57.045,172.948
      57.108,172.930
      57.171,172.912
      57.234,172.894
      57.298,172.876
      57.361,172.858
      57.424,172.840
      57.487,172.822
      57.551,172.804
      57.614,172.785
      57.677,172.767
      57.740,172.748
      57.803,172.730
      57.867,172.711
      57.930,172.693
      57.993,172.674
      58.056,172.655
      58.120,172.637
      58.183,172.618
      58.246,172.599
      58.309,172.580
      58.372,172.561
      58.436,172.542
      58.499,172.523
      58.562,172.504
      58.625,172.485
      58.688,172.465
      58.752,172.446
      58.815,172.427
      58.878,172.407
      58.941,172.388
      59.005,172.368
      59.068,172.349
      59.131,172.329
      59.194,172.310
      59.257,172.290
      59.321,172.270
      59.384,172.250
      59.447,172.230
      59.510,172.210
      59.574,172.190
      59.637,172.170
      59.700,172.150
      59.763,172.130
      59.826,172.110
      59.890,172.089
      59.953,172.069
      60.016,172.048
      60.079,172.028
      60.142,172.007
      60.206,171.987
      60.269,171.966
      60.332,171.945
      60.395,171.925
      60.459,171.904
      60.522,171.883
      60.585,171.862
      60.648,171.841
      60.711,171.820
      60.775,171.799
      60.838,171.777
      60.901,171.756
      60.964,171.735
      61.028,171.714
      61.091,171.692
      61.154,171.671
      61.217,171.649
      61.280,171.627
      61.344,171.606
      61.407,171.584
      61.470,171.562
      61.533,171.540
      61.596,171.518
      61.660,171.496
      61.723,171.474
      61.786,171.452
      61.849,171.430
      61.913,171.408
      61.976,171.385
      62.039,171.363
      62.102,171.341
      62.165,171.318
      62.229,171.295
      62.292,171.273
      62.355,171.250
      62.418,171.227
      62.482,171.205
      62.545,171.182
      62.608,171.159
      62.671,171.136
      62.734,171.113
      62.798,171.089
      62.861,171.066
      62.924,171.043
      62.987,171.020
      63.050,170.996
      63.114,170.973
      63.177,170.949
      63.240,170.926
      63.303,170.902
      63.367,170.878
      63.430,170.854
      63.493,170.830
      63.556,170.806
      63.619,170.782
      63.683,170.758
      63.746,170.734
      63.809,170.710
      63.872,170.686
      63.936,170.661
      63.999,170.637
      64.062,170.612
      64.125,170.588
      64.188,170.563
      64.252,170.538
      64.315,170.513
      64.378,170.489
      64.441,170.464
      64.504,170.439
      64.568,170.414
      64.631,170.388
      64.694,170.363
      64.757,170.338
      64.821,170.313
      64.884,170.287
      64.947,170.262
      65.010,170.236
      65.073,170.210
      65.137,170.185
      65.200,170.159
      65.263,170.133
      65.326,170.107
      65.390,170.081
      65.453,170.055
      65.516,170.029
      65.579,170.003
      65.642,169.976
      65.706,169.950
      65.769,169.923
      65.832,169.897
      65.895,169.870
      65.958,169.843
      66.022,169.817
      66.085,169.790
      66.148,169.763
      66.211,169.736
      66.275,169.709
      66.338,169.682
      66.401,169.654
      66.464,169.627
      66.527,169.600
      66.591,169.572
      66.654,169.545
      66.717,169.517
      66.780,169.489
      66.844,169.461
      66.907,169.434
      66.970,169.406
      67.033,169.378
      67.096,169.350
      67.160,169.321
      67.223,169.293
      67.286,169.265
      67.349,169.236
      67.412,169.208
      67.476,169.179
      67.539,169.151
      67.602,169.122
      67.665,169.093
      67.729,169.064
      67.792,169.035
      67.855,169.006
      67.918,168.977
      67.981,168.948
      68.045,168.918
      68.108,168.889
      68.171,168.859
      68.234,168.830
      68.298,168.800
      68.361,168.770
      68.424,168.741
      68.487,168.711
      68.550,168.681
      68.614,168.650
      68.677,168.620
      68.740,168.590
      68.803,168.560
      68.866,168.529
      68.930,168.499
      68.993,168.468
      69.056,168.437
      69.119,168.407
      69.183,168.376
      69.246,168.345
      69.309,168.314
      69.372,168.283
      69.435,168.251
      69.499,168.220
      69.562,168.189
      69.625,168.157
      69.688,168.126
      69.752,168.094
      69.815,168.062
      69.878,168.030
      69.941,167.998
      70.004,167.966
      70.068,167.934
      70.131,167.902
      70.194,167.870
      70.257,167.837
      70.320,167.805
      70.384,167.772
      70.447,167.740
      70.510,167.707
      70.573,167.674
      70.637,167.641
      70.700,167.608
      70.763,167.575
      70.826,167.541
      70.889,167.508
      70.953,167.475
      71.016,167.441
      71.079,167.407
      71.142,167.374
      71.206,167.340
      71.269,167.306
      71.332,167.272
      71.395,167.238
      71.458,167.204
      71.522,167.169
      71.585,167.135
      71.648,167.101
      71.711,167.066
      71.774,167.031
      71.838,166.996
      71.901,166.962
      71.964,166.927
      72.027,166.892
      72.091,166.856
      72.154,166.821
      72.217,166.786
      72.280,166.750
      72.343,166.715
      72.407,166.679
      72.470,166.643
      72.533,166.607
      72.596,166.571
      72.660,166.535
      72.723,166.499
      72.786,166.462
      72.849,166.426
      72.912,166.389
      72.976,166.353
      73.039,166.316
      73.102,166.279
      73.165,166.242
      73.228,166.205
      73.292,166.168
      73.355,166.131
      73.418,166.093
      73.481,166.056
      73.545,166.018
      73.608,165.981
      73.671,165.943
      73.734,165.905
      73.797,165.867
      73.861,165.829
      73.924,165.791
      73.987,165.752
      74.050,165.714
      74.114,165.675
      74.177,165.637
      74.240,165.598
      74.303,165.559
      74.366,165.520
      74.430,165.481
      74.493,165.442
      74.556,165.402
      74.619,165.363
      74.682,165.323
      74.746,165.284
      74.809,165.244
      74.872,165.204
      74.935,165.164
      74.999,165.124
      75.062,165.084
      75.125,165.043
      75.188,165.003
      75.251,164.962
      75.315,164.922
      75.378,164.881
      75.441,164.840
      75.504,164.799
      75.568,164.758
      75.631,164.716
      75.694,164.675
      75.757,164.633
      75.820,164.592
      75.884,164.550
      75.947,164.508
      76.010,164.466
      76.073,164.424
      76.136,164.382
      76.200,164.340
      76.263,164.297
      76.326,164.255
      76.389,164.212
      76.453,164.169
      76.516,164.126
      76.579,164.083
      76.642,164.040
      76.705,163.996
      76.769,163.953
      76.832,163.909
      76.895,163.866
      76.958,163.822
      77.021,163.778
      77.085,163.734
      77.148,163.689
      77.211,163.645
      77.274,163.601
      77.338,163.556
      77.401,163.511
      77.464,163.466
      77.527,163.422
      77.590,163.376
      77.654,163.331
      77.717,163.286
      77.780,163.240
      77.843,163.195
      77.907,163.149
      77.970,163.103
      78.033,163.057
      78.096,163.011
      78.159,162.965
      78.223,162.919
      78.286,162.872
      78.349,162.825
      78.412,162.779
      78.475,162.732
      78.539,162.685
      78.602,162.637
      78.665,162.590
      78.728,162.543
      78.792,162.495
      78.855,162.447
      78.918,162.399
      78.981,162.351
      79.044,162.303
      79.108,162.255
      79.171,162.206
      79.234,162.158
      79.297,162.109
      79.361,162.060
      79.424,162.011
      79.487,161.962
      79.550,161.913
      79.613,161.864
      79.677,161.814
      79.740,161.764
      79.803,161.714
      79.866,161.665
      79.929,161.614
      79.993,161.564
      80.056,161.514
      80.119,161.463
      80.182,161.413
      80.246,161.362
      80.309,161.311
      80.372,161.260
      80.435,161.209
      80.498,161.157
      80.562,161.106
      80.625,161.054
      80.688,161.002
      80.751,160.950
      80.815,160.898
      80.878,160.846
      80.941,160.793
      81.004,160.741
      81.067,160.688
      81.131,160.635
      81.194,160.582
      81.257,160.529
      81.320,160.475
      81.383,160.422
      81.447,160.368
      81.510,160.314
      81.573,160.260
      81.636,160.206
      81.700,160.152
      81.763,160.098
      81.826,160.043
      81.889,159.988
      81.952,159.933
      82.016,159.878
      82.079,159.823
      82.142,159.768
      82.205,159.712
      82.269,159.657
      82.332,159.601
      82.395,159.545
      82.458,159.489
      82.521,159.433
      82.585,159.376
      82.648,159.319
      82.711,159.263
      82.774,159.206
      82.837,159.149
      82.901,159.091
      82.964,159.034
      83.027,158.976
      83.090,158.918
      83.154,158.860
      83.217,158.802
      83.280,158.744
      83.343,158.686
      83.406,158.627
      83.470,158.568
      83.533,158.509
      83.596,158.450
      83.659,158.391
      83.723,158.331
      83.786,158.272
      83.849,158.212
      83.912,158.152
      83.975,158.092
      84.039,158.032
      84.102,157.971
      84.165,157.911
      84.228,157.850
      84.291,157.789
      84.355,157.728
      84.418,157.666
      84.481,157.605
      84.544,157.543
      84.608,157.481
      84.671,157.419
      84.734,157.357
      84.797,157.295
      84.860,157.232
      84.924,157.169
      84.987,157.107
      85.050,157.043
      85.113,156.980
      85.177,156.917
      85.240,156.853
      85.303,156.789
      85.366,156.725
      85.429,156.661
      85.493,156.596
      85.556,156.532
      85.619,156.467
      85.682,156.402
      85.745,156.337
      85.809,156.272
      85.872,156.206
      85.935,156.141
      85.998,156.075
      86.062,156.009
      86.125,155.942
      86.188,155.876
      86.251,155.809
      86.314,155.743
      86.378,155.676
      86.441,155.609
      86.504,155.541
      86.567,155.474
      86.631,155.406
      86.694,155.338
      86.757,155.270
      86.820,155.202
      86.883,155.133
      86.947,155.064
      87.010,154.995
      87.073,154.926
      87.136,154.857
      87.199,154.787
      87.263,154.718
      87.326,154.648
      87.389,154.577
      87.452,154.507
      87.516,154.437
      87.579,154.366
      87.642,154.295
      87.705,154.224
      87.768,154.152
      87.832,154.081
      87.895,154.009
      87.958,153.937
      88.021,153.865
      88.085,153.793
      88.148,153.720
      88.211,153.647
      88.274,153.574
      88.337,153.501
      88.401,153.428
      88.464,153.354
      88.527,153.281
      88.590,153.207
      88.653,153.132
      88.717,153.058
      88.780,152.983
      88.843,152.909
      88.906,152.833
      88.970,152.758
      89.033,152.683
      89.096,152.607
      89.159,152.531
      89.222,152.455
      89.286,152.378
      89.349,152.302
      89.412,152.225
      89.475,152.148
      89.539,152.071
      89.602,151.993
      89.665,151.915
      89.728,151.837
      89.791,151.759
      89.855,151.681
      89.918,151.602
      89.981,151.524
      90.044,151.444
      90.107,151.365
      90.171,151.286
      90.234,151.206
      90.297,151.126
      90.360,151.046
      90.424,150.966
      90.487,150.885
      90.550,150.804
      90.613,150.723
      90.676,150.642
      90.740,150.560
      90.803,150.479
      90.866,150.397
      90.929,150.314
      90.993,150.232
      91.056,150.149
      91.119,150.066
      91.182,149.983
      91.245,149.900
      91.309,149.816
      91.372,149.732
      91.435,149.648
      91.498,149.564
      91.561,149.479
      91.625,149.394
      91.688,149.309
      91.751,149.223
      91.814,149.138
      91.878,149.052
      91.941,148.966
      92.004,148.880
      92.067,148.793
      92.130,148.706
      92.194,148.619
      92.257,148.532
      92.320,148.444
      92.383,148.356
      92.447,148.268
      92.510,148.180
      92.573,148.091
      92.636,148.003
      92.699,147.914
      92.763,147.824
      92.826,147.735
      92.889,147.645
      92.952,147.555
      93.015,147.465
      93.079,147.374
      93.142,147.283
      93.205,147.192
      93.268,147.101
      93.332,147.009
      93.395,146.917
      93.458,146.825
      93.521,146.733
      93.584,146.640
      93.648,146.547
      93.711,146.454
      93.774,146.360
      93.837,146.266
      93.901,146.172
      93.964,146.078
      94.027,145.983
      94.090,145.888
      94.153,145.793
      94.217,145.698
      94.280,145.602
      94.343,145.506
      94.406,145.410
      94.469,145.314
      94.533,145.217
      94.596,145.120
      94.659,145.023
      94.722,144.925
      94.786,144.827
      94.849,144.729
      94.912,144.631
      94.975,144.532
      95.038,144.433
      95.102,144.334
      95.165,144.235
      95.228,144.135
      95.291,144.035
      95.355,143.934
      95.418,143.834
      95.481,143.733
      95.544,143.631
      95.607,143.530
      95.671,143.428
      95.734,143.326
      95.797,143.223
      95.860,143.121
      95.923,143.018
      95.987,142.914
      96.050,142.811
      96.113,142.707
      96.176,142.603
      96.240,142.498
      96.303,142.393
      96.366,142.288
      96.429,142.183
      96.492,142.077
      96.556,141.971
      96.619,141.865
      96.682,141.758
      96.745,141.651
      96.809,141.544
      96.872,141.437
      96.935,141.329
      96.998,141.221
      97.061,141.113
      97.125,141.004
      97.188,140.895
      97.251,140.786
      97.314,140.676
      97.377,140.566
      97.441,140.456
      97.504,140.345
      97.567,140.234
      97.630,140.123
      97.694,140.012
      97.757,139.900
      97.820,139.787
      97.883,139.675
      97.946,139.562
      98.010,139.449
      98.073,139.335
      98.136,139.222
      98.199,139.107
      98.263,138.993
      98.326,138.878
      98.389,138.763
      98.452,138.647
      98.515,138.532
      98.579,138.416
      98.642,138.299
      98.705,138.182
      98.768,138.065
      98.831,137.948
      98.895,137.830
      98.958,137.712
      99.021,137.594
      99.084,137.475
      99.148,137.356
      99.211,137.237
      99.274,137.117
      99.337,136.997
      99.400,136.876
      99.464,136.756
      99.527,136.635
      99.590,136.513
      99.653,136.391
      99.717,136.269
      99.780,136.146
      99.843,136.024
      99.906,135.900
      99.969,135.777
      100.033,135.653
      100.096,135.528
      100.159,135.404
      100.222,135.279
      100.285,135.153
      100.349,135.027
      100.412,134.901
      100.475,134.775
      100.538,134.648
      100.602,134.521
      100.665,134.393
      100.728,134.265
      100.791,134.137
      100.854,134.008
      100.918,133.879
      100.981,133.750
      101.044,133.620
      101.107,133.490
      101.171,133.360
      101.234,133.229
      101.297,133.098
      101.360,132.967
      101.423,132.835
      101.487,132.702
      101.550,132.570
      101.613,132.437
      101.676,132.303
      101.739,132.169
      101.803,132.035
      101.866,131.901
      101.929,131.765
      101.992,131.630
      102.056,131.494
      102.119,131.358
      102.182,131.221
      102.245,131.084
      102.308,130.947
      102.372,130.809
      102.435,130.671
      102.498,130.533
      102.561,130.394
      102.625,130.254
      102.688,130.115
      102.751,129.974
      102.814,129.834
      102.877,129.693
      102.941,129.552
      103.004,129.410
      103.067,129.268
      103.130,129.125
      103.193,128.983
      103.257,128.839
      103.320,128.696
      103.383,128.552
      103.446,128.407
      103.510,128.262
      103.573,128.117
      103.636,127.971
      103.699,127.825
      103.762,127.678
      103.826,127.531
      103.889,127.384
      103.952,127.236
      104.015,127.088
      104.079,126.939
      104.142,126.790
      104.205,126.640
      104.268,126.490
      104.331,126.340
      104.395,126.189
      104.458,126.037
      104.521,125.886
      104.584,125.733
      104.647,125.581
      104.711,125.428
      104.774,125.274
      104.837,125.120
      104.900,124.966
      104.964,124.811
      105.027,124.656
      105.090,124.500
      105.153,124.344
      105.216,124.188
      105.280,124.031
      105.343,123.873
      105.406,123.715
      105.469,123.557
      105.533,123.398
      105.596,123.239
      105.659,123.080
      105.722,122.920
      105.785,122.760
      105.849,122.599
      105.912,122.438
      105.975,122.276
      106.038,122.114
      106.101,121.952
      106.165,121.789
      106.228,121.626
      106.291,121.462
      106.354,121.298
      106.418,121.134
      106.481,120.968
      106.544,120.803
      106.607,120.636
      106.670,120.470
      106.734,120.302
      106.797,120.135
      106.860,119.966
      106.923,119.797
      106.987,119.628
      107.050,119.458
      107.113,119.287
      107.176,119.116
      107.239,118.944
      107.303,118.771
      107.366,118.598
      107.429,118.424
      107.492,118.249
      107.555,118.074
      107.619,117.898
      107.682,117.721
      107.745,117.544
      107.808,117.367
      107.872,117.189
      107.935,117.010
      107.998,116.831
      108.061,116.652
      108.124,116.472
      108.188,116.292
      108.251,116.111
      108.314,115.930
      108.377,115.749
      108.441,115.567
      108.504,115.384
      108.567,115.201
      108.630,115.018
      108.693,114.834
      108.757,114.650
      108.820,114.465
      108.883,114.280
      108.946,114.095
      109.009,113.908
      109.073,113.722
      109.136,113.535
      109.199,113.347
      109.262,113.159
      109.326,112.971
      109.389,112.782
      109.452,112.593
      109.515,112.403
      109.578,112.212
      109.642,112.022
      109.705,111.830
      109.768,111.638
      109.831,111.446
      109.895,111.253
      109.958,111.060
      110.021,110.866
      110.084,110.671
      110.147,110.476
      110.211,110.281
      110.274,110.085
      110.337,109.889
      110.400,109.692
      110.463,109.494
      110.527,109.296
      110.590,109.097
      110.653,108.898
      110.716,108.699
      110.780,108.498
      110.843,108.298
      110.906,108.096
      110.969,107.895
      111.032,107.692
      111.096,107.489
      111.159,107.286
      111.222,107.082
      111.285,106.877
      111.349,106.672
      111.412,106.466
      111.475,106.260
      111.538,106.052
      111.601,105.845
      111.665,105.636
      111.728,105.427
      111.791,105.217
      111.854,105.006
      111.917,104.794
      111.981,104.582
      112.044,104.369
      112.107,104.156
      112.170,103.942
      112.234,103.727
      112.297,103.511
      112.360,103.295
      112.423,103.078
      112.486,102.860
      112.550,102.642
      112.613,102.423
      112.676,102.204
      112.739,101.983
      112.803,101.763
      112.866,101.541
      112.929,101.319
      112.992,101.096
      113.055,100.873
      113.119,100.649
      113.182,100.424
      113.245,100.199
      113.308,99.973
      113.371,99.746
      113.435,99.519
      113.498,99.291
      113.561,99.063
      113.624,98.834
      113.688,98.604
      113.751,98.374
      113.814,98.143
      113.877,97.912
      113.940,97.680
      114.004,97.447
      114.067,97.214
      114.130,96.981
      114.193,96.746
      114.256,96.512
      114.320,96.276
      114.383,96.040
      114.446,95.804
      114.509,95.567
      114.573,95.329
      114.636,95.091
      114.699,94.852
      114.762,94.612
      114.825,94.371
      114.889,94.129
      114.952,93.887
      115.015,93.644
      115.078,93.400
      115.142,93.155
      115.205,92.909
      115.268,92.663
      115.331,92.416
      115.394,92.168
      115.458,91.919
      115.521,91.670
      115.584,91.420
      115.647,91.169
      115.710,90.917
      115.774,90.665
      115.837,90.412
      115.900,90.158
      115.963,89.903
      116.027,89.648
      116.090,89.392
      116.153,89.135
      116.216,88.878
      116.279,88.620
      116.343,88.361
      116.406,88.102
      116.469,87.841
      116.532,87.580
      116.596,87.319
      116.659,87.056
      116.722,86.794
      116.785,86.530
      116.848,86.266
      116.912,86.001
      116.975,85.735
      117.038,85.469
      117.101,85.202
      117.164,84.934
      117.228,84.666
      117.291,84.397
      117.354,84.127
      117.417,83.857
      117.481,83.585
      117.544,83.313
      117.607,83.040
      117.670,82.766
      117.733,82.491
      117.797,82.215
      117.860,81.938
      117.923,81.661
      117.986,81.382
      118.050,81.103
      118.113,80.823
      118.176,80.542
      118.239,80.260
      118.302,79.977
      118.366,79.694
      118.429,79.410
      118.492,79.124
      118.555,78.838
      118.618,78.552
      118.682,78.264
      118.745,77.976
      118.808,77.686
      118.871,77.396
      118.935,77.106
      118.998,76.814
      119.061,76.522
      119.124,76.229
      119.187,75.935
      119.251,75.640
      119.314,75.345
      119.377,75.048
      119.440,74.751
      119.504,74.454
      119.567,74.155
      119.630,73.856
      119.693,73.556
      119.756,73.256
      119.820,72.954
      119.883,72.652
      119.946,72.348
      120.009,72.044
      120.072,71.738
      120.136,71.432
      120.199,71.124
      120.262,70.816
      120.325,70.507
      120.389,70.196
      120.452,69.885
      120.515,69.573
      120.578,69.260
      120.641,68.946
      120.705,68.631
      120.768,68.315
      120.831,67.999
      120.894,67.681
      120.958,67.362
      121.021,67.043
      121.084,66.723
      121.147,66.401
      121.210,66.079
      121.274,65.756
      121.337,65.432
      121.400,65.107
      121.463,64.782
      121.526,64.455
      121.590,64.128
      121.653,63.800
      121.716,63.471
      121.779,63.141
      121.843,62.810
      121.906,62.479
      121.969,62.147
      122.032,61.813
      122.095,61.479
      122.159,61.144
      122.222,60.807
      122.285,60.469
      122.348,60.131
      122.412,59.791
      122.475,59.450
      122.538,59.109
      122.601,58.766
      122.664,58.422
      122.728,58.077
      122.791,57.731
      122.854,57.384
      122.917,57.037
      122.980,56.688
      123.044,56.338
      123.107,55.987
      123.170,55.635
      123.233,55.282
      123.297,54.928
      123.360,54.574
      123.423,54.218
      123.486,53.861
      123.549,53.504
      123.613,53.145
      123.676,52.785
      123.739,52.425
      123.802,52.064
      123.866,51.701
      123.929,51.338
      123.992,50.974
      124.055,50.609
      124.118,50.242
      124.182,49.875
      124.245,49.506
      124.308,49.136
      124.371,48.765
      124.434,48.393
      124.498,48.020
      124.561,47.645
      124.624,47.270
      124.687,46.893
      124.751,46.515
      124.814,46.136
      124.877,45.756
      124.940,45.375
      125.003,44.993
      125.067,44.610
      125.130,44.226
      125.193,43.841
      125.256,43.454
      125.320,43.067
      125.383,42.678
      125.446,42.289
      125.509,41.898
      125.572,41.507
      125.636,41.114
      125.699,40.720
      125.762,40.326
      125.825,39.930
      125.888,39.533
      125.952,39.135
      126.015,38.736
      126.078,38.335
      126.141,37.934
      126.205,37.531
      126.268,37.126
      126.331,36.721
      126.394,36.314
      126.457,35.907
      126.521,35.497
      126.584,35.087
      126.647,34.676
      126.710,34.263
      126.774,33.849
      126.837,33.434
      126.900,33.018
      126.963,32.601
      127.026,32.183
      127.090,31.763
      127.153,31.342
      127.216,30.921
      127.279,30.498
      127.342,30.074
      127.406,29.648
      127.469,29.222
      127.532,28.795
      127.595,28.366
      127.659,27.934
      127.722,27.500
      127.785,27.064
      127.848,26.626
      127.911,26.186
      127.975,25.745
      128.038,25.302
      128.101,24.858
      128.164,24.412
      128.228,23.966
      128.291,23.518
      128.354,23.070
      128.417,22.621
      128.480,22.172
      128.544,21.723
      128.607,21.273
      128.670,20.824
      128.733,20.375
      128.796,19.926
      128.860,19.477
      128.923,19.030
      128.986,18.583
      129.049,18.137
      129.113,17.692
    " />
  </g>

  <!-- точка (1;2) -->
  <circle cx="92.308" cy="148.462" r="2.2" fill="#2d70b3" stroke="#2d70b3" stroke-width="0.6" />

  <!-- стрелка оси x поверх графика -->
  <g stroke="#111827" stroke-width="1.25">
    <line x1="169.615" y1="179.231" x2="184.615" y2="179.231" marker-end="url(#axis-arrow)" />
  </g>

  <!-- подпись -->
  <text x="123.077" y="102.308"
        font-family="Georgia, 'Times New Roman', serif"
        font-style="italic"
        font-size="13"
        fill="#2d70b3">f(x)</text>
</svg>
