<svg xmlns="http://www.w3.org/2000/svg" width="220" height="220" viewBox="0 0 220 220">
  <rect x="0" y="0" width="220" height="220" fill="white" />

  <defs>
    <marker id="axis-arrow"
            viewBox="0 0 15 8"
            refX="13" refY="4"
            markerWidth="12" markerHeight="6.4"
            orient="auto"
            markerUnits="userSpaceOnUse">
      <path d="M 3 0 L 15 4 L 3 8 L 7 4 Z" fill="black" />
    </marker>
  </defs>

  <!-- сетка: x от -4 до 7, y от -2 до 11 -->
  <g stroke="#d1d5db" stroke-width="0.5" shape-rendering="crispEdges">
    <line x1="30.769" y1="10.000" x2="30.769" y2="210.000" />
    <line x1="46.154" y1="10.000" x2="46.154" y2="210.000" />
    <line x1="61.538" y1="10.000" x2="61.538" y2="210.000" />
    <line x1="76.923" y1="10.000" x2="76.923" y2="210.000" />
    <line x1="92.308" y1="10.000" x2="92.308" y2="210.000" />
    <line x1="107.692" y1="10.000" x2="107.692" y2="210.000" />
    <line x1="123.077" y1="10.000" x2="123.077" y2="210.000" />
    <line x1="138.462" y1="10.000" x2="138.462" y2="210.000" />
    <line x1="153.846" y1="10.000" x2="153.846" y2="210.000" />
    <line x1="169.231" y1="10.000" x2="169.231" y2="210.000" />
    <line x1="15.385" y1="194.615" x2="184.615" y2="194.615" />
    <line x1="15.385" y1="179.231" x2="184.615" y2="179.231" />
    <line x1="15.385" y1="163.846" x2="184.615" y2="163.846" />
    <line x1="15.385" y1="148.462" x2="184.615" y2="148.462" />
    <line x1="15.385" y1="133.077" x2="184.615" y2="133.077" />
    <line x1="15.385" y1="117.692" x2="184.615" y2="117.692" />
    <line x1="15.385" y1="102.308" x2="184.615" y2="102.308" />
    <line x1="15.385" y1="86.923" x2="184.615" y2="86.923" />
    <line x1="15.385" y1="71.538" x2="184.615" y2="71.538" />
    <line x1="15.385" y1="56.154" x2="184.615" y2="56.154" />
    <line x1="15.385" y1="40.769" x2="184.615" y2="40.769" />
    <line x1="15.385" y1="25.385" x2="184.615" y2="25.385" />
  </g>

  <!-- оси -->
  <g stroke="#111827" stroke-width="1.25">
    <line x1="15.385" y1="179.231" x2="184.615" y2="179.231" />
    <line x1="76.923" y1="210.000" x2="76.923" y2="10.000" marker-end="url(#axis-arrow)" />
  </g>

  <!-- подписи осей и делений -->
  <g font-family="sans-serif" font-size="11" fill="#111827">
    <text x="72.923" y="192.231" text-anchor="end"
          font-size="13" font-style="italic"
          font-family="Georgia, 'Times New Roman', serif">O</text>

    <rect x="88.808" y="182.231" width="7" height="12" fill="white" />
    <text x="92.308" y="193.231" text-anchor="middle" font-size="13"
          font-family="'Times New Roman', serif"
          font-weight="300">1</text>

    <text x="69.923" y="167.846" text-anchor="end" font-size="13"
          font-family="'Times New Roman', serif"
          font-weight="300">1</text>

    <text x="181.615" y="192.231" text-anchor="start"
          font-family="Georgia, 'Times New Roman', serif"
          font-style="italic" font-size="13">x</text>

    <text x="73.923" y="13.000" text-anchor="end"
          font-family="Georgia, 'Times New Roman', serif"
          font-style="italic" font-size="13">y</text>
  </g>

  <!-- интерполяция (PCHIP) -->
  <g stroke="#2d70b3" stroke-width="1.25" fill="none"
     stroke-linecap="round" stroke-linejoin="round">
    <polyline points="
      58.333,17.692
      58.407,19.177
      58.481,20.668
      58.555,22.156
      58.629,23.634
      58.704,25.094
      58.778,26.533
      58.852,27.959
      58.926,29.371
      59.000,30.771
      59.074,32.157
      59.149,33.530
      59.223,34.890
      59.297,36.238
      59.371,37.573
      59.445,38.896
      59.519,40.206
      59.594,41.504
      59.668,42.789
      59.742,44.064
      59.816,45.326
      59.890,46.577
      59.964,47.815
      60.039,49.041
      60.113,50.257
      60.187,51.461
      60.261,52.655
      60.335,53.837
      60.409,55.008
      60.484,56.167
      60.558,57.315
      60.632,58.454
      60.706,59.582
      60.780,60.700
      60.854,61.807
      60.929,62.903
      61.003,63.988
      61.077,65.064
      61.151,66.130
      61.225,67.186
      61.299,68.233
      61.374,69.270
      61.448,70.296
      61.522,71.313
      61.596,72.320
      61.670,73.318
      61.744,74.307
      61.819,75.287
      61.893,76.258
      61.967,77.220
      62.041,78.172
      62.115,79.115
      62.189,80.049
      62.264,80.975
      62.338,81.893
      62.412,82.802
      62.486,83.703
      62.560,84.595
      62.634,85.479
      62.709,86.354
      62.783,87.220
      62.857,88.078
      62.931,88.929
      63.005,89.773
      63.079,90.609
      63.154,91.437
      63.228,92.258
      63.302,93.070
      63.376,93.874
      63.450,94.670
      63.524,95.458
      63.599,96.240
      63.673,97.015
      63.747,97.783
      63.821,98.545
      63.895,99.299
      63.969,100.046
      64.044,100.785
      64.118,101.517
      64.192,102.242
      64.266,102.959
      64.340,103.671
      64.414,104.376
      64.489,105.076
      64.563,105.769
      64.637,106.456
      64.711,107.136
      64.785,107.810
      64.859,108.477
      64.934,109.137
      65.008,109.790
      65.082,110.437
      65.156,111.078
      65.230,111.714
      65.304,112.345
      65.379,112.970
      65.453,113.590
      65.527,114.204
      65.601,114.812
      65.675,115.414
      65.749,116.010
      65.823,116.601
      65.898,117.184
      65.972,117.762
      66.046,118.334
      66.120,118.902
      66.194,119.465
      66.268,120.023
      66.343,120.577
      66.417,121.126
      66.491,121.669
      66.565,122.208
      66.639,122.741
      66.713,123.270
      66.788,123.792
      66.862,124.310
      66.936,124.821
      67.010,125.327
      67.084,125.829
      67.158,126.326
      67.233,126.819
      67.307,127.309
      67.381,127.794
      67.455,128.275
      67.529,128.752
      67.603,129.225
      67.678,129.693
      67.752,130.157
      67.826,130.616
      67.900,131.071
      67.974,131.521
      68.048,131.966
      68.123,132.406
      68.197,132.841
      68.271,133.272
      68.345,133.699
      68.419,134.122
      68.493,134.543
      68.568,134.960
      68.642,135.374
      68.716,135.785
      68.790,136.192
      68.864,136.595
      68.938,136.995
      69.013,137.391
      69.087,137.783
      69.161,138.171
      69.235,138.556
      69.309,138.936
      69.383,139.313
      69.458,139.685
      69.532,140.053
      69.606,140.416
      69.680,140.776
      69.754,141.131
      69.828,141.485
      69.903,141.836
      69.977,142.184
      70.051,142.530
      70.125,142.873
      70.199,143.214
      70.273,143.551
      70.348,143.886
      70.422,144.218
      70.496,144.547
      70.570,144.873
      70.644,145.196
      70.718,145.516
      70.793,145.832
      70.867,146.145
      70.941,146.455
      71.015,146.762
      71.089,147.065
      71.163,147.365
      71.238,147.661
      71.312,147.953
      71.386,148.242
      71.460,148.527
      71.534,148.810
      71.608,149.091
      71.683,149.370
      71.757,149.647
      71.831,149.923
      71.905,150.197
      71.979,150.468
      72.053,150.738
      72.128,151.005
      72.202,151.271
      72.276,151.534
      72.350,151.795
      72.424,152.054
      72.498,152.310
      72.573,152.564
      72.647,152.816
      72.721,153.065
      72.795,153.312
      72.869,153.556
      72.943,153.798
      73.018,154.037
      73.092,154.273
      73.166,154.507
      73.240,154.738
      73.314,154.966
      73.388,155.191
      73.463,155.413
      73.537,155.632
      73.611,155.849
      73.685,156.062
      73.759,156.272
      73.833,156.481
      73.908,156.688
      73.982,156.894
      74.056,157.099
      74.130,157.303
      74.204,157.504
      74.278,157.705
      74.352,157.904
      74.427,158.102
      74.501,158.298
      74.575,158.493
      74.649,158.686
      74.723,158.878
      74.797,159.069
      74.872,159.258
      74.946,159.445
      75.020,159.631
      75.094,159.815
      75.168,159.998
      75.242,160.180
      75.317,160.359
      75.391,160.537
      75.465,160.714
      75.539,160.889
      75.613,161.062
      75.687,161.234
      75.762,161.404
      75.836,161.573
      75.910,161.739
      75.984,161.905
      76.058,162.068
      76.132,162.230
      76.207,162.390
      76.281,162.548
      76.355,162.705
      76.429,162.860
      76.503,163.013
      76.577,163.164
      76.652,163.314
      76.726,163.462
      76.800,163.608
      76.874,163.752
      76.948,163.894
      77.022,164.036
      77.097,164.176
      77.171,164.315
      77.245,164.453
      77.319,164.589
      77.393,164.725
      77.467,164.860
      77.542,164.993
      77.616,165.126
      77.690,165.257
      77.764,165.387
      77.838,165.517
      77.912,165.645
      77.987,165.772
      78.061,165.897
      78.135,166.022
      78.209,166.146
      78.283,166.268
      78.357,166.390
      78.432,166.510
      78.506,166.630
      78.580,166.748
      78.654,166.865
      78.728,166.981
      78.802,167.096
      78.877,167.210
      78.951,167.323
      79.025,167.434
      79.099,167.545
      79.173,167.654
      79.247,167.763
      79.322,167.870
      79.396,167.976
      79.470,168.081
      79.544,168.185
      79.618,168.288
      79.692,168.390
      79.767,168.491
      79.841,168.590
      79.915,168.689
      79.989,168.787
      80.063,168.883
      80.137,168.978
      80.212,169.072
      80.286,169.166
      80.360,169.259
      80.434,169.351
      80.508,169.442
      80.582,169.533
      80.657,169.623
      80.731,169.712
      80.805,169.801
      80.879,169.888
      80.953,169.975
      81.027,170.062
      81.102,170.147
      81.176,170.232
      81.250,170.316
      81.324,170.400
      81.398,170.482
      81.472,170.564
      81.547,170.645
      81.621,170.726
      81.695,170.806
      81.769,170.885
      81.843,170.963
      81.917,171.041
      81.992,171.117
      82.066,171.194
      82.140,171.269
      82.214,171.344
      82.288,171.418
      82.362,171.491
      82.437,171.563
      82.511,171.635
      82.585,171.706
      82.659,171.776
      82.733,171.846
      82.807,171.915
      82.882,171.983
      82.956,172.051
      83.030,172.117
      83.104,172.183
      83.178,172.248
      83.252,172.313
      83.326,172.377
      83.401,172.440
      83.475,172.502
      83.549,172.564
      83.623,172.626
      83.697,172.687
      83.771,172.747
      83.846,172.807
      83.920,172.867
      83.994,172.926
      84.068,172.985
      84.142,173.043
      84.216,173.100
      84.291,173.158
      84.365,173.214
      84.439,173.270
      84.513,173.326
      84.587,173.381
      84.661,173.436
      84.736,173.490
      84.810,173.544
      84.884,173.598
      84.958,173.650
      85.032,173.703
      85.106,173.755
      85.181,173.806
      85.255,173.857
      85.329,173.907
      85.403,173.957
      85.477,174.007
      85.551,174.056
      85.626,174.104
      85.700,174.152
      85.774,174.200
      85.848,174.247
      85.922,174.293
      85.996,174.339
      86.071,174.385
      86.145,174.430
      86.219,174.475
      86.293,174.519
      86.367,174.562
      86.441,174.606
      86.516,174.648
      86.590,174.690
      86.664,174.732
      86.738,174.774
      86.812,174.815
      86.886,174.855
      86.961,174.896
      87.035,174.936
      87.109,174.976
      87.183,175.015
      87.257,175.054
      87.331,175.093
      87.406,175.131
      87.480,175.170
      87.554,175.207
      87.628,175.245
      87.702,175.282
      87.776,175.319
      87.851,175.356
      87.925,175.392
      87.999,175.428
      88.073,175.463
      88.147,175.499
      88.221,175.534
      88.296,175.568
      88.370,175.603
      88.444,175.637
      88.518,175.670
      88.592,175.704
      88.666,175.737
      88.741,175.770
      88.815,175.802
      88.889,175.834
      88.963,175.866
      89.037,175.897
      89.111,175.928
      89.186,175.959
      89.260,175.990
      89.334,176.020
      89.408,176.050
      89.482,176.079
      89.556,176.108
      89.631,176.137
      89.705,176.166
      89.779,176.194
      89.853,176.222
      89.927,176.249
      90.001,176.277
      90.076,176.304
      90.150,176.331
      90.224,176.358
      90.298,176.384
      90.372,176.411
      90.446,176.437
      90.521,176.463
      90.595,176.488
      90.669,176.514
      90.743,176.539
      90.817,176.564
      90.891,176.589
      90.966,176.613
      91.040,176.638
      91.114,176.662
      91.188,176.686
      91.262,176.710
      91.336,176.733
      91.411,176.757
      91.485,176.780
      91.559,176.803
      91.633,176.825
      91.707,176.848
      91.781,176.870
      91.856,176.892
      91.930,176.914
      92.004,176.936
      92.078,176.957
      92.152,176.978
      92.226,176.999
      92.300,177.020
      92.375,177.041
      92.449,177.061
      92.523,177.081
      92.597,177.101
      92.671,177.121
      92.745,177.140
      92.820,177.160
      92.894,177.179
      92.968,177.198
      93.042,177.216
      93.116,177.235
      93.190,177.253
      93.265,177.271
      93.339,177.289
      93.413,177.307
      93.487,177.325
      93.561,177.343
      93.635,177.360
      93.710,177.377
      93.784,177.395
      93.858,177.412
      93.932,177.429
      94.006,177.445
      94.080,177.462
      94.155,177.478
      94.229,177.495
      94.303,177.511
      94.377,177.527
      94.451,177.543
      94.525,177.559
      94.600,177.574
      94.674,177.590
      94.748,177.605
      94.822,177.620
      94.896,177.635
      94.970,177.650
      95.045,177.665
      95.119,177.680
      95.193,177.694
      95.267,177.709
      95.341,177.723
      95.415,177.737
      95.490,177.751
      95.564,177.765
      95.638,177.778
      95.712,177.792
      95.786,177.805
      95.860,177.818
      95.935,177.832
      96.009,177.845
      96.083,177.857
      96.157,177.870
      96.231,177.883
      96.305,177.895
      96.380,177.907
      96.454,177.919
      96.528,177.931
      96.602,177.943
      96.676,177.955
      96.750,177.967
      96.825,177.979
      96.899,177.990
      96.973,178.002
      97.047,178.013
      97.121,178.024
      97.195,178.036
      97.270,178.047
      97.344,178.058
      97.418,178.069
      97.492,178.080
      97.566,178.090
      97.640,178.101
      97.715,178.111
      97.789,178.122
      97.863,178.132
      97.937,178.143
      98.011,178.153
      98.085,178.163
      98.160,178.173
      98.234,178.183
      98.308,178.192
      98.382,178.202
      98.456,178.212
      98.530,178.221
      98.605,178.231
      98.679,178.240
      98.753,178.249
      98.827,178.258
      98.901,178.268
      98.975,178.276
      99.050,178.285
      99.124,178.294
      99.198,178.303
      99.272,178.311
      99.346,178.320
      99.420,178.328
      99.495,178.337
      99.569,178.345
      99.643,178.353
      99.717,178.361
      99.791,178.369
      99.865,178.377
      99.940,178.385
      100.014,178.393
      100.088,178.400
      100.162,178.408
      100.236,178.416
      100.310,178.423
      100.385,178.431
      100.459,178.438
      100.533,178.445
      100.607,178.453
      100.681,178.460
      100.755,178.467
      100.830,178.474
      100.904,178.481
      100.978,178.488
      101.052,178.495
      101.126,178.502
      101.200,178.509
      101.274,178.516
      101.349,178.522
      101.423,178.529
      101.497,178.536
      101.571,178.542
      101.645,178.549
      101.719,178.555
      101.794,178.561
      101.868,178.568
      101.942,178.574
      102.016,178.580
      102.090,178.586
      102.164,178.592
      102.239,178.598
      102.313,178.604
      102.387,178.610
      102.461,178.615
      102.535,178.621
      102.609,178.627
      102.684,178.632
      102.758,178.638
      102.832,178.643
      102.906,178.648
      102.980,178.654
      103.054,178.659
      103.129,178.664
      103.203,178.670
      103.277,178.675
      103.351,178.680
      103.425,178.685
      103.499,178.690
      103.574,178.695
      103.648,178.700
      103.722,178.705
      103.796,178.710
      103.870,178.715
      103.944,178.720
      104.019,178.724
      104.093,178.729
      104.167,178.734
      104.241,178.738
      104.315,178.743
      104.389,178.748
      104.464,178.752
      104.538,178.756
      104.612,178.761
      104.686,178.765
      104.760,178.770
      104.834,178.774
      104.909,178.778
      104.983,178.782
      105.057,178.787
      105.131,178.791
      105.205,178.795
      105.279,178.799
      105.354,178.803
      105.428,178.807
      105.502,178.811
      105.576,178.815
      105.650,178.819
      105.724,178.822
      105.799,178.826
      105.873,178.830
      105.947,178.834
      106.021,178.837
      106.095,178.841
      106.169,178.844
      106.244,178.848
      106.318,178.852
      106.392,178.855
      106.466,178.858
      106.540,178.862
      106.614,178.865
      106.689,178.869
      106.763,178.872
      106.837,178.875
      106.911,178.879
      106.985,178.882
      107.059,178.885
      107.134,178.888
      107.208,178.892
      107.282,178.895
      107.356,178.898
      107.430,178.901
      107.504,178.904
      107.579,178.907
      107.653,178.910
      107.727,178.913
      107.801,178.916
      107.875,178.919
      107.949,178.922
      108.024,178.925
      108.098,178.928
      108.172,178.930
      108.246,178.933
      108.320,178.936
      108.394,178.939
      108.469,178.942
      108.543,178.944
      108.617,178.947
      108.691,178.950
      108.765,178.952
      108.839,178.955
      108.914,178.957
      108.988,178.960
      109.062,178.962
      109.136,178.965
      109.210,178.967
      109.284,178.970
      109.359,178.972
      109.433,178.974
      109.507,178.977
      109.581,178.979
      109.655,178.981
      109.729,178.984
      109.804,178.986
      109.878,178.988
      109.952,178.990
      110.026,178.993
      110.100,178.995
      110.174,178.997
      110.248,178.999
      110.323,179.001
      110.397,179.003
      110.471,179.005
      110.545,179.008
      110.619,179.010
      110.693,179.012
      110.768,179.014
      110.842,179.016
      110.916,179.018
      110.990,179.020
      111.064,179.022
      111.138,179.024
      111.213,179.025
      111.287,179.027
      111.361,179.029
      111.435,179.031
      111.509,179.033
      111.583,179.035
      111.658,179.037
      111.732,179.038
      111.806,179.040
      111.880,179.042
      111.954,179.044
      112.028,179.046
      112.103,179.047
      112.177,179.049
      112.251,179.051
      112.325,179.052
      112.399,179.054
      112.473,179.056
      112.548,179.057
      112.622,179.059
      112.696,179.061
      112.770,179.062
      112.844,179.064
      112.918,179.065
      112.993,179.067
      113.067,179.069
      113.141,179.070
      113.215,179.072
      113.289,179.073
      113.363,179.075
      113.438,179.076
      113.512,179.078
      113.586,179.079
      113.660,179.081
      113.734,179.082
      113.808,179.084
      113.883,179.085
      113.957,179.087
      114.031,179.088
      114.105,179.090
      114.179,179.091
      114.253,179.092
      114.328,179.094
      114.402,179.095
      114.476,179.096
      114.550,179.098
      114.624,179.099
      114.698,179.100
      114.773,179.102
      114.847,179.103
      114.921,179.104
      114.995,179.106
      115.069,179.107
      115.143,179.108
      115.218,179.109
      115.292,179.110
      115.366,179.112
      115.440,179.113
      115.514,179.114
      115.588,179.115
      115.663,179.116
      115.737,179.117
      115.811,179.118
      115.885,179.119
      115.959,179.120
      116.033,179.121
      116.108,179.123
      116.182,179.124
      116.256,179.125
      116.330,179.126
      116.404,179.127
      116.478,179.128
      116.553,179.128
      116.627,179.129
      116.701,179.130
      116.775,179.131
      116.849,179.132
      116.923,179.133
      116.998,179.134
      117.072,179.135
      117.146,179.136
      117.220,179.137
      117.294,179.138
      117.368,179.139
      117.443,179.139
      117.517,179.140
      117.591,179.141
      117.665,179.142
      117.739,179.143
      117.813,179.144
      117.888,179.144
      117.962,179.145
      118.036,179.146
      118.110,179.147
      118.184,179.148
      118.258,179.148
      118.333,179.149
      118.407,179.150
      118.481,179.151
      118.555,179.151
      118.629,179.152
      118.703,179.153
      118.778,179.154
      118.852,179.154
      118.926,179.155
      119.000,179.156
      119.074,179.156
      119.148,179.157
      119.222,179.158
      119.297,179.158
      119.371,179.159
      119.445,179.160
      119.519,179.160
      119.593,179.161
      119.667,179.162
      119.742,179.162
      119.816,179.163
      119.890,179.164
      119.964,179.164
      120.038,179.165
      120.112,179.165
      120.187,179.166
      120.261,179.167
      120.335,179.167
      120.409,179.168
      120.483,179.168
      120.557,179.169
      120.632,179.170
      120.706,179.170
      120.780,179.171
      120.854,179.171
      120.928,179.172
      121.002,179.172
      121.077,179.173
      121.151,179.174
      121.225,179.174
      121.299,179.175
      121.373,179.175
      121.447,179.176
      121.522,179.176
      121.596,179.177
      121.670,179.177
      121.744,179.178
      121.818,179.178
      121.892,179.179
      121.967,179.179
      122.041,179.180
      122.115,179.180
      122.189,179.181
      122.263,179.181
      122.337,179.182
      122.412,179.182
      122.486,179.182
      122.560,179.183
      122.634,179.183
      122.708,179.184
      122.782,179.184
      122.857,179.185
      122.931,179.185
      123.005,179.185
      123.079,179.186
      123.153,179.186
      123.227,179.187
      123.302,179.187
      123.376,179.188
      123.450,179.188
      123.524,179.188
      123.598,179.189
      123.672,179.189
      123.747,179.190
      123.821,179.190
      123.895,179.190
      123.969,179.191
      124.043,179.191
      124.117,179.191
      124.192,179.192
      124.266,179.192
      124.340,179.193
      124.414,179.193
      124.488,179.193
      124.562,179.194
      124.637,179.194
      124.711,179.194
      124.785,179.195
      124.859,179.195
      124.933,179.195
      125.007,179.196
      125.082,179.196
      125.156,179.196
      125.230,179.197
      125.304,179.197
      125.378,179.197
      125.452,179.198
      125.527,179.198
      125.601,179.198
      125.675,179.198
      125.749,179.199
      125.823,179.199
      125.897,179.199
      125.972,179.200
      126.046,179.200
      126.120,179.200
      126.194,179.201
      126.268,179.201
      126.342,179.201
      126.417,179.201
      126.491,179.202
      126.565,179.202
      126.639,179.202
      126.713,179.202
      126.787,179.203
      126.862,179.203
      126.936,179.203
      127.010,179.203
      127.084,179.204
      127.158,179.204
      127.232,179.204
      127.307,179.205
      127.381,179.205
      127.455,179.205
      127.529,179.205
      127.603,179.205
      127.677,179.206
      127.751,179.206
      127.826,179.206
      127.900,179.206
      127.974,179.207
      128.048,179.207
      128.122,179.207
      128.196,179.207
      128.271,179.208
      128.345,179.208
      128.419,179.208
      128.493,179.208
      128.567,179.208
      128.641,179.209
      128.716,179.209
      128.790,179.209
      128.864,179.209
      128.938,179.209
      129.012,179.210
      129.086,179.210
      129.161,179.210
      129.235,179.210
      129.309,179.210
      129.383,179.211
      129.457,179.211
      129.531,179.211
      129.606,179.211
      129.680,179.211
      129.754,179.211
      129.828,179.212
      129.902,179.212
      129.976,179.212
      130.051,179.212
      130.125,179.212
      130.199,179.213
      130.273,179.213
      130.347,179.213
      130.421,179.213
      130.496,179.213
      130.570,179.213
      130.644,179.214
      130.718,179.214
      130.792,179.214
      130.866,179.214
      130.941,179.214
      131.015,179.214
      131.089,179.214
      131.163,179.215
      131.237,179.215
      131.311,179.215
      131.386,179.215
      131.460,179.215
      131.534,179.215
      131.608,179.216
      131.682,179.216
      131.756,179.216
      131.831,179.216
      131.905,179.216
      131.979,179.216
      132.053,179.216
      132.127,179.216
      132.201,179.217
      132.276,179.217
      132.350,179.217
      132.424,179.217
      132.498,179.217
      132.572,179.217
      132.646,179.217
      132.721,179.218
      132.795,179.218
      132.869,179.218
      132.943,179.218
      133.017,179.218
      133.091,179.218
      133.166,179.218
      133.240,179.218
      133.314,179.218
      133.388,179.219
      133.462,179.219
      133.536,179.219
      133.611,179.219
      133.685,179.219
      133.759,179.219
      133.833,179.219
      133.907,179.219
      133.981,179.219
      134.056,179.220
      134.130,179.220
      134.204,179.220
      134.278,179.220
      134.352,179.220
      134.426,179.220
      134.501,179.220
      134.575,179.220
      134.649,179.220
      134.723,179.220
      134.797,179.221
      134.871,179.221
      134.946,179.221
      135.020,179.221
      135.094,179.221
      135.168,179.221
      135.242,179.221
      135.316,179.221
      135.391,179.221
      135.465,179.221
      135.539,179.222
      135.613,179.222
      135.687,179.222
      135.761,179.222
      135.836,179.222
      135.910,179.222
      135.984,179.222
      136.058,179.222
      136.132,179.222
      136.206,179.222
      136.281,179.222
      136.355,179.222
      136.429,179.223
      136.503,179.223
      136.577,179.223
      136.651,179.223
      136.725,179.223
      136.800,179.223
      136.874,179.223
      136.948,179.223
      137.022,179.223
      137.096,179.223
      137.170,179.223
      137.245,179.223
      137.319,179.223
      137.393,179.224
      137.467,179.224
      137.541,179.224
      137.615,179.224
      137.690,179.224
      137.764,179.224
      137.838,179.224
      137.912,179.224
      137.986,179.224
      138.060,179.224
      138.135,179.224
      138.209,179.224
      138.283,179.224
      138.357,179.224
      138.431,179.224
      138.505,179.224
      138.580,179.224
      138.654,179.224
      138.728,179.225
      138.802,179.225
      138.876,179.225
      138.950,179.225
      139.025,179.225
      139.099,179.225
      139.173,179.225
      139.247,179.225
      139.321,179.225
      139.395,179.225
      139.470,179.225
      139.544,179.225
      139.618,179.225
      139.692,179.225
      139.766,179.225
      139.840,179.225
      139.915,179.225
      139.989,179.225
      140.063,179.225
      140.137,179.225
      140.211,179.226
      140.285,179.226
      140.360,179.226
      140.434,179.226
      140.508,179.226
      140.582,179.226
      140.656,179.226
      140.730,179.226
      140.805,179.226
      140.879,179.226
      140.953,179.226
      141.027,179.226
      141.101,179.226
      141.175,179.226
      141.250,179.226
      141.324,179.226
      141.398,179.226
      141.472,179.226
      141.546,179.226
      141.620,179.226
      141.695,179.226
      141.769,179.226
      141.843,179.226
      141.917,179.226
      141.991,179.227
      142.065,179.227
      142.140,179.227
      142.214,179.227
      142.288,179.227
      142.362,179.227
      142.436,179.227
      142.510,179.227
      142.585,179.227
      142.659,179.227
      142.733,179.227
      142.807,179.227
      142.881,179.227
      142.955,179.227
      143.030,179.227
      143.104,179.227
      143.178,179.227
      143.252,179.227
      143.326,179.227
      143.400,179.227
      143.475,179.227
      143.549,179.227
      143.623,179.227
      143.697,179.227
      143.771,179.227
      143.845,179.227
      143.920,179.227
      143.994,179.228
      144.068,179.228
      144.142,179.228
      144.216,179.228
      144.290,179.228
      144.365,179.228
      144.439,179.228
      144.513,179.228
      144.587,179.228
      144.661,179.228
      144.735,179.228
      144.810,179.228
      144.884,179.228
      144.958,179.228
      145.032,179.228
      145.106,179.228
      145.180,179.228
      145.255,179.228
      145.329,179.228
      145.403,179.228
      145.477,179.228
      145.551,179.228
      145.625,179.228
      145.699,179.228
      145.774,179.228
      145.848,179.228
      145.922,179.228
      145.996,179.228
      146.070,179.228
      146.144,179.228
      146.219,179.228
      146.293,179.228
      146.367,179.228
      146.441,179.228
      146.515,179.228
      146.589,179.228
      146.664,179.229
      146.738,179.229
      146.812,179.229
      146.886,179.229
      146.960,179.229
      147.034,179.229
      147.109,179.229
      147.183,179.229
      147.257,179.229
      147.331,179.229
      147.405,179.229
      147.479,179.229
      147.554,179.229
      147.628,179.229
      147.702,179.229
      147.776,179.229
      147.850,179.229
      147.924,179.229
      147.999,179.229
      148.073,179.229
      148.147,179.229
      148.221,179.229
      148.295,179.229
      148.369,179.229
      148.444,179.229
      148.518,179.229
      148.592,179.229
      148.666,179.229
      148.740,179.229
      148.814,179.229
      148.889,179.229
      148.963,179.229
      149.037,179.229
      149.111,179.229
      149.185,179.229
      149.259,179.229
      149.334,179.229
      149.408,179.229
      149.482,179.229
      149.556,179.229
      149.630,179.229
      149.704,179.229
      149.779,179.229
      149.853,179.229
      149.927,179.229
      150.001,179.229
      150.075,179.229
      150.149,179.229
      150.224,179.229
      150.298,179.229
      150.372,179.229
      150.446,179.229
      150.520,179.229
      150.594,179.229
      150.669,179.229
      150.743,179.229
      150.817,179.229
      150.891,179.229
      150.965,179.229
      151.039,179.229
      151.114,179.229
      151.188,179.229
      151.262,179.229
      151.336,179.229
      151.410,179.229
      151.484,179.230
      151.559,179.230
      151.633,179.230
      151.707,179.230
      151.781,179.230
      151.855,179.230
      151.929,179.230
      152.004,179.230
      152.078,179.230
      152.152,179.230
      152.226,179.230
      152.300,179.230
      152.374,179.230
      152.449,179.230
      152.523,179.230
      152.597,179.230
      152.671,179.230
      152.745,179.230
      152.819,179.230
      152.894,179.230
      152.968,179.230
      153.042,179.230
      153.116,179.230
      153.190,179.230
      153.264,179.230
      153.339,179.230
      153.413,179.230
      153.487,179.230
      153.561,179.230
      153.635,179.230
      153.709,179.230
      153.784,179.230
      153.858,179.230
      153.932,179.230
      154.006,179.230
      154.080,179.230
      154.154,179.230
      154.229,179.230
      154.303,179.230
      154.377,179.230
      154.451,179.230
      154.525,179.230
      154.599,179.230
      154.673,179.230
      154.748,179.230
      154.822,179.230
      154.896,179.230
      154.970,179.230
      155.044,179.230
      155.118,179.230
      155.193,179.230
      155.267,179.230
      155.341,179.230
      155.415,179.230
      155.489,179.230
      155.563,179.230
      155.638,179.230
      155.712,179.230
      155.786,179.230
      155.860,179.230
      155.934,179.230
      156.008,179.230
      156.083,179.230
      156.157,179.230
      156.231,179.230
      156.305,179.230
      156.379,179.230
      156.453,179.230
      156.528,179.230
      156.602,179.230
      156.676,179.230
      156.750,179.230
      156.824,179.230
      156.898,179.230
      156.973,179.230
      157.047,179.230
      157.121,179.230
      157.195,179.230
      157.269,179.230
      157.343,179.230
      157.418,179.230
      157.492,179.230
      157.566,179.230
      157.640,179.230
      157.714,179.230
      157.788,179.230
      157.863,179.230
      157.937,179.230
      158.011,179.230
      158.085,179.230
      158.159,179.230
      158.233,179.230
      158.308,179.230
      158.382,179.230
      158.456,179.230
      158.530,179.230
      158.604,179.230
      158.678,179.230
      158.753,179.230
      158.827,179.230
      158.901,179.230
      158.975,179.230
      159.049,179.230
      159.123,179.230
      159.198,179.230
      159.272,179.230
      159.346,179.230
      159.420,179.230
      159.494,179.230
      159.568,179.230
      159.643,179.230
      159.717,179.230
      159.791,179.230
      159.865,179.230
      159.939,179.230
      160.013,179.230
      160.088,179.230
      160.162,179.230
      160.236,179.230
      160.310,179.230
      160.384,179.230
      160.458,179.230
      160.533,179.230
      160.607,179.230
      160.681,179.230
      160.755,179.230
      160.829,179.230
      160.903,179.230
      160.978,179.230
      161.052,179.230
      161.126,179.230
      161.200,179.230
      161.274,179.230
      161.348,179.230
      161.423,179.230
      161.497,179.230
      161.571,179.230
      161.645,179.230
      161.719,179.230
      161.793,179.230
      161.868,179.230
      161.942,179.230
      162.016,179.230
      162.090,179.230
      162.164,179.230
      162.238,179.230
      162.313,179.230
      162.387,179.230
      162.461,179.230
      162.535,179.230
      162.609,179.230
      162.683,179.230
      162.758,179.230
      162.832,179.230
      162.906,179.230
      162.980,179.230
      163.054,179.230
      163.128,179.230
      163.203,179.230
      163.277,179.230
      163.351,179.230
      163.425,179.230
      163.499,179.230
      163.573,179.230
      163.647,179.230
      163.722,179.231
      163.796,179.231
      163.870,179.231
      163.944,179.231
      164.018,179.231
      164.092,179.231
      164.167,179.231
      164.241,179.231
      164.315,179.231
      164.389,179.231
      164.463,179.231
      164.537,179.231
      164.612,179.231
      164.686,179.231
      164.760,179.231
      164.834,179.231
      164.908,179.231
      164.982,179.231
      165.057,179.231
      165.131,179.231
      165.205,179.231
      165.279,179.231
      165.353,179.231
      165.427,179.231
      165.502,179.231
      165.576,179.231
      165.650,179.231
      165.724,179.231
      165.798,179.231
      165.872,179.231
      165.947,179.231
      166.021,179.231
      166.095,179.231
      166.169,179.231
      166.243,179.231
      166.317,179.231
      166.392,179.231
      166.466,179.231
      166.540,179.231
      166.614,179.231
      166.688,179.231
      166.762,179.231
      166.837,179.231
      166.911,179.231
      166.985,179.231
      167.059,179.231
      167.133,179.231
      167.207,179.231
      167.282,179.231
      167.356,179.231
      167.430,179.231
      167.504,179.231
      167.578,179.231
      167.652,179.231
      167.727,179.231
      167.801,179.231
      167.875,179.231
      167.949,179.231
      168.023,179.231
      168.097,179.231
      168.172,179.231
      168.246,179.231
      168.320,179.231
      168.394,179.231
      168.468,179.231
      168.542,179.231
      168.617,179.231
      168.691,179.231
      168.765,179.231
      168.839,179.231
      168.913,179.231
      168.987,179.231
      169.062,179.231
      169.136,179.231
      169.210,179.231
      169.284,179.231
      169.358,179.231
      169.432,179.231
      169.507,179.231
      169.581,179.231
      169.655,179.231
      169.729,179.231
      169.803,179.231
      169.877,179.231
      169.952,179.231
      170.026,179.231
      170.100,179.231
      170.174,179.231
      170.248,179.231
      170.322,179.231
      170.397,179.231
      170.471,179.231
      170.545,179.231
      170.619,179.231
      170.693,179.231
      170.767,179.231
      170.842,179.231
      170.916,179.231
      170.990,179.231
      171.064,179.231
      171.138,179.231
      171.212,179.231
      171.287,179.231
      171.361,179.231
      171.435,179.231
      171.509,179.231
      171.583,179.231
      171.657,179.231
      171.732,179.231
      171.806,179.231
      171.880,179.231
      171.954,179.231
      172.028,179.231
      172.102,179.231
      172.176,179.231
      172.251,179.231
      172.325,179.231
      172.399,179.231
      172.473,179.231
      172.547,179.231
      172.621,179.231
      172.696,179.231
      172.770,179.231
      172.844,179.231
      172.918,179.231
      172.992,179.231
      173.066,179.231
      173.141,179.231
      173.215,179.231
      173.289,179.231
      173.363,179.231
      173.437,179.231
      173.511,179.231
      173.586,179.231
      173.660,179.231
      173.734,179.231
      173.808,179.231
      173.882,179.231
      173.956,179.231
      174.031,179.231
      174.105,179.231
      174.179,179.231
      174.253,179.231
      174.327,179.231
      174.401,179.231
      174.476,179.231
      174.550,179.231
      174.624,179.231
      174.698,179.231
      174.772,179.231
      174.846,179.231
      174.921,179.231
      174.995,179.231
      175.069,179.231
      175.143,179.231
      175.217,179.231
      175.291,179.231
      175.366,179.231
      175.440,179.231
      175.514,179.231
      175.588,179.231
      175.662,179.231
      175.736,179.231
      175.811,179.231
      175.885,179.231
      175.959,179.231
      176.033,179.231
      176.107,179.231
      176.181,179.231
      176.256,179.231
      176.330,179.231
      176.404,179.231
      176.478,179.231
      176.552,179.231
      176.626,179.231
      176.701,179.231
      176.775,179.231
      176.849,179.231
      176.923,179.231
    " />
  </g>

  <!-- точка (-1;7) -->
  <circle cx="61.538" cy="71.538" r="2.2" fill="#2d70b3" stroke="#2d70b3" stroke-width="0.6" />

  <!-- стрелка оси x поверх графика -->
  <g stroke="#111827" stroke-width="1.25">
    <line x1="169.615" y1="179.231" x2="184.615" y2="179.231" marker-end="url(#axis-arrow)" />
  </g>

  <!-- подпись -->
  <text x="92.308" y="160.846"
        font-family="Georgia, 'Times New Roman', serif"
        font-style="italic"
        font-size="13"
        fill="#2d70b3">f(x)</text>
</svg>
