<svg xmlns="http://www.w3.org/2000/svg" width="220" height="220" viewBox="0 0 220 220">
  <rect x="0" y="0" width="220" height="220" fill="white" />

  <defs>
    <marker id="axis-arrow"
            viewBox="0 0 15 8"
            refX="13" refY="4"
            markerWidth="12" markerHeight="6.4"
            orient="auto"
            markerUnits="userSpaceOnUse">
      <path d="M 3 0 L 15 4 L 3 8 L 7 4 Z" fill="black" />
    </marker>
  </defs>

  <!-- сетка: x от -4 до 7, y от -2 до 11 -->
  <g stroke="#d1d5db" stroke-width="0.5" shape-rendering="crispEdges">
    <line x1="30.769" y1="10.000" x2="30.769" y2="210.000" />
    <line x1="46.154" y1="10.000" x2="46.154" y2="210.000" />
    <line x1="61.538" y1="10.000" x2="61.538" y2="210.000" />
    <line x1="76.923" y1="10.000" x2="76.923" y2="210.000" />
    <line x1="92.308" y1="10.000" x2="92.308" y2="210.000" />
    <line x1="107.692" y1="10.000" x2="107.692" y2="210.000" />
    <line x1="123.077" y1="10.000" x2="123.077" y2="210.000" />
    <line x1="138.462" y1="10.000" x2="138.462" y2="210.000" />
    <line x1="153.846" y1="10.000" x2="153.846" y2="210.000" />
    <line x1="169.231" y1="10.000" x2="169.231" y2="210.000" />
    <line x1="15.385" y1="194.615" x2="184.615" y2="194.615" />
    <line x1="15.385" y1="179.231" x2="184.615" y2="179.231" />
    <line x1="15.385" y1="163.846" x2="184.615" y2="163.846" />
    <line x1="15.385" y1="148.462" x2="184.615" y2="148.462" />
    <line x1="15.385" y1="133.077" x2="184.615" y2="133.077" />
    <line x1="15.385" y1="117.692" x2="184.615" y2="117.692" />
    <line x1="15.385" y1="102.308" x2="184.615" y2="102.308" />
    <line x1="15.385" y1="86.923" x2="184.615" y2="86.923" />
    <line x1="15.385" y1="71.538" x2="184.615" y2="71.538" />
    <line x1="15.385" y1="56.154" x2="184.615" y2="56.154" />
    <line x1="15.385" y1="40.769" x2="184.615" y2="40.769" />
    <line x1="15.385" y1="25.385" x2="184.615" y2="25.385" />
  </g>

  <!-- оси -->
  <g stroke="#111827" stroke-width="1.25">
    <line x1="15.385" y1="179.231" x2="184.615" y2="179.231" />
    <line x1="76.923" y1="210.000" x2="76.923" y2="10.000" marker-end="url(#axis-arrow)" />
  </g>

  <!-- подписи осей и делений -->
  <g font-family="sans-serif" font-size="11" fill="#111827">
    <text x="72.923" y="192.231" text-anchor="end"
          font-size="13" font-style="italic"
          font-family="Georgia, 'Times New Roman', serif">O</text>

    <rect x="88.808" y="182.231" width="7" height="12" fill="white" />
    <text x="92.308" y="193.231" text-anchor="middle" font-size="13"
          font-family="'Times New Roman', serif"
          font-weight="300">1</text>

    <text x="69.923" y="167.846" text-anchor="end" font-size="13"
          font-family="'Times New Roman', serif"
          font-weight="300">1</text>

    <text x="181.615" y="192.231" text-anchor="start"
          font-family="Georgia, 'Times New Roman', serif"
          font-style="italic" font-size="13">x</text>

    <text x="73.923" y="13.000" text-anchor="end"
          font-family="Georgia, 'Times New Roman', serif"
          font-style="italic" font-size="13">y</text>
  </g>

  <!-- интерполяция (PCHIP) -->
  <g stroke="#2d70b3" stroke-width="1.25" fill="none"
     stroke-linecap="round" stroke-linejoin="round">
    <polyline points="
      54.446,17.692
      54.523,18.960
      54.599,20.233
      54.676,21.506
      54.753,22.774
      54.829,24.032
      54.906,25.275
      54.982,26.503
      55.059,27.722
      55.136,28.932
      55.212,30.132
      55.289,31.322
      55.365,32.502
      55.442,33.672
      55.519,34.834
      55.595,35.986
      55.672,37.130
      55.748,38.264
      55.825,39.390
      55.902,40.505
      55.978,41.612
      56.055,42.710
      56.131,43.800
      56.208,44.881
      56.285,45.954
      56.361,47.018
      56.438,48.073
      56.514,49.119
      56.591,50.157
      56.668,51.187
      56.744,52.209
      56.821,53.224
      56.897,54.230
      56.974,55.227
      57.051,56.216
      57.127,57.197
      57.204,58.171
      57.280,59.138
      57.357,60.097
      57.434,61.048
      57.510,61.991
      57.587,62.927
      57.663,63.854
      57.740,64.775
      57.816,65.688
      57.893,66.594
      57.970,67.494
      58.046,68.386
      58.123,69.271
      58.199,70.149
      58.276,71.019
      58.353,71.882
      58.429,72.738
      58.506,73.588
      58.582,74.431
      58.659,75.268
      58.736,76.098
      58.812,76.922
      58.889,77.739
      58.965,78.548
      59.042,79.351
      59.119,80.147
      59.195,80.938
      59.272,81.723
      59.348,82.501
      59.425,83.274
      59.502,84.040
      59.578,84.800
      59.655,85.554
      59.731,86.301
      59.808,87.042
      59.885,87.777
      59.961,88.507
      60.038,89.231
      60.114,89.950
      60.191,90.663
      60.268,91.370
      60.344,92.072
      60.421,92.768
      60.497,93.458
      60.574,94.142
      60.651,94.820
      60.727,95.493
      60.804,96.161
      60.880,96.824
      60.957,97.482
      61.034,98.135
      61.110,98.783
      61.187,99.426
      61.263,100.063
      61.340,100.695
      61.417,101.322
      61.493,101.943
      61.570,102.558
      61.646,103.169
      61.723,103.776
      61.799,104.378
      61.876,104.976
      61.953,105.569
      62.029,106.158
      62.106,106.742
      62.182,107.321
      62.259,107.895
      62.336,108.465
      62.412,109.029
      62.489,109.589
      62.565,110.143
      62.642,110.693
      62.719,111.240
      62.795,111.782
      62.872,112.321
      62.948,112.855
      63.025,113.386
      63.102,113.912
      63.178,114.435
      63.255,114.952
      63.331,115.466
      63.408,115.975
      63.485,116.480
      63.561,116.980
      63.638,117.476
      63.714,117.967
      63.791,118.455
      63.868,118.939
      63.944,119.420
      64.021,119.898
      64.097,120.372
      64.174,120.842
      64.251,121.309
      64.327,121.773
      64.404,122.232
      64.480,122.688
      64.557,123.140
      64.634,123.588
      64.710,124.032
      64.787,124.472
      64.863,124.908
      64.940,125.340
      65.017,125.768
      65.093,126.194
      65.170,126.617
      65.246,127.038
      65.323,127.456
      65.399,127.870
      65.476,128.282
      65.553,128.691
      65.629,129.097
      65.706,129.499
      65.782,129.898
      65.859,130.293
      65.936,130.685
      66.012,131.073
      66.089,131.457
      66.165,131.837
      66.242,132.213
      66.319,132.585
      66.395,132.952
      66.472,133.316
      66.548,133.677
      66.625,134.036
      66.702,134.394
      66.778,134.748
      66.855,135.100
      66.931,135.450
      67.008,135.797
      67.085,136.142
      67.161,136.483
      67.238,136.822
      67.314,137.157
      67.391,137.489
      67.468,137.819
      67.544,138.144
      67.621,138.467
      67.697,138.785
      67.774,139.101
      67.851,139.412
      67.927,139.720
      68.004,140.023
      68.080,140.323
      68.157,140.618
      68.234,140.910
      68.310,141.199
      68.387,141.487
      68.463,141.772
      68.540,142.056
      68.617,142.337
      68.693,142.617
      68.770,142.894
      68.846,143.169
      68.923,143.442
      68.999,143.712
      69.076,143.981
      69.153,144.247
      69.229,144.510
      69.306,144.771
      69.382,145.030
      69.459,145.286
      69.536,145.539
      69.612,145.790
      69.689,146.038
      69.765,146.283
      69.842,146.526
      69.919,146.766
      69.995,147.002
      70.072,147.236
      70.148,147.467
      70.225,147.695
      70.302,147.920
      70.378,148.142
      70.455,148.361
      70.531,148.577
      70.608,148.789
      70.685,148.999
      70.761,149.205
      70.838,149.409
      70.914,149.611
      70.991,149.809
      71.068,150.006
      71.144,150.200
      71.221,150.392
      71.297,150.582
      71.374,150.770
      71.451,150.956
      71.527,151.140
      71.604,151.323
      71.680,151.504
      71.757,151.684
      71.834,151.862
      71.910,152.040
      71.987,152.216
      72.063,152.391
      72.140,152.566
      72.217,152.740
      72.293,152.913
      72.370,153.086
      72.446,153.258
      72.523,153.430
      72.599,153.602
      72.676,153.774
      72.753,153.946
      72.829,154.119
      72.906,154.291
      72.982,154.464
      73.059,154.637
      73.136,154.811
      73.212,154.986
      73.289,155.162
      73.365,155.338
      73.442,155.516
      73.519,155.695
      73.595,155.875
      73.672,156.057
      73.748,156.240
      73.825,156.425
      73.902,156.613
      73.978,156.803
      74.055,156.994
      74.131,157.187
      74.208,157.382
      74.285,157.578
      74.361,157.775
      74.438,157.973
      74.514,158.172
      74.591,158.371
      74.668,158.571
      74.744,158.771
      74.821,158.972
      74.897,159.172
      74.974,159.372
      75.051,159.571
      75.127,159.770
      75.204,159.969
      75.280,160.166
      75.357,160.362
      75.434,160.557
      75.510,160.750
      75.587,160.942
      75.663,161.132
      75.740,161.320
      75.817,161.506
      75.893,161.690
      75.970,161.871
      76.046,162.049
      76.123,162.225
      76.200,162.397
      76.276,162.567
      76.353,162.733
      76.429,162.895
      76.506,163.054
      76.582,163.209
      76.659,163.360
      76.736,163.506
      76.812,163.649
      76.889,163.786
      76.965,163.920
      77.042,164.051
      77.119,164.180
      77.195,164.308
      77.272,164.434
      77.348,164.558
      77.425,164.680
      77.502,164.801
      77.578,164.920
      77.655,165.038
      77.731,165.154
      77.808,165.268
      77.885,165.382
      77.961,165.493
      78.038,165.604
      78.114,165.713
      78.191,165.820
      78.268,165.927
      78.344,166.032
      78.421,166.136
      78.497,166.239
      78.574,166.341
      78.651,166.441
      78.727,166.541
      78.804,166.640
      78.880,166.737
      78.957,166.834
      79.034,166.930
      79.110,167.025
      79.187,167.119
      79.263,167.212
      79.340,167.305
      79.417,167.397
      79.493,167.488
      79.570,167.579
      79.646,167.669
      79.723,167.759
      79.800,167.848
      79.876,167.936
      79.953,168.024
      80.029,168.112
      80.106,168.199
      80.182,168.286
      80.259,168.373
      80.336,168.459
      80.412,168.544
      80.489,168.629
      80.565,168.713
      80.642,168.796
      80.719,168.879
      80.795,168.962
      80.872,169.043
      80.948,169.125
      81.025,169.205
      81.102,169.285
      81.178,169.365
      81.255,169.443
      81.331,169.522
      81.408,169.599
      81.485,169.676
      81.561,169.753
      81.638,169.829
      81.714,169.904
      81.791,169.979
      81.868,170.053
      81.944,170.126
      82.021,170.199
      82.097,170.271
      82.174,170.343
      82.251,170.414
      82.327,170.485
      82.404,170.555
      82.480,170.624
      82.557,170.693
      82.634,170.761
      82.710,170.829
      82.787,170.896
      82.863,170.962
      82.940,171.028
      83.017,171.093
      83.093,171.158
      83.170,171.222
      83.246,171.285
      83.323,171.348
      83.400,171.411
      83.476,171.472
      83.553,171.534
      83.629,171.595
      83.706,171.655
      83.782,171.715
      83.859,171.775
      83.936,171.834
      84.012,171.893
      84.089,171.952
      84.165,172.010
      84.242,172.067
      84.319,172.124
      84.395,172.181
      84.472,172.237
      84.548,172.293
      84.625,172.349
      84.702,172.404
      84.778,172.458
      84.855,172.513
      84.931,172.566
      85.008,172.620
      85.085,172.673
      85.161,172.725
      85.238,172.777
      85.314,172.829
      85.391,172.880
      85.468,172.931
      85.544,172.982
      85.621,173.032
      85.697,173.081
      85.774,173.130
      85.851,173.179
      85.927,173.227
      86.004,173.275
      86.080,173.323
      86.157,173.370
      86.234,173.417
      86.310,173.463
      86.387,173.509
      86.463,173.554
      86.540,173.599
      86.617,173.643
      86.693,173.688
      86.770,173.731
      86.846,173.775
      86.923,173.818
      87.000,173.861
      87.076,173.904
      87.153,173.946
      87.229,173.988
      87.306,174.030
      87.383,174.071
      87.459,174.113
      87.536,174.153
      87.612,174.194
      87.689,174.234
      87.765,174.274
      87.842,174.314
      87.919,174.353
      87.995,174.392
      88.072,174.431
      88.148,174.469
      88.225,174.507
      88.302,174.545
      88.378,174.583
      88.455,174.620
      88.531,174.657
      88.608,174.694
      88.685,174.730
      88.761,174.766
      88.838,174.802
      88.914,174.837
      88.991,174.872
      89.068,174.907
      89.144,174.942
      89.221,174.976
      89.297,175.010
      89.374,175.044
      89.451,175.077
      89.527,175.110
      89.604,175.143
      89.680,175.175
      89.757,175.207
      89.834,175.239
      89.910,175.271
      89.987,175.302
      90.063,175.333
      90.140,175.364
      90.217,175.395
      90.293,175.425
      90.370,175.456
      90.446,175.486
      90.523,175.515
      90.600,175.545
      90.676,175.574
      90.753,175.604
      90.829,175.633
      90.906,175.661
      90.983,175.690
      91.059,175.718
      91.136,175.746
      91.212,175.774
      91.289,175.802
      91.365,175.829
      91.442,175.857
      91.519,175.884
      91.595,175.911
      91.672,175.937
      91.748,175.964
      91.825,175.990
      91.902,176.016
      91.978,176.042
      92.055,176.067
      92.131,176.093
      92.208,176.118
      92.285,176.143
      92.361,176.167
      92.438,176.192
      92.514,176.216
      92.591,176.240
      92.668,176.264
      92.744,176.288
      92.821,176.311
      92.897,176.334
      92.974,176.357
      93.051,176.380
      93.127,176.403
      93.204,176.425
      93.280,176.447
      93.357,176.469
      93.434,176.491
      93.510,176.513
      93.587,176.535
      93.663,176.556
      93.740,176.577
      93.817,176.599
      93.893,176.620
      93.970,176.640
      94.046,176.661
      94.123,176.682
      94.200,176.702
      94.276,176.722
      94.353,176.743
      94.429,176.762
      94.506,176.782
      94.583,176.802
      94.659,176.821
      94.736,176.841
      94.812,176.860
      94.889,176.879
      94.965,176.898
      95.042,176.917
      95.119,176.935
      95.195,176.954
      95.272,176.972
      95.348,176.990
      95.425,177.008
      95.502,177.026
      95.578,177.043
      95.655,177.061
      95.731,177.078
      95.808,177.096
      95.885,177.113
      95.961,177.130
      96.038,177.146
      96.114,177.163
      96.191,177.179
      96.268,177.196
      96.344,177.212
      96.421,177.228
      96.497,177.244
      96.574,177.260
      96.651,177.275
      96.727,177.291
      96.804,177.306
      96.880,177.322
      96.957,177.337
      97.034,177.352
      97.110,177.367
      97.187,177.382
      97.263,177.397
      97.340,177.412
      97.417,177.426
      97.493,177.441
      97.570,177.455
      97.646,177.469
      97.723,177.483
      97.800,177.498
      97.876,177.511
      97.953,177.525
      98.029,177.539
      98.106,177.553
      98.183,177.566
      98.259,177.580
      98.336,177.593
      98.412,177.606
      98.489,177.619
      98.565,177.632
      98.642,177.645
      98.719,177.658
      98.795,177.670
      98.872,177.683
      98.948,177.695
      99.025,177.708
      99.102,177.720
      99.178,177.732
      99.255,177.744
      99.331,177.756
      99.408,177.768
      99.485,177.779
      99.561,177.791
      99.638,177.802
      99.714,177.814
      99.791,177.825
      99.868,177.836
      99.944,177.848
      100.021,177.859
      100.097,177.870
      100.174,177.881
      100.251,177.891
      100.327,177.902
      100.404,177.913
      100.480,177.924
      100.557,177.934
      100.634,177.945
      100.710,177.955
      100.787,177.965
      100.863,177.976
      100.940,177.986
      101.017,177.996
      101.093,178.006
      101.170,178.016
      101.246,178.026
      101.323,178.035
      101.400,178.045
      101.476,178.055
      101.553,178.064
      101.629,178.074
      101.706,178.083
      101.783,178.092
      101.859,178.102
      101.936,178.111
      102.012,178.120
      102.089,178.129
      102.166,178.138
      102.242,178.146
      102.319,178.155
      102.395,178.164
      102.472,178.173
      102.548,178.181
      102.625,178.189
      102.702,178.198
      102.778,178.206
      102.855,178.214
      102.931,178.222
      103.008,178.230
      103.085,178.238
      103.161,178.246
      103.238,178.254
      103.314,178.262
      103.391,178.270
      103.468,178.278
      103.544,178.285
      103.621,178.293
      103.697,178.301
      103.774,178.308
      103.851,178.316
      103.927,178.323
      104.004,178.330
      104.080,178.338
      104.157,178.345
      104.234,178.352
      104.310,178.359
      104.387,178.366
      104.463,178.373
      104.540,178.380
      104.617,178.387
      104.693,178.394
      104.770,178.401
      104.846,178.408
      104.923,178.414
      105.000,178.421
      105.076,178.427
      105.153,178.434
      105.229,178.440
      105.306,178.447
      105.383,178.453
      105.459,178.459
      105.536,178.466
      105.612,178.472
      105.689,178.478
      105.766,178.484
      105.842,178.490
      105.919,178.496
      105.995,178.502
      106.072,178.508
      106.148,178.513
      106.225,178.519
      106.302,178.525
      106.378,178.531
      106.455,178.536
      106.531,178.542
      106.608,178.547
      106.685,178.553
      106.761,178.558
      106.838,178.564
      106.914,178.569
      106.991,178.575
      107.068,178.580
      107.144,178.585
      107.221,178.590
      107.297,178.596
      107.374,178.601
      107.451,178.606
      107.527,178.611
      107.604,178.616
      107.680,178.621
      107.757,178.626
      107.834,178.631
      107.910,178.636
      107.987,178.641
      108.063,178.645
      108.140,178.650
      108.217,178.655
      108.293,178.660
      108.370,178.664
      108.446,178.669
      108.523,178.673
      108.600,178.678
      108.676,178.682
      108.753,178.687
      108.829,178.691
      108.906,178.696
      108.983,178.700
      109.059,178.704
      109.136,178.708
      109.212,178.713
      109.289,178.717
      109.366,178.721
      109.442,178.725
      109.519,178.729
      109.595,178.733
      109.672,178.737
      109.748,178.741
      109.825,178.745
      109.902,178.749
      109.978,178.753
      110.055,178.757
      110.131,178.761
      110.208,178.764
      110.285,178.768
      110.361,178.772
      110.438,178.776
      110.514,178.779
      110.591,178.783
      110.668,178.787
      110.744,178.790
      110.821,178.794
      110.897,178.797
      110.974,178.801
      111.051,178.804
      111.127,178.808
      111.204,178.811
      111.280,178.815
      111.357,178.818
      111.434,178.822
      111.510,178.825
      111.587,178.828
      111.663,178.831
      111.740,178.835
      111.817,178.838
      111.893,178.841
      111.970,178.844
      112.046,178.847
      112.123,178.850
      112.200,178.854
      112.276,178.857
      112.353,178.860
      112.429,178.863
      112.506,178.866
      112.583,178.868
      112.659,178.871
      112.736,178.874
      112.812,178.877
      112.889,178.880
      112.966,178.883
      113.042,178.886
      113.119,178.888
      113.195,178.891
      113.272,178.894
      113.349,178.897
      113.425,178.899
      113.502,178.902
      113.578,178.905
      113.655,178.908
      113.731,178.910
      113.808,178.913
      113.885,178.915
      113.961,178.918
      114.038,178.921
      114.114,178.923
      114.191,178.926
      114.268,178.928
      114.344,178.931
      114.421,178.933
      114.497,178.935
      114.574,178.938
      114.651,178.940
      114.727,178.943
      114.804,178.945
      114.880,178.947
      114.957,178.950
      115.034,178.952
      115.110,178.954
      115.187,178.956
      115.263,178.958
      115.340,178.961
      115.417,178.963
      115.493,178.965
      115.570,178.967
      115.646,178.969
      115.723,178.971
      115.800,178.973
      115.876,178.975
      115.953,178.977
      116.029,178.979
      116.106,178.981
      116.183,178.983
      116.259,178.985
      116.336,178.986
      116.412,178.988
      116.489,178.990
      116.566,178.992
      116.642,178.994
      116.719,178.995
      116.795,178.997
      116.872,178.999
      116.949,179.001
      117.025,179.002
      117.102,179.004
      117.178,179.006
      117.255,179.007
      117.331,179.009
      117.408,179.011
      117.485,179.012
      117.561,179.014
      117.638,179.015
      117.714,179.017
      117.791,179.019
      117.868,179.020
      117.944,179.022
      118.021,179.023
      118.097,179.025
      118.174,179.026
      118.251,179.028
      118.327,179.029
      118.404,179.031
      118.480,179.032
      118.557,179.034
      118.634,179.035
      118.710,179.037
      118.787,179.038
      118.863,179.040
      118.940,179.041
      119.017,179.043
      119.093,179.044
      119.170,179.045
      119.246,179.047
      119.323,179.048
      119.400,179.050
      119.476,179.051
      119.553,179.053
      119.629,179.054
      119.706,179.055
      119.783,179.057
      119.859,179.058
      119.936,179.059
      120.012,179.061
      120.089,179.062
      120.166,179.064
      120.242,179.065
      120.319,179.066
      120.395,179.068
      120.472,179.069
      120.549,179.070
      120.625,179.071
      120.702,179.073
      120.778,179.074
      120.855,179.075
      120.931,179.077
      121.008,179.078
      121.085,179.079
      121.161,179.080
      121.238,179.081
      121.314,179.083
      121.391,179.084
      121.468,179.085
      121.544,179.086
      121.621,179.087
      121.697,179.089
      121.774,179.090
      121.851,179.091
      121.927,179.092
      122.004,179.093
      122.080,179.094
      122.157,179.095
      122.234,179.096
      122.310,179.097
      122.387,179.098
      122.463,179.100
      122.540,179.101
      122.617,179.102
      122.693,179.103
      122.770,179.104
      122.846,179.105
      122.923,179.106
      123.000,179.107
      123.076,179.108
      123.153,179.109
      123.229,179.110
      123.306,179.111
      123.383,179.112
      123.459,179.112
      123.536,179.113
      123.612,179.114
      123.689,179.115
      123.766,179.116
      123.842,179.117
      123.919,179.118
      123.995,179.119
      124.072,179.120
      124.149,179.121
      124.225,179.122
      124.302,179.123
      124.378,179.123
      124.455,179.124
      124.532,179.125
      124.608,179.126
      124.685,179.127
      124.761,179.128
      124.838,179.128
      124.914,179.129
      124.991,179.130
      125.068,179.131
      125.144,179.132
      125.221,179.132
      125.297,179.133
      125.374,179.134
      125.451,179.135
      125.527,179.136
      125.604,179.136
      125.680,179.137
      125.757,179.138
      125.834,179.139
      125.910,179.139
      125.987,179.140
      126.063,179.141
      126.140,179.141
      126.217,179.142
      126.293,179.143
      126.370,179.144
      126.446,179.144
      126.523,179.145
      126.600,179.146
      126.676,179.146
      126.753,179.147
      126.829,179.148
      126.906,179.148
      126.983,179.149
      127.059,179.150
      127.136,179.150
      127.212,179.151
      127.289,179.152
      127.366,179.152
      127.442,179.153
      127.519,179.153
      127.595,179.154
      127.672,179.155
      127.749,179.155
      127.825,179.156
      127.902,179.156
      127.978,179.157
      128.055,179.158
      128.132,179.158
      128.208,179.159
      128.285,179.159
      128.361,179.160
      128.438,179.161
      128.514,179.161
      128.591,179.162
      128.668,179.162
      128.744,179.163
      128.821,179.163
      128.897,179.164
      128.974,179.164
      129.051,179.165
      129.127,179.165
      129.204,179.166
      129.280,179.166
      129.357,179.167
      129.434,179.167
      129.510,179.168
      129.587,179.168
      129.663,179.169
      129.740,179.169
      129.817,179.170
      129.893,179.170
      129.970,179.171
      130.046,179.171
      130.123,179.172
      130.200,179.172
      130.276,179.173
      130.353,179.173
      130.429,179.174
      130.506,179.174
      130.583,179.175
      130.659,179.175
      130.736,179.176
      130.812,179.176
      130.889,179.176
      130.966,179.177
      131.042,179.177
      131.119,179.178
      131.195,179.178
      131.272,179.179
      131.349,179.179
      131.425,179.179
      131.502,179.180
      131.578,179.180
      131.655,179.181
      131.732,179.181
      131.808,179.181
      131.885,179.182
      131.961,179.182
      132.038,179.183
      132.114,179.183
      132.191,179.183
      132.268,179.184
      132.344,179.184
      132.421,179.184
      132.497,179.185
      132.574,179.185
      132.651,179.186
      132.727,179.186
      132.804,179.186
      132.880,179.187
      132.957,179.187
      133.034,179.187
      133.110,179.188
      133.187,179.188
      133.263,179.188
      133.340,179.189
      133.417,179.189
      133.493,179.189
      133.570,179.190
      133.646,179.190
      133.723,179.190
      133.800,179.191
      133.876,179.191
      133.953,179.191
      134.029,179.192
      134.106,179.192
      134.183,179.192
      134.259,179.193
      134.336,179.193
      134.412,179.193
      134.489,179.193
      134.566,179.194
      134.642,179.194
      134.719,179.194
      134.795,179.195
      134.872,179.195
      134.949,179.195
      135.025,179.196
      135.102,179.196
      135.178,179.196
      135.255,179.196
      135.332,179.197
      135.408,179.197
      135.485,179.197
      135.561,179.197
      135.638,179.198
      135.714,179.198
      135.791,179.198
      135.868,179.199
      135.944,179.199
      136.021,179.199
      136.097,179.199
      136.174,179.200
      136.251,179.200
      136.327,179.200
      136.404,179.200
      136.480,179.201
      136.557,179.201
      136.634,179.201
      136.710,179.201
      136.787,179.202
      136.863,179.202
      136.940,179.202
      137.017,179.202
      137.093,179.203
      137.170,179.203
      137.246,179.203
      137.323,179.203
      137.400,179.203
      137.476,179.204
      137.553,179.204
      137.629,179.204
      137.706,179.204
      137.783,179.204
      137.859,179.205
      137.936,179.205
      138.012,179.205
      138.089,179.205
      138.166,179.205
      138.242,179.206
      138.319,179.206
      138.395,179.206
      138.472,179.206
      138.549,179.206
      138.625,179.207
      138.702,179.207
      138.778,179.207
      138.855,179.207
      138.932,179.207
      139.008,179.207
      139.085,179.208
      139.161,179.208
      139.238,179.208
      139.315,179.208
      139.391,179.208
      139.468,179.208
      139.544,179.209
      139.621,179.209
      139.697,179.209
      139.774,179.209
      139.851,179.209
      139.927,179.209
      140.004,179.209
      140.080,179.210
      140.157,179.210
      140.234,179.210
      140.310,179.210
      140.387,179.210
      140.463,179.210
      140.540,179.211
      140.617,179.211
      140.693,179.211
      140.770,179.211
      140.846,179.211
      140.923,179.211
      141.000,179.211
      141.076,179.212
      141.153,179.212
      141.229,179.212
      141.306,179.212
      141.383,179.212
      141.459,179.212
      141.536,179.213
      141.612,179.213
      141.689,179.213
      141.766,179.213
      141.842,179.213
      141.919,179.213
      141.995,179.213
      142.072,179.214
      142.149,179.214
      142.225,179.214
      142.302,179.214
      142.378,179.214
      142.455,179.214
      142.532,179.214
      142.608,179.214
      142.685,179.215
      142.761,179.215
      142.838,179.215
      142.915,179.215
      142.991,179.215
      143.068,179.215
      143.144,179.215
      143.221,179.216
      143.297,179.216
      143.374,179.216
      143.451,179.216
      143.527,179.216
      143.604,179.216
      143.680,179.216
      143.757,179.216
      143.834,179.217
      143.910,179.217
      143.987,179.217
      144.063,179.217
      144.140,179.217
      144.217,179.217
      144.293,179.217
      144.370,179.217
      144.446,179.217
      144.523,179.218
      144.600,179.218
      144.676,179.218
      144.753,179.218
      144.829,179.218
      144.906,179.218
      144.983,179.218
      145.059,179.218
      145.136,179.218
      145.212,179.219
      145.289,179.219
      145.366,179.219
      145.442,179.219
      145.519,179.219
      145.595,179.219
      145.672,179.219
      145.749,179.219
      145.825,179.219
      145.902,179.219
      145.978,179.220
      146.055,179.220
      146.132,179.220
      146.208,179.220
      146.285,179.220
      146.361,179.220
      146.438,179.220
      146.515,179.220
      146.591,179.220
      146.668,179.220
      146.744,179.220
      146.821,179.221
      146.897,179.221
      146.974,179.221
      147.051,179.221
      147.127,179.221
      147.204,179.221
      147.280,179.221
      147.357,179.221
      147.434,179.221
      147.510,179.221
      147.587,179.221
      147.663,179.221
      147.740,179.221
      147.817,179.222
      147.893,179.222
      147.970,179.222
      148.046,179.222
      148.123,179.222
      148.200,179.222
      148.276,179.222
      148.353,179.222
      148.429,179.222
      148.506,179.222
      148.583,179.222
      148.659,179.222
      148.736,179.222
      148.812,179.222
      148.889,179.222
      148.966,179.223
      149.042,179.223
      149.119,179.223
      149.195,179.223
      149.272,179.223
      149.349,179.223
      149.425,179.223
      149.502,179.223
      149.578,179.223
      149.655,179.223
      149.732,179.223
      149.808,179.223
      149.885,179.223
      149.961,179.223
      150.038,179.223
      150.115,179.223
      150.191,179.223
      150.268,179.224
      150.344,179.224
      150.421,179.224
      150.498,179.224
      150.574,179.224
      150.651,179.224
      150.727,179.224
      150.804,179.224
      150.880,179.224
      150.957,179.224
      151.034,179.224
      151.110,179.224
      151.187,179.224
      151.263,179.224
      151.340,179.224
      151.417,179.224
      151.493,179.224
      151.570,179.224
      151.646,179.225
      151.723,179.225
      151.800,179.225
      151.876,179.225
      151.953,179.225
      152.029,179.225
      152.106,179.225
      152.183,179.225
      152.259,179.225
      152.336,179.225
      152.412,179.225
      152.489,179.225
      152.566,179.225
      152.642,179.225
      152.719,179.225
      152.795,179.225
      152.872,179.225
      152.949,179.225
      153.025,179.225
      153.102,179.225
      153.178,179.225
      153.255,179.226
      153.332,179.226
      153.408,179.226
      153.485,179.226
      153.561,179.226
      153.638,179.226
      153.715,179.226
      153.791,179.226
      153.868,179.226
      153.944,179.226
      154.021,179.226
      154.098,179.226
      154.174,179.226
      154.251,179.226
      154.327,179.226
      154.404,179.226
      154.480,179.226
      154.557,179.226
      154.634,179.226
      154.710,179.226
      154.787,179.226
      154.863,179.226
      154.940,179.226
      155.017,179.226
      155.093,179.226
      155.170,179.226
      155.246,179.227
      155.323,179.227
      155.400,179.227
      155.476,179.227
      155.553,179.227
      155.629,179.227
      155.706,179.227
      155.783,179.227
      155.859,179.227
      155.936,179.227
      156.012,179.227
      156.089,179.227
      156.166,179.227
      156.242,179.227
      156.319,179.227
      156.395,179.227
      156.472,179.227
      156.549,179.227
      156.625,179.227
      156.702,179.227
      156.778,179.227
      156.855,179.227
      156.932,179.227
      157.008,179.227
      157.085,179.227
      157.161,179.227
      157.238,179.227
      157.315,179.227
      157.391,179.227
      157.468,179.227
      157.544,179.227
      157.621,179.227
      157.698,179.227
      157.774,179.228
      157.851,179.228
      157.927,179.228
      158.004,179.228
      158.080,179.228
      158.157,179.228
      158.234,179.228
      158.310,179.228
      158.387,179.228
      158.463,179.228
      158.540,179.228
      158.617,179.228
      158.693,179.228
      158.770,179.228
      158.846,179.228
      158.923,179.228
      159.000,179.228
      159.076,179.228
      159.153,179.228
      159.229,179.228
      159.306,179.228
      159.383,179.228
      159.459,179.228
      159.536,179.228
      159.612,179.228
      159.689,179.228
      159.766,179.228
      159.842,179.228
      159.919,179.228
      159.995,179.228
      160.072,179.228
      160.149,179.228
      160.225,179.228
      160.302,179.228
      160.378,179.228
      160.455,179.228
      160.532,179.228
      160.608,179.228
      160.685,179.228
      160.761,179.228
      160.838,179.228
      160.915,179.228
      160.991,179.228
      161.068,179.228
      161.144,179.228
      161.221,179.228
      161.298,179.228
      161.374,179.229
      161.451,179.229
      161.527,179.229
      161.604,179.229
      161.680,179.229
      161.757,179.229
      161.834,179.229
      161.910,179.229
      161.987,179.229
      162.063,179.229
      162.140,179.229
      162.217,179.229
      162.293,179.229
      162.370,179.229
      162.446,179.229
      162.523,179.229
      162.600,179.229
      162.676,179.229
      162.753,179.229
      162.829,179.229
      162.906,179.229
      162.983,179.229
      163.059,179.229
      163.136,179.229
      163.212,179.229
      163.289,179.229
      163.366,179.229
      163.442,179.229
      163.519,179.229
      163.595,179.229
      163.672,179.229
      163.749,179.229
      163.825,179.229
      163.902,179.229
      163.978,179.229
      164.055,179.229
      164.132,179.229
      164.208,179.229
      164.285,179.229
      164.361,179.229
      164.438,179.229
      164.515,179.229
      164.591,179.229
      164.668,179.229
      164.744,179.229
      164.821,179.229
      164.898,179.229
      164.974,179.229
      165.051,179.229
      165.127,179.229
      165.204,179.229
      165.281,179.229
      165.357,179.229
      165.434,179.229
      165.510,179.229
      165.587,179.229
      165.663,179.229
      165.740,179.229
      165.817,179.229
      165.893,179.229
      165.970,179.229
      166.046,179.229
      166.123,179.229
      166.200,179.229
      166.276,179.229
      166.353,179.229
      166.429,179.229
      166.506,179.229
      166.583,179.229
      166.659,179.229
      166.736,179.229
      166.812,179.230
      166.889,179.230
      166.966,179.230
      167.042,179.230
      167.119,179.230
      167.195,179.230
      167.272,179.230
      167.349,179.230
      167.425,179.230
      167.502,179.230
      167.578,179.230
      167.655,179.230
      167.732,179.230
      167.808,179.230
      167.885,179.230
      167.961,179.230
      168.038,179.230
      168.115,179.230
      168.191,179.230
      168.268,179.230
      168.344,179.230
      168.421,179.230
      168.498,179.230
      168.574,179.230
      168.651,179.230
      168.727,179.230
      168.804,179.230
      168.881,179.230
      168.957,179.230
      169.034,179.230
      169.110,179.230
      169.187,179.230
      169.263,179.230
      169.340,179.230
      169.417,179.230
      169.493,179.230
      169.570,179.230
      169.646,179.230
      169.723,179.230
      169.800,179.230
      169.876,179.230
      169.953,179.230
      170.029,179.230
      170.106,179.230
      170.183,179.230
      170.259,179.230
      170.336,179.230
      170.412,179.230
      170.489,179.230
      170.566,179.230
      170.642,179.230
      170.719,179.230
      170.795,179.230
      170.872,179.230
      170.949,179.230
      171.025,179.230
      171.102,179.230
      171.178,179.230
      171.255,179.230
      171.332,179.230
      171.408,179.230
      171.485,179.230
      171.561,179.230
      171.638,179.230
      171.715,179.230
      171.791,179.230
      171.868,179.230
      171.944,179.230
      172.021,179.230
      172.098,179.230
      172.174,179.230
      172.251,179.230
      172.327,179.230
      172.404,179.230
      172.481,179.230
      172.557,179.230
      172.634,179.230
      172.710,179.230
      172.787,179.230
      172.863,179.230
      172.940,179.230
      173.017,179.230
      173.093,179.230
      173.170,179.230
      173.246,179.230
      173.323,179.230
      173.400,179.230
      173.476,179.230
      173.553,179.230
      173.629,179.230
      173.706,179.230
      173.783,179.230
      173.859,179.230
      173.936,179.230
      174.012,179.230
      174.089,179.230
      174.166,179.230
      174.242,179.230
      174.319,179.230
      174.395,179.230
      174.472,179.230
      174.549,179.230
      174.625,179.230
      174.702,179.230
      174.778,179.230
      174.855,179.230
      174.932,179.230
      175.008,179.230
      175.085,179.230
      175.161,179.230
      175.238,179.230
      175.315,179.230
      175.391,179.230
      175.468,179.230
      175.544,179.230
      175.621,179.230
      175.698,179.230
      175.774,179.230
      175.851,179.230
      175.927,179.230
      176.004,179.230
      176.081,179.230
      176.157,179.230
      176.234,179.230
      176.310,179.230
      176.387,179.230
      176.464,179.230
      176.540,179.230
      176.617,179.230
      176.693,179.230
      176.770,179.230
      176.846,179.230
      176.923,179.230
    " />
  </g>

  <!-- точка (-1;5) -->
  <circle cx="61.538" cy="102.308" r="2.2" fill="#2d70b3" stroke="#2d70b3" stroke-width="0.6" />

  <!-- стрелка оси x поверх графика -->
  <g stroke="#111827" stroke-width="1.25">
    <line x1="169.615" y1="179.231" x2="184.615" y2="179.231" marker-end="url(#axis-arrow)" />
  </g>

  <!-- подпись -->
  <text x="92.308" y="160.846"
        font-family="Georgia, 'Times New Roman', serif"
        font-style="italic"
        font-size="13"
        fill="#2d70b3">f(x)</text>
</svg>
