<svg xmlns="http://www.w3.org/2000/svg" width="220" height="220" viewBox="0 0 220 220">
  <rect x="0" y="0" width="220" height="220" fill="white" />

  <defs>
    <marker id="axis-arrow"
            viewBox="0 0 15 8"
            refX="13" refY="4"
            markerWidth="12" markerHeight="6.4"
            orient="auto"
            markerUnits="userSpaceOnUse">
      <path d="M 3 0 L 15 4 L 3 8 L 7 4 Z" fill="black" />
    </marker>
  </defs>

  <!-- сетка: x от -4 до 7, y от -2 до 11 -->
  <g stroke="#d1d5db" stroke-width="0.5" shape-rendering="crispEdges">
    <line x1="30.769" y1="10.000" x2="30.769" y2="210.000" />
    <line x1="46.154" y1="10.000" x2="46.154" y2="210.000" />
    <line x1="61.538" y1="10.000" x2="61.538" y2="210.000" />
    <line x1="76.923" y1="10.000" x2="76.923" y2="210.000" />
    <line x1="92.308" y1="10.000" x2="92.308" y2="210.000" />
    <line x1="107.692" y1="10.000" x2="107.692" y2="210.000" />
    <line x1="123.077" y1="10.000" x2="123.077" y2="210.000" />
    <line x1="138.462" y1="10.000" x2="138.462" y2="210.000" />
    <line x1="153.846" y1="10.000" x2="153.846" y2="210.000" />
    <line x1="169.231" y1="10.000" x2="169.231" y2="210.000" />
    <line x1="15.385" y1="194.615" x2="184.615" y2="194.615" />
    <line x1="15.385" y1="179.231" x2="184.615" y2="179.231" />
    <line x1="15.385" y1="163.846" x2="184.615" y2="163.846" />
    <line x1="15.385" y1="148.462" x2="184.615" y2="148.462" />
    <line x1="15.385" y1="133.077" x2="184.615" y2="133.077" />
    <line x1="15.385" y1="117.692" x2="184.615" y2="117.692" />
    <line x1="15.385" y1="102.308" x2="184.615" y2="102.308" />
    <line x1="15.385" y1="86.923" x2="184.615" y2="86.923" />
    <line x1="15.385" y1="71.538" x2="184.615" y2="71.538" />
    <line x1="15.385" y1="56.154" x2="184.615" y2="56.154" />
    <line x1="15.385" y1="40.769" x2="184.615" y2="40.769" />
    <line x1="15.385" y1="25.385" x2="184.615" y2="25.385" />
  </g>

  <!-- оси -->
  <g stroke="#111827" stroke-width="1.25">
    <line x1="15.385" y1="179.231" x2="184.615" y2="179.231" />
    <line x1="76.923" y1="210.000" x2="76.923" y2="10.000" marker-end="url(#axis-arrow)" />
  </g>

  <!-- подписи осей и делений -->
  <g font-family="sans-serif" font-size="11" fill="#111827">
    <text x="72.923" y="192.231" text-anchor="end"
          font-size="13" font-style="italic"
          font-family="Georgia, 'Times New Roman', serif">O</text>

    <rect x="88.808" y="182.231" width="7" height="12" fill="white" />
    <text x="92.308" y="193.231" text-anchor="middle" font-size="13"
          font-family="'Times New Roman', serif"
          font-weight="300">1</text>

    <text x="69.923" y="167.846" text-anchor="end" font-size="13"
          font-family="'Times New Roman', serif"
          font-weight="300">1</text>

    <text x="181.615" y="192.231" text-anchor="start"
          font-family="Georgia, 'Times New Roman', serif"
          font-style="italic" font-size="13">x</text>

    <text x="73.923" y="13.000" text-anchor="end"
          font-family="Georgia, 'Times New Roman', serif"
          font-style="italic" font-size="13">y</text>
  </g>

  <!-- интерполяция (PCHIP) -->
  <g stroke="#2d70b3" stroke-width="1.25" fill="none"
     stroke-linecap="round" stroke-linejoin="round">
    <polyline points="
      24.734,17.692
      24.829,18.370
      24.924,19.049
      25.019,19.730
      25.114,20.412
      25.209,21.093
      25.305,21.774
      25.400,22.453
      25.495,23.129
      25.590,23.802
      25.685,24.471
      25.781,25.135
      25.876,25.794
      25.971,26.451
      26.066,27.104
      26.161,27.755
      26.256,28.404
      26.352,29.049
      26.447,29.692
      26.542,30.332
      26.637,30.970
      26.732,31.604
      26.827,32.236
      26.923,32.864
      27.018,33.490
      27.113,34.114
      27.208,34.735
      27.303,35.353
      27.399,35.969
      27.494,36.582
      27.589,37.193
      27.684,37.801
      27.779,38.406
      27.874,39.009
      27.970,39.609
      28.065,40.206
      28.160,40.800
      28.255,41.392
      28.350,41.982
      28.446,42.569
      28.541,43.154
      28.636,43.737
      28.731,44.317
      28.826,44.894
      28.921,45.469
      29.017,46.042
      29.112,46.612
      29.207,47.179
      29.302,47.744
      29.397,48.306
      29.492,48.866
      29.588,49.424
      29.683,49.979
      29.778,50.532
      29.873,51.083
      29.968,51.632
      30.064,52.178
      30.159,52.722
      30.254,53.263
      30.349,53.802
      30.444,54.339
      30.539,54.874
      30.635,55.406
      30.730,55.935
      30.825,56.462
      30.920,56.987
      31.015,57.510
      31.111,58.031
      31.206,58.550
      31.301,59.066
      31.396,59.581
      31.491,60.093
      31.586,60.603
      31.682,61.111
      31.777,61.617
      31.872,62.120
      31.967,62.621
      32.062,63.120
      32.157,63.616
      32.253,64.111
      32.348,64.603
      32.443,65.093
      32.538,65.581
      32.633,66.068
      32.729,66.552
      32.824,67.035
      32.919,67.515
      33.014,67.993
      33.109,68.470
      33.204,68.944
      33.300,69.416
      33.395,69.886
      33.490,70.354
      33.585,70.819
      33.680,71.283
      33.775,71.744
      33.871,72.204
      33.966,72.661
      34.061,73.117
      34.156,73.571
      34.251,74.024
      34.347,74.474
      34.442,74.923
      34.537,75.369
      34.632,75.814
      34.727,76.257
      34.822,76.698
      34.918,77.137
      35.013,77.574
      35.108,78.008
      35.203,78.441
      35.298,78.872
      35.394,79.301
      35.489,79.728
      35.584,80.154
      35.679,80.578
      35.774,81.000
      35.869,81.420
      35.965,81.839
      36.060,82.256
      36.155,82.671
      36.250,83.085
      36.345,83.496
      36.440,83.906
      36.536,84.314
      36.631,84.721
      36.726,85.125
      36.821,85.528
      36.916,85.929
      37.012,86.328
      37.107,86.725
      37.202,87.120
      37.297,87.514
      37.392,87.906
      37.487,88.296
      37.583,88.686
      37.678,89.073
      37.773,89.459
      37.868,89.843
      37.963,90.226
      38.058,90.607
      38.154,90.987
      38.249,91.365
      38.344,91.741
      38.439,92.116
      38.534,92.489
      38.630,92.860
      38.725,93.230
      38.820,93.598
      38.915,93.964
      39.010,94.328
      39.105,94.691
      39.201,95.052
      39.296,95.412
      39.391,95.770
      39.486,96.127
      39.581,96.483
      39.677,96.837
      39.772,97.190
      39.867,97.541
      39.962,97.891
      40.057,98.239
      40.152,98.586
      40.248,98.932
      40.343,99.276
      40.438,99.618
      40.533,99.959
      40.628,100.298
      40.723,100.636
      40.819,100.973
      40.914,101.307
      41.009,101.640
      41.104,101.972
      41.199,102.302
      41.295,102.630
      41.390,102.957
      41.485,103.283
      41.580,103.608
      41.675,103.932
      41.770,104.254
      41.866,104.575
      41.961,104.895
      42.056,105.213
      42.151,105.530
      42.246,105.846
      42.341,106.160
      42.437,106.473
      42.532,106.785
      42.627,107.096
      42.722,107.405
      42.817,107.712
      42.913,108.018
      43.008,108.323
      43.103,108.627
      43.198,108.929
      43.293,109.229
      43.388,109.528
      43.484,109.826
      43.579,110.122
      43.674,110.417
      43.769,110.711
      43.864,111.003
      43.960,111.295
      44.055,111.586
      44.150,111.875
      44.245,112.164
      44.340,112.451
      44.435,112.737
      44.531,113.022
      44.626,113.306
      44.721,113.588
      44.816,113.870
      44.911,114.150
      45.006,114.429
      45.102,114.706
      45.197,114.983
      45.292,115.258
      45.387,115.532
      45.482,115.805
      45.578,116.076
      45.673,116.347
      45.768,116.615
      45.863,116.883
      45.958,117.149
      46.053,117.414
      46.149,117.678
      46.244,117.940
      46.339,118.202
      46.434,118.462
      46.529,118.722
      46.625,118.981
      46.720,119.238
      46.815,119.495
      46.910,119.751
      47.005,120.006
      47.100,120.259
      47.196,120.512
      47.291,120.764
      47.386,121.014
      47.481,121.264
      47.576,121.513
      47.671,121.760
      47.767,122.007
      47.862,122.252
      47.957,122.496
      48.052,122.740
      48.147,122.982
      48.243,123.223
      48.338,123.463
      48.433,123.701
      48.528,123.939
      48.623,124.175
      48.718,124.411
      48.814,124.645
      48.909,124.878
      49.004,125.109
      49.099,125.340
      49.194,125.569
      49.289,125.798
      49.385,126.026
      49.480,126.253
      49.575,126.479
      49.670,126.705
      49.765,126.930
      49.861,127.153
      49.956,127.376
      50.051,127.598
      50.146,127.820
      50.241,128.040
      50.336,128.260
      50.432,128.478
      50.527,128.696
      50.622,128.913
      50.717,129.129
      50.812,129.344
      50.908,129.558
      51.003,129.771
      51.098,129.983
      51.193,130.195
      51.288,130.405
      51.383,130.614
      51.479,130.823
      51.574,131.030
      51.669,131.237
      51.764,131.442
      51.859,131.647
      51.954,131.850
      52.050,132.052
      52.145,132.254
      52.240,132.454
      52.335,132.654
      52.430,132.852
      52.526,133.049
      52.621,133.245
      52.716,133.441
      52.811,133.636
      52.906,133.830
      53.001,134.024
      53.097,134.217
      53.192,134.409
      53.287,134.601
      53.382,134.792
      53.477,134.982
      53.572,135.172
      53.668,135.361
      53.763,135.549
      53.858,135.736
      53.953,135.923
      54.048,136.109
      54.144,136.294
      54.239,136.478
      54.334,136.662
      54.429,136.845
      54.524,137.027
      54.619,137.209
      54.715,137.389
      54.810,137.569
      54.905,137.748
      55.000,137.926
      55.095,138.103
      55.191,138.280
      55.286,138.456
      55.381,138.631
      55.476,138.805
      55.571,138.978
      55.666,139.150
      55.762,139.322
      55.857,139.492
      55.952,139.662
      56.047,139.831
      56.142,139.999
      56.237,140.166
      56.333,140.332
      56.428,140.497
      56.523,140.661
      56.618,140.825
      56.713,140.988
      56.809,141.150
      56.904,141.312
      56.999,141.473
      57.094,141.634
      57.189,141.794
      57.284,141.954
      57.380,142.113
      57.475,142.272
      57.570,142.430
      57.665,142.588
      57.760,142.745
      57.856,142.901
      57.951,143.057
      58.046,143.212
      58.141,143.367
      58.236,143.521
      58.331,143.674
      58.427,143.827
      58.522,143.980
      58.617,144.131
      58.712,144.283
      58.807,144.433
      58.902,144.583
      58.998,144.732
      59.093,144.881
      59.188,145.029
      59.283,145.176
      59.378,145.322
      59.474,145.468
      59.569,145.614
      59.664,145.758
      59.759,145.902
      59.854,146.046
      59.949,146.188
      60.045,146.330
      60.140,146.471
      60.235,146.612
      60.330,146.751
      60.425,146.891
      60.520,147.029
      60.616,147.166
      60.711,147.303
      60.806,147.439
      60.901,147.575
      60.996,147.709
      61.092,147.843
      61.187,147.976
      61.282,148.109
      61.377,148.240
      61.472,148.371
      61.567,148.501
      61.663,148.631
      61.758,148.760
      61.853,148.889
      61.948,149.017
      62.043,149.145
      62.139,149.273
      62.234,149.400
      62.329,149.527
      62.424,149.654
      62.519,149.780
      62.614,149.906
      62.710,150.031
      62.805,150.156
      62.900,150.281
      62.995,150.405
      63.090,150.529
      63.185,150.652
      63.281,150.775
      63.376,150.897
      63.471,151.019
      63.566,151.141
      63.661,151.262
      63.757,151.382
      63.852,151.503
      63.947,151.622
      64.042,151.742
      64.137,151.860
      64.232,151.979
      64.328,152.097
      64.423,152.214
      64.518,152.331
      64.613,152.447
      64.708,152.563
      64.803,152.678
      64.899,152.793
      64.994,152.908
      65.089,153.021
      65.184,153.135
      65.279,153.248
      65.375,153.360
      65.470,153.472
      65.565,153.583
      65.660,153.693
      65.755,153.804
      65.850,153.913
      65.946,154.022
      66.041,154.131
      66.136,154.238
      66.231,154.346
      66.326,154.452
      66.422,154.559
      66.517,154.664
      66.612,154.769
      66.707,154.874
      66.802,154.977
      66.897,155.081
      66.993,155.183
      67.088,155.285
      67.183,155.386
      67.278,155.487
      67.373,155.587
      67.468,155.687
      67.564,155.786
      67.659,155.884
      67.754,155.982
      67.849,156.078
      67.944,156.175
      68.040,156.271
      68.135,156.366
      68.230,156.461
      68.325,156.556
      68.420,156.651
      68.515,156.745
      68.611,156.838
      68.706,156.932
      68.801,157.025
      68.896,157.118
      68.991,157.210
      69.086,157.302
      69.182,157.394
      69.277,157.486
      69.372,157.577
      69.467,157.667
      69.562,157.758
      69.658,157.848
      69.753,157.938
      69.848,158.027
      69.943,158.116
      70.038,158.205
      70.133,158.294
      70.229,158.382
      70.324,158.470
      70.419,158.557
      70.514,158.644
      70.609,158.731
      70.705,158.818
      70.800,158.904
      70.895,158.990
      70.990,159.076
      71.085,159.161
      71.180,159.246
      71.276,159.331
      71.371,159.415
      71.466,159.499
      71.561,159.583
      71.656,159.667
      71.751,159.750
      71.847,159.833
      71.942,159.915
      72.037,159.997
      72.132,160.079
      72.227,160.161
      72.323,160.242
      72.418,160.324
      72.513,160.404
      72.608,160.485
      72.703,160.565
      72.798,160.645
      72.894,160.725
      72.989,160.804
      73.084,160.883
      73.179,160.962
      73.274,161.040
      73.370,161.118
      73.465,161.196
      73.560,161.274
      73.655,161.351
      73.750,161.428
      73.845,161.505
      73.941,161.582
      74.036,161.658
      74.131,161.734
      74.226,161.810
      74.321,161.885
      74.416,161.960
      74.512,162.035
      74.607,162.110
      74.702,162.184
      74.797,162.258
      74.892,162.332
      74.988,162.406
      75.083,162.479
      75.178,162.552
      75.273,162.625
      75.368,162.697
      75.463,162.770
      75.559,162.842
      75.654,162.913
      75.749,162.985
      75.844,163.056
      75.939,163.127
      76.034,163.198
      76.130,163.268
      76.225,163.338
      76.320,163.408
      76.415,163.478
      76.510,163.548
      76.606,163.617
      76.701,163.686
      76.796,163.755
      76.891,163.823
      76.986,163.891
      77.081,163.959
      77.177,164.026
      77.272,164.093
      77.367,164.159
      77.462,164.224
      77.557,164.289
      77.653,164.354
      77.748,164.418
      77.843,164.481
      77.938,164.545
      78.033,164.607
      78.128,164.670
      78.224,164.732
      78.319,164.793
      78.414,164.854
      78.509,164.915
      78.604,164.976
      78.699,165.036
      78.795,165.095
      78.890,165.155
      78.985,165.214
      79.080,165.273
      79.175,165.332
      79.271,165.390
      79.366,165.448
      79.461,165.506
      79.556,165.564
      79.651,165.622
      79.746,165.679
      79.842,165.736
      79.937,165.794
      80.032,165.850
      80.127,165.907
      80.222,165.964
      80.317,166.020
      80.413,166.077
      80.508,166.133
      80.603,166.189
      80.698,166.244
      80.793,166.300
      80.889,166.355
      80.984,166.410
      81.079,166.464
      81.174,166.519
      81.269,166.573
      81.364,166.627
      81.460,166.681
      81.555,166.734
      81.650,166.788
      81.745,166.841
      81.840,166.894
      81.936,166.946
      82.031,166.999
      82.126,167.051
      82.221,167.103
      82.316,167.155
      82.411,167.206
      82.507,167.257
      82.602,167.309
      82.697,167.359
      82.792,167.410
      82.887,167.460
      82.982,167.511
      83.078,167.560
      83.173,167.610
      83.268,167.660
      83.363,167.709
      83.458,167.758
      83.554,167.807
      83.649,167.855
      83.744,167.904
      83.839,167.952
      83.934,168.000
      84.029,168.048
      84.125,168.096
      84.220,168.143
      84.315,168.191
      84.410,168.238
      84.505,168.285
      84.600,168.331
      84.696,168.378
      84.791,168.424
      84.886,168.470
      84.981,168.516
      85.076,168.562
      85.172,168.607
      85.267,168.653
      85.362,168.698
      85.457,168.743
      85.552,168.788
      85.647,168.832
      85.743,168.876
      85.838,168.921
      85.933,168.965
      86.028,169.008
      86.123,169.052
      86.219,169.095
      86.314,169.138
      86.409,169.181
      86.504,169.224
      86.599,169.267
      86.694,169.309
      86.790,169.352
      86.885,169.394
      86.980,169.436
      87.075,169.477
      87.170,169.519
      87.265,169.560
      87.361,169.601
      87.456,169.642
      87.551,169.683
      87.646,169.724
      87.741,169.765
      87.837,169.805
      87.932,169.845
      88.027,169.885
      88.122,169.925
      88.217,169.965
      88.312,170.004
      88.408,170.044
      88.503,170.083
      88.598,170.122
      88.693,170.161
      88.788,170.200
      88.884,170.238
      88.979,170.276
      89.074,170.315
      89.169,170.353
      89.264,170.391
      89.359,170.428
      89.455,170.466
      89.550,170.503
      89.645,170.540
      89.740,170.577
      89.835,170.614
      89.930,170.651
      90.026,170.687
      90.121,170.724
      90.216,170.760
      90.311,170.796
      90.406,170.832
      90.502,170.868
      90.597,170.903
      90.692,170.939
      90.787,170.974
      90.882,171.009
      90.977,171.045
      91.073,171.079
      91.168,171.114
      91.263,171.149
      91.358,171.183
      91.453,171.218
      91.548,171.252
      91.644,171.286
      91.739,171.320
      91.834,171.354
      91.929,171.387
      92.024,171.421
      92.120,171.454
      92.215,171.487
      92.310,171.520
      92.405,171.553
      92.500,171.586
      92.595,171.618
      92.691,171.651
      92.786,171.683
      92.881,171.715
      92.976,171.747
      93.071,171.779
      93.167,171.811
      93.262,171.842
      93.357,171.874
      93.452,171.905
      93.547,171.936
      93.642,171.967
      93.738,171.998
      93.833,172.029
      93.928,172.060
      94.023,172.091
      94.118,172.121
      94.213,172.151
      94.309,172.181
      94.404,172.212
      94.499,172.241
      94.594,172.271
      94.689,172.301
      94.785,172.331
      94.880,172.360
      94.975,172.389
      95.070,172.419
      95.165,172.448
      95.260,172.477
      95.356,172.505
      95.451,172.534
      95.546,172.563
      95.641,172.591
      95.736,172.619
      95.831,172.647
      95.927,172.676
      96.022,172.703
      96.117,172.731
      96.212,172.759
      96.307,172.786
      96.403,172.814
      96.498,172.841
      96.593,172.868
      96.688,172.896
      96.783,172.922
      96.878,172.949
      96.974,172.976
      97.069,173.003
      97.164,173.029
      97.259,173.056
      97.354,173.082
      97.450,173.108
      97.545,173.134
      97.640,173.160
      97.735,173.186
      97.830,173.212
      97.925,173.238
      98.021,173.263
      98.116,173.289
      98.211,173.314
      98.306,173.339
      98.401,173.365
      98.496,173.390
      98.592,173.414
      98.687,173.439
      98.782,173.464
      98.877,173.489
      98.972,173.513
      99.068,173.537
      99.163,173.562
      99.258,173.586
      99.353,173.610
      99.448,173.634
      99.543,173.658
      99.639,173.681
      99.734,173.705
      99.829,173.728
      99.924,173.752
      100.019,173.775
      100.114,173.798
      100.210,173.822
      100.305,173.845
      100.400,173.868
      100.495,173.890
      100.590,173.913
      100.686,173.936
      100.781,173.958
      100.876,173.981
      100.971,174.003
      101.066,174.026
      101.161,174.048
      101.257,174.070
      101.352,174.092
      101.447,174.114
      101.542,174.136
      101.637,174.157
      101.733,174.179
      101.828,174.201
      101.923,174.222
      102.018,174.243
      102.113,174.265
      102.208,174.286
      102.304,174.307
      102.399,174.328
      102.494,174.349
      102.589,174.370
      102.684,174.390
      102.779,174.411
      102.875,174.431
      102.970,174.452
      103.065,174.472
      103.160,174.492
      103.255,174.513
      103.351,174.533
      103.446,174.553
      103.541,174.573
      103.636,174.592
      103.731,174.612
      103.826,174.632
      103.922,174.651
      104.017,174.671
      104.112,174.690
      104.207,174.710
      104.302,174.729
      104.398,174.748
      104.493,174.767
      104.588,174.786
      104.683,174.805
      104.778,174.824
      104.873,174.843
      104.969,174.862
      105.064,174.880
      105.159,174.899
      105.254,174.917
      105.349,174.936
      105.444,174.954
      105.540,174.972
      105.635,174.990
      105.730,175.008
      105.825,175.026
      105.920,175.044
      106.016,175.062
      106.111,175.080
      106.206,175.097
      106.301,175.115
      106.396,175.133
      106.491,175.150
      106.587,175.167
      106.682,175.185
      106.777,175.202
      106.872,175.219
      106.967,175.236
      107.062,175.253
      107.158,175.270
      107.253,175.287
      107.348,175.304
      107.443,175.321
      107.538,175.337
      107.634,175.354
      107.729,175.370
      107.824,175.387
      107.919,175.403
      108.014,175.420
      108.109,175.436
      108.205,175.452
      108.300,175.468
      108.395,175.484
      108.490,175.500
      108.585,175.516
      108.681,175.532
      108.776,175.548
      108.871,175.563
      108.966,175.579
      109.061,175.594
      109.156,175.610
      109.252,175.625
      109.347,175.641
      109.442,175.656
      109.537,175.671
      109.632,175.686
      109.727,175.701
      109.823,175.716
      109.918,175.731
      110.013,175.746
      110.108,175.761
      110.203,175.776
      110.299,175.790
      110.394,175.805
      110.489,175.820
      110.584,175.834
      110.679,175.849
      110.774,175.863
      110.870,175.877
      110.965,175.892
      111.060,175.906
      111.155,175.920
      111.250,175.934
      111.345,175.948
      111.441,175.962
      111.536,175.976
      111.631,175.990
      111.726,176.004
      111.821,176.018
      111.917,176.031
      112.012,176.045
      112.107,176.058
      112.202,176.072
      112.297,176.085
      112.392,176.099
      112.488,176.112
      112.583,176.125
      112.678,176.139
      112.773,176.152
      112.868,176.165
      112.964,176.178
      113.059,176.191
      113.154,176.204
      113.249,176.217
      113.344,176.229
      113.439,176.242
      113.535,176.255
      113.630,176.268
      113.725,176.280
      113.820,176.293
      113.915,176.305
      114.010,176.318
      114.106,176.330
      114.201,176.342
      114.296,176.355
      114.391,176.367
      114.486,176.379
      114.582,176.391
      114.677,176.403
      114.772,176.415
      114.867,176.427
      114.962,176.439
      115.057,176.451
      115.153,176.463
      115.248,176.475
      115.343,176.487
      115.438,176.498
      115.533,176.510
      115.628,176.521
      115.724,176.533
      115.819,176.544
      115.914,176.556
      116.009,176.567
      116.104,176.578
      116.200,176.590
      116.295,176.601
      116.390,176.612
      116.485,176.623
      116.580,176.634
      116.675,176.645
      116.771,176.656
      116.866,176.667
      116.961,176.677
      117.056,176.688
      117.151,176.699
      117.247,176.709
      117.342,176.720
      117.437,176.731
      117.532,176.741
      117.627,176.752
      117.722,176.762
      117.818,176.773
      117.913,176.783
      118.008,176.794
      118.103,176.804
      118.198,176.814
      118.293,176.825
      118.389,176.835
      118.484,176.845
      118.579,176.856
      118.674,176.866
      118.769,176.876
      118.865,176.886
      118.960,176.896
      119.055,176.907
      119.150,176.917
      119.245,176.927
      119.340,176.937
      119.436,176.947
      119.531,176.958
      119.626,176.968
      119.721,176.978
      119.816,176.988
      119.912,176.998
      120.007,177.009
      120.102,177.019
      120.197,177.029
      120.292,177.039
      120.387,177.049
      120.483,177.059
      120.578,177.069
      120.673,177.079
      120.768,177.089
      120.863,177.098
      120.958,177.108
      121.054,177.118
      121.149,177.128
      121.244,177.137
      121.339,177.147
      121.434,177.156
      121.530,177.166
      121.625,177.175
      121.720,177.184
      121.815,177.194
      121.910,177.203
      122.005,177.212
      122.101,177.221
      122.196,177.230
      122.291,177.238
      122.386,177.247
      122.481,177.256
      122.576,177.264
      122.672,177.273
      122.767,177.281
      122.862,177.290
      122.957,177.298
      123.052,177.307
      123.148,177.315
      123.243,177.323
      123.338,177.331
      123.433,177.339
      123.528,177.348
      123.623,177.356
      123.719,177.364
      123.814,177.372
      123.909,177.379
      124.004,177.387
      124.099,177.395
      124.195,177.403
      124.290,177.411
      124.385,177.418
      124.480,177.426
      124.575,177.434
      124.670,177.441
      124.766,177.449
      124.861,177.456
      124.956,177.464
      125.051,177.472
      125.146,177.479
      125.241,177.486
      125.337,177.494
      125.432,177.501
      125.527,177.509
      125.622,177.516
      125.717,177.523
      125.813,177.531
      125.908,177.538
      126.003,177.545
      126.098,177.552
      126.193,177.560
      126.288,177.567
      126.384,177.574
      126.479,177.581
      126.574,177.588
      126.669,177.595
      126.764,177.602
      126.859,177.609
      126.955,177.616
      127.050,177.623
      127.145,177.630
      127.240,177.637
      127.335,177.643
      127.431,177.650
      127.526,177.657
      127.621,177.664
      127.716,177.670
      127.811,177.677
      127.906,177.684
      128.002,177.690
      128.097,177.697
      128.192,177.704
      128.287,177.710
      128.382,177.717
      128.478,177.723
      128.573,177.730
      128.668,177.736
      128.763,177.742
      128.858,177.749
      128.953,177.755
      129.049,177.761
      129.144,177.768
      129.239,177.774
      129.334,177.780
      129.429,177.786
      129.524,177.792
      129.620,177.799
      129.715,177.805
      129.810,177.811
      129.905,177.817
      130.000,177.823
      130.096,177.829
      130.191,177.835
      130.286,177.841
      130.381,177.847
      130.476,177.853
      130.571,177.859
      130.667,177.865
      130.762,177.871
      130.857,177.876
      130.952,177.882
      131.047,177.888
      131.142,177.894
      131.238,177.899
      131.333,177.905
      131.428,177.911
      131.523,177.916
      131.618,177.922
      131.714,177.928
      131.809,177.933
      131.904,177.939
      131.999,177.944
      132.094,177.950
      132.189,177.955
      132.285,177.961
      132.380,177.966
      132.475,177.972
      132.570,177.977
      132.665,177.982
      132.761,177.988
      132.856,177.993
      132.951,177.998
      133.046,178.003
      133.141,178.009
      133.236,178.014
      133.332,178.019
      133.427,178.024
      133.522,178.030
      133.617,178.035
      133.712,178.040
      133.807,178.045
      133.903,178.050
      133.998,178.055
      134.093,178.060
      134.188,178.065
      134.283,178.070
      134.379,178.075
      134.474,178.080
      134.569,178.085
      134.664,178.090
      134.759,178.095
      134.854,178.100
      134.950,178.104
      135.045,178.109
      135.140,178.114
      135.235,178.119
      135.330,178.124
      135.426,178.128
      135.521,178.133
      135.616,178.138
      135.711,178.142
      135.806,178.147
      135.901,178.152
      135.997,178.157
      136.092,178.161
      136.187,178.166
      136.282,178.171
      136.377,178.175
      136.472,178.180
      136.568,178.184
      136.663,178.189
      136.758,178.193
      136.853,178.198
      136.948,178.202
      137.044,178.207
      137.139,178.211
      137.234,178.216
      137.329,178.220
      137.424,178.224
      137.519,178.229
      137.615,178.233
      137.710,178.237
      137.805,178.241
      137.900,178.245
      137.995,178.250
      138.090,178.254
      138.186,178.258
      138.281,178.262
      138.376,178.266
      138.471,178.270
      138.566,178.274
      138.662,178.277
      138.757,178.281
      138.852,178.285
      138.947,178.289
      139.042,178.293
      139.137,178.297
      139.233,178.301
      139.328,178.304
      139.423,178.308
      139.518,178.312
      139.613,178.316
      139.709,178.320
      139.804,178.323
      139.899,178.327
      139.994,178.331
      140.089,178.335
      140.184,178.339
      140.280,178.342
      140.375,178.346
      140.470,178.350
      140.565,178.353
      140.660,178.357
      140.755,178.361
      140.851,178.365
      140.946,178.368
      141.041,178.372
      141.136,178.375
      141.231,178.379
      141.327,178.383
      141.422,178.386
      141.517,178.390
      141.612,178.394
      141.707,178.397
      141.802,178.401
      141.898,178.404
      141.993,178.408
      142.088,178.411
      142.183,178.415
      142.278,178.418
      142.373,178.422
      142.469,178.425
      142.564,178.429
      142.659,178.432
      142.754,178.436
      142.849,178.439
      142.945,178.443
      143.040,178.446
      143.135,178.450
      143.230,178.453
      143.325,178.456
      143.420,178.460
      143.516,178.463
      143.611,178.466
      143.706,178.470
      143.801,178.473
      143.896,178.476
      143.992,178.480
      144.087,178.483
      144.182,178.486
      144.277,178.489
      144.372,178.493
      144.467,178.496
      144.563,178.499
      144.658,178.502
      144.753,178.506
      144.848,178.509
      144.943,178.512
      145.038,178.515
      145.134,178.518
      145.229,178.521
      145.324,178.524
      145.419,178.527
      145.514,178.530
      145.610,178.534
      145.705,178.537
      145.800,178.540
      145.895,178.543
      145.990,178.546
      146.085,178.549
      146.181,178.552
      146.276,178.555
      146.371,178.557
      146.466,178.560
      146.561,178.563
      146.656,178.566
      146.752,178.569
      146.847,178.572
      146.942,178.575
      147.037,178.578
      147.132,178.580
      147.228,178.583
      147.323,178.586
      147.418,178.589
      147.513,178.591
      147.608,178.594
      147.703,178.597
      147.799,178.600
      147.894,178.602
      147.989,178.605
      148.084,178.607
      148.179,178.610
      148.275,178.613
      148.370,178.615
      148.465,178.618
      148.560,178.621
      148.655,178.623
      148.750,178.626
      148.846,178.628
      148.941,178.631
      149.036,178.633
      149.131,178.636
      149.226,178.638
      149.321,178.641
      149.417,178.643
      149.512,178.646
      149.607,178.648
      149.702,178.651
      149.797,178.653
      149.893,178.656
      149.988,178.658
      150.083,178.661
      150.178,178.663
      150.273,178.666
      150.368,178.668
      150.464,178.670
      150.559,178.673
      150.654,178.675
      150.749,178.678
      150.844,178.680
      150.940,178.682
      151.035,178.685
      151.130,178.687
      151.225,178.689
      151.320,178.692
      151.415,178.694
      151.511,178.696
      151.606,178.699
      151.701,178.701
      151.796,178.703
      151.891,178.705
      151.986,178.708
      152.082,178.710
      152.177,178.712
      152.272,178.714
      152.367,178.717
      152.462,178.719
      152.558,178.721
      152.653,178.723
      152.748,178.725
      152.843,178.728
      152.938,178.730
      153.033,178.732
      153.129,178.734
      153.224,178.736
      153.319,178.738
      153.414,178.741
      153.509,178.743
      153.604,178.745
      153.700,178.747
      153.795,178.749
      153.890,178.751
      153.985,178.753
      154.080,178.755
      154.176,178.757
      154.271,178.759
      154.366,178.761
      154.461,178.763
      154.556,178.765
      154.651,178.767
      154.747,178.769
      154.842,178.771
      154.937,178.773
      155.032,178.775
      155.127,178.777
      155.223,178.779
      155.318,178.781
      155.413,178.783
      155.508,178.785
      155.603,178.787
      155.698,178.789
      155.794,178.791
      155.889,178.793
      155.984,178.794
      156.079,178.796
      156.174,178.798
      156.269,178.800
      156.365,178.802
      156.460,178.804
      156.555,178.805
      156.650,178.807
      156.745,178.809
      156.841,178.811
      156.936,178.813
      157.031,178.814
      157.126,178.816
      157.221,178.818
      157.316,178.820
      157.412,178.821
      157.507,178.823
      157.602,178.825
      157.697,178.827
      157.792,178.828
      157.887,178.830
      157.983,178.832
      158.078,178.833
      158.173,178.835
      158.268,178.837
      158.363,178.838
      158.459,178.840
      158.554,178.842
      158.649,178.843
      158.744,178.845
      158.839,178.847
      158.934,178.848
      159.030,178.850
      159.125,178.852
      159.220,178.853
      159.315,178.855
      159.410,178.856
      159.506,178.858
      159.601,178.860
      159.696,178.861
      159.791,178.863
      159.886,178.864
      159.981,178.866
      160.077,178.867
      160.172,178.869
      160.267,178.870
      160.362,178.872
      160.457,178.874
      160.552,178.875
      160.648,178.877
      160.743,178.878
      160.838,178.880
      160.933,178.881
      161.028,178.883
      161.124,178.884
      161.219,178.886
      161.314,178.887
      161.409,178.889
      161.504,178.890
      161.599,178.892
      161.695,178.893
      161.790,178.894
      161.885,178.896
      161.980,178.897
      162.075,178.899
      162.170,178.900
      162.266,178.902
      162.361,178.903
      162.456,178.904
      162.551,178.906
      162.646,178.907
      162.742,178.909
      162.837,178.910
      162.932,178.911
      163.027,178.913
      163.122,178.914
      163.217,178.916
      163.313,178.917
      163.408,178.918
      163.503,178.920
      163.598,178.921
      163.693,178.922
      163.789,178.924
      163.884,178.925
      163.979,178.926
      164.074,178.928
      164.169,178.929
      164.264,178.930
      164.360,178.931
      164.455,178.933
      164.550,178.934
      164.645,178.935
      164.740,178.937
      164.835,178.938
      164.931,178.939
      165.026,178.940
      165.121,178.942
      165.216,178.943
      165.311,178.944
      165.407,178.945
      165.502,178.947
      165.597,178.948
      165.692,178.949
      165.787,178.950
      165.882,178.951
      165.978,178.953
      166.073,178.954
      166.168,178.955
      166.263,178.956
      166.358,178.957
      166.454,178.958
      166.549,178.960
      166.644,178.961
      166.739,178.962
      166.834,178.963
      166.929,178.964
      167.025,178.965
      167.120,178.966
      167.215,178.968
      167.310,178.969
      167.405,178.970
      167.500,178.971
      167.596,178.972
      167.691,178.973
      167.786,178.974
      167.881,178.975
      167.976,178.976
      168.072,178.977
      168.167,178.978
      168.262,178.979
      168.357,178.980
      168.452,178.981
      168.547,178.982
      168.643,178.983
      168.738,178.984
      168.833,178.985
      168.928,178.986
      169.023,178.987
      169.118,178.988
      169.214,178.989
      169.309,178.990
      169.404,178.991
      169.499,178.992
      169.594,178.993
      169.690,178.994
      169.785,178.995
      169.880,178.996
      169.975,178.997
      170.070,178.998
      170.165,178.999
      170.261,179.000
      170.356,179.001
      170.451,179.002
      170.546,179.003
      170.641,179.003
      170.737,179.004
      170.832,179.005
      170.927,179.006
      171.022,179.007
      171.117,179.008
      171.212,179.009
      171.308,179.010
      171.403,179.011
      171.498,179.012
      171.593,179.012
      171.688,179.013
      171.783,179.014
      171.879,179.015
      171.974,179.016
      172.069,179.017
      172.164,179.018
      172.259,179.018
      172.355,179.019
      172.450,179.020
      172.545,179.021
      172.640,179.022
      172.735,179.023
      172.830,179.024
      172.926,179.024
      173.021,179.025
      173.116,179.026
      173.211,179.027
      173.306,179.028
      173.401,179.029
      173.497,179.030
      173.592,179.030
      173.687,179.031
      173.782,179.032
      173.877,179.033
      173.973,179.034
      174.068,179.035
      174.163,179.035
      174.258,179.036
      174.353,179.037
      174.448,179.038
      174.544,179.039
      174.639,179.040
      174.734,179.041
      174.829,179.041
      174.924,179.042
      175.020,179.043
      175.115,179.044
      175.210,179.045
      175.305,179.046
      175.400,179.047
      175.495,179.047
      175.591,179.048
      175.686,179.049
      175.781,179.050
      175.876,179.051
      175.971,179.052
      176.066,179.053
      176.162,179.054
      176.257,179.054
      176.352,179.055
      176.447,179.056
      176.542,179.057
      176.638,179.058
      176.733,179.059
      176.828,179.060
      176.923,179.061
    " />
  </g>

  <!-- точка (-1;2) -->
  <circle cx="61.538" cy="148.462" r="2.2" fill="#2d70b3" stroke="#2d70b3" stroke-width="0.6" />

  <!-- стрелка оси x поверх графика -->
  <g stroke="#111827" stroke-width="1.25">
    <line x1="169.615" y1="179.231" x2="184.615" y2="179.231" marker-end="url(#axis-arrow)" />
  </g>

  <!-- подпись -->
  <text x="92.308" y="160.846"
        font-family="Georgia, 'Times New Roman', serif"
        font-style="italic"
        font-size="13"
        fill="#2d70b3">f(x)</text>
</svg>
