<svg xmlns="http://www.w3.org/2000/svg" width="220" height="220" viewBox="0 0 220 220">
  <rect x="0" y="0" width="220" height="220" fill="white" />

  <defs>
    <marker id="axis-arrow"
            viewBox="0 0 15 8"
            refX="13" refY="4"
            markerWidth="12" markerHeight="6.4"
            orient="auto"
            markerUnits="userSpaceOnUse">
      <path d="M 3 0 L 15 4 L 3 8 L 7 4 Z" fill="black" />
    </marker>
  </defs>

  <!-- сетка: x от -4 до 7, y от -2 до 11 -->
  <g stroke="#d1d5db" stroke-width="0.5" shape-rendering="crispEdges">
    <line x1="30.769" y1="10.000" x2="30.769" y2="210.000" />
    <line x1="46.154" y1="10.000" x2="46.154" y2="210.000" />
    <line x1="61.538" y1="10.000" x2="61.538" y2="210.000" />
    <line x1="76.923" y1="10.000" x2="76.923" y2="210.000" />
    <line x1="92.308" y1="10.000" x2="92.308" y2="210.000" />
    <line x1="107.692" y1="10.000" x2="107.692" y2="210.000" />
    <line x1="123.077" y1="10.000" x2="123.077" y2="210.000" />
    <line x1="138.462" y1="10.000" x2="138.462" y2="210.000" />
    <line x1="153.846" y1="10.000" x2="153.846" y2="210.000" />
    <line x1="169.231" y1="10.000" x2="169.231" y2="210.000" />
    <line x1="15.385" y1="194.615" x2="184.615" y2="194.615" />
    <line x1="15.385" y1="179.231" x2="184.615" y2="179.231" />
    <line x1="15.385" y1="163.846" x2="184.615" y2="163.846" />
    <line x1="15.385" y1="148.462" x2="184.615" y2="148.462" />
    <line x1="15.385" y1="133.077" x2="184.615" y2="133.077" />
    <line x1="15.385" y1="117.692" x2="184.615" y2="117.692" />
    <line x1="15.385" y1="102.308" x2="184.615" y2="102.308" />
    <line x1="15.385" y1="86.923" x2="184.615" y2="86.923" />
    <line x1="15.385" y1="71.538" x2="184.615" y2="71.538" />
    <line x1="15.385" y1="56.154" x2="184.615" y2="56.154" />
    <line x1="15.385" y1="40.769" x2="184.615" y2="40.769" />
    <line x1="15.385" y1="25.385" x2="184.615" y2="25.385" />
  </g>

  <!-- оси -->
  <g stroke="#111827" stroke-width="1.25">
    <line x1="15.385" y1="179.231" x2="184.615" y2="179.231" />
    <line x1="76.923" y1="210.000" x2="76.923" y2="10.000" marker-end="url(#axis-arrow)" />
  </g>

  <!-- подписи осей и делений -->
  <g font-family="sans-serif" font-size="11" fill="#111827">
    <text x="72.923" y="192.231" text-anchor="end"
          font-size="13" font-style="italic"
          font-family="Georgia, 'Times New Roman', serif">O</text>

    <rect x="88.808" y="182.231" width="7" height="12" fill="white" />
    <text x="92.308" y="193.231" text-anchor="middle" font-size="13"
          font-family="'Times New Roman', serif"
          font-weight="300">1</text>

    <text x="68.923" y="166.846" text-anchor="end" font-size="13"
          font-family="'Times New Roman', serif"
          font-weight="300">1</text>

    <text x="181.615" y="192.231" text-anchor="start"
          font-family="Georgia, 'Times New Roman', serif"
          font-style="italic" font-size="13">x</text>

    <text x="73.923" y="13.000" text-anchor="end"
          font-family="Georgia, 'Times New Roman', serif"
          font-style="italic" font-size="13">y</text>
  </g>

  <!-- интерполяция (PCHIP) -->
  <g stroke="#2d70b3" stroke-width="1.25" fill="none"
     stroke-linecap="round" stroke-linejoin="round">
    <polyline points="
      15.385,179.171
      15.422,179.170
      15.460,179.170
      15.498,179.170
      15.536,179.170
      15.573,179.169
      15.611,179.169
      15.649,179.169
      15.687,179.169
      15.725,179.169
      15.762,179.168
      15.800,179.168
      15.838,179.168
      15.876,179.168
      15.913,179.167
      15.951,179.167
      15.989,179.167
      16.027,179.167
      16.065,179.166
      16.102,179.166
      16.140,179.166
      16.178,179.166
      16.216,179.166
      16.253,179.165
      16.291,179.165
      16.329,179.165
      16.367,179.165
      16.404,179.164
      16.442,179.164
      16.480,179.164
      16.518,179.164
      16.556,179.164
      16.593,179.163
      16.631,179.163
      16.669,179.163
      16.707,179.163
      16.744,179.162
      16.782,179.162
      16.820,179.162
      16.858,179.162
      16.896,179.161
      16.933,179.161
      16.971,179.161
      17.009,179.161
      17.047,179.161
      17.084,179.160
      17.122,179.160
      17.160,179.160
      17.198,179.160
      17.236,179.159
      17.273,179.159
      17.311,179.159
      17.349,179.159
      17.387,179.158
      17.424,179.158
      17.462,179.158
      17.500,179.158
      17.538,179.158
      17.575,179.157
      17.613,179.157
      17.651,179.157
      17.689,179.157
      17.727,179.156
      17.764,179.156
      17.802,179.156
      17.840,179.156
      17.878,179.155
      17.915,179.155
      17.953,179.155
      17.991,179.155
      18.029,179.154
      18.067,179.154
      18.104,179.154
      18.142,179.154
      18.180,179.153
      18.218,179.153
      18.255,179.153
      18.293,179.153
      18.331,179.152
      18.369,179.152
      18.406,179.152
      18.444,179.152
      18.482,179.151
      18.520,179.151
      18.558,179.151
      18.595,179.150
      18.633,179.150
      18.671,179.150
      18.709,179.150
      18.746,179.149
      18.784,179.149
      18.822,179.149
      18.860,179.149
      18.898,179.148
      18.935,179.148
      18.973,179.148
      19.011,179.147
      19.049,179.147
      19.086,179.147
      19.124,179.147
      19.162,179.146
      19.200,179.146
      19.237,179.146
      19.275,179.145
      19.313,179.145
      19.351,179.145
      19.389,179.145
      19.426,179.144
      19.464,179.144
      19.502,179.144
      19.540,179.143
      19.577,179.143
      19.615,179.143
      19.653,179.142
      19.691,179.142
      19.729,179.142
      19.766,179.142
      19.804,179.141
      19.842,179.141
      19.880,179.141
      19.917,179.140
      19.955,179.140
      19.993,179.140
      20.031,179.139
      20.069,179.139
      20.106,179.139
      20.144,179.138
      20.182,179.138
      20.220,179.138
      20.257,179.138
      20.295,179.137
      20.333,179.137
      20.371,179.137
      20.408,179.136
      20.446,179.136
      20.484,179.136
      20.522,179.135
      20.560,179.135
      20.597,179.135
      20.635,179.134
      20.673,179.134
      20.711,179.134
      20.748,179.133
      20.786,179.133
      20.824,179.133
      20.862,179.132
      20.900,179.132
      20.937,179.132
      20.975,179.131
      21.013,179.131
      21.051,179.131
      21.088,179.130
      21.126,179.130
      21.164,179.130
      21.202,179.129
      21.239,179.129
      21.277,179.129
      21.315,179.128
      21.353,179.128
      21.391,179.127
      21.428,179.127
      21.466,179.127
      21.504,179.126
      21.542,179.126
      21.579,179.126
      21.617,179.125
      21.655,179.125
      21.693,179.125
      21.731,179.124
      21.768,179.124
      21.806,179.124
      21.844,179.123
      21.882,179.123
      21.919,179.122
      21.957,179.122
      21.995,179.122
      22.033,179.121
      22.070,179.121
      22.108,179.121
      22.146,179.120
      22.184,179.120
      22.222,179.119
      22.259,179.119
      22.297,179.119
      22.335,179.118
      22.373,179.118
      22.410,179.118
      22.448,179.117
      22.486,179.117
      22.524,179.116
      22.562,179.116
      22.599,179.116
      22.637,179.115
      22.675,179.115
      22.713,179.114
      22.750,179.114
      22.788,179.114
      22.826,179.113
      22.864,179.113
      22.902,179.112
      22.939,179.112
      22.977,179.112
      23.015,179.111
      23.053,179.111
      23.090,179.110
      23.128,179.110
      23.166,179.110
      23.204,179.109
      23.241,179.109
      23.279,179.108
      23.317,179.108
      23.355,179.108
      23.393,179.107
      23.430,179.107
      23.468,179.106
      23.506,179.106
      23.544,179.105
      23.581,179.105
      23.619,179.105
      23.657,179.104
      23.695,179.104
      23.733,179.103
      23.770,179.103
      23.808,179.102
      23.846,179.102
      23.884,179.102
      23.921,179.101
      23.959,179.101
      23.997,179.100
      24.035,179.100
      24.072,179.099
      24.110,179.099
      24.148,179.098
      24.186,179.098
      24.224,179.097
      24.261,179.097
      24.299,179.097
      24.337,179.096
      24.375,179.096
      24.412,179.095
      24.450,179.095
      24.488,179.094
      24.526,179.094
      24.564,179.093
      24.601,179.093
      24.639,179.092
      24.677,179.092
      24.715,179.091
      24.752,179.091
      24.790,179.090
      24.828,179.090
      24.866,179.090
      24.903,179.089
      24.941,179.089
      24.979,179.088
      25.017,179.088
      25.055,179.087
      25.092,179.087
      25.130,179.086
      25.168,179.086
      25.206,179.085
      25.243,179.085
      25.281,179.084
      25.319,179.084
      25.357,179.083
      25.395,179.083
      25.432,179.082
      25.470,179.082
      25.508,179.081
      25.546,179.081
      25.583,179.080
      25.621,179.080
      25.659,179.079
      25.697,179.079
      25.735,179.078
      25.772,179.078
      25.810,179.077
      25.848,179.077
      25.886,179.076
      25.923,179.075
      25.961,179.075
      25.999,179.074
      26.037,179.074
      26.074,179.073
      26.112,179.073
      26.150,179.072
      26.188,179.072
      26.226,179.071
      26.263,179.071
      26.301,179.070
      26.339,179.070
      26.377,179.069
      26.414,179.068
      26.452,179.068
      26.490,179.067
      26.528,179.067
      26.566,179.066
      26.603,179.066
      26.641,179.065
      26.679,179.065
      26.717,179.064
      26.754,179.063
      26.792,179.063
      26.830,179.062
      26.868,179.062
      26.905,179.061
      26.943,179.060
      26.981,179.060
      27.019,179.059
      27.057,179.059
      27.094,179.058
      27.132,179.058
      27.170,179.057
      27.208,179.056
      27.245,179.056
      27.283,179.055
      27.321,179.055
      27.359,179.054
      27.397,179.053
      27.434,179.053
      27.472,179.052
      27.510,179.052
      27.548,179.051
      27.585,179.050
      27.623,179.050
      27.661,179.049
      27.699,179.048
      27.737,179.048
      27.774,179.047
      27.812,179.047
      27.850,179.046
      27.888,179.045
      27.925,179.045
      27.963,179.044
      28.001,179.043
      28.039,179.043
      28.076,179.042
      28.114,179.041
      28.152,179.041
      28.190,179.040
      28.228,179.040
      28.265,179.039
      28.303,179.038
      28.341,179.038
      28.379,179.037
      28.416,179.036
      28.454,179.036
      28.492,179.035
      28.530,179.034
      28.568,179.034
      28.605,179.033
      28.643,179.032
      28.681,179.032
      28.719,179.031
      28.756,179.030
      28.794,179.030
      28.832,179.029
      28.870,179.028
      28.907,179.027
      28.945,179.027
      28.983,179.026
      29.021,179.025
      29.059,179.025
      29.096,179.024
      29.134,179.023
      29.172,179.023
      29.210,179.022
      29.247,179.021
      29.285,179.021
      29.323,179.020
      29.361,179.019
      29.399,179.018
      29.436,179.018
      29.474,179.017
      29.512,179.016
      29.550,179.015
      29.587,179.015
      29.625,179.014
      29.663,179.013
      29.701,179.013
      29.738,179.012
      29.776,179.011
      29.814,179.010
      29.852,179.010
      29.890,179.009
      29.927,179.008
      29.965,179.007
      30.003,179.006
      30.041,179.006
      30.078,179.005
      30.116,179.004
      30.154,179.003
      30.192,179.003
      30.230,179.002
      30.267,179.001
      30.305,179.000
      30.343,178.999
      30.381,178.999
      30.418,178.998
      30.456,178.997
      30.494,178.996
      30.532,178.995
      30.570,178.995
      30.607,178.994
      30.645,178.993
      30.683,178.992
      30.721,178.991
      30.758,178.991
      30.796,178.990
      30.834,178.989
      30.872,178.988
      30.909,178.987
      30.947,178.986
      30.985,178.986
      31.023,178.985
      31.061,178.984
      31.098,178.983
      31.136,178.982
      31.174,178.981
      31.212,178.981
      31.249,178.980
      31.287,178.979
      31.325,178.978
      31.363,178.977
      31.401,178.976
      31.438,178.975
      31.476,178.975
      31.514,178.974
      31.552,178.973
      31.589,178.972
      31.627,178.971
      31.665,178.970
      31.703,178.969
      31.740,178.968
      31.778,178.967
      31.816,178.967
      31.854,178.966
      31.892,178.965
      31.929,178.964
      31.967,178.963
      32.005,178.962
      32.043,178.961
      32.080,178.960
      32.118,178.959
      32.156,178.958
      32.194,178.957
      32.232,178.956
      32.269,178.956
      32.307,178.955
      32.345,178.954
      32.383,178.953
      32.420,178.952
      32.458,178.951
      32.496,178.950
      32.534,178.949
      32.571,178.948
      32.609,178.947
      32.647,178.946
      32.685,178.945
      32.723,178.944
      32.760,178.943
      32.798,178.942
      32.836,178.941
      32.874,178.940
      32.911,178.939
      32.949,178.938
      32.987,178.937
      33.025,178.936
      33.063,178.935
      33.100,178.934
      33.138,178.933
      33.176,178.932
      33.214,178.931
      33.251,178.930
      33.289,178.929
      33.327,178.928
      33.365,178.927
      33.403,178.926
      33.440,178.925
      33.478,178.924
      33.516,178.923
      33.554,178.922
      33.591,178.921
      33.629,178.920
      33.667,178.919
      33.705,178.918
      33.742,178.917
      33.780,178.915
      33.818,178.914
      33.856,178.913
      33.894,178.912
      33.931,178.911
      33.969,178.910
      34.007,178.909
      34.045,178.908
      34.082,178.907
      34.120,178.906
      34.158,178.905
      34.196,178.903
      34.234,178.902
      34.271,178.901
      34.309,178.900
      34.347,178.899
      34.385,178.898
      34.422,178.897
      34.460,178.895
      34.498,178.894
      34.536,178.893
      34.573,178.892
      34.611,178.891
      34.649,178.890
      34.687,178.889
      34.725,178.887
      34.762,178.886
      34.800,178.885
      34.838,178.884
      34.876,178.883
      34.913,178.881
      34.951,178.880
      34.989,178.879
      35.027,178.878
      35.065,178.877
      35.102,178.875
      35.140,178.874
      35.178,178.873
      35.216,178.872
      35.253,178.871
      35.291,178.869
      35.329,178.868
      35.367,178.867
      35.404,178.866
      35.442,178.864
      35.480,178.863
      35.518,178.862
      35.556,178.861
      35.593,178.859
      35.631,178.858
      35.669,178.857
      35.707,178.856
      35.744,178.854
      35.782,178.853
      35.820,178.852
      35.858,178.851
      35.896,178.849
      35.933,178.848
      35.971,178.847
      36.009,178.845
      36.047,178.844
      36.084,178.843
      36.122,178.841
      36.160,178.840
      36.198,178.839
      36.236,178.837
      36.273,178.836
      36.311,178.835
      36.349,178.833
      36.387,178.832
      36.424,178.831
      36.462,178.829
      36.500,178.828
      36.538,178.827
      36.575,178.825
      36.613,178.824
      36.651,178.822
      36.689,178.821
      36.727,178.820
      36.764,178.818
      36.802,178.817
      36.840,178.815
      36.878,178.814
      36.915,178.813
      36.953,178.811
      36.991,178.810
      37.029,178.808
      37.067,178.807
      37.104,178.805
      37.142,178.804
      37.180,178.802
      37.218,178.801
      37.255,178.800
      37.293,178.798
      37.331,178.797
      37.369,178.795
      37.406,178.794
      37.444,178.792
      37.482,178.791
      37.520,178.789
      37.558,178.788
      37.595,178.786
      37.633,178.785
      37.671,178.783
      37.709,178.781
      37.746,178.780
      37.784,178.778
      37.822,178.777
      37.860,178.775
      37.898,178.774
      37.935,178.772
      37.973,178.771
      38.011,178.769
      38.049,178.767
      38.086,178.766
      38.124,178.764
      38.162,178.763
      38.200,178.761
      38.237,178.759
      38.275,178.758
      38.313,178.756
      38.351,178.755
      38.389,178.753
      38.426,178.751
      38.464,178.750
      38.502,178.748
      38.540,178.746
      38.577,178.745
      38.615,178.743
      38.653,178.742
      38.691,178.740
      38.729,178.738
      38.766,178.736
      38.804,178.735
      38.842,178.733
      38.880,178.731
      38.917,178.730
      38.955,178.728
      38.993,178.726
      39.031,178.725
      39.069,178.723
      39.106,178.721
      39.144,178.719
      39.182,178.718
      39.220,178.716
      39.257,178.714
      39.295,178.712
      39.333,178.711
      39.371,178.709
      39.408,178.707
      39.446,178.705
      39.484,178.704
      39.522,178.702
      39.560,178.700
      39.597,178.698
      39.635,178.696
      39.673,178.695
      39.711,178.693
      39.748,178.691
      39.786,178.689
      39.824,178.687
      39.862,178.685
      39.900,178.684
      39.937,178.682
      39.975,178.680
      40.013,178.678
      40.051,178.676
      40.088,178.674
      40.126,178.672
      40.164,178.670
      40.202,178.668
      40.239,178.667
      40.277,178.665
      40.315,178.663
      40.353,178.661
      40.391,178.659
      40.428,178.657
      40.466,178.655
      40.504,178.653
      40.542,178.651
      40.579,178.649
      40.617,178.647
      40.655,178.645
      40.693,178.643
      40.731,178.641
      40.768,178.639
      40.806,178.637
      40.844,178.635
      40.882,178.633
      40.919,178.631
      40.957,178.629
      40.995,178.627
      41.033,178.625
      41.070,178.623
      41.108,178.620
      41.146,178.618
      41.184,178.616
      41.222,178.614
      41.259,178.612
      41.297,178.610
      41.335,178.608
      41.373,178.606
      41.410,178.604
      41.448,178.601
      41.486,178.599
      41.524,178.597
      41.562,178.595
      41.599,178.593
      41.637,178.591
      41.675,178.588
      41.713,178.586
      41.750,178.584
      41.788,178.582
      41.826,178.580
      41.864,178.577
      41.902,178.575
      41.939,178.573
      41.977,178.571
      42.015,178.568
      42.053,178.566
      42.090,178.564
      42.128,178.562
      42.166,178.559
      42.204,178.557
      42.241,178.555
      42.279,178.552
      42.317,178.550
      42.355,178.548
      42.393,178.546
      42.430,178.543
      42.468,178.541
      42.506,178.539
      42.544,178.536
      42.581,178.534
      42.619,178.531
      42.657,178.529
      42.695,178.527
      42.733,178.524
      42.770,178.522
      42.808,178.520
      42.846,178.517
      42.884,178.515
      42.921,178.512
      42.959,178.510
      42.997,178.507
      43.035,178.505
      43.072,178.502
      43.110,178.500
      43.148,178.497
      43.186,178.495
      43.224,178.492
      43.261,178.490
      43.299,178.487
      43.337,178.485
      43.375,178.482
      43.412,178.480
      43.450,178.477
      43.488,178.474
      43.526,178.472
      43.564,178.469
      43.601,178.467
      43.639,178.464
      43.677,178.461
      43.715,178.459
      43.752,178.456
      43.790,178.453
      43.828,178.451
      43.866,178.448
      43.903,178.445
      43.941,178.443
      43.979,178.440
      44.017,178.437
      44.055,178.434
      44.092,178.432
      44.130,178.429
      44.168,178.426
      44.206,178.423
      44.243,178.421
      44.281,178.418
      44.319,178.415
      44.357,178.412
      44.395,178.409
      44.432,178.407
      44.470,178.404
      44.508,178.401
      44.546,178.398
      44.583,178.395
      44.621,178.392
      44.659,178.389
      44.697,178.386
      44.735,178.384
      44.772,178.381
      44.810,178.378
      44.848,178.375
      44.886,178.372
      44.923,178.369
      44.961,178.366
      44.999,178.363
      45.037,178.360
      45.074,178.357
      45.112,178.354
      45.150,178.351
      45.188,178.348
      45.226,178.345
      45.263,178.342
      45.301,178.339
      45.339,178.336
      45.377,178.333
      45.414,178.330
      45.452,178.327
      45.490,178.324
      45.528,178.321
      45.566,178.318
      45.603,178.315
      45.641,178.312
      45.679,178.309
      45.717,178.306
      45.754,178.302
      45.792,178.299
      45.830,178.296
      45.868,178.293
      45.905,178.290
      45.943,178.287
      45.981,178.284
      46.019,178.281
      46.057,178.277
      46.094,178.274
      46.132,178.271
      46.170,178.268
      46.208,178.265
      46.245,178.261
      46.283,178.258
      46.321,178.255
      46.359,178.252
      46.397,178.248
      46.434,178.245
      46.472,178.242
      46.510,178.238
      46.548,178.235
      46.585,178.232
      46.623,178.228
      46.661,178.225
      46.699,178.221
      46.736,178.218
      46.774,178.215
      46.812,178.211
      46.850,178.208
      46.888,178.204
      46.925,178.201
      46.963,178.197
      47.001,178.193
      47.039,178.190
      47.076,178.186
      47.114,178.183
      47.152,178.179
      47.190,178.175
      47.228,178.172
      47.265,178.168
      47.303,178.165
      47.341,178.161
      47.379,178.157
      47.416,178.154
      47.454,178.150
      47.492,178.146
      47.530,178.142
      47.568,178.139
      47.605,178.135
      47.643,178.131
      47.681,178.127
      47.719,178.124
      47.756,178.120
      47.794,178.116
      47.832,178.112
      47.870,178.108
      47.907,178.105
      47.945,178.101
      47.983,178.097
      48.021,178.093
      48.059,178.089
      48.096,178.085
      48.134,178.081
      48.172,178.078
      48.210,178.074
      48.247,178.070
      48.285,178.066
      48.323,178.062
      48.361,178.058
      48.399,178.054
      48.436,178.050
      48.474,178.046
      48.512,178.042
      48.550,178.038
      48.587,178.033
      48.625,178.029
      48.663,178.025
      48.701,178.021
      48.738,178.017
      48.776,178.013
      48.814,178.009
      48.852,178.005
      48.890,178.000
      48.927,177.996
      48.965,177.992
      49.003,177.988
      49.041,177.984
      49.078,177.979
      49.116,177.975
      49.154,177.971
      49.192,177.966
      49.230,177.962
      49.267,177.958
      49.305,177.953
      49.343,177.949
      49.381,177.945
      49.418,177.940
      49.456,177.936
      49.494,177.932
      49.532,177.927
      49.569,177.923
      49.607,177.918
      49.645,177.914
      49.683,177.909
      49.721,177.905
      49.758,177.900
      49.796,177.896
      49.834,177.891
      49.872,177.887
      49.909,177.882
      49.947,177.877
      49.985,177.873
      50.023,177.868
      50.061,177.864
      50.098,177.859
      50.136,177.854
      50.174,177.849
      50.212,177.845
      50.249,177.840
      50.287,177.835
      50.325,177.831
      50.363,177.826
      50.401,177.821
      50.438,177.816
      50.476,177.811
      50.514,177.806
      50.552,177.802
      50.589,177.797
      50.627,177.792
      50.665,177.787
      50.703,177.782
      50.740,177.777
      50.778,177.772
      50.816,177.767
      50.854,177.762
      50.892,177.757
      50.929,177.752
      50.967,177.747
      51.005,177.742
      51.043,177.737
      51.080,177.732
      51.118,177.727
      51.156,177.722
      51.194,177.717
      51.232,177.711
      51.269,177.706
      51.307,177.701
      51.345,177.696
      51.383,177.691
      51.420,177.685
      51.458,177.680
      51.496,177.675
      51.534,177.669
      51.571,177.664
      51.609,177.659
      51.647,177.653
      51.685,177.648
      51.723,177.643
      51.760,177.637
      51.798,177.632
      51.836,177.626
      51.874,177.621
      51.911,177.615
      51.949,177.610
      51.987,177.604
      52.025,177.599
      52.063,177.593
      52.100,177.588
      52.138,177.582
      52.176,177.576
      52.214,177.571
      52.251,177.565
      52.289,177.559
      52.327,177.554
      52.365,177.548
      52.402,177.542
      52.440,177.536
      52.478,177.531
      52.516,177.525
      52.554,177.519
      52.591,177.513
      52.629,177.507
      52.667,177.502
      52.705,177.496
      52.742,177.490
      52.780,177.484
      52.818,177.478
      52.856,177.472
      52.894,177.466
      52.931,177.460
      52.969,177.454
      53.007,177.448
      53.045,177.442
      53.082,177.436
      53.120,177.430
      53.158,177.424
      53.196,177.418
      53.234,177.412
      53.271,177.406
      53.309,177.399
      53.347,177.393
      53.385,177.387
      53.422,177.381
      53.460,177.374
      53.498,177.368
      53.536,177.362
      53.573,177.355
      53.611,177.349
      53.649,177.343
      53.687,177.336
      53.725,177.330
      53.762,177.323
      53.800,177.317
      53.838,177.310
      53.876,177.304
      53.913,177.297
      53.951,177.290
      53.989,177.284
      54.027,177.277
      54.065,177.270
      54.102,177.263
      54.140,177.257
      54.178,177.250
      54.216,177.243
      54.253,177.236
      54.291,177.229
      54.329,177.222
      54.367,177.215
      54.404,177.207
      54.442,177.200
      54.480,177.193
      54.518,177.186
      54.556,177.178
      54.593,177.171
      54.631,177.164
      54.669,177.156
      54.707,177.148
      54.744,177.141
      54.782,177.133
      54.820,177.126
      54.858,177.118
      54.896,177.110
      54.933,177.102
      54.971,177.095
      55.009,177.087
      55.047,177.079
      55.084,177.071
      55.122,177.063
      55.160,177.055
      55.198,177.047
      55.236,177.039
      55.273,177.031
      55.311,177.023
      55.349,177.015
      55.387,177.007
      55.424,176.999
      55.462,176.991
      55.500,176.983
      55.538,176.975
      55.575,176.967
      55.613,176.959
      55.651,176.951
      55.689,176.943
      55.727,176.935
      55.764,176.927
      55.802,176.918
      55.840,176.910
      55.878,176.902
      55.915,176.894
      55.953,176.886
      55.991,176.878
      56.029,176.870
      56.067,176.862
      56.104,176.854
      56.142,176.845
      56.180,176.837
      56.218,176.829
      56.255,176.821
      56.293,176.813
      56.331,176.804
      56.369,176.796
      56.406,176.788
      56.444,176.780
      56.482,176.771
      56.520,176.763
      56.558,176.755
      56.595,176.746
      56.633,176.738
      56.671,176.730
      56.709,176.721
      56.746,176.713
      56.784,176.704
      56.822,176.696
      56.860,176.687
      56.898,176.679
      56.935,176.670
      56.973,176.662
      57.011,176.653
      57.049,176.644
      57.086,176.636
      57.124,176.627
      57.162,176.618
      57.200,176.609
      57.237,176.601
      57.275,176.592
      57.313,176.583
      57.351,176.574
      57.389,176.565
      57.426,176.556
      57.464,176.547
      57.502,176.538
      57.540,176.529
      57.577,176.520
      57.615,176.510
      57.653,176.501
      57.691,176.492
      57.729,176.483
      57.766,176.473
      57.804,176.464
      57.842,176.455
      57.880,176.445
      57.917,176.436
      57.955,176.426
      57.993,176.417
      58.031,176.407
      58.069,176.397
      58.106,176.388
      58.144,176.378
      58.182,176.368
      58.220,176.359
      58.257,176.349
      58.295,176.339
      58.333,176.329
      58.371,176.319
      58.408,176.309
      58.446,176.299
      58.484,176.290
      58.522,176.280
      58.560,176.270
      58.597,176.259
      58.635,176.249
      58.673,176.239
      58.711,176.229
      58.748,176.219
      58.786,176.209
      58.824,176.199
      58.862,176.188
      58.900,176.178
      58.937,176.168
      58.975,176.158
      59.013,176.147
      59.051,176.137
      59.088,176.127
      59.126,176.116
      59.164,176.106
      59.202,176.095
      59.239,176.085
      59.277,176.074
      59.315,176.064
      59.353,176.053
      59.391,176.043
      59.428,176.032
      59.466,176.022
      59.504,176.011
      59.542,176.000
      59.579,175.990
      59.617,175.979
      59.655,175.968
      59.693,175.957
      59.731,175.946
      59.768,175.936
      59.806,175.925
      59.844,175.914
      59.882,175.903
      59.919,175.892
      59.957,175.881
      59.995,175.870
      60.033,175.858
      60.070,175.847
      60.108,175.836
      60.146,175.825
      60.184,175.814
      60.222,175.802
      60.259,175.791
      60.297,175.780
      60.335,175.768
      60.373,175.757
      60.410,175.745
      60.448,175.734
      60.486,175.722
      60.524,175.710
      60.562,175.699
      60.599,175.687
      60.637,175.675
      60.675,175.663
      60.713,175.652
      60.750,175.640
      60.788,175.628
      60.826,175.616
      60.864,175.604
      60.902,175.592
      60.939,175.579
      60.977,175.567
      61.015,175.555
      61.053,175.543
      61.090,175.530
      61.128,175.518
      61.166,175.506
      61.204,175.493
      61.241,175.481
      61.279,175.468
      61.317,175.456
      61.355,175.443
      61.393,175.430
      61.430,175.418
      61.468,175.405
      61.506,175.392
      61.544,175.379
      61.581,175.366
      61.619,175.353
      61.657,175.340
      61.695,175.327
      61.733,175.314
      61.770,175.301
      61.808,175.288
      61.846,175.274
      61.884,175.261
      61.921,175.248
      61.959,175.234
      61.997,175.221
      62.035,175.207
      62.072,175.194
      62.110,175.180
      62.148,175.167
      62.186,175.153
      62.224,175.139
      62.261,175.125
      62.299,175.112
      62.337,175.098
      62.375,175.084
      62.412,175.070
      62.450,175.056
      62.488,175.042
      62.526,175.027
      62.564,175.013
      62.601,174.999
      62.639,174.985
      62.677,174.970
      62.715,174.956
      62.752,174.941
      62.790,174.927
      62.828,174.912
      62.866,174.897
      62.903,174.883
      62.941,174.868
      62.979,174.853
      63.017,174.838
      63.055,174.823
      63.092,174.808
      63.130,174.793
      63.168,174.778
      63.206,174.763
      63.243,174.748
      63.281,174.732
      63.319,174.717
      63.357,174.702
      63.395,174.686
      63.432,174.671
      63.470,174.655
      63.508,174.639
      63.546,174.623
      63.583,174.608
      63.621,174.592
      63.659,174.576
      63.697,174.560
      63.735,174.544
      63.772,174.528
      63.810,174.512
      63.848,174.495
      63.886,174.479
      63.923,174.463
      63.961,174.446
      63.999,174.430
      64.037,174.413
      64.074,174.396
      64.112,174.380
      64.150,174.363
      64.188,174.346
      64.226,174.329
      64.263,174.311
      64.301,174.294
      64.339,174.277
      64.377,174.259
      64.414,174.242
      64.452,174.224
      64.490,174.207
      64.528,174.189
      64.566,174.171
      64.603,174.153
      64.641,174.135
      64.679,174.117
      64.717,174.099
      64.754,174.081
      64.792,174.063
      64.830,174.044
      64.868,174.026
      64.905,174.008
      64.943,173.989
      64.981,173.971
      65.019,173.952
      65.057,173.934
      65.094,173.915
      65.132,173.897
      65.170,173.878
      65.208,173.859
      65.245,173.841
      65.283,173.822
      65.321,173.803
      65.359,173.784
      65.397,173.766
      65.434,173.747
      65.472,173.728
      65.510,173.709
      65.548,173.690
      65.585,173.671
      65.623,173.652
      65.661,173.634
      65.699,173.615
      65.736,173.596
      65.774,173.577
      65.812,173.558
      65.850,173.539
      65.888,173.520
      65.925,173.501
      65.963,173.482
      66.001,173.463
      66.039,173.444
      66.076,173.425
      66.114,173.406
      66.152,173.386
      66.190,173.367
      66.228,173.348
      66.265,173.329
      66.303,173.309
      66.341,173.290
      66.379,173.270
      66.416,173.251
      66.454,173.231
      66.492,173.211
      66.530,173.191
      66.568,173.172
      66.605,173.152
      66.643,173.132
      66.681,173.111
      66.719,173.091
      66.756,173.071
      66.794,173.051
      66.832,173.030
      66.870,173.010
      66.907,172.989
      66.945,172.968
      66.983,172.947
      67.021,172.926
      67.059,172.905
      67.096,172.884
      67.134,172.862
      67.172,172.841
      67.210,172.819
      67.247,172.797
      67.285,172.776
      67.323,172.753
      67.361,172.731
      67.399,172.709
      67.436,172.686
      67.474,172.664
      67.512,172.641
      67.550,172.618
      67.587,172.595
      67.625,172.572
      67.663,172.549
      67.701,172.526
      67.738,172.502
      67.776,172.479
      67.814,172.455
      67.852,172.431
      67.890,172.407
      67.927,172.384
      67.965,172.360
      68.003,172.335
      68.041,172.311
      68.078,172.287
      68.116,172.263
      68.154,172.238
      68.192,172.214
      68.230,172.189
      68.267,172.164
      68.305,172.140
      68.343,172.115
      68.381,172.090
      68.418,172.065
      68.456,172.040
      68.494,172.015
      68.532,171.990
      68.569,171.965
      68.607,171.940
      68.645,171.915
      68.683,171.890
      68.721,171.865
      68.758,171.840
      68.796,171.814
      68.834,171.789
      68.872,171.764
      68.909,171.739
      68.947,171.713
      68.985,171.688
      69.023,171.662
      69.061,171.637
      69.098,171.611
      69.136,171.586
      69.174,171.560
      69.212,171.535
      69.249,171.509
      69.287,171.483
      69.325,171.457
      69.363,171.431
      69.401,171.405
      69.438,171.379
      69.476,171.353
      69.514,171.327
      69.552,171.301
      69.589,171.274
      69.627,171.248
      69.665,171.221
      69.703,171.195
      69.740,171.168
      69.778,171.141
      69.816,171.114
      69.854,171.087
      69.892,171.060
      69.929,171.033
      69.967,171.006
      70.005,170.978
      70.043,170.951
      70.080,170.923
      70.118,170.895
      70.156,170.867
      70.194,170.839
      70.232,170.811
      70.269,170.783
      70.307,170.754
      70.345,170.726
      70.383,170.697
      70.420,170.668
      70.458,170.639
      70.496,170.610
      70.534,170.580
      70.571,170.551
      70.609,170.521
      70.647,170.491
      70.685,170.461
      70.723,170.431
      70.760,170.401
      70.798,170.371
      70.836,170.340
      70.874,170.309
      70.911,170.279
      70.949,170.248
      70.987,170.216
      71.025,170.185
      71.063,170.154
      71.100,170.122
      71.138,170.091
      71.176,170.059
      71.214,170.027
      71.251,169.995
      71.289,169.963
      71.327,169.931
      71.365,169.899
      71.402,169.867
      71.440,169.834
      71.478,169.801
      71.516,169.769
      71.554,169.736
      71.591,169.703
      71.629,169.670
      71.667,169.637
      71.705,169.604
      71.742,169.571
      71.780,169.538
      71.818,169.504
      71.856,169.471
      71.894,169.437
      71.931,169.404
      71.969,169.370
      72.007,169.337
      72.045,169.303
      72.082,169.269
      72.120,169.235
      72.158,169.201
      72.196,169.167
      72.234,169.133
      72.271,169.099
      72.309,169.065
      72.347,169.030
      72.385,168.996
      72.422,168.961
      72.460,168.927
      72.498,168.892
      72.536,168.857
      72.573,168.822
      72.611,168.787
      72.649,168.752
      72.687,168.717
      72.725,168.681
      72.762,168.646
      72.800,168.610
      72.838,168.575
      72.876,168.539
      72.913,168.503
      72.951,168.467
      72.989,168.431
      73.027,168.394
      73.065,168.358
      73.102,168.321
      73.140,168.285
      73.178,168.248
      73.216,168.211
      73.253,168.174
      73.291,168.137
      73.329,168.099
      73.367,168.062
      73.404,168.024
      73.442,167.986
      73.480,167.948
      73.518,167.910
      73.556,167.872
      73.593,167.833
      73.631,167.795
      73.669,167.756
      73.707,167.717
      73.744,167.678
      73.782,167.639
      73.820,167.599
      73.858,167.560
      73.896,167.520
      73.933,167.480
      73.971,167.440
      74.009,167.400
      74.047,167.359
      74.084,167.318
      74.122,167.278
      74.160,167.237
      74.198,167.196
      74.235,167.154
      74.273,167.113
      74.311,167.071
      74.349,167.030
      74.387,166.988
      74.424,166.946
      74.462,166.904
      74.500,166.861
      74.538,166.819
      74.575,166.776
      74.613,166.733
      74.651,166.690
      74.689,166.647
      74.727,166.604
      74.764,166.561
      74.802,166.517
      74.840,166.474
      74.878,166.430
      74.915,166.386
      74.953,166.342
      74.991,166.298
      75.029,166.254
      75.067,166.209
      75.104,166.165
      75.142,166.120
      75.180,166.076
      75.218,166.031
      75.255,165.986
      75.293,165.941
      75.331,165.895
      75.369,165.850
      75.406,165.805
      75.444,165.760
      75.482,165.715
      75.520,165.670
      75.558,165.625
      75.595,165.579
      75.633,165.534
      75.671,165.489
      75.709,165.443
      75.746,165.398
      75.784,165.352
      75.822,165.306
      75.860,165.260
      75.898,165.214
      75.935,165.168
      75.973,165.121
      76.011,165.074
      76.049,165.027
      76.086,164.980
      76.124,164.933
      76.162,164.885
      76.200,164.837
      76.237,164.789
      76.275,164.740
      76.313,164.692
      76.351,164.642
      76.389,164.593
      76.426,164.543
      76.464,164.493
      76.502,164.442
      76.540,164.391
      76.577,164.339
      76.615,164.287
      76.653,164.235
      76.691,164.182
      76.729,164.129
      76.766,164.075
      76.804,164.021
      76.842,163.966
      76.880,163.911
      76.917,163.855
      76.955,163.798
      76.993,163.742
      77.031,163.685
      77.068,163.628
      77.106,163.571
      77.144,163.514
      77.182,163.457
      77.220,163.399
      77.257,163.342
      77.295,163.284
      77.333,163.226
      77.371,163.168
      77.408,163.110
      77.446,163.051
      77.484,162.992
      77.522,162.933
      77.560,162.874
      77.597,162.815
      77.635,162.756
      77.673,162.696
      77.711,162.636
      77.748,162.576
      77.786,162.516
      77.824,162.456
      77.862,162.395
      77.900,162.335
      77.937,162.274
      77.975,162.213
      78.013,162.151
      78.051,162.090
      78.088,162.028
      78.126,161.966
      78.164,161.904
      78.202,161.841
      78.239,161.779
      78.277,161.716
      78.315,161.653
      78.353,161.590
      78.391,161.526
      78.428,161.463
      78.466,161.399
      78.504,161.335
      78.542,161.270
      78.579,161.206
      78.617,161.141
      78.655,161.076
      78.693,161.011
      78.731,160.945
      78.768,160.879
      78.806,160.814
      78.844,160.747
      78.882,160.681
      78.919,160.614
      78.957,160.547
      78.995,160.480
      79.033,160.413
      79.070,160.345
      79.108,160.277
      79.146,160.209
      79.184,160.141
      79.222,160.072
      79.259,160.003
      79.297,159.934
      79.335,159.865
      79.373,159.795
      79.410,159.725
      79.448,159.655
      79.486,159.585
      79.524,159.514
      79.562,159.443
      79.599,159.372
      79.637,159.300
      79.675,159.228
      79.713,159.156
      79.750,159.084
      79.788,159.011
      79.826,158.938
      79.864,158.865
      79.901,158.792
      79.939,158.718
      79.977,158.644
      80.015,158.570
      80.053,158.495
      80.090,158.420
      80.128,158.345
      80.166,158.270
      80.204,158.194
      80.241,158.118
      80.279,158.042
      80.317,157.965
      80.355,157.888
      80.393,157.811
      80.430,157.733
      80.468,157.655
      80.506,157.577
      80.544,157.499
      80.581,157.420
      80.619,157.341
      80.657,157.261
      80.695,157.182
      80.733,157.102
      80.770,157.021
      80.808,156.941
      80.846,156.860
      80.884,156.778
      80.921,156.697
      80.959,156.615
      80.997,156.532
      81.035,156.450
      81.072,156.367
      81.110,156.283
      81.148,156.200
      81.186,156.116
      81.224,156.031
      81.261,155.947
      81.299,155.862
      81.337,155.777
      81.375,155.691
      81.412,155.605
      81.450,155.518
      81.488,155.432
      81.526,155.345
      81.564,155.257
      81.601,155.170
      81.639,155.081
      81.677,154.993
      81.715,154.904
      81.752,154.815
      81.790,154.725
      81.828,154.635
      81.866,154.545
      81.903,154.454
      81.941,154.363
      81.979,154.272
      82.017,154.180
      82.055,154.088
      82.092,153.996
      82.130,153.903
      82.168,153.809
      82.206,153.716
      82.243,153.622
      82.281,153.527
      82.319,153.433
      82.357,153.337
      82.395,153.241
      82.432,153.144
      82.470,153.045
      82.508,152.946
      82.546,152.845
      82.583,152.744
      82.621,152.642
      82.659,152.538
      82.697,152.434
      82.735,152.329
      82.772,152.223
      82.810,152.116
      82.848,152.008
      82.886,151.899
      82.923,151.789
      82.961,151.678
      82.999,151.567
      83.037,151.454
      83.074,151.341
      83.112,151.227
      83.150,151.112
      83.188,150.996
      83.226,150.879
      83.263,150.762
      83.301,150.644
      83.339,150.524
      83.377,150.404
      83.414,150.284
      83.452,150.162
      83.490,150.040
      83.528,149.917
      83.566,149.793
      83.603,149.669
      83.641,149.544
      83.679,149.418
      83.717,149.291
      83.754,149.164
      83.792,149.036
      83.830,148.907
      83.868,148.778
      83.905,148.648
      83.943,148.517
      83.981,148.386
      84.019,148.254
      84.057,148.121
      84.094,147.988
      84.132,147.854
      84.170,147.720
      84.208,147.585
      84.245,147.449
      84.283,147.313
      84.321,147.176
      84.359,147.039
      84.397,146.901
      84.434,146.763
      84.472,146.624
      84.510,146.484
      84.548,146.344
      84.585,146.204
      84.623,146.063
      84.661,145.921
      84.699,145.780
      84.736,145.637
      84.774,145.494
      84.812,145.351
      84.850,145.207
      84.888,145.063
      84.925,144.919
      84.963,144.774
      85.001,144.628
      85.039,144.483
      85.076,144.336
      85.114,144.190
      85.152,144.043
      85.190,143.896
      85.228,143.748
      85.265,143.600
      85.303,143.452
      85.341,143.304
      85.379,143.155
      85.416,143.006
      85.454,142.856
      85.492,142.705
      85.530,142.553
      85.568,142.400
      85.605,142.246
      85.643,142.091
      85.681,141.935
      85.719,141.777
      85.756,141.619
      85.794,141.459
      85.832,141.299
      85.870,141.137
      85.907,140.975
      85.945,140.811
      85.983,140.647
      86.021,140.481
      86.059,140.315
      86.096,140.148
      86.134,139.979
      86.172,139.810
      86.210,139.640
      86.247,139.469
      86.285,139.296
      86.323,139.123
      86.361,138.950
      86.399,138.775
      86.436,138.599
      86.474,138.423
      86.512,138.246
      86.550,138.067
      86.587,137.888
      86.625,137.709
      86.663,137.528
      86.701,137.347
      86.738,137.164
      86.776,136.981
      86.814,136.798
      86.852,136.613
      86.890,136.428
      86.927,136.242
      86.965,136.055
      87.003,135.868
      87.041,135.680
      87.078,135.491
      87.116,135.302
      87.154,135.111
      87.192,134.921
      87.230,134.729
      87.267,134.537
      87.305,134.344
      87.343,134.151
      87.381,133.957
      87.418,133.762
      87.456,133.567
      87.494,133.371
      87.532,133.175
      87.569,132.978
      87.607,132.781
      87.645,132.583
      87.683,132.384
      87.721,132.184
      87.758,131.983
      87.796,131.781
      87.834,131.578
      87.872,131.373
      87.909,131.168
      87.947,130.961
      87.985,130.753
      88.023,130.544
      88.061,130.333
      88.098,130.122
      88.136,129.910
      88.174,129.696
      88.212,129.481
      88.249,129.266
      88.287,129.049
      88.325,128.831
      88.363,128.612
      88.401,128.392
      88.438,128.171
      88.476,127.949
      88.514,127.726
      88.552,127.502
      88.589,127.276
      88.627,127.050
      88.665,126.823
      88.703,126.595
      88.740,126.366
      88.778,126.136
      88.816,125.905
      88.854,125.673
      88.892,125.440
      88.929,125.206
      88.967,124.972
      89.005,124.736
      89.043,124.499
      89.080,124.262
      89.118,124.023
      89.156,123.784
      89.194,123.544
      89.232,123.303
      89.269,123.061
      89.307,122.818
      89.345,122.575
      89.383,122.330
      89.420,122.085
      89.458,121.838
      89.496,121.591
      89.534,121.341
      89.571,121.091
      89.609,120.839
      89.647,120.585
      89.685,120.330
      89.723,120.074
      89.760,119.816
      89.798,119.557
      89.836,119.297
      89.874,119.035
      89.911,118.772
      89.949,118.508
      89.987,118.243
      90.025,117.976
      90.063,117.708
      90.100,117.438
      90.138,117.168
      90.176,116.896
      90.214,116.623
      90.251,116.348
      90.289,116.073
      90.327,115.796
      90.365,115.518
      90.402,115.239
      90.440,114.959
      90.478,114.678
      90.516,114.395
      90.554,114.112
      90.591,113.827
      90.629,113.541
      90.667,113.254
      90.705,112.966
      90.742,112.677
      90.780,112.387
      90.818,112.096
      90.856,111.804
      90.894,111.510
      90.931,111.215
      90.969,110.919
      91.007,110.621
      91.045,110.321
      91.082,110.020
      91.120,109.717
      91.158,109.412
      91.196,109.106
      91.234,108.798
      91.271,108.489
      91.309,108.179
      91.347,107.866
      91.385,107.553
      91.422,107.237
      91.460,106.921
      91.498,106.603
      91.536,106.283
      91.573,105.962
      91.611,105.640
      91.649,105.316
      91.687,104.990
      91.725,104.664
      91.762,104.336
      91.800,104.006
      91.838,103.676
      91.876,103.344
      91.913,103.010
      91.951,102.676
      91.989,102.340
      92.027,102.003
      92.065,101.664
      92.102,101.324
      92.140,100.983
      92.178,100.640
      92.216,100.296
      92.253,99.949
      92.291,99.600
      92.329,99.250
      92.367,98.898
      92.404,98.544
      92.442,98.188
      92.480,97.830
      92.518,97.471
      92.556,97.110
      92.593,96.748
      92.631,96.383
      92.669,96.017
      92.707,95.650
      92.744,95.280
      92.782,94.910
      92.820,94.537
      92.858,94.163
      92.896,93.788
      92.933,93.411
      92.971,93.032
      93.009,92.652
      93.047,92.271
      93.084,91.888
      93.122,91.503
      93.160,91.118
      93.198,90.731
      93.235,90.342
      93.273,89.951
      93.311,89.558
      93.349,89.163
      93.387,88.766
      93.424,88.367
      93.462,87.966
      93.500,87.563
      93.538,87.158
      93.575,86.752
      93.613,86.343
      93.651,85.933
      93.689,85.521
      93.727,85.107
      93.764,84.691
      93.802,84.274
      93.840,83.855
      93.878,83.434
      93.915,83.012
      93.953,82.588
      93.991,82.162
      94.029,81.734
      94.067,81.306
      94.104,80.875
      94.142,80.443
      94.180,80.009
      94.218,79.573
      94.255,79.135
      94.293,78.695
      94.331,78.253
      94.369,77.808
      94.406,77.362
      94.444,76.913
      94.482,76.463
      94.520,76.010
      94.558,75.556
      94.595,75.099
      94.633,74.641
      94.671,74.181
      94.709,73.718
      94.746,73.254
      94.784,72.789
      94.822,72.321
      94.860,71.852
      94.898,71.381
      94.935,70.908
      94.973,70.433
      95.011,69.957
      95.049,69.479
      95.086,68.999
      95.124,68.516
      95.162,68.031
      95.200,67.544
      95.237,67.055
      95.275,66.563
      95.313,66.070
      95.351,65.574
      95.389,65.076
      95.426,64.576
      95.464,64.074
      95.502,63.571
      95.540,63.065
      95.577,62.557
      95.615,62.047
      95.653,61.536
      95.691,61.022
      95.729,60.507
      95.766,59.990
      95.804,59.471
      95.842,58.950
      95.880,58.426
      95.917,57.901
      95.955,57.373
      95.993,56.842
      96.031,56.310
      96.068,55.775
      96.106,55.238
      96.144,54.699
      96.182,54.157
      96.220,53.614
      96.257,53.068
      96.295,52.521
      96.333,51.971
      96.371,51.419
      96.408,50.865
      96.446,50.310
      96.484,49.752
      96.522,49.193
      96.560,48.631
      96.597,48.068
      96.635,47.501
      96.673,46.933
      96.711,46.361
      96.748,45.788
      96.786,45.212
      96.824,44.634
      96.862,44.054
      96.900,43.472
      96.937,42.887
      96.975,42.300
      97.013,41.711
      97.051,41.120
      97.088,40.527
      97.126,39.932
      97.164,39.335
      97.202,38.736
      97.239,38.135
      97.277,37.532
      97.315,36.926
      97.353,36.317
      97.391,35.707
      97.428,35.093
      97.466,34.478
      97.504,33.860
      97.542,33.240
      97.579,32.618
      97.617,31.993
      97.655,31.367
      97.693,30.738
      97.731,30.107
      97.768,29.474
      97.806,28.839
      97.844,28.202
      97.882,27.562
      97.919,26.918
      97.957,26.269
      97.995,25.618
      98.033,24.963
      98.070,24.306
      98.108,23.647
      98.146,22.986
      98.184,22.324
      98.222,21.661
      98.259,20.997
      98.297,20.334
      98.335,19.672
      98.373,19.010
      98.410,18.350
      98.448,17.692
    " />
  </g>

  <!-- точка (1;5) -->
  <circle cx="92.308" cy="102.308" r="2.2" fill="#2d70b3" stroke="#2d70b3" stroke-width="0.6" />

  <!-- стрелка оси x поверх графика -->
  <g stroke="#111827" stroke-width="1.25">
    <line x1="169.615" y1="179.231" x2="184.615" y2="179.231" marker-end="url(#axis-arrow)" />
  </g>

  <!-- подпись -->
  <text x="92.308" y="148.462"
        font-family="Georgia, 'Times New Roman', serif"
        font-style="italic"
        font-size="13"
        fill="#2d70b3">f(x)</text>
</svg>
