<svg xmlns="http://www.w3.org/2000/svg" width="220" height="220" viewBox="0 0 220 220">
  <rect x="0" y="0" width="220" height="220" fill="white" />

  <defs>
    <marker id="axis-arrow"
            viewBox="0 0 15 8"
            refX="13" refY="4"
            markerWidth="12" markerHeight="6.4"
            orient="auto"
            markerUnits="userSpaceOnUse">
      <path d="M 3 0 L 15 4 L 3 8 L 7 4 Z" fill="black" />
    </marker>
  </defs>

  <!-- сетка: x от -4 до 7, y от -2 до 11 -->
  <g stroke="#d1d5db" stroke-width="0.5" shape-rendering="crispEdges">
    <line x1="30.769" y1="10.000" x2="30.769" y2="210.000" />
    <line x1="46.154" y1="10.000" x2="46.154" y2="210.000" />
    <line x1="61.538" y1="10.000" x2="61.538" y2="210.000" />
    <line x1="76.923" y1="10.000" x2="76.923" y2="210.000" />
    <line x1="92.308" y1="10.000" x2="92.308" y2="210.000" />
    <line x1="107.692" y1="10.000" x2="107.692" y2="210.000" />
    <line x1="123.077" y1="10.000" x2="123.077" y2="210.000" />
    <line x1="138.462" y1="10.000" x2="138.462" y2="210.000" />
    <line x1="153.846" y1="10.000" x2="153.846" y2="210.000" />
    <line x1="169.231" y1="10.000" x2="169.231" y2="210.000" />
    <line x1="15.385" y1="194.615" x2="184.615" y2="194.615" />
    <line x1="15.385" y1="179.231" x2="184.615" y2="179.231" />
    <line x1="15.385" y1="163.846" x2="184.615" y2="163.846" />
    <line x1="15.385" y1="148.462" x2="184.615" y2="148.462" />
    <line x1="15.385" y1="133.077" x2="184.615" y2="133.077" />
    <line x1="15.385" y1="117.692" x2="184.615" y2="117.692" />
    <line x1="15.385" y1="102.308" x2="184.615" y2="102.308" />
    <line x1="15.385" y1="86.923" x2="184.615" y2="86.923" />
    <line x1="15.385" y1="71.538" x2="184.615" y2="71.538" />
    <line x1="15.385" y1="56.154" x2="184.615" y2="56.154" />
    <line x1="15.385" y1="40.769" x2="184.615" y2="40.769" />
    <line x1="15.385" y1="25.385" x2="184.615" y2="25.385" />
  </g>

  <!-- оси -->
  <g stroke="#111827" stroke-width="1.25">
    <line x1="15.385" y1="179.231" x2="184.615" y2="179.231" />
    <line x1="76.923" y1="210.000" x2="76.923" y2="10.000" marker-end="url(#axis-arrow)" />
  </g>

  <!-- подписи осей и делений -->
  <g font-family="sans-serif" font-size="11" fill="#111827">
    <text x="72.923" y="192.231" text-anchor="end"
          font-size="13" font-style="italic"
          font-family="Georgia, 'Times New Roman', serif">O</text>

    <rect x="88.808" y="182.231" width="7" height="12" fill="white" />
    <text x="92.308" y="193.231" text-anchor="middle" font-size="13"
          font-family="'Times New Roman', serif"
          font-weight="300">1</text>

    <text x="68.923" y="166.846" text-anchor="end" font-size="13"
          font-family="'Times New Roman', serif"
          font-weight="300">1</text>

    <text x="181.615" y="192.231" text-anchor="start"
          font-family="Georgia, 'Times New Roman', serif"
          font-style="italic" font-size="13">x</text>

    <text x="73.923" y="13.000" text-anchor="end"
          font-family="Georgia, 'Times New Roman', serif"
          font-style="italic" font-size="13">y</text>
  </g>

  <!-- интерполяция (PCHIP) -->
  <g stroke="#2d70b3" stroke-width="1.25" fill="none"
     stroke-linecap="round" stroke-linejoin="round">
    <polyline points="
      15.385,179.041
      15.428,179.040
      15.471,179.040
      15.513,179.039
      15.556,179.038
      15.599,179.038
      15.642,179.037
      15.685,179.036
      15.728,179.036
      15.771,179.035
      15.814,179.034
      15.857,179.034
      15.900,179.033
      15.943,179.032
      15.986,179.032
      16.029,179.031
      16.072,179.030
      16.115,179.030
      16.158,179.029
      16.201,179.029
      16.244,179.028
      16.287,179.027
      16.330,179.027
      16.373,179.026
      16.416,179.025
      16.459,179.025
      16.502,179.024
      16.545,179.024
      16.587,179.023
      16.630,179.022
      16.673,179.022
      16.716,179.021
      16.759,179.020
      16.802,179.020
      16.845,179.019
      16.888,179.018
      16.931,179.018
      16.974,179.017
      17.017,179.017
      17.060,179.016
      17.103,179.015
      17.146,179.015
      17.189,179.014
      17.232,179.013
      17.275,179.013
      17.318,179.012
      17.361,179.011
      17.404,179.011
      17.447,179.010
      17.490,179.009
      17.533,179.009
      17.576,179.008
      17.618,179.007
      17.661,179.007
      17.704,179.006
      17.747,179.005
      17.790,179.005
      17.833,179.004
      17.876,179.003
      17.919,179.003
      17.962,179.002
      18.005,179.001
      18.048,179.001
      18.091,179.000
      18.134,178.999
      18.177,178.999
      18.220,178.998
      18.263,178.997
      18.306,178.997
      18.349,178.996
      18.392,178.995
      18.435,178.995
      18.478,178.994
      18.521,178.993
      18.564,178.992
      18.607,178.992
      18.649,178.991
      18.692,178.990
      18.735,178.989
      18.778,178.989
      18.821,178.988
      18.864,178.987
      18.907,178.987
      18.950,178.986
      18.993,178.985
      19.036,178.984
      19.079,178.984
      19.122,178.983
      19.165,178.982
      19.208,178.981
      19.251,178.980
      19.294,178.980
      19.337,178.979
      19.380,178.978
      19.423,178.977
      19.466,178.977
      19.509,178.976
      19.552,178.975
      19.595,178.974
      19.638,178.973
      19.680,178.973
      19.723,178.972
      19.766,178.971
      19.809,178.970
      19.852,178.969
      19.895,178.969
      19.938,178.968
      19.981,178.967
      20.024,178.966
      20.067,178.965
      20.110,178.965
      20.153,178.964
      20.196,178.963
      20.239,178.962
      20.282,178.961
      20.325,178.960
      20.368,178.960
      20.411,178.959
      20.454,178.958
      20.497,178.957
      20.540,178.956
      20.583,178.955
      20.626,178.955
      20.669,178.954
      20.712,178.953
      20.754,178.952
      20.797,178.951
      20.840,178.950
      20.883,178.949
      20.926,178.949
      20.969,178.948
      21.012,178.947
      21.055,178.946
      21.098,178.945
      21.141,178.944
      21.184,178.943
      21.227,178.942
      21.270,178.942
      21.313,178.941
      21.356,178.940
      21.399,178.939
      21.442,178.938
      21.485,178.937
      21.528,178.936
      21.571,178.935
      21.614,178.934
      21.657,178.933
      21.700,178.933
      21.743,178.932
      21.785,178.931
      21.828,178.930
      21.871,178.929
      21.914,178.928
      21.957,178.927
      22.000,178.926
      22.043,178.925
      22.086,178.924
      22.129,178.923
      22.172,178.922
      22.215,178.921
      22.258,178.920
      22.301,178.920
      22.344,178.919
      22.387,178.918
      22.430,178.917
      22.473,178.916
      22.516,178.915
      22.559,178.914
      22.602,178.913
      22.645,178.912
      22.688,178.911
      22.731,178.910
      22.774,178.909
      22.816,178.908
      22.859,178.907
      22.902,178.906
      22.945,178.905
      22.988,178.904
      23.031,178.903
      23.074,178.902
      23.117,178.901
      23.160,178.900
      23.203,178.899
      23.246,178.898
      23.289,178.897
      23.332,178.896
      23.375,178.895
      23.418,178.894
      23.461,178.893
      23.504,178.892
      23.547,178.891
      23.590,178.890
      23.633,178.888
      23.676,178.887
      23.719,178.886
      23.762,178.885
      23.805,178.884
      23.847,178.883
      23.890,178.882
      23.933,178.881
      23.976,178.880
      24.019,178.879
      24.062,178.878
      24.105,178.877
      24.148,178.876
      24.191,178.875
      24.234,178.873
      24.277,178.872
      24.320,178.871
      24.363,178.870
      24.406,178.869
      24.449,178.868
      24.492,178.867
      24.535,178.866
      24.578,178.865
      24.621,178.863
      24.664,178.862
      24.707,178.861
      24.750,178.860
      24.793,178.859
      24.836,178.858
      24.879,178.857
      24.921,178.855
      24.964,178.854
      25.007,178.853
      25.050,178.852
      25.093,178.851
      25.136,178.850
      25.179,178.848
      25.222,178.847
      25.265,178.846
      25.308,178.845
      25.351,178.844
      25.394,178.843
      25.437,178.841
      25.480,178.840
      25.523,178.839
      25.566,178.838
      25.609,178.837
      25.652,178.835
      25.695,178.834
      25.738,178.833
      25.781,178.832
      25.824,178.831
      25.867,178.829
      25.910,178.828
      25.952,178.827
      25.995,178.826
      26.038,178.824
      26.081,178.823
      26.124,178.822
      26.167,178.821
      26.210,178.819
      26.253,178.818
      26.296,178.817
      26.339,178.816
      26.382,178.814
      26.425,178.813
      26.468,178.812
      26.511,178.810
      26.554,178.809
      26.597,178.808
      26.640,178.807
      26.683,178.805
      26.726,178.804
      26.769,178.803
      26.812,178.801
      26.855,178.800
      26.898,178.799
      26.941,178.797
      26.983,178.796
      27.026,178.795
      27.069,178.793
      27.112,178.792
      27.155,178.791
      27.198,178.789
      27.241,178.788
      27.284,178.786
      27.327,178.785
      27.370,178.784
      27.413,178.782
      27.456,178.781
      27.499,178.780
      27.542,178.778
      27.585,178.777
      27.628,178.775
      27.671,178.774
      27.714,178.773
      27.757,178.771
      27.800,178.770
      27.843,178.768
      27.886,178.767
      27.929,178.766
      27.972,178.764
      28.014,178.763
      28.057,178.761
      28.100,178.760
      28.143,178.758
      28.186,178.757
      28.229,178.755
      28.272,178.754
      28.315,178.753
      28.358,178.751
      28.401,178.750
      28.444,178.748
      28.487,178.747
      28.530,178.745
      28.573,178.744
      28.616,178.742
      28.659,178.741
      28.702,178.739
      28.745,178.738
      28.788,178.736
      28.831,178.735
      28.874,178.733
      28.917,178.732
      28.960,178.730
      29.003,178.728
      29.046,178.727
      29.088,178.725
      29.131,178.724
      29.174,178.722
      29.217,178.721
      29.260,178.719
      29.303,178.718
      29.346,178.716
      29.389,178.714
      29.432,178.713
      29.475,178.711
      29.518,178.710
      29.561,178.708
      29.604,178.707
      29.647,178.705
      29.690,178.703
      29.733,178.702
      29.776,178.700
      29.819,178.698
      29.862,178.697
      29.905,178.695
      29.948,178.693
      29.991,178.692
      30.034,178.690
      30.077,178.689
      30.119,178.687
      30.162,178.685
      30.205,178.683
      30.248,178.682
      30.291,178.680
      30.334,178.678
      30.377,178.677
      30.420,178.675
      30.463,178.673
      30.506,178.672
      30.549,178.670
      30.592,178.668
      30.635,178.666
      30.678,178.665
      30.721,178.663
      30.764,178.661
      30.807,178.659
      30.850,178.658
      30.893,178.656
      30.936,178.654
      30.979,178.652
      31.022,178.651
      31.065,178.649
      31.108,178.647
      31.150,178.645
      31.193,178.643
      31.236,178.642
      31.279,178.640
      31.322,178.638
      31.365,178.636
      31.408,178.634
      31.451,178.632
      31.494,178.631
      31.537,178.629
      31.580,178.627
      31.623,178.625
      31.666,178.623
      31.709,178.621
      31.752,178.619
      31.795,178.618
      31.838,178.616
      31.881,178.614
      31.924,178.612
      31.967,178.610
      32.010,178.608
      32.053,178.606
      32.096,178.604
      32.139,178.602
      32.182,178.600
      32.224,178.599
      32.267,178.597
      32.310,178.595
      32.353,178.593
      32.396,178.591
      32.439,178.589
      32.482,178.587
      32.525,178.585
      32.568,178.583
      32.611,178.581
      32.654,178.579
      32.697,178.577
      32.740,178.575
      32.783,178.573
      32.826,178.571
      32.869,178.569
      32.912,178.567
      32.955,178.565
      32.998,178.563
      33.041,178.561
      33.084,178.559
      33.127,178.557
      33.170,178.554
      33.213,178.552
      33.255,178.550
      33.298,178.548
      33.341,178.546
      33.384,178.544
      33.427,178.542
      33.470,178.540
      33.513,178.538
      33.556,178.536
      33.599,178.533
      33.642,178.531
      33.685,178.529
      33.728,178.527
      33.771,178.525
      33.814,178.523
      33.857,178.520
      33.900,178.518
      33.943,178.516
      33.986,178.514
      34.029,178.512
      34.072,178.509
      34.115,178.507
      34.158,178.505
      34.201,178.503
      34.244,178.500
      34.286,178.498
      34.329,178.496
      34.372,178.494
      34.415,178.491
      34.458,178.489
      34.501,178.487
      34.544,178.485
      34.587,178.482
      34.630,178.480
      34.673,178.478
      34.716,178.475
      34.759,178.473
      34.802,178.471
      34.845,178.468
      34.888,178.466
      34.931,178.464
      34.974,178.461
      35.017,178.459
      35.060,178.457
      35.103,178.454
      35.146,178.452
      35.189,178.449
      35.232,178.447
      35.275,178.445
      35.317,178.442
      35.360,178.440
      35.403,178.437
      35.446,178.435
      35.489,178.432
      35.532,178.430
      35.575,178.428
      35.618,178.425
      35.661,178.423
      35.704,178.420
      35.747,178.418
      35.790,178.415
      35.833,178.413
      35.876,178.410
      35.919,178.408
      35.962,178.405
      36.005,178.403
      36.048,178.400
      36.091,178.398
      36.134,178.395
      36.177,178.392
      36.220,178.390
      36.263,178.387
      36.306,178.385
      36.349,178.382
      36.391,178.380
      36.434,178.377
      36.477,178.374
      36.520,178.372
      36.563,178.369
      36.606,178.366
      36.649,178.364
      36.692,178.361
      36.735,178.358
      36.778,178.356
      36.821,178.353
      36.864,178.350
      36.907,178.348
      36.950,178.345
      36.993,178.342
      37.036,178.339
      37.079,178.337
      37.122,178.334
      37.165,178.331
      37.208,178.328
      37.251,178.326
      37.294,178.323
      37.337,178.320
      37.380,178.317
      37.422,178.314
      37.465,178.312
      37.508,178.309
      37.551,178.306
      37.594,178.303
      37.637,178.300
      37.680,178.297
      37.723,178.294
      37.766,178.292
      37.809,178.289
      37.852,178.286
      37.895,178.283
      37.938,178.280
      37.981,178.277
      38.024,178.274
      38.067,178.271
      38.110,178.268
      38.153,178.265
      38.196,178.262
      38.239,178.259
      38.282,178.256
      38.325,178.253
      38.368,178.250
      38.411,178.247
      38.453,178.244
      38.496,178.241
      38.539,178.238
      38.582,178.235
      38.625,178.232
      38.668,178.229
      38.711,178.226
      38.754,178.223
      38.797,178.220
      38.840,178.217
      38.883,178.214
      38.926,178.210
      38.969,178.207
      39.012,178.204
      39.055,178.201
      39.098,178.198
      39.141,178.195
      39.184,178.192
      39.227,178.188
      39.270,178.185
      39.313,178.182
      39.356,178.179
      39.399,178.176
      39.442,178.172
      39.484,178.169
      39.527,178.166
      39.570,178.163
      39.613,178.159
      39.656,178.156
      39.699,178.153
      39.742,178.149
      39.785,178.146
      39.828,178.143
      39.871,178.139
      39.914,178.136
      39.957,178.133
      40.000,178.129
      40.043,178.126
      40.086,178.123
      40.129,178.119
      40.172,178.116
      40.215,178.112
      40.258,178.109
      40.301,178.105
      40.344,178.102
      40.387,178.098
      40.430,178.095
      40.473,178.092
      40.516,178.088
      40.558,178.084
      40.601,178.081
      40.644,178.077
      40.687,178.074
      40.730,178.070
      40.773,178.067
      40.816,178.063
      40.859,178.060
      40.902,178.056
      40.945,178.052
      40.988,178.049
      41.031,178.045
      41.074,178.041
      41.117,178.038
      41.160,178.034
      41.203,178.030
      41.246,178.027
      41.289,178.023
      41.332,178.019
      41.375,178.016
      41.418,178.012
      41.461,178.008
      41.504,178.004
      41.547,178.000
      41.589,177.997
      41.632,177.993
      41.675,177.989
      41.718,177.985
      41.761,177.981
      41.804,177.978
      41.847,177.974
      41.890,177.970
      41.933,177.966
      41.976,177.962
      42.019,177.958
      42.062,177.954
      42.105,177.950
      42.148,177.946
      42.191,177.943
      42.234,177.939
      42.277,177.935
      42.320,177.931
      42.363,177.927
      42.406,177.923
      42.449,177.919
      42.492,177.915
      42.535,177.911
      42.578,177.907
      42.620,177.903
      42.663,177.898
      42.706,177.894
      42.749,177.890
      42.792,177.886
      42.835,177.882
      42.878,177.878
      42.921,177.874
      42.964,177.870
      43.007,177.865
      43.050,177.861
      43.093,177.857
      43.136,177.853
      43.179,177.849
      43.222,177.844
      43.265,177.840
      43.308,177.836
      43.351,177.831
      43.394,177.827
      43.437,177.823
      43.480,177.818
      43.523,177.814
      43.566,177.810
      43.609,177.805
      43.651,177.801
      43.694,177.796
      43.737,177.792
      43.780,177.787
      43.823,177.783
      43.866,177.779
      43.909,177.774
      43.952,177.769
      43.995,177.765
      44.038,177.760
      44.081,177.756
      44.124,177.751
      44.167,177.747
      44.210,177.742
      44.253,177.737
      44.296,177.733
      44.339,177.728
      44.382,177.724
      44.425,177.719
      44.468,177.714
      44.511,177.710
      44.554,177.705
      44.597,177.700
      44.640,177.695
      44.683,177.691
      44.725,177.686
      44.768,177.681
      44.811,177.676
      44.854,177.672
      44.897,177.667
      44.940,177.662
      44.983,177.657
      45.026,177.652
      45.069,177.647
      45.112,177.643
      45.155,177.638
      45.198,177.633
      45.241,177.628
      45.284,177.623
      45.327,177.618
      45.370,177.613
      45.413,177.608
      45.456,177.603
      45.499,177.598
      45.542,177.593
      45.585,177.588
      45.628,177.583
      45.671,177.578
      45.714,177.573
      45.756,177.568
      45.799,177.563
      45.842,177.558
      45.885,177.553
      45.928,177.548
      45.971,177.543
      46.014,177.538
      46.057,177.533
      46.100,177.528
      46.143,177.523
      46.186,177.518
      46.229,177.512
      46.272,177.507
      46.315,177.502
      46.358,177.497
      46.401,177.491
      46.444,177.486
      46.487,177.481
      46.530,177.475
      46.573,177.470
      46.616,177.465
      46.659,177.459
      46.702,177.454
      46.745,177.448
      46.787,177.443
      46.830,177.437
      46.873,177.432
      46.916,177.426
      46.959,177.421
      47.002,177.415
      47.045,177.409
      47.088,177.404
      47.131,177.398
      47.174,177.393
      47.217,177.387
      47.260,177.381
      47.303,177.375
      47.346,177.370
      47.389,177.364
      47.432,177.358
      47.475,177.352
      47.518,177.347
      47.561,177.341
      47.604,177.335
      47.647,177.329
      47.690,177.323
      47.733,177.317
      47.776,177.312
      47.818,177.306
      47.861,177.300
      47.904,177.294
      47.947,177.288
      47.990,177.282
      48.033,177.276
      48.076,177.270
      48.119,177.264
      48.162,177.258
      48.205,177.252
      48.248,177.246
      48.291,177.240
      48.334,177.233
      48.377,177.227
      48.420,177.221
      48.463,177.215
      48.506,177.209
      48.549,177.203
      48.592,177.196
      48.635,177.190
      48.678,177.184
      48.721,177.177
      48.764,177.171
      48.807,177.165
      48.850,177.158
      48.892,177.152
      48.935,177.146
      48.978,177.139
      49.021,177.133
      49.064,177.126
      49.107,177.120
      49.150,177.114
      49.193,177.107
      49.236,177.100
      49.279,177.094
      49.322,177.087
      49.365,177.081
      49.408,177.074
      49.451,177.068
      49.494,177.061
      49.537,177.054
      49.580,177.048
      49.623,177.041
      49.666,177.034
      49.709,177.027
      49.752,177.021
      49.795,177.014
      49.838,177.007
      49.881,177.000
      49.923,176.993
      49.966,176.986
      50.009,176.980
      50.052,176.973
      50.095,176.966
      50.138,176.959
      50.181,176.952
      50.224,176.945
      50.267,176.938
      50.310,176.931
      50.353,176.924
      50.396,176.917
      50.439,176.909
      50.482,176.902
      50.525,176.895
      50.568,176.888
      50.611,176.881
      50.654,176.874
      50.697,176.866
      50.740,176.859
      50.783,176.852
      50.826,176.844
      50.869,176.837
      50.912,176.830
      50.954,176.822
      50.997,176.815
      51.040,176.808
      51.083,176.800
      51.126,176.793
      51.169,176.785
      51.212,176.778
      51.255,176.770
      51.298,176.763
      51.341,176.755
      51.384,176.747
      51.427,176.740
      51.470,176.732
      51.513,176.724
      51.556,176.717
      51.599,176.709
      51.642,176.701
      51.685,176.693
      51.728,176.686
      51.771,176.678
      51.814,176.670
      51.857,176.662
      51.900,176.654
      51.943,176.646
      51.986,176.638
      52.028,176.630
      52.071,176.622
      52.114,176.614
      52.157,176.606
      52.200,176.598
      52.243,176.590
      52.286,176.582
      52.329,176.574
      52.372,176.566
      52.415,176.558
      52.458,176.549
      52.501,176.541
      52.544,176.533
      52.587,176.525
      52.630,176.516
      52.673,176.508
      52.716,176.500
      52.759,176.491
      52.802,176.483
      52.845,176.474
      52.888,176.466
      52.931,176.457
      52.974,176.449
      53.017,176.440
      53.059,176.432
      53.102,176.423
      53.145,176.415
      53.188,176.406
      53.231,176.397
      53.274,176.388
      53.317,176.380
      53.360,176.371
      53.403,176.362
      53.446,176.353
      53.489,176.345
      53.532,176.336
      53.575,176.327
      53.618,176.318
      53.661,176.309
      53.704,176.300
      53.747,176.291
      53.790,176.282
      53.833,176.273
      53.876,176.264
      53.919,176.255
      53.962,176.245
      54.005,176.236
      54.048,176.227
      54.090,176.218
      54.133,176.209
      54.176,176.199
      54.219,176.190
      54.262,176.181
      54.305,176.171
      54.348,176.162
      54.391,176.153
      54.434,176.143
      54.477,176.134
      54.520,176.124
      54.563,176.115
      54.606,176.105
      54.649,176.095
      54.692,176.086
      54.735,176.076
      54.778,176.066
      54.821,176.057
      54.864,176.047
      54.907,176.037
      54.950,176.027
      54.993,176.017
      55.036,176.008
      55.079,175.998
      55.121,175.988
      55.164,175.978
      55.207,175.968
      55.250,175.958
      55.293,175.948
      55.336,175.938
      55.379,175.927
      55.422,175.917
      55.465,175.907
      55.508,175.897
      55.551,175.887
      55.594,175.876
      55.637,175.866
      55.680,175.856
      55.723,175.845
      55.766,175.835
      55.809,175.825
      55.852,175.814
      55.895,175.804
      55.938,175.793
      55.981,175.783
      56.024,175.772
      56.067,175.761
      56.110,175.751
      56.153,175.740
      56.195,175.729
      56.238,175.719
      56.281,175.708
      56.324,175.697
      56.367,175.686
      56.410,175.675
      56.453,175.664
      56.496,175.653
      56.539,175.642
      56.582,175.631
      56.625,175.620
      56.668,175.609
      56.711,175.598
      56.754,175.587
      56.797,175.576
      56.840,175.564
      56.883,175.553
      56.926,175.542
      56.969,175.530
      57.012,175.519
      57.055,175.508
      57.098,175.496
      57.141,175.485
      57.184,175.473
      57.226,175.462
      57.269,175.450
      57.312,175.439
      57.355,175.427
      57.398,175.415
      57.441,175.404
      57.484,175.392
      57.527,175.380
      57.570,175.368
      57.613,175.356
      57.656,175.344
      57.699,175.332
      57.742,175.320
      57.785,175.308
      57.828,175.296
      57.871,175.284
      57.914,175.272
      57.957,175.260
      58.000,175.248
      58.043,175.236
      58.086,175.223
      58.129,175.211
      58.172,175.199
      58.215,175.186
      58.257,175.174
      58.300,175.161
      58.343,175.149
      58.386,175.136
      58.429,175.124
      58.472,175.111
      58.515,175.098
      58.558,175.086
      58.601,175.073
      58.644,175.060
      58.687,175.047
      58.730,175.034
      58.773,175.022
      58.816,175.009
      58.859,174.996
      58.902,174.983
      58.945,174.970
      58.988,174.956
      59.031,174.943
      59.074,174.930
      59.117,174.917
      59.160,174.904
      59.203,174.890
      59.246,174.877
      59.288,174.864
      59.331,174.850
      59.374,174.837
      59.417,174.823
      59.460,174.810
      59.503,174.796
      59.546,174.782
      59.589,174.769
      59.632,174.755
      59.675,174.741
      59.718,174.727
      59.761,174.714
      59.804,174.700
      59.847,174.686
      59.890,174.672
      59.933,174.658
      59.976,174.644
      60.019,174.630
      60.062,174.615
      60.105,174.601
      60.148,174.587
      60.191,174.573
      60.234,174.558
      60.277,174.544
      60.320,174.530
      60.362,174.515
      60.405,174.501
      60.448,174.486
      60.491,174.472
      60.534,174.457
      60.577,174.442
      60.620,174.428
      60.663,174.413
      60.706,174.398
      60.749,174.383
      60.792,174.368
      60.835,174.353
      60.878,174.338
      60.921,174.323
      60.964,174.308
      61.007,174.293
      61.050,174.278
      61.093,174.263
      61.136,174.247
      61.179,174.232
      61.222,174.217
      61.265,174.201
      61.308,174.186
      61.351,174.170
      61.393,174.155
      61.436,174.139
      61.479,174.123
      61.522,174.107
      61.565,174.092
      61.608,174.076
      61.651,174.060
      61.694,174.044
      61.737,174.028
      61.780,174.012
      61.823,173.996
      61.866,173.980
      61.909,173.964
      61.952,173.948
      61.995,173.931
      62.038,173.915
      62.081,173.899
      62.124,173.882
      62.167,173.866
      62.210,173.850
      62.253,173.833
      62.296,173.816
      62.339,173.800
      62.382,173.783
      62.424,173.766
      62.467,173.749
      62.510,173.733
      62.553,173.716
      62.596,173.699
      62.639,173.682
      62.682,173.665
      62.725,173.647
      62.768,173.630
      62.811,173.613
      62.854,173.596
      62.897,173.578
      62.940,173.561
      62.983,173.543
      63.026,173.526
      63.069,173.508
      63.112,173.491
      63.155,173.473
      63.198,173.455
      63.241,173.438
      63.284,173.420
      63.327,173.402
      63.370,173.384
      63.413,173.366
      63.455,173.348
      63.498,173.330
      63.541,173.312
      63.584,173.293
      63.627,173.275
      63.670,173.257
      63.713,173.239
      63.756,173.220
      63.799,173.202
      63.842,173.183
      63.885,173.164
      63.928,173.146
      63.971,173.127
      64.014,173.108
      64.057,173.089
      64.100,173.070
      64.143,173.052
      64.186,173.032
      64.229,173.013
      64.272,172.994
      64.315,172.975
      64.358,172.956
      64.401,172.936
      64.444,172.917
      64.487,172.898
      64.529,172.878
      64.572,172.859
      64.615,172.839
      64.658,172.819
      64.701,172.800
      64.744,172.780
      64.787,172.760
      64.830,172.740
      64.873,172.720
      64.916,172.700
      64.959,172.680
      65.002,172.660
      65.045,172.639
      65.088,172.619
      65.131,172.599
      65.174,172.578
      65.217,172.558
      65.260,172.537
      65.303,172.517
      65.346,172.496
      65.389,172.475
      65.432,172.455
      65.475,172.434
      65.518,172.413
      65.560,172.392
      65.603,172.371
      65.646,172.350
      65.689,172.329
      65.732,172.307
      65.775,172.286
      65.818,172.265
      65.861,172.243
      65.904,172.222
      65.947,172.200
      65.990,172.178
      66.033,172.157
      66.076,172.135
      66.119,172.113
      66.162,172.091
      66.205,172.069
      66.248,172.047
      66.291,172.025
      66.334,172.003
      66.377,171.980
      66.420,171.958
      66.463,171.936
      66.506,171.913
      66.549,171.891
      66.591,171.868
      66.634,171.845
      66.677,171.823
      66.720,171.800
      66.763,171.777
      66.806,171.754
      66.849,171.731
      66.892,171.708
      66.935,171.685
      66.978,171.662
      67.021,171.638
      67.064,171.615
      67.107,171.591
      67.150,171.568
      67.193,171.544
      67.236,171.521
      67.279,171.497
      67.322,171.473
      67.365,171.449
      67.408,171.425
      67.451,171.401
      67.494,171.377
      67.537,171.353
      67.580,171.329
      67.622,171.304
      67.665,171.280
      67.708,171.255
      67.751,171.231
      67.794,171.206
      67.837,171.181
      67.880,171.157
      67.923,171.132
      67.966,171.107
      68.009,171.082
      68.052,171.057
      68.095,171.031
      68.138,171.006
      68.181,170.981
      68.224,170.956
      68.267,170.930
      68.310,170.904
      68.353,170.879
      68.396,170.853
      68.439,170.827
      68.482,170.802
      68.525,170.776
      68.568,170.750
      68.611,170.723
      68.654,170.697
      68.696,170.671
      68.739,170.645
      68.782,170.618
      68.825,170.592
      68.868,170.565
      68.911,170.538
      68.954,170.512
      68.997,170.485
      69.040,170.458
      69.083,170.431
      69.126,170.404
      69.169,170.376
      69.212,170.349
      69.255,170.322
      69.298,170.294
      69.341,170.267
      69.384,170.239
      69.427,170.211
      69.470,170.184
      69.513,170.156
      69.556,170.128
      69.599,170.100
      69.642,170.072
      69.685,170.043
      69.727,170.015
      69.770,169.987
      69.813,169.958
      69.856,169.930
      69.899,169.901
      69.942,169.872
      69.985,169.844
      70.028,169.815
      70.071,169.786
      70.114,169.757
      70.157,169.727
      70.200,169.698
      70.243,169.669
      70.286,169.639
      70.329,169.610
      70.372,169.580
      70.415,169.551
      70.458,169.521
      70.501,169.491
      70.544,169.461
      70.587,169.431
      70.630,169.400
      70.673,169.370
      70.716,169.340
      70.758,169.309
      70.801,169.279
      70.844,169.248
      70.887,169.217
      70.930,169.186
      70.973,169.155
      71.016,169.124
      71.059,169.093
      71.102,169.062
      71.145,169.031
      71.188,168.999
      71.231,168.968
      71.274,168.936
      71.317,168.904
      71.360,168.873
      71.403,168.841
      71.446,168.809
      71.489,168.777
      71.532,168.744
      71.575,168.712
      71.618,168.680
      71.661,168.647
      71.704,168.615
      71.747,168.582
      71.790,168.549
      71.832,168.516
      71.875,168.483
      71.918,168.450
      71.961,168.417
      72.004,168.384
      72.047,168.350
      72.090,168.317
      72.133,168.283
      72.176,168.249
      72.219,168.216
      72.262,168.182
      72.305,168.148
      72.348,168.113
      72.391,168.079
      72.434,168.045
      72.477,168.010
      72.520,167.976
      72.563,167.941
      72.606,167.906
      72.649,167.871
      72.692,167.836
      72.735,167.801
      72.778,167.766
      72.821,167.731
      72.863,167.695
      72.906,167.660
      72.949,167.624
      72.992,167.588
      73.035,167.553
      73.078,167.517
      73.121,167.481
      73.164,167.444
      73.207,167.408
      73.250,167.372
      73.293,167.335
      73.336,167.299
      73.379,167.262
      73.422,167.225
      73.465,167.188
      73.508,167.151
      73.551,167.114
      73.594,167.077
      73.637,167.039
      73.680,167.002
      73.723,166.964
      73.766,166.926
      73.809,166.888
      73.852,166.850
      73.894,166.812
      73.937,166.774
      73.980,166.735
      74.023,166.697
      74.066,166.658
      74.109,166.620
      74.152,166.581
      74.195,166.542
      74.238,166.503
      74.281,166.463
      74.324,166.424
      74.367,166.385
      74.410,166.345
      74.453,166.305
      74.496,166.266
      74.539,166.226
      74.582,166.186
      74.625,166.146
      74.668,166.105
      74.711,166.065
      74.754,166.024
      74.797,165.984
      74.840,165.943
      74.883,165.902
      74.925,165.861
      74.968,165.820
      75.011,165.779
      75.054,165.737
      75.097,165.696
      75.140,165.654
      75.183,165.612
      75.226,165.570
      75.269,165.528
      75.312,165.486
      75.355,165.444
      75.398,165.401
      75.441,165.359
      75.484,165.316
      75.527,165.273
      75.570,165.230
      75.613,165.187
      75.656,165.144
      75.699,165.100
      75.742,165.057
      75.785,165.013
      75.828,164.969
      75.871,164.925
      75.914,164.881
      75.957,164.837
      75.999,164.793
      76.042,164.748
      76.085,164.704
      76.128,164.659
      76.171,164.614
      76.214,164.569
      76.257,164.524
      76.300,164.479
      76.343,164.434
      76.386,164.388
      76.429,164.342
      76.472,164.297
      76.515,164.251
      76.558,164.205
      76.601,164.158
      76.644,164.112
      76.687,164.065
      76.730,164.019
      76.773,163.972
      76.816,163.925
      76.859,163.878
      76.902,163.831
      76.945,163.783
      76.988,163.736
      77.030,163.688
      77.073,163.640
      77.116,163.592
      77.159,163.544
      77.202,163.495
      77.245,163.447
      77.288,163.398
      77.331,163.350
      77.374,163.301
      77.417,163.252
      77.460,163.203
      77.503,163.153
      77.546,163.104
      77.589,163.054
      77.632,163.004
      77.675,162.954
      77.718,162.904
      77.761,162.854
      77.804,162.804
      77.847,162.753
      77.890,162.702
      77.933,162.652
      77.976,162.601
      78.019,162.549
      78.061,162.498
      78.104,162.447
      78.147,162.395
      78.190,162.343
      78.233,162.291
      78.276,162.239
      78.319,162.187
      78.362,162.134
      78.405,162.082
      78.448,162.029
      78.491,161.976
      78.534,161.923
      78.577,161.870
      78.620,161.816
      78.663,161.762
      78.706,161.709
      78.749,161.655
      78.792,161.601
      78.835,161.546
      78.878,161.492
      78.921,161.437
      78.964,161.382
      79.007,161.327
      79.050,161.272
      79.092,161.217
      79.135,161.162
      79.178,161.106
      79.221,161.050
      79.264,160.994
      79.307,160.938
      79.350,160.882
      79.393,160.825
      79.436,160.769
      79.479,160.712
      79.522,160.655
      79.565,160.598
      79.608,160.541
      79.651,160.483
      79.694,160.426
      79.737,160.368
      79.780,160.310
      79.823,160.251
      79.866,160.193
      79.909,160.134
      79.952,160.076
      79.995,160.017
      80.038,159.958
      80.081,159.898
      80.124,159.839
      80.166,159.779
      80.209,159.719
      80.252,159.659
      80.295,159.599
      80.338,159.538
      80.381,159.478
      80.424,159.417
      80.467,159.356
      80.510,159.295
      80.553,159.233
      80.596,159.172
      80.639,159.110
      80.682,159.048
      80.725,158.986
      80.768,158.924
      80.811,158.861
      80.854,158.798
      80.897,158.736
      80.940,158.673
      80.983,158.609
      81.026,158.546
      81.069,158.482
      81.112,158.418
      81.155,158.354
      81.197,158.290
      81.240,158.226
      81.283,158.161
      81.326,158.096
      81.369,158.031
      81.412,157.966
      81.455,157.901
      81.498,157.835
      81.541,157.769
      81.584,157.703
      81.627,157.637
      81.670,157.571
      81.713,157.504
      81.756,157.437
      81.799,157.370
      81.842,157.303
      81.885,157.235
      81.928,157.167
      81.971,157.099
      82.014,157.031
      82.057,156.963
      82.100,156.894
      82.143,156.826
      82.186,156.757
      82.228,156.687
      82.271,156.618
      82.314,156.548
      82.357,156.479
      82.400,156.409
      82.443,156.338
      82.486,156.268
      82.529,156.197
      82.572,156.126
      82.615,156.055
      82.658,155.984
      82.701,155.913
      82.744,155.841
      82.787,155.769
      82.830,155.697
      82.873,155.624
      82.916,155.552
      82.959,155.479
      83.002,155.406
      83.045,155.333
      83.088,155.259
      83.131,155.185
      83.174,155.111
      83.217,155.037
      83.259,154.963
      83.302,154.888
      83.345,154.813
      83.388,154.738
      83.431,154.662
      83.474,154.587
      83.517,154.511
      83.560,154.435
      83.603,154.358
      83.646,154.282
      83.689,154.205
      83.732,154.128
      83.775,154.051
      83.818,153.973
      83.861,153.895
      83.904,153.817
      83.947,153.739
      83.990,153.661
      84.033,153.582
      84.076,153.503
      84.119,153.424
      84.162,153.345
      84.205,153.265
      84.248,153.185
      84.291,153.105
      84.333,153.025
      84.376,152.944
      84.419,152.863
      84.462,152.782
      84.505,152.701
      84.548,152.619
      84.591,152.538
      84.634,152.455
      84.677,152.373
      84.720,152.290
      84.763,152.207
      84.806,152.124
      84.849,152.041
      84.892,151.957
      84.935,151.873
      84.978,151.789
      85.021,151.704
      85.064,151.620
      85.107,151.535
      85.150,151.449
      85.193,151.364
      85.236,151.278
      85.279,151.192
      85.322,151.106
      85.364,151.019
      85.407,150.932
      85.450,150.845
      85.493,150.758
      85.536,150.670
      85.579,150.582
      85.622,150.494
      85.665,150.406
      85.708,150.317
      85.751,150.228
      85.794,150.139
      85.837,150.049
      85.880,149.960
      85.923,149.870
      85.966,149.780
      86.009,149.689
      86.052,149.598
      86.095,149.507
      86.138,149.416
      86.181,149.324
      86.224,149.232
      86.267,149.140
      86.310,149.047
      86.353,148.954
      86.395,148.861
      86.438,148.767
      86.481,148.674
      86.524,148.580
      86.567,148.485
      86.610,148.390
      86.653,148.296
      86.696,148.200
      86.739,148.105
      86.782,148.009
      86.825,147.913
      86.868,147.816
      86.911,147.720
      86.954,147.623
      86.997,147.525
      87.040,147.428
      87.083,147.330
      87.126,147.232
      87.169,147.133
      87.212,147.034
      87.255,146.935
      87.298,146.836
      87.341,146.736
      87.384,146.636
      87.426,146.536
      87.469,146.436
      87.512,146.335
      87.555,146.234
      87.598,146.132
      87.641,146.030
      87.684,145.928
      87.727,145.825
      87.770,145.722
      87.813,145.618
      87.856,145.514
      87.899,145.410
      87.942,145.305
      87.985,145.200
      88.028,145.094
      88.071,144.989
      88.114,144.883
      88.157,144.776
      88.200,144.669
      88.243,144.562
      88.286,144.455
      88.329,144.347
      88.372,144.240
      88.415,144.131
      88.458,144.023
      88.500,143.914
      88.543,143.805
      88.586,143.696
      88.629,143.587
      88.672,143.478
      88.715,143.368
      88.758,143.258
      88.801,143.148
      88.844,143.038
      88.887,142.927
      88.930,142.817
      88.973,142.706
      89.016,142.595
      89.059,142.484
      89.102,142.373
      89.145,142.262
      89.188,142.151
      89.231,142.039
      89.274,141.928
      89.317,141.817
      89.360,141.705
      89.403,141.594
      89.446,141.482
      89.489,141.370
      89.531,141.258
      89.574,141.146
      89.617,141.034
      89.660,140.921
      89.703,140.808
      89.746,140.695
      89.789,140.582
      89.832,140.468
      89.875,140.354
      89.918,140.240
      89.961,140.125
      90.004,140.010
      90.047,139.895
      90.090,139.779
      90.133,139.663
      90.176,139.547
      90.219,139.430
      90.262,139.312
      90.305,139.194
      90.348,139.075
      90.391,138.956
      90.434,138.837
      90.477,138.717
      90.520,138.596
      90.562,138.475
      90.605,138.353
      90.648,138.230
      90.691,138.107
      90.734,137.983
      90.777,137.858
      90.820,137.733
      90.863,137.608
      90.906,137.482
      90.949,137.356
      90.992,137.229
      91.035,137.101
      91.078,136.973
      91.121,136.845
      91.164,136.715
      91.207,136.586
      91.250,136.456
      91.293,136.325
      91.336,136.194
      91.379,136.062
      91.422,135.930
      91.465,135.797
      91.508,135.664
      91.551,135.530
      91.594,135.396
      91.636,135.261
      91.679,135.125
      91.722,134.989
      91.765,134.852
      91.808,134.715
      91.851,134.577
      91.894,134.439
      91.937,134.300
      91.980,134.160
      92.023,134.020
      92.066,133.879
      92.109,133.738
      92.152,133.596
      92.195,133.454
      92.238,133.311
      92.281,133.167
      92.324,133.023
      92.367,132.878
      92.410,132.733
      92.453,132.588
      92.496,132.442
      92.539,132.296
      92.582,132.150
      92.625,132.003
      92.667,131.856
      92.710,131.708
      92.753,131.560
      92.796,131.412
      92.839,131.263
      92.882,131.114
      92.925,130.965
      92.968,130.815
      93.011,130.665
      93.054,130.515
      93.097,130.364
      93.140,130.212
      93.183,130.061
      93.226,129.909
      93.269,129.756
      93.312,129.603
      93.355,129.450
      93.398,129.296
      93.441,129.142
      93.484,128.988
      93.527,128.833
      93.570,128.678
      93.613,128.522
      93.656,128.366
      93.698,128.210
      93.741,128.053
      93.784,127.895
      93.827,127.738
      93.870,127.580
      93.913,127.421
      93.956,127.262
      93.999,127.103
      94.042,126.943
      94.085,126.782
      94.128,126.622
      94.171,126.460
      94.214,126.299
      94.257,126.137
      94.300,125.974
      94.343,125.811
      94.386,125.648
      94.429,125.484
      94.472,125.320
      94.515,125.155
      94.558,124.990
      94.601,124.824
      94.644,124.658
      94.687,124.492
      94.729,124.325
      94.772,124.157
      94.815,123.989
      94.858,123.821
      94.901,123.652
      94.944,123.483
      94.987,123.313
      95.030,123.143
      95.073,122.972
      95.116,122.800
      95.159,122.629
      95.202,122.456
      95.245,122.284
      95.288,122.111
      95.331,121.937
      95.374,121.763
      95.417,121.588
      95.460,121.413
      95.503,121.237
      95.546,121.061
      95.589,120.884
      95.632,120.707
      95.675,120.529
      95.718,120.351
      95.761,120.172
      95.803,119.993
      95.846,119.813
      95.889,119.632
      95.932,119.450
      95.975,119.268
      96.018,119.085
      96.061,118.901
      96.104,118.716
      96.147,118.531
      96.190,118.345
      96.233,118.158
      96.276,117.971
      96.319,117.783
      96.362,117.594
      96.405,117.405
      96.448,117.215
      96.491,117.024
      96.534,116.832
      96.577,116.640
      96.620,116.447
      96.663,116.254
      96.706,116.060
      96.749,115.865
      96.792,115.669
      96.834,115.473
      96.877,115.276
      96.920,115.079
      96.963,114.881
      97.006,114.682
      97.049,114.483
      97.092,114.283
      97.135,114.083
      97.178,113.881
      97.221,113.680
      97.264,113.477
      97.307,113.274
      97.350,113.071
      97.393,112.867
      97.436,112.662
      97.479,112.456
      97.522,112.250
      97.565,112.044
      97.608,111.837
      97.651,111.629
      97.694,111.421
      97.737,111.212
      97.780,111.003
      97.823,110.793
      97.865,110.582
      97.908,110.371
      97.951,110.159
      97.994,109.947
      98.037,109.734
      98.080,109.521
      98.123,109.307
      98.166,109.093
      98.209,108.878
      98.252,108.663
      98.295,108.447
      98.338,108.231
      98.381,108.014
      98.424,107.796
      98.467,107.579
      98.510,107.360
      98.553,107.141
      98.596,106.921
      98.639,106.700
      98.682,106.478
      98.725,106.256
      98.768,106.032
      98.811,105.808
      98.854,105.583
      98.896,105.357
      98.939,105.130
      98.982,104.903
      99.025,104.674
      99.068,104.445
      99.111,104.215
      99.154,103.984
      99.197,103.753
      99.240,103.520
      99.283,103.287
      99.326,103.053
      99.369,102.819
      99.412,102.583
      99.455,102.347
      99.498,102.110
      99.541,101.872
      99.584,101.634
      99.627,101.395
      99.670,101.155
      99.713,100.914
      99.756,100.673
      99.799,100.430
      99.842,100.187
      99.885,99.944
      99.928,99.700
      99.970,99.455
      100.013,99.209
      100.056,98.962
      100.099,98.715
      100.142,98.467
      100.185,98.219
      100.228,97.970
      100.271,97.720
      100.314,97.469
      100.357,97.218
      100.400,96.966
      100.443,96.714
      100.486,96.461
      100.529,96.207
      100.572,95.952
      100.615,95.697
      100.658,95.441
      100.701,95.185
      100.744,94.928
      100.787,94.670
      100.830,94.412
      100.873,94.153
      100.916,93.892
      100.959,93.631
      101.001,93.369
      101.044,93.106
      101.087,92.842
      101.130,92.576
      101.173,92.310
      101.216,92.043
      101.259,91.776
      101.302,91.507
      101.345,91.237
      101.388,90.966
      101.431,90.695
      101.474,90.422
      101.517,90.149
      101.560,89.875
      101.603,89.600
      101.646,89.324
      101.689,89.047
      101.732,88.769
      101.775,88.490
      101.818,88.211
      101.861,87.930
      101.904,87.649
      101.947,87.367
      101.990,87.084
      102.032,86.801
      102.075,86.516
      102.118,86.231
      102.161,85.944
      102.204,85.657
      102.247,85.370
      102.290,85.081
      102.333,84.792
      102.376,84.501
      102.419,84.210
      102.462,83.919
      102.505,83.626
      102.548,83.333
      102.591,83.039
      102.634,82.744
      102.677,82.448
      102.720,82.152
      102.763,81.855
      102.806,81.557
      102.849,81.258
      102.892,80.958
      102.935,80.657
      102.978,80.354
      103.021,80.051
      103.063,79.747
      103.106,79.441
      103.149,79.135
      103.192,78.827
      103.235,78.518
      103.278,78.209
      103.321,77.898
      103.364,77.586
      103.407,77.273
      103.450,76.960
      103.493,76.645
      103.536,76.329
      103.579,76.012
      103.622,75.695
      103.665,75.376
      103.708,75.056
      103.751,74.736
      103.794,74.414
      103.837,74.091
      103.880,73.768
      103.923,73.443
      103.966,73.118
      104.009,72.792
      104.052,72.464
      104.095,72.136
      104.137,71.807
      104.180,71.477
      104.223,71.146
      104.266,70.814
      104.309,70.481
      104.352,70.148
      104.395,69.813
      104.438,69.478
      104.481,69.142
      104.524,68.805
      104.567,68.466
      104.610,68.127
      104.653,67.786
      104.696,67.444
      104.739,67.101
      104.782,66.757
      104.825,66.411
      104.868,66.065
      104.911,65.717
      104.954,65.368
      104.997,65.018
      105.040,64.667
      105.083,64.314
      105.126,63.961
      105.168,63.606
      105.211,63.250
      105.254,62.893
      105.297,62.535
      105.340,62.176
      105.383,61.816
      105.426,61.455
      105.469,61.093
      105.512,60.729
      105.555,60.365
      105.598,59.999
      105.641,59.633
      105.684,59.265
      105.727,58.896
      105.770,58.527
      105.813,58.156
      105.856,57.784
      105.899,57.412
      105.942,57.038
      105.985,56.663
      106.028,56.287
      106.071,55.911
      106.114,55.533
      106.157,55.153
      106.199,54.773
      106.242,54.391
      106.285,54.007
      106.328,53.623
      106.371,53.237
      106.414,52.849
      106.457,52.461
      106.500,52.071
      106.543,51.680
      106.586,51.288
      106.629,50.894
      106.672,50.500
      106.715,50.104
      106.758,49.706
      106.801,49.308
      106.844,48.908
      106.887,48.507
      106.930,48.105
      106.973,47.702
      107.016,47.298
      107.059,46.892
      107.102,46.486
      107.145,46.078
      107.188,45.669
      107.230,45.258
      107.273,44.847
      107.316,44.435
      107.359,44.021
      107.402,43.606
      107.445,43.191
      107.488,42.773
      107.531,42.355
      107.574,41.935
      107.617,41.513
      107.660,41.090
      107.703,40.666
      107.746,40.240
      107.789,39.813
      107.832,39.384
      107.875,38.954
      107.918,38.523
      107.961,38.090
      108.004,37.656
      108.047,37.221
      108.090,36.784
      108.133,36.346
      108.176,35.907
      108.219,35.466
      108.262,35.024
      108.304,34.580
      108.347,34.136
      108.390,33.690
      108.433,33.243
      108.476,32.794
      108.519,32.344
      108.562,31.893
      108.605,31.441
      108.648,30.988
      108.691,30.533
      108.734,30.076
      108.777,29.617
      108.820,29.154
      108.863,28.690
      108.906,28.223
      108.949,27.753
      108.992,27.282
      109.035,26.809
      109.078,26.334
      109.121,25.858
      109.164,25.380
      109.207,24.901
      109.250,24.422
      109.293,23.941
      109.335,23.460
      109.378,22.978
      109.421,22.496
      109.464,22.013
      109.507,21.531
      109.550,21.049
      109.593,20.567
      109.636,20.086
      109.679,19.605
      109.722,19.125
      109.765,18.646
      109.808,18.169
      109.851,17.692
    " />
  </g>

  <!-- точка (1;3) -->
  <circle cx="92.308" cy="133.077" r="2.2" fill="#2d70b3" stroke="#2d70b3" stroke-width="0.6" />

  <!-- стрелка оси x поверх графика -->
  <g stroke="#111827" stroke-width="1.25">
    <line x1="169.615" y1="179.231" x2="184.615" y2="179.231" marker-end="url(#axis-arrow)" />
  </g>

  <!-- подпись -->
  <text x="107.692" y="117.692"
        font-family="Georgia, 'Times New Roman', serif"
        font-style="italic"
        font-size="13"
        fill="#2d70b3">f(x)</text>
</svg>
