<svg xmlns="http://www.w3.org/2000/svg" width="220" height="220" viewBox="0 0 220 220">
  <rect x="0" y="0" width="220" height="220" fill="white" />

  <defs>
    <marker id="axis-arrow"
            viewBox="0 0 15 8"
            refX="13" refY="4"
            markerWidth="12" markerHeight="6.4"
            orient="auto"
            markerUnits="userSpaceOnUse">
      <path d="M 3 0 L 15 4 L 3 8 L 7 4 Z" fill="black" />
    </marker>
  </defs>

  <!-- сетка: x от -4 до 7, y от -2 до 11 -->
  <g stroke="#d1d5db" stroke-width="0.5" shape-rendering="crispEdges">
    <line x1="30.769" y1="10.000" x2="30.769" y2="210.000" />
    <line x1="46.154" y1="10.000" x2="46.154" y2="210.000" />
    <line x1="61.538" y1="10.000" x2="61.538" y2="210.000" />
    <line x1="76.923" y1="10.000" x2="76.923" y2="210.000" />
    <line x1="92.308" y1="10.000" x2="92.308" y2="210.000" />
    <line x1="107.692" y1="10.000" x2="107.692" y2="210.000" />
    <line x1="123.077" y1="10.000" x2="123.077" y2="210.000" />
    <line x1="138.462" y1="10.000" x2="138.462" y2="210.000" />
    <line x1="153.846" y1="10.000" x2="153.846" y2="210.000" />
    <line x1="169.231" y1="10.000" x2="169.231" y2="210.000" />
    <line x1="15.385" y1="194.615" x2="184.615" y2="194.615" />
    <line x1="15.385" y1="179.231" x2="184.615" y2="179.231" />
    <line x1="15.385" y1="163.846" x2="184.615" y2="163.846" />
    <line x1="15.385" y1="148.462" x2="184.615" y2="148.462" />
    <line x1="15.385" y1="133.077" x2="184.615" y2="133.077" />
    <line x1="15.385" y1="117.692" x2="184.615" y2="117.692" />
    <line x1="15.385" y1="102.308" x2="184.615" y2="102.308" />
    <line x1="15.385" y1="86.923" x2="184.615" y2="86.923" />
    <line x1="15.385" y1="71.538" x2="184.615" y2="71.538" />
    <line x1="15.385" y1="56.154" x2="184.615" y2="56.154" />
    <line x1="15.385" y1="40.769" x2="184.615" y2="40.769" />
    <line x1="15.385" y1="25.385" x2="184.615" y2="25.385" />
  </g>

  <!-- оси -->
  <g stroke="#111827" stroke-width="1.25">
    <line x1="15.385" y1="179.231" x2="184.615" y2="179.231" />
    <line x1="76.923" y1="210.000" x2="76.923" y2="10.000" marker-end="url(#axis-arrow)" />
  </g>

  <!-- подписи осей и делений -->
  <g font-family="sans-serif" font-size="11" fill="#111827">
    <text x="72.923" y="192.231" text-anchor="end"
          font-size="13" font-style="italic"
          font-family="Georgia, 'Times New Roman', serif">O</text>

    <rect x="88.808" y="182.231" width="7" height="12" fill="white" />
    <text x="92.308" y="193.231" text-anchor="middle" font-size="13"
          font-family="'Times New Roman', serif"
          font-weight="300">1</text>

    <text x="68.923" y="166.846" text-anchor="end" font-size="13"
          font-family="'Times New Roman', serif"
          font-weight="300">1</text>

    <text x="181.615" y="192.231" text-anchor="start"
          font-family="Georgia, 'Times New Roman', serif"
          font-style="italic" font-size="13">x</text>

    <text x="73.923" y="13.000" text-anchor="end"
          font-family="Georgia, 'Times New Roman', serif"
          font-style="italic" font-size="13">y</text>
  </g>

  <!-- линейная интерполяция -->
  <g stroke="#2d70b3" stroke-width="1.25" fill="none"
     stroke-linecap="round" stroke-linejoin="round">
    <polyline points="
      15.385,179.227
      18.803,179.225
      22.222,179.221
      25.641,179.216
      29.060,179.207
      32.479,179.193
      35.897,179.171
      39.316,179.135
      42.735,179.079
      46.154,178.990
      46.154,178.990
      49.573,178.849
      52.991,178.625
      56.410,178.269
      59.829,177.704
      63.248,176.808
      66.667,175.385
      70.085,173.125
      73.504,169.539
      76.923,163.846
      76.923,163.846
      79.020,158.806
      80.651,153.767
      81.990,148.727
      83.127,143.687
      84.116,138.647
      84.994,133.607
      85.784,128.568
      86.501,123.528
      87.157,118.488
      87.758,113.448
      88.313,108.408
      88.825,103.369
      89.298,98.329
      89.736,93.289
      90.142,88.249
      90.517,83.210
      90.864,78.170
      91.184,73.130
      91.479,68.090
      91.749,63.050
      91.996,58.011
      92.317,55.995
      92.437,53.979
      92.555,51.963
      92.672,49.947
      92.786,47.931
      92.899,45.915
      93.010,43.899
      93.119,41.883
      93.227,39.867
      93.334,37.851
      93.439,35.836
      93.543,33.820
      93.645,31.804
      93.746,29.788
      93.847,27.772
      93.941,25.756
      94.037,23.740
      94.133,21.724
      94.227,19.708
      94.320,17.692
    " />
  </g>

  <!-- точка (1;8) -->
  <circle cx="92.308" cy="56.154" r="2.2" fill="#2d70b3" stroke="#2d70b3" stroke-width="0.6" />

  <!-- стрелка оси x поверх графика -->
  <g stroke="#111827" stroke-width="1.25">
    <line x1="169.615" y1="179.231" x2="184.615" y2="179.231" marker-end="url(#axis-arrow)" />
  </g>

  <!-- подпись -->
  <text x="92.308" y="133.077"
        font-family="Georgia, 'Times New Roman', serif"
        font-style="italic"
        font-size="13"
        fill="#2d70b3">f(x)</text>
</svg>
