<svg xmlns="http://www.w3.org/2000/svg" width="220" height="220" viewBox="0 0 220 220">

  <rect x="0" y="0" width="220" height="220" fill="white"></rect>

  <defs>
    <!-- стрелка для осей -->
    <marker id="axis-arrow" viewBox="0 0 15 8" refX="13" refY="4" markerWidth="12" markerHeight="6.4" orient="auto" markerUnits="userSpaceOnUse">
      <path d="M 3 0 L 15 4 L 3 8 L 7 4 Z" fill="black"></path>
    </marker>
  </defs>

  <!-- тонкая клетчатая сетка 10×10, без окаймления по периметру -->
  <g stroke="#d1d5db" stroke-width="0.5" shape-rendering="crispEdges">
    <!-- вертикальные линии: только внутренние -->
    <line x1="30" y1="10" x2="30" y2="210"></line>
    <line x1="50" y1="10" x2="50" y2="210"></line>
    <line x1="70" y1="10" x2="70" y2="210"></line>
    <line x1="90" y1="10" x2="90" y2="210"></line>
    <line x1="110" y1="10" x2="110" y2="210"></line>
    <line x1="130" y1="10" x2="130" y2="210"></line>
    <line x1="150" y1="10" x2="150" y2="210"></line>
    <line x1="170" y1="10" x2="170" y2="210"></line>
    <line x1="190" y1="10" x2="190" y2="210"></line>

    <!-- горизонтальные линии: только внутренние -->
    <line x1="10" y1="30" x2="210" y2="30"></line>
    <line x1="10" y1="50" x2="210" y2="50"></line>
    <line x1="10" y1="70" x2="210" y2="70"></line>
    <line x1="10" y1="90" x2="210" y2="90"></line>
    <line x1="10" y1="110" x2="210" y2="110"></line>
    <line x1="10" y1="130" x2="210" y2="130"></line>
    <line x1="10" y1="150" x2="210" y2="150"></line>
    <line x1="10" y1="170" x2="210" y2="170"></line>
    <line x1="10" y1="190" x2="210" y2="190"></line>
  </g>

  <!-- оси x и y -->
  <g stroke="#111827" stroke-width="1.25">
    <line x1="10" y1="150" x2="210" y2="150" marker-end="url(#axis-arrow)"></line>
    <line x1="70" y1="210" x2="70" y2="10" marker-end="url(#axis-arrow)"></line>
  </g>

  <!-- подписи осей и делений -->
  <g font-family="sans-serif" font-size="11" fill="#111827">
    <!-- O как в исходной картинке -->
    <text x="66" y="163" text-anchor="end" font-size="13" font-style="italic" font-family="Georgia, 'Times New Roman', serif">O</text>

    <rect x="87" y="153" width="7" height="12" fill="white"></rect>
    <text x="90" y="164" text-anchor="middle" font-size="13" font-family="'Times New Roman', serif" font-weight="300">1</text>

    <text x="63" y="134" text-anchor="end" font-size="13" font-family="'Times New Roman', serif" font-weight="300">1</text>

    <text x="206" y="163" text-anchor="start" font-family="Georgia, 'Times New Roman', serif" font-style="italic" font-size="13">x</text>

    <!-- y поднята на 7 px -->
    <text x="64" y="13" text-anchor="end" font-family="Georgia, 'Times New Roman', serif" font-style="italic" font-size="13">y</text>
  </g>

  <!-- синяя прямая y = x - 1 через (0; -1) и (1; 0),
       продолженная до границ сетки: от (-2; -3) до (7; 6) -->
  <g stroke="#2d70b3" stroke-width="1.25" fill="none">
    <!-- (-2; -3) -> (30; 210), (7; 6) -> (210; 30) -->
    <line x1="30" y1="210" x2="210" y2="30"></line>
  </g>

  <!-- синие точки: (0; -1) и (1; 0) -->
  <!-- (0; -1) -> (70; 170), (1; 0) -> (90; 150) -->
  <circle cx="70" cy="170" r="2.2" fill="#2d70b3"></circle>
  <circle cx="90" cy="150" r="2.2" fill="#2d70b3"></circle>

  <!-- подпись f(x): центр отрезка (120; 120) + (10; 10) -->
  <text x="130" y="130" font-family="Georgia, 'Times New Roman', serif" font-style="italic" font-size="13" fill="#2d70b3">
    f(x)
  </text>

</svg>
