<svg xmlns="http://www.w3.org/2000/svg" width="220" height="260" viewBox="0 0 220 260">

  <rect x="0" y="0" width="220" height="260" fill="white" />

  <defs>
    <!-- стрелка для осей -->
    <marker id="axis-arrow"
            viewBox="0 0 15 8"
            refX="13" refY="4"
            markerWidth="12" markerHeight="6.4"
            orient="auto"
            markerUnits="userSpaceOnUse">
      <path d="M 3 0 L 15 4 L 3 8 L 7 4 Z"
            fill="black" />
    </marker>
  </defs>

  <!-- тонкая клетчатая сетка 10×10, без окаймления по периметру -->
  <g stroke="#d1d5db" stroke-width="0.5" shape-rendering="crispEdges">
    <!-- вертикальные линии: только внутренние -->
    <line x1="30"  y1="10" x2="30"  y2="250" />
    <line x1="50"  y1="10" x2="50"  y2="250" />
    <line x1="70"  y1="10" x2="70"  y2="250" />
    <line x1="90"  y1="10" x2="90"  y2="250" />
    <line x1="110"  y1="10" x2="110"  y2="250" />
    <line x1="130"  y1="10" x2="130"  y2="250" />
    <line x1="150"  y1="10" x2="150"  y2="250" />
    <line x1="170"  y1="10" x2="170"  y2="250" />
    <line x1="190"  y1="10" x2="190"  y2="250" />

    <!-- горизонтальные линии: только внутренние -->
    <line x1="10" y1="30" x2="210" y2="30" />
    <line x1="10" y1="50" x2="210" y2="50" />
    <line x1="10" y1="70" x2="210" y2="70" />
    <line x1="10" y1="90" x2="210" y2="90" />
    <line x1="10" y1="110" x2="210" y2="110" />
    <line x1="10" y1="130" x2="210" y2="130" />
    <line x1="10" y1="150" x2="210" y2="150" />
    <line x1="10" y1="170" x2="210" y2="170" />
    <line x1="10" y1="190" x2="210" y2="190" />
    <line x1="10" y1="210" x2="210" y2="210" />
    <line x1="10" y1="230" x2="210" y2="230" />
  </g>

  <!-- оси x и y -->
  <g stroke="#111827" stroke-width="1.25">
    <line x1="10" y1="150" x2="210" y2="150"
          marker-end="url(#axis-arrow)" />
    <line x1="70" y1="250" x2="70" y2="10"
          marker-end="url(#axis-arrow)" />
  </g>

  <!-- подписи осей и делений -->
  <g font-family="sans-serif" font-size="11" fill="#111827">
    <text x="64" y="162" text-anchor="end"
          font-size="13" font-style="italic"
          font-family="Georgia, 'Times New Roman', serif">O</text>

    <rect x="87" y="153" width="7" height="12" fill="white" />
    <text x="90" y="164" text-anchor="middle" font-size="13"
          font-family="'Times New Roman', serif"
          font-weight="300">1</text>

    <text x="61" y="134" text-anchor="end" font-size="13"
          font-family="'Times New Roman', serif"
          font-weight="300">1</text>

    <text x="206" y="163" text-anchor="start"
          font-family="Georgia, 'Times New Roman', serif"
          font-style="italic" font-size="13">x</text>

    <text x="64" y="13" text-anchor="end"
          font-family="Georgia, 'Times New Roman', serif"
          font-style="italic" font-size="13">y</text>
  </g>

  <!-- парабола y = x^2 - 4x, цвет #2d70b3 -->
  <g stroke="#2d70b3" stroke-width="1.25" fill="none"
     stroke-linecap="round" stroke-linejoin="round">
    <path d="M 43.668 10.000 L 44.068 12.645 L 44.468 15.275 L 44.868 17.888 L 45.268 20.485 L 45.668 23.066 L 46.068 25.632 L 46.468 28.181 L 46.868 30.714 L 47.268 33.232 L 47.668 35.733 L 48.068 38.218 L 48.468 40.688 L 48.868 43.141 L 49.268 45.578 L 49.668 47.999 L 50.068 50.405 L 50.468 52.794 L 50.868 55.167 L 51.268 57.525 L 51.668 59.866 L 52.068 62.191 L 52.468 64.501 L 52.868 66.794 L 53.268 69.071 L 53.668 71.332 L 54.068 73.578 L 54.468 75.807 L 54.868 78.020 L 55.268 80.218 L 55.668 82.399 L 56.068 84.564 L 56.468 86.714 L 56.868 88.847 L 57.268 90.964 L 57.668 93.065 L 58.068 95.151 L 58.468 97.220 L 58.868 99.273 L 59.268 101.311 L 59.668 103.332 L 60.068 105.337 L 60.468 107.327 L 60.868 109.300 L 61.268 111.257 L 61.668 113.198 L 62.068 115.124 L 62.468 117.033 L 62.868 118.926 L 63.268 120.804 L 63.668 122.665 L 64.068 124.510 L 64.468 126.340 L 64.868 128.153 L 65.268 129.950 L 65.668 131.731 L 66.068 133.497 L 66.468 135.246 L 66.868 136.979 L 67.268 138.697 L 67.668 140.398 L 68.068 142.083 L 68.468 143.753 L 68.868 145.406 L 69.268 147.043 L 69.668 148.664 L 70.068 150.270 L 70.468 151.859 L 70.868 153.432 L 71.268 154.990 L 71.668 156.531 L 72.068 158.056 L 72.468 159.566 L 72.868 161.059 L 73.268 162.536 L 73.668 163.997 L 74.068 165.443 L 74.468 166.872 L 74.868 168.285 L 75.268 169.683 L 75.668 171.064 L 76.068 172.429 L 76.468 173.779 L 76.868 175.112 L 77.268 176.429 L 77.668 177.730 L 78.068 179.016 L 78.468 180.285 L 78.868 181.538 L 79.268 182.776 L 79.668 183.997 L 80.068 185.202 L 80.468 186.392 L 80.868 187.565 L 81.268 188.722 L 81.668 189.863 L 82.068 190.989 L 82.468 192.098 L 82.868 193.191 L 83.268 194.269 L 83.668 195.330 L 84.068 196.375 L 84.468 197.405 L 84.868 198.418 L 85.268 199.415 L 85.668 200.396 L 86.068 201.362 L 86.468 202.311 L 86.868 203.244 L 87.268 204.162 L 87.668 205.063 L 88.068 205.948 L 88.468 206.818 L 88.868 207.671 L 89.268 208.508 L 89.668 209.329 L 90.068 210.135 L 90.468 210.924 L 90.868 211.697 L 91.268 212.455 L 91.668 213.196 L 92.068 213.921 L 92.468 214.631 L 92.868 215.324 L 93.268 216.001 L 93.668 216.662 L 94.068 217.308 L 94.468 217.937 L 94.868 218.550 L 95.268 219.148 L 95.668 219.729 L 96.068 220.294 L 96.468 220.844 L 96.868 221.377 L 97.268 221.894 L 97.668 222.395 L 98.068 222.881 L 98.468 223.350 L 98.868 223.803 L 99.268 224.241 L 99.668 224.662 L 100.068 225.067 L 100.468 225.457 L 100.868 225.830 L 101.268 226.187 L 101.668 226.528 L 102.068 226.854 L 102.468 227.163 L 102.868 227.456 L 103.268 227.734 L 103.668 227.995 L 104.068 228.240 L 104.468 228.470 L 104.868 228.683 L 105.268 228.880 L 105.668 229.061 L 106.068 229.227 L 106.468 229.376 L 106.868 229.509 L 107.268 229.627 L 107.668 229.728 L 108.068 229.813 L 108.468 229.883 L 108.868 229.936 L 109.268 229.973 L 109.668 229.994 L 110.068 230.000 L 110.468 229.989 L 110.868 229.962 L 111.268 229.920 L 111.668 229.861 L 112.068 229.786 L 112.468 229.696 L 112.868 229.589 L 113.268 229.466 L 113.668 229.327 L 114.068 229.173 L 114.468 229.002 L 114.868 228.815 L 115.268 228.613 L 115.668 228.394 L 116.068 228.159 L 116.468 227.909 L 116.868 227.642 L 117.268 227.359 L 117.668 227.060 L 118.068 226.746 L 118.468 226.415 L 118.868 226.068 L 119.268 225.706 L 119.668 225.327 L 120.068 224.932 L 120.468 224.522 L 120.868 224.095 L 121.268 223.652 L 121.668 223.193 L 122.068 222.719 L 122.468 222.228 L 122.868 221.721 L 123.268 221.199 L 123.668 220.660 L 124.068 220.105 L 124.468 219.535 L 124.868 218.948 L 125.268 218.345 L 125.668 217.726 L 126.068 217.092 L 126.468 216.441 L 126.868 215.774 L 127.268 215.092 L 127.668 214.393 L 128.068 213.678 L 128.468 212.948 L 128.868 212.201 L 129.268 211.438 L 129.668 210.659 L 130.068 209.865 L 130.468 209.054 L 130.868 208.227 L 131.268 207.385 L 131.668 206.526 L 132.068 205.651 L 132.468 204.761 L 132.868 203.854 L 133.268 202.931 L 133.668 201.992 L 134.068 201.038 L 134.468 200.067 L 134.868 199.080 L 135.268 198.078 L 135.668 197.059 L 136.068 196.024 L 136.468 194.974 L 136.868 193.907 L 137.268 192.824 L 137.668 191.725 L 138.068 190.611 L 138.468 189.480 L 138.868 188.333 L 139.268 187.171 L 139.668 185.992 L 140.068 184.797 L 140.468 183.587 L 140.868 182.360 L 141.268 181.117 L 141.668 179.858 L 142.068 178.584 L 142.468 177.293 L 142.868 175.986 L 143.268 174.664 L 143.668 173.325 L 144.068 171.970 L 144.468 170.600 L 144.868 169.213 L 145.268 167.810 L 145.668 166.391 L 146.068 164.957 L 146.468 163.506 L 146.868 162.039 L 147.268 160.557 L 147.668 159.058 L 148.068 157.543 L 148.468 156.013 L 148.868 154.466 L 149.268 152.903 L 149.668 151.324 L 150.068 149.730 L 150.468 148.119 L 150.868 146.492 L 151.268 144.850 L 151.668 143.191 L 152.068 141.516 L 152.468 139.826 L 152.868 138.119 L 153.268 136.396 L 153.668 134.657 L 154.068 132.903 L 154.468 131.132 L 154.868 129.345 L 155.268 127.543 L 155.668 125.724 L 156.068 123.889 L 156.468 122.039 L 156.868 120.172 L 157.268 118.289 L 157.668 116.390 L 158.068 114.476 L 158.468 112.545 L 158.868 110.598 L 159.268 108.636 L 159.668 106.657 L 160.068 104.662 L 160.468 102.652 L 160.868 100.625 L 161.268 98.582 L 161.668 96.523 L 162.068 94.449 L 162.468 92.358 L 162.868 90.251 L 163.268 88.129 L 163.668 85.990 L 164.068 83.835 L 164.468 81.665 L 164.868 79.478 L 165.268 77.275 L 165.668 75.056 L 166.068 72.822 L 166.468 70.571 L 166.868 68.304 L 167.268 66.022 L 167.668 63.723 L 168.068 61.408 L 168.468 59.078 L 168.868 56.731 L 169.268 54.368 L 169.668 51.989 L 170.068 49.595 L 170.468 47.184 L 170.868 44.757 L 171.268 42.315 L 171.668 39.856 L 172.068 37.381 L 172.468 34.891 L 172.868 32.384 L 173.268 29.861 L 173.668 27.322 L 174.068 24.768 L 174.468 22.197 L 174.868 19.610 L 175.268 17.008 L 175.668 14.389 L 176.068 11.754 L 176.332 10.000" />
  </g>


  <!-- точки на параболе y = x^2 - 4x (радиус 2.2) -->
  <circle cx="150" cy="150" r="2.2" fill="#2d70b3" />
  <circle cx="130" cy="210" r="2.2" fill="#2d70b3" />

  <!-- прямая y = kx, k = 6 (через (1;6)) -->
  <g stroke="#166534" stroke-width="1.25" fill="none">
    <line x1="53.333" y1="250" x2="93.333" y2="10" />
</g>
  <circle cx="90" cy="30" r="2.2" fill="#166534" />
<!-- точки на новой параболе (радиус 2.2) -->
  <circle cx="70" cy="150" r="2.2" fill="#166534" />
  
  
  <!-- точки на графиках (радиус 2.2) -->
  <!-- точки на параболе — тем же цветом, что и парабола -->
<!-- точка на прямой: (1; 4) -->
<!-- подписи y = f(x), y = g(x) -->
  <text x="172" y="110"
        font-family="Georgia, 'Times New Roman', serif"
        font-style="italic"
        font-size="13"
        fill="#2d70b3">
    f(x)
  </text>

  <text x="26" y="190"
        font-family="Georgia, 'Times New Roman', serif"
        font-style="italic"
        font-size="13"
        fill="#166534">
    g(x)
  </text>

  <!-- точка A -->
  <text x="78" y="145"
        font-family="Georgia, 'Times New Roman', serif"
        font-size="13"
        fill="#166534">
    A
  </text>

</svg>
