<svg xmlns="http://www.w3.org/2000/svg" width="220" height="220" viewBox="0 0 220 220">

  <rect x="0" y="0" width="220" height="220" fill="white" />

  <defs>
    <!-- стрелка для осей -->
    <marker id="axis-arrow"
            viewBox="0 0 15 8"
            refX="13" refY="4"
            markerWidth="12" markerHeight="6.4"
            orient="auto"
            markerUnits="userSpaceOnUse">
      <path d="M 3 0 L 15 4 L 3 8 L 7 4 Z"
            fill="black" />
    </marker>

    <!-- ограничение рисования гиперболы: x,y ∈ [-6.5;6.5] -->
    <clipPath id="clip-65">
      <rect x="17.14" y="17.14" width="185.71" height="185.71" />
    </clipPath>
  </defs>

  <!-- тонкая клетчатая сетка: по x и y от -7 до 7, без окаймления -->
  <g stroke="#d1d5db" stroke-width="0.5" shape-rendering="crispEdges">
    <line x1="24.29" y1="10" x2="24.29" y2="210" />
    <line x1="38.57" y1="10" x2="38.57" y2="210" />
    <line x1="52.86" y1="10" x2="52.86" y2="210" />
    <line x1="67.14" y1="10" x2="67.14" y2="210" />
    <line x1="81.43" y1="10" x2="81.43" y2="210" />
    <line x1="95.71" y1="10" x2="95.71" y2="210" />
    <line x1="110.00" y1="10" x2="110.00" y2="210" />
    <line x1="124.29" y1="10" x2="124.29" y2="210" />
    <line x1="138.57" y1="10" x2="138.57" y2="210" />
    <line x1="152.86" y1="10" x2="152.86" y2="210" />
    <line x1="167.14" y1="10" x2="167.14" y2="210" />
    <line x1="181.43" y1="10" x2="181.43" y2="210" />
    <line x1="195.71" y1="10" x2="195.71" y2="210" />
    <line x1="10" y1="195.71" x2="210" y2="195.71" />
    <line x1="10" y1="181.43" x2="210" y2="181.43" />
    <line x1="10" y1="167.14" x2="210" y2="167.14" />
    <line x1="10" y1="152.86" x2="210" y2="152.86" />
    <line x1="10" y1="138.57" x2="210" y2="138.57" />
    <line x1="10" y1="124.29" x2="210" y2="124.29" />
    <line x1="10" y1="110.00" x2="210" y2="110.00" />
    <line x1="10" y1="95.71" x2="210" y2="95.71" />
    <line x1="10" y1="81.43" x2="210" y2="81.43" />
    <line x1="10" y1="67.14" x2="210" y2="67.14" />
    <line x1="10" y1="52.86" x2="210" y2="52.86" />
    <line x1="10" y1="38.57" x2="210" y2="38.57" />
    <line x1="10" y1="24.29" x2="210" y2="24.29" />
  </g>

  <!-- оси x и y (0 находится в точке (110;110)) -->
  <g stroke="#111827" stroke-width="1.25">
    <line x1="10" y1="110" x2="210" y2="110"
          marker-end="url(#axis-arrow)" />
    <line x1="110" y1="210" x2="110" y2="10"
          marker-end="url(#axis-arrow)" />
  </g>

  <!-- подписи осей и делений -->
  <g font-family="sans-serif" font-size="11" fill="#111827">
    <text x="106" y="123" text-anchor="end"
          font-size="13" font-style="italic"
          font-family="Georgia, 'Times New Roman', serif">O</text>

    <rect x="121.29" y="112.00" width="7" height="12" fill="white" />
    <text x="124.29" y="123.00" text-anchor="middle" font-size="13"
          font-family="'Times New Roman', serif"
          font-weight="300">1</text>

    <text x="105.00" y="99.71" text-anchor="end" font-size="13"
          font-family="'Times New Roman', serif"
          font-weight="300">1</text>

    <text x="209.14" y="123.00" text-anchor="start"
          font-family="Georgia, 'Times New Roman', serif"
          font-style="italic" font-size="13">x</text>

    <text x="107.00" y="10.86" text-anchor="end"
          font-family="Georgia, 'Times New Roman', serif"
          font-style="italic" font-size="13">y</text>
  </g>

  <!-- гипербола y = k/x, k=-5 (гладкая интерполяция); обрезана по окну [-6.5;6.5]×[-6.5;6.5] -->
  <g stroke="#2d70b3" stroke-width="1.25" fill="none"
     stroke-linecap="round" stroke-linejoin="round"
     clip-path="url(#clip-65)">
    <path d="M 17.14,99.01 C 17.20,99.00 17.38,98.98 17.50,98.97 C 17.62,98.95 17.74,98.94 17.86,98.92 C 17.98,98.91 18.10,98.90 18.22,98.88 C 18.34,98.87 18.46,98.85 18.58,98.84 C 18.70,98.82 18.82,98.81 18.94,98.79 C 19.06,98.78 19.18,98.76 19.29,98.75 C 19.41,98.74 19.53,98.72 19.65,98.71 C 19.77,98.69 19.89,98.68 20.00,98.66 C 20.12,98.65 20.24,98.63 20.35,98.62 C 20.47,98.60 20.59,98.59 20.71,98.57 C 20.82,98.56 20.94,98.54 21.06,98.53 C 21.17,98.51 21.29,98.50 21.40,98.48 C 21.52,98.47 21.64,98.45 21.75,98.44 C 21.87,98.42 21.98,98.41 22.10,98.39 C 22.21,98.38 22.33,98.36 22.44,98.35 C 22.56,98.33 22.67,98.32 22.79,98.30 C 22.90,98.28 23.02,98.27 23.13,98.25 C 23.25,98.24 23.36,98.22 23.47,98.21 C 23.59,98.19 23.70,98.18 23.81,98.16 C 23.93,98.14 24.04,98.13 24.15,98.11 C 24.27,98.10 24.38,98.08 24.49,98.07 C 24.60,98.05 24.72,98.04 24.83,98.02 C 24.94,98.00 25.05,97.99 25.17,97.97 C 25.28,97.96 25.39,97.94 25.50,97.92 C 25.61,97.91 25.72,97.89 25.83,97.88 C 25.95,97.86 26.06,97.84 26.17,97.83 C 26.28,97.81 26.39,97.80 26.50,97.78 C 26.61,97.76 26.72,97.75 26.83,97.73 C 26.94,97.71 27.05,97.70 27.16,97.68 C 27.27,97.67 27.38,97.65 27.49,97.63 C 27.60,97.62 27.71,97.60 27.81,97.58 C 27.92,97.57 28.03,97.55 28.14,97.53 C 28.25,97.52 28.36,97.50 28.47,97.48 C 28.57,97.47 28.68,97.45 28.79,97.43 C 28.90,97.42 29.01,97.40 29.11,97.38 C 29.22,97.37 29.33,97.35 29.43,97.33 C 29.54,97.32 29.65,97.30 29.76,97.28 C 29.86,97.27 29.97,97.25 30.08,97.23 C 30.18,97.22 30.29,97.20 30.39,97.18 C 30.50,97.16 30.61,97.15 30.71,97.13 C 30.82,97.11 30.92,97.10 31.03,97.08 C 31.13,97.06 31.24,97.04 31.34,97.03 C 31.45,97.01 31.55,96.99 31.66,96.98 C 31.76,96.96 31.87,96.94 31.97,96.92 C 32.07,96.91 32.18,96.89 32.28,96.87 C 32.39,96.85 32.49,96.84 32.59,96.82 C 32.70,96.80 32.80,96.78 32.90,96.76 C 33.01,96.75 33.11,96.73 33.21,96.71 C 33.31,96.69 33.42,96.68 33.52,96.66 C 33.62,96.64 33.72,96.62 33.83,96.60 C 33.93,96.59 34.03,96.57 34.13,96.55 C 34.23,96.53 34.34,96.51 34.44,96.50 C 34.54,96.48 34.64,96.46 34.74,96.44 C 34.84,96.42 34.94,96.41 35.04,96.39 C 35.14,96.37 35.24,96.35 35.34,96.33 C 35.44,96.31 35.54,96.30 35.64,96.28 C 35.74,96.26 35.84,96.24 35.94,96.22 C 36.04,96.20 36.14,96.18 36.24,96.17 C 36.34,96.15 36.44,96.13 36.54,96.11 C 36.64,96.09 36.74,96.07 36.84,96.05 C 36.93,96.03 37.03,96.02 37.13,96.00 C 37.23,95.98 37.33,95.96 37.42,95.94 C 37.52,95.92 37.62,95.90 37.72,95.88 C 37.82,95.86 37.91,95.84 38.01,95.83 C 38.11,95.81 38.20,95.79 38.30,95.77 C 38.40,95.75 38.49,95.73 38.59,95.71 C 38.69,95.69 38.78,95.67 38.88,95.65 C 38.98,95.63 39.07,95.61 39.17,95.59 C 39.26,95.57 39.36,95.55 39.46,95.54 C 39.55,95.52 39.65,95.50 39.74,95.48 C 39.84,95.46 39.93,95.44 40.03,95.42 C 40.12,95.40 40.22,95.38 40.31,95.36 C 40.40,95.34 40.50,95.32 40.59,95.30 C 40.69,95.28 40.78,95.26 40.87,95.24 C 40.97,95.22 41.06,95.20 41.16,95.18 C 41.25,95.16 41.34,95.14 41.44,95.12 C 41.53,95.10 41.62,95.08 41.71,95.06 C 41.81,95.04 41.90,95.02 41.99,95.00 C 42.09,94.98 42.18,94.95 42.27,94.93 C 42.36,94.91 42.45,94.89 42.55,94.87 C 42.64,94.85 42.73,94.83 42.82,94.81 C 42.91,94.79 43.00,94.77 43.09,94.75 C 43.19,94.73 43.28,94.71 43.37,94.69 C 43.46,94.67 43.55,94.64 43.64,94.62 C 43.73,94.60 43.82,94.58 43.91,94.56 C 44.00,94.54 44.09,94.52 44.18,94.50 C 44.27,94.48 44.36,94.45 44.45,94.43 C 44.54,94.41 44.63,94.39 44.72,94.37 C 44.81,94.35 44.90,94.33 44.98,94.31 C 45.07,94.28 45.16,94.26 45.25,94.24 C 45.34,94.22 45.43,94.20 45.52,94.18 C 45.60,94.15 45.69,94.13 45.78,94.11 C 45.87,94.09 45.96,94.07 46.04,94.05 C 46.13,94.02 46.22,94.00 46.31,93.98 C 46.39,93.96 46.48,93.94 46.57,93.91 C 46.65,93.89 46.74,93.87 46.83,93.85 C 46.91,93.83 47.00,93.80 47.09,93.78 C 47.17,93.76 47.26,93.74 47.35,93.71 C 47.43,93.69 47.52,93.67 47.60,93.65 C 47.69,93.62 47.77,93.60 47.86,93.58 C 47.94,93.56 48.03,93.53 48.11,93.51 C 48.20,93.49 48.28,93.47 48.37,93.44 C 48.45,93.42 48.54,93.40 48.62,93.37 C 48.71,93.35 48.79,93.33 48.88,93.31 C 48.96,93.28 49.04,93.26 49.13,93.24 C 49.21,93.21 49.30,93.19 49.38,93.17 C 49.46,93.14 49.55,93.12 49.63,93.10 C 49.71,93.07 49.80,93.05 49.88,93.03 C 49.96,93.00 50.04,92.98 50.13,92.96 C 50.21,92.93 50.29,92.91 50.37,92.89 C 50.46,92.86 50.54,92.84 50.62,92.82 C 50.70,92.79 50.78,92.77 50.87,92.74 C 50.95,92.72 51.03,92.70 51.11,92.67 C 51.19,92.65 51.27,92.62 51.35,92.60 C 51.43,92.58 51.52,92.55 51.60,92.53 C 51.68,92.50 51.76,92.48 51.84,92.46 C 51.92,92.43 52.00,92.41 52.08,92.38 C 52.16,92.36 52.24,92.33 52.32,92.31 C 52.40,92.29 52.48,92.26 52.56,92.24 C 52.64,92.21 52.72,92.19 52.80,92.16 C 52.87,92.14 52.95,92.11 53.03,92.09 C 53.11,92.06 53.19,92.04 53.27,92.01 C 53.35,91.99 53.43,91.96 53.50,91.94 C 53.58,91.91 53.66,91.89 53.74,91.86 C 53.82,91.84 53.89,91.81 53.97,91.79 C 54.05,91.76 54.13,91.74 54.21,91.71 C 54.28,91.69 54.36,91.66 54.44,91.64 C 54.51,91.61 54.59,91.58 54.67,91.56 C 54.74,91.53 54.82,91.51 54.90,91.48 C 54.97,91.46 55.05,91.43 55.13,91.40 C 55.20,91.38 55.28,91.35 55.36,91.33 C 55.43,91.30 55.51,91.27 55.58,91.25 C 55.66,91.22 55.73,91.20 55.81,91.17 C 55.88,91.14 55.96,91.12 56.04,91.09 C 56.11,91.06 56.19,91.04 56.26,91.01 C 56.33,90.99 56.41,90.96 56.48,90.93 C 56.56,90.91 56.63,90.88 56.71,90.85 C 56.78,90.83 56.86,90.80 56.93,90.77 C 57.00,90.75 57.08,90.72 57.15,90.69 C 57.22,90.67 57.30,90.64 57.37,90.61 C 57.44,90.58 57.52,90.56 57.59,90.53 C 57.66,90.50 57.74,90.48 57.81,90.45 C 57.88,90.42 57.95,90.39 58.03,90.37 C 58.10,90.34 58.17,90.31 58.24,90.28 C 58.32,90.26 58.39,90.23 58.46,90.20 C 58.53,90.17 58.60,90.15 58.68,90.12 C 58.75,90.09 58.82,90.06 58.89,90.03 C 58.96,90.01 59.03,89.98 59.10,89.95 C 59.18,89.92 59.25,89.89 59.32,89.87 C 59.39,89.84 59.46,89.81 59.53,89.78 C 59.60,89.75 59.67,89.73 59.74,89.70 C 59.81,89.67 59.88,89.64 59.95,89.61 C 60.02,89.58 60.09,89.55 60.16,89.53 C 60.23,89.50 60.30,89.47 60.37,89.44 C 60.44,89.41 60.51,89.38 60.58,89.35 C 60.65,89.32 60.72,89.30 60.78,89.27 C 60.85,89.24 60.92,89.21 60.99,89.18 C 61.06,89.15 61.13,89.12 61.20,89.09 C 61.26,89.06 61.33,89.03 61.40,89.00 C 61.47,88.97 61.54,88.95 61.60,88.92 C 61.67,88.89 61.74,88.86 61.81,88.83 C 61.87,88.80 61.94,88.77 62.01,88.74 C 62.08,88.71 62.14,88.68 62.21,88.65 C 62.28,88.62 62.34,88.59 62.41,88.56 C 62.48,88.53 62.54,88.50 62.61,88.47 C 62.68,88.44 62.74,88.41 62.81,88.38 C 62.88,88.35 62.94,88.32 63.01,88.29 C 63.07,88.26 63.14,88.22 63.20,88.19 C 63.27,88.16 63.34,88.13 63.40,88.10 C 63.47,88.07 63.53,88.04 63.60,88.01 C 63.66,87.98 63.73,87.95 63.79,87.92 C 63.86,87.89 63.92,87.86 63.99,87.82 C 64.05,87.79 64.12,87.76 64.18,87.73 C 64.24,87.70 64.31,87.67 64.37,87.64 C 64.44,87.60 64.50,87.57 64.56,87.54 C 64.63,87.51 64.69,87.48 64.75,87.45 C 64.82,87.42 64.88,87.38 64.94,87.35 C 65.01,87.32 65.07,87.29 65.13,87.26 C 65.20,87.22 65.26,87.19 65.32,87.16 C 65.39,87.13 65.45,87.10 65.51,87.06 C 65.57,87.03 65.64,87.00 65.70,86.97 C 65.76,86.93 65.82,86.90 65.88,86.87 C 65.95,86.84 66.01,86.80 66.07,86.77 C 66.13,86.74 66.19,86.71 66.25,86.67 C 66.32,86.64 66.38,86.61 66.44,86.58 C 66.50,86.54 66.56,86.51 66.62,86.48 C 66.68,86.44 66.74,86.41 66.80,86.38 C 66.87,86.34 66.93,86.31 66.99,86.28 C 67.05,86.24 67.11,86.21 67.17,86.18 C 67.23,86.14 67.29,86.11 67.35,86.08 C 67.41,86.04 67.47,86.01 67.53,85.98 C 67.59,85.94 67.65,85.91 67.71,85.87 C 67.77,85.84 67.82,85.81 67.88,85.77 C 67.94,85.74 68.00,85.70 68.06,85.67 C 68.12,85.64 68.18,85.60 68.24,85.57 C 68.30,85.53 68.35,85.50 68.41,85.46 C 68.47,85.43 68.53,85.39 68.59,85.36 C 68.65,85.32 68.70,85.29 68.76,85.26 C 68.82,85.22 68.88,85.19 68.94,85.15 C 68.99,85.12 69.05,85.08 69.11,85.05 C 69.17,85.01 69.22,84.98 69.28,84.94 C 69.34,84.91 69.40,84.87 69.45,84.83 C 69.51,84.80 69.57,84.76 69.62,84.73 C 69.68,84.69 69.74,84.66 69.79,84.62 C 69.85,84.59 69.91,84.55 69.96,84.51 C 70.02,84.48 70.07,84.44 70.13,84.41 C 70.19,84.37 70.24,84.33 70.30,84.30 C 70.35,84.26 70.41,84.23 70.46,84.19 C 70.52,84.15 70.58,84.12 70.63,84.08 C 70.69,84.04 70.74,84.01 70.80,83.97 C 70.85,83.93 70.91,83.90 70.96,83.86 C 71.02,83.82 71.07,83.79 71.13,83.75 C 71.18,83.71 71.23,83.68 71.29,83.64 C 71.34,83.60 71.40,83.57 71.45,83.53 C 71.51,83.49 71.56,83.45 71.61,83.42 C 71.67,83.38 71.72,83.34 71.78,83.31 C 71.83,83.27 71.88,83.23 71.94,83.19 C 71.99,83.15 72.04,83.12 72.10,83.08 C 72.15,83.04 72.20,83.00 72.25,82.97 C 72.31,82.93 72.36,82.89 72.41,82.85 C 72.47,82.81 72.52,82.78 72.57,82.74 C 72.62,82.70 72.68,82.66 72.73,82.62 C 72.78,82.58 72.83,82.55 72.88,82.51 C 72.94,82.47 72.99,82.43 73.04,82.39 C 73.09,82.35 73.14,82.31 73.20,82.27 C 73.25,82.24 73.30,82.20 73.35,82.16 C 73.40,82.12 73.45,82.08 73.50,82.04 C 73.55,82.00 73.61,81.96 73.66,81.92 C 73.71,81.88 73.76,81.84 73.81,81.80 C 73.86,81.77 73.91,81.73 73.96,81.69 C 74.01,81.65 74.06,81.61 74.11,81.57 C 74.16,81.53 74.21,81.49 74.26,81.45 C 74.31,81.41 74.36,81.37 74.41,81.33 C 74.46,81.29 74.51,81.25 74.56,81.21 C 74.61,81.17 74.66,81.13 74.71,81.09 C 74.76,81.05 74.81,81.00 74.86,80.96 C 74.91,80.92 74.95,80.88 75.00,80.84 C 75.05,80.80 75.10,80.76 75.15,80.72 C 75.20,80.68 75.25,80.64 75.30,80.60 C 75.34,80.56 75.39,80.51 75.44,80.47 C 75.49,80.43 75.54,80.39 75.59,80.35 C 75.63,80.31 75.68,80.27 75.73,80.23 C 75.78,80.18 75.82,80.14 75.87,80.10 C 75.92,80.06 75.97,80.02 76.01,79.98 C 76.06,79.93 76.11,79.89 76.16,79.85 C 76.20,79.81 76.25,79.77 76.30,79.72 C 76.34,79.68 76.39,79.64 76.44,79.60 C 76.48,79.55 76.53,79.51 76.58,79.47 C 76.62,79.43 76.67,79.38 76.72,79.34 C 76.76,79.30 76.81,79.26 76.86,79.21 C 76.90,79.17 76.95,79.13 76.99,79.08 C 77.04,79.04 77.08,79.00 77.13,78.96 C 77.18,78.91 77.22,78.87 77.27,78.83 C 77.31,78.78 77.36,78.74 77.40,78.70 C 77.45,78.65 77.49,78.61 77.54,78.57 C 77.58,78.52 77.63,78.48 77.67,78.43 C 77.72,78.39 77.76,78.35 77.81,78.30 C 77.85,78.26 77.90,78.21 77.94,78.17 C 77.99,78.13 78.03,78.08 78.07,78.04 C 78.12,77.99 78.16,77.95 78.21,77.91 C 78.25,77.86 78.29,77.82 78.34,77.77 C 78.38,77.73 78.43,77.68 78.47,77.64 C 78.51,77.59 78.56,77.55 78.60,77.50 C 78.64,77.46 78.69,77.41 78.73,77.37 C 78.77,77.32 78.82,77.28 78.86,77.23 C 78.90,77.19 78.94,77.14 78.99,77.10 C 79.03,77.05 79.07,77.01 79.12,76.96 C 79.16,76.92 79.20,76.87 79.24,76.82 C 79.28,76.78 79.33,76.73 79.37,76.69 C 79.41,76.64 79.45,76.59 79.50,76.55 C 79.54,76.50 79.58,76.46 79.62,76.41 C 79.66,76.36 79.70,76.32 79.75,76.27 C 79.79,76.23 79.83,76.18 79.87,76.13 C 79.91,76.09 79.95,76.04 79.99,75.99 C 80.04,75.95 80.08,75.90 80.12,75.85 C 80.16,75.81 80.20,75.76 80.24,75.71 C 80.28,75.66 80.32,75.62 80.36,75.57 C 80.40,75.52 80.44,75.48 80.48,75.43 C 80.52,75.38 80.56,75.33 80.60,75.29 C 80.64,75.24 80.68,75.19 80.72,75.14 C 80.76,75.10 80.80,75.05 80.84,75.00 C 80.88,74.95 80.92,74.91 80.96,74.86 C 81.00,74.81 81.04,74.76 81.08,74.71 C 81.12,74.67 81.16,74.62 81.20,74.57 C 81.24,74.52 81.28,74.47 81.32,74.42 C 81.36,74.38 81.40,74.33 81.43,74.28 C 81.47,74.23 81.51,74.18 81.55,74.13 C 81.59,74.08 81.63,74.03 81.67,73.99 C 81.71,73.94 81.74,73.89 81.78,73.84 C 81.82,73.79 81.86,73.74 81.90,73.69 C 81.93,73.64 81.97,73.59 82.01,73.54 C 82.05,73.49 82.09,73.44 82.12,73.39 C 82.16,73.35 82.20,73.30 82.24,73.25 C 82.27,73.20 82.31,73.15 82.35,73.10 C 82.39,73.05 82.42,73.00 82.46,72.95 C 82.50,72.90 82.54,72.85 82.57,72.80 C 82.61,72.75 82.65,72.70 82.68,72.65 C 82.72,72.60 82.76,72.55 82.79,72.49 C 82.83,72.44 82.87,72.39 82.90,72.34 C 82.94,72.29 82.98,72.24 83.01,72.19 C 83.05,72.14 83.08,72.09 83.12,72.04 C 83.16,71.99 83.19,71.94 83.23,71.89 C 83.26,71.83 83.30,71.78 83.34,71.73 C 83.37,71.68 83.41,71.63 83.44,71.58 C 83.48,71.53 83.51,71.47 83.55,71.42 C 83.58,71.37 83.62,71.32 83.65,71.27 C 83.69,71.22 83.72,71.16 83.76,71.11 C 83.79,71.06 83.83,71.01 83.86,70.96 C 83.90,70.91 83.93,70.85 83.97,70.80 C 84.00,70.75 84.04,70.70 84.07,70.64 C 84.11,70.59 84.14,70.54 84.18,70.49 C 84.21,70.43 84.24,70.38 84.28,70.33 C 84.31,70.28 84.35,70.22 84.38,70.17 C 84.41,70.12 84.45,70.07 84.48,70.01 C 84.52,69.96 84.55,69.91 84.58,69.85 C 84.62,69.80 84.65,69.75 84.68,69.69 C 84.72,69.64 84.75,69.59 84.78,69.53 C 84.82,69.48 84.85,69.43 84.88,69.37 C 84.92,69.32 84.95,69.27 84.98,69.21 C 85.01,69.16 85.05,69.11 85.08,69.05 C 85.11,69.00 85.15,68.94 85.18,68.89 C 85.21,68.84 85.24,68.78 85.28,68.73 C 85.31,68.67 85.34,68.62 85.37,68.57 C 85.40,68.51 85.44,68.46 85.47,68.40 C 85.50,68.35 85.53,68.29 85.56,68.24 C 85.60,68.19 85.63,68.13 85.66,68.08 C 85.69,68.02 85.72,67.97 85.76,67.91 C 85.79,67.86 85.82,67.80 85.85,67.75 C 85.88,67.69 85.91,67.64 85.94,67.58 C 85.97,67.53 86.01,67.47 86.04,67.42 C 86.07,67.36 86.10,67.31 86.13,67.25 C 86.16,67.20 86.19,67.14 86.22,67.09 C 86.25,67.03 86.28,66.97 86.31,66.92 C 86.34,66.86 86.38,66.81 86.41,66.75 C 86.44,66.70 86.47,66.64 86.50,66.58 C 86.53,66.53 86.56,66.47 86.59,66.42 C 86.62,66.36 86.65,66.30 86.68,66.25 C 86.71,66.19 86.74,66.14 86.77,66.08 C 86.80,66.02 86.83,65.97 86.86,65.91 C 86.89,65.85 86.92,65.80 86.94,65.74 C 86.97,65.68 87.00,65.63 87.03,65.57 C 87.06,65.51 87.09,65.46 87.12,65.40 C 87.15,65.34 87.18,65.29 87.21,65.23 C 87.24,65.17 87.27,65.12 87.29,65.06 C 87.32,65.00 87.35,64.95 87.38,64.89 C 87.41,64.83 87.44,64.77 87.47,64.72 C 87.49,64.66 87.52,64.60 87.55,64.54 C 87.58,64.49 87.61,64.43 87.64,64.37 C 87.66,64.31 87.69,64.26 87.72,64.20 C 87.75,64.14 87.78,64.08 87.80,64.03 C 87.83,63.97 87.86,63.91 87.89,63.85 C 87.92,63.79 87.94,63.74 87.97,63.68 C 88.00,63.62 88.03,63.56 88.05,63.50 C 88.08,63.45 88.11,63.39 88.14,63.33 C 88.16,63.27 88.19,63.21 88.22,63.16 C 88.24,63.10 88.27,63.04 88.30,62.98 C 88.33,62.92 88.35,62.86 88.38,62.80 C 88.41,62.75 88.43,62.69 88.46,62.63 C 88.49,62.57 88.51,62.51 88.54,62.45 C 88.57,62.39 88.59,62.34 88.62,62.28 C 88.64,62.22 88.67,62.16 88.70,62.10 C 88.72,62.04 88.75,61.98 88.78,61.92 C 88.80,61.86 88.83,61.80 88.85,61.74 C 88.88,61.69 88.91,61.63 88.93,61.57 C 88.96,61.51 88.98,61.45 89.01,61.39 C 89.03,61.33 89.06,61.27 89.09,61.21 C 89.11,61.15 89.14,61.09 89.16,61.03 C 89.19,60.97 89.21,60.91 89.24,60.85 C 89.26,60.79 89.29,60.73 89.31,60.67 C 89.34,60.61 89.36,60.55 89.39,60.49 C 89.41,60.43 89.44,60.37 89.46,60.31 C 89.49,60.26 89.51,60.19 89.54,60.13 C 89.56,60.07 89.59,60.01 89.61,59.95 C 89.63,59.89 89.66,59.83 89.68,59.77 C 89.71,59.71 89.73,59.65 89.76,59.59 C 89.78,59.53 89.80,59.47 89.83,59.41 C 89.85,59.35 89.88,59.29 89.90,59.23 C 89.92,59.17 89.95,59.11 89.97,59.05 C 90.00,58.99 90.02,58.93 90.04,58.87 C 90.07,58.81 90.09,58.75 90.11,58.69 C 90.14,58.62 90.16,58.56 90.18,58.50 C 90.21,58.44 90.23,58.38 90.25,58.32 C 90.28,58.26 90.30,58.20 90.32,58.14 C 90.35,58.08 90.37,58.02 90.39,57.96 C 90.42,57.89 90.44,57.83 90.46,57.77 C 90.49,57.71 90.51,57.65 90.53,57.59 C 90.55,57.53 90.58,57.47 90.60,57.41 C 90.62,57.34 90.64,57.28 90.67,57.22 C 90.69,57.16 90.71,57.10 90.73,57.04 C 90.76,56.98 90.78,56.92 90.80,56.85 C 90.82,56.79 90.84,56.73 90.87,56.67 C 90.89,56.61 90.91,56.55 90.93,56.49 C 90.95,56.42 90.98,56.36 91.00,56.30 C 91.02,56.24 91.04,56.18 91.06,56.12 C 91.08,56.05 91.11,55.99 91.13,55.93 C 91.15,55.87 91.17,55.81 91.19,55.75 C 91.21,55.68 91.23,55.62 91.26,55.56 C 91.28,55.50 91.30,55.44 91.32,55.38 C 91.34,55.31 91.36,55.25 91.38,55.19 C 91.40,55.13 91.42,55.07 91.45,55.00 C 91.47,54.94 91.49,54.88 91.51,54.82 C 91.53,54.76 91.55,54.69 91.57,54.63 C 91.59,54.57 91.61,54.51 91.63,54.45 C 91.65,54.38 91.67,54.32 91.69,54.26 C 91.71,54.20 91.73,54.14 91.75,54.07 C 91.77,54.01 91.79,53.95 91.81,53.89 C 91.83,53.83 91.85,53.76 91.87,53.70 C 91.89,53.64 91.91,53.58 91.93,53.52 C 91.95,53.45 91.97,53.39 91.99,53.33 C 92.01,53.27 92.03,53.21 92.05,53.14 C 92.07,53.08 92.09,53.02 92.11,52.96 C 92.13,52.89 92.15,52.83 92.17,52.77 C 92.19,52.71 92.21,52.65 92.23,52.58 C 92.25,52.52 92.27,52.46 92.29,52.40 C 92.30,52.33 92.32,52.27 92.34,52.21 C 92.36,52.15 92.38,52.08 92.40,52.02 C 92.42,51.96 92.44,51.90 92.46,51.84 C 92.48,51.77 92.49,51.71 92.51,51.65 C 92.53,51.59 92.55,51.52 92.57,51.46 C 92.59,51.40 92.61,51.34 92.62,51.28 C 92.64,51.21 92.66,51.15 92.68,51.09 C 92.70,51.03 92.72,50.96 92.73,50.90 C 92.75,50.84 92.77,50.78 92.79,50.71 C 92.81,50.65 92.82,50.59 92.84,50.53 C 92.86,50.47 92.88,50.40 92.90,50.34 C 92.91,50.28 92.93,50.22 92.95,50.15 C 92.97,50.09 92.98,50.03 93.00,49.97 C 93.02,49.91 93.04,49.84 93.05,49.78 C 93.07,49.72 93.09,49.66 93.11,49.59 C 93.12,49.53 93.14,49.47 93.16,49.41 C 93.18,49.35 93.19,49.28 93.21,49.22 C 93.23,49.16 93.25,49.10 93.26,49.04 C 93.28,48.97 93.30,48.91 93.31,48.85 C 93.33,48.79 93.35,48.72 93.36,48.66 C 93.38,48.60 93.40,48.54 93.41,48.48 C 93.43,48.41 93.45,48.35 93.46,48.29 C 93.48,48.23 93.50,48.17 93.51,48.10 C 93.53,48.04 93.55,47.98 93.56,47.92 C 93.58,47.86 93.60,47.80 93.61,47.73 C 93.63,47.67 93.64,47.61 93.66,47.55 C 93.68,47.49 93.69,47.42 93.71,47.36 C 93.73,47.30 93.74,47.24 93.76,47.18 C 93.77,47.12 93.79,47.05 93.81,46.99 C 93.82,46.93 93.84,46.87 93.85,46.81 C 93.87,46.75 93.88,46.68 93.90,46.62 C 93.92,46.56 93.93,46.50 93.95,46.44 C 93.96,46.38 93.98,46.31 93.99,46.25 C 94.01,46.19 94.02,46.13 94.04,46.07 C 94.05,46.01 94.07,45.95 94.08,45.89 C 94.10,45.82 94.12,45.76 94.13,45.70 C 94.15,45.64 94.16,45.58 94.18,45.52 C 94.19,45.46 94.21,45.40 94.22,45.33 C 94.24,45.27 94.25,45.21 94.26,45.15 C 94.28,45.09 94.29,45.03 94.31,44.97 C 94.32,44.91 94.34,44.85 94.35,44.79 C 94.37,44.72 94.38,44.66 94.40,44.60 C 94.41,44.54 94.43,44.48 94.44,44.42 C 94.45,44.36 94.47,44.30 94.48,44.24 C 94.50,44.18 94.51,44.12 94.53,44.06 C 94.54,44.00 94.55,43.94 94.57,43.88 C 94.58,43.82 94.60,43.75 94.61,43.69 C 94.62,43.63 94.64,43.57 94.65,43.51 C 94.67,43.45 94.68,43.39 94.69,43.33 C 94.71,43.27 94.72,43.21 94.74,43.15 C 94.75,43.09 94.76,43.03 94.78,42.97 C 94.79,42.91 94.80,42.85 94.82,42.79 C 94.83,42.73 94.84,42.67 94.86,42.61 C 94.87,42.55 94.88,42.49 94.90,42.43 C 94.91,42.37 94.92,42.32 94.94,42.26 C 94.95,42.20 94.96,42.14 94.98,42.08 C 94.99,42.02 95.00,41.96 95.02,41.90 C 95.03,41.84 95.04,41.78 95.06,41.72 C 95.07,41.66 95.08,41.60 95.09,41.54 C 95.11,41.49 95.12,41.43 95.13,41.37 C 95.15,41.31 95.16,41.25 95.17,41.19 C 95.18,41.13 95.20,41.07 95.21,41.02 C 95.22,40.96 95.23,40.90 95.25,40.84 C 95.26,40.78 95.27,40.72 95.28,40.66 C 95.30,40.61 95.31,40.55 95.32,40.49 C 95.33,40.43 95.34,40.37 95.36,40.31 C 95.37,40.26 95.38,40.20 95.39,40.14 C 95.41,40.08 95.42,40.02 95.43,39.97 C 95.44,39.91 95.45,39.85 95.47,39.79 C 95.48,39.74 95.49,39.68 95.50,39.62 C 95.51,39.56 95.53,39.51 95.54,39.45 C 95.55,39.39 95.56,39.33 95.57,39.28 C 95.58,39.22 95.60,39.16 95.61,39.10 C 95.62,39.05 95.63,38.99 95.64,38.93 C 95.65,38.88 95.66,38.82 95.68,38.76 C 95.69,38.71 95.70,38.65 95.71,38.59 C 95.72,38.54 95.73,38.48 95.74,38.42 C 95.76,38.37 95.77,38.31 95.78,38.25 C 95.79,38.20 95.80,38.14 95.81,38.09 C 95.82,38.03 95.83,37.97 95.84,37.92 C 95.85,37.86 95.87,37.81 95.88,37.75 C 95.89,37.69 95.90,37.64 95.91,37.58 C 95.92,37.53 95.93,37.47 95.94,37.42 C 95.95,37.36 95.96,37.30 95.97,37.25 C 95.98,37.19 96.00,37.14 96.01,37.08 C 96.02,37.03 96.03,36.97 96.04,36.92 C 96.05,36.86 96.06,36.81 96.07,36.75 C 96.08,36.70 96.09,36.65 96.10,36.59 C 96.11,36.54 96.12,36.48 96.13,36.43 C 96.14,36.37 96.15,36.32 96.16,36.26 C 96.17,36.21 96.18,36.16 96.19,36.10 C 96.20,36.05 96.21,35.99 96.22,35.94 C 96.23,35.89 96.24,35.83 96.25,35.78 C 96.26,35.73 96.27,35.67 96.28,35.62 C 96.29,35.57 96.30,35.51 96.31,35.46 C 96.32,35.41 96.33,35.35 96.34,35.30 C 96.35,35.25 96.36,35.19 96.37,35.14 C 96.38,35.09 96.39,35.04 96.40,34.98 C 96.41,34.93 96.42,34.88 96.43,34.83 C 96.44,34.77 96.45,34.72 96.45,34.67 C 96.46,34.62 96.47,34.56 96.48,34.51 C 96.49,34.46 96.50,34.41 96.51,34.36 C 96.52,34.30 96.53,34.25 96.54,34.20 C 96.55,34.15 96.56,34.10 96.57,34.05 C 96.57,34.00 96.58,33.94 96.59,33.89 C 96.60,33.84 96.61,33.79 96.62,33.74 C 96.63,33.69 96.64,33.64 96.65,33.59 C 96.65,33.54 96.66,33.49 96.67,33.44 C 96.68,33.39 96.69,33.33 96.70,33.28 C 96.71,33.23 96.72,33.18 96.72,33.13 C 96.73,33.08 96.74,33.03 96.75,32.98 C 96.76,32.93 96.77,32.88 96.78,32.84 C 96.78,32.79 96.79,32.74 96.80,32.69 C 96.81,32.64 96.82,32.59 96.83,32.54 C 96.84,32.49 96.84,32.44 96.85,32.39 C 96.86,32.34 96.87,32.29 96.88,32.25 C 96.88,32.20 96.89,32.15 96.90,32.10 C 96.91,32.05 96.92,32.00 96.93,31.95 C 96.93,31.91 96.94,31.86 96.95,31.81 C 96.96,31.76 96.97,31.71 96.97,31.67 C 96.98,31.62 96.99,31.57 97.00,31.52 C 97.01,31.48 97.01,31.43 97.02,31.38 C 97.03,31.33 97.04,31.29 97.04,31.24 C 97.05,31.19 97.06,31.15 97.07,31.10 C 97.07,31.05 97.08,31.01 97.09,30.96 C 97.10,30.91 97.11,30.87 97.11,30.82 C 97.12,30.77 97.13,30.73 97.14,30.68 C 97.14,30.64 97.15,30.59 97.16,30.54 C 97.17,30.50 97.17,30.45 97.18,30.41 C 97.19,30.36 97.19,30.32 97.20,30.27 C 97.21,30.23 97.22,30.18 97.22,30.13 C 97.23,30.09 97.24,30.04 97.24,30.00 C 97.25,29.96 97.26,29.91 97.27,29.87 C 97.27,29.82 97.28,29.78 97.29,29.73 C 97.29,29.69 97.30,29.64 97.31,29.60 C 97.32,29.56 97.32,29.51 97.33,29.47 C 97.34,29.42 97.34,29.38 97.35,29.34 C 97.36,29.29 97.36,29.25 97.37,29.21 C 97.38,29.16 97.38,29.12 97.39,29.08 C 97.40,29.03 97.40,28.99 97.41,28.95 C 97.42,28.91 97.42,28.86 97.43,28.82 C 97.44,28.78 97.44,28.74 97.45,28.69 C 97.46,28.65 97.46,28.61 97.47,28.57 C 97.48,28.52 97.48,28.48 97.49,28.44 C 97.50,28.40 97.50,28.36 97.51,28.32 C 97.51,28.27 97.52,28.23 97.53,28.19 C 97.53,28.15 97.54,28.11 97.55,28.07 C 97.55,28.03 97.56,27.99 97.56,27.95 C 97.57,27.91 97.58,27.86 97.58,27.82 C 97.59,27.78 97.59,27.74 97.60,27.70 C 97.61,27.66 97.61,27.62 97.62,27.58 C 97.62,27.54 97.63,27.50 97.64,27.46 C 97.64,27.42 97.65,27.38 97.65,27.35 C 97.66,27.31 97.67,27.27 97.67,27.23 C 97.68,27.19 97.68,27.15 97.69,27.11 C 97.70,27.07 97.70,27.03 97.71,26.99 C 97.71,26.96 97.72,26.92 97.72,26.88 C 97.73,26.84 97.74,26.80 97.74,26.76 C 97.75,26.73 97.75,26.69 97.76,26.65 C 97.76,26.61 97.77,26.58 97.77,26.54 C 97.78,26.50 97.79,26.46 97.79,26.43 C 97.80,26.39 97.80,26.35 97.81,26.31 C 97.81,26.28 97.82,26.24 97.82,26.20 C 97.83,26.17 97.83,26.13 97.84,26.09 C 97.84,26.06 97.85,26.02 97.85,25.98 C 97.86,25.95 97.86,25.91 97.87,25.88 C 97.88,25.84 97.88,25.80 97.89,25.77 C 97.89,25.73 97.90,25.70 97.90,25.66 C 97.91,25.63 97.91,25.59 97.92,25.56 C 97.92,25.52 97.93,25.49 97.93,25.45 C 97.94,25.42 97.94,25.38 97.95,25.35 C 97.95,25.31 97.96,25.28 97.96,25.24 C 97.97,25.21 97.97,25.18 97.98,25.14 C 97.98,25.11 97.98,25.07 97.99,25.04 C 97.99,25.01 98.00,24.97 98.00,24.94 C 98.01,24.91 98.01,24.87 98.02,24.84 C 98.02,24.81 98.03,24.77 98.03,24.74 C 98.04,24.71 98.04,24.67 98.05,24.64 C 98.05,24.61 98.05,24.58 98.06,24.54 C 98.06,24.51 98.07,24.48 98.07,24.45 C 98.08,24.41 98.08,24.38 98.09,24.35 C 98.09,24.32 98.10,24.29 98.10,24.26 C 98.10,24.22 98.11,24.19 98.11,24.16 C 98.12,24.13 98.12,24.10 98.13,24.07 C 98.13,24.04 98.13,24.01 98.14,23.97 C 98.14,23.94 98.15,23.91 98.15,23.88 C 98.16,23.85 98.16,23.82 98.16,23.79 C 98.17,23.76 98.17,23.73 98.18,23.70 C 98.18,23.67 98.18,23.64 98.19,23.61 C 98.19,23.58 98.20,23.55 98.20,23.52 C 98.20,23.49 98.21,23.46 98.21,23.43 C 98.22,23.40 98.22,23.38 98.22,23.35 C 98.23,23.32 98.23,23.29 98.24,23.26 C 98.24,23.23 98.24,23.20 98.25,23.17 C 98.25,23.15 98.26,23.12 98.26,23.09 C 98.26,23.06 98.27,23.03 98.27,23.00 C 98.27,22.98 98.28,22.95 98.28,22.92 C 98.29,22.89 98.29,22.87 98.29,22.84 C 98.30,22.81 98.30,22.78 98.30,22.76 C 98.31,22.73 98.31,22.70 98.31,22.68 C 98.32,22.65 98.32,22.62 98.33,22.60 C 98.33,22.57 98.33,22.54 98.34,22.52 C 98.34,22.49 98.34,22.46 98.35,22.44 C 98.35,22.41 98.35,22.38 98.36,22.36 C 98.36,22.33 98.36,22.31 98.37,22.28 C 98.37,22.26 98.37,22.23 98.38,22.21 C 98.38,22.18 98.38,22.15 98.39,22.13 C 98.39,22.10 98.39,22.08 98.40,22.05 C 98.40,22.03 98.40,22.01 98.41,21.98 C 98.41,21.96 98.41,21.93 98.42,21.91 C 98.42,21.88 98.42,21.86 98.43,21.83 C 98.43,21.81 98.43,21.79 98.44,21.76 C 98.44,21.74 98.44,21.71 98.45,21.69 C 98.45,21.67 98.45,21.64 98.45,21.62 C 98.46,21.60 98.46,21.57 98.46,21.55 C 98.47,21.53 98.47,21.50 98.47,21.48 C 98.48,21.46 98.48,21.44 98.48,21.41 C 98.48,21.39 98.49,21.37 98.49,21.35 C 98.49,21.32 98.50,21.30 98.50,21.28 C 98.50,21.26 98.50,21.24 98.51,21.21 C 98.51,21.19 98.51,21.17 98.52,21.15 C 98.52,21.13 98.52,21.10 98.52,21.08 C 98.53,21.06 98.53,21.04 98.53,21.02 C 98.53,21.00 98.54,20.98 98.54,20.96 C 98.54,20.93 98.55,20.91 98.55,20.89 C 98.55,20.87 98.55,20.85 98.56,20.83 C 98.56,20.81 98.56,20.79 98.56,20.77 C 98.57,20.75 98.57,20.73 98.57,20.71 C 98.57,20.69 98.58,20.67 98.58,20.65 C 98.58,20.63 98.58,20.61 98.59,20.59 C 98.59,20.57 98.59,20.55 98.59,20.53 C 98.60,20.51 98.60,20.49 98.60,20.48 C 98.60,20.46 98.61,20.44 98.61,20.42 C 98.61,20.40 98.61,20.38 98.62,20.36 C 98.62,20.34 98.62,20.32 98.62,20.31 C 98.63,20.29 98.63,20.27 98.63,20.25 C 98.63,20.23 98.63,20.22 98.64,20.20 C 98.64,20.18 98.64,20.16 98.64,20.14 C 98.65,20.13 98.65,20.11 98.65,20.09 C 98.65,20.07 98.66,20.06 98.66,20.04 C 98.66,20.02 98.66,20.00 98.66,19.99 C 98.67,19.97 98.67,19.95 98.67,19.94 C 98.67,19.92 98.67,19.90 98.68,19.89 C 98.68,19.87 98.68,19.85 98.68,19.84 C 98.68,19.82 98.69,19.80 98.69,19.79 C 98.69,19.77 98.69,19.75 98.70,19.74 C 98.70,19.72 98.70,19.71 98.70,19.69 C 98.70,19.67 98.71,19.66 98.71,19.64 C 98.71,19.63 98.71,19.61 98.71,19.60 C 98.71,19.58 98.72,19.57 98.72,19.55 C 98.72,19.53 98.72,19.52 98.72,19.50 C 98.73,19.49 98.73,19.47 98.73,19.46 C 98.73,19.45 98.73,19.43 98.74,19.42 C 98.74,19.40 98.74,19.39 98.74,19.37 C 98.74,19.36 98.74,19.34 98.75,19.33 C 98.75,19.31 98.75,19.30 98.75,19.29 C 98.75,19.27 98.75,19.26 98.76,19.24 C 98.76,19.23 98.76,19.22 98.76,19.20 C 98.76,19.19 98.76,19.18 98.77,19.16 C 98.77,19.15 98.77,19.14 98.77,19.12 C 98.77,19.11 98.77,19.10 98.78,19.08 C 98.78,19.07 98.78,19.06 98.78,19.04 C 98.78,19.03 98.78,19.02 98.79,19.01 C 98.79,18.99 98.79,18.98 98.79,18.97 C 98.79,18.96 98.79,18.94 98.80,18.93 C 98.80,18.92 98.80,18.91 98.80,18.89 C 98.80,18.88 98.80,18.87 98.80,18.86 C 98.81,18.85 98.81,18.83 98.81,18.82 C 98.81,18.81 98.81,18.80 98.81,18.79 C 98.81,18.78 98.82,18.76 98.82,18.75 C 98.82,18.74 98.82,18.73 98.82,18.72 C 98.82,18.71 98.82,18.70 98.83,18.68 C 98.83,18.67 98.83,18.66 98.83,18.65 C 98.83,18.64 98.83,18.63 98.83,18.62 C 98.83,18.61 98.84,18.60 98.84,18.59 C 98.84,18.58 98.84,18.57 98.84,18.56 C 98.84,18.55 98.84,18.53 98.84,18.52 C 98.85,18.51 98.85,18.50 98.85,18.49 C 98.85,18.48 98.85,18.47 98.85,18.46 C 98.85,18.45 98.85,18.44 98.86,18.43 C 98.86,18.42 98.86,18.42 98.86,18.41 C 98.86,18.40 98.86,18.39 98.86,18.38 C 98.86,18.37 98.87,18.36 98.87,18.35 C 98.87,18.34 98.87,18.33 98.87,18.32 C 98.87,18.31 98.87,18.30 98.87,18.29 C 98.87,18.28 98.88,18.28 98.88,18.27 C 98.88,18.26 98.88,18.25 98.88,18.24 C 98.88,18.23 98.88,18.22 98.88,18.21 C 98.88,18.21 98.88,18.20 98.89,18.19 C 98.89,18.18 98.89,18.17 98.89,18.16 C 98.89,18.16 98.89,18.15 98.89,18.14 C 98.89,18.13 98.89,18.12 98.89,18.12 C 98.90,18.11 98.90,18.10 98.90,18.09 C 98.90,18.08 98.90,18.08 98.90,18.07 C 98.90,18.06 98.90,18.05 98.90,18.05 C 98.90,18.04 98.90,18.03 98.91,18.02 C 98.91,18.02 98.91,18.01 98.91,18.00 C 98.91,17.99 98.91,17.99 98.91,17.98 C 98.91,17.97 98.91,17.97 98.91,17.96 C 98.91,17.95 98.92,17.94 98.92,17.94 C 98.92,17.93 98.92,17.92 98.92,17.92 C 98.92,17.91 98.92,17.90 98.92,17.90 C 98.92,17.89 98.92,17.88 98.92,17.88 C 98.92,17.87 98.92,17.86 98.93,17.86 C 98.93,17.85 98.93,17.85 98.93,17.84 C 98.93,17.83 98.93,17.83 98.93,17.82 C 98.93,17.81 98.93,17.81 98.93,17.80 C 98.93,17.80 98.93,17.79 98.93,17.78 C 98.94,17.78 98.94,17.77 98.94,17.77 C 98.94,17.76 98.94,17.76 98.94,17.75 C 98.94,17.74 98.94,17.74 98.94,17.73 C 98.94,17.73 98.94,17.72 98.94,17.72 C 98.94,17.71 98.94,17.71 98.94,17.70 C 98.95,17.70 98.95,17.69 98.95,17.68 C 98.95,17.68 98.95,17.67 98.95,17.67 C 98.95,17.66 98.95,17.66 98.95,17.65 C 98.95,17.65 98.95,17.64 98.95,17.64 C 98.95,17.63 98.95,17.63 98.95,17.62 C 98.95,17.62 98.95,17.62 98.96,17.61 C 98.96,17.61 98.96,17.60 98.96,17.60 C 98.96,17.59 98.96,17.59 98.96,17.58 C 98.96,17.58 98.96,17.57 98.96,17.57 C 98.96,17.57 98.96,17.56 98.96,17.56 C 98.96,17.55 98.96,17.55 98.96,17.54 C 98.96,17.54 98.96,17.54 98.96,17.53 C 98.97,17.53 98.97,17.52 98.97,17.52 C 98.97,17.52 98.97,17.51 98.97,17.51 C 98.97,17.50 98.97,17.50 98.97,17.50 C 98.97,17.49 98.97,17.49 98.97,17.48 C 98.97,17.48 98.97,17.48 98.97,17.47 C 98.97,17.47 98.97,17.47 98.97,17.46 C 98.97,17.46 98.97,17.46 98.97,17.45 C 98.97,17.45 98.98,17.45 98.98,17.44 C 98.98,17.44 98.98,17.44 98.98,17.43 C 98.98,17.43 98.98,17.43 98.98,17.42 C 98.98,17.42 98.98,17.42 98.98,17.41 C 98.98,17.41 98.98,17.41 98.98,17.40 C 98.98,17.40 98.98,17.40 98.98,17.39 C 98.98,17.39 98.98,17.39 98.98,17.39 C 98.98,17.38 98.98,17.38 98.98,17.38 C 98.98,17.37 98.98,17.37 98.98,17.37 C 98.98,17.37 98.98,17.36 98.99,17.36 C 98.99,17.36 98.99,17.36 98.99,17.35 C 98.99,17.35 98.99,17.35 98.99,17.35 C 98.99,17.34 98.99,17.34 98.99,17.34 C 98.99,17.34 98.99,17.33 98.99,17.33 C 98.99,17.33 98.99,17.33 98.99,17.32 C 98.99,17.32 98.99,17.32 98.99,17.32 C 98.99,17.31 98.99,17.31 98.99,17.31 C 98.99,17.31 98.99,17.31 98.99,17.30 C 98.99,17.30 98.99,17.30 98.99,17.30 C 98.99,17.29 98.99,17.29 98.99,17.29 C 98.99,17.29 98.99,17.29 98.99,17.28 C 98.99,17.28 98.99,17.28 98.99,17.28 C 99.00,17.28 99.00,17.28 99.00,17.27 C 99.00,17.27 99.00,17.27 99.00,17.27 C 99.00,17.27 99.00,17.26 99.00,17.26 C 99.00,17.26 99.00,17.26 99.00,17.26 C 99.00,17.26 99.00,17.25 99.00,17.25 C 99.00,17.25 99.00,17.25 99.00,17.25 C 99.00,17.25 99.00,17.24 99.00,17.24 C 99.00,17.24 99.00,17.24 99.00,17.24 C 99.00,17.24 99.00,17.24 99.00,17.23 C 99.00,17.23 99.00,17.23 99.00,17.23 C 99.00,17.23 99.00,17.23 99.00,17.23 C 99.00,17.23 99.00,17.22 99.00,17.22 C 99.00,17.22 99.00,17.22 99.00,17.22 C 99.00,17.22 99.00,17.22 99.00,17.22 C 99.00,17.21 99.00,17.21 99.00,17.21 C 99.00,17.21 99.00,17.21 99.00,17.21 C 99.00,17.21 99.00,17.21 99.00,17.21 C 99.00,17.20 99.00,17.20 99.00,17.20 C 99.00,17.20 99.00,17.20 99.00,17.20 C 99.00,17.20 99.00,17.20 99.00,17.20 C 99.00,17.20 99.00,17.19 99.01,17.19 C 99.01,17.19 99.01,17.19 99.01,17.19 C 99.01,17.19 99.01,17.19 99.01,17.19 C 99.01,17.19 99.01,17.19 99.01,17.19 C 99.01,17.18 99.01,17.18 99.01,17.18 C 99.01,17.18 99.01,17.18 99.01,17.18 C 99.01,17.18 99.01,17.18 99.01,17.18 C 99.01,17.18 99.01,17.18 99.01,17.18 C 99.01,17.18 99.01,17.18 99.01,17.17 C 99.01,17.17 99.01,17.17 99.01,17.17 C 99.01,17.17 99.01,17.17 99.01,17.17 C 99.01,17.17 99.01,17.17 99.01,17.17 C 99.01,17.17 99.01,17.17 99.01,17.17 C 99.01,17.17 99.01,17.17 99.01,17.17 C 99.01,17.17 99.01,17.16 99.01,17.16 C 99.01,17.16 99.01,17.16 99.01,17.16 C 99.01,17.16 99.01,17.16 99.01,17.16 C 99.01,17.16 99.01,17.16 99.01,17.16 C 99.01,17.16 99.01,17.16 99.01,17.16 C 99.01,17.16 99.01,17.16 99.01,17.16 C 99.01,17.16 99.01,17.16 99.01,17.16 C 99.01,17.16 99.01,17.16 99.01,17.16 C 99.01,17.16 99.01,17.16 99.01,17.15 C 99.01,17.15 99.01,17.15 99.01,17.15 C 99.01,17.15 99.01,17.15 99.01,17.15 C 99.01,17.15 99.01,17.15 99.01,17.15 C 99.01,17.15 99.01,17.15 99.01,17.15 C 99.01,17.15 99.01,17.15 99.01,17.15 C 99.01,17.15 99.01,17.15 99.01,17.15 C 99.01,17.15 99.01,17.15 99.01,17.15 C 99.01,17.15 99.01,17.15 99.01,17.15 C 99.01,17.15 99.01,17.15 99.01,17.15 C 99.01,17.15 99.01,17.15 99.01,17.15 C 99.01,17.15 99.01,17.15 99.01,17.15 C 99.01,17.15 99.01,17.15 99.01,17.15 C 99.01,17.15 99.01,17.15 99.01,17.15 C 99.01,17.15 99.01,17.15 99.01,17.15 C 99.01,17.15 99.01,17.15 99.01,17.15 C 99.01,17.15 99.01,17.15 99.01,17.15 C 99.01,17.15 99.01,17.15 99.01,17.15 C 99.01,17.15 99.01,17.14 99.01,17.14 C 99.01,17.14 99.01,17.14 99.01,17.14 C 99.01,17.14 99.01,17.14 99.01,17.14 C 99.01,17.14 99.01,17.14 99.01,17.14 C 99.01,17.14 99.01,17.14 99.01,17.14 C 99.01,17.14 99.01,17.14 99.01,17.14 C 99.01,17.14 99.01,17.14 99.01,17.14 C 99.01,17.14 99.01,17.14 99.01,17.14 C 99.01,17.14 99.01,17.14 99.01,17.14 C 99.01,17.14 99.01,17.14 99.01,17.14 C 99.01,17.14 99.01,17.14 99.01,17.14 C 99.01,17.14 99.01,17.14 99.01,17.14 C 99.01,17.14 99.01,17.14 99.01,17.14 C 99.01,17.14 99.01,17.14 99.01,17.14 C 99.01,17.14 99.01,17.14 99.01,17.14 C 99.01,17.14 99.01,17.14 99.01,17.14 C 99.01,17.14 99.01,17.14 99.01,17.14 C 99.01,17.14 99.01,17.14 99.01,17.14 C 99.01,17.14 99.01,17.14 99.01,17.14 C 99.01,17.14 99.01,17.14 99.01,17.14 C 99.01,17.14 99.01,17.14 99.01,17.14 C 99.01,17.14 99.01,17.14 99.01,17.14 C 99.01,17.14 99.01,17.14 99.01,17.14 C 99.01,17.14 99.01,17.14 99.01,17.14 C 99.01,17.14 99.01,17.14 99.01,17.14 C 99.01,17.14 99.01,17.14 99.01,17.14 C 99.01,17.14 99.01,17.14 99.01,17.14 C 99.01,17.14 99.01,17.14 99.01,17.14 C 99.01,17.14 99.01,17.14 99.01,17.14 C 99.01,17.14 99.01,17.14 99.01,17.14 C 99.01,17.14 99.01,17.14 99.01,17.14" />
    <path d="M 120.99,202.86 C 120.99,202.86 120.99,202.86 120.99,202.86 C 120.99,202.86 120.99,202.86 120.99,202.86 C 120.99,202.86 120.99,202.86 120.99,202.86 C 120.99,202.86 120.99,202.86 120.99,202.86 C 120.99,202.86 120.99,202.86 120.99,202.86 C 120.99,202.86 120.99,202.86 120.99,202.86 C 120.99,202.86 120.99,202.86 120.99,202.86 C 120.99,202.86 120.99,202.86 120.99,202.86 C 120.99,202.86 120.99,202.86 120.99,202.86 C 120.99,202.86 120.99,202.86 120.99,202.86 C 120.99,202.86 120.99,202.86 120.99,202.86 C 120.99,202.86 120.99,202.86 120.99,202.86 C 120.99,202.86 120.99,202.86 120.99,202.86 C 120.99,202.86 120.99,202.86 120.99,202.86 C 120.99,202.86 120.99,202.86 120.99,202.86 C 120.99,202.86 120.99,202.86 120.99,202.86 C 120.99,202.86 120.99,202.86 120.99,202.86 C 120.99,202.86 120.99,202.86 120.99,202.86 C 120.99,202.86 120.99,202.86 120.99,202.86 C 120.99,202.86 120.99,202.86 120.99,202.86 C 120.99,202.86 120.99,202.86 120.99,202.86 C 120.99,202.86 120.99,202.86 120.99,202.86 C 120.99,202.86 120.99,202.86 120.99,202.86 C 120.99,202.86 120.99,202.86 120.99,202.86 C 120.99,202.86 120.99,202.86 120.99,202.86 C 120.99,202.86 120.99,202.86 120.99,202.86 C 120.99,202.86 120.99,202.86 120.99,202.86 C 120.99,202.86 120.99,202.86 120.99,202.86 C 120.99,202.86 120.99,202.86 120.99,202.86 C 120.99,202.86 120.99,202.86 120.99,202.86 C 120.99,202.86 120.99,202.85 120.99,202.85 C 120.99,202.85 120.99,202.85 120.99,202.85 C 120.99,202.85 120.99,202.85 120.99,202.85 C 120.99,202.85 120.99,202.85 120.99,202.85 C 120.99,202.85 120.99,202.85 120.99,202.85 C 120.99,202.85 120.99,202.85 120.99,202.85 C 120.99,202.85 120.99,202.85 120.99,202.85 C 120.99,202.85 120.99,202.85 120.99,202.85 C 120.99,202.85 120.99,202.85 120.99,202.85 C 120.99,202.85 120.99,202.85 120.99,202.85 C 120.99,202.85 120.99,202.85 120.99,202.85 C 120.99,202.85 120.99,202.85 120.99,202.85 C 120.99,202.85 120.99,202.85 120.99,202.85 C 120.99,202.85 120.99,202.85 120.99,202.85 C 120.99,202.85 120.99,202.85 120.99,202.85 C 120.99,202.85 120.99,202.85 120.99,202.85 C 120.99,202.85 120.99,202.85 120.99,202.85 C 120.99,202.85 120.99,202.85 120.99,202.85 C 120.99,202.84 120.99,202.84 120.99,202.84 C 120.99,202.84 120.99,202.84 120.99,202.84 C 120.99,202.84 120.99,202.84 120.99,202.84 C 120.99,202.84 120.99,202.84 120.99,202.84 C 120.99,202.84 120.99,202.84 120.99,202.84 C 120.99,202.84 120.99,202.84 120.99,202.84 C 120.99,202.84 120.99,202.84 120.99,202.84 C 120.99,202.84 120.99,202.84 120.99,202.84 C 120.99,202.84 120.99,202.83 120.99,202.83 C 120.99,202.83 120.99,202.83 120.99,202.83 C 120.99,202.83 120.99,202.83 120.99,202.83 C 120.99,202.83 120.99,202.83 120.99,202.83 C 120.99,202.83 120.99,202.83 120.99,202.83 C 120.99,202.83 120.99,202.83 120.99,202.83 C 120.99,202.82 120.99,202.82 120.99,202.82 C 120.99,202.82 120.99,202.82 120.99,202.82 C 120.99,202.82 120.99,202.82 120.99,202.82 C 120.99,202.82 120.99,202.82 120.99,202.82 C 120.99,202.82 120.99,202.82 120.99,202.81 C 120.99,202.81 120.99,202.81 120.99,202.81 C 120.99,202.81 120.99,202.81 120.99,202.81 C 120.99,202.81 120.99,202.81 120.99,202.81 C 121.00,202.81 121.00,202.80 121.00,202.80 C 121.00,202.80 121.00,202.80 121.00,202.80 C 121.00,202.80 121.00,202.80 121.00,202.80 C 121.00,202.80 121.00,202.80 121.00,202.79 C 121.00,202.79 121.00,202.79 121.00,202.79 C 121.00,202.79 121.00,202.79 121.00,202.79 C 121.00,202.79 121.00,202.79 121.00,202.78 C 121.00,202.78 121.00,202.78 121.00,202.78 C 121.00,202.78 121.00,202.78 121.00,202.78 C 121.00,202.78 121.00,202.77 121.00,202.77 C 121.00,202.77 121.00,202.77 121.00,202.77 C 121.00,202.77 121.00,202.77 121.00,202.77 C 121.00,202.76 121.00,202.76 121.00,202.76 C 121.00,202.76 121.00,202.76 121.00,202.76 C 121.00,202.76 121.00,202.75 121.00,202.75 C 121.00,202.75 121.00,202.75 121.00,202.75 C 121.00,202.75 121.00,202.74 121.00,202.74 C 121.00,202.74 121.00,202.74 121.00,202.74 C 121.00,202.74 121.00,202.73 121.00,202.73 C 121.00,202.73 121.00,202.73 121.00,202.73 C 121.00,202.72 121.00,202.72 121.01,202.72 C 121.01,202.72 121.01,202.72 121.01,202.72 C 121.01,202.71 121.01,202.71 121.01,202.71 C 121.01,202.71 121.01,202.71 121.01,202.70 C 121.01,202.70 121.01,202.70 121.01,202.70 C 121.01,202.69 121.01,202.69 121.01,202.69 C 121.01,202.69 121.01,202.69 121.01,202.68 C 121.01,202.68 121.01,202.68 121.01,202.68 C 121.01,202.67 121.01,202.67 121.01,202.67 C 121.01,202.67 121.01,202.66 121.01,202.66 C 121.01,202.66 121.01,202.66 121.01,202.65 C 121.01,202.65 121.01,202.65 121.01,202.65 C 121.01,202.64 121.01,202.64 121.01,202.64 C 121.02,202.64 121.02,202.63 121.02,202.63 C 121.02,202.63 121.02,202.63 121.02,202.62 C 121.02,202.62 121.02,202.62 121.02,202.61 C 121.02,202.61 121.02,202.61 121.02,202.61 C 121.02,202.60 121.02,202.60 121.02,202.60 C 121.02,202.59 121.02,202.59 121.02,202.59 C 121.02,202.58 121.02,202.58 121.02,202.58 C 121.02,202.57 121.02,202.57 121.02,202.57 C 121.02,202.56 121.02,202.56 121.02,202.56 C 121.02,202.55 121.03,202.55 121.03,202.55 C 121.03,202.54 121.03,202.54 121.03,202.54 C 121.03,202.53 121.03,202.53 121.03,202.53 C 121.03,202.52 121.03,202.52 121.03,202.52 C 121.03,202.51 121.03,202.51 121.03,202.50 C 121.03,202.50 121.03,202.50 121.03,202.49 C 121.03,202.49 121.03,202.48 121.03,202.48 C 121.03,202.48 121.03,202.47 121.04,202.47 C 121.04,202.46 121.04,202.46 121.04,202.46 C 121.04,202.45 121.04,202.45 121.04,202.44 C 121.04,202.44 121.04,202.43 121.04,202.43 C 121.04,202.43 121.04,202.42 121.04,202.42 C 121.04,202.41 121.04,202.41 121.04,202.40 C 121.04,202.40 121.04,202.39 121.04,202.39 C 121.05,202.38 121.05,202.38 121.05,202.38 C 121.05,202.37 121.05,202.37 121.05,202.36 C 121.05,202.36 121.05,202.35 121.05,202.35 C 121.05,202.34 121.05,202.34 121.05,202.33 C 121.05,202.33 121.05,202.32 121.05,202.32 C 121.05,202.31 121.05,202.30 121.06,202.30 C 121.06,202.29 121.06,202.29 121.06,202.28 C 121.06,202.28 121.06,202.27 121.06,202.27 C 121.06,202.26 121.06,202.26 121.06,202.25 C 121.06,202.24 121.06,202.24 121.06,202.23 C 121.06,202.23 121.06,202.22 121.07,202.22 C 121.07,202.21 121.07,202.20 121.07,202.20 C 121.07,202.19 121.07,202.19 121.07,202.18 C 121.07,202.17 121.07,202.17 121.07,202.16 C 121.07,202.15 121.07,202.15 121.07,202.14 C 121.08,202.14 121.08,202.13 121.08,202.12 C 121.08,202.12 121.08,202.11 121.08,202.10 C 121.08,202.10 121.08,202.09 121.08,202.08 C 121.08,202.08 121.08,202.07 121.08,202.06 C 121.08,202.06 121.09,202.05 121.09,202.04 C 121.09,202.03 121.09,202.03 121.09,202.02 C 121.09,202.01 121.09,202.01 121.09,202.00 C 121.09,201.99 121.09,201.98 121.09,201.98 C 121.10,201.97 121.10,201.96 121.10,201.95 C 121.10,201.95 121.10,201.94 121.10,201.93 C 121.10,201.92 121.10,201.92 121.10,201.91 C 121.10,201.90 121.10,201.89 121.11,201.88 C 121.11,201.88 121.11,201.87 121.11,201.86 C 121.11,201.85 121.11,201.84 121.11,201.84 C 121.11,201.83 121.11,201.82 121.11,201.81 C 121.12,201.80 121.12,201.79 121.12,201.79 C 121.12,201.78 121.12,201.77 121.12,201.76 C 121.12,201.75 121.12,201.74 121.12,201.73 C 121.12,201.72 121.13,201.72 121.13,201.71 C 121.13,201.70 121.13,201.69 121.13,201.68 C 121.13,201.67 121.13,201.66 121.13,201.65 C 121.13,201.64 121.14,201.63 121.14,201.62 C 121.14,201.61 121.14,201.60 121.14,201.59 C 121.14,201.58 121.14,201.58 121.14,201.57 C 121.15,201.56 121.15,201.55 121.15,201.54 C 121.15,201.53 121.15,201.52 121.15,201.51 C 121.15,201.50 121.15,201.49 121.16,201.48 C 121.16,201.47 121.16,201.45 121.16,201.44 C 121.16,201.43 121.16,201.42 121.16,201.41 C 121.16,201.40 121.17,201.39 121.17,201.38 C 121.17,201.37 121.17,201.36 121.17,201.35 C 121.17,201.34 121.17,201.33 121.17,201.32 C 121.18,201.30 121.18,201.29 121.18,201.28 C 121.18,201.27 121.18,201.26 121.18,201.25 C 121.18,201.24 121.19,201.22 121.19,201.21 C 121.19,201.20 121.19,201.19 121.19,201.18 C 121.19,201.17 121.19,201.15 121.20,201.14 C 121.20,201.13 121.20,201.12 121.20,201.11 C 121.20,201.09 121.20,201.08 121.20,201.07 C 121.21,201.06 121.21,201.04 121.21,201.03 C 121.21,201.02 121.21,201.01 121.21,200.99 C 121.22,200.98 121.22,200.97 121.22,200.96 C 121.22,200.94 121.22,200.93 121.22,200.92 C 121.23,200.90 121.23,200.89 121.23,200.88 C 121.23,200.86 121.23,200.85 121.23,200.84 C 121.24,200.82 121.24,200.81 121.24,200.80 C 121.24,200.78 121.24,200.77 121.24,200.76 C 121.25,200.74 121.25,200.73 121.25,200.71 C 121.25,200.70 121.25,200.69 121.25,200.67 C 121.26,200.66 121.26,200.64 121.26,200.63 C 121.26,200.61 121.26,200.60 121.26,200.58 C 121.27,200.57 121.27,200.55 121.27,200.54 C 121.27,200.53 121.27,200.51 121.28,200.50 C 121.28,200.48 121.28,200.47 121.28,200.45 C 121.28,200.43 121.29,200.42 121.29,200.40 C 121.29,200.39 121.29,200.37 121.29,200.36 C 121.29,200.34 121.30,200.33 121.30,200.31 C 121.30,200.29 121.30,200.28 121.30,200.26 C 121.31,200.25 121.31,200.23 121.31,200.21 C 121.31,200.20 121.32,200.18 121.32,200.16 C 121.32,200.15 121.32,200.13 121.32,200.11 C 121.33,200.10 121.33,200.08 121.33,200.06 C 121.33,200.05 121.33,200.03 121.34,200.01 C 121.34,200.00 121.34,199.98 121.34,199.96 C 121.34,199.94 121.35,199.93 121.35,199.91 C 121.35,199.89 121.35,199.87 121.36,199.86 C 121.36,199.84 121.36,199.82 121.36,199.80 C 121.37,199.78 121.37,199.77 121.37,199.75 C 121.37,199.73 121.37,199.71 121.38,199.69 C 121.38,199.68 121.38,199.66 121.38,199.64 C 121.39,199.62 121.39,199.60 121.39,199.58 C 121.39,199.56 121.40,199.54 121.40,199.52 C 121.40,199.51 121.40,199.49 121.41,199.47 C 121.41,199.45 121.41,199.43 121.41,199.41 C 121.42,199.39 121.42,199.37 121.42,199.35 C 121.42,199.33 121.43,199.31 121.43,199.29 C 121.43,199.27 121.43,199.25 121.44,199.23 C 121.44,199.21 121.44,199.19 121.44,199.17 C 121.45,199.15 121.45,199.13 121.45,199.11 C 121.45,199.09 121.46,199.07 121.46,199.04 C 121.46,199.02 121.47,199.00 121.47,198.98 C 121.47,198.96 121.47,198.94 121.48,198.92 C 121.48,198.90 121.48,198.87 121.48,198.85 C 121.49,198.83 121.49,198.81 121.49,198.79 C 121.50,198.76 121.50,198.74 121.50,198.72 C 121.50,198.70 121.51,198.68 121.51,198.65 C 121.51,198.63 121.52,198.61 121.52,198.59 C 121.52,198.56 121.52,198.54 121.53,198.52 C 121.53,198.50 121.53,198.47 121.54,198.45 C 121.54,198.43 121.54,198.40 121.55,198.38 C 121.55,198.36 121.55,198.33 121.55,198.31 C 121.56,198.29 121.56,198.26 121.56,198.24 C 121.57,198.21 121.57,198.19 121.57,198.17 C 121.58,198.14 121.58,198.12 121.58,198.09 C 121.59,198.07 121.59,198.04 121.59,198.02 C 121.60,197.99 121.60,197.97 121.60,197.95 C 121.61,197.92 121.61,197.90 121.61,197.87 C 121.62,197.85 121.62,197.82 121.62,197.79 C 121.63,197.77 121.63,197.74 121.63,197.72 C 121.64,197.69 121.64,197.67 121.64,197.64 C 121.65,197.62 121.65,197.59 121.65,197.56 C 121.66,197.54 121.66,197.51 121.66,197.48 C 121.67,197.46 121.67,197.43 121.67,197.40 C 121.68,197.38 121.68,197.35 121.69,197.32 C 121.69,197.30 121.69,197.27 121.70,197.24 C 121.70,197.22 121.70,197.19 121.71,197.16 C 121.71,197.13 121.71,197.11 121.72,197.08 C 121.72,197.05 121.73,197.02 121.73,197.00 C 121.73,196.97 121.74,196.94 121.74,196.91 C 121.74,196.88 121.75,196.85 121.75,196.83 C 121.76,196.80 121.76,196.77 121.76,196.74 C 121.77,196.71 121.77,196.68 121.78,196.65 C 121.78,196.62 121.78,196.60 121.79,196.57 C 121.79,196.54 121.80,196.51 121.80,196.48 C 121.80,196.45 121.81,196.42 121.81,196.39 C 121.82,196.36 121.82,196.33 121.82,196.30 C 121.83,196.27 121.83,196.24 121.84,196.21 C 121.84,196.18 121.84,196.15 121.85,196.12 C 121.85,196.09 121.86,196.06 121.86,196.03 C 121.87,195.99 121.87,195.96 121.87,195.93 C 121.88,195.90 121.88,195.87 121.89,195.84 C 121.89,195.81 121.90,195.78 121.90,195.74 C 121.90,195.71 121.91,195.68 121.91,195.65 C 121.92,195.62 121.92,195.59 121.93,195.55 C 121.93,195.52 121.94,195.49 121.94,195.46 C 121.95,195.42 121.95,195.39 121.95,195.36 C 121.96,195.33 121.96,195.29 121.97,195.26 C 121.97,195.23 121.98,195.19 121.98,195.16 C 121.99,195.13 121.99,195.09 122.00,195.06 C 122.00,195.03 122.01,194.99 122.01,194.96 C 122.02,194.93 122.02,194.89 122.02,194.86 C 122.03,194.82 122.03,194.79 122.04,194.76 C 122.04,194.72 122.05,194.69 122.05,194.65 C 122.06,194.62 122.06,194.58 122.07,194.55 C 122.07,194.51 122.08,194.48 122.08,194.44 C 122.09,194.41 122.09,194.37 122.10,194.34 C 122.10,194.30 122.11,194.27 122.11,194.23 C 122.12,194.20 122.12,194.16 122.13,194.12 C 122.14,194.09 122.14,194.05 122.15,194.02 C 122.15,193.98 122.16,193.94 122.16,193.91 C 122.17,193.87 122.17,193.83 122.18,193.80 C 122.18,193.76 122.19,193.72 122.19,193.69 C 122.20,193.65 122.20,193.61 122.21,193.57 C 122.21,193.54 122.22,193.50 122.23,193.46 C 122.23,193.42 122.24,193.39 122.24,193.35 C 122.25,193.31 122.25,193.27 122.26,193.24 C 122.26,193.20 122.27,193.16 122.28,193.12 C 122.28,193.08 122.29,193.04 122.29,193.01 C 122.30,192.97 122.30,192.93 122.31,192.89 C 122.32,192.85 122.32,192.81 122.33,192.77 C 122.33,192.73 122.34,192.69 122.35,192.65 C 122.35,192.62 122.36,192.58 122.36,192.54 C 122.37,192.50 122.38,192.46 122.38,192.42 C 122.39,192.38 122.39,192.34 122.40,192.30 C 122.41,192.26 122.41,192.22 122.42,192.18 C 122.42,192.14 122.43,192.09 122.44,192.05 C 122.44,192.01 122.45,191.97 122.45,191.93 C 122.46,191.89 122.47,191.85 122.47,191.81 C 122.48,191.77 122.49,191.73 122.49,191.68 C 122.50,191.64 122.50,191.60 122.51,191.56 C 122.52,191.52 122.52,191.48 122.53,191.43 C 122.54,191.39 122.54,191.35 122.55,191.31 C 122.56,191.26 122.56,191.22 122.57,191.18 C 122.58,191.14 122.58,191.09 122.59,191.05 C 122.60,191.01 122.60,190.97 122.61,190.92 C 122.62,190.88 122.62,190.84 122.63,190.79 C 122.64,190.75 122.64,190.71 122.65,190.66 C 122.66,190.62 122.66,190.58 122.67,190.53 C 122.68,190.49 122.68,190.44 122.69,190.40 C 122.70,190.36 122.71,190.31 122.71,190.27 C 122.72,190.22 122.73,190.18 122.73,190.13 C 122.74,190.09 122.75,190.04 122.76,190.00 C 122.76,189.96 122.77,189.91 122.78,189.87 C 122.78,189.82 122.79,189.77 122.80,189.73 C 122.81,189.68 122.81,189.64 122.82,189.59 C 122.83,189.55 122.83,189.50 122.84,189.46 C 122.85,189.41 122.86,189.36 122.86,189.32 C 122.87,189.27 122.88,189.23 122.89,189.18 C 122.89,189.13 122.90,189.09 122.91,189.04 C 122.92,188.99 122.93,188.95 122.93,188.90 C 122.94,188.85 122.95,188.81 122.96,188.76 C 122.96,188.71 122.97,188.67 122.98,188.62 C 122.99,188.57 122.99,188.52 123.00,188.48 C 123.01,188.43 123.02,188.38 123.03,188.33 C 123.03,188.29 123.04,188.24 123.05,188.19 C 123.06,188.14 123.07,188.09 123.07,188.05 C 123.08,188.00 123.09,187.95 123.10,187.90 C 123.11,187.85 123.12,187.80 123.12,187.75 C 123.13,187.71 123.14,187.66 123.15,187.61 C 123.16,187.56 123.16,187.51 123.17,187.46 C 123.18,187.41 123.19,187.36 123.20,187.31 C 123.21,187.26 123.22,187.21 123.22,187.16 C 123.23,187.12 123.24,187.07 123.25,187.02 C 123.26,186.97 123.27,186.92 123.28,186.87 C 123.28,186.82 123.29,186.77 123.30,186.72 C 123.31,186.67 123.32,186.61 123.33,186.56 C 123.34,186.51 123.35,186.46 123.35,186.41 C 123.36,186.36 123.37,186.31 123.38,186.26 C 123.39,186.21 123.40,186.16 123.41,186.11 C 123.42,186.06 123.43,186.00 123.43,185.95 C 123.44,185.90 123.45,185.85 123.46,185.80 C 123.47,185.75 123.48,185.70 123.49,185.64 C 123.50,185.59 123.51,185.54 123.52,185.49 C 123.53,185.44 123.54,185.38 123.55,185.33 C 123.55,185.28 123.56,185.23 123.57,185.17 C 123.58,185.12 123.59,185.07 123.60,185.02 C 123.61,184.96 123.62,184.91 123.63,184.86 C 123.64,184.81 123.65,184.75 123.66,184.70 C 123.67,184.65 123.68,184.59 123.69,184.54 C 123.70,184.49 123.71,184.43 123.72,184.38 C 123.73,184.33 123.74,184.27 123.75,184.22 C 123.76,184.17 123.77,184.11 123.78,184.06 C 123.79,184.01 123.80,183.95 123.81,183.90 C 123.82,183.84 123.83,183.79 123.84,183.74 C 123.85,183.68 123.86,183.63 123.87,183.57 C 123.88,183.52 123.89,183.46 123.90,183.41 C 123.91,183.35 123.92,183.30 123.93,183.25 C 123.94,183.19 123.95,183.14 123.96,183.08 C 123.97,183.03 123.98,182.97 123.99,182.92 C 124.00,182.86 124.02,182.81 124.03,182.75 C 124.04,182.70 124.05,182.64 124.06,182.58 C 124.07,182.53 124.08,182.47 124.09,182.42 C 124.10,182.36 124.11,182.31 124.12,182.25 C 124.13,182.19 124.15,182.14 124.16,182.08 C 124.17,182.03 124.18,181.97 124.19,181.91 C 124.20,181.86 124.21,181.80 124.22,181.75 C 124.23,181.69 124.24,181.63 124.26,181.58 C 124.27,181.52 124.28,181.46 124.29,181.41 C 124.30,181.35 124.31,181.29 124.32,181.24 C 124.34,181.18 124.35,181.12 124.36,181.07 C 124.37,181.01 124.38,180.95 124.39,180.90 C 124.40,180.84 124.42,180.78 124.43,180.72 C 124.44,180.67 124.45,180.61 124.46,180.55 C 124.47,180.49 124.49,180.44 124.50,180.38 C 124.51,180.32 124.52,180.26 124.53,180.21 C 124.55,180.15 124.56,180.09 124.57,180.03 C 124.58,179.98 124.59,179.92 124.61,179.86 C 124.62,179.80 124.63,179.74 124.64,179.69 C 124.66,179.63 124.67,179.57 124.68,179.51 C 124.69,179.45 124.70,179.39 124.72,179.34 C 124.73,179.28 124.74,179.22 124.75,179.16 C 124.77,179.10 124.78,179.04 124.79,178.98 C 124.80,178.93 124.82,178.87 124.83,178.81 C 124.84,178.75 124.85,178.69 124.87,178.63 C 124.88,178.57 124.89,178.51 124.91,178.46 C 124.92,178.40 124.93,178.34 124.94,178.28 C 124.96,178.22 124.97,178.16 124.98,178.10 C 125.00,178.04 125.01,177.98 125.02,177.92 C 125.04,177.86 125.05,177.80 125.06,177.74 C 125.08,177.68 125.09,177.63 125.10,177.57 C 125.12,177.51 125.13,177.45 125.14,177.39 C 125.16,177.33 125.17,177.27 125.18,177.21 C 125.20,177.15 125.21,177.09 125.22,177.03 C 125.24,176.97 125.25,176.91 125.26,176.85 C 125.28,176.79 125.29,176.73 125.31,176.67 C 125.32,176.61 125.33,176.55 125.35,176.49 C 125.36,176.43 125.38,176.37 125.39,176.31 C 125.40,176.25 125.42,176.18 125.43,176.12 C 125.45,176.06 125.46,176.00 125.47,175.94 C 125.49,175.88 125.50,175.82 125.52,175.76 C 125.53,175.70 125.55,175.64 125.56,175.58 C 125.57,175.52 125.59,175.46 125.60,175.40 C 125.62,175.34 125.63,175.28 125.65,175.21 C 125.66,175.15 125.68,175.09 125.69,175.03 C 125.71,174.97 125.72,174.91 125.74,174.85 C 125.75,174.79 125.76,174.73 125.78,174.67 C 125.79,174.60 125.81,174.54 125.82,174.48 C 125.84,174.42 125.85,174.36 125.87,174.30 C 125.88,174.24 125.90,174.18 125.92,174.11 C 125.93,174.05 125.95,173.99 125.96,173.93 C 125.98,173.87 125.99,173.81 126.01,173.75 C 126.02,173.69 126.04,173.62 126.05,173.56 C 126.07,173.50 126.08,173.44 126.10,173.38 C 126.12,173.32 126.13,173.25 126.15,173.19 C 126.16,173.13 126.18,173.07 126.19,173.01 C 126.21,172.95 126.23,172.88 126.24,172.82 C 126.26,172.76 126.27,172.70 126.29,172.64 C 126.31,172.58 126.32,172.51 126.34,172.45 C 126.36,172.39 126.37,172.33 126.39,172.27 C 126.40,172.20 126.42,172.14 126.44,172.08 C 126.45,172.02 126.47,171.96 126.49,171.90 C 126.50,171.83 126.52,171.77 126.54,171.71 C 126.55,171.65 126.57,171.59 126.59,171.52 C 126.60,171.46 126.62,171.40 126.64,171.34 C 126.65,171.28 126.67,171.21 126.69,171.15 C 126.70,171.09 126.72,171.03 126.74,170.96 C 126.75,170.90 126.77,170.84 126.79,170.78 C 126.81,170.72 126.82,170.65 126.84,170.59 C 126.86,170.53 126.88,170.47 126.89,170.41 C 126.91,170.34 126.93,170.28 126.95,170.22 C 126.96,170.16 126.98,170.09 127.00,170.03 C 127.02,169.97 127.03,169.91 127.05,169.85 C 127.07,169.78 127.09,169.72 127.10,169.66 C 127.12,169.60 127.14,169.53 127.16,169.47 C 127.18,169.41 127.19,169.35 127.21,169.29 C 127.23,169.22 127.25,169.16 127.27,169.10 C 127.28,169.04 127.30,168.97 127.32,168.91 C 127.34,168.85 127.36,168.79 127.38,168.72 C 127.39,168.66 127.41,168.60 127.43,168.54 C 127.45,168.48 127.47,168.41 127.49,168.35 C 127.51,168.29 127.52,168.23 127.54,168.16 C 127.56,168.10 127.58,168.04 127.60,167.98 C 127.62,167.92 127.64,167.85 127.66,167.79 C 127.68,167.73 127.70,167.67 127.71,167.60 C 127.73,167.54 127.75,167.48 127.77,167.42 C 127.79,167.35 127.81,167.29 127.83,167.23 C 127.85,167.17 127.87,167.11 127.89,167.04 C 127.91,166.98 127.93,166.92 127.95,166.86 C 127.97,166.79 127.99,166.73 128.01,166.67 C 128.03,166.61 128.05,166.55 128.07,166.48 C 128.09,166.42 128.11,166.36 128.13,166.30 C 128.15,166.24 128.17,166.17 128.19,166.11 C 128.21,166.05 128.23,165.99 128.25,165.93 C 128.27,165.86 128.29,165.80 128.31,165.74 C 128.33,165.68 128.35,165.62 128.37,165.55 C 128.39,165.49 128.41,165.43 128.43,165.37 C 128.45,165.31 128.47,165.24 128.49,165.18 C 128.51,165.12 128.53,165.06 128.55,165.00 C 128.58,164.93 128.60,164.87 128.62,164.81 C 128.64,164.75 128.66,164.69 128.68,164.62 C 128.70,164.56 128.72,164.50 128.74,164.44 C 128.77,164.38 128.79,164.32 128.81,164.25 C 128.83,164.19 128.85,164.13 128.87,164.07 C 128.89,164.01 128.92,163.95 128.94,163.88 C 128.96,163.82 128.98,163.76 129.00,163.70 C 129.02,163.64 129.05,163.58 129.07,163.51 C 129.09,163.45 129.11,163.39 129.13,163.33 C 129.16,163.27 129.18,163.21 129.20,163.15 C 129.22,163.08 129.24,163.02 129.27,162.96 C 129.29,162.90 129.31,162.84 129.33,162.78 C 129.36,162.72 129.38,162.66 129.40,162.59 C 129.42,162.53 129.45,162.47 129.47,162.41 C 129.49,162.35 129.51,162.29 129.54,162.23 C 129.56,162.17 129.58,162.11 129.61,162.04 C 129.63,161.98 129.65,161.92 129.68,161.86 C 129.70,161.80 129.72,161.74 129.75,161.68 C 129.77,161.62 129.79,161.56 129.82,161.50 C 129.84,161.44 129.86,161.38 129.89,161.31 C 129.91,161.25 129.93,161.19 129.96,161.13 C 129.98,161.07 130.00,161.01 130.03,160.95 C 130.05,160.89 130.08,160.83 130.10,160.77 C 130.12,160.71 130.15,160.65 130.17,160.59 C 130.20,160.53 130.22,160.47 130.24,160.41 C 130.27,160.35 130.29,160.29 130.32,160.23 C 130.34,160.17 130.37,160.11 130.39,160.05 C 130.41,159.99 130.44,159.93 130.46,159.87 C 130.49,159.81 130.51,159.74 130.54,159.69 C 130.56,159.63 130.59,159.57 130.61,159.51 C 130.64,159.45 130.66,159.39 130.69,159.33 C 130.71,159.27 130.74,159.21 130.76,159.15 C 130.79,159.09 130.81,159.03 130.84,158.97 C 130.86,158.91 130.89,158.85 130.91,158.79 C 130.94,158.73 130.97,158.67 130.99,158.61 C 131.02,158.55 131.04,158.49 131.07,158.43 C 131.09,158.37 131.12,158.31 131.15,158.26 C 131.17,158.20 131.20,158.14 131.22,158.08 C 131.25,158.02 131.28,157.96 131.30,157.90 C 131.33,157.84 131.36,157.78 131.38,157.72 C 131.41,157.66 131.43,157.61 131.46,157.55 C 131.49,157.49 131.51,157.43 131.54,157.37 C 131.57,157.31 131.59,157.25 131.62,157.20 C 131.65,157.14 131.67,157.08 131.70,157.02 C 131.73,156.96 131.76,156.90 131.78,156.84 C 131.81,156.79 131.84,156.73 131.86,156.67 C 131.89,156.61 131.92,156.55 131.95,156.50 C 131.97,156.44 132.00,156.38 132.03,156.32 C 132.06,156.26 132.08,156.21 132.11,156.15 C 132.14,156.09 132.17,156.03 132.20,155.97 C 132.22,155.92 132.25,155.86 132.28,155.80 C 132.31,155.74 132.34,155.69 132.36,155.63 C 132.39,155.57 132.42,155.51 132.45,155.46 C 132.48,155.40 132.51,155.34 132.53,155.28 C 132.56,155.23 132.59,155.17 132.62,155.11 C 132.65,155.05 132.68,155.00 132.71,154.94 C 132.73,154.88 132.76,154.83 132.79,154.77 C 132.82,154.71 132.85,154.66 132.88,154.60 C 132.91,154.54 132.94,154.49 132.97,154.43 C 133.00,154.37 133.03,154.32 133.06,154.26 C 133.08,154.20 133.11,154.15 133.14,154.09 C 133.17,154.03 133.20,153.98 133.23,153.92 C 133.26,153.86 133.29,153.81 133.32,153.75 C 133.35,153.70 133.38,153.64 133.41,153.58 C 133.44,153.53 133.47,153.47 133.50,153.42 C 133.53,153.36 133.56,153.30 133.59,153.25 C 133.62,153.19 133.66,153.14 133.69,153.08 C 133.72,153.03 133.75,152.97 133.78,152.91 C 133.81,152.86 133.84,152.80 133.87,152.75 C 133.90,152.69 133.93,152.64 133.96,152.58 C 133.99,152.53 134.03,152.47 134.06,152.42 C 134.09,152.36 134.12,152.31 134.15,152.25 C 134.18,152.20 134.21,152.14 134.24,152.09 C 134.28,152.03 134.31,151.98 134.34,151.92 C 134.37,151.87 134.40,151.81 134.44,151.76 C 134.47,151.71 134.50,151.65 134.53,151.60 C 134.56,151.54 134.60,151.49 134.63,151.43 C 134.66,151.38 134.69,151.33 134.72,151.27 C 134.76,151.22 134.79,151.16 134.82,151.11 C 134.85,151.06 134.89,151.00 134.92,150.95 C 134.95,150.89 134.99,150.84 135.02,150.79 C 135.05,150.73 135.08,150.68 135.12,150.63 C 135.15,150.57 135.18,150.52 135.22,150.47 C 135.25,150.41 135.28,150.36 135.32,150.31 C 135.35,150.25 135.38,150.20 135.42,150.15 C 135.45,150.09 135.48,150.04 135.52,149.99 C 135.55,149.93 135.59,149.88 135.62,149.83 C 135.65,149.78 135.69,149.72 135.72,149.67 C 135.76,149.62 135.79,149.57 135.82,149.51 C 135.86,149.46 135.89,149.41 135.93,149.36 C 135.96,149.30 136.00,149.25 136.03,149.20 C 136.07,149.15 136.10,149.09 136.14,149.04 C 136.17,148.99 136.21,148.94 136.24,148.89 C 136.28,148.84 136.31,148.78 136.35,148.73 C 136.38,148.68 136.42,148.63 136.45,148.58 C 136.49,148.53 136.52,148.47 136.56,148.42 C 136.59,148.37 136.63,148.32 136.66,148.27 C 136.70,148.22 136.74,148.17 136.77,148.11 C 136.81,148.06 136.84,148.01 136.88,147.96 C 136.92,147.91 136.95,147.86 136.99,147.81 C 137.02,147.76 137.06,147.71 137.10,147.66 C 137.13,147.61 137.17,147.56 137.21,147.51 C 137.24,147.45 137.28,147.40 137.32,147.35 C 137.35,147.30 137.39,147.25 137.43,147.20 C 137.46,147.15 137.50,147.10 137.54,147.05 C 137.58,147.00 137.61,146.95 137.65,146.90 C 137.69,146.85 137.73,146.80 137.76,146.75 C 137.80,146.70 137.84,146.65 137.88,146.61 C 137.91,146.56 137.95,146.51 137.99,146.46 C 138.03,146.41 138.07,146.36 138.10,146.31 C 138.14,146.26 138.18,146.21 138.22,146.16 C 138.26,146.11 138.29,146.06 138.33,146.01 C 138.37,145.97 138.41,145.92 138.45,145.87 C 138.49,145.82 138.53,145.77 138.57,145.72 C 138.60,145.67 138.64,145.62 138.68,145.58 C 138.72,145.53 138.76,145.48 138.80,145.43 C 138.84,145.38 138.88,145.33 138.92,145.29 C 138.96,145.24 139.00,145.19 139.04,145.14 C 139.08,145.09 139.12,145.05 139.16,145.00 C 139.20,144.95 139.24,144.90 139.28,144.86 C 139.32,144.81 139.36,144.76 139.40,144.71 C 139.44,144.67 139.48,144.62 139.52,144.57 C 139.56,144.52 139.60,144.48 139.64,144.43 C 139.68,144.38 139.72,144.34 139.76,144.29 C 139.80,144.24 139.84,144.19 139.88,144.15 C 139.92,144.10 139.96,144.05 140.01,144.01 C 140.05,143.96 140.09,143.91 140.13,143.87 C 140.17,143.82 140.21,143.77 140.25,143.73 C 140.30,143.68 140.34,143.64 140.38,143.59 C 140.42,143.54 140.46,143.50 140.50,143.45 C 140.55,143.41 140.59,143.36 140.63,143.31 C 140.67,143.27 140.72,143.22 140.76,143.18 C 140.80,143.13 140.84,143.08 140.88,143.04 C 140.93,142.99 140.97,142.95 141.01,142.90 C 141.06,142.86 141.10,142.81 141.14,142.77 C 141.18,142.72 141.23,142.68 141.27,142.63 C 141.31,142.59 141.36,142.54 141.40,142.50 C 141.44,142.45 141.49,142.41 141.53,142.36 C 141.57,142.32 141.62,142.27 141.66,142.23 C 141.71,142.18 141.75,142.14 141.79,142.09 C 141.84,142.05 141.88,142.01 141.93,141.96 C 141.97,141.92 142.01,141.87 142.06,141.83 C 142.10,141.79 142.15,141.74 142.19,141.70 C 142.24,141.65 142.28,141.61 142.33,141.57 C 142.37,141.52 142.42,141.48 142.46,141.43 C 142.51,141.39 142.55,141.35 142.60,141.30 C 142.64,141.26 142.69,141.22 142.73,141.17 C 142.78,141.13 142.82,141.09 142.87,141.04 C 142.92,141.00 142.96,140.96 143.01,140.92 C 143.05,140.87 143.10,140.83 143.14,140.79 C 143.19,140.74 143.24,140.70 143.28,140.66 C 143.33,140.62 143.38,140.57 143.42,140.53 C 143.47,140.49 143.52,140.45 143.56,140.40 C 143.61,140.36 143.66,140.32 143.70,140.28 C 143.75,140.23 143.80,140.19 143.84,140.15 C 143.89,140.11 143.94,140.07 143.99,140.02 C 144.03,139.98 144.08,139.94 144.13,139.90 C 144.18,139.86 144.22,139.82 144.27,139.77 C 144.32,139.73 144.37,139.69 144.41,139.65 C 144.46,139.61 144.51,139.57 144.56,139.53 C 144.61,139.49 144.66,139.44 144.70,139.40 C 144.75,139.36 144.80,139.32 144.85,139.28 C 144.90,139.24 144.95,139.20 145.00,139.16 C 145.05,139.12 145.09,139.08 145.14,139.04 C 145.19,139.00 145.24,138.95 145.29,138.91 C 145.34,138.87 145.39,138.83 145.44,138.79 C 145.49,138.75 145.54,138.71 145.59,138.67 C 145.64,138.63 145.69,138.59 145.74,138.55 C 145.79,138.51 145.84,138.47 145.89,138.43 C 145.94,138.39 145.99,138.35 146.04,138.31 C 146.09,138.27 146.14,138.23 146.19,138.20 C 146.24,138.16 146.29,138.12 146.34,138.08 C 146.39,138.04 146.45,138.00 146.50,137.96 C 146.55,137.92 146.60,137.88 146.65,137.84 C 146.70,137.80 146.75,137.76 146.80,137.73 C 146.86,137.69 146.91,137.65 146.96,137.61 C 147.01,137.57 147.06,137.53 147.12,137.49 C 147.17,137.45 147.22,137.42 147.27,137.38 C 147.32,137.34 147.38,137.30 147.43,137.26 C 147.48,137.22 147.53,137.19 147.59,137.15 C 147.64,137.11 147.69,137.07 147.75,137.03 C 147.80,137.00 147.85,136.96 147.90,136.92 C 147.96,136.88 148.01,136.85 148.06,136.81 C 148.12,136.77 148.17,136.73 148.22,136.69 C 148.28,136.66 148.33,136.62 148.39,136.58 C 148.44,136.55 148.49,136.51 148.55,136.47 C 148.60,136.43 148.66,136.40 148.71,136.36 C 148.77,136.32 148.82,136.29 148.87,136.25 C 148.93,136.21 148.98,136.18 149.04,136.14 C 149.09,136.10 149.15,136.07 149.20,136.03 C 149.26,135.99 149.31,135.96 149.37,135.92 C 149.42,135.88 149.48,135.85 149.54,135.81 C 149.59,135.77 149.65,135.74 149.70,135.70 C 149.76,135.67 149.81,135.63 149.87,135.59 C 149.93,135.56 149.98,135.52 150.04,135.49 C 150.09,135.45 150.15,135.41 150.21,135.38 C 150.26,135.34 150.32,135.31 150.38,135.27 C 150.43,135.24 150.49,135.20 150.55,135.17 C 150.60,135.13 150.66,135.09 150.72,135.06 C 150.78,135.02 150.83,134.99 150.89,134.95 C 150.95,134.92 151.01,134.88 151.06,134.85 C 151.12,134.81 151.18,134.78 151.24,134.74 C 151.30,134.71 151.35,134.68 151.41,134.64 C 151.47,134.61 151.53,134.57 151.59,134.54 C 151.65,134.50 151.70,134.47 151.76,134.43 C 151.82,134.40 151.88,134.36 151.94,134.33 C 152.00,134.30 152.06,134.26 152.12,134.23 C 152.18,134.19 152.23,134.16 152.29,134.13 C 152.35,134.09 152.41,134.06 152.47,134.02 C 152.53,133.99 152.59,133.96 152.65,133.92 C 152.71,133.89 152.77,133.86 152.83,133.82 C 152.89,133.79 152.95,133.76 153.01,133.72 C 153.07,133.69 153.13,133.66 153.20,133.62 C 153.26,133.59 153.32,133.56 153.38,133.52 C 153.44,133.49 153.50,133.46 153.56,133.42 C 153.62,133.39 153.68,133.36 153.75,133.33 C 153.81,133.29 153.87,133.26 153.93,133.23 C 153.99,133.20 154.05,133.16 154.12,133.13 C 154.18,133.10 154.24,133.07 154.30,133.03 C 154.36,133.00 154.43,132.97 154.49,132.94 C 154.55,132.90 154.61,132.87 154.68,132.84 C 154.74,132.81 154.80,132.78 154.87,132.74 C 154.93,132.71 154.99,132.68 155.06,132.65 C 155.12,132.62 155.18,132.58 155.25,132.55 C 155.31,132.52 155.37,132.49 155.44,132.46 C 155.50,132.43 155.56,132.40 155.63,132.36 C 155.69,132.33 155.76,132.30 155.82,132.27 C 155.88,132.24 155.95,132.21 156.01,132.18 C 156.08,132.14 156.14,132.11 156.21,132.08 C 156.27,132.05 156.34,132.02 156.40,131.99 C 156.47,131.96 156.53,131.93 156.60,131.90 C 156.66,131.87 156.73,131.84 156.80,131.81 C 156.86,131.78 156.93,131.74 156.99,131.71 C 157.06,131.68 157.12,131.65 157.19,131.62 C 157.26,131.59 157.32,131.56 157.39,131.53 C 157.46,131.50 157.52,131.47 157.59,131.44 C 157.66,131.41 157.72,131.38 157.79,131.35 C 157.86,131.32 157.92,131.29 157.99,131.26 C 158.06,131.23 158.13,131.20 158.19,131.17 C 158.26,131.14 158.33,131.11 158.40,131.08 C 158.46,131.05 158.53,131.03 158.60,131.00 C 158.67,130.97 158.74,130.94 158.80,130.91 C 158.87,130.88 158.94,130.85 159.01,130.82 C 159.08,130.79 159.15,130.76 159.22,130.73 C 159.28,130.70 159.35,130.68 159.42,130.65 C 159.49,130.62 159.56,130.59 159.63,130.56 C 159.70,130.53 159.77,130.50 159.84,130.47 C 159.91,130.45 159.98,130.42 160.05,130.39 C 160.12,130.36 160.19,130.33 160.26,130.30 C 160.33,130.27 160.40,130.25 160.47,130.22 C 160.54,130.19 160.61,130.16 160.68,130.13 C 160.75,130.11 160.82,130.08 160.90,130.05 C 160.97,130.02 161.04,129.99 161.11,129.97 C 161.18,129.94 161.25,129.91 161.32,129.88 C 161.40,129.85 161.47,129.83 161.54,129.80 C 161.61,129.77 161.68,129.74 161.76,129.72 C 161.83,129.69 161.90,129.66 161.97,129.63 C 162.05,129.61 162.12,129.58 162.19,129.55 C 162.26,129.52 162.34,129.50 162.41,129.47 C 162.48,129.44 162.56,129.42 162.63,129.39 C 162.70,129.36 162.78,129.33 162.85,129.31 C 162.92,129.28 163.00,129.25 163.07,129.23 C 163.14,129.20 163.22,129.17 163.29,129.15 C 163.37,129.12 163.44,129.09 163.52,129.07 C 163.59,129.04 163.67,129.01 163.74,128.99 C 163.81,128.96 163.89,128.94 163.96,128.91 C 164.04,128.88 164.12,128.86 164.19,128.83 C 164.27,128.80 164.34,128.78 164.42,128.75 C 164.49,128.73 164.57,128.70 164.64,128.67 C 164.72,128.65 164.80,128.62 164.87,128.60 C 164.95,128.57 165.03,128.54 165.10,128.52 C 165.18,128.49 165.26,128.47 165.33,128.44 C 165.41,128.42 165.49,128.39 165.56,128.36 C 165.64,128.34 165.72,128.31 165.79,128.29 C 165.87,128.26 165.95,128.24 166.03,128.21 C 166.11,128.19 166.18,128.16 166.26,128.14 C 166.34,128.11 166.42,128.09 166.50,128.06 C 166.57,128.04 166.65,128.01 166.73,127.99 C 166.81,127.96 166.89,127.94 166.97,127.91 C 167.05,127.89 167.13,127.86 167.20,127.84 C 167.28,127.81 167.36,127.79 167.44,127.76 C 167.52,127.74 167.60,127.71 167.68,127.69 C 167.76,127.67 167.84,127.64 167.92,127.62 C 168.00,127.59 168.08,127.57 168.16,127.54 C 168.24,127.52 168.32,127.50 168.40,127.47 C 168.48,127.45 168.57,127.42 168.65,127.40 C 168.73,127.38 168.81,127.35 168.89,127.33 C 168.97,127.30 169.05,127.28 169.13,127.26 C 169.22,127.23 169.30,127.21 169.38,127.18 C 169.46,127.16 169.54,127.14 169.63,127.11 C 169.71,127.09 169.79,127.07 169.87,127.04 C 169.96,127.02 170.04,127.00 170.12,126.97 C 170.20,126.95 170.29,126.93 170.37,126.90 C 170.45,126.88 170.54,126.86 170.62,126.83 C 170.70,126.81 170.79,126.79 170.87,126.76 C 170.96,126.74 171.04,126.72 171.12,126.69 C 171.21,126.67 171.29,126.65 171.38,126.63 C 171.46,126.60 171.55,126.58 171.63,126.56 C 171.72,126.53 171.80,126.51 171.89,126.49 C 171.97,126.47 172.06,126.44 172.14,126.42 C 172.23,126.40 172.31,126.38 172.40,126.35 C 172.48,126.33 172.57,126.31 172.65,126.29 C 172.74,126.26 172.83,126.24 172.91,126.22 C 173.00,126.20 173.09,126.17 173.17,126.15 C 173.26,126.13 173.35,126.11 173.43,126.09 C 173.52,126.06 173.61,126.04 173.69,126.02 C 173.78,126.00 173.87,125.98 173.96,125.95 C 174.04,125.93 174.13,125.91 174.22,125.89 C 174.31,125.87 174.40,125.85 174.48,125.82 C 174.57,125.80 174.66,125.78 174.75,125.76 C 174.84,125.74 174.93,125.72 175.02,125.69 C 175.10,125.67 175.19,125.65 175.28,125.63 C 175.37,125.61 175.46,125.59 175.55,125.57 C 175.64,125.55 175.73,125.52 175.82,125.50 C 175.91,125.48 176.00,125.46 176.09,125.44 C 176.18,125.42 176.27,125.40 176.36,125.38 C 176.45,125.36 176.54,125.33 176.63,125.31 C 176.72,125.29 176.81,125.27 176.91,125.25 C 177.00,125.23 177.09,125.21 177.18,125.19 C 177.27,125.17 177.36,125.15 177.45,125.13 C 177.55,125.11 177.64,125.09 177.73,125.07 C 177.82,125.05 177.91,125.02 178.01,125.00 C 178.10,124.98 178.19,124.96 178.29,124.94 C 178.38,124.92 178.47,124.90 178.56,124.88 C 178.66,124.86 178.75,124.84 178.84,124.82 C 178.94,124.80 179.03,124.78 179.13,124.76 C 179.22,124.74 179.31,124.72 179.41,124.70 C 179.50,124.68 179.60,124.66 179.69,124.64 C 179.78,124.62 179.88,124.60 179.97,124.58 C 180.07,124.56 180.16,124.54 180.26,124.52 C 180.35,124.50 180.45,124.48 180.54,124.46 C 180.64,124.45 180.74,124.43 180.83,124.41 C 180.93,124.39 181.02,124.37 181.12,124.35 C 181.22,124.33 181.31,124.31 181.41,124.29 C 181.51,124.27 181.60,124.25 181.70,124.23 C 181.80,124.21 181.89,124.19 181.99,124.17 C 182.09,124.16 182.18,124.14 182.28,124.12 C 182.38,124.10 182.48,124.08 182.58,124.06 C 182.67,124.04 182.77,124.02 182.87,124.00 C 182.97,123.98 183.07,123.97 183.16,123.95 C 183.26,123.93 183.36,123.91 183.46,123.89 C 183.56,123.87 183.66,123.85 183.76,123.83 C 183.86,123.82 183.96,123.80 184.06,123.78 C 184.16,123.76 184.26,123.74 184.36,123.72 C 184.46,123.70 184.56,123.69 184.66,123.67 C 184.76,123.65 184.86,123.63 184.96,123.61 C 185.06,123.59 185.16,123.58 185.26,123.56 C 185.36,123.54 185.46,123.52 185.56,123.50 C 185.66,123.49 185.77,123.47 185.87,123.45 C 185.97,123.43 186.07,123.41 186.17,123.40 C 186.28,123.38 186.38,123.36 186.48,123.34 C 186.58,123.32 186.69,123.31 186.79,123.29 C 186.89,123.27 186.99,123.25 187.10,123.24 C 187.20,123.22 187.30,123.20 187.41,123.18 C 187.51,123.16 187.61,123.15 187.72,123.13 C 187.82,123.11 187.93,123.09 188.03,123.08 C 188.13,123.06 188.24,123.04 188.34,123.02 C 188.45,123.01 188.55,122.99 188.66,122.97 C 188.76,122.96 188.87,122.94 188.97,122.92 C 189.08,122.90 189.18,122.89 189.29,122.87 C 189.39,122.85 189.50,122.84 189.61,122.82 C 189.71,122.80 189.82,122.78 189.92,122.77 C 190.03,122.75 190.14,122.73 190.24,122.72 C 190.35,122.70 190.46,122.68 190.57,122.67 C 190.67,122.65 190.78,122.63 190.89,122.62 C 190.99,122.60 191.10,122.58 191.21,122.57 C 191.32,122.55 191.43,122.53 191.53,122.52 C 191.64,122.50 191.75,122.48 191.86,122.47 C 191.97,122.45 192.08,122.43 192.19,122.42 C 192.29,122.40 192.40,122.38 192.51,122.37 C 192.62,122.35 192.73,122.33 192.84,122.32 C 192.95,122.30 193.06,122.29 193.17,122.27 C 193.28,122.25 193.39,122.24 193.50,122.22 C 193.61,122.20 193.72,122.19 193.83,122.17 C 193.94,122.16 194.05,122.14 194.17,122.12 C 194.28,122.11 194.39,122.09 194.50,122.08 C 194.61,122.06 194.72,122.04 194.83,122.03 C 194.95,122.01 195.06,122.00 195.17,121.98 C 195.28,121.96 195.40,121.95 195.51,121.93 C 195.62,121.92 195.73,121.90 195.85,121.89 C 195.96,121.87 196.07,121.86 196.19,121.84 C 196.30,121.82 196.41,121.81 196.53,121.79 C 196.64,121.78 196.75,121.76 196.87,121.75 C 196.98,121.73 197.10,121.72 197.21,121.70 C 197.33,121.68 197.44,121.67 197.56,121.65 C 197.67,121.64 197.79,121.62 197.90,121.61 C 198.02,121.59 198.13,121.58 198.25,121.56 C 198.36,121.55 198.48,121.53 198.60,121.52 C 198.71,121.50 198.83,121.49 198.94,121.47 C 199.06,121.46 199.18,121.44 199.29,121.43 C 199.41,121.41 199.53,121.40 199.65,121.38 C 199.76,121.37 199.88,121.35 200.00,121.34 C 200.11,121.32 200.23,121.31 200.35,121.29 C 200.47,121.28 200.59,121.26 200.71,121.25 C 200.82,121.24 200.94,121.22 201.06,121.21 C 201.18,121.19 201.30,121.18 201.42,121.16 C 201.54,121.15 201.66,121.13 201.78,121.12 C 201.90,121.10 202.02,121.09 202.14,121.08 C 202.26,121.06 202.38,121.05 202.50,121.03 C 202.62,121.02 202.80,121.00 202.86,120.99" />
  </g>

  <!-- точка (1;-5) -->
  <circle cx="124.29" cy="181.43" r="2.2" fill="#2d70b3" />

  <!-- подпись f(x) -->
  <text x="62.14" y="67.14"
        font-family="Georgia, 'Times New Roman', serif"
        font-style="italic"
        font-size="13"
        fill="#2d70b3">
    f(x)
  </text>

</svg>
