<svg xmlns="http://www.w3.org/2000/svg" width="220" height="220" viewBox="0 0 220 220">

  <rect x="0" y="0" width="220" height="220" fill="white" />

  <defs>
    <!-- стрелка для осей -->
    <marker id="axis-arrow"
            viewBox="0 0 15 8"
            refX="13" refY="4"
            markerWidth="12" markerHeight="6.4"
            orient="auto"
            markerUnits="userSpaceOnUse">
      <path d="M 3 0 L 15 4 L 3 8 L 7 4 Z"
            fill="black" />
    </marker>

    <!-- ограничение рисования гиперболы: x,y ∈ [-6.5;6.5] -->
    <clipPath id="clip-65">
      <rect x="17.14" y="17.14" width="185.71" height="185.71" />
    </clipPath>
  </defs>

  <!-- тонкая клетчатая сетка: по x и y от -7 до 7, без окаймления -->
  <g stroke="#d1d5db" stroke-width="0.5" shape-rendering="crispEdges">
    <line x1="24.29" y1="10" x2="24.29" y2="210" />
    <line x1="38.57" y1="10" x2="38.57" y2="210" />
    <line x1="52.86" y1="10" x2="52.86" y2="210" />
    <line x1="67.14" y1="10" x2="67.14" y2="210" />
    <line x1="81.43" y1="10" x2="81.43" y2="210" />
    <line x1="95.71" y1="10" x2="95.71" y2="210" />
    <line x1="110.00" y1="10" x2="110.00" y2="210" />
    <line x1="124.29" y1="10" x2="124.29" y2="210" />
    <line x1="138.57" y1="10" x2="138.57" y2="210" />
    <line x1="152.86" y1="10" x2="152.86" y2="210" />
    <line x1="167.14" y1="10" x2="167.14" y2="210" />
    <line x1="181.43" y1="10" x2="181.43" y2="210" />
    <line x1="195.71" y1="10" x2="195.71" y2="210" />
    <line x1="10" y1="195.71" x2="210" y2="195.71" />
    <line x1="10" y1="181.43" x2="210" y2="181.43" />
    <line x1="10" y1="167.14" x2="210" y2="167.14" />
    <line x1="10" y1="152.86" x2="210" y2="152.86" />
    <line x1="10" y1="138.57" x2="210" y2="138.57" />
    <line x1="10" y1="124.29" x2="210" y2="124.29" />
    <line x1="10" y1="110.00" x2="210" y2="110.00" />
    <line x1="10" y1="95.71" x2="210" y2="95.71" />
    <line x1="10" y1="81.43" x2="210" y2="81.43" />
    <line x1="10" y1="67.14" x2="210" y2="67.14" />
    <line x1="10" y1="52.86" x2="210" y2="52.86" />
    <line x1="10" y1="38.57" x2="210" y2="38.57" />
    <line x1="10" y1="24.29" x2="210" y2="24.29" />
  </g>

  <!-- оси x и y (0 находится в точке (110;110)) -->
  <g stroke="#111827" stroke-width="1.25">
    <line x1="10" y1="110" x2="210" y2="110"
          marker-end="url(#axis-arrow)" />
    <line x1="110" y1="210" x2="110" y2="10"
          marker-end="url(#axis-arrow)" />
  </g>

  <!-- подписи осей и делений -->
  <g font-family="sans-serif" font-size="11" fill="#111827">
    <text x="106" y="123" text-anchor="end"
          font-size="13" font-style="italic"
          font-family="Georgia, 'Times New Roman', serif">O</text>

    <rect x="121.29" y="112.00" width="7" height="12" fill="white" />
    <text x="124.29" y="123.00" text-anchor="middle" font-size="13"
          font-family="'Times New Roman', serif"
          font-weight="300">1</text>

    <text x="105.00" y="99.71" text-anchor="end" font-size="13"
          font-family="'Times New Roman', serif"
          font-weight="300">1</text>

    <text x="209.14" y="123.00" text-anchor="start"
          font-family="Georgia, 'Times New Roman', serif"
          font-style="italic" font-size="13">x</text>

    <text x="107.00" y="10.86" text-anchor="end"
          font-family="Georgia, 'Times New Roman', serif"
          font-style="italic" font-size="13">y</text>
  </g>

  <!-- гипербола y = k/x, k=5 (гладкая интерполяция); обрезана по окну [-6.5;6.5]×[-6.5;6.5] -->
  <g stroke="#2d70b3" stroke-width="1.25" fill="none"
     stroke-linecap="round" stroke-linejoin="round"
     clip-path="url(#clip-65)">
    <path d="M 17.14,120.99 C 17.20,121.00 17.37,121.02 17.49,121.03 C 17.60,121.04 17.71,121.06 17.83,121.07 C 17.94,121.08 18.05,121.10 18.17,121.11 C 18.28,121.13 18.39,121.14 18.51,121.15 C 18.62,121.17 18.73,121.18 18.84,121.19 C 18.96,121.21 19.07,121.22 19.18,121.24 C 19.29,121.25 19.41,121.26 19.52,121.28 C 19.63,121.29 19.74,121.31 19.85,121.32 C 19.96,121.33 20.08,121.35 20.19,121.36 C 20.30,121.38 20.41,121.39 20.52,121.40 C 20.63,121.42 20.74,121.43 20.85,121.45 C 20.96,121.46 21.07,121.47 21.18,121.49 C 21.29,121.50 21.40,121.52 21.51,121.53 C 21.62,121.55 21.73,121.56 21.84,121.57 C 21.95,121.59 22.06,121.60 22.17,121.62 C 22.28,121.63 22.39,121.65 22.50,121.66 C 22.60,121.68 22.71,121.69 22.82,121.70 C 22.93,121.72 23.04,121.73 23.15,121.75 C 23.25,121.76 23.36,121.78 23.47,121.79 C 23.58,121.81 23.69,121.82 23.79,121.84 C 23.90,121.85 24.01,121.87 24.11,121.88 C 24.22,121.90 24.33,121.91 24.43,121.93 C 24.54,121.94 24.65,121.96 24.75,121.97 C 24.86,121.99 24.97,122.00 25.07,122.02 C 25.18,122.03 25.28,122.05 25.39,122.06 C 25.50,122.08 25.60,122.09 25.71,122.11 C 25.81,122.12 25.92,122.14 26.02,122.15 C 26.13,122.17 26.23,122.18 26.34,122.20 C 26.44,122.21 26.55,122.23 26.65,122.24 C 26.75,122.26 26.86,122.27 26.96,122.29 C 27.07,122.30 27.17,122.32 27.27,122.33 C 27.38,122.35 27.48,122.37 27.59,122.38 C 27.69,122.40 27.79,122.41 27.89,122.43 C 28.00,122.44 28.10,122.46 28.20,122.47 C 28.31,122.49 28.41,122.51 28.51,122.52 C 28.61,122.54 28.72,122.55 28.82,122.57 C 28.92,122.59 29.02,122.60 29.12,122.62 C 29.22,122.63 29.33,122.65 29.43,122.66 C 29.53,122.68 29.63,122.70 29.73,122.71 C 29.83,122.73 29.93,122.74 30.03,122.76 C 30.13,122.78 30.23,122.79 30.34,122.81 C 30.44,122.82 30.54,122.84 30.64,122.86 C 30.74,122.87 30.84,122.89 30.94,122.91 C 31.04,122.92 31.13,122.94 31.23,122.95 C 31.33,122.97 31.43,122.99 31.53,123.00 C 31.63,123.02 31.73,123.04 31.83,123.05 C 31.93,123.07 32.03,123.09 32.12,123.10 C 32.22,123.12 32.32,123.14 32.42,123.15 C 32.52,123.17 32.62,123.19 32.71,123.20 C 32.81,123.22 32.91,123.24 33.01,123.25 C 33.10,123.27 33.20,123.29 33.30,123.30 C 33.40,123.32 33.49,123.34 33.59,123.35 C 33.69,123.37 33.78,123.39 33.88,123.41 C 33.98,123.42 34.07,123.44 34.17,123.46 C 34.26,123.47 34.36,123.49 34.46,123.51 C 34.55,123.52 34.65,123.54 34.74,123.56 C 34.84,123.58 34.93,123.59 35.03,123.61 C 35.12,123.63 35.22,123.65 35.31,123.66 C 35.41,123.68 35.50,123.70 35.60,123.72 C 35.69,123.73 35.79,123.75 35.88,123.77 C 35.98,123.78 36.07,123.80 36.17,123.82 C 36.26,123.84 36.35,123.86 36.45,123.87 C 36.54,123.89 36.63,123.91 36.73,123.93 C 36.82,123.94 36.91,123.96 37.01,123.98 C 37.10,124.00 37.19,124.02 37.29,124.03 C 37.38,124.05 37.47,124.07 37.56,124.09 C 37.66,124.10 37.75,124.12 37.84,124.14 C 37.93,124.16 38.02,124.18 38.12,124.20 C 38.21,124.21 38.30,124.23 38.39,124.25 C 38.48,124.27 38.57,124.29 38.67,124.30 C 38.76,124.32 38.85,124.34 38.94,124.36 C 39.03,124.38 39.12,124.40 39.21,124.41 C 39.30,124.43 39.39,124.45 39.48,124.47 C 39.57,124.49 39.66,124.51 39.75,124.53 C 39.84,124.54 39.93,124.56 40.02,124.58 C 40.11,124.60 40.20,124.62 40.29,124.64 C 40.38,124.66 40.47,124.68 40.56,124.69 C 40.65,124.71 40.74,124.73 40.83,124.75 C 40.91,124.77 41.00,124.79 41.09,124.81 C 41.18,124.83 41.27,124.85 41.36,124.87 C 41.44,124.88 41.53,124.90 41.62,124.92 C 41.71,124.94 41.80,124.96 41.88,124.98 C 41.97,125.00 42.06,125.02 42.15,125.04 C 42.23,125.06 42.32,125.08 42.41,125.10 C 42.49,125.12 42.58,125.14 42.67,125.15 C 42.75,125.17 42.84,125.19 42.93,125.21 C 43.01,125.23 43.10,125.25 43.19,125.27 C 43.27,125.29 43.36,125.31 43.44,125.33 C 43.53,125.35 43.62,125.37 43.70,125.39 C 43.79,125.41 43.87,125.43 43.96,125.45 C 44.04,125.47 44.13,125.49 44.21,125.51 C 44.30,125.53 44.38,125.55 44.47,125.57 C 44.55,125.59 44.64,125.61 44.72,125.63 C 44.80,125.65 44.89,125.67 44.97,125.69 C 45.06,125.71 45.14,125.73 45.22,125.75 C 45.31,125.77 45.39,125.79 45.48,125.81 C 45.56,125.83 45.64,125.86 45.73,125.88 C 45.81,125.90 45.89,125.92 45.97,125.94 C 46.06,125.96 46.14,125.98 46.22,126.00 C 46.31,126.02 46.39,126.04 46.47,126.06 C 46.55,126.08 46.64,126.10 46.72,126.12 C 46.80,126.15 46.88,126.17 46.96,126.19 C 47.04,126.21 47.13,126.23 47.21,126.25 C 47.29,126.27 47.37,126.29 47.45,126.31 C 47.53,126.34 47.61,126.36 47.69,126.38 C 47.78,126.40 47.86,126.42 47.94,126.44 C 48.02,126.46 48.10,126.48 48.18,126.51 C 48.26,126.53 48.34,126.55 48.42,126.57 C 48.50,126.59 48.58,126.61 48.66,126.63 C 48.74,126.66 48.82,126.68 48.90,126.70 C 48.98,126.72 49.06,126.74 49.14,126.77 C 49.22,126.79 49.29,126.81 49.37,126.83 C 49.45,126.85 49.53,126.87 49.61,126.90 C 49.69,126.92 49.77,126.94 49.85,126.96 C 49.92,126.99 50.00,127.01 50.08,127.03 C 50.16,127.05 50.24,127.07 50.31,127.10 C 50.39,127.12 50.47,127.14 50.55,127.16 C 50.62,127.19 50.70,127.21 50.78,127.23 C 50.86,127.25 50.93,127.28 51.01,127.30 C 51.09,127.32 51.16,127.34 51.24,127.37 C 51.32,127.39 51.39,127.41 51.47,127.43 C 51.55,127.46 51.62,127.48 51.70,127.50 C 51.78,127.53 51.85,127.55 51.93,127.57 C 52.00,127.59 52.08,127.62 52.16,127.64 C 52.23,127.66 52.31,127.69 52.38,127.71 C 52.46,127.73 52.53,127.76 52.61,127.78 C 52.68,127.80 52.76,127.83 52.83,127.85 C 52.91,127.87 52.98,127.90 53.06,127.92 C 53.13,127.94 53.21,127.97 53.28,127.99 C 53.35,128.01 53.43,128.04 53.50,128.06 C 53.58,128.08 53.65,128.11 53.72,128.13 C 53.80,128.16 53.87,128.18 53.94,128.20 C 54.02,128.23 54.09,128.25 54.16,128.28 C 54.24,128.30 54.31,128.32 54.38,128.35 C 54.46,128.37 54.53,128.40 54.60,128.42 C 54.68,128.44 54.75,128.47 54.82,128.49 C 54.89,128.52 54.96,128.54 55.04,128.57 C 55.11,128.59 55.18,128.61 55.25,128.64 C 55.32,128.66 55.40,128.69 55.47,128.71 C 55.54,128.74 55.61,128.76 55.68,128.79 C 55.75,128.81 55.83,128.84 55.90,128.86 C 55.97,128.89 56.04,128.91 56.11,128.93 C 56.18,128.96 56.25,128.98 56.32,129.01 C 56.39,129.03 56.46,129.06 56.53,129.08 C 56.60,129.11 56.67,129.14 56.74,129.16 C 56.81,129.19 56.88,129.21 56.95,129.24 C 57.02,129.26 57.09,129.29 57.16,129.31 C 57.23,129.34 57.30,129.36 57.37,129.39 C 57.44,129.41 57.51,129.44 57.58,129.47 C 57.65,129.49 57.72,129.52 57.79,129.54 C 57.85,129.57 57.92,129.59 57.99,129.62 C 58.06,129.65 58.13,129.67 58.20,129.70 C 58.26,129.72 58.33,129.75 58.40,129.78 C 58.47,129.80 58.54,129.83 58.60,129.85 C 58.67,129.88 58.74,129.91 58.81,129.93 C 58.88,129.96 58.94,129.99 59.01,130.01 C 59.08,130.04 59.14,130.06 59.21,130.09 C 59.28,130.12 59.35,130.14 59.41,130.17 C 59.48,130.20 59.55,130.22 59.61,130.25 C 59.68,130.28 59.75,130.30 59.81,130.33 C 59.88,130.36 59.94,130.39 60.01,130.41 C 60.08,130.44 60.14,130.47 60.21,130.49 C 60.27,130.52 60.34,130.55 60.40,130.57 C 60.47,130.60 60.54,130.63 60.60,130.66 C 60.67,130.68 60.73,130.71 60.80,130.74 C 60.86,130.77 60.93,130.79 60.99,130.82 C 61.06,130.85 61.12,130.88 61.19,130.90 C 61.25,130.93 61.31,130.96 61.38,130.99 C 61.44,131.01 61.51,131.04 61.57,131.07 C 61.64,131.10 61.70,131.13 61.76,131.15 C 61.83,131.18 61.89,131.21 61.95,131.24 C 62.02,131.27 62.08,131.29 62.14,131.32 C 62.21,131.35 62.27,131.38 62.33,131.41 C 62.40,131.44 62.46,131.46 62.52,131.49 C 62.59,131.52 62.65,131.55 62.71,131.58 C 62.77,131.61 62.84,131.64 62.90,131.66 C 62.96,131.69 63.02,131.72 63.09,131.75 C 63.15,131.78 63.21,131.81 63.27,131.84 C 63.33,131.87 63.40,131.89 63.46,131.92 C 63.52,131.95 63.58,131.98 63.64,132.01 C 63.70,132.04 63.76,132.07 63.83,132.10 C 63.89,132.13 63.95,132.16 64.01,132.19 C 64.07,132.22 64.13,132.25 64.19,132.28 C 64.25,132.30 64.31,132.33 64.37,132.36 C 64.43,132.39 64.49,132.42 64.55,132.45 C 64.61,132.48 64.67,132.51 64.73,132.54 C 64.79,132.57 64.85,132.60 64.91,132.63 C 64.97,132.66 65.03,132.69 65.09,132.72 C 65.15,132.75 65.21,132.78 65.27,132.81 C 65.33,132.84 65.39,132.87 65.45,132.90 C 65.51,132.93 65.57,132.96 65.63,133.00 C 65.68,133.03 65.74,133.06 65.80,133.09 C 65.86,133.12 65.92,133.15 65.98,133.18 C 66.04,133.21 66.09,133.24 66.15,133.27 C 66.21,133.30 66.27,133.33 66.33,133.36 C 66.38,133.40 66.44,133.43 66.50,133.46 C 66.56,133.49 66.62,133.52 66.67,133.55 C 66.73,133.58 66.79,133.61 66.84,133.65 C 66.90,133.68 66.96,133.71 67.02,133.74 C 67.07,133.77 67.13,133.80 67.19,133.83 C 67.24,133.87 67.30,133.90 67.36,133.93 C 67.41,133.96 67.47,133.99 67.53,134.02 C 67.58,134.06 67.64,134.09 67.70,134.12 C 67.75,134.15 67.81,134.18 67.86,134.22 C 67.92,134.25 67.97,134.28 68.03,134.31 C 68.09,134.35 68.14,134.38 68.20,134.41 C 68.25,134.44 68.31,134.47 68.36,134.51 C 68.42,134.54 68.47,134.57 68.53,134.61 C 68.58,134.64 68.64,134.67 68.69,134.70 C 68.75,134.74 68.80,134.77 68.86,134.80 C 68.91,134.83 68.97,134.87 69.02,134.90 C 69.08,134.93 69.13,134.97 69.18,135.00 C 69.24,135.03 69.29,135.07 69.35,135.10 C 69.40,135.13 69.45,135.17 69.51,135.20 C 69.56,135.23 69.61,135.27 69.67,135.30 C 69.72,135.33 69.77,135.37 69.83,135.40 C 69.88,135.43 69.93,135.47 69.99,135.50 C 70.04,135.54 70.09,135.57 70.15,135.60 C 70.20,135.64 70.25,135.67 70.30,135.71 C 70.36,135.74 70.41,135.77 70.46,135.81 C 70.51,135.84 70.57,135.88 70.62,135.91 C 70.67,135.95 70.72,135.98 70.78,136.01 C 70.83,136.05 70.88,136.08 70.93,136.12 C 70.98,136.15 71.03,136.19 71.09,136.22 C 71.14,136.26 71.19,136.29 71.24,136.33 C 71.29,136.36 71.34,136.40 71.39,136.43 C 71.45,136.47 71.50,136.50 71.55,136.54 C 71.60,136.57 71.65,136.61 71.70,136.64 C 71.75,136.68 71.80,136.71 71.85,136.75 C 71.90,136.78 71.95,136.82 72.00,136.85 C 72.05,136.89 72.10,136.93 72.15,136.96 C 72.20,137.00 72.25,137.03 72.30,137.07 C 72.35,137.10 72.40,137.14 72.45,137.18 C 72.50,137.21 72.55,137.25 72.60,137.28 C 72.65,137.32 72.70,137.36 72.75,137.39 C 72.80,137.43 72.85,137.47 72.90,137.50 C 72.95,137.54 73.00,137.57 73.04,137.61 C 73.09,137.65 73.14,137.68 73.19,137.72 C 73.24,137.76 73.29,137.79 73.34,137.83 C 73.38,137.87 73.43,137.91 73.48,137.94 C 73.53,137.98 73.58,138.02 73.63,138.05 C 73.67,138.09 73.72,138.13 73.77,138.16 C 73.82,138.20 73.87,138.24 73.91,138.28 C 73.96,138.31 74.01,138.35 74.06,138.39 C 74.10,138.43 74.15,138.46 74.20,138.50 C 74.24,138.54 74.29,138.58 74.34,138.61 C 74.39,138.65 74.43,138.69 74.48,138.73 C 74.53,138.77 74.57,138.80 74.62,138.84 C 74.67,138.88 74.71,138.92 74.76,138.96 C 74.81,138.99 74.85,139.03 74.90,139.07 C 74.94,139.11 74.99,139.15 75.04,139.19 C 75.08,139.22 75.13,139.26 75.17,139.30 C 75.22,139.34 75.27,139.38 75.31,139.42 C 75.36,139.46 75.40,139.49 75.45,139.53 C 75.49,139.57 75.54,139.61 75.59,139.65 C 75.63,139.69 75.68,139.73 75.72,139.77 C 75.77,139.81 75.81,139.85 75.86,139.89 C 75.90,139.92 75.95,139.96 75.99,140.00 C 76.03,140.04 76.08,140.08 76.12,140.12 C 76.17,140.16 76.21,140.20 76.26,140.24 C 76.30,140.28 76.35,140.32 76.39,140.36 C 76.43,140.40 76.48,140.44 76.52,140.48 C 76.57,140.52 76.61,140.56 76.65,140.60 C 76.70,140.64 76.74,140.68 76.78,140.72 C 76.83,140.76 76.87,140.80 76.91,140.84 C 76.96,140.88 77.00,140.92 77.04,140.96 C 77.09,141.00 77.13,141.04 77.17,141.08 C 77.22,141.13 77.26,141.17 77.30,141.21 C 77.34,141.25 77.39,141.29 77.43,141.33 C 77.47,141.37 77.52,141.41 77.56,141.45 C 77.60,141.49 77.64,141.54 77.68,141.58 C 77.73,141.62 77.77,141.66 77.81,141.70 C 77.85,141.74 77.90,141.78 77.94,141.83 C 77.98,141.87 78.02,141.91 78.06,141.95 C 78.10,141.99 78.15,142.03 78.19,142.08 C 78.23,142.12 78.27,142.16 78.31,142.20 C 78.35,142.24 78.39,142.29 78.44,142.33 C 78.48,142.37 78.52,142.41 78.56,142.45 C 78.60,142.50 78.64,142.54 78.68,142.58 C 78.72,142.62 78.76,142.67 78.80,142.71 C 78.84,142.75 78.88,142.79 78.92,142.84 C 78.96,142.88 79.00,142.92 79.05,142.96 C 79.09,143.01 79.13,143.05 79.17,143.09 C 79.21,143.14 79.25,143.18 79.29,143.22 C 79.33,143.27 79.37,143.31 79.40,143.35 C 79.44,143.40 79.48,143.44 79.52,143.48 C 79.56,143.53 79.60,143.57 79.64,143.61 C 79.68,143.66 79.72,143.70 79.76,143.74 C 79.80,143.79 79.84,143.83 79.88,143.87 C 79.92,143.92 79.95,143.96 79.99,144.01 C 80.03,144.05 80.07,144.09 80.11,144.14 C 80.15,144.18 80.19,144.23 80.23,144.27 C 80.26,144.32 80.30,144.36 80.34,144.40 C 80.38,144.45 80.42,144.49 80.45,144.54 C 80.49,144.58 80.53,144.63 80.57,144.67 C 80.61,144.72 80.64,144.76 80.68,144.81 C 80.72,144.85 80.76,144.90 80.80,144.94 C 80.83,144.98 80.87,145.03 80.91,145.08 C 80.95,145.12 80.98,145.17 81.02,145.21 C 81.06,145.26 81.09,145.30 81.13,145.35 C 81.17,145.39 81.21,145.44 81.24,145.48 C 81.28,145.53 81.32,145.57 81.35,145.62 C 81.39,145.67 81.43,145.71 81.46,145.76 C 81.50,145.80 81.54,145.85 81.57,145.89 C 81.61,145.94 81.64,145.99 81.68,146.03 C 81.72,146.08 81.75,146.12 81.79,146.17 C 81.83,146.22 81.86,146.26 81.90,146.31 C 81.93,146.36 81.97,146.40 82.00,146.45 C 82.04,146.50 82.08,146.54 82.11,146.59 C 82.15,146.64 82.18,146.68 82.22,146.73 C 82.25,146.78 82.29,146.82 82.32,146.87 C 82.36,146.92 82.39,146.96 82.43,147.01 C 82.46,147.06 82.50,147.10 82.53,147.15 C 82.57,147.20 82.60,147.25 82.64,147.29 C 82.67,147.34 82.71,147.39 82.74,147.44 C 82.78,147.48 82.81,147.53 82.85,147.58 C 82.88,147.63 82.91,147.67 82.95,147.72 C 82.98,147.77 83.02,147.82 83.05,147.87 C 83.09,147.91 83.12,147.96 83.15,148.01 C 83.19,148.06 83.22,148.11 83.26,148.15 C 83.29,148.20 83.32,148.25 83.36,148.30 C 83.39,148.35 83.42,148.39 83.46,148.44 C 83.49,148.49 83.52,148.54 83.56,148.59 C 83.59,148.64 83.62,148.69 83.66,148.73 C 83.69,148.78 83.72,148.83 83.76,148.88 C 83.79,148.93 83.82,148.98 83.85,149.03 C 83.89,149.08 83.92,149.13 83.95,149.17 C 83.98,149.22 84.02,149.27 84.05,149.32 C 84.08,149.37 84.11,149.42 84.15,149.47 C 84.18,149.52 84.21,149.57 84.24,149.62 C 84.28,149.67 84.31,149.72 84.34,149.77 C 84.37,149.82 84.40,149.87 84.44,149.92 C 84.47,149.97 84.50,150.02 84.53,150.07 C 84.56,150.12 84.59,150.17 84.63,150.22 C 84.66,150.27 84.69,150.32 84.72,150.37 C 84.75,150.42 84.78,150.47 84.81,150.52 C 84.85,150.57 84.88,150.62 84.91,150.67 C 84.94,150.72 84.97,150.77 85.00,150.82 C 85.03,150.87 85.06,150.92 85.09,150.97 C 85.12,151.02 85.16,151.07 85.19,151.12 C 85.22,151.17 85.25,151.22 85.28,151.27 C 85.31,151.33 85.34,151.38 85.37,151.43 C 85.40,151.48 85.43,151.53 85.46,151.58 C 85.49,151.63 85.52,151.68 85.55,151.73 C 85.58,151.79 85.61,151.84 85.64,151.89 C 85.67,151.94 85.70,151.99 85.73,152.04 C 85.76,152.09 85.79,152.15 85.82,152.20 C 85.85,152.25 85.88,152.30 85.91,152.35 C 85.94,152.40 85.97,152.46 86.00,152.51 C 86.02,152.56 86.05,152.61 86.08,152.66 C 86.11,152.72 86.14,152.77 86.17,152.82 C 86.20,152.87 86.23,152.93 86.26,152.98 C 86.29,153.03 86.31,153.08 86.34,153.13 C 86.37,153.19 86.40,153.24 86.43,153.29 C 86.46,153.34 86.49,153.40 86.51,153.45 C 86.54,153.50 86.57,153.55 86.60,153.61 C 86.63,153.66 86.66,153.71 86.68,153.77 C 86.71,153.82 86.74,153.87 86.77,153.92 C 86.80,153.98 86.82,154.03 86.85,154.08 C 86.88,154.14 86.91,154.19 86.94,154.24 C 86.96,154.30 86.99,154.35 87.02,154.40 C 87.05,154.46 87.07,154.51 87.10,154.56 C 87.13,154.62 87.16,154.67 87.18,154.72 C 87.21,154.78 87.24,154.83 87.27,154.88 C 87.29,154.94 87.32,154.99 87.35,155.04 C 87.37,155.10 87.40,155.15 87.43,155.21 C 87.45,155.26 87.48,155.31 87.51,155.37 C 87.53,155.42 87.56,155.48 87.59,155.53 C 87.61,155.58 87.64,155.64 87.67,155.69 C 87.69,155.75 87.72,155.80 87.75,155.85 C 87.77,155.91 87.80,155.96 87.83,156.02 C 87.85,156.07 87.88,156.13 87.90,156.18 C 87.93,156.23 87.96,156.29 87.98,156.34 C 88.01,156.40 88.03,156.45 88.06,156.51 C 88.09,156.56 88.11,156.62 88.14,156.67 C 88.16,156.73 88.19,156.78 88.21,156.84 C 88.24,156.89 88.26,156.95 88.29,157.00 C 88.32,157.06 88.34,157.11 88.37,157.17 C 88.39,157.22 88.42,157.28 88.44,157.33 C 88.47,157.39 88.49,157.44 88.52,157.50 C 88.54,157.55 88.57,157.61 88.59,157.66 C 88.62,157.72 88.64,157.77 88.67,157.83 C 88.69,157.88 88.71,157.94 88.74,158.00 C 88.76,158.05 88.79,158.11 88.81,158.16 C 88.84,158.22 88.86,158.27 88.89,158.33 C 88.91,158.38 88.93,158.44 88.96,158.50 C 88.98,158.55 89.01,158.61 89.03,158.66 C 89.06,158.72 89.08,158.78 89.10,158.83 C 89.13,158.89 89.15,158.94 89.18,159.00 C 89.20,159.06 89.22,159.11 89.25,159.17 C 89.27,159.22 89.29,159.28 89.32,159.34 C 89.34,159.39 89.36,159.45 89.39,159.50 C 89.41,159.56 89.43,159.62 89.46,159.67 C 89.48,159.73 89.50,159.79 89.53,159.84 C 89.55,159.90 89.57,159.96 89.60,160.01 C 89.62,160.07 89.64,160.13 89.67,160.18 C 89.69,160.24 89.71,160.30 89.73,160.35 C 89.76,160.41 89.78,160.47 89.80,160.52 C 89.83,160.58 89.85,160.64 89.87,160.69 C 89.89,160.75 89.92,160.81 89.94,160.86 C 89.96,160.92 89.98,160.98 90.01,161.03 C 90.03,161.09 90.05,161.15 90.07,161.20 C 90.09,161.26 90.12,161.32 90.14,161.38 C 90.16,161.43 90.18,161.49 90.20,161.55 C 90.23,161.60 90.25,161.66 90.27,161.72 C 90.29,161.78 90.31,161.83 90.34,161.89 C 90.36,161.95 90.38,162.01 90.40,162.06 C 90.42,162.12 90.44,162.18 90.46,162.23 C 90.49,162.29 90.51,162.35 90.53,162.41 C 90.55,162.46 90.57,162.52 90.59,162.58 C 90.61,162.64 90.64,162.69 90.66,162.75 C 90.68,162.81 90.70,162.87 90.72,162.92 C 90.74,162.98 90.76,163.04 90.78,163.10 C 90.80,163.16 90.82,163.21 90.84,163.27 C 90.87,163.33 90.89,163.39 90.91,163.44 C 90.93,163.50 90.95,163.56 90.97,163.62 C 90.99,163.67 91.01,163.73 91.03,163.79 C 91.05,163.85 91.07,163.91 91.09,163.96 C 91.11,164.02 91.13,164.08 91.15,164.14 C 91.17,164.20 91.19,164.25 91.21,164.31 C 91.23,164.37 91.25,164.43 91.27,164.49 C 91.29,164.54 91.31,164.60 91.33,164.66 C 91.35,164.72 91.37,164.78 91.39,164.83 C 91.41,164.89 91.43,164.95 91.45,165.01 C 91.47,165.07 91.49,165.12 91.51,165.18 C 91.53,165.24 91.55,165.30 91.57,165.36 C 91.59,165.42 91.61,165.47 91.62,165.53 C 91.64,165.59 91.66,165.65 91.68,165.71 C 91.70,165.77 91.72,165.82 91.74,165.88 C 91.76,165.94 91.78,166.00 91.80,166.06 C 91.82,166.11 91.83,166.17 91.85,166.23 C 91.87,166.29 91.89,166.35 91.91,166.41 C 91.93,166.46 91.95,166.52 91.97,166.58 C 91.98,166.64 92.00,166.70 92.02,166.76 C 92.04,166.81 92.06,166.87 92.08,166.93 C 92.10,166.99 92.11,167.05 92.13,167.11 C 92.15,167.17 92.17,167.22 92.19,167.28 C 92.20,167.34 92.22,167.40 92.24,167.46 C 92.26,167.52 92.28,167.57 92.29,167.63 C 92.31,167.69 92.33,167.75 92.35,167.81 C 92.37,167.87 92.38,167.93 92.40,167.98 C 92.42,168.04 92.44,168.10 92.45,168.16 C 92.47,168.22 92.49,168.28 92.51,168.33 C 92.53,168.39 92.54,168.45 92.56,168.51 C 92.58,168.57 92.59,168.63 92.61,168.69 C 92.63,168.74 92.65,168.80 92.66,168.86 C 92.68,168.92 92.70,168.98 92.72,169.04 C 92.73,169.09 92.75,169.15 92.77,169.21 C 92.78,169.27 92.80,169.33 92.82,169.39 C 92.83,169.45 92.85,169.50 92.87,169.56 C 92.89,169.62 92.90,169.68 92.92,169.74 C 92.94,169.80 92.95,169.85 92.97,169.91 C 92.99,169.97 93.00,170.03 93.02,170.09 C 93.03,170.15 93.05,170.20 93.07,170.26 C 93.08,170.32 93.10,170.38 93.12,170.44 C 93.13,170.50 93.15,170.55 93.17,170.61 C 93.18,170.67 93.20,170.73 93.21,170.79 C 93.23,170.85 93.25,170.90 93.26,170.96 C 93.28,171.02 93.29,171.08 93.31,171.14 C 93.33,171.20 93.34,171.25 93.36,171.31 C 93.37,171.37 93.39,171.43 93.40,171.49 C 93.42,171.55 93.44,171.60 93.45,171.66 C 93.47,171.72 93.48,171.78 93.50,171.84 C 93.51,171.89 93.53,171.95 93.54,172.01 C 93.56,172.07 93.58,172.13 93.59,172.19 C 93.61,172.24 93.62,172.30 93.64,172.36 C 93.65,172.42 93.67,172.48 93.68,172.53 C 93.70,172.59 93.71,172.65 93.73,172.71 C 93.74,172.77 93.76,172.82 93.77,172.88 C 93.79,172.94 93.80,173.00 93.82,173.05 C 93.83,173.11 93.85,173.17 93.86,173.23 C 93.88,173.29 93.89,173.34 93.91,173.40 C 93.92,173.46 93.93,173.52 93.95,173.57 C 93.96,173.63 93.98,173.69 93.99,173.75 C 94.01,173.80 94.02,173.86 94.04,173.92 C 94.05,173.98 94.06,174.04 94.08,174.09 C 94.09,174.15 94.11,174.21 94.12,174.27 C 94.14,174.32 94.15,174.38 94.16,174.44 C 94.18,174.49 94.19,174.55 94.21,174.61 C 94.22,174.67 94.23,174.72 94.25,174.78 C 94.26,174.84 94.28,174.90 94.29,174.95 C 94.30,175.01 94.32,175.07 94.33,175.12 C 94.35,175.18 94.36,175.24 94.37,175.30 C 94.39,175.35 94.40,175.41 94.41,175.47 C 94.43,175.52 94.44,175.58 94.45,175.64 C 94.47,175.69 94.48,175.75 94.49,175.81 C 94.51,175.87 94.52,175.92 94.53,175.98 C 94.55,176.04 94.56,176.09 94.57,176.15 C 94.59,176.21 94.60,176.26 94.61,176.32 C 94.63,176.38 94.64,176.43 94.65,176.49 C 94.67,176.54 94.68,176.60 94.69,176.66 C 94.70,176.71 94.72,176.77 94.73,176.83 C 94.74,176.88 94.76,176.94 94.77,177.00 C 94.78,177.05 94.79,177.11 94.81,177.16 C 94.82,177.22 94.83,177.28 94.85,177.33 C 94.86,177.39 94.87,177.44 94.88,177.50 C 94.90,177.56 94.91,177.61 94.92,177.67 C 94.93,177.72 94.95,177.78 94.96,177.83 C 94.97,177.89 94.98,177.95 94.99,178.00 C 95.01,178.06 95.02,178.11 95.03,178.17 C 95.04,178.22 95.06,178.28 95.07,178.33 C 95.08,178.39 95.09,178.45 95.10,178.50 C 95.12,178.56 95.13,178.61 95.14,178.67 C 95.15,178.72 95.16,178.78 95.18,178.83 C 95.19,178.89 95.20,178.94 95.21,179.00 C 95.22,179.05 95.23,179.11 95.25,179.16 C 95.26,179.22 95.27,179.27 95.28,179.33 C 95.29,179.38 95.30,179.44 95.32,179.49 C 95.33,179.54 95.34,179.60 95.35,179.65 C 95.36,179.71 95.37,179.76 95.38,179.82 C 95.40,179.87 95.41,179.93 95.42,179.98 C 95.43,180.03 95.44,180.09 95.45,180.14 C 95.46,180.20 95.47,180.25 95.49,180.30 C 95.50,180.36 95.51,180.41 95.52,180.47 C 95.53,180.52 95.54,180.57 95.55,180.63 C 95.56,180.68 95.57,180.73 95.59,180.79 C 95.60,180.84 95.61,180.90 95.62,180.95 C 95.63,181.00 95.64,181.06 95.65,181.11 C 95.66,181.16 95.67,181.22 95.68,181.27 C 95.69,181.32 95.70,181.37 95.71,181.43 C 95.72,181.48 95.74,181.53 95.75,181.59 C 95.76,181.64 95.77,181.69 95.78,181.75 C 95.79,181.80 95.80,181.85 95.81,181.90 C 95.82,181.96 95.83,182.01 95.84,182.06 C 95.85,182.11 95.86,182.17 95.87,182.22 C 95.88,182.27 95.89,182.32 95.90,182.37 C 95.91,182.43 95.92,182.48 95.93,182.53 C 95.94,182.58 95.95,182.63 95.96,182.69 C 95.97,182.74 95.98,182.79 95.99,182.84 C 96.00,182.89 96.01,182.94 96.02,183.00 C 96.03,183.05 96.04,183.10 96.05,183.15 C 96.06,183.20 96.07,183.25 96.08,183.30 C 96.09,183.36 96.10,183.41 96.11,183.46 C 96.12,183.51 96.13,183.56 96.14,183.61 C 96.15,183.66 96.16,183.71 96.17,183.76 C 96.18,183.81 96.19,183.86 96.19,183.91 C 96.20,183.97 96.21,184.02 96.22,184.07 C 96.23,184.12 96.24,184.17 96.25,184.22 C 96.26,184.27 96.27,184.32 96.28,184.37 C 96.29,184.42 96.30,184.47 96.31,184.52 C 96.32,184.57 96.32,184.62 96.33,184.67 C 96.34,184.72 96.35,184.77 96.36,184.81 C 96.37,184.86 96.38,184.91 96.39,184.96 C 96.40,185.01 96.41,185.06 96.41,185.11 C 96.42,185.16 96.43,185.21 96.44,185.26 C 96.45,185.31 96.46,185.36 96.47,185.40 C 96.48,185.45 96.48,185.50 96.49,185.55 C 96.50,185.60 96.51,185.65 96.52,185.70 C 96.53,185.74 96.54,185.79 96.55,185.84 C 96.55,185.89 96.56,185.94 96.57,185.98 C 96.58,186.03 96.59,186.08 96.60,186.13 C 96.60,186.18 96.61,186.22 96.62,186.27 C 96.63,186.32 96.64,186.37 96.65,186.41 C 96.65,186.46 96.66,186.51 96.67,186.56 C 96.68,186.60 96.69,186.65 96.70,186.70 C 96.70,186.75 96.71,186.79 96.72,186.84 C 96.73,186.89 96.74,186.93 96.74,186.98 C 96.75,187.03 96.76,187.07 96.77,187.12 C 96.78,187.17 96.78,187.21 96.79,187.26 C 96.80,187.30 96.81,187.35 96.82,187.40 C 96.82,187.44 96.83,187.49 96.84,187.53 C 96.85,187.58 96.85,187.63 96.86,187.67 C 96.87,187.72 96.88,187.76 96.89,187.81 C 96.89,187.85 96.90,187.90 96.91,187.94 C 96.92,187.99 96.92,188.03 96.93,188.08 C 96.94,188.12 96.95,188.17 96.95,188.21 C 96.96,188.26 96.97,188.30 96.98,188.35 C 96.98,188.39 96.99,188.44 97.00,188.48 C 97.01,188.53 97.01,188.57 97.02,188.62 C 97.03,188.66 97.03,188.70 97.04,188.75 C 97.05,188.79 97.06,188.84 97.06,188.88 C 97.07,188.92 97.08,188.97 97.09,189.01 C 97.09,189.05 97.10,189.10 97.11,189.14 C 97.11,189.18 97.12,189.23 97.13,189.27 C 97.13,189.31 97.14,189.36 97.15,189.40 C 97.16,189.44 97.16,189.49 97.17,189.53 C 97.18,189.57 97.18,189.61 97.19,189.66 C 97.20,189.70 97.20,189.74 97.21,189.78 C 97.22,189.83 97.22,189.87 97.23,189.91 C 97.24,189.95 97.24,189.99 97.25,190.04 C 97.26,190.08 97.26,190.12 97.27,190.16 C 97.28,190.20 97.28,190.24 97.29,190.29 C 97.30,190.33 97.30,190.37 97.31,190.41 C 97.32,190.45 97.32,190.49 97.33,190.53 C 97.34,190.57 97.34,190.61 97.35,190.65 C 97.35,190.70 97.36,190.74 97.37,190.78 C 97.37,190.82 97.38,190.86 97.39,190.90 C 97.39,190.94 97.40,190.98 97.41,191.02 C 97.41,191.06 97.42,191.10 97.42,191.14 C 97.43,191.18 97.44,191.22 97.44,191.26 C 97.45,191.30 97.45,191.34 97.46,191.38 C 97.47,191.41 97.47,191.45 97.48,191.49 C 97.48,191.53 97.49,191.57 97.50,191.61 C 97.50,191.65 97.51,191.69 97.51,191.73 C 97.52,191.77 97.53,191.80 97.53,191.84 C 97.54,191.88 97.54,191.92 97.55,191.96 C 97.56,192.00 97.56,192.03 97.57,192.07 C 97.57,192.11 97.58,192.15 97.58,192.19 C 97.59,192.22 97.60,192.26 97.60,192.30 C 97.61,192.34 97.61,192.37 97.62,192.41 C 97.62,192.45 97.63,192.49 97.63,192.52 C 97.64,192.56 97.65,192.60 97.65,192.63 C 97.66,192.67 97.66,192.71 97.67,192.74 C 97.67,192.78 97.68,192.82 97.68,192.85 C 97.69,192.89 97.69,192.93 97.70,192.96 C 97.71,193.00 97.71,193.03 97.72,193.07 C 97.72,193.11 97.73,193.14 97.73,193.18 C 97.74,193.21 97.74,193.25 97.75,193.28 C 97.75,193.32 97.76,193.35 97.76,193.39 C 97.77,193.42 97.77,193.46 97.78,193.49 C 97.78,193.53 97.79,193.56 97.79,193.60 C 97.80,193.63 97.80,193.67 97.81,193.70 C 97.81,193.74 97.82,193.77 97.82,193.81 C 97.83,193.84 97.83,193.87 97.84,193.91 C 97.84,193.94 97.85,193.98 97.85,194.01 C 97.86,194.04 97.86,194.08 97.87,194.11 C 97.87,194.14 97.88,194.18 97.88,194.21 C 97.89,194.24 97.89,194.28 97.90,194.31 C 97.90,194.34 97.91,194.38 97.91,194.41 C 97.92,194.44 97.92,194.48 97.93,194.51 C 97.93,194.54 97.93,194.57 97.94,194.61 C 97.94,194.64 97.95,194.67 97.95,194.70 C 97.96,194.73 97.96,194.77 97.97,194.80 C 97.97,194.83 97.98,194.86 97.98,194.89 C 97.98,194.93 97.99,194.96 97.99,194.99 C 98.00,195.02 98.00,195.05 98.01,195.08 C 98.01,195.11 98.02,195.14 98.02,195.18 C 98.02,195.21 98.03,195.24 98.03,195.27 C 98.04,195.30 98.04,195.33 98.05,195.36 C 98.05,195.39 98.05,195.42 98.06,195.45 C 98.06,195.48 98.07,195.51 98.07,195.54 C 98.08,195.57 98.08,195.60 98.08,195.63 C 98.09,195.66 98.09,195.69 98.10,195.72 C 98.10,195.75 98.10,195.78 98.11,195.81 C 98.11,195.84 98.12,195.87 98.12,195.90 C 98.12,195.93 98.13,195.95 98.13,195.98 C 98.14,196.01 98.14,196.04 98.14,196.07 C 98.15,196.10 98.15,196.13 98.16,196.16 C 98.16,196.18 98.16,196.21 98.17,196.24 C 98.17,196.27 98.18,196.30 98.18,196.32 C 98.18,196.35 98.19,196.38 98.19,196.41 C 98.19,196.44 98.20,196.46 98.20,196.49 C 98.21,196.52 98.21,196.55 98.21,196.57 C 98.22,196.60 98.22,196.63 98.22,196.65 C 98.23,196.68 98.23,196.71 98.24,196.73 C 98.24,196.76 98.24,196.79 98.25,196.81 C 98.25,196.84 98.25,196.87 98.26,196.89 C 98.26,196.92 98.26,196.95 98.27,196.97 C 98.27,197.00 98.27,197.02 98.28,197.05 C 98.28,197.08 98.28,197.10 98.29,197.13 C 98.29,197.15 98.30,197.18 98.30,197.20 C 98.30,197.23 98.31,197.26 98.31,197.28 C 98.31,197.31 98.32,197.33 98.32,197.36 C 98.32,197.38 98.33,197.41 98.33,197.43 C 98.33,197.46 98.34,197.48 98.34,197.50 C 98.34,197.53 98.35,197.55 98.35,197.58 C 98.35,197.60 98.35,197.63 98.36,197.65 C 98.36,197.67 98.36,197.70 98.37,197.72 C 98.37,197.75 98.37,197.77 98.38,197.79 C 98.38,197.82 98.38,197.84 98.39,197.86 C 98.39,197.89 98.39,197.91 98.40,197.93 C 98.40,197.96 98.40,197.98 98.40,198.00 C 98.41,198.03 98.41,198.05 98.41,198.07 C 98.42,198.09 98.42,198.12 98.42,198.14 C 98.43,198.16 98.43,198.18 98.43,198.21 C 98.43,198.23 98.44,198.25 98.44,198.27 C 98.44,198.30 98.45,198.32 98.45,198.34 C 98.45,198.36 98.45,198.38 98.46,198.40 C 98.46,198.43 98.46,198.45 98.47,198.47 C 98.47,198.49 98.47,198.51 98.47,198.53 C 98.48,198.55 98.48,198.58 98.48,198.60 C 98.49,198.62 98.49,198.64 98.49,198.66 C 98.49,198.68 98.50,198.70 98.50,198.72 C 98.50,198.74 98.50,198.76 98.51,198.78 C 98.51,198.80 98.51,198.82 98.51,198.84 C 98.52,198.86 98.52,198.88 98.52,198.90 C 98.52,198.92 98.53,198.94 98.53,198.96 C 98.53,198.98 98.54,199.00 98.54,199.02 C 98.54,199.04 98.54,199.06 98.55,199.08 C 98.55,199.10 98.55,199.12 98.55,199.14 C 98.56,199.16 98.56,199.18 98.56,199.20 C 98.56,199.22 98.56,199.23 98.57,199.25 C 98.57,199.27 98.57,199.29 98.57,199.31 C 98.58,199.33 98.58,199.35 98.58,199.36 C 98.58,199.38 98.59,199.40 98.59,199.42 C 98.59,199.44 98.59,199.46 98.60,199.47 C 98.60,199.49 98.60,199.51 98.60,199.53 C 98.60,199.54 98.61,199.56 98.61,199.58 C 98.61,199.60 98.61,199.61 98.62,199.63 C 98.62,199.65 98.62,199.67 98.62,199.68 C 98.62,199.70 98.63,199.72 98.63,199.74 C 98.63,199.75 98.63,199.77 98.64,199.79 C 98.64,199.80 98.64,199.82 98.64,199.84 C 98.64,199.85 98.65,199.87 98.65,199.89 C 98.65,199.90 98.65,199.92 98.65,199.93 C 98.66,199.95 98.66,199.97 98.66,199.98 C 98.66,200.00 98.66,200.01 98.67,200.03 C 98.67,200.05 98.67,200.06 98.67,200.08 C 98.67,200.09 98.68,200.11 98.68,200.12 C 98.68,200.14 98.68,200.16 98.68,200.17 C 98.69,200.19 98.69,200.20 98.69,200.22 C 98.69,200.23 98.69,200.25 98.69,200.26 C 98.70,200.28 98.70,200.29 98.70,200.31 C 98.70,200.32 98.70,200.34 98.71,200.35 C 98.71,200.36 98.71,200.38 98.71,200.39 C 98.71,200.41 98.72,200.42 98.72,200.44 C 98.72,200.45 98.72,200.46 98.72,200.48 C 98.72,200.49 98.73,200.51 98.73,200.52 C 98.73,200.53 98.73,200.55 98.73,200.56 C 98.73,200.58 98.74,200.59 98.74,200.60 C 98.74,200.62 98.74,200.63 98.74,200.64 C 98.74,200.66 98.75,200.67 98.75,200.68 C 98.75,200.70 98.75,200.71 98.75,200.72 C 98.75,200.73 98.76,200.75 98.76,200.76 C 98.76,200.77 98.76,200.79 98.76,200.80 C 98.76,200.81 98.76,200.82 98.77,200.84 C 98.77,200.85 98.77,200.86 98.77,200.87 C 98.77,200.89 98.77,200.90 98.78,200.91 C 98.78,200.92 98.78,200.93 98.78,200.95 C 98.78,200.96 98.78,200.97 98.78,200.98 C 98.79,200.99 98.79,201.01 98.79,201.02 C 98.79,201.03 98.79,201.04 98.79,201.05 C 98.79,201.06 98.80,201.08 98.80,201.09 C 98.80,201.10 98.80,201.11 98.80,201.12 C 98.80,201.13 98.80,201.14 98.81,201.15 C 98.81,201.17 98.81,201.18 98.81,201.19 C 98.81,201.20 98.81,201.21 98.81,201.22 C 98.82,201.23 98.82,201.24 98.82,201.25 C 98.82,201.26 98.82,201.27 98.82,201.28 C 98.82,201.29 98.82,201.30 98.83,201.31 C 98.83,201.32 98.83,201.33 98.83,201.35 C 98.83,201.36 98.83,201.37 98.83,201.38 C 98.83,201.39 98.84,201.40 98.84,201.41 C 98.84,201.41 98.84,201.42 98.84,201.43 C 98.84,201.44 98.84,201.45 98.84,201.46 C 98.84,201.47 98.85,201.48 98.85,201.49 C 98.85,201.50 98.85,201.51 98.85,201.52 C 98.85,201.53 98.85,201.54 98.85,201.55 C 98.85,201.56 98.86,201.57 98.86,201.57 C 98.86,201.58 98.86,201.59 98.86,201.60 C 98.86,201.61 98.86,201.62 98.86,201.63 C 98.86,201.64 98.87,201.65 98.87,201.65 C 98.87,201.66 98.87,201.67 98.87,201.68 C 98.87,201.69 98.87,201.70 98.87,201.71 C 98.87,201.71 98.87,201.72 98.88,201.73 C 98.88,201.74 98.88,201.75 98.88,201.75 C 98.88,201.76 98.88,201.77 98.88,201.78 C 98.88,201.79 98.88,201.79 98.88,201.80 C 98.89,201.81 98.89,201.82 98.89,201.83 C 98.89,201.83 98.89,201.84 98.89,201.85 C 98.89,201.86 98.89,201.86 98.89,201.87 C 98.89,201.88 98.89,201.89 98.90,201.89 C 98.90,201.90 98.90,201.91 98.90,201.91 C 98.90,201.92 98.90,201.93 98.90,201.94 C 98.90,201.94 98.90,201.95 98.90,201.96 C 98.90,201.96 98.91,201.97 98.91,201.98 C 98.91,201.98 98.91,201.99 98.91,202.00 C 98.91,202.01 98.91,202.01 98.91,202.02 C 98.91,202.03 98.91,202.03 98.91,202.04 C 98.91,202.04 98.91,202.05 98.92,202.06 C 98.92,202.06 98.92,202.07 98.92,202.08 C 98.92,202.08 98.92,202.09 98.92,202.10 C 98.92,202.10 98.92,202.11 98.92,202.11 C 98.92,202.12 98.92,202.13 98.92,202.13 C 98.93,202.14 98.93,202.14 98.93,202.15 C 98.93,202.16 98.93,202.16 98.93,202.17 C 98.93,202.17 98.93,202.18 98.93,202.18 C 98.93,202.19 98.93,202.20 98.93,202.20 C 98.93,202.21 98.93,202.21 98.93,202.22 C 98.94,202.22 98.94,202.23 98.94,202.23 C 98.94,202.24 98.94,202.24 98.94,202.25 C 98.94,202.25 98.94,202.26 98.94,202.26 C 98.94,202.27 98.94,202.27 98.94,202.28 C 98.94,202.29 98.94,202.29 98.94,202.30 C 98.94,202.30 98.95,202.30 98.95,202.31 C 98.95,202.31 98.95,202.32 98.95,202.32 C 98.95,202.33 98.95,202.33 98.95,202.34 C 98.95,202.34 98.95,202.35 98.95,202.35 C 98.95,202.36 98.95,202.36 98.95,202.37 C 98.95,202.37 98.95,202.37 98.95,202.38 C 98.95,202.38 98.96,202.39 98.96,202.39 C 98.96,202.40 98.96,202.40 98.96,202.40 C 98.96,202.41 98.96,202.41 98.96,202.42 C 98.96,202.42 98.96,202.43 98.96,202.43 C 98.96,202.43 98.96,202.44 98.96,202.44 C 98.96,202.45 98.96,202.45 98.96,202.45 C 98.96,202.46 98.96,202.46 98.96,202.46 C 98.96,202.47 98.97,202.47 98.97,202.48 C 98.97,202.48 98.97,202.48 98.97,202.49 C 98.97,202.49 98.97,202.49 98.97,202.50 C 98.97,202.50 98.97,202.51 98.97,202.51 C 98.97,202.51 98.97,202.52 98.97,202.52 C 98.97,202.52 98.97,202.53 98.97,202.53 C 98.97,202.53 98.97,202.54 98.97,202.54 C 98.97,202.54 98.97,202.55 98.97,202.55 C 98.97,202.55 98.98,202.55 98.98,202.56 C 98.98,202.56 98.98,202.56 98.98,202.57 C 98.98,202.57 98.98,202.57 98.98,202.58 C 98.98,202.58 98.98,202.58 98.98,202.59 C 98.98,202.59 98.98,202.59 98.98,202.59 C 98.98,202.60 98.98,202.60 98.98,202.60 C 98.98,202.60 98.98,202.61 98.98,202.61 C 98.98,202.61 98.98,202.62 98.98,202.62 C 98.98,202.62 98.98,202.62 98.98,202.63 C 98.98,202.63 98.98,202.63 98.98,202.63 C 98.98,202.64 98.99,202.64 98.99,202.64 C 98.99,202.64 98.99,202.65 98.99,202.65 C 98.99,202.65 98.99,202.65 98.99,202.66 C 98.99,202.66 98.99,202.66 98.99,202.66 C 98.99,202.66 98.99,202.67 98.99,202.67 C 98.99,202.67 98.99,202.67 98.99,202.68 C 98.99,202.68 98.99,202.68 98.99,202.68 C 98.99,202.68 98.99,202.69 98.99,202.69 C 98.99,202.69 98.99,202.69 98.99,202.69 C 98.99,202.70 98.99,202.70 98.99,202.70 C 98.99,202.70 98.99,202.70 98.99,202.71 C 98.99,202.71 98.99,202.71 98.99,202.71 C 98.99,202.71 98.99,202.72 98.99,202.72 C 98.99,202.72 98.99,202.72 98.99,202.72 C 99.00,202.72 99.00,202.73 99.00,202.73 C 99.00,202.73 99.00,202.73 99.00,202.73 C 99.00,202.73 99.00,202.74 99.00,202.74 C 99.00,202.74 99.00,202.74 99.00,202.74 C 99.00,202.74 99.00,202.74 99.00,202.75 C 99.00,202.75 99.00,202.75 99.00,202.75 C 99.00,202.75 99.00,202.75 99.00,202.75 C 99.00,202.76 99.00,202.76 99.00,202.76 C 99.00,202.76 99.00,202.76 99.00,202.76 C 99.00,202.76 99.00,202.77 99.00,202.77 C 99.00,202.77 99.00,202.77 99.00,202.77 C 99.00,202.77 99.00,202.77 99.00,202.77 C 99.00,202.78 99.00,202.78 99.00,202.78 C 99.00,202.78 99.00,202.78 99.00,202.78 C 99.00,202.78 99.00,202.78 99.00,202.78 C 99.00,202.79 99.00,202.79 99.00,202.79 C 99.00,202.79 99.00,202.79 99.00,202.79 C 99.00,202.79 99.00,202.79 99.00,202.79 C 99.00,202.80 99.00,202.80 99.00,202.80 C 99.00,202.80 99.00,202.80 99.00,202.80 C 99.00,202.80 99.00,202.80 99.00,202.80 C 99.00,202.80 99.00,202.80 99.00,202.81 C 99.00,202.81 99.01,202.81 99.01,202.81 C 99.01,202.81 99.01,202.81 99.01,202.81 C 99.01,202.81 99.01,202.81 99.01,202.81 C 99.01,202.81 99.01,202.81 99.01,202.81 C 99.01,202.82 99.01,202.82 99.01,202.82 C 99.01,202.82 99.01,202.82 99.01,202.82 C 99.01,202.82 99.01,202.82 99.01,202.82 C 99.01,202.82 99.01,202.82 99.01,202.82 C 99.01,202.82 99.01,202.82 99.01,202.82 C 99.01,202.83 99.01,202.83 99.01,202.83 C 99.01,202.83 99.01,202.83 99.01,202.83 C 99.01,202.83 99.01,202.83 99.01,202.83 C 99.01,202.83 99.01,202.83 99.01,202.83 C 99.01,202.83 99.01,202.83 99.01,202.83 C 99.01,202.83 99.01,202.83 99.01,202.83 C 99.01,202.83 99.01,202.84 99.01,202.84 C 99.01,202.84 99.01,202.84 99.01,202.84 C 99.01,202.84 99.01,202.84 99.01,202.84 C 99.01,202.84 99.01,202.84 99.01,202.84 C 99.01,202.84 99.01,202.84 99.01,202.84 C 99.01,202.84 99.01,202.84 99.01,202.84 C 99.01,202.84 99.01,202.84 99.01,202.84 C 99.01,202.84 99.01,202.84 99.01,202.84 C 99.01,202.84 99.01,202.84 99.01,202.84 C 99.01,202.84 99.01,202.85 99.01,202.85 C 99.01,202.85 99.01,202.85 99.01,202.85 C 99.01,202.85 99.01,202.85 99.01,202.85 C 99.01,202.85 99.01,202.85 99.01,202.85 C 99.01,202.85 99.01,202.85 99.01,202.85 C 99.01,202.85 99.01,202.85 99.01,202.85 C 99.01,202.85 99.01,202.85 99.01,202.85 C 99.01,202.85 99.01,202.85 99.01,202.85 C 99.01,202.85 99.01,202.85 99.01,202.85 C 99.01,202.85 99.01,202.85 99.01,202.85 C 99.01,202.85 99.01,202.85 99.01,202.85 C 99.01,202.85 99.01,202.85 99.01,202.85 C 99.01,202.85 99.01,202.85 99.01,202.85 C 99.01,202.85 99.01,202.85 99.01,202.85 C 99.01,202.85 99.01,202.85 99.01,202.85 C 99.01,202.85 99.01,202.85 99.01,202.85 C 99.01,202.85 99.01,202.85 99.01,202.85 C 99.01,202.85 99.01,202.85 99.01,202.85 C 99.01,202.85 99.01,202.85 99.01,202.85 C 99.01,202.85 99.01,202.85 99.01,202.86 C 99.01,202.86 99.01,202.86 99.01,202.86 C 99.01,202.86 99.01,202.86 99.01,202.86 C 99.01,202.86 99.01,202.86 99.01,202.86 C 99.01,202.86 99.01,202.86 99.01,202.86 C 99.01,202.86 99.01,202.86 99.01,202.86 C 99.01,202.86 99.01,202.86 99.01,202.86 C 99.01,202.86 99.01,202.86 99.01,202.86 C 99.01,202.86 99.01,202.86 99.01,202.86 C 99.01,202.86 99.01,202.86 99.01,202.86 C 99.01,202.86 99.01,202.86 99.01,202.86 C 99.01,202.86 99.01,202.86 99.01,202.86 C 99.01,202.86 99.01,202.86 99.01,202.86 C 99.01,202.86 99.01,202.86 99.01,202.86 C 99.01,202.86 99.01,202.86 99.01,202.86 C 99.01,202.86 99.01,202.86 99.01,202.86 C 99.01,202.86 99.01,202.86 99.01,202.86 C 99.01,202.86 99.01,202.86 99.01,202.86 C 99.01,202.86 99.01,202.86 99.01,202.86 C 99.01,202.86 99.01,202.86 99.01,202.86 C 99.01,202.86 99.01,202.86 99.01,202.86 C 99.01,202.86 99.01,202.86 99.01,202.86 C 99.01,202.86 99.01,202.86 99.01,202.86 C 99.01,202.86 99.01,202.86 99.01,202.86 C 99.01,202.86 99.01,202.86 99.01,202.86 C 99.01,202.86 99.01,202.86 99.01,202.86 C 99.01,202.86 99.01,202.86 99.01,202.86 C 99.01,202.86 99.01,202.86 99.01,202.86 C 99.01,202.86 99.01,202.86 99.01,202.86 C 99.01,202.86 99.01,202.86 99.01,202.86 C 99.01,202.86 99.01,202.86 99.01,202.86 C 99.01,202.86 99.01,202.86 99.01,202.86 C 99.01,202.86 99.01,202.86 99.01,202.86 C 99.01,202.86 99.01,202.86 99.01,202.86 C 99.01,202.86 99.01,202.86 99.01,202.86" />
    <path d="M 120.99,17.14 C 120.99,17.14 120.99,17.14 120.99,17.14 C 120.99,17.14 120.99,17.14 120.99,17.14 C 120.99,17.14 120.99,17.14 120.99,17.14 C 120.99,17.14 120.99,17.14 120.99,17.14 C 120.99,17.14 120.99,17.14 120.99,17.14 C 120.99,17.14 120.99,17.14 120.99,17.14 C 120.99,17.14 120.99,17.14 120.99,17.14 C 120.99,17.14 120.99,17.14 120.99,17.14 C 120.99,17.14 120.99,17.14 120.99,17.14 C 120.99,17.14 120.99,17.14 120.99,17.14 C 120.99,17.14 120.99,17.14 120.99,17.14 C 120.99,17.14 120.99,17.14 120.99,17.14 C 120.99,17.14 120.99,17.14 120.99,17.14 C 120.99,17.14 120.99,17.14 120.99,17.14 C 120.99,17.14 120.99,17.14 120.99,17.14 C 120.99,17.14 120.99,17.14 120.99,17.14 C 120.99,17.14 120.99,17.14 120.99,17.14 C 120.99,17.14 120.99,17.14 120.99,17.14 C 120.99,17.14 120.99,17.14 120.99,17.14 C 120.99,17.14 120.99,17.14 120.99,17.14 C 120.99,17.14 120.99,17.14 120.99,17.14 C 120.99,17.14 120.99,17.14 120.99,17.14 C 120.99,17.14 120.99,17.14 120.99,17.14 C 120.99,17.14 120.99,17.14 120.99,17.14 C 120.99,17.14 120.99,17.14 120.99,17.14 C 120.99,17.14 120.99,17.14 120.99,17.14 C 120.99,17.14 120.99,17.14 120.99,17.14 C 120.99,17.14 120.99,17.14 120.99,17.14 C 120.99,17.14 120.99,17.14 120.99,17.14 C 120.99,17.14 120.99,17.14 120.99,17.14 C 120.99,17.14 120.99,17.14 120.99,17.14 C 120.99,17.14 120.99,17.14 120.99,17.14 C 120.99,17.14 120.99,17.14 120.99,17.14 C 120.99,17.14 120.99,17.14 120.99,17.14 C 120.99,17.15 120.99,17.15 120.99,17.15 C 120.99,17.15 120.99,17.15 120.99,17.15 C 120.99,17.15 120.99,17.15 120.99,17.15 C 120.99,17.15 120.99,17.15 120.99,17.15 C 120.99,17.15 120.99,17.15 120.99,17.15 C 120.99,17.15 120.99,17.15 120.99,17.15 C 120.99,17.15 120.99,17.15 120.99,17.15 C 120.99,17.15 120.99,17.15 120.99,17.15 C 120.99,17.15 120.99,17.15 120.99,17.15 C 120.99,17.15 120.99,17.15 120.99,17.15 C 120.99,17.15 120.99,17.15 120.99,17.15 C 120.99,17.15 120.99,17.15 120.99,17.15 C 120.99,17.15 120.99,17.15 120.99,17.15 C 120.99,17.15 120.99,17.15 120.99,17.15 C 120.99,17.15 120.99,17.15 120.99,17.15 C 120.99,17.15 120.99,17.15 120.99,17.15 C 120.99,17.15 120.99,17.15 120.99,17.15 C 120.99,17.15 120.99,17.15 120.99,17.15 C 120.99,17.15 120.99,17.15 120.99,17.15 C 120.99,17.15 120.99,17.16 120.99,17.16 C 120.99,17.16 120.99,17.16 120.99,17.16 C 120.99,17.16 120.99,17.16 120.99,17.16 C 120.99,17.16 120.99,17.16 120.99,17.16 C 120.99,17.16 120.99,17.16 120.99,17.16 C 120.99,17.16 120.99,17.16 120.99,17.16 C 120.99,17.16 120.99,17.16 120.99,17.16 C 120.99,17.16 120.99,17.16 120.99,17.16 C 120.99,17.16 120.99,17.16 120.99,17.16 C 120.99,17.16 120.99,17.17 120.99,17.17 C 120.99,17.17 120.99,17.17 120.99,17.17 C 120.99,17.17 120.99,17.17 120.99,17.17 C 120.99,17.17 120.99,17.17 120.99,17.17 C 120.99,17.17 120.99,17.17 120.99,17.17 C 120.99,17.17 120.99,17.17 120.99,17.17 C 120.99,17.17 120.99,17.17 120.99,17.18 C 120.99,17.18 120.99,17.18 120.99,17.18 C 120.99,17.18 120.99,17.18 120.99,17.18 C 120.99,17.18 120.99,17.18 120.99,17.18 C 120.99,17.18 120.99,17.18 120.99,17.18 C 120.99,17.18 120.99,17.18 120.99,17.19 C 120.99,17.19 120.99,17.19 120.99,17.19 C 120.99,17.19 120.99,17.19 120.99,17.19 C 120.99,17.19 120.99,17.19 120.99,17.19 C 120.99,17.19 121.00,17.19 121.00,17.19 C 121.00,17.20 121.00,17.20 121.00,17.20 C 121.00,17.20 121.00,17.20 121.00,17.20 C 121.00,17.20 121.00,17.20 121.00,17.20 C 121.00,17.20 121.00,17.20 121.00,17.21 C 121.00,17.21 121.00,17.21 121.00,17.21 C 121.00,17.21 121.00,17.21 121.00,17.21 C 121.00,17.21 121.00,17.21 121.00,17.22 C 121.00,17.22 121.00,17.22 121.00,17.22 C 121.00,17.22 121.00,17.22 121.00,17.22 C 121.00,17.22 121.00,17.22 121.00,17.23 C 121.00,17.23 121.00,17.23 121.00,17.23 C 121.00,17.23 121.00,17.23 121.00,17.23 C 121.00,17.23 121.00,17.24 121.00,17.24 C 121.00,17.24 121.00,17.24 121.00,17.24 C 121.00,17.24 121.00,17.24 121.00,17.25 C 121.00,17.25 121.00,17.25 121.00,17.25 C 121.00,17.25 121.00,17.25 121.00,17.25 C 121.00,17.26 121.00,17.26 121.00,17.26 C 121.00,17.26 121.00,17.26 121.00,17.26 C 121.00,17.26 121.00,17.27 121.00,17.27 C 121.00,17.27 121.00,17.27 121.00,17.27 C 121.00,17.27 121.00,17.28 121.01,17.28 C 121.01,17.28 121.01,17.28 121.01,17.28 C 121.01,17.28 121.01,17.29 121.01,17.29 C 121.01,17.29 121.01,17.29 121.01,17.29 C 121.01,17.30 121.01,17.30 121.01,17.30 C 121.01,17.30 121.01,17.30 121.01,17.31 C 121.01,17.31 121.01,17.31 121.01,17.31 C 121.01,17.31 121.01,17.32 121.01,17.32 C 121.01,17.32 121.01,17.32 121.01,17.32 C 121.01,17.33 121.01,17.33 121.01,17.33 C 121.01,17.33 121.01,17.34 121.01,17.34 C 121.01,17.34 121.01,17.34 121.01,17.34 C 121.01,17.35 121.01,17.35 121.01,17.35 C 121.01,17.35 121.01,17.36 121.01,17.36 C 121.01,17.36 121.02,17.36 121.02,17.37 C 121.02,17.37 121.02,17.37 121.02,17.37 C 121.02,17.38 121.02,17.38 121.02,17.38 C 121.02,17.38 121.02,17.39 121.02,17.39 C 121.02,17.39 121.02,17.40 121.02,17.40 C 121.02,17.40 121.02,17.40 121.02,17.41 C 121.02,17.41 121.02,17.41 121.02,17.41 C 121.02,17.42 121.02,17.42 121.02,17.42 C 121.02,17.43 121.02,17.43 121.02,17.43 C 121.02,17.44 121.02,17.44 121.02,17.44 C 121.02,17.45 121.03,17.45 121.03,17.45 C 121.03,17.45 121.03,17.46 121.03,17.46 C 121.03,17.46 121.03,17.47 121.03,17.47 C 121.03,17.47 121.03,17.48 121.03,17.48 C 121.03,17.48 121.03,17.49 121.03,17.49 C 121.03,17.49 121.03,17.50 121.03,17.50 C 121.03,17.51 121.03,17.51 121.03,17.51 C 121.03,17.52 121.03,17.52 121.03,17.52 C 121.03,17.53 121.04,17.53 121.04,17.54 C 121.04,17.54 121.04,17.54 121.04,17.55 C 121.04,17.55 121.04,17.55 121.04,17.56 C 121.04,17.56 121.04,17.57 121.04,17.57 C 121.04,17.57 121.04,17.58 121.04,17.58 C 121.04,17.59 121.04,17.59 121.04,17.60 C 121.04,17.60 121.04,17.60 121.04,17.61 C 121.04,17.61 121.05,17.62 121.05,17.62 C 121.05,17.63 121.05,17.63 121.05,17.63 C 121.05,17.64 121.05,17.64 121.05,17.65 C 121.05,17.65 121.05,17.66 121.05,17.66 C 121.05,17.67 121.05,17.67 121.05,17.68 C 121.05,17.68 121.05,17.69 121.05,17.69 C 121.05,17.70 121.06,17.70 121.06,17.70 C 121.06,17.71 121.06,17.71 121.06,17.72 C 121.06,17.73 121.06,17.73 121.06,17.74 C 121.06,17.74 121.06,17.75 121.06,17.75 C 121.06,17.76 121.06,17.76 121.06,17.77 C 121.06,17.77 121.06,17.78 121.07,17.78 C 121.07,17.79 121.07,17.79 121.07,17.80 C 121.07,17.80 121.07,17.81 121.07,17.82 C 121.07,17.82 121.07,17.83 121.07,17.83 C 121.07,17.84 121.07,17.84 121.07,17.85 C 121.07,17.86 121.07,17.86 121.08,17.87 C 121.08,17.87 121.08,17.88 121.08,17.89 C 121.08,17.89 121.08,17.90 121.08,17.90 C 121.08,17.91 121.08,17.92 121.08,17.92 C 121.08,17.93 121.08,17.94 121.08,17.94 C 121.09,17.95 121.09,17.96 121.09,17.96 C 121.09,17.97 121.09,17.97 121.09,17.98 C 121.09,17.99 121.09,17.99 121.09,18.00 C 121.09,18.01 121.09,18.02 121.09,18.02 C 121.09,18.03 121.10,18.04 121.10,18.04 C 121.10,18.05 121.10,18.06 121.10,18.06 C 121.10,18.07 121.10,18.08 121.10,18.09 C 121.10,18.09 121.10,18.10 121.10,18.11 C 121.11,18.11 121.11,18.12 121.11,18.13 C 121.11,18.14 121.11,18.14 121.11,18.15 C 121.11,18.16 121.11,18.17 121.11,18.17 C 121.11,18.18 121.11,18.19 121.12,18.20 C 121.12,18.21 121.12,18.21 121.12,18.22 C 121.12,18.23 121.12,18.24 121.12,18.25 C 121.12,18.25 121.12,18.26 121.12,18.27 C 121.13,18.28 121.13,18.29 121.13,18.29 C 121.13,18.30 121.13,18.31 121.13,18.32 C 121.13,18.33 121.13,18.34 121.13,18.35 C 121.13,18.35 121.14,18.36 121.14,18.37 C 121.14,18.38 121.14,18.39 121.14,18.40 C 121.14,18.41 121.14,18.42 121.14,18.43 C 121.14,18.43 121.15,18.44 121.15,18.45 C 121.15,18.46 121.15,18.47 121.15,18.48 C 121.15,18.49 121.15,18.50 121.15,18.51 C 121.15,18.52 121.16,18.53 121.16,18.54 C 121.16,18.55 121.16,18.56 121.16,18.57 C 121.16,18.58 121.16,18.59 121.16,18.59 C 121.16,18.60 121.17,18.61 121.17,18.62 C 121.17,18.63 121.17,18.64 121.17,18.65 C 121.17,18.67 121.17,18.68 121.17,18.69 C 121.18,18.70 121.18,18.71 121.18,18.72 C 121.18,18.73 121.18,18.74 121.18,18.75 C 121.18,18.76 121.18,18.77 121.19,18.78 C 121.19,18.79 121.19,18.80 121.19,18.81 C 121.19,18.82 121.19,18.83 121.19,18.85 C 121.20,18.86 121.20,18.87 121.20,18.88 C 121.20,18.89 121.20,18.90 121.20,18.91 C 121.20,18.92 121.21,18.94 121.21,18.95 C 121.21,18.96 121.21,18.97 121.21,18.98 C 121.21,18.99 121.21,19.01 121.22,19.02 C 121.22,19.03 121.22,19.04 121.22,19.05 C 121.22,19.07 121.22,19.08 121.22,19.09 C 121.23,19.10 121.23,19.11 121.23,19.13 C 121.23,19.14 121.23,19.15 121.23,19.16 C 121.24,19.18 121.24,19.19 121.24,19.20 C 121.24,19.21 121.24,19.23 121.24,19.24 C 121.24,19.25 121.25,19.27 121.25,19.28 C 121.25,19.29 121.25,19.30 121.25,19.32 C 121.25,19.33 121.26,19.34 121.26,19.36 C 121.26,19.37 121.26,19.38 121.26,19.40 C 121.26,19.41 121.27,19.42 121.27,19.44 C 121.27,19.45 121.27,19.47 121.27,19.48 C 121.27,19.49 121.28,19.51 121.28,19.52 C 121.28,19.54 121.28,19.55 121.28,19.56 C 121.28,19.58 121.29,19.59 121.29,19.61 C 121.29,19.62 121.29,19.64 121.29,19.65 C 121.30,19.66 121.30,19.68 121.30,19.69 C 121.30,19.71 121.30,19.72 121.31,19.74 C 121.31,19.75 121.31,19.77 121.31,19.78 C 121.31,19.80 121.31,19.81 121.32,19.83 C 121.32,19.84 121.32,19.86 121.32,19.88 C 121.32,19.89 121.33,19.91 121.33,19.92 C 121.33,19.94 121.33,19.95 121.33,19.97 C 121.34,19.99 121.34,20.00 121.34,20.02 C 121.34,20.03 121.34,20.05 121.35,20.07 C 121.35,20.08 121.35,20.10 121.35,20.11 C 121.35,20.13 121.36,20.15 121.36,20.16 C 121.36,20.18 121.36,20.20 121.36,20.21 C 121.37,20.23 121.37,20.25 121.37,20.26 C 121.37,20.28 121.38,20.30 121.38,20.32 C 121.38,20.33 121.38,20.35 121.38,20.37 C 121.39,20.39 121.39,20.40 121.39,20.42 C 121.39,20.44 121.40,20.46 121.40,20.47 C 121.40,20.49 121.40,20.51 121.40,20.53 C 121.41,20.54 121.41,20.56 121.41,20.58 C 121.41,20.60 121.42,20.62 121.42,20.64 C 121.42,20.65 121.42,20.67 121.43,20.69 C 121.43,20.71 121.43,20.73 121.43,20.75 C 121.44,20.77 121.44,20.78 121.44,20.80 C 121.44,20.82 121.44,20.84 121.45,20.86 C 121.45,20.88 121.45,20.90 121.45,20.92 C 121.46,20.94 121.46,20.96 121.46,20.98 C 121.46,21.00 121.47,21.02 121.47,21.04 C 121.47,21.06 121.48,21.08 121.48,21.10 C 121.48,21.12 121.48,21.14 121.49,21.16 C 121.49,21.18 121.49,21.20 121.49,21.22 C 121.50,21.24 121.50,21.26 121.50,21.28 C 121.50,21.30 121.51,21.32 121.51,21.34 C 121.51,21.36 121.51,21.38 121.52,21.40 C 121.52,21.42 121.52,21.45 121.53,21.47 C 121.53,21.49 121.53,21.51 121.53,21.53 C 121.54,21.55 121.54,21.57 121.54,21.60 C 121.55,21.62 121.55,21.64 121.55,21.66 C 121.55,21.68 121.56,21.70 121.56,21.73 C 121.56,21.75 121.57,21.77 121.57,21.79 C 121.57,21.82 121.57,21.84 121.58,21.86 C 121.58,21.88 121.58,21.91 121.59,21.93 C 121.59,21.95 121.59,21.97 121.60,22.00 C 121.60,22.02 121.60,22.04 121.60,22.07 C 121.61,22.09 121.61,22.11 121.61,22.14 C 121.62,22.16 121.62,22.18 121.62,22.21 C 121.63,22.23 121.63,22.25 121.63,22.28 C 121.64,22.30 121.64,22.33 121.64,22.35 C 121.65,22.37 121.65,22.40 121.65,22.42 C 121.65,22.45 121.66,22.47 121.66,22.50 C 121.66,22.52 121.67,22.54 121.67,22.57 C 121.67,22.59 121.68,22.62 121.68,22.64 C 121.68,22.67 121.69,22.69 121.69,22.72 C 121.69,22.74 121.70,22.77 121.70,22.80 C 121.70,22.82 121.71,22.85 121.71,22.87 C 121.72,22.90 121.72,22.92 121.72,22.95 C 121.73,22.98 121.73,23.00 121.73,23.03 C 121.74,23.05 121.74,23.08 121.74,23.11 C 121.75,23.13 121.75,23.16 121.75,23.19 C 121.76,23.21 121.76,23.24 121.76,23.27 C 121.77,23.29 121.77,23.32 121.78,23.35 C 121.78,23.37 121.78,23.40 121.79,23.43 C 121.79,23.45 121.79,23.48 121.80,23.51 C 121.80,23.54 121.81,23.56 121.81,23.59 C 121.81,23.62 121.82,23.65 121.82,23.68 C 121.82,23.70 121.83,23.73 121.83,23.76 C 121.84,23.79 121.84,23.82 121.84,23.84 C 121.85,23.87 121.85,23.90 121.86,23.93 C 121.86,23.96 121.86,23.99 121.87,24.02 C 121.87,24.05 121.88,24.07 121.88,24.10 C 121.88,24.13 121.89,24.16 121.89,24.19 C 121.90,24.22 121.90,24.25 121.90,24.28 C 121.91,24.31 121.91,24.34 121.92,24.37 C 121.92,24.40 121.92,24.43 121.93,24.46 C 121.93,24.49 121.94,24.52 121.94,24.55 C 121.95,24.58 121.95,24.61 121.95,24.64 C 121.96,24.67 121.96,24.70 121.97,24.73 C 121.97,24.76 121.98,24.79 121.98,24.82 C 121.98,24.86 121.99,24.89 121.99,24.92 C 122.00,24.95 122.00,24.98 122.01,25.01 C 122.01,25.04 122.02,25.07 122.02,25.11 C 122.02,25.14 122.03,25.17 122.03,25.20 C 122.04,25.23 122.04,25.27 122.05,25.30 C 122.05,25.33 122.06,25.36 122.06,25.39 C 122.07,25.43 122.07,25.46 122.07,25.49 C 122.08,25.52 122.08,25.56 122.09,25.59 C 122.09,25.62 122.10,25.66 122.10,25.69 C 122.11,25.72 122.11,25.76 122.12,25.79 C 122.12,25.82 122.13,25.86 122.13,25.89 C 122.14,25.92 122.14,25.96 122.15,25.99 C 122.15,26.02 122.16,26.06 122.16,26.09 C 122.17,26.13 122.17,26.16 122.18,26.19 C 122.18,26.23 122.19,26.26 122.19,26.30 C 122.20,26.33 122.20,26.37 122.21,26.40 C 122.21,26.44 122.22,26.47 122.22,26.51 C 122.23,26.54 122.23,26.58 122.24,26.61 C 122.24,26.65 122.25,26.68 122.25,26.72 C 122.26,26.75 122.26,26.79 122.27,26.82 C 122.27,26.86 122.28,26.89 122.28,26.93 C 122.29,26.97 122.29,27.00 122.30,27.04 C 122.31,27.07 122.31,27.11 122.32,27.15 C 122.32,27.18 122.33,27.22 122.33,27.26 C 122.34,27.29 122.34,27.33 122.35,27.37 C 122.35,27.40 122.36,27.44 122.37,27.48 C 122.37,27.51 122.38,27.55 122.38,27.59 C 122.39,27.63 122.39,27.66 122.40,27.70 C 122.40,27.74 122.41,27.78 122.42,27.81 C 122.42,27.85 122.43,27.89 122.43,27.93 C 122.44,27.97 122.44,28.00 122.45,28.04 C 122.46,28.08 122.46,28.12 122.47,28.16 C 122.47,28.20 122.48,28.23 122.49,28.27 C 122.49,28.31 122.50,28.35 122.50,28.39 C 122.51,28.43 122.52,28.47 122.52,28.51 C 122.53,28.55 122.53,28.59 122.54,28.62 C 122.55,28.66 122.55,28.70 122.56,28.74 C 122.56,28.78 122.57,28.82 122.58,28.86 C 122.58,28.90 122.59,28.94 122.59,28.98 C 122.60,29.02 122.61,29.06 122.61,29.10 C 122.62,29.14 122.63,29.18 122.63,29.22 C 122.64,29.26 122.65,29.30 122.65,29.35 C 122.66,29.39 122.66,29.43 122.67,29.47 C 122.68,29.51 122.68,29.55 122.69,29.59 C 122.70,29.63 122.70,29.67 122.71,29.71 C 122.72,29.76 122.72,29.80 122.73,29.84 C 122.74,29.88 122.74,29.92 122.75,29.96 C 122.76,30.01 122.76,30.05 122.77,30.09 C 122.78,30.13 122.78,30.17 122.79,30.22 C 122.80,30.26 122.80,30.30 122.81,30.34 C 122.82,30.39 122.82,30.43 122.83,30.47 C 122.84,30.51 122.84,30.56 122.85,30.60 C 122.86,30.64 122.87,30.69 122.87,30.73 C 122.88,30.77 122.89,30.82 122.89,30.86 C 122.90,30.90 122.91,30.95 122.91,30.99 C 122.92,31.03 122.93,31.08 122.94,31.12 C 122.94,31.16 122.95,31.21 122.96,31.25 C 122.97,31.30 122.97,31.34 122.98,31.38 C 122.99,31.43 122.99,31.47 123.00,31.52 C 123.01,31.56 123.02,31.61 123.02,31.65 C 123.03,31.70 123.04,31.74 123.05,31.79 C 123.05,31.83 123.06,31.88 123.07,31.92 C 123.08,31.97 123.08,32.01 123.09,32.06 C 123.10,32.10 123.11,32.15 123.11,32.19 C 123.12,32.24 123.13,32.28 123.14,32.33 C 123.15,32.37 123.15,32.42 123.16,32.47 C 123.17,32.51 123.18,32.56 123.18,32.60 C 123.19,32.65 123.20,32.70 123.21,32.74 C 123.22,32.79 123.22,32.83 123.23,32.88 C 123.24,32.93 123.25,32.97 123.26,33.02 C 123.26,33.07 123.27,33.11 123.28,33.16 C 123.29,33.21 123.30,33.25 123.30,33.30 C 123.31,33.35 123.32,33.40 123.33,33.44 C 123.34,33.49 123.35,33.54 123.35,33.59 C 123.36,33.63 123.37,33.68 123.38,33.73 C 123.39,33.78 123.40,33.82 123.40,33.87 C 123.41,33.92 123.42,33.97 123.43,34.02 C 123.44,34.06 123.45,34.11 123.45,34.16 C 123.46,34.21 123.47,34.26 123.48,34.30 C 123.49,34.35 123.50,34.40 123.51,34.45 C 123.52,34.50 123.52,34.55 123.53,34.60 C 123.54,34.64 123.55,34.69 123.56,34.74 C 123.57,34.79 123.58,34.84 123.59,34.89 C 123.59,34.94 123.60,34.99 123.61,35.04 C 123.62,35.09 123.63,35.14 123.64,35.19 C 123.65,35.23 123.66,35.28 123.67,35.33 C 123.68,35.38 123.68,35.43 123.69,35.48 C 123.70,35.53 123.71,35.58 123.72,35.63 C 123.73,35.68 123.74,35.73 123.75,35.78 C 123.76,35.83 123.77,35.88 123.78,35.93 C 123.79,35.98 123.80,36.03 123.81,36.09 C 123.81,36.14 123.82,36.19 123.83,36.24 C 123.84,36.29 123.85,36.34 123.86,36.39 C 123.87,36.44 123.88,36.49 123.89,36.54 C 123.90,36.59 123.91,36.64 123.92,36.70 C 123.93,36.75 123.94,36.80 123.95,36.85 C 123.96,36.90 123.97,36.95 123.98,37.00 C 123.99,37.06 124.00,37.11 124.01,37.16 C 124.02,37.21 124.03,37.26 124.04,37.31 C 124.05,37.37 124.06,37.42 124.07,37.47 C 124.08,37.52 124.09,37.57 124.10,37.63 C 124.11,37.68 124.12,37.73 124.13,37.78 C 124.14,37.83 124.15,37.89 124.16,37.94 C 124.17,37.99 124.18,38.04 124.19,38.10 C 124.20,38.15 124.21,38.20 124.22,38.25 C 124.23,38.31 124.24,38.36 124.25,38.41 C 124.26,38.47 124.28,38.52 124.29,38.57 C 124.30,38.63 124.31,38.68 124.32,38.73 C 124.33,38.78 124.34,38.84 124.35,38.89 C 124.36,38.94 124.37,39.00 124.38,39.05 C 124.39,39.10 124.40,39.16 124.41,39.21 C 124.43,39.27 124.44,39.32 124.45,39.37 C 124.46,39.43 124.47,39.48 124.48,39.53 C 124.49,39.59 124.50,39.64 124.51,39.70 C 124.53,39.75 124.54,39.80 124.55,39.86 C 124.56,39.91 124.57,39.97 124.58,40.02 C 124.59,40.07 124.60,40.13 124.62,40.18 C 124.63,40.24 124.64,40.29 124.65,40.35 C 124.66,40.40 124.67,40.46 124.68,40.51 C 124.70,40.56 124.71,40.62 124.72,40.67 C 124.73,40.73 124.74,40.78 124.75,40.84 C 124.77,40.89 124.78,40.95 124.79,41.00 C 124.80,41.06 124.81,41.11 124.82,41.17 C 124.84,41.22 124.85,41.28 124.86,41.33 C 124.87,41.39 124.88,41.44 124.90,41.50 C 124.91,41.55 124.92,41.61 124.93,41.67 C 124.94,41.72 124.96,41.78 124.97,41.83 C 124.98,41.89 124.99,41.94 125.01,42.00 C 125.02,42.05 125.03,42.11 125.04,42.17 C 125.05,42.22 125.07,42.28 125.08,42.33 C 125.09,42.39 125.10,42.44 125.12,42.50 C 125.13,42.56 125.14,42.61 125.15,42.67 C 125.17,42.72 125.18,42.78 125.19,42.84 C 125.21,42.89 125.22,42.95 125.23,43.00 C 125.24,43.06 125.26,43.12 125.27,43.17 C 125.28,43.23 125.30,43.29 125.31,43.34 C 125.32,43.40 125.33,43.46 125.35,43.51 C 125.36,43.57 125.37,43.62 125.39,43.68 C 125.40,43.74 125.41,43.79 125.43,43.85 C 125.44,43.91 125.45,43.96 125.47,44.02 C 125.48,44.08 125.49,44.13 125.51,44.19 C 125.52,44.25 125.53,44.31 125.55,44.36 C 125.56,44.42 125.57,44.48 125.59,44.53 C 125.60,44.59 125.61,44.65 125.63,44.70 C 125.64,44.76 125.65,44.82 125.67,44.88 C 125.68,44.93 125.70,44.99 125.71,45.05 C 125.72,45.10 125.74,45.16 125.75,45.22 C 125.77,45.28 125.78,45.33 125.79,45.39 C 125.81,45.45 125.82,45.51 125.84,45.56 C 125.85,45.62 125.86,45.68 125.88,45.73 C 125.89,45.79 125.91,45.85 125.92,45.91 C 125.94,45.96 125.95,46.02 125.96,46.08 C 125.98,46.14 125.99,46.20 126.01,46.25 C 126.02,46.31 126.04,46.37 126.05,46.43 C 126.07,46.48 126.08,46.54 126.09,46.60 C 126.11,46.66 126.12,46.71 126.14,46.77 C 126.15,46.83 126.17,46.89 126.18,46.95 C 126.20,47.00 126.21,47.06 126.23,47.12 C 126.24,47.18 126.26,47.23 126.27,47.29 C 126.29,47.35 126.30,47.41 126.32,47.47 C 126.33,47.52 126.35,47.58 126.36,47.64 C 126.38,47.70 126.39,47.76 126.41,47.81 C 126.42,47.87 126.44,47.93 126.46,47.99 C 126.47,48.05 126.49,48.11 126.50,48.16 C 126.52,48.22 126.53,48.28 126.55,48.34 C 126.56,48.40 126.58,48.45 126.60,48.51 C 126.61,48.57 126.63,48.63 126.64,48.69 C 126.66,48.75 126.67,48.80 126.69,48.86 C 126.71,48.92 126.72,48.98 126.74,49.04 C 126.75,49.10 126.77,49.15 126.79,49.21 C 126.80,49.27 126.82,49.33 126.83,49.39 C 126.85,49.45 126.87,49.50 126.88,49.56 C 126.90,49.62 126.92,49.68 126.93,49.74 C 126.95,49.80 126.97,49.85 126.98,49.91 C 127.00,49.97 127.01,50.03 127.03,50.09 C 127.05,50.15 127.06,50.20 127.08,50.26 C 127.10,50.32 127.11,50.38 127.13,50.44 C 127.15,50.50 127.17,50.55 127.18,50.61 C 127.20,50.67 127.22,50.73 127.23,50.79 C 127.25,50.85 127.27,50.91 127.28,50.96 C 127.30,51.02 127.32,51.08 127.34,51.14 C 127.35,51.20 127.37,51.26 127.39,51.31 C 127.41,51.37 127.42,51.43 127.44,51.49 C 127.46,51.55 127.47,51.61 127.49,51.67 C 127.51,51.72 127.53,51.78 127.55,51.84 C 127.56,51.90 127.58,51.96 127.60,52.02 C 127.62,52.07 127.63,52.13 127.65,52.19 C 127.67,52.25 127.69,52.31 127.71,52.37 C 127.72,52.43 127.74,52.48 127.76,52.54 C 127.78,52.60 127.80,52.66 127.81,52.72 C 127.83,52.78 127.85,52.83 127.87,52.89 C 127.89,52.95 127.90,53.01 127.92,53.07 C 127.94,53.13 127.96,53.19 127.98,53.24 C 128.00,53.30 128.02,53.36 128.03,53.42 C 128.05,53.48 128.07,53.54 128.09,53.59 C 128.11,53.65 128.13,53.71 128.15,53.77 C 128.17,53.83 128.18,53.89 128.20,53.94 C 128.22,54.00 128.24,54.06 128.26,54.12 C 128.28,54.18 128.30,54.23 128.32,54.29 C 128.34,54.35 128.36,54.41 128.38,54.47 C 128.39,54.53 128.41,54.58 128.43,54.64 C 128.45,54.70 128.47,54.76 128.49,54.82 C 128.51,54.88 128.53,54.93 128.55,54.99 C 128.57,55.05 128.59,55.11 128.61,55.17 C 128.63,55.22 128.65,55.28 128.67,55.34 C 128.69,55.40 128.71,55.46 128.73,55.51 C 128.75,55.57 128.77,55.63 128.79,55.69 C 128.81,55.75 128.83,55.80 128.85,55.86 C 128.87,55.92 128.89,55.98 128.91,56.04 C 128.93,56.09 128.95,56.15 128.97,56.21 C 128.99,56.27 129.01,56.33 129.03,56.38 C 129.05,56.44 129.07,56.50 129.09,56.56 C 129.11,56.61 129.13,56.67 129.16,56.73 C 129.18,56.79 129.20,56.84 129.22,56.90 C 129.24,56.96 129.26,57.02 129.28,57.08 C 129.30,57.13 129.32,57.19 129.34,57.25 C 129.36,57.31 129.39,57.36 129.41,57.42 C 129.43,57.48 129.45,57.54 129.47,57.59 C 129.49,57.65 129.51,57.71 129.54,57.77 C 129.56,57.82 129.58,57.88 129.60,57.94 C 129.62,57.99 129.64,58.05 129.66,58.11 C 129.69,58.17 129.71,58.22 129.73,58.28 C 129.75,58.34 129.77,58.40 129.80,58.45 C 129.82,58.51 129.84,58.57 129.86,58.62 C 129.88,58.68 129.91,58.74 129.93,58.80 C 129.95,58.85 129.97,58.91 129.99,58.97 C 130.02,59.02 130.04,59.08 130.06,59.14 C 130.08,59.19 130.11,59.25 130.13,59.31 C 130.15,59.36 130.17,59.42 130.20,59.48 C 130.22,59.53 130.24,59.59 130.27,59.65 C 130.29,59.70 130.31,59.76 130.33,59.82 C 130.36,59.87 130.38,59.93 130.40,59.99 C 130.43,60.04 130.45,60.10 130.47,60.16 C 130.50,60.21 130.52,60.27 130.54,60.33 C 130.57,60.38 130.59,60.44 130.61,60.50 C 130.64,60.55 130.66,60.61 130.68,60.66 C 130.71,60.72 130.73,60.78 130.75,60.83 C 130.78,60.89 130.80,60.94 130.82,61.00 C 130.85,61.06 130.87,61.11 130.90,61.17 C 130.92,61.22 130.94,61.28 130.97,61.34 C 130.99,61.39 131.02,61.45 131.04,61.50 C 131.07,61.56 131.09,61.62 131.11,61.67 C 131.14,61.73 131.16,61.78 131.19,61.84 C 131.21,61.89 131.24,61.95 131.26,62.00 C 131.29,62.06 131.31,62.12 131.33,62.17 C 131.36,62.23 131.38,62.28 131.41,62.34 C 131.43,62.39 131.46,62.45 131.48,62.50 C 131.51,62.56 131.53,62.61 131.56,62.67 C 131.58,62.72 131.61,62.78 131.63,62.83 C 131.66,62.89 131.68,62.94 131.71,63.00 C 131.74,63.05 131.76,63.11 131.79,63.16 C 131.81,63.22 131.84,63.27 131.86,63.33 C 131.89,63.38 131.91,63.44 131.94,63.49 C 131.97,63.55 131.99,63.60 132.02,63.66 C 132.04,63.71 132.07,63.77 132.10,63.82 C 132.12,63.87 132.15,63.93 132.17,63.98 C 132.20,64.04 132.23,64.09 132.25,64.15 C 132.28,64.20 132.31,64.25 132.33,64.31 C 132.36,64.36 132.39,64.42 132.41,64.47 C 132.44,64.52 132.47,64.58 132.49,64.63 C 132.52,64.69 132.55,64.74 132.57,64.79 C 132.60,64.85 132.63,64.90 132.65,64.96 C 132.68,65.01 132.71,65.06 132.73,65.12 C 132.76,65.17 132.79,65.22 132.82,65.28 C 132.84,65.33 132.87,65.38 132.90,65.44 C 132.93,65.49 132.95,65.54 132.98,65.60 C 133.01,65.65 133.04,65.70 133.06,65.76 C 133.09,65.81 133.12,65.86 133.15,65.92 C 133.18,65.97 133.20,66.02 133.23,66.08 C 133.26,66.13 133.29,66.18 133.32,66.23 C 133.34,66.29 133.37,66.34 133.40,66.39 C 133.43,66.45 133.46,66.50 133.49,66.55 C 133.51,66.60 133.54,66.66 133.57,66.71 C 133.60,66.76 133.63,66.81 133.66,66.87 C 133.69,66.92 133.71,66.97 133.74,67.02 C 133.77,67.07 133.80,67.13 133.83,67.18 C 133.86,67.23 133.89,67.28 133.92,67.34 C 133.95,67.39 133.98,67.44 134.00,67.49 C 134.03,67.54 134.06,67.60 134.09,67.65 C 134.12,67.70 134.15,67.75 134.18,67.80 C 134.21,67.85 134.24,67.91 134.27,67.96 C 134.30,68.01 134.33,68.06 134.36,68.11 C 134.39,68.16 134.42,68.21 134.45,68.27 C 134.48,68.32 134.51,68.37 134.54,68.42 C 134.57,68.47 134.60,68.52 134.63,68.57 C 134.66,68.62 134.69,68.67 134.72,68.73 C 134.75,68.78 134.78,68.83 134.81,68.88 C 134.84,68.93 134.88,68.98 134.91,69.03 C 134.94,69.08 134.97,69.13 135.00,69.18 C 135.03,69.23 135.06,69.28 135.09,69.33 C 135.12,69.38 135.15,69.43 135.19,69.48 C 135.22,69.53 135.25,69.58 135.28,69.63 C 135.31,69.68 135.34,69.73 135.37,69.78 C 135.41,69.83 135.44,69.88 135.47,69.93 C 135.50,69.98 135.53,70.03 135.56,70.08 C 135.60,70.13 135.63,70.18 135.66,70.23 C 135.69,70.28 135.72,70.33 135.76,70.38 C 135.79,70.43 135.82,70.48 135.85,70.53 C 135.89,70.58 135.92,70.63 135.95,70.68 C 135.98,70.73 136.02,70.78 136.05,70.83 C 136.08,70.87 136.11,70.92 136.15,70.97 C 136.18,71.02 136.21,71.07 136.24,71.12 C 136.28,71.17 136.31,71.22 136.34,71.27 C 136.38,71.31 136.41,71.36 136.44,71.41 C 136.48,71.46 136.51,71.51 136.54,71.56 C 136.58,71.61 136.61,71.65 136.64,71.70 C 136.68,71.75 136.71,71.80 136.74,71.85 C 136.78,71.89 136.81,71.94 136.85,71.99 C 136.88,72.04 136.91,72.09 136.95,72.13 C 136.98,72.18 137.02,72.23 137.05,72.28 C 137.09,72.33 137.12,72.37 137.15,72.42 C 137.19,72.47 137.22,72.52 137.26,72.56 C 137.29,72.61 137.33,72.66 137.36,72.71 C 137.40,72.75 137.43,72.80 137.47,72.85 C 137.50,72.90 137.54,72.94 137.57,72.99 C 137.61,73.04 137.64,73.08 137.68,73.13 C 137.71,73.18 137.75,73.22 137.78,73.27 C 137.82,73.32 137.85,73.36 137.89,73.41 C 137.92,73.46 137.96,73.50 138.00,73.55 C 138.03,73.60 138.07,73.64 138.10,73.69 C 138.14,73.74 138.17,73.78 138.21,73.83 C 138.25,73.88 138.28,73.92 138.32,73.97 C 138.36,74.01 138.39,74.06 138.43,74.11 C 138.46,74.15 138.50,74.20 138.54,74.24 C 138.57,74.29 138.61,74.33 138.65,74.38 C 138.68,74.43 138.72,74.47 138.76,74.52 C 138.79,74.56 138.83,74.61 138.87,74.65 C 138.91,74.70 138.94,74.74 138.98,74.79 C 139.02,74.83 139.05,74.88 139.09,74.92 C 139.13,74.97 139.17,75.02 139.20,75.06 C 139.24,75.10 139.28,75.15 139.32,75.19 C 139.36,75.24 139.39,75.28 139.43,75.33 C 139.47,75.37 139.51,75.42 139.55,75.46 C 139.58,75.51 139.62,75.55 139.66,75.60 C 139.70,75.64 139.74,75.68 139.77,75.73 C 139.81,75.77 139.85,75.82 139.89,75.86 C 139.93,75.91 139.97,75.95 140.01,75.99 C 140.05,76.04 140.08,76.08 140.12,76.13 C 140.16,76.17 140.20,76.21 140.24,76.26 C 140.28,76.30 140.32,76.34 140.36,76.39 C 140.40,76.43 140.44,76.47 140.48,76.52 C 140.52,76.56 140.56,76.60 140.60,76.65 C 140.63,76.69 140.67,76.73 140.71,76.78 C 140.75,76.82 140.79,76.86 140.83,76.91 C 140.87,76.95 140.91,76.99 140.95,77.04 C 141.00,77.08 141.04,77.12 141.08,77.16 C 141.12,77.21 141.16,77.25 141.20,77.29 C 141.24,77.33 141.28,77.38 141.32,77.42 C 141.36,77.46 141.40,77.50 141.44,77.55 C 141.48,77.59 141.52,77.63 141.56,77.67 C 141.61,77.71 141.65,77.76 141.69,77.80 C 141.73,77.84 141.77,77.88 141.81,77.92 C 141.85,77.97 141.90,78.01 141.94,78.05 C 141.98,78.09 142.02,78.13 142.06,78.17 C 142.10,78.22 142.15,78.26 142.19,78.30 C 142.23,78.34 142.27,78.38 142.32,78.42 C 142.36,78.46 142.40,78.51 142.44,78.55 C 142.48,78.59 142.53,78.63 142.57,78.67 C 142.61,78.71 142.66,78.75 142.70,78.79 C 142.74,78.83 142.78,78.87 142.83,78.92 C 142.87,78.96 142.91,79.00 142.96,79.04 C 143.00,79.08 143.04,79.12 143.09,79.16 C 143.13,79.20 143.17,79.24 143.22,79.28 C 143.26,79.32 143.30,79.36 143.35,79.40 C 143.39,79.44 143.43,79.48 143.48,79.52 C 143.52,79.56 143.57,79.60 143.61,79.64 C 143.65,79.68 143.70,79.72 143.74,79.76 C 143.79,79.80 143.83,79.84 143.88,79.88 C 143.92,79.92 143.97,79.96 144.01,80.00 C 144.05,80.04 144.10,80.08 144.14,80.11 C 144.19,80.15 144.23,80.19 144.28,80.23 C 144.32,80.27 144.37,80.31 144.41,80.35 C 144.46,80.39 144.51,80.43 144.55,80.47 C 144.60,80.51 144.64,80.54 144.69,80.58 C 144.73,80.62 144.78,80.66 144.83,80.70 C 144.87,80.74 144.92,80.78 144.96,80.81 C 145.01,80.85 145.06,80.89 145.10,80.93 C 145.15,80.97 145.19,81.01 145.24,81.04 C 145.29,81.08 145.33,81.12 145.38,81.16 C 145.43,81.20 145.47,81.23 145.52,81.27 C 145.57,81.31 145.61,81.35 145.66,81.39 C 145.71,81.42 145.76,81.46 145.80,81.50 C 145.85,81.54 145.90,81.57 145.94,81.61 C 145.99,81.65 146.04,81.69 146.09,81.72 C 146.13,81.76 146.18,81.80 146.23,81.84 C 146.28,81.87 146.33,81.91 146.37,81.95 C 146.42,81.98 146.47,82.02 146.52,82.06 C 146.57,82.09 146.62,82.13 146.66,82.17 C 146.71,82.21 146.76,82.24 146.81,82.28 C 146.86,82.32 146.91,82.35 146.96,82.39 C 147.00,82.43 147.05,82.46 147.10,82.50 C 147.15,82.53 147.20,82.57 147.25,82.61 C 147.30,82.64 147.35,82.68 147.40,82.72 C 147.45,82.75 147.50,82.79 147.55,82.82 C 147.60,82.86 147.65,82.90 147.70,82.93 C 147.75,82.97 147.80,83.00 147.85,83.04 C 147.90,83.07 147.95,83.11 148.00,83.15 C 148.05,83.18 148.10,83.22 148.15,83.25 C 148.20,83.29 148.25,83.32 148.30,83.36 C 148.35,83.39 148.40,83.43 148.45,83.46 C 148.50,83.50 148.55,83.53 148.61,83.57 C 148.66,83.60 148.71,83.64 148.76,83.67 C 148.81,83.71 148.86,83.74 148.91,83.78 C 148.97,83.81 149.02,83.85 149.07,83.88 C 149.12,83.92 149.17,83.95 149.22,83.99 C 149.28,84.02 149.33,84.05 149.38,84.09 C 149.43,84.12 149.49,84.16 149.54,84.19 C 149.59,84.23 149.64,84.26 149.70,84.29 C 149.75,84.33 149.80,84.36 149.85,84.40 C 149.91,84.43 149.96,84.46 150.01,84.50 C 150.07,84.53 150.12,84.57 150.17,84.60 C 150.23,84.63 150.28,84.67 150.33,84.70 C 150.39,84.73 150.44,84.77 150.49,84.80 C 150.55,84.83 150.60,84.87 150.65,84.90 C 150.71,84.93 150.76,84.97 150.82,85.00 C 150.87,85.03 150.92,85.07 150.98,85.10 C 151.03,85.13 151.09,85.17 151.14,85.20 C 151.20,85.23 151.25,85.26 151.31,85.30 C 151.36,85.33 151.42,85.36 151.47,85.39 C 151.53,85.43 151.58,85.46 151.64,85.49 C 151.69,85.53 151.75,85.56 151.80,85.59 C 151.86,85.62 151.91,85.65 151.97,85.69 C 152.03,85.72 152.08,85.75 152.14,85.78 C 152.19,85.82 152.25,85.85 152.30,85.88 C 152.36,85.91 152.42,85.94 152.47,85.98 C 152.53,86.01 152.59,86.04 152.64,86.07 C 152.70,86.10 152.76,86.13 152.81,86.17 C 152.87,86.20 152.93,86.23 152.98,86.26 C 153.04,86.29 153.10,86.32 153.16,86.35 C 153.21,86.39 153.27,86.42 153.33,86.45 C 153.38,86.48 153.44,86.51 153.50,86.54 C 153.56,86.57 153.62,86.60 153.67,86.64 C 153.73,86.67 153.79,86.70 153.85,86.73 C 153.91,86.76 153.96,86.79 154.02,86.82 C 154.08,86.85 154.14,86.88 154.20,86.91 C 154.26,86.94 154.32,86.97 154.37,87.00 C 154.43,87.04 154.49,87.07 154.55,87.10 C 154.61,87.13 154.67,87.16 154.73,87.19 C 154.79,87.22 154.85,87.25 154.91,87.28 C 154.97,87.31 155.03,87.34 155.09,87.37 C 155.15,87.40 155.21,87.43 155.27,87.46 C 155.33,87.49 155.39,87.52 155.45,87.55 C 155.51,87.58 155.57,87.61 155.63,87.64 C 155.69,87.67 155.75,87.70 155.81,87.72 C 155.87,87.75 155.93,87.78 155.99,87.81 C 156.05,87.84 156.11,87.87 156.17,87.90 C 156.24,87.93 156.30,87.96 156.36,87.99 C 156.42,88.02 156.48,88.05 156.54,88.08 C 156.60,88.11 156.67,88.13 156.73,88.16 C 156.79,88.19 156.85,88.22 156.91,88.25 C 156.98,88.28 157.04,88.31 157.10,88.34 C 157.16,88.36 157.23,88.39 157.29,88.42 C 157.35,88.45 157.41,88.48 157.48,88.51 C 157.54,88.54 157.60,88.56 157.67,88.59 C 157.73,88.62 157.79,88.65 157.86,88.68 C 157.92,88.71 157.98,88.73 158.05,88.76 C 158.11,88.79 158.17,88.82 158.24,88.85 C 158.30,88.87 158.36,88.90 158.43,88.93 C 158.49,88.96 158.56,88.99 158.62,89.01 C 158.69,89.04 158.75,89.07 158.81,89.10 C 158.88,89.12 158.94,89.15 159.01,89.18 C 159.07,89.21 159.14,89.23 159.20,89.26 C 159.27,89.29 159.33,89.32 159.40,89.34 C 159.46,89.37 159.53,89.40 159.60,89.43 C 159.66,89.45 159.73,89.48 159.79,89.51 C 159.86,89.53 159.92,89.56 159.99,89.59 C 160.06,89.61 160.12,89.64 160.19,89.67 C 160.25,89.70 160.32,89.72 160.39,89.75 C 160.45,89.78 160.52,89.80 160.59,89.83 C 160.65,89.86 160.72,89.88 160.79,89.91 C 160.86,89.94 160.92,89.96 160.99,89.99 C 161.06,90.01 161.12,90.04 161.19,90.07 C 161.26,90.09 161.33,90.12 161.40,90.15 C 161.46,90.17 161.53,90.20 161.60,90.22 C 161.67,90.25 161.74,90.28 161.80,90.30 C 161.87,90.33 161.94,90.35 162.01,90.38 C 162.08,90.41 162.15,90.43 162.21,90.46 C 162.28,90.48 162.35,90.51 162.42,90.53 C 162.49,90.56 162.56,90.59 162.63,90.61 C 162.70,90.64 162.77,90.66 162.84,90.69 C 162.91,90.71 162.98,90.74 163.05,90.76 C 163.12,90.79 163.19,90.81 163.26,90.84 C 163.33,90.86 163.40,90.89 163.47,90.92 C 163.54,90.94 163.61,90.97 163.68,90.99 C 163.75,91.02 163.82,91.04 163.89,91.07 C 163.96,91.09 164.03,91.11 164.10,91.14 C 164.17,91.16 164.25,91.19 164.32,91.21 C 164.39,91.24 164.46,91.26 164.53,91.29 C 164.60,91.31 164.68,91.34 164.75,91.36 C 164.82,91.39 164.89,91.41 164.96,91.43 C 165.04,91.46 165.11,91.48 165.18,91.51 C 165.25,91.53 165.32,91.56 165.40,91.58 C 165.47,91.60 165.54,91.63 165.62,91.65 C 165.69,91.68 165.76,91.70 165.84,91.72 C 165.91,91.75 165.98,91.77 166.06,91.80 C 166.13,91.82 166.20,91.84 166.28,91.87 C 166.35,91.89 166.42,91.92 166.50,91.94 C 166.57,91.96 166.65,91.99 166.72,92.01 C 166.79,92.03 166.87,92.06 166.94,92.08 C 167.02,92.10 167.09,92.13 167.17,92.15 C 167.24,92.17 167.32,92.20 167.39,92.22 C 167.47,92.24 167.54,92.27 167.62,92.29 C 167.69,92.31 167.77,92.34 167.84,92.36 C 167.92,92.38 168.00,92.41 168.07,92.43 C 168.15,92.45 168.22,92.47 168.30,92.50 C 168.38,92.52 168.45,92.54 168.53,92.57 C 168.61,92.59 168.68,92.61 168.76,92.63 C 168.84,92.66 168.91,92.68 168.99,92.70 C 169.07,92.72 169.14,92.75 169.22,92.77 C 169.30,92.79 169.38,92.81 169.45,92.84 C 169.53,92.86 169.61,92.88 169.69,92.90 C 169.76,92.93 169.84,92.95 169.92,92.97 C 170.00,92.99 170.08,93.01 170.15,93.04 C 170.23,93.06 170.31,93.08 170.39,93.10 C 170.47,93.13 170.55,93.15 170.63,93.17 C 170.71,93.19 170.78,93.21 170.86,93.23 C 170.94,93.26 171.02,93.28 171.10,93.30 C 171.18,93.32 171.26,93.34 171.34,93.37 C 171.42,93.39 171.50,93.41 171.58,93.43 C 171.66,93.45 171.74,93.47 171.82,93.49 C 171.90,93.52 171.98,93.54 172.06,93.56 C 172.14,93.58 172.22,93.60 172.31,93.62 C 172.39,93.64 172.47,93.66 172.55,93.69 C 172.63,93.71 172.71,93.73 172.79,93.75 C 172.87,93.77 172.96,93.79 173.04,93.81 C 173.12,93.83 173.20,93.85 173.28,93.88 C 173.36,93.90 173.45,93.92 173.53,93.94 C 173.61,93.96 173.69,93.98 173.78,94.00 C 173.86,94.02 173.94,94.04 174.03,94.06 C 174.11,94.08 174.19,94.10 174.27,94.12 C 174.36,94.14 174.44,94.17 174.52,94.19 C 174.61,94.21 174.69,94.23 174.78,94.25 C 174.86,94.27 174.94,94.29 175.03,94.31 C 175.11,94.33 175.20,94.35 175.28,94.37 C 175.36,94.39 175.45,94.41 175.53,94.43 C 175.62,94.45 175.70,94.47 175.79,94.49 C 175.87,94.51 175.96,94.53 176.04,94.55 C 176.13,94.57 176.21,94.59 176.30,94.61 C 176.38,94.63 176.47,94.65 176.56,94.67 C 176.64,94.69 176.73,94.71 176.81,94.73 C 176.90,94.75 176.99,94.77 177.07,94.79 C 177.16,94.81 177.25,94.83 177.33,94.85 C 177.42,94.86 177.51,94.88 177.59,94.90 C 177.68,94.92 177.77,94.94 177.85,94.96 C 177.94,94.98 178.03,95.00 178.12,95.02 C 178.20,95.04 178.29,95.06 178.38,95.08 C 178.47,95.10 178.56,95.12 178.64,95.13 C 178.73,95.15 178.82,95.17 178.91,95.19 C 179.00,95.21 179.09,95.23 179.17,95.25 C 179.26,95.27 179.35,95.29 179.44,95.31 C 179.53,95.32 179.62,95.34 179.71,95.36 C 179.80,95.38 179.89,95.40 179.98,95.42 C 180.07,95.44 180.16,95.46 180.25,95.47 C 180.34,95.49 180.43,95.51 180.52,95.53 C 180.61,95.55 180.70,95.57 180.79,95.59 C 180.88,95.60 180.97,95.62 181.06,95.64 C 181.15,95.66 181.24,95.68 181.33,95.70 C 181.43,95.71 181.52,95.73 181.61,95.75 C 181.70,95.77 181.79,95.79 181.88,95.80 C 181.98,95.82 182.07,95.84 182.16,95.86 C 182.25,95.88 182.34,95.90 182.44,95.91 C 182.53,95.93 182.62,95.95 182.71,95.97 C 182.81,95.98 182.90,96.00 182.99,96.02 C 183.09,96.04 183.18,96.06 183.27,96.07 C 183.37,96.09 183.46,96.11 183.55,96.13 C 183.65,96.14 183.74,96.16 183.83,96.18 C 183.93,96.20 184.02,96.22 184.12,96.23 C 184.21,96.25 184.31,96.27 184.40,96.28 C 184.50,96.30 184.59,96.32 184.69,96.34 C 184.78,96.35 184.88,96.37 184.97,96.39 C 185.07,96.41 185.16,96.42 185.26,96.44 C 185.35,96.46 185.45,96.48 185.54,96.49 C 185.64,96.51 185.74,96.53 185.83,96.54 C 185.93,96.56 186.02,96.58 186.12,96.59 C 186.22,96.61 186.31,96.63 186.41,96.65 C 186.51,96.66 186.60,96.68 186.70,96.70 C 186.80,96.71 186.90,96.73 186.99,96.75 C 187.09,96.76 187.19,96.78 187.29,96.80 C 187.38,96.81 187.48,96.83 187.58,96.85 C 187.68,96.86 187.78,96.88 187.88,96.90 C 187.97,96.91 188.07,96.93 188.17,96.95 C 188.27,96.96 188.37,96.98 188.47,97.00 C 188.57,97.01 188.67,97.03 188.77,97.05 C 188.87,97.06 188.96,97.08 189.06,97.09 C 189.16,97.11 189.26,97.13 189.36,97.14 C 189.46,97.16 189.56,97.18 189.66,97.19 C 189.77,97.21 189.87,97.22 189.97,97.24 C 190.07,97.26 190.17,97.27 190.27,97.29 C 190.37,97.30 190.47,97.32 190.57,97.34 C 190.67,97.35 190.78,97.37 190.88,97.38 C 190.98,97.40 191.08,97.41 191.18,97.43 C 191.28,97.45 191.39,97.46 191.49,97.48 C 191.59,97.49 191.69,97.51 191.80,97.53 C 191.90,97.54 192.00,97.56 192.11,97.57 C 192.21,97.59 192.31,97.60 192.41,97.62 C 192.52,97.63 192.62,97.65 192.73,97.67 C 192.83,97.68 192.93,97.70 193.04,97.71 C 193.14,97.73 193.25,97.74 193.35,97.76 C 193.45,97.77 193.56,97.79 193.66,97.80 C 193.77,97.82 193.87,97.83 193.98,97.85 C 194.08,97.86 194.19,97.88 194.29,97.89 C 194.40,97.91 194.50,97.92 194.61,97.94 C 194.72,97.95 194.82,97.97 194.93,97.98 C 195.03,98.00 195.14,98.01 195.25,98.03 C 195.35,98.04 195.46,98.06 195.57,98.07 C 195.67,98.09 195.78,98.10 195.89,98.12 C 195.99,98.13 196.10,98.15 196.21,98.16 C 196.31,98.18 196.42,98.19 196.53,98.21 C 196.64,98.22 196.75,98.24 196.85,98.25 C 196.96,98.27 197.07,98.28 197.18,98.30 C 197.29,98.31 197.40,98.32 197.50,98.34 C 197.61,98.35 197.72,98.37 197.83,98.38 C 197.94,98.40 198.05,98.41 198.16,98.43 C 198.27,98.44 198.38,98.45 198.49,98.47 C 198.60,98.48 198.71,98.50 198.82,98.51 C 198.93,98.53 199.04,98.54 199.15,98.55 C 199.26,98.57 199.37,98.58 199.48,98.60 C 199.59,98.61 199.70,98.62 199.81,98.64 C 199.92,98.65 200.04,98.67 200.15,98.68 C 200.26,98.69 200.37,98.71 200.48,98.72 C 200.59,98.74 200.71,98.75 200.82,98.76 C 200.93,98.78 201.04,98.79 201.16,98.81 C 201.27,98.82 201.38,98.83 201.49,98.85 C 201.61,98.86 201.72,98.87 201.83,98.89 C 201.95,98.90 202.06,98.92 202.17,98.93 C 202.29,98.94 202.40,98.96 202.51,98.97 C 202.63,98.98 202.80,99.00 202.86,99.01" />
  </g>

  <!-- точка (1;5) -->
  <circle cx="124.29" cy="38.57" r="2.2" fill="#2d70b3" />

  <!-- подпись f(x) -->
  <text x="167.14" y="81.43"
        font-family="Georgia, 'Times New Roman', serif"
        font-style="italic"
        font-size="13"
        fill="#2d70b3">
    f(x)
  </text>

</svg>
