<svg xmlns="http://www.w3.org/2000/svg" width="220" height="220" viewBox="0 0 220 220">

  <rect x="0" y="0" width="220" height="220" fill="white" />

  <defs>
    <!-- стрелка для осей -->
    <marker id="axis-arrow"
            viewBox="0 0 15 8"
            refX="13" refY="4"
            markerWidth="12" markerHeight="6.4"
            orient="auto"
            markerUnits="userSpaceOnUse">
      <path d="M 3 0 L 15 4 L 3 8 L 7 4 Z"
            fill="black" />
    </marker>
  </defs>

  <!-- тонкая клетчатая сетка: по x и y от -5 до 5 (10×10), без окаймления -->
  <g stroke="#d1d5db" stroke-width="0.5" shape-rendering="crispEdges">
    <!-- вертикальные линии: только внутренние -->
    <line x1="30"  y1="10" x2="30"  y2="210" />
    <line x1="50"  y1="10" x2="50"  y2="210" />
    <line x1="70"  y1="10" x2="70"  y2="210" />
    <line x1="90"  y1="10" x2="90"  y2="210" />
    <line x1="110" y1="10" x2="110" y2="210" />
    <line x1="130" y1="10" x2="130" y2="210" />
    <line x1="150" y1="10" x2="150" y2="210" />
    <line x1="170" y1="10" x2="170" y2="210" />
    <line x1="190" y1="10" x2="190" y2="210" />

    <!-- горизонтальные линии: только внутренние -->
    <line x1="10" y1="30"  x2="210" y2="30"  />
    <line x1="10" y1="50"  x2="210" y2="50"  />
    <line x1="10" y1="70"  x2="210" y2="70"  />
    <line x1="10" y1="90"  x2="210" y2="90"  />
    <line x1="10" y1="110" x2="210" y2="110" />
    <line x1="10" y1="130" x2="210" y2="130" />
    <line x1="10" y1="150" x2="210" y2="150" />
    <line x1="10" y1="170" x2="210" y2="170" />
    <line x1="10" y1="190" x2="210" y2="190" />
  </g>

  <!-- оси x и y (0 находится в точке (110;110)) -->
  <g stroke="#111827" stroke-width="1.25">
    <line x1="10" y1="110" x2="210" y2="110"
          marker-end="url(#axis-arrow)" />
    <line x1="110" y1="210" x2="110" y2="10"
          marker-end="url(#axis-arrow)" />
  </g>

  <!-- подписи осей и делений -->
  <g font-family="sans-serif" font-size="11" fill="#111827">
    <text x="106" y="123" text-anchor="end"
          font-size="13" font-style="italic"
          font-family="Georgia, 'Times New Roman', serif">O</text>

    <rect x="127" y="113" width="7" height="12" fill="white" />
    <text x="130" y="124" text-anchor="middle" font-size="13"
          font-family="'Times New Roman', serif"
          font-weight="300">1</text>

    <text x="103" y="94" text-anchor="end" font-size="13"
          font-family="'Times New Roman', serif"
          font-weight="300">1</text>

    <text x="206" y="123" text-anchor="start"
          font-family="Georgia, 'Times New Roman', serif"
          font-style="italic" font-size="13">x</text>

    <text x="107" y="13" text-anchor="end"
          font-family="Georgia, 'Times New Roman', serif"
          font-style="italic" font-size="13">y</text>
  </g>

  <!-- гипербола y = k/x, k=2 (гладкая интерполяция), в пределах окна [-5;5]×[-5;5] -->
  <g stroke="#2d70b3" stroke-width="1.25" fill="none"
     stroke-linecap="round" stroke-linejoin="round">
    <!-- ветвь в III квадранте -->
    <path d="M 10.00,118.00 C 10.18,118.01 10.70,118.06 11.05,118.08 C 11.40,118.11 11.75,118.14 12.09,118.17 C 12.44,118.20 12.78,118.23 13.13,118.26 C 13.47,118.29 13.81,118.32 14.15,118.35 C 14.50,118.38 14.83,118.41 15.17,118.44 C 15.51,118.47 15.85,118.50 16.18,118.53 C 16.52,118.56 16.85,118.59 17.18,118.62 C 17.52,118.65 17.85,118.68 18.18,118.71 C 18.51,118.74 18.84,118.78 19.16,118.81 C 19.49,118.84 19.82,118.87 20.14,118.90 C 20.47,118.94 20.79,118.97 21.11,119.00 C 21.43,119.03 21.75,119.07 22.07,119.10 C 22.39,119.13 22.71,119.16 23.03,119.20 C 23.34,119.23 23.66,119.27 23.97,119.30 C 24.29,119.33 24.60,119.37 24.91,119.40 C 25.22,119.44 25.53,119.47 25.84,119.51 C 26.15,119.54 26.46,119.58 26.77,119.61 C 27.07,119.65 27.38,119.68 27.68,119.72 C 27.98,119.75 28.29,119.79 28.59,119.83 C 28.89,119.86 29.19,119.90 29.49,119.94 C 29.79,119.97 30.08,120.01 30.38,120.05 C 30.68,120.09 30.97,120.12 31.26,120.16 C 31.56,120.20 31.85,120.24 32.14,120.27 C 32.43,120.31 32.72,120.35 33.01,120.39 C 33.30,120.43 33.59,120.47 33.87,120.51 C 34.16,120.55 34.44,120.59 34.73,120.63 C 35.01,120.67 35.29,120.71 35.57,120.75 C 35.86,120.79 36.14,120.83 36.41,120.87 C 36.69,120.91 36.97,120.95 37.25,121.00 C 37.52,121.04 37.80,121.08 38.07,121.12 C 38.35,121.16 38.62,121.21 38.89,121.25 C 39.16,121.29 39.43,121.34 39.70,121.38 C 39.97,121.42 40.24,121.47 40.50,121.51 C 40.77,121.56 41.04,121.60 41.30,121.64 C 41.56,121.69 41.83,121.73 42.09,121.78 C 42.35,121.83 42.61,121.87 42.87,121.92 C 43.13,121.96 43.39,122.01 43.65,122.06 C 43.90,122.10 44.16,122.15 44.42,122.20 C 44.67,122.25 44.92,122.29 45.18,122.34 C 45.43,122.39 45.68,122.44 45.93,122.49 C 46.18,122.54 46.43,122.58 46.68,122.63 C 46.93,122.68 47.17,122.73 47.42,122.78 C 47.66,122.83 47.91,122.88 48.15,122.93 C 48.39,122.99 48.64,123.04 48.88,123.09 C 49.12,123.14 49.36,123.19 49.60,123.24 C 49.84,123.30 50.07,123.35 50.31,123.40 C 50.55,123.46 50.78,123.51 51.02,123.56 C 51.25,123.62 51.49,123.67 51.72,123.73 C 51.95,123.78 52.18,123.84 52.41,123.89 C 52.64,123.95 52.87,124.00 53.10,124.06 C 53.33,124.12 53.55,124.17 53.78,124.23 C 54.00,124.29 54.23,124.34 54.45,124.40 C 54.67,124.46 54.90,124.52 55.12,124.58 C 55.34,124.64 55.56,124.69 55.78,124.75 C 56.00,124.81 56.22,124.87 56.43,124.93 C 56.65,125.00 56.87,125.06 57.08,125.12 C 57.30,125.18 57.51,125.24 57.72,125.30 C 57.94,125.37 58.15,125.43 58.36,125.49 C 58.57,125.55 58.78,125.62 58.99,125.68 C 59.19,125.75 59.40,125.81 59.61,125.88 C 59.82,125.94 60.02,126.01 60.23,126.07 C 60.43,126.14 60.63,126.20 60.84,126.27 C 61.04,126.34 61.24,126.41 61.44,126.47 C 61.64,126.54 61.84,126.61 62.04,126.68 C 62.24,126.75 62.43,126.82 62.63,126.89 C 62.83,126.96 63.02,127.03 63.21,127.10 C 63.41,127.17 63.60,127.24 63.79,127.31 C 63.99,127.39 64.18,127.46 64.37,127.53 C 64.56,127.60 64.75,127.68 64.94,127.75 C 65.12,127.83 65.31,127.90 65.50,127.98 C 65.68,128.05 65.87,128.13 66.05,128.20 C 66.24,128.28 66.42,128.36 66.60,128.43 C 66.79,128.51 66.97,128.59 67.15,128.67 C 67.33,128.75 67.51,128.83 67.69,128.91 C 67.86,128.99 68.04,129.07 68.22,129.15 C 68.40,129.23 68.57,129.31 68.75,129.39 C 68.92,129.47 69.09,129.56 69.27,129.64 C 69.44,129.72 69.61,129.81 69.78,129.89 C 69.95,129.98 70.12,130.06 70.29,130.15 C 70.46,130.23 70.63,130.32 70.80,130.41 C 70.97,130.49 71.13,130.58 71.30,130.67 C 71.46,130.76 71.63,130.85 71.79,130.94 C 71.95,131.03 72.12,131.12 72.28,131.21 C 72.44,131.30 72.60,131.39 72.76,131.48 C 72.92,131.58 73.08,131.67 73.24,131.76 C 73.40,131.86 73.55,131.95 73.71,132.04 C 73.87,132.14 74.02,132.24 74.18,132.33 C 74.33,132.43 74.48,132.52 74.64,132.62 C 74.79,132.72 74.94,132.82 75.09,132.92 C 75.24,133.02 75.39,133.12 75.54,133.22 C 75.69,133.32 75.84,133.42 75.99,133.52 C 76.14,133.62 76.28,133.73 76.43,133.83 C 76.57,133.93 76.72,134.04 76.86,134.14 C 77.01,134.25 77.15,134.35 77.29,134.46 C 77.44,134.57 77.58,134.67 77.72,134.78 C 77.86,134.89 78.00,135.00 78.14,135.11 C 78.28,135.22 78.42,135.33 78.55,135.44 C 78.69,135.55 78.83,135.66 78.96,135.78 C 79.10,135.89 79.23,136.00 79.37,136.12 C 79.50,136.23 79.64,136.35 79.77,136.46 C 79.90,136.58 80.03,136.69 80.16,136.81 C 80.29,136.93 80.42,137.05 80.55,137.17 C 80.68,137.29 80.81,137.41 80.94,137.53 C 81.07,137.65 81.19,137.77 81.32,137.89 C 81.44,138.02 81.57,138.14 81.69,138.26 C 81.82,138.39 81.94,138.51 82.07,138.64 C 82.19,138.76 82.31,138.89 82.43,139.02 C 82.55,139.15 82.67,139.28 82.79,139.41 C 82.91,139.53 83.03,139.66 83.15,139.80 C 83.27,139.93 83.39,140.06 83.50,140.19 C 83.62,140.33 83.74,140.46 83.85,140.59 C 83.97,140.73 84.08,140.86 84.19,141.00 C 84.31,141.14 84.42,141.28 84.53,141.41 C 84.65,141.55 84.76,141.69 84.87,141.83 C 84.98,141.97 85.09,142.11 85.20,142.26 C 85.31,142.40 85.42,142.54 85.52,142.68 C 85.63,142.83 85.74,142.97 85.85,143.12 C 85.95,143.27 86.06,143.41 86.16,143.56 C 86.27,143.71 86.37,143.86 86.47,144.01 C 86.58,144.16 86.68,144.31 86.78,144.46 C 86.89,144.61 86.99,144.76 87.09,144.92 C 87.19,145.07 87.29,145.22 87.39,145.38 C 87.49,145.53 87.59,145.69 87.68,145.85 C 87.78,146.00 87.88,146.16 87.97,146.32 C 88.07,146.48 88.17,146.64 88.26,146.80 C 88.36,146.96 88.45,147.13 88.55,147.29 C 88.64,147.45 88.73,147.62 88.82,147.78 C 88.92,147.95 89.01,148.11 89.10,148.28 C 89.19,148.44 89.28,148.61 89.37,148.78 C 89.46,148.95 89.55,149.12 89.64,149.29 C 89.73,149.46 89.82,149.63 89.90,149.81 C 89.99,149.98 90.08,150.15 90.16,150.33 C 90.25,150.50 90.33,150.68 90.42,150.85 C 90.50,151.03 90.59,151.21 90.67,151.39 C 90.75,151.56 90.84,151.74 90.92,151.92 C 91.00,152.10 91.08,152.29 91.16,152.47 C 91.24,152.65 91.32,152.83 91.40,153.02 C 91.48,153.20 91.56,153.39 91.64,153.57 C 91.72,153.76 91.80,153.95 91.87,154.13 C 91.95,154.32 92.03,154.51 92.10,154.70 C 92.18,154.89 92.25,155.08 92.33,155.27 C 92.40,155.46 92.48,155.66 92.55,155.85 C 92.63,156.04 92.70,156.24 92.77,156.43 C 92.84,156.63 92.91,156.82 92.99,157.02 C 93.06,157.22 93.13,157.41 93.20,157.61 C 93.27,157.81 93.34,158.01 93.41,158.21 C 93.48,158.41 93.54,158.61 93.61,158.81 C 93.68,159.02 93.75,159.22 93.81,159.42 C 93.88,159.63 93.95,159.83 94.01,160.04 C 94.08,160.24 94.14,160.45 94.21,160.65 C 94.27,160.86 94.33,161.07 94.40,161.28 C 94.46,161.48 94.52,161.69 94.59,161.90 C 94.65,162.11 94.71,162.32 94.77,162.53 C 94.83,162.74 94.89,162.96 94.95,163.17 C 95.01,163.38 95.07,163.59 95.13,163.81 C 95.19,164.02 95.25,164.24 95.31,164.45 C 95.37,164.67 95.42,164.88 95.48,165.10 C 95.54,165.32 95.59,165.53 95.65,165.75 C 95.71,165.97 95.76,166.19 95.82,166.40 C 95.87,166.62 95.93,166.84 95.98,167.06 C 96.03,167.28 96.09,167.50 96.14,167.72 C 96.19,167.94 96.25,168.16 96.30,168.38 C 96.35,168.61 96.40,168.83 96.45,169.05 C 96.50,169.27 96.55,169.50 96.60,169.72 C 96.65,169.94 96.70,170.17 96.75,170.39 C 96.80,170.61 96.85,170.84 96.90,171.06 C 96.95,171.29 96.99,171.51 97.04,171.74 C 97.09,171.96 97.14,172.19 97.18,172.41 C 97.23,172.64 97.27,172.86 97.32,173.09 C 97.36,173.31 97.41,173.54 97.45,173.77 C 97.50,173.99 97.54,174.22 97.59,174.44 C 97.63,174.67 97.67,174.90 97.72,175.12 C 97.76,175.35 97.80,175.58 97.84,175.80 C 97.88,176.03 97.93,176.26 97.97,176.48 C 98.01,176.71 98.05,176.93 98.09,177.16 C 98.13,177.39 98.17,177.61 98.21,177.84 C 98.25,178.07 98.29,178.29 98.32,178.52 C 98.36,178.74 98.40,178.97 98.44,179.19 C 98.48,179.42 98.51,179.64 98.55,179.87 C 98.59,180.09 98.62,180.32 98.66,180.54 C 98.69,180.76 98.73,180.99 98.77,181.21 C 98.80,181.43 98.84,181.66 98.87,181.88 C 98.90,182.10 98.94,182.32 98.97,182.54 C 99.01,182.77 99.04,182.99 99.07,183.21 C 99.10,183.43 99.14,183.65 99.17,183.87 C 99.20,184.08 99.23,184.30 99.26,184.52 C 99.30,184.74 99.33,184.96 99.36,185.17 C 99.39,185.39 99.42,185.60 99.45,185.82 C 99.48,186.03 99.51,186.25 99.54,186.46 C 99.57,186.67 99.60,186.89 99.62,187.10 C 99.65,187.31 99.68,187.52 99.71,187.73 C 99.74,187.94 99.76,188.15 99.79,188.36 C 99.82,188.57 99.84,188.77 99.87,188.98 C 99.90,189.18 99.92,189.39 99.95,189.59 C 99.97,189.80 100.00,190.00 100.03,190.20 C 100.05,190.40 100.07,190.60 100.10,190.80 C 100.12,191.00 100.15,191.20 100.17,191.40 C 100.20,191.59 100.22,191.79 100.24,191.98 C 100.27,192.18 100.29,192.37 100.31,192.56 C 100.33,192.76 100.36,192.95 100.38,193.14 C 100.40,193.33 100.42,193.51 100.44,193.70 C 100.46,193.89 100.48,194.07 100.51,194.26 C 100.53,194.44 100.55,194.62 100.57,194.80 C 100.59,194.98 100.61,195.16 100.63,195.34 C 100.65,195.52 100.66,195.69 100.68,195.87 C 100.70,196.04 100.72,196.22 100.74,196.39 C 100.76,196.56 100.78,196.73 100.79,196.90 C 100.81,197.07 100.83,197.24 100.85,197.40 C 100.86,197.57 100.88,197.73 100.90,197.89 C 100.91,198.06 100.93,198.22 100.95,198.37 C 100.96,198.53 100.98,198.69 101.00,198.85 C 101.01,199.00 101.03,199.16 101.04,199.31 C 101.06,199.46 101.07,199.61 101.09,199.76 C 101.10,199.91 101.12,200.05 101.13,200.20 C 101.14,200.34 101.16,200.49 101.17,200.63 C 101.19,200.77 101.20,200.91 101.21,201.05 C 101.23,201.19 101.24,201.32 101.25,201.46 C 101.27,201.59 101.28,201.72 101.29,201.85 C 101.30,201.99 101.32,202.11 101.33,202.24 C 101.34,202.37 101.35,202.49 101.36,202.62 C 101.37,202.74 101.39,202.86 101.40,202.98 C 101.41,203.10 101.42,203.22 101.43,203.34 C 101.44,203.45 101.45,203.57 101.46,203.68 C 101.47,203.79 101.48,203.91 101.49,204.01 C 101.50,204.12 101.51,204.23 101.52,204.34 C 101.53,204.44 101.54,204.55 101.55,204.65 C 101.56,204.75 101.57,204.85 101.57,204.95 C 101.58,205.05 101.59,205.14 101.60,205.24 C 101.61,205.33 101.62,205.43 101.62,205.52 C 101.63,205.61 101.64,205.70 101.65,205.79 C 101.66,205.87 101.66,205.96 101.67,206.04 C 101.68,206.13 101.68,206.21 101.69,206.29 C 101.70,206.37 101.71,206.45 101.71,206.53 C 101.72,206.61 101.73,206.68 101.73,206.76 C 101.74,206.83 101.74,206.91 101.75,206.98 C 101.76,207.05 101.76,207.12 101.77,207.19 C 101.77,207.25 101.78,207.32 101.79,207.38 C 101.79,207.45 101.80,207.51 101.80,207.57 C 101.81,207.63 101.81,207.70 101.82,207.75 C 101.82,207.81 101.83,207.87 101.83,207.92 C 101.84,207.98 101.84,208.03 101.84,208.09 C 101.85,208.14 101.85,208.19 101.86,208.24 C 101.86,208.29 101.86,208.34 101.87,208.39 C 101.87,208.43 101.88,208.48 101.88,208.52 C 101.88,208.57 101.89,208.61 101.89,208.65 C 101.89,208.69 101.90,208.73 101.90,208.77 C 101.90,208.81 101.91,208.85 101.91,208.89 C 101.91,208.92 101.92,208.96 101.92,208.99 C 101.92,209.03 101.92,209.06 101.93,209.09 C 101.93,209.12 101.93,209.16 101.93,209.19 C 101.94,209.22 101.94,209.24 101.94,209.27 C 101.94,209.30 101.95,209.33 101.95,209.35 C 101.95,209.38 101.95,209.40 101.95,209.42 C 101.96,209.45 101.96,209.47 101.96,209.49 C 101.96,209.51 101.96,209.53 101.96,209.55 C 101.97,209.57 101.97,209.59 101.97,209.61 C 101.97,209.63 101.97,209.65 101.97,209.66 C 101.97,209.68 101.98,209.69 101.98,209.71 C 101.98,209.72 101.98,209.74 101.98,209.75 C 101.98,209.76 101.98,209.78 101.98,209.79 C 101.98,209.80 101.98,209.81 101.99,209.82 C 101.99,209.83 101.99,209.84 101.99,209.85 C 101.99,209.86 101.99,209.87 101.99,209.88 C 101.99,209.89 101.99,209.89 101.99,209.90 C 101.99,209.91 101.99,209.91 101.99,209.92 C 101.99,209.93 101.99,209.93 101.99,209.94 C 102.00,209.94 102.00,209.95 102.00,209.95 C 102.00,209.96 102.00,209.96 102.00,209.96 C 102.00,209.97 102.00,209.97 102.00,209.97 C 102.00,209.98 102.00,209.98 102.00,209.98 C 102.00,209.98 102.00,209.98 102.00,209.99 C 102.00,209.99 102.00,209.99 102.00,209.99 C 102.00,209.99 102.00,209.99 102.00,209.99 C 102.00,210.00 102.00,210.00 102.00,210.00 C 102.00,210.00 102.00,210.00 102.00,210.00 C 102.00,210.00 102.00,210.00 102.00,210.00 C 102.00,210.00 102.00,210.00 102.00,210.00 C 102.00,210.00 102.00,210.00 102.00,210.00 C 102.00,210.00 102.00,210.00 102.00,210.00" />
    <!-- ветвь в I квадранте -->
    <path d="M 118.00,10.00 C 118.00,10.00 118.00,10.00 118.00,10.00 C 118.00,10.00 118.00,10.00 118.00,10.00 C 118.00,10.00 118.00,10.00 118.00,10.00 C 118.00,10.00 118.00,10.00 118.00,10.00 C 118.00,10.00 118.00,10.00 118.00,10.00 C 118.00,10.00 118.00,10.00 118.00,10.01 C 118.00,10.01 118.00,10.01 118.00,10.01 C 118.00,10.01 118.00,10.01 118.00,10.01 C 118.00,10.02 118.00,10.02 118.00,10.02 C 118.00,10.02 118.00,10.02 118.00,10.03 C 118.00,10.03 118.00,10.03 118.00,10.04 C 118.00,10.04 118.00,10.04 118.00,10.05 C 118.00,10.05 118.00,10.06 118.01,10.06 C 118.01,10.07 118.01,10.07 118.01,10.08 C 118.01,10.09 118.01,10.09 118.01,10.10 C 118.01,10.11 118.01,10.11 118.01,10.12 C 118.01,10.13 118.01,10.14 118.01,10.15 C 118.01,10.16 118.01,10.17 118.01,10.18 C 118.02,10.19 118.02,10.20 118.02,10.21 C 118.02,10.22 118.02,10.24 118.02,10.25 C 118.02,10.26 118.02,10.28 118.02,10.29 C 118.02,10.31 118.03,10.32 118.03,10.34 C 118.03,10.35 118.03,10.37 118.03,10.39 C 118.03,10.41 118.03,10.43 118.04,10.45 C 118.04,10.47 118.04,10.49 118.04,10.51 C 118.04,10.53 118.04,10.55 118.05,10.58 C 118.05,10.60 118.05,10.62 118.05,10.65 C 118.05,10.67 118.06,10.70 118.06,10.73 C 118.06,10.76 118.06,10.78 118.07,10.81 C 118.07,10.84 118.07,10.88 118.07,10.91 C 118.08,10.94 118.08,10.97 118.08,11.01 C 118.08,11.04 118.09,11.08 118.09,11.11 C 118.09,11.15 118.10,11.19 118.10,11.23 C 118.10,11.27 118.11,11.31 118.11,11.35 C 118.11,11.39 118.12,11.43 118.12,11.48 C 118.12,11.52 118.13,11.57 118.13,11.61 C 118.14,11.66 118.14,11.71 118.14,11.76 C 118.15,11.81 118.15,11.86 118.16,11.91 C 118.16,11.97 118.16,12.02 118.17,12.08 C 118.17,12.13 118.18,12.19 118.18,12.25 C 118.19,12.30 118.19,12.37 118.20,12.43 C 118.20,12.49 118.21,12.55 118.21,12.62 C 118.22,12.68 118.23,12.75 118.23,12.81 C 118.24,12.88 118.24,12.95 118.25,13.02 C 118.26,13.09 118.26,13.17 118.27,13.24 C 118.27,13.32 118.28,13.39 118.29,13.47 C 118.29,13.55 118.30,13.63 118.31,13.71 C 118.32,13.79 118.32,13.87 118.33,13.96 C 118.34,14.04 118.34,14.13 118.35,14.21 C 118.36,14.30 118.37,14.39 118.38,14.48 C 118.38,14.57 118.39,14.67 118.40,14.76 C 118.41,14.86 118.42,14.95 118.43,15.05 C 118.43,15.15 118.44,15.25 118.45,15.35 C 118.46,15.45 118.47,15.56 118.48,15.66 C 118.49,15.77 118.50,15.88 118.51,15.99 C 118.52,16.09 118.53,16.21 118.54,16.32 C 118.55,16.43 118.56,16.55 118.57,16.66 C 118.58,16.78 118.59,16.90 118.60,17.02 C 118.61,17.14 118.63,17.26 118.64,17.38 C 118.65,17.51 118.66,17.63 118.67,17.76 C 118.68,17.89 118.70,18.01 118.71,18.15 C 118.72,18.28 118.73,18.41 118.75,18.54 C 118.76,18.68 118.77,18.81 118.79,18.95 C 118.80,19.09 118.81,19.23 118.83,19.37 C 118.84,19.51 118.86,19.66 118.87,19.80 C 118.88,19.95 118.90,20.09 118.91,20.24 C 118.93,20.39 118.94,20.54 118.96,20.69 C 118.97,20.84 118.99,21.00 119.00,21.15 C 119.02,21.31 119.04,21.47 119.05,21.63 C 119.07,21.78 119.09,21.94 119.10,22.11 C 119.12,22.27 119.14,22.43 119.15,22.60 C 119.17,22.76 119.19,22.93 119.21,23.10 C 119.22,23.27 119.24,23.44 119.26,23.61 C 119.28,23.78 119.30,23.96 119.32,24.13 C 119.34,24.31 119.35,24.48 119.37,24.66 C 119.39,24.84 119.41,25.02 119.43,25.20 C 119.45,25.38 119.47,25.56 119.49,25.74 C 119.52,25.93 119.54,26.11 119.56,26.30 C 119.58,26.49 119.60,26.67 119.62,26.86 C 119.64,27.05 119.67,27.24 119.69,27.44 C 119.71,27.63 119.73,27.82 119.76,28.02 C 119.78,28.21 119.80,28.41 119.83,28.60 C 119.85,28.80 119.88,29.00 119.90,29.20 C 119.93,29.40 119.95,29.60 119.97,29.80 C 120.00,30.00 120.03,30.20 120.05,30.41 C 120.08,30.61 120.10,30.82 120.13,31.02 C 120.16,31.23 120.18,31.43 120.21,31.64 C 120.24,31.85 120.26,32.06 120.29,32.27 C 120.32,32.48 120.35,32.69 120.38,32.90 C 120.40,33.11 120.43,33.33 120.46,33.54 C 120.49,33.75 120.52,33.97 120.55,34.18 C 120.58,34.40 120.61,34.61 120.64,34.83 C 120.67,35.04 120.70,35.26 120.74,35.48 C 120.77,35.70 120.80,35.92 120.83,36.13 C 120.86,36.35 120.90,36.57 120.93,36.79 C 120.96,37.01 120.99,37.23 121.03,37.46 C 121.06,37.68 121.10,37.90 121.13,38.12 C 121.16,38.34 121.20,38.57 121.23,38.79 C 121.27,39.01 121.31,39.24 121.34,39.46 C 121.38,39.68 121.41,39.91 121.45,40.13 C 121.49,40.36 121.52,40.58 121.56,40.81 C 121.60,41.03 121.64,41.26 121.68,41.48 C 121.71,41.71 121.75,41.93 121.79,42.16 C 121.83,42.39 121.87,42.61 121.91,42.84 C 121.95,43.07 121.99,43.29 122.03,43.52 C 122.07,43.74 122.12,43.97 122.16,44.20 C 122.20,44.42 122.24,44.65 122.28,44.88 C 122.33,45.10 122.37,45.33 122.41,45.56 C 122.46,45.78 122.50,46.01 122.55,46.23 C 122.59,46.46 122.64,46.69 122.68,46.91 C 122.73,47.14 122.77,47.36 122.82,47.59 C 122.86,47.81 122.91,48.04 122.96,48.26 C 123.01,48.49 123.05,48.71 123.10,48.94 C 123.15,49.16 123.20,49.39 123.25,49.61 C 123.30,49.83 123.35,50.06 123.40,50.28 C 123.45,50.50 123.50,50.73 123.55,50.95 C 123.60,51.17 123.65,51.39 123.70,51.62 C 123.75,51.84 123.81,52.06 123.86,52.28 C 123.91,52.50 123.97,52.72 124.02,52.94 C 124.07,53.16 124.13,53.38 124.18,53.60 C 124.24,53.81 124.29,54.03 124.35,54.25 C 124.41,54.47 124.46,54.68 124.52,54.90 C 124.58,55.12 124.63,55.33 124.69,55.55 C 124.75,55.76 124.81,55.98 124.87,56.19 C 124.93,56.41 124.99,56.62 125.05,56.83 C 125.11,57.04 125.17,57.26 125.23,57.47 C 125.29,57.68 125.35,57.89 125.41,58.10 C 125.48,58.31 125.54,58.52 125.60,58.72 C 125.67,58.93 125.73,59.14 125.79,59.35 C 125.86,59.55 125.92,59.76 125.99,59.96 C 126.05,60.17 126.12,60.37 126.19,60.58 C 126.25,60.78 126.32,60.98 126.39,61.19 C 126.46,61.39 126.52,61.59 126.59,61.79 C 126.66,61.99 126.73,62.19 126.80,62.39 C 126.87,62.59 126.94,62.78 127.01,62.98 C 127.09,63.18 127.16,63.37 127.23,63.57 C 127.30,63.76 127.37,63.96 127.45,64.15 C 127.52,64.34 127.60,64.54 127.67,64.73 C 127.75,64.92 127.82,65.11 127.90,65.30 C 127.97,65.49 128.05,65.68 128.13,65.87 C 128.20,66.05 128.28,66.24 128.36,66.43 C 128.44,66.61 128.52,66.80 128.60,66.98 C 128.68,67.17 128.76,67.35 128.84,67.53 C 128.92,67.71 129.00,67.90 129.08,68.08 C 129.16,68.26 129.25,68.44 129.33,68.61 C 129.41,68.79 129.50,68.97 129.58,69.15 C 129.67,69.32 129.75,69.50 129.84,69.67 C 129.92,69.85 130.01,70.02 130.10,70.19 C 130.18,70.37 130.27,70.54 130.36,70.71 C 130.45,70.88 130.54,71.05 130.63,71.22 C 130.72,71.39 130.81,71.56 130.90,71.72 C 130.99,71.89 131.08,72.05 131.18,72.22 C 131.27,72.38 131.36,72.55 131.45,72.71 C 131.55,72.87 131.64,73.04 131.74,73.20 C 131.83,73.36 131.93,73.52 132.03,73.68 C 132.12,73.84 132.22,74.00 132.32,74.15 C 132.41,74.31 132.51,74.47 132.61,74.62 C 132.71,74.78 132.81,74.93 132.91,75.08 C 133.01,75.24 133.11,75.39 133.22,75.54 C 133.32,75.69 133.42,75.84 133.53,75.99 C 133.63,76.14 133.73,76.29 133.84,76.44 C 133.94,76.59 134.05,76.73 134.15,76.88 C 134.26,77.03 134.37,77.17 134.48,77.32 C 134.58,77.46 134.69,77.60 134.80,77.74 C 134.91,77.89 135.02,78.03 135.13,78.17 C 135.24,78.31 135.35,78.45 135.47,78.59 C 135.58,78.72 135.69,78.86 135.81,79.00 C 135.92,79.14 136.03,79.27 136.15,79.41 C 136.26,79.54 136.38,79.67 136.50,79.81 C 136.61,79.94 136.73,80.07 136.85,80.20 C 136.97,80.34 137.09,80.47 137.21,80.59 C 137.33,80.72 137.45,80.85 137.57,80.98 C 137.69,81.11 137.81,81.24 137.93,81.36 C 138.06,81.49 138.18,81.61 138.31,81.74 C 138.43,81.86 138.56,81.98 138.68,82.11 C 138.81,82.23 138.93,82.35 139.06,82.47 C 139.19,82.59 139.32,82.71 139.45,82.83 C 139.58,82.95 139.71,83.07 139.84,83.19 C 139.97,83.31 140.10,83.42 140.23,83.54 C 140.36,83.65 140.50,83.77 140.63,83.88 C 140.77,84.00 140.90,84.11 141.04,84.22 C 141.17,84.34 141.31,84.45 141.45,84.56 C 141.58,84.67 141.72,84.78 141.86,84.89 C 142.00,85.00 142.14,85.11 142.28,85.22 C 142.42,85.33 142.56,85.43 142.71,85.54 C 142.85,85.65 142.99,85.75 143.14,85.86 C 143.28,85.96 143.43,86.07 143.57,86.17 C 143.72,86.27 143.86,86.38 144.01,86.48 C 144.16,86.58 144.31,86.68 144.46,86.78 C 144.61,86.88 144.76,86.98 144.91,87.08 C 145.06,87.18 145.21,87.28 145.36,87.38 C 145.52,87.48 145.67,87.57 145.82,87.67 C 145.98,87.76 146.13,87.86 146.29,87.96 C 146.45,88.05 146.60,88.14 146.76,88.24 C 146.92,88.33 147.08,88.42 147.24,88.52 C 147.40,88.61 147.56,88.70 147.72,88.79 C 147.88,88.88 148.05,88.97 148.21,89.06 C 148.37,89.15 148.54,89.24 148.70,89.33 C 148.87,89.42 149.03,89.51 149.20,89.59 C 149.37,89.68 149.54,89.77 149.71,89.85 C 149.88,89.94 150.05,90.02 150.22,90.11 C 150.39,90.19 150.56,90.28 150.73,90.36 C 150.91,90.44 151.08,90.53 151.25,90.61 C 151.43,90.69 151.60,90.77 151.78,90.85 C 151.96,90.93 152.14,91.01 152.31,91.09 C 152.49,91.17 152.67,91.25 152.85,91.33 C 153.03,91.41 153.21,91.49 153.40,91.57 C 153.58,91.64 153.76,91.72 153.95,91.80 C 154.13,91.87 154.32,91.95 154.50,92.02 C 154.69,92.10 154.88,92.17 155.06,92.25 C 155.25,92.32 155.44,92.40 155.63,92.47 C 155.82,92.54 156.01,92.61 156.21,92.69 C 156.40,92.76 156.59,92.83 156.79,92.90 C 156.98,92.97 157.17,93.04 157.37,93.11 C 157.57,93.18 157.76,93.25 157.96,93.32 C 158.16,93.39 158.36,93.46 158.56,93.53 C 158.76,93.59 158.96,93.66 159.16,93.73 C 159.37,93.80 159.57,93.86 159.77,93.93 C 159.98,93.99 160.18,94.06 160.39,94.12 C 160.60,94.19 160.81,94.25 161.01,94.32 C 161.22,94.38 161.43,94.45 161.64,94.51 C 161.85,94.57 162.06,94.63 162.28,94.70 C 162.49,94.76 162.70,94.82 162.92,94.88 C 163.13,94.94 163.35,95.00 163.57,95.07 C 163.78,95.13 164.00,95.19 164.22,95.25 C 164.44,95.31 164.66,95.36 164.88,95.42 C 165.10,95.48 165.33,95.54 165.55,95.60 C 165.77,95.66 166.00,95.71 166.22,95.77 C 166.45,95.83 166.67,95.88 166.90,95.94 C 167.13,96.00 167.36,96.05 167.59,96.11 C 167.82,96.16 168.05,96.22 168.28,96.27 C 168.51,96.33 168.75,96.38 168.98,96.44 C 169.22,96.49 169.45,96.54 169.69,96.60 C 169.93,96.65 170.16,96.70 170.40,96.76 C 170.64,96.81 170.88,96.86 171.12,96.91 C 171.36,96.96 171.61,97.01 171.85,97.07 C 172.09,97.12 172.34,97.17 172.58,97.22 C 172.83,97.27 173.07,97.32 173.32,97.37 C 173.57,97.42 173.82,97.46 174.07,97.51 C 174.32,97.56 174.57,97.61 174.82,97.66 C 175.08,97.71 175.33,97.75 175.58,97.80 C 175.84,97.85 176.10,97.90 176.35,97.94 C 176.61,97.99 176.87,98.04 177.13,98.08 C 177.39,98.13 177.65,98.17 177.91,98.22 C 178.17,98.27 178.44,98.31 178.70,98.36 C 178.96,98.40 179.23,98.44 179.50,98.49 C 179.76,98.53 180.03,98.58 180.30,98.62 C 180.57,98.66 180.84,98.71 181.11,98.75 C 181.38,98.79 181.65,98.84 181.93,98.88 C 182.20,98.92 182.48,98.96 182.75,99.00 C 183.03,99.05 183.31,99.09 183.59,99.13 C 183.86,99.17 184.14,99.21 184.43,99.25 C 184.71,99.29 184.99,99.33 185.27,99.37 C 185.56,99.41 185.84,99.45 186.13,99.49 C 186.41,99.53 186.70,99.57 186.99,99.61 C 187.28,99.65 187.57,99.69 187.86,99.73 C 188.15,99.76 188.44,99.80 188.74,99.84 C 189.03,99.88 189.32,99.91 189.62,99.95 C 189.92,99.99 190.21,100.03 190.51,100.06 C 190.81,100.10 191.11,100.14 191.41,100.17 C 191.71,100.21 192.02,100.25 192.32,100.28 C 192.62,100.32 192.93,100.35 193.23,100.39 C 193.54,100.42 193.85,100.46 194.16,100.49 C 194.47,100.53 194.78,100.56 195.09,100.60 C 195.40,100.63 195.71,100.67 196.03,100.70 C 196.34,100.73 196.66,100.77 196.97,100.80 C 197.29,100.84 197.61,100.87 197.93,100.90 C 198.25,100.93 198.57,100.97 198.89,101.00 C 199.21,101.03 199.53,101.06 199.86,101.10 C 200.18,101.13 200.51,101.16 200.84,101.19 C 201.16,101.22 201.49,101.26 201.82,101.29 C 202.15,101.32 202.48,101.35 202.82,101.38 C 203.15,101.41 203.48,101.44 203.82,101.47 C 204.15,101.50 204.49,101.53 204.83,101.56 C 205.17,101.59 205.50,101.62 205.85,101.65 C 206.19,101.68 206.53,101.71 206.87,101.74 C 207.22,101.77 207.56,101.80 207.91,101.83 C 208.25,101.86 208.60,101.89 208.95,101.92 C 209.30,101.94 209.82,101.99 210.00,102.00" />
  </g>

  <!-- точка (2;1) -->
  <circle cx="150.00" cy="90.00" r="2.2" fill="#2d70b3" />

  <!-- подпись f(x) -->
  <text x="130" y="50"
        font-family="Georgia, 'Times New Roman', serif"
        font-style="italic"
        font-size="13"
        fill="#2d70b3">
    f(x)
  </text>

</svg>
