<svg xmlns="http://www.w3.org/2000/svg" width="220" height="220" viewBox="0 0 220 220">

  <rect x="0" y="0" width="220" height="220" fill="white" />

  <defs>
    <!-- стрелка для осей -->
    <marker id="axis-arrow"
            viewBox="0 0 15 8"
            refX="13" refY="4"
            markerWidth="12" markerHeight="6.4"
            orient="auto"
            markerUnits="userSpaceOnUse">
      <path d="M 3 0 L 15 4 L 3 8 L 7 4 Z"
            fill="black" />
    </marker>

    <!-- ограничение рисования гиперболы: x,y ∈ [-5.5;5.5] -->
    <clipPath id="clip-55">
      <rect x="18.33" y="18.33" width="183.33" height="183.33" />
    </clipPath>
  </defs>

  <!-- тонкая клетчатая сетка: по x и y от -6 до 6, без окаймления -->
  <g stroke="#d1d5db" stroke-width="0.5" shape-rendering="crispEdges">
    <line x1="26.67" y1="10" x2="26.67" y2="210" />
    <line x1="43.33" y1="10" x2="43.33" y2="210" />
    <line x1="60.00" y1="10" x2="60.00" y2="210" />
    <line x1="76.67" y1="10" x2="76.67" y2="210" />
    <line x1="93.33" y1="10" x2="93.33" y2="210" />
    <line x1="110.00" y1="10" x2="110.00" y2="210" />
    <line x1="126.67" y1="10" x2="126.67" y2="210" />
    <line x1="143.33" y1="10" x2="143.33" y2="210" />
    <line x1="160.00" y1="10" x2="160.00" y2="210" />
    <line x1="176.67" y1="10" x2="176.67" y2="210" />
    <line x1="193.33" y1="10" x2="193.33" y2="210" />
    <line x1="10" y1="193.33" x2="210" y2="193.33" />
    <line x1="10" y1="176.67" x2="210" y2="176.67" />
    <line x1="10" y1="160.00" x2="210" y2="160.00" />
    <line x1="10" y1="143.33" x2="210" y2="143.33" />
    <line x1="10" y1="126.67" x2="210" y2="126.67" />
    <line x1="10" y1="110.00" x2="210" y2="110.00" />
    <line x1="10" y1="93.33" x2="210" y2="93.33" />
    <line x1="10" y1="76.67" x2="210" y2="76.67" />
    <line x1="10" y1="60.00" x2="210" y2="60.00" />
    <line x1="10" y1="43.33" x2="210" y2="43.33" />
    <line x1="10" y1="26.67" x2="210" y2="26.67" />
  </g>

  <!-- оси x и y (0 находится в точке (110;110)) -->
  <g stroke="#111827" stroke-width="1.25">
    <line x1="10" y1="110" x2="210" y2="110"
          marker-end="url(#axis-arrow)" />
    <line x1="110" y1="210" x2="110" y2="10"
          marker-end="url(#axis-arrow)" />
  </g>

  <!-- подписи осей и делений -->
  <g font-family="sans-serif" font-size="11" fill="#111827">
    <text x="106" y="123" text-anchor="end"
          font-size="13" font-style="italic"
          font-family="Georgia, 'Times New Roman', serif">O</text>

    <rect x="123.17" y="112.00" width="7" height="12" fill="white" />
    <text x="126.67" y="123.00" text-anchor="middle" font-size="13"
          font-family="'Times New Roman', serif"
          font-weight="300">1</text>

    <text x="105.00" y="97.33" text-anchor="end" font-size="13"
          font-family="'Times New Roman', serif"
          font-weight="300">1</text>

    <text x="208.67" y="123.00" text-anchor="start"
          font-family="Georgia, 'Times New Roman', serif"
          font-style="italic" font-size="13">x</text>

    <text x="107.00" y="11.33" text-anchor="end"
          font-family="Georgia, 'Times New Roman', serif"
          font-style="italic" font-size="13">y</text>
  </g>

  <!-- гипербола y = k/x, k=-2 (гладкая интерполяция); обрезана по окну [-5.5;5.5]×[-5.5;5.5] -->
  <g stroke="#2d70b3" stroke-width="1.25" fill="none"
     stroke-linecap="round" stroke-linejoin="round"
     clip-path="url(#clip-55)">
    <path d="M 18.33,103.94 C 18.42,103.93 18.69,103.92 18.87,103.90 C 19.05,103.89 19.22,103.88 19.40,103.87 C 19.58,103.86 19.75,103.84 19.93,103.83 C 20.11,103.82 20.28,103.81 20.46,103.80 C 20.63,103.78 20.81,103.77 20.98,103.76 C 21.16,103.75 21.33,103.73 21.51,103.72 C 21.68,103.71 21.85,103.70 22.03,103.68 C 22.20,103.67 22.37,103.66 22.55,103.65 C 22.72,103.63 22.89,103.62 23.06,103.61 C 23.23,103.60 23.40,103.58 23.57,103.57 C 23.75,103.56 23.92,103.55 24.09,103.53 C 24.26,103.52 24.43,103.51 24.59,103.50 C 24.76,103.48 24.93,103.47 25.10,103.46 C 25.27,103.44 25.44,103.43 25.61,103.42 C 25.77,103.40 25.94,103.39 26.11,103.38 C 26.27,103.36 26.44,103.35 26.61,103.34 C 26.77,103.32 26.94,103.31 27.10,103.30 C 27.27,103.28 27.43,103.27 27.60,103.26 C 27.76,103.24 27.93,103.23 28.09,103.22 C 28.26,103.20 28.42,103.19 28.58,103.18 C 28.75,103.16 28.91,103.15 29.07,103.14 C 29.23,103.12 29.39,103.11 29.56,103.09 C 29.72,103.08 29.88,103.07 30.04,103.05 C 30.20,103.04 30.36,103.02 30.52,103.01 C 30.68,103.00 30.84,102.98 31.00,102.97 C 31.16,102.95 31.32,102.94 31.48,102.92 C 31.64,102.91 31.79,102.90 31.95,102.88 C 32.11,102.87 32.27,102.85 32.42,102.84 C 32.58,102.82 32.74,102.81 32.90,102.79 C 33.05,102.78 33.21,102.77 33.36,102.75 C 33.52,102.74 33.67,102.72 33.83,102.71 C 33.98,102.69 34.14,102.68 34.29,102.66 C 34.45,102.65 34.60,102.63 34.75,102.62 C 34.91,102.60 35.06,102.59 35.21,102.57 C 35.37,102.56 35.52,102.54 35.67,102.53 C 35.82,102.51 35.97,102.50 36.13,102.48 C 36.28,102.46 36.43,102.45 36.58,102.43 C 36.73,102.42 36.88,102.40 37.03,102.39 C 37.18,102.37 37.33,102.36 37.48,102.34 C 37.63,102.32 37.78,102.31 37.92,102.29 C 38.07,102.28 38.22,102.26 38.37,102.24 C 38.52,102.23 38.66,102.21 38.81,102.20 C 38.96,102.18 39.10,102.16 39.25,102.15 C 39.40,102.13 39.54,102.12 39.69,102.10 C 39.83,102.08 39.98,102.07 40.12,102.05 C 40.27,102.03 40.41,102.02 40.56,102.00 C 40.70,101.98 40.84,101.97 40.99,101.95 C 41.13,101.93 41.27,101.92 41.42,101.90 C 41.56,101.88 41.70,101.87 41.84,101.85 C 41.99,101.83 42.13,101.81 42.27,101.80 C 42.41,101.78 42.55,101.76 42.69,101.75 C 42.83,101.73 42.97,101.71 43.11,101.69 C 43.25,101.68 43.39,101.66 43.53,101.64 C 43.67,101.62 43.81,101.61 43.95,101.59 C 44.09,101.57 44.23,101.55 44.36,101.54 C 44.50,101.52 44.64,101.50 44.78,101.48 C 44.91,101.46 45.05,101.45 45.19,101.43 C 45.32,101.41 45.46,101.39 45.60,101.37 C 45.73,101.36 45.87,101.34 46.00,101.32 C 46.14,101.30 46.27,101.28 46.41,101.26 C 46.54,101.25 46.68,101.23 46.81,101.21 C 46.94,101.19 47.08,101.17 47.21,101.15 C 47.34,101.13 47.48,101.11 47.61,101.10 C 47.74,101.08 47.87,101.06 48.00,101.04 C 48.14,101.02 48.27,101.00 48.40,100.98 C 48.53,100.96 48.66,100.94 48.79,100.92 C 48.92,100.90 49.05,100.88 49.18,100.87 C 49.31,100.85 49.44,100.83 49.57,100.81 C 49.70,100.79 49.83,100.77 49.96,100.75 C 50.09,100.73 50.21,100.71 50.34,100.69 C 50.47,100.67 50.60,100.65 50.72,100.63 C 50.85,100.61 50.98,100.59 51.11,100.57 C 51.23,100.55 51.36,100.53 51.48,100.51 C 51.61,100.49 51.74,100.46 51.86,100.44 C 51.99,100.42 52.11,100.40 52.24,100.38 C 52.36,100.36 52.48,100.34 52.61,100.32 C 52.73,100.30 52.86,100.28 52.98,100.26 C 53.10,100.24 53.23,100.21 53.35,100.19 C 53.47,100.17 53.59,100.15 53.72,100.13 C 53.84,100.11 53.96,100.09 54.08,100.06 C 54.20,100.04 54.32,100.02 54.44,100.00 C 54.57,99.98 54.69,99.96 54.81,99.93 C 54.93,99.91 55.05,99.89 55.17,99.87 C 55.29,99.85 55.40,99.82 55.52,99.80 C 55.64,99.78 55.76,99.76 55.88,99.73 C 56.00,99.71 56.12,99.69 56.23,99.67 C 56.35,99.64 56.47,99.62 56.59,99.60 C 56.70,99.58 56.82,99.55 56.94,99.53 C 57.05,99.51 57.17,99.48 57.28,99.46 C 57.40,99.44 57.51,99.42 57.63,99.39 C 57.75,99.37 57.86,99.34 57.97,99.32 C 58.09,99.30 58.20,99.27 58.32,99.25 C 58.43,99.23 58.55,99.20 58.66,99.18 C 58.77,99.16 58.89,99.13 59.00,99.11 C 59.11,99.08 59.22,99.06 59.34,99.03 C 59.45,99.01 59.56,98.99 59.67,98.96 C 59.78,98.94 59.89,98.91 60.00,98.89 C 60.12,98.86 60.23,98.84 60.34,98.81 C 60.45,98.79 60.56,98.76 60.67,98.74 C 60.78,98.71 60.89,98.69 60.99,98.66 C 61.10,98.64 61.21,98.61 61.32,98.59 C 61.43,98.56 61.54,98.54 61.65,98.51 C 61.75,98.48 61.86,98.46 61.97,98.43 C 62.08,98.41 62.18,98.38 62.29,98.36 C 62.40,98.33 62.50,98.30 62.61,98.28 C 62.72,98.25 62.82,98.22 62.93,98.20 C 63.03,98.17 63.14,98.14 63.24,98.12 C 63.35,98.09 63.45,98.06 63.56,98.04 C 63.66,98.01 63.77,97.98 63.87,97.96 C 63.97,97.93 64.08,97.90 64.18,97.87 C 64.28,97.85 64.39,97.82 64.49,97.79 C 64.59,97.77 64.70,97.74 64.80,97.71 C 64.90,97.68 65.00,97.65 65.10,97.63 C 65.20,97.60 65.31,97.57 65.41,97.54 C 65.51,97.51 65.61,97.49 65.71,97.46 C 65.81,97.43 65.91,97.40 66.01,97.37 C 66.11,97.34 66.21,97.31 66.31,97.28 C 66.41,97.26 66.51,97.23 66.61,97.20 C 66.70,97.17 66.80,97.14 66.90,97.11 C 67.00,97.08 67.10,97.05 67.20,97.02 C 67.29,96.99 67.39,96.96 67.49,96.93 C 67.58,96.90 67.68,96.87 67.78,96.84 C 67.87,96.81 67.97,96.78 68.07,96.75 C 68.16,96.72 68.26,96.69 68.35,96.66 C 68.45,96.63 68.54,96.60 68.64,96.57 C 68.73,96.54 68.83,96.51 68.92,96.48 C 69.02,96.44 69.11,96.41 69.21,96.38 C 69.30,96.35 69.39,96.32 69.49,96.29 C 69.58,96.26 69.67,96.22 69.76,96.19 C 69.86,96.16 69.95,96.13 70.04,96.10 C 70.13,96.06 70.23,96.03 70.32,96.00 C 70.41,95.97 70.50,95.94 70.59,95.90 C 70.68,95.87 70.77,95.84 70.86,95.80 C 70.96,95.77 71.05,95.74 71.14,95.71 C 71.23,95.67 71.32,95.64 71.40,95.61 C 71.49,95.57 71.58,95.54 71.67,95.50 C 71.76,95.47 71.85,95.44 71.94,95.40 C 72.03,95.37 72.12,95.34 72.20,95.30 C 72.29,95.27 72.38,95.23 72.47,95.20 C 72.55,95.16 72.64,95.13 72.73,95.09 C 72.81,95.06 72.90,95.02 72.99,94.99 C 73.07,94.95 73.16,94.92 73.25,94.88 C 73.33,94.85 73.42,94.81 73.50,94.78 C 73.59,94.74 73.67,94.71 73.76,94.67 C 73.84,94.63 73.93,94.60 74.01,94.56 C 74.10,94.53 74.18,94.49 74.26,94.45 C 74.35,94.42 74.43,94.38 74.52,94.34 C 74.60,94.31 74.68,94.27 74.76,94.23 C 74.85,94.20 74.93,94.16 75.01,94.12 C 75.09,94.08 75.18,94.05 75.26,94.01 C 75.34,93.97 75.42,93.93 75.50,93.90 C 75.58,93.86 75.67,93.82 75.75,93.78 C 75.83,93.74 75.91,93.70 75.99,93.67 C 76.07,93.63 76.15,93.59 76.23,93.55 C 76.31,93.51 76.39,93.47 76.47,93.43 C 76.55,93.39 76.63,93.35 76.70,93.31 C 76.78,93.28 76.86,93.24 76.94,93.20 C 77.02,93.16 77.10,93.12 77.17,93.08 C 77.25,93.04 77.33,93.00 77.41,92.95 C 77.48,92.91 77.56,92.87 77.64,92.83 C 77.72,92.79 77.79,92.75 77.87,92.71 C 77.95,92.67 78.02,92.63 78.10,92.59 C 78.17,92.54 78.25,92.50 78.32,92.46 C 78.40,92.42 78.47,92.38 78.55,92.34 C 78.62,92.29 78.70,92.25 78.77,92.21 C 78.85,92.17 78.92,92.12 79.00,92.08 C 79.07,92.04 79.14,91.99 79.22,91.95 C 79.29,91.91 79.37,91.87 79.44,91.82 C 79.51,91.78 79.58,91.73 79.66,91.69 C 79.73,91.65 79.80,91.60 79.87,91.56 C 79.95,91.51 80.02,91.47 80.09,91.43 C 80.16,91.38 80.23,91.34 80.30,91.29 C 80.38,91.25 80.45,91.20 80.52,91.16 C 80.59,91.11 80.66,91.07 80.73,91.02 C 80.80,90.97 80.87,90.93 80.94,90.88 C 81.01,90.84 81.08,90.79 81.15,90.74 C 81.22,90.70 81.29,90.65 81.36,90.60 C 81.43,90.56 81.49,90.51 81.56,90.46 C 81.63,90.42 81.70,90.37 81.77,90.32 C 81.84,90.27 81.90,90.23 81.97,90.18 C 82.04,90.13 82.11,90.08 82.17,90.04 C 82.24,89.99 82.31,89.94 82.37,89.89 C 82.44,89.84 82.51,89.79 82.57,89.74 C 82.64,89.69 82.71,89.65 82.77,89.60 C 82.84,89.55 82.90,89.50 82.97,89.45 C 83.03,89.40 83.10,89.35 83.16,89.30 C 83.23,89.25 83.29,89.20 83.36,89.15 C 83.42,89.10 83.49,89.05 83.55,88.99 C 83.62,88.94 83.68,88.89 83.74,88.84 C 83.81,88.79 83.87,88.74 83.93,88.69 C 84.00,88.64 84.06,88.58 84.12,88.53 C 84.19,88.48 84.25,88.43 84.31,88.37 C 84.37,88.32 84.44,88.27 84.50,88.22 C 84.56,88.16 84.62,88.11 84.68,88.06 C 84.74,88.00 84.81,87.95 84.87,87.90 C 84.93,87.84 84.99,87.79 85.05,87.73 C 85.11,87.68 85.17,87.63 85.23,87.57 C 85.29,87.52 85.35,87.46 85.41,87.41 C 85.47,87.35 85.53,87.30 85.59,87.24 C 85.65,87.19 85.71,87.13 85.77,87.07 C 85.83,87.02 85.89,86.96 85.94,86.91 C 86.00,86.85 86.06,86.79 86.12,86.74 C 86.18,86.68 86.24,86.62 86.29,86.57 C 86.35,86.51 86.41,86.45 86.47,86.39 C 86.52,86.34 86.58,86.28 86.64,86.22 C 86.70,86.16 86.75,86.10 86.81,86.04 C 86.87,85.99 86.92,85.93 86.98,85.87 C 87.03,85.81 87.09,85.75 87.15,85.69 C 87.20,85.63 87.26,85.57 87.31,85.51 C 87.37,85.45 87.42,85.39 87.48,85.33 C 87.53,85.27 87.59,85.21 87.64,85.15 C 87.70,85.09 87.75,85.03 87.81,84.97 C 87.86,84.91 87.91,84.85 87.97,84.78 C 88.02,84.72 88.08,84.66 88.13,84.60 C 88.18,84.54 88.24,84.47 88.29,84.41 C 88.34,84.35 88.40,84.29 88.45,84.22 C 88.50,84.16 88.55,84.10 88.61,84.03 C 88.66,83.97 88.71,83.91 88.76,83.84 C 88.81,83.78 88.87,83.71 88.92,83.65 C 88.97,83.58 89.02,83.52 89.07,83.46 C 89.12,83.39 89.17,83.33 89.22,83.26 C 89.27,83.19 89.33,83.13 89.38,83.06 C 89.43,83.00 89.48,82.93 89.53,82.86 C 89.58,82.80 89.63,82.73 89.68,82.66 C 89.73,82.60 89.78,82.53 89.82,82.46 C 89.87,82.40 89.92,82.33 89.97,82.26 C 90.02,82.19 90.07,82.13 90.12,82.06 C 90.17,81.99 90.22,81.92 90.26,81.85 C 90.31,81.78 90.36,81.71 90.41,81.64 C 90.46,81.58 90.50,81.51 90.55,81.44 C 90.60,81.37 90.65,81.30 90.69,81.23 C 90.74,81.16 90.79,81.09 90.83,81.01 C 90.88,80.94 90.93,80.87 90.97,80.80 C 91.02,80.73 91.07,80.66 91.11,80.59 C 91.16,80.52 91.20,80.44 91.25,80.37 C 91.29,80.30 91.34,80.23 91.39,80.15 C 91.43,80.08 91.48,80.01 91.52,79.94 C 91.57,79.86 91.61,79.79 91.66,79.72 C 91.70,79.64 91.74,79.57 91.79,79.49 C 91.83,79.42 91.88,79.34 91.92,79.27 C 91.97,79.20 92.01,79.12 92.05,79.05 C 92.10,78.97 92.14,78.89 92.18,78.82 C 92.23,78.74 92.27,78.67 92.31,78.59 C 92.36,78.51 92.40,78.44 92.44,78.36 C 92.48,78.28 92.53,78.21 92.57,78.13 C 92.61,78.05 92.65,77.98 92.69,77.90 C 92.74,77.82 92.78,77.74 92.82,77.66 C 92.86,77.59 92.90,77.51 92.94,77.43 C 92.98,77.35 93.03,77.27 93.07,77.19 C 93.11,77.11 93.15,77.03 93.19,76.95 C 93.23,76.87 93.27,76.79 93.31,76.71 C 93.35,76.63 93.39,76.55 93.43,76.47 C 93.47,76.39 93.51,76.31 93.55,76.23 C 93.59,76.15 93.63,76.06 93.67,75.98 C 93.71,75.90 93.75,75.82 93.79,75.74 C 93.82,75.65 93.86,75.57 93.90,75.49 C 93.94,75.41 93.98,75.32 94.02,75.24 C 94.06,75.16 94.09,75.07 94.13,74.99 C 94.17,74.90 94.21,74.82 94.25,74.74 C 94.28,74.65 94.32,74.57 94.36,74.48 C 94.40,74.40 94.43,74.31 94.47,74.23 C 94.51,74.14 94.54,74.06 94.58,73.97 C 94.62,73.88 94.65,73.80 94.69,73.71 C 94.73,73.63 94.76,73.54 94.80,73.45 C 94.84,73.36 94.87,73.28 94.91,73.19 C 94.94,73.10 94.98,73.01 95.01,72.93 C 95.05,72.84 95.09,72.75 95.12,72.66 C 95.16,72.57 95.19,72.49 95.23,72.40 C 95.26,72.31 95.30,72.22 95.33,72.13 C 95.36,72.04 95.40,71.95 95.43,71.86 C 95.47,71.77 95.50,71.68 95.54,71.59 C 95.57,71.50 95.60,71.41 95.64,71.32 C 95.67,71.23 95.71,71.14 95.74,71.04 C 95.77,70.95 95.81,70.86 95.84,70.77 C 95.87,70.68 95.90,70.59 95.94,70.49 C 95.97,70.40 96.00,70.31 96.04,70.22 C 96.07,70.12 96.10,70.03 96.13,69.94 C 96.17,69.84 96.20,69.75 96.23,69.66 C 96.26,69.56 96.29,69.47 96.33,69.37 C 96.36,69.28 96.39,69.18 96.42,69.09 C 96.45,69.00 96.48,68.90 96.51,68.81 C 96.55,68.71 96.58,68.61 96.61,68.52 C 96.64,68.42 96.67,68.33 96.70,68.23 C 96.73,68.14 96.76,68.04 96.79,67.94 C 96.82,67.85 96.85,67.75 96.88,67.65 C 96.91,67.55 96.94,67.46 96.97,67.36 C 97.00,67.26 97.03,67.16 97.06,67.07 C 97.09,66.97 97.12,66.87 97.15,66.77 C 97.18,66.67 97.21,66.58 97.24,66.48 C 97.26,66.38 97.29,66.28 97.32,66.18 C 97.35,66.08 97.38,65.98 97.41,65.88 C 97.44,65.78 97.46,65.68 97.49,65.58 C 97.52,65.48 97.55,65.38 97.58,65.28 C 97.60,65.18 97.63,65.08 97.66,64.98 C 97.69,64.88 97.72,64.78 97.74,64.68 C 97.77,64.58 97.80,64.47 97.82,64.37 C 97.85,64.27 97.88,64.17 97.91,64.07 C 97.93,63.96 97.96,63.86 97.99,63.76 C 98.01,63.66 98.04,63.55 98.06,63.45 C 98.09,63.35 98.12,63.25 98.14,63.14 C 98.17,63.04 98.20,62.94 98.22,62.83 C 98.25,62.73 98.27,62.63 98.30,62.52 C 98.32,62.42 98.35,62.31 98.38,62.21 C 98.40,62.11 98.43,62.00 98.45,61.90 C 98.48,61.79 98.50,61.69 98.53,61.58 C 98.55,61.48 98.58,61.37 98.60,61.27 C 98.62,61.16 98.65,61.06 98.67,60.95 C 98.70,60.84 98.72,60.74 98.75,60.63 C 98.77,60.53 98.79,60.42 98.82,60.32 C 98.84,60.21 98.87,60.10 98.89,60.00 C 98.91,59.89 98.94,59.78 98.96,59.68 C 98.98,59.57 99.01,59.46 99.03,59.36 C 99.05,59.25 99.08,59.14 99.10,59.03 C 99.12,58.93 99.15,58.82 99.17,58.71 C 99.19,58.60 99.21,58.50 99.24,58.39 C 99.26,58.28 99.28,58.17 99.30,58.06 C 99.33,57.96 99.35,57.85 99.37,57.74 C 99.39,57.63 99.41,57.52 99.44,57.41 C 99.46,57.31 99.48,57.20 99.50,57.09 C 99.52,56.98 99.54,56.87 99.56,56.76 C 99.59,56.65 99.61,56.54 99.63,56.44 C 99.65,56.33 99.67,56.22 99.69,56.11 C 99.71,56.00 99.73,55.89 99.75,55.78 C 99.77,55.67 99.80,55.56 99.82,55.45 C 99.84,55.34 99.86,55.23 99.88,55.12 C 99.90,55.01 99.92,54.90 99.94,54.79 C 99.96,54.68 99.98,54.57 100.00,54.46 C 100.02,54.35 100.04,54.24 100.06,54.13 C 100.08,54.02 100.10,53.91 100.11,53.80 C 100.13,53.69 100.15,53.58 100.17,53.47 C 100.19,53.36 100.21,53.25 100.23,53.14 C 100.25,53.03 100.27,52.92 100.29,52.81 C 100.31,52.70 100.32,52.59 100.34,52.47 C 100.36,52.36 100.38,52.25 100.40,52.14 C 100.42,52.03 100.43,51.92 100.45,51.81 C 100.47,51.70 100.49,51.59 100.51,51.48 C 100.52,51.37 100.54,51.26 100.56,51.15 C 100.58,51.04 100.60,50.93 100.61,50.81 C 100.63,50.70 100.65,50.59 100.67,50.48 C 100.68,50.37 100.70,50.26 100.72,50.15 C 100.73,50.04 100.75,49.93 100.77,49.82 C 100.79,49.71 100.80,49.60 100.82,49.49 C 100.84,49.38 100.85,49.27 100.87,49.16 C 100.89,49.04 100.90,48.93 100.92,48.82 C 100.94,48.71 100.95,48.60 100.97,48.49 C 100.98,48.38 101.00,48.27 101.02,48.16 C 101.03,48.05 101.05,47.94 101.06,47.83 C 101.08,47.72 101.10,47.61 101.11,47.50 C 101.13,47.39 101.14,47.28 101.16,47.17 C 101.17,47.06 101.19,46.95 101.20,46.84 C 101.22,46.73 101.23,46.62 101.25,46.51 C 101.26,46.40 101.28,46.29 101.29,46.19 C 101.31,46.08 101.32,45.97 101.34,45.86 C 101.35,45.75 101.37,45.64 101.38,45.53 C 101.40,45.42 101.41,45.31 101.43,45.20 C 101.44,45.10 101.45,44.99 101.47,44.88 C 101.48,44.77 101.50,44.66 101.51,44.55 C 101.53,44.45 101.54,44.34 101.55,44.23 C 101.57,44.12 101.58,44.02 101.59,43.91 C 101.61,43.80 101.62,43.69 101.64,43.59 C 101.65,43.48 101.66,43.37 101.68,43.26 C 101.69,43.16 101.70,43.05 101.72,42.94 C 101.73,42.84 101.74,42.73 101.75,42.62 C 101.77,42.52 101.78,42.41 101.79,42.31 C 101.81,42.20 101.82,42.09 101.83,41.99 C 101.84,41.88 101.86,41.78 101.87,41.67 C 101.88,41.57 101.89,41.46 101.91,41.36 C 101.92,41.25 101.93,41.15 101.94,41.04 C 101.96,40.94 101.97,40.84 101.98,40.73 C 101.99,40.63 102.00,40.52 102.02,40.42 C 102.03,40.32 102.04,40.21 102.05,40.11 C 102.06,40.01 102.07,39.91 102.09,39.80 C 102.10,39.70 102.11,39.60 102.12,39.50 C 102.13,39.39 102.14,39.29 102.15,39.19 C 102.17,39.09 102.18,38.99 102.19,38.89 C 102.20,38.78 102.21,38.68 102.22,38.58 C 102.23,38.48 102.24,38.38 102.25,38.28 C 102.26,38.18 102.28,38.08 102.29,37.98 C 102.30,37.88 102.31,37.78 102.32,37.69 C 102.33,37.59 102.34,37.49 102.35,37.39 C 102.36,37.29 102.37,37.19 102.38,37.10 C 102.39,37.00 102.40,36.90 102.41,36.80 C 102.42,36.71 102.43,36.61 102.44,36.51 C 102.45,36.42 102.46,36.32 102.47,36.22 C 102.48,36.13 102.49,36.03 102.50,35.94 C 102.51,35.84 102.52,35.75 102.53,35.65 C 102.54,35.56 102.55,35.46 102.56,35.37 C 102.57,35.27 102.57,35.18 102.58,35.09 C 102.59,34.99 102.60,34.90 102.61,34.81 C 102.62,34.71 102.63,34.62 102.64,34.53 C 102.65,34.44 102.66,34.35 102.67,34.25 C 102.67,34.16 102.68,34.07 102.69,33.98 C 102.70,33.89 102.71,33.80 102.72,33.71 C 102.73,33.62 102.73,33.53 102.74,33.44 C 102.75,33.35 102.76,33.26 102.77,33.18 C 102.78,33.09 102.79,33.00 102.79,32.91 C 102.80,32.82 102.81,32.74 102.82,32.65 C 102.83,32.56 102.83,32.48 102.84,32.39 C 102.85,32.30 102.86,32.22 102.87,32.13 C 102.87,32.05 102.88,31.96 102.89,31.88 C 102.90,31.79 102.90,31.71 102.91,31.62 C 102.92,31.54 102.93,31.46 102.93,31.37 C 102.94,31.29 102.95,31.21 102.96,31.12 C 102.96,31.04 102.97,30.96 102.98,30.88 C 102.99,30.80 102.99,30.72 103.00,30.64 C 103.01,30.56 103.01,30.47 103.02,30.40 C 103.03,30.32 103.04,30.24 103.04,30.16 C 103.05,30.08 103.06,30.00 103.06,29.92 C 103.07,29.84 103.08,29.76 103.08,29.69 C 103.09,29.61 103.10,29.53 103.10,29.46 C 103.11,29.38 103.12,29.30 103.12,29.23 C 103.13,29.15 103.13,29.08 103.14,29.00 C 103.15,28.93 103.15,28.85 103.16,28.78 C 103.17,28.71 103.17,28.63 103.18,28.56 C 103.18,28.49 103.19,28.41 103.20,28.34 C 103.20,28.27 103.21,28.20 103.21,28.13 C 103.22,28.05 103.23,27.98 103.23,27.91 C 103.24,27.84 103.24,27.77 103.25,27.70 C 103.26,27.63 103.26,27.56 103.27,27.50 C 103.27,27.43 103.28,27.36 103.28,27.29 C 103.29,27.22 103.29,27.15 103.30,27.09 C 103.30,27.02 103.31,26.95 103.32,26.89 C 103.32,26.82 103.33,26.76 103.33,26.69 C 103.34,26.63 103.34,26.56 103.35,26.50 C 103.35,26.43 103.36,26.37 103.36,26.31 C 103.37,26.24 103.37,26.18 103.38,26.12 C 103.38,26.05 103.39,25.99 103.39,25.93 C 103.40,25.87 103.40,25.81 103.41,25.75 C 103.41,25.69 103.42,25.63 103.42,25.57 C 103.42,25.51 103.43,25.45 103.43,25.39 C 103.44,25.33 103.44,25.27 103.45,25.21 C 103.45,25.16 103.46,25.10 103.46,25.04 C 103.47,24.98 103.47,24.93 103.47,24.87 C 103.48,24.81 103.48,24.76 103.49,24.70 C 103.49,24.65 103.50,24.59 103.50,24.54 C 103.50,24.48 103.51,24.43 103.51,24.38 C 103.52,24.32 103.52,24.27 103.52,24.22 C 103.53,24.17 103.53,24.11 103.54,24.06 C 103.54,24.01 103.54,23.96 103.55,23.91 C 103.55,23.86 103.55,23.81 103.56,23.76 C 103.56,23.71 103.57,23.66 103.57,23.61 C 103.57,23.56 103.58,23.51 103.58,23.46 C 103.58,23.41 103.59,23.36 103.59,23.32 C 103.59,23.27 103.60,23.22 103.60,23.18 C 103.60,23.13 103.61,23.08 103.61,23.04 C 103.61,22.99 103.62,22.95 103.62,22.90 C 103.62,22.86 103.63,22.81 103.63,22.77 C 103.63,22.73 103.64,22.68 103.64,22.64 C 103.64,22.60 103.65,22.55 103.65,22.51 C 103.65,22.47 103.66,22.43 103.66,22.38 C 103.66,22.34 103.67,22.30 103.67,22.26 C 103.67,22.22 103.67,22.18 103.68,22.14 C 103.68,22.10 103.68,22.06 103.69,22.02 C 103.69,21.98 103.69,21.95 103.69,21.91 C 103.70,21.87 103.70,21.83 103.70,21.79 C 103.70,21.76 103.71,21.72 103.71,21.68 C 103.71,21.65 103.71,21.61 103.72,21.57 C 103.72,21.54 103.72,21.50 103.72,21.47 C 103.73,21.43 103.73,21.40 103.73,21.36 C 103.73,21.33 103.74,21.30 103.74,21.26 C 103.74,21.23 103.74,21.20 103.75,21.16 C 103.75,21.13 103.75,21.10 103.75,21.07 C 103.76,21.04 103.76,21.00 103.76,20.97 C 103.76,20.94 103.76,20.91 103.77,20.88 C 103.77,20.85 103.77,20.82 103.77,20.79 C 103.77,20.76 103.78,20.73 103.78,20.70 C 103.78,20.67 103.78,20.64 103.78,20.62 C 103.79,20.59 103.79,20.56 103.79,20.53 C 103.79,20.51 103.79,20.48 103.80,20.45 C 103.80,20.42 103.80,20.40 103.80,20.37 C 103.80,20.35 103.81,20.32 103.81,20.29 C 103.81,20.27 103.81,20.24 103.81,20.22 C 103.81,20.19 103.82,20.17 103.82,20.15 C 103.82,20.12 103.82,20.10 103.82,20.07 C 103.82,20.05 103.83,20.03 103.83,20.01 C 103.83,19.98 103.83,19.96 103.83,19.94 C 103.83,19.92 103.83,19.89 103.84,19.87 C 103.84,19.85 103.84,19.83 103.84,19.81 C 103.84,19.79 103.84,19.77 103.84,19.75 C 103.85,19.73 103.85,19.71 103.85,19.69 C 103.85,19.67 103.85,19.65 103.85,19.63 C 103.85,19.61 103.86,19.59 103.86,19.57 C 103.86,19.55 103.86,19.54 103.86,19.52 C 103.86,19.50 103.86,19.48 103.86,19.46 C 103.86,19.45 103.87,19.43 103.87,19.41 C 103.87,19.40 103.87,19.38 103.87,19.36 C 103.87,19.35 103.87,19.33 103.87,19.32 C 103.87,19.30 103.88,19.28 103.88,19.27 C 103.88,19.25 103.88,19.24 103.88,19.22 C 103.88,19.21 103.88,19.20 103.88,19.18 C 103.88,19.17 103.88,19.15 103.89,19.14 C 103.89,19.13 103.89,19.11 103.89,19.10 C 103.89,19.09 103.89,19.07 103.89,19.06 C 103.89,19.05 103.89,19.03 103.89,19.02 C 103.89,19.01 103.90,19.00 103.90,18.99 C 103.90,18.97 103.90,18.96 103.90,18.95 C 103.90,18.94 103.90,18.93 103.90,18.92 C 103.90,18.91 103.90,18.90 103.90,18.89 C 103.90,18.88 103.90,18.86 103.90,18.85 C 103.91,18.84 103.91,18.83 103.91,18.83 C 103.91,18.82 103.91,18.81 103.91,18.80 C 103.91,18.79 103.91,18.78 103.91,18.77 C 103.91,18.76 103.91,18.75 103.91,18.74 C 103.91,18.73 103.91,18.73 103.91,18.72 C 103.91,18.71 103.91,18.70 103.92,18.69 C 103.92,18.69 103.92,18.68 103.92,18.67 C 103.92,18.66 103.92,18.66 103.92,18.65 C 103.92,18.64 103.92,18.64 103.92,18.63 C 103.92,18.62 103.92,18.62 103.92,18.61 C 103.92,18.60 103.92,18.60 103.92,18.59 C 103.92,18.58 103.92,18.58 103.92,18.57 C 103.92,18.57 103.92,18.56 103.92,18.56 C 103.93,18.55 103.93,18.55 103.93,18.54 C 103.93,18.53 103.93,18.53 103.93,18.52 C 103.93,18.52 103.93,18.51 103.93,18.51 C 103.93,18.51 103.93,18.50 103.93,18.50 C 103.93,18.49 103.93,18.49 103.93,18.48 C 103.93,18.48 103.93,18.48 103.93,18.47 C 103.93,18.47 103.93,18.46 103.93,18.46 C 103.93,18.46 103.93,18.45 103.93,18.45 C 103.93,18.45 103.93,18.44 103.93,18.44 C 103.93,18.44 103.93,18.43 103.93,18.43 C 103.93,18.43 103.93,18.42 103.93,18.42 C 103.93,18.42 103.93,18.42 103.93,18.41 C 103.93,18.41 103.93,18.41 103.93,18.41 C 103.93,18.40 103.93,18.40 103.94,18.40 C 103.94,18.40 103.94,18.39 103.94,18.39 C 103.94,18.39 103.94,18.39 103.94,18.39 C 103.94,18.38 103.94,18.38 103.94,18.38 C 103.94,18.38 103.94,18.38 103.94,18.37 C 103.94,18.37 103.94,18.37 103.94,18.37 C 103.94,18.37 103.94,18.37 103.94,18.37 C 103.94,18.36 103.94,18.36 103.94,18.36 C 103.94,18.36 103.94,18.36 103.94,18.36 C 103.94,18.36 103.94,18.36 103.94,18.35 C 103.94,18.35 103.94,18.35 103.94,18.35 C 103.94,18.35 103.94,18.35 103.94,18.35 C 103.94,18.35 103.94,18.35 103.94,18.35 C 103.94,18.35 103.94,18.35 103.94,18.34 C 103.94,18.34 103.94,18.34 103.94,18.34 C 103.94,18.34 103.94,18.34 103.94,18.34 C 103.94,18.34 103.94,18.34 103.94,18.34 C 103.94,18.34 103.94,18.34 103.94,18.34 C 103.94,18.34 103.94,18.34 103.94,18.34 C 103.94,18.34 103.94,18.34 103.94,18.34 C 103.94,18.34 103.94,18.34 103.94,18.34 C 103.94,18.34 103.94,18.34 103.94,18.34 C 103.94,18.34 103.94,18.33 103.94,18.33 C 103.94,18.33 103.94,18.33 103.94,18.33 C 103.94,18.33 103.94,18.33 103.94,18.33 C 103.94,18.33 103.94,18.33 103.94,18.33 C 103.94,18.33 103.94,18.33 103.94,18.33 C 103.94,18.33 103.94,18.33 103.94,18.33 C 103.94,18.33 103.94,18.33 103.94,18.33 C 103.94,18.33 103.94,18.33 103.94,18.33 C 103.94,18.33 103.94,18.33 103.94,18.33 C 103.94,18.33 103.94,18.33 103.94,18.33 C 103.94,18.33 103.94,18.33 103.94,18.33 C 103.94,18.33 103.94,18.33 103.94,18.33" />
    <path d="M 116.06,201.67 C 116.06,201.67 116.06,201.67 116.06,201.67 C 116.06,201.67 116.06,201.67 116.06,201.67 C 116.06,201.67 116.06,201.67 116.06,201.67 C 116.06,201.67 116.06,201.67 116.06,201.67 C 116.06,201.67 116.06,201.67 116.06,201.67 C 116.06,201.67 116.06,201.67 116.06,201.67 C 116.06,201.67 116.06,201.67 116.06,201.67 C 116.06,201.67 116.06,201.67 116.06,201.67 C 116.06,201.67 116.06,201.67 116.06,201.67 C 116.06,201.67 116.06,201.67 116.06,201.67 C 116.06,201.67 116.06,201.67 116.06,201.67 C 116.06,201.67 116.06,201.66 116.06,201.66 C 116.06,201.66 116.06,201.66 116.06,201.66 C 116.06,201.66 116.06,201.66 116.06,201.66 C 116.06,201.66 116.06,201.66 116.06,201.66 C 116.06,201.66 116.06,201.66 116.06,201.66 C 116.06,201.66 116.06,201.66 116.06,201.66 C 116.06,201.66 116.06,201.66 116.06,201.66 C 116.06,201.66 116.06,201.66 116.06,201.66 C 116.06,201.66 116.06,201.66 116.06,201.66 C 116.06,201.65 116.06,201.65 116.06,201.65 C 116.06,201.65 116.06,201.65 116.06,201.65 C 116.06,201.65 116.06,201.65 116.06,201.65 C 116.06,201.65 116.06,201.65 116.06,201.65 C 116.06,201.64 116.06,201.64 116.06,201.64 C 116.06,201.64 116.06,201.64 116.06,201.64 C 116.06,201.64 116.06,201.64 116.06,201.63 C 116.06,201.63 116.06,201.63 116.06,201.63 C 116.06,201.63 116.06,201.63 116.06,201.63 C 116.06,201.62 116.06,201.62 116.06,201.62 C 116.06,201.62 116.06,201.62 116.06,201.61 C 116.06,201.61 116.06,201.61 116.06,201.61 C 116.06,201.61 116.06,201.60 116.06,201.60 C 116.07,201.60 116.07,201.60 116.07,201.59 C 116.07,201.59 116.07,201.59 116.07,201.59 C 116.07,201.58 116.07,201.58 116.07,201.58 C 116.07,201.58 116.07,201.57 116.07,201.57 C 116.07,201.57 116.07,201.56 116.07,201.56 C 116.07,201.56 116.07,201.55 116.07,201.55 C 116.07,201.55 116.07,201.54 116.07,201.54 C 116.07,201.54 116.07,201.53 116.07,201.53 C 116.07,201.52 116.07,201.52 116.07,201.52 C 116.07,201.51 116.07,201.51 116.07,201.50 C 116.07,201.50 116.07,201.49 116.07,201.49 C 116.07,201.49 116.07,201.48 116.07,201.48 C 116.07,201.47 116.07,201.47 116.07,201.46 C 116.07,201.45 116.07,201.45 116.08,201.44 C 116.08,201.44 116.08,201.43 116.08,201.43 C 116.08,201.42 116.08,201.42 116.08,201.41 C 116.08,201.40 116.08,201.40 116.08,201.39 C 116.08,201.38 116.08,201.38 116.08,201.37 C 116.08,201.36 116.08,201.36 116.08,201.35 C 116.08,201.34 116.08,201.34 116.08,201.33 C 116.08,201.32 116.08,201.31 116.08,201.31 C 116.09,201.30 116.09,201.29 116.09,201.28 C 116.09,201.27 116.09,201.27 116.09,201.26 C 116.09,201.25 116.09,201.24 116.09,201.23 C 116.09,201.22 116.09,201.21 116.09,201.20 C 116.09,201.19 116.09,201.18 116.09,201.17 C 116.09,201.17 116.09,201.16 116.10,201.15 C 116.10,201.14 116.10,201.12 116.10,201.11 C 116.10,201.10 116.10,201.09 116.10,201.08 C 116.10,201.07 116.10,201.06 116.10,201.05 C 116.10,201.04 116.10,201.03 116.10,201.01 C 116.10,201.00 116.11,200.99 116.11,200.98 C 116.11,200.97 116.11,200.95 116.11,200.94 C 116.11,200.93 116.11,200.91 116.11,200.90 C 116.11,200.89 116.11,200.87 116.11,200.86 C 116.12,200.85 116.12,200.83 116.12,200.82 C 116.12,200.80 116.12,200.79 116.12,200.78 C 116.12,200.76 116.12,200.75 116.12,200.73 C 116.12,200.72 116.13,200.70 116.13,200.68 C 116.13,200.67 116.13,200.65 116.13,200.64 C 116.13,200.62 116.13,200.60 116.13,200.59 C 116.13,200.57 116.14,200.55 116.14,200.54 C 116.14,200.52 116.14,200.50 116.14,200.48 C 116.14,200.46 116.14,200.45 116.14,200.43 C 116.14,200.41 116.15,200.39 116.15,200.37 C 116.15,200.35 116.15,200.33 116.15,200.31 C 116.15,200.29 116.15,200.27 116.16,200.25 C 116.16,200.23 116.16,200.21 116.16,200.19 C 116.16,200.17 116.16,200.15 116.16,200.13 C 116.17,200.11 116.17,200.08 116.17,200.06 C 116.17,200.04 116.17,200.02 116.17,199.99 C 116.17,199.97 116.18,199.95 116.18,199.93 C 116.18,199.90 116.18,199.88 116.18,199.85 C 116.18,199.83 116.19,199.81 116.19,199.78 C 116.19,199.76 116.19,199.73 116.19,199.71 C 116.19,199.68 116.20,199.65 116.20,199.63 C 116.20,199.60 116.20,199.58 116.20,199.55 C 116.21,199.52 116.21,199.49 116.21,199.47 C 116.21,199.44 116.21,199.41 116.22,199.38 C 116.22,199.36 116.22,199.33 116.22,199.30 C 116.22,199.27 116.23,199.24 116.23,199.21 C 116.23,199.18 116.23,199.15 116.23,199.12 C 116.24,199.09 116.24,199.06 116.24,199.03 C 116.24,199.00 116.24,198.96 116.25,198.93 C 116.25,198.90 116.25,198.87 116.25,198.84 C 116.26,198.80 116.26,198.77 116.26,198.74 C 116.26,198.70 116.27,198.67 116.27,198.64 C 116.27,198.60 116.27,198.57 116.28,198.53 C 116.28,198.50 116.28,198.46 116.28,198.43 C 116.29,198.39 116.29,198.35 116.29,198.32 C 116.29,198.28 116.30,198.24 116.30,198.21 C 116.30,198.17 116.30,198.13 116.31,198.09 C 116.31,198.05 116.31,198.02 116.31,197.98 C 116.32,197.94 116.32,197.90 116.32,197.86 C 116.33,197.82 116.33,197.78 116.33,197.74 C 116.33,197.70 116.34,197.66 116.34,197.62 C 116.34,197.57 116.35,197.53 116.35,197.49 C 116.35,197.45 116.36,197.40 116.36,197.36 C 116.36,197.32 116.37,197.27 116.37,197.23 C 116.37,197.19 116.38,197.14 116.38,197.10 C 116.38,197.05 116.39,197.01 116.39,196.96 C 116.39,196.92 116.40,196.87 116.40,196.82 C 116.40,196.78 116.41,196.73 116.41,196.68 C 116.41,196.64 116.42,196.59 116.42,196.54 C 116.42,196.49 116.43,196.44 116.43,196.39 C 116.43,196.34 116.44,196.29 116.44,196.24 C 116.45,196.19 116.45,196.14 116.45,196.09 C 116.46,196.04 116.46,195.99 116.46,195.94 C 116.47,195.89 116.47,195.83 116.48,195.78 C 116.48,195.73 116.48,195.68 116.49,195.62 C 116.49,195.57 116.50,195.52 116.50,195.46 C 116.50,195.41 116.51,195.35 116.51,195.30 C 116.52,195.24 116.52,195.19 116.53,195.13 C 116.53,195.07 116.53,195.02 116.54,194.96 C 116.54,194.90 116.55,194.84 116.55,194.79 C 116.56,194.73 116.56,194.67 116.57,194.61 C 116.57,194.55 116.58,194.49 116.58,194.43 C 116.58,194.37 116.59,194.31 116.59,194.25 C 116.60,194.19 116.60,194.13 116.61,194.07 C 116.61,194.01 116.62,193.95 116.62,193.88 C 116.63,193.82 116.63,193.76 116.64,193.69 C 116.64,193.63 116.65,193.57 116.65,193.50 C 116.66,193.44 116.66,193.37 116.67,193.31 C 116.67,193.24 116.68,193.18 116.68,193.11 C 116.69,193.05 116.70,192.98 116.70,192.91 C 116.71,192.85 116.71,192.78 116.72,192.71 C 116.72,192.64 116.73,192.57 116.73,192.50 C 116.74,192.44 116.74,192.37 116.75,192.30 C 116.76,192.23 116.76,192.16 116.77,192.09 C 116.77,192.02 116.78,191.95 116.79,191.87 C 116.79,191.80 116.80,191.73 116.80,191.66 C 116.81,191.59 116.82,191.51 116.82,191.44 C 116.83,191.37 116.83,191.29 116.84,191.22 C 116.85,191.15 116.85,191.07 116.86,191.00 C 116.87,190.92 116.87,190.85 116.88,190.77 C 116.88,190.70 116.89,190.62 116.90,190.54 C 116.90,190.47 116.91,190.39 116.92,190.31 C 116.92,190.24 116.93,190.16 116.94,190.08 C 116.94,190.00 116.95,189.92 116.96,189.84 C 116.96,189.76 116.97,189.68 116.98,189.60 C 116.99,189.53 116.99,189.44 117.00,189.36 C 117.01,189.28 117.01,189.20 117.02,189.12 C 117.03,189.04 117.04,188.96 117.04,188.88 C 117.05,188.79 117.06,188.71 117.07,188.63 C 117.07,188.54 117.08,188.46 117.09,188.38 C 117.10,188.29 117.10,188.21 117.11,188.12 C 117.12,188.04 117.13,187.95 117.13,187.87 C 117.14,187.78 117.15,187.70 117.16,187.61 C 117.17,187.52 117.17,187.44 117.18,187.35 C 117.19,187.26 117.20,187.18 117.21,187.09 C 117.21,187.00 117.22,186.91 117.23,186.82 C 117.24,186.74 117.25,186.65 117.26,186.56 C 117.27,186.47 117.27,186.38 117.28,186.29 C 117.29,186.20 117.30,186.11 117.31,186.02 C 117.32,185.93 117.33,185.84 117.33,185.75 C 117.34,185.65 117.35,185.56 117.36,185.47 C 117.37,185.38 117.38,185.29 117.39,185.19 C 117.40,185.10 117.41,185.01 117.42,184.91 C 117.43,184.82 117.43,184.73 117.44,184.63 C 117.45,184.54 117.46,184.44 117.47,184.35 C 117.48,184.25 117.49,184.16 117.50,184.06 C 117.51,183.97 117.52,183.87 117.53,183.78 C 117.54,183.68 117.55,183.58 117.56,183.49 C 117.57,183.39 117.58,183.29 117.59,183.20 C 117.60,183.10 117.61,183.00 117.62,182.90 C 117.63,182.81 117.64,182.71 117.65,182.61 C 117.66,182.51 117.67,182.41 117.68,182.31 C 117.69,182.22 117.70,182.12 117.71,182.02 C 117.72,181.92 117.74,181.82 117.75,181.72 C 117.76,181.62 117.77,181.52 117.78,181.42 C 117.79,181.32 117.80,181.22 117.81,181.11 C 117.82,181.01 117.83,180.91 117.85,180.81 C 117.86,180.71 117.87,180.61 117.88,180.50 C 117.89,180.40 117.90,180.30 117.91,180.20 C 117.93,180.09 117.94,179.99 117.95,179.89 C 117.96,179.79 117.97,179.68 117.98,179.58 C 118.00,179.48 118.01,179.37 118.02,179.27 C 118.03,179.16 118.04,179.06 118.06,178.96 C 118.07,178.85 118.08,178.75 118.09,178.64 C 118.11,178.54 118.12,178.43 118.13,178.33 C 118.14,178.22 118.16,178.12 118.17,178.01 C 118.18,177.91 118.19,177.80 118.21,177.69 C 118.22,177.59 118.23,177.48 118.25,177.38 C 118.26,177.27 118.27,177.16 118.28,177.06 C 118.30,176.95 118.31,176.84 118.32,176.74 C 118.34,176.63 118.35,176.52 118.36,176.41 C 118.38,176.31 118.39,176.20 118.41,176.09 C 118.42,175.98 118.43,175.88 118.45,175.77 C 118.46,175.66 118.47,175.55 118.49,175.45 C 118.50,175.34 118.52,175.23 118.53,175.12 C 118.55,175.01 118.56,174.90 118.57,174.80 C 118.59,174.69 118.60,174.58 118.62,174.47 C 118.63,174.36 118.65,174.25 118.66,174.14 C 118.68,174.03 118.69,173.92 118.71,173.81 C 118.72,173.71 118.74,173.60 118.75,173.49 C 118.77,173.38 118.78,173.27 118.80,173.16 C 118.81,173.05 118.83,172.94 118.84,172.83 C 118.86,172.72 118.87,172.61 118.89,172.50 C 118.90,172.39 118.92,172.28 118.94,172.17 C 118.95,172.06 118.97,171.95 118.98,171.84 C 119.00,171.73 119.02,171.62 119.03,171.51 C 119.05,171.40 119.06,171.29 119.08,171.18 C 119.10,171.07 119.11,170.96 119.13,170.84 C 119.15,170.73 119.16,170.62 119.18,170.51 C 119.20,170.40 119.21,170.29 119.23,170.18 C 119.25,170.07 119.27,169.96 119.28,169.85 C 119.30,169.74 119.32,169.63 119.33,169.52 C 119.35,169.41 119.37,169.30 119.39,169.19 C 119.40,169.07 119.42,168.96 119.44,168.85 C 119.46,168.74 119.48,168.63 119.49,168.52 C 119.51,168.41 119.53,168.30 119.55,168.19 C 119.57,168.08 119.58,167.97 119.60,167.86 C 119.62,167.75 119.64,167.64 119.66,167.53 C 119.68,167.41 119.69,167.30 119.71,167.19 C 119.73,167.08 119.75,166.97 119.77,166.86 C 119.79,166.75 119.81,166.64 119.83,166.53 C 119.85,166.42 119.87,166.31 119.89,166.20 C 119.90,166.09 119.92,165.98 119.94,165.87 C 119.96,165.76 119.98,165.65 120.00,165.54 C 120.02,165.43 120.04,165.32 120.06,165.21 C 120.08,165.10 120.10,164.99 120.12,164.88 C 120.14,164.77 120.16,164.66 120.18,164.55 C 120.20,164.44 120.23,164.33 120.25,164.22 C 120.27,164.11 120.29,164.00 120.31,163.89 C 120.33,163.78 120.35,163.67 120.37,163.56 C 120.39,163.46 120.41,163.35 120.44,163.24 C 120.46,163.13 120.48,163.02 120.50,162.91 C 120.52,162.80 120.54,162.69 120.56,162.59 C 120.59,162.48 120.61,162.37 120.63,162.26 C 120.65,162.15 120.67,162.04 120.70,161.94 C 120.72,161.83 120.74,161.72 120.76,161.61 C 120.79,161.50 120.81,161.40 120.83,161.29 C 120.85,161.18 120.88,161.07 120.90,160.97 C 120.92,160.86 120.95,160.75 120.97,160.64 C 120.99,160.54 121.02,160.43 121.04,160.32 C 121.06,160.22 121.09,160.11 121.11,160.00 C 121.13,159.90 121.16,159.79 121.18,159.68 C 121.21,159.58 121.23,159.47 121.25,159.37 C 121.28,159.26 121.30,159.16 121.33,159.05 C 121.35,158.94 121.38,158.84 121.40,158.73 C 121.42,158.63 121.45,158.52 121.47,158.42 C 121.50,158.31 121.52,158.21 121.55,158.10 C 121.57,158.00 121.60,157.89 121.62,157.79 C 121.65,157.69 121.68,157.58 121.70,157.48 C 121.73,157.37 121.75,157.27 121.78,157.17 C 121.80,157.06 121.83,156.96 121.86,156.86 C 121.88,156.75 121.91,156.65 121.94,156.55 C 121.96,156.45 121.99,156.34 122.01,156.24 C 122.04,156.14 122.07,156.04 122.09,155.93 C 122.12,155.83 122.15,155.73 122.18,155.63 C 122.20,155.53 122.23,155.42 122.26,155.32 C 122.28,155.22 122.31,155.12 122.34,155.02 C 122.37,154.92 122.40,154.82 122.42,154.72 C 122.45,154.62 122.48,154.52 122.51,154.42 C 122.54,154.32 122.56,154.22 122.59,154.12 C 122.62,154.02 122.65,153.92 122.68,153.82 C 122.71,153.72 122.74,153.62 122.76,153.52 C 122.79,153.42 122.82,153.33 122.85,153.23 C 122.88,153.13 122.91,153.03 122.94,152.93 C 122.97,152.84 123.00,152.74 123.03,152.64 C 123.06,152.54 123.09,152.45 123.12,152.35 C 123.15,152.25 123.18,152.15 123.21,152.06 C 123.24,151.96 123.27,151.86 123.30,151.77 C 123.33,151.67 123.36,151.58 123.39,151.48 C 123.42,151.39 123.45,151.29 123.49,151.19 C 123.52,151.10 123.55,151.00 123.58,150.91 C 123.61,150.82 123.64,150.72 123.67,150.63 C 123.71,150.53 123.74,150.44 123.77,150.34 C 123.80,150.25 123.83,150.16 123.87,150.06 C 123.90,149.97 123.93,149.88 123.96,149.78 C 124.00,149.69 124.03,149.60 124.06,149.51 C 124.10,149.41 124.13,149.32 124.16,149.23 C 124.19,149.14 124.23,149.05 124.26,148.96 C 124.29,148.86 124.33,148.77 124.36,148.68 C 124.40,148.59 124.43,148.50 124.46,148.41 C 124.50,148.32 124.53,148.23 124.57,148.14 C 124.60,148.05 124.64,147.96 124.67,147.87 C 124.70,147.78 124.74,147.69 124.77,147.60 C 124.81,147.51 124.84,147.43 124.88,147.34 C 124.91,147.25 124.95,147.16 124.99,147.07 C 125.02,146.99 125.06,146.90 125.09,146.81 C 125.13,146.72 125.16,146.64 125.20,146.55 C 125.24,146.46 125.27,146.37 125.31,146.29 C 125.35,146.20 125.38,146.12 125.42,146.03 C 125.46,145.94 125.49,145.86 125.53,145.77 C 125.57,145.69 125.60,145.60 125.64,145.52 C 125.68,145.43 125.72,145.35 125.75,145.26 C 125.79,145.18 125.83,145.10 125.87,145.01 C 125.91,144.93 125.94,144.84 125.98,144.76 C 126.02,144.68 126.06,144.59 126.10,144.51 C 126.14,144.43 126.18,144.35 126.21,144.26 C 126.25,144.18 126.29,144.10 126.33,144.02 C 126.37,143.94 126.41,143.85 126.45,143.77 C 126.49,143.69 126.53,143.61 126.57,143.53 C 126.61,143.45 126.65,143.37 126.69,143.29 C 126.73,143.21 126.77,143.13 126.81,143.05 C 126.85,142.97 126.89,142.89 126.93,142.81 C 126.97,142.73 127.02,142.65 127.06,142.57 C 127.10,142.49 127.14,142.41 127.18,142.34 C 127.22,142.26 127.26,142.18 127.31,142.10 C 127.35,142.02 127.39,141.95 127.43,141.87 C 127.47,141.79 127.52,141.72 127.56,141.64 C 127.60,141.56 127.64,141.49 127.69,141.41 C 127.73,141.33 127.77,141.26 127.82,141.18 C 127.86,141.11 127.90,141.03 127.95,140.95 C 127.99,140.88 128.03,140.80 128.08,140.73 C 128.12,140.66 128.17,140.58 128.21,140.51 C 128.26,140.43 128.30,140.36 128.34,140.28 C 128.39,140.21 128.43,140.14 128.48,140.06 C 128.52,139.99 128.57,139.92 128.61,139.85 C 128.66,139.77 128.71,139.70 128.75,139.63 C 128.80,139.56 128.84,139.48 128.89,139.41 C 128.93,139.34 128.98,139.27 129.03,139.20 C 129.07,139.13 129.12,139.06 129.17,138.99 C 129.21,138.91 129.26,138.84 129.31,138.77 C 129.35,138.70 129.40,138.63 129.45,138.56 C 129.50,138.49 129.54,138.42 129.59,138.36 C 129.64,138.29 129.69,138.22 129.74,138.15 C 129.78,138.08 129.83,138.01 129.88,137.94 C 129.93,137.87 129.98,137.81 130.03,137.74 C 130.08,137.67 130.13,137.60 130.18,137.54 C 130.22,137.47 130.27,137.40 130.32,137.34 C 130.37,137.27 130.42,137.20 130.47,137.14 C 130.52,137.07 130.57,137.00 130.62,136.94 C 130.67,136.87 130.73,136.81 130.78,136.74 C 130.83,136.67 130.88,136.61 130.93,136.54 C 130.98,136.48 131.03,136.42 131.08,136.35 C 131.13,136.29 131.19,136.22 131.24,136.16 C 131.29,136.09 131.34,136.03 131.39,135.97 C 131.45,135.90 131.50,135.84 131.55,135.78 C 131.60,135.71 131.66,135.65 131.71,135.59 C 131.76,135.53 131.82,135.46 131.87,135.40 C 131.92,135.34 131.98,135.28 132.03,135.22 C 132.09,135.15 132.14,135.09 132.19,135.03 C 132.25,134.97 132.30,134.91 132.36,134.85 C 132.41,134.79 132.47,134.73 132.52,134.67 C 132.58,134.61 132.63,134.55 132.69,134.49 C 132.74,134.43 132.80,134.37 132.85,134.31 C 132.91,134.25 132.97,134.19 133.02,134.13 C 133.08,134.07 133.13,134.01 133.19,133.96 C 133.25,133.90 133.30,133.84 133.36,133.78 C 133.42,133.72 133.48,133.66 133.53,133.61 C 133.59,133.55 133.65,133.49 133.71,133.43 C 133.76,133.38 133.82,133.32 133.88,133.26 C 133.94,133.21 134.00,133.15 134.06,133.09 C 134.11,133.04 134.17,132.98 134.23,132.93 C 134.29,132.87 134.35,132.81 134.41,132.76 C 134.47,132.70 134.53,132.65 134.59,132.59 C 134.65,132.54 134.71,132.48 134.77,132.43 C 134.83,132.37 134.89,132.32 134.95,132.27 C 135.01,132.21 135.07,132.16 135.13,132.10 C 135.19,132.05 135.26,132.00 135.32,131.94 C 135.38,131.89 135.44,131.84 135.50,131.78 C 135.56,131.73 135.63,131.68 135.69,131.63 C 135.75,131.57 135.81,131.52 135.88,131.47 C 135.94,131.42 136.00,131.36 136.07,131.31 C 136.13,131.26 136.19,131.21 136.26,131.16 C 136.32,131.11 136.38,131.06 136.45,131.01 C 136.51,130.95 136.58,130.90 136.64,130.85 C 136.71,130.80 136.77,130.75 136.84,130.70 C 136.90,130.65 136.97,130.60 137.03,130.55 C 137.10,130.50 137.16,130.45 137.23,130.40 C 137.29,130.35 137.36,130.31 137.43,130.26 C 137.49,130.21 137.56,130.16 137.63,130.11 C 137.69,130.06 137.76,130.01 137.83,129.96 C 137.89,129.92 137.96,129.87 138.03,129.82 C 138.10,129.77 138.16,129.73 138.23,129.68 C 138.30,129.63 138.37,129.58 138.44,129.54 C 138.51,129.49 138.57,129.44 138.64,129.40 C 138.71,129.35 138.78,129.30 138.85,129.26 C 138.92,129.21 138.99,129.16 139.06,129.12 C 139.13,129.07 139.20,129.03 139.27,128.98 C 139.34,128.93 139.41,128.89 139.48,128.84 C 139.55,128.80 139.62,128.75 139.70,128.71 C 139.77,128.66 139.84,128.62 139.91,128.57 C 139.98,128.53 140.05,128.49 140.13,128.44 C 140.20,128.40 140.27,128.35 140.34,128.31 C 140.42,128.27 140.49,128.22 140.56,128.18 C 140.63,128.13 140.71,128.09 140.78,128.05 C 140.86,128.01 140.93,127.96 141.00,127.92 C 141.08,127.88 141.15,127.83 141.23,127.79 C 141.30,127.75 141.38,127.71 141.45,127.66 C 141.53,127.62 141.60,127.58 141.68,127.54 C 141.75,127.50 141.83,127.46 141.90,127.41 C 141.98,127.37 142.05,127.33 142.13,127.29 C 142.21,127.25 142.28,127.21 142.36,127.17 C 142.44,127.13 142.52,127.09 142.59,127.05 C 142.67,127.00 142.75,126.96 142.83,126.92 C 142.90,126.88 142.98,126.84 143.06,126.80 C 143.14,126.76 143.22,126.72 143.30,126.69 C 143.37,126.65 143.45,126.61 143.53,126.57 C 143.61,126.53 143.69,126.49 143.77,126.45 C 143.85,126.41 143.93,126.37 144.01,126.33 C 144.09,126.30 144.17,126.26 144.25,126.22 C 144.33,126.18 144.42,126.14 144.50,126.10 C 144.58,126.07 144.66,126.03 144.74,125.99 C 144.82,125.95 144.91,125.92 144.99,125.88 C 145.07,125.84 145.15,125.80 145.24,125.77 C 145.32,125.73 145.40,125.69 145.48,125.66 C 145.57,125.62 145.65,125.58 145.74,125.55 C 145.82,125.51 145.90,125.47 145.99,125.44 C 146.07,125.40 146.16,125.37 146.24,125.33 C 146.33,125.29 146.41,125.26 146.50,125.22 C 146.58,125.19 146.67,125.15 146.75,125.12 C 146.84,125.08 146.93,125.05 147.01,125.01 C 147.10,124.98 147.19,124.94 147.27,124.91 C 147.36,124.87 147.45,124.84 147.53,124.80 C 147.62,124.77 147.71,124.73 147.80,124.70 C 147.88,124.66 147.97,124.63 148.06,124.60 C 148.15,124.56 148.24,124.53 148.33,124.50 C 148.42,124.46 148.51,124.43 148.60,124.39 C 148.68,124.36 148.77,124.33 148.86,124.29 C 148.95,124.26 149.04,124.23 149.14,124.20 C 149.23,124.16 149.32,124.13 149.41,124.10 C 149.50,124.06 149.59,124.03 149.68,124.00 C 149.77,123.97 149.87,123.94 149.96,123.90 C 150.05,123.87 150.14,123.84 150.24,123.81 C 150.33,123.78 150.42,123.74 150.51,123.71 C 150.61,123.68 150.70,123.65 150.79,123.62 C 150.89,123.59 150.98,123.56 151.08,123.52 C 151.17,123.49 151.27,123.46 151.36,123.43 C 151.46,123.40 151.55,123.37 151.65,123.34 C 151.74,123.31 151.84,123.28 151.93,123.25 C 152.03,123.22 152.13,123.19 152.22,123.16 C 152.32,123.13 152.42,123.10 152.51,123.07 C 152.61,123.04 152.71,123.01 152.80,122.98 C 152.90,122.95 153.00,122.92 153.10,122.89 C 153.20,122.86 153.30,122.83 153.39,122.80 C 153.49,122.77 153.59,122.74 153.69,122.72 C 153.79,122.69 153.89,122.66 153.99,122.63 C 154.09,122.60 154.19,122.57 154.29,122.54 C 154.39,122.51 154.49,122.49 154.59,122.46 C 154.69,122.43 154.80,122.40 154.90,122.37 C 155.00,122.35 155.10,122.32 155.20,122.29 C 155.30,122.26 155.41,122.23 155.51,122.21 C 155.61,122.18 155.72,122.15 155.82,122.13 C 155.92,122.10 156.03,122.07 156.13,122.04 C 156.23,122.02 156.34,121.99 156.44,121.96 C 156.55,121.94 156.65,121.91 156.76,121.88 C 156.86,121.86 156.97,121.83 157.07,121.80 C 157.18,121.78 157.28,121.75 157.39,121.72 C 157.50,121.70 157.60,121.67 157.71,121.64 C 157.82,121.62 157.92,121.59 158.03,121.57 C 158.14,121.54 158.25,121.52 158.35,121.49 C 158.46,121.46 158.57,121.44 158.68,121.41 C 158.79,121.39 158.90,121.36 159.01,121.34 C 159.11,121.31 159.22,121.29 159.33,121.26 C 159.44,121.24 159.55,121.21 159.66,121.19 C 159.77,121.16 159.88,121.14 160.00,121.11 C 160.11,121.09 160.22,121.06 160.33,121.04 C 160.44,121.01 160.55,120.99 160.66,120.97 C 160.78,120.94 160.89,120.92 161.00,120.89 C 161.11,120.87 161.23,120.84 161.34,120.82 C 161.45,120.80 161.57,120.77 161.68,120.75 C 161.80,120.73 161.91,120.70 162.03,120.68 C 162.14,120.66 162.25,120.63 162.37,120.61 C 162.49,120.58 162.60,120.56 162.72,120.54 C 162.83,120.52 162.95,120.49 163.06,120.47 C 163.18,120.45 163.30,120.42 163.41,120.40 C 163.53,120.38 163.65,120.36 163.77,120.33 C 163.88,120.31 164.00,120.29 164.12,120.27 C 164.24,120.24 164.36,120.22 164.48,120.20 C 164.60,120.18 164.71,120.15 164.83,120.13 C 164.95,120.11 165.07,120.09 165.19,120.07 C 165.31,120.04 165.43,120.02 165.56,120.00 C 165.68,119.98 165.80,119.96 165.92,119.94 C 166.04,119.91 166.16,119.89 166.28,119.87 C 166.41,119.85 166.53,119.83 166.65,119.81 C 166.77,119.79 166.90,119.76 167.02,119.74 C 167.14,119.72 167.27,119.70 167.39,119.68 C 167.52,119.66 167.64,119.64 167.76,119.62 C 167.89,119.60 168.01,119.58 168.14,119.56 C 168.26,119.54 168.39,119.51 168.52,119.49 C 168.64,119.47 168.77,119.45 168.89,119.43 C 169.02,119.41 169.15,119.39 169.28,119.37 C 169.40,119.35 169.53,119.33 169.66,119.31 C 169.79,119.29 169.91,119.27 170.04,119.25 C 170.17,119.23 170.30,119.21 170.43,119.19 C 170.56,119.17 170.69,119.15 170.82,119.13 C 170.95,119.12 171.08,119.10 171.21,119.08 C 171.34,119.06 171.47,119.04 171.60,119.02 C 171.73,119.00 171.86,118.98 172.00,118.96 C 172.13,118.94 172.26,118.92 172.39,118.90 C 172.52,118.89 172.66,118.87 172.79,118.85 C 172.92,118.83 173.06,118.81 173.19,118.79 C 173.32,118.77 173.46,118.75 173.59,118.74 C 173.73,118.72 173.86,118.70 174.00,118.68 C 174.13,118.66 174.27,118.64 174.40,118.63 C 174.54,118.61 174.68,118.59 174.81,118.57 C 174.95,118.55 175.09,118.54 175.22,118.52 C 175.36,118.50 175.50,118.48 175.64,118.46 C 175.77,118.45 175.91,118.43 176.05,118.41 C 176.19,118.39 176.33,118.38 176.47,118.36 C 176.61,118.34 176.75,118.32 176.89,118.31 C 177.03,118.29 177.17,118.27 177.31,118.25 C 177.45,118.24 177.59,118.22 177.73,118.20 C 177.87,118.19 178.01,118.17 178.16,118.15 C 178.30,118.13 178.44,118.12 178.58,118.10 C 178.73,118.08 178.87,118.07 179.01,118.05 C 179.16,118.03 179.30,118.02 179.44,118.00 C 179.59,117.98 179.73,117.97 179.88,117.95 C 180.02,117.93 180.17,117.92 180.31,117.90 C 180.46,117.88 180.60,117.87 180.75,117.85 C 180.90,117.84 181.04,117.82 181.19,117.80 C 181.34,117.79 181.48,117.77 181.63,117.76 C 181.78,117.74 181.93,117.72 182.08,117.71 C 182.22,117.69 182.37,117.68 182.52,117.66 C 182.67,117.64 182.82,117.63 182.97,117.61 C 183.12,117.60 183.27,117.58 183.42,117.57 C 183.57,117.55 183.72,117.54 183.87,117.52 C 184.03,117.50 184.18,117.49 184.33,117.47 C 184.48,117.46 184.63,117.44 184.79,117.43 C 184.94,117.41 185.09,117.40 185.25,117.38 C 185.40,117.37 185.55,117.35 185.71,117.34 C 185.86,117.32 186.02,117.31 186.17,117.29 C 186.33,117.28 186.48,117.26 186.64,117.25 C 186.79,117.23 186.95,117.22 187.10,117.21 C 187.26,117.19 187.42,117.18 187.58,117.16 C 187.73,117.15 187.89,117.13 188.05,117.12 C 188.21,117.10 188.36,117.09 188.52,117.08 C 188.68,117.06 188.84,117.05 189.00,117.03 C 189.16,117.02 189.32,117.00 189.48,116.99 C 189.64,116.98 189.80,116.96 189.96,116.95 C 190.12,116.93 190.28,116.92 190.44,116.91 C 190.61,116.89 190.77,116.88 190.93,116.86 C 191.09,116.85 191.25,116.84 191.42,116.82 C 191.58,116.81 191.74,116.80 191.91,116.78 C 192.07,116.77 192.24,116.76 192.40,116.74 C 192.57,116.73 192.73,116.72 192.90,116.70 C 193.06,116.69 193.23,116.68 193.39,116.66 C 193.56,116.65 193.73,116.64 193.89,116.62 C 194.06,116.61 194.23,116.60 194.39,116.58 C 194.56,116.57 194.73,116.56 194.90,116.54 C 195.07,116.53 195.24,116.52 195.41,116.50 C 195.57,116.49 195.74,116.48 195.91,116.47 C 196.08,116.45 196.25,116.44 196.43,116.43 C 196.60,116.42 196.77,116.40 196.94,116.39 C 197.11,116.38 197.28,116.37 197.45,116.35 C 197.63,116.34 197.80,116.33 197.97,116.32 C 198.15,116.30 198.32,116.29 198.49,116.28 C 198.67,116.27 198.84,116.25 199.02,116.24 C 199.19,116.23 199.37,116.22 199.54,116.20 C 199.72,116.19 199.89,116.18 200.07,116.17 C 200.25,116.16 200.42,116.14 200.60,116.13 C 200.78,116.12 200.95,116.11 201.13,116.10 C 201.31,116.08 201.58,116.07 201.67,116.06" />
  </g>

  <!-- точка (1;-2) -->
  <circle cx="126.67" cy="143.33" r="2.2" fill="#2d70b3" />

  <!-- подпись f(x) -->
  <text x="127.67" y="160.00"
        font-family="Georgia, 'Times New Roman', serif"
        font-style="italic"
        font-size="13"
        fill="#2d70b3">
    f(x)
  </text>

</svg>
