<svg xmlns="http://www.w3.org/2000/svg" width="220" height="220" viewBox="0 0 220 220">

  <rect x="0" y="0" width="220" height="220" fill="white" />

  <defs>
    <!-- стрелка для осей -->
    <marker id="axis-arrow"
            viewBox="0 0 15 8"
            refX="13" refY="4"
            markerWidth="12" markerHeight="6.4"
            orient="auto"
            markerUnits="userSpaceOnUse">
      <path d="M 3 0 L 15 4 L 3 8 L 7 4 Z"
            fill="black" />
    </marker>

    <!-- ограничение рисования гиперболы: x,y ∈ [-5.5;5.5] -->
    <clipPath id="clip-55">
      <rect x="18.33" y="18.33" width="183.33" height="183.33" />
    </clipPath>
  </defs>

  <!-- тонкая клетчатая сетка: по x и y от -6 до 6, без окаймления -->
  <g stroke="#d1d5db" stroke-width="0.5" shape-rendering="crispEdges">
    <line x1="26.67" y1="10" x2="26.67" y2="210" />
    <line x1="43.33" y1="10" x2="43.33" y2="210" />
    <line x1="60.00" y1="10" x2="60.00" y2="210" />
    <line x1="76.67" y1="10" x2="76.67" y2="210" />
    <line x1="93.33" y1="10" x2="93.33" y2="210" />
    <line x1="110.00" y1="10" x2="110.00" y2="210" />
    <line x1="126.67" y1="10" x2="126.67" y2="210" />
    <line x1="143.33" y1="10" x2="143.33" y2="210" />
    <line x1="160.00" y1="10" x2="160.00" y2="210" />
    <line x1="176.67" y1="10" x2="176.67" y2="210" />
    <line x1="193.33" y1="10" x2="193.33" y2="210" />
    <line x1="10" y1="193.33" x2="210" y2="193.33" />
    <line x1="10" y1="176.67" x2="210" y2="176.67" />
    <line x1="10" y1="160.00" x2="210" y2="160.00" />
    <line x1="10" y1="143.33" x2="210" y2="143.33" />
    <line x1="10" y1="126.67" x2="210" y2="126.67" />
    <line x1="10" y1="110.00" x2="210" y2="110.00" />
    <line x1="10" y1="93.33" x2="210" y2="93.33" />
    <line x1="10" y1="76.67" x2="210" y2="76.67" />
    <line x1="10" y1="60.00" x2="210" y2="60.00" />
    <line x1="10" y1="43.33" x2="210" y2="43.33" />
    <line x1="10" y1="26.67" x2="210" y2="26.67" />
  </g>

  <!-- оси x и y (0 находится в точке (110;110)) -->
  <g stroke="#111827" stroke-width="1.25">
    <line x1="10" y1="110" x2="210" y2="110"
          marker-end="url(#axis-arrow)" />
    <line x1="110" y1="210" x2="110" y2="10"
          marker-end="url(#axis-arrow)" />
  </g>

  <!-- подписи осей и делений -->
  <g font-family="sans-serif" font-size="11" fill="#111827">
    <text x="106" y="123" text-anchor="end"
          font-size="13" font-style="italic"
          font-family="Georgia, 'Times New Roman', serif">O</text>

    <rect x="121.17" y="111.00" width="7" height="12" fill="white" />
    <text x="124.67" y="122.00" text-anchor="middle" font-size="13"
          font-family="'Times New Roman', serif"
          font-weight="300">1</text>

    <text x="106.00" y="97.33" text-anchor="end" font-size="13"
          font-family="'Times New Roman', serif"
          font-weight="300">1</text>

    <text x="208.67" y="123.00" text-anchor="start"
          font-family="Georgia, 'Times New Roman', serif"
          font-style="italic" font-size="13">x</text>

    <text x="107.00" y="11.33" text-anchor="end"
          font-family="Georgia, 'Times New Roman', serif"
          font-style="italic" font-size="13">y</text>
  </g>

  <!-- гипербола y = k/x, k=-1 (гладкая интерполяция); обрезана по окну [-5.5;5.5]×[-5.5;5.5] -->
  <g stroke="#2d70b3" stroke-width="1.25" fill="none"
     stroke-linecap="round" stroke-linejoin="round"
     clip-path="url(#clip-55)">
    <path d="M 10.00,107.22 C 10.10,107.22 10.40,107.21 10.61,107.21 C 10.81,107.20 11.01,107.19 11.21,107.19 C 11.41,107.18 11.61,107.18 11.81,107.17 C 12.01,107.17 12.21,107.16 12.41,107.15 C 12.61,107.15 12.80,107.14 13.00,107.14 C 13.20,107.13 13.40,107.12 13.60,107.12 C 13.79,107.11 13.99,107.11 14.19,107.10 C 14.38,107.09 14.58,107.09 14.77,107.08 C 14.97,107.08 15.16,107.07 15.36,107.06 C 15.55,107.06 15.75,107.05 15.94,107.05 C 16.13,107.04 16.33,107.03 16.52,107.03 C 16.71,107.02 16.90,107.02 17.09,107.01 C 17.29,107.00 17.48,107.00 17.67,106.99 C 17.86,106.99 18.05,106.98 18.24,106.97 C 18.43,106.97 18.62,106.96 18.81,106.95 C 19.00,106.95 19.19,106.94 19.37,106.93 C 19.56,106.93 19.75,106.92 19.94,106.92 C 20.13,106.91 20.31,106.90 20.50,106.90 C 20.69,106.89 20.87,106.88 21.06,106.88 C 21.24,106.87 21.43,106.86 21.61,106.86 C 21.80,106.85 21.98,106.84 22.17,106.84 C 22.35,106.83 22.53,106.82 22.72,106.82 C 22.90,106.81 23.08,106.80 23.26,106.80 C 23.45,106.79 23.63,106.78 23.81,106.78 C 23.99,106.77 24.17,106.76 24.35,106.76 C 24.53,106.75 24.71,106.74 24.89,106.74 C 25.07,106.73 25.25,106.72 25.43,106.72 C 25.61,106.71 25.79,106.70 25.97,106.69 C 26.15,106.69 26.32,106.68 26.50,106.67 C 26.68,106.67 26.85,106.66 27.03,106.65 C 27.21,106.64 27.38,106.64 27.56,106.63 C 27.73,106.62 27.91,106.62 28.08,106.61 C 28.26,106.60 28.43,106.59 28.61,106.59 C 28.78,106.58 28.95,106.57 29.13,106.57 C 29.30,106.56 29.47,106.55 29.64,106.54 C 29.82,106.54 29.99,106.53 30.16,106.52 C 30.33,106.51 30.50,106.51 30.67,106.50 C 30.84,106.49 31.01,106.48 31.18,106.48 C 31.35,106.47 31.52,106.46 31.69,106.45 C 31.86,106.45 32.03,106.44 32.20,106.43 C 32.37,106.42 32.53,106.41 32.70,106.41 C 32.87,106.40 33.04,106.39 33.20,106.38 C 33.37,106.38 33.53,106.37 33.70,106.36 C 33.87,106.35 34.03,106.34 34.20,106.34 C 34.36,106.33 34.53,106.32 34.69,106.31 C 34.85,106.30 35.02,106.30 35.18,106.29 C 35.34,106.28 35.51,106.27 35.67,106.26 C 35.83,106.25 35.99,106.25 36.16,106.24 C 36.32,106.23 36.48,106.22 36.64,106.21 C 36.80,106.21 36.96,106.20 37.12,106.19 C 37.28,106.18 37.44,106.17 37.60,106.16 C 37.76,106.15 37.92,106.15 38.08,106.14 C 38.24,106.13 38.39,106.12 38.55,106.11 C 38.71,106.10 38.87,106.09 39.02,106.09 C 39.18,106.08 39.34,106.07 39.49,106.06 C 39.65,106.05 39.81,106.04 39.96,106.03 C 40.12,106.03 40.27,106.02 40.43,106.01 C 40.58,106.00 40.74,105.99 40.89,105.98 C 41.04,105.97 41.20,105.96 41.35,105.95 C 41.50,105.94 41.66,105.94 41.81,105.93 C 41.96,105.92 42.11,105.91 42.27,105.90 C 42.42,105.89 42.57,105.88 42.72,105.87 C 42.87,105.86 43.02,105.85 43.17,105.84 C 43.32,105.83 43.47,105.82 43.62,105.82 C 43.77,105.81 43.92,105.80 44.07,105.79 C 44.22,105.78 44.36,105.77 44.51,105.76 C 44.66,105.75 44.81,105.74 44.95,105.73 C 45.10,105.72 45.25,105.71 45.40,105.70 C 45.54,105.69 45.69,105.68 45.83,105.67 C 45.98,105.66 46.12,105.65 46.27,105.64 C 46.41,105.63 46.56,105.62 46.70,105.61 C 46.85,105.60 46.99,105.59 47.13,105.58 C 47.28,105.57 47.42,105.56 47.56,105.55 C 47.71,105.54 47.85,105.53 47.99,105.52 C 48.13,105.51 48.27,105.50 48.41,105.49 C 48.56,105.48 48.70,105.47 48.84,105.46 C 48.98,105.45 49.12,105.44 49.26,105.43 C 49.40,105.42 49.54,105.41 49.68,105.40 C 49.81,105.38 49.95,105.37 50.09,105.36 C 50.23,105.35 50.37,105.34 50.51,105.33 C 50.64,105.32 50.78,105.31 50.92,105.30 C 51.05,105.29 51.19,105.28 51.33,105.27 C 51.46,105.25 51.60,105.24 51.73,105.23 C 51.87,105.22 52.00,105.21 52.14,105.20 C 52.27,105.19 52.41,105.18 52.54,105.17 C 52.68,105.15 52.81,105.14 52.94,105.13 C 53.08,105.12 53.21,105.11 53.34,105.10 C 53.48,105.09 53.61,105.07 53.74,105.06 C 53.87,105.05 54.00,105.04 54.13,105.03 C 54.27,105.02 54.40,105.00 54.53,104.99 C 54.66,104.98 54.79,104.97 54.92,104.96 C 55.05,104.95 55.18,104.93 55.31,104.92 C 55.44,104.91 55.56,104.90 55.69,104.89 C 55.82,104.87 55.95,104.86 56.08,104.85 C 56.20,104.84 56.33,104.82 56.46,104.81 C 56.59,104.80 56.71,104.79 56.84,104.77 C 56.97,104.76 57.09,104.75 57.22,104.74 C 57.34,104.72 57.47,104.71 57.59,104.70 C 57.72,104.69 57.84,104.67 57.97,104.66 C 58.09,104.65 58.22,104.64 58.34,104.62 C 58.46,104.61 58.59,104.60 58.71,104.58 C 58.83,104.57 58.96,104.56 59.08,104.55 C 59.20,104.53 59.32,104.52 59.44,104.51 C 59.57,104.49 59.69,104.48 59.81,104.47 C 59.93,104.45 60.05,104.44 60.17,104.43 C 60.29,104.41 60.41,104.40 60.53,104.38 C 60.65,104.37 60.77,104.36 60.89,104.34 C 61.01,104.33 61.13,104.32 61.24,104.30 C 61.36,104.29 61.48,104.27 61.60,104.26 C 61.72,104.25 61.83,104.23 61.95,104.22 C 62.07,104.20 62.18,104.19 62.30,104.18 C 62.42,104.16 62.53,104.15 62.65,104.13 C 62.76,104.12 62.88,104.10 62.99,104.09 C 63.11,104.08 63.22,104.06 63.34,104.05 C 63.45,104.03 63.57,104.02 63.68,104.00 C 63.80,103.99 63.91,103.97 64.02,103.96 C 64.14,103.94 64.25,103.93 64.36,103.91 C 64.47,103.90 64.59,103.88 64.70,103.87 C 64.81,103.85 64.92,103.84 65.03,103.82 C 65.14,103.81 65.25,103.79 65.37,103.78 C 65.48,103.76 65.59,103.75 65.70,103.73 C 65.81,103.71 65.92,103.70 66.03,103.68 C 66.13,103.67 66.24,103.65 66.35,103.64 C 66.46,103.62 66.57,103.60 66.68,103.59 C 66.79,103.57 66.89,103.56 67.00,103.54 C 67.11,103.52 67.22,103.51 67.32,103.49 C 67.43,103.47 67.54,103.46 67.64,103.44 C 67.75,103.43 67.86,103.41 67.96,103.39 C 68.07,103.38 68.17,103.36 68.28,103.34 C 68.38,103.33 68.49,103.31 68.59,103.29 C 68.70,103.27 68.80,103.26 68.90,103.24 C 69.01,103.22 69.11,103.21 69.21,103.19 C 69.32,103.17 69.42,103.15 69.52,103.14 C 69.63,103.12 69.73,103.10 69.83,103.08 C 69.93,103.07 70.03,103.05 70.14,103.03 C 70.24,103.01 70.34,103.00 70.44,102.98 C 70.54,102.96 70.64,102.94 70.74,102.92 C 70.84,102.91 70.94,102.89 71.04,102.87 C 71.14,102.85 71.24,102.83 71.34,102.82 C 71.44,102.80 71.54,102.78 71.63,102.76 C 71.73,102.74 71.83,102.72 71.93,102.70 C 72.03,102.68 72.12,102.67 72.22,102.65 C 72.32,102.63 72.42,102.61 72.51,102.59 C 72.61,102.57 72.71,102.55 72.80,102.53 C 72.90,102.51 72.99,102.49 73.09,102.47 C 73.19,102.45 73.28,102.44 73.38,102.42 C 73.47,102.40 73.57,102.38 73.66,102.36 C 73.75,102.34 73.85,102.32 73.94,102.30 C 74.04,102.28 74.13,102.26 74.22,102.24 C 74.32,102.22 74.41,102.20 74.50,102.17 C 74.59,102.15 74.69,102.13 74.78,102.11 C 74.87,102.09 74.96,102.07 75.05,102.05 C 75.15,102.03 75.24,102.01 75.33,101.99 C 75.42,101.97 75.51,101.95 75.60,101.92 C 75.69,101.90 75.78,101.88 75.87,101.86 C 75.96,101.84 76.05,101.82 76.14,101.80 C 76.23,101.77 76.32,101.75 76.41,101.73 C 76.50,101.71 76.58,101.69 76.67,101.67 C 76.76,101.64 76.85,101.62 76.94,101.60 C 77.02,101.58 77.11,101.55 77.20,101.53 C 77.29,101.51 77.37,101.49 77.46,101.46 C 77.55,101.44 77.63,101.42 77.72,101.40 C 77.80,101.37 77.89,101.35 77.98,101.33 C 78.06,101.30 78.15,101.28 78.23,101.26 C 78.32,101.23 78.40,101.21 78.49,101.19 C 78.57,101.16 78.65,101.14 78.74,101.11 C 78.82,101.09 78.91,101.07 78.99,101.04 C 79.07,101.02 79.16,100.99 79.24,100.97 C 79.32,100.95 79.40,100.92 79.49,100.90 C 79.57,100.87 79.65,100.85 79.73,100.82 C 79.81,100.80 79.90,100.77 79.98,100.75 C 80.06,100.72 80.14,100.70 80.22,100.67 C 80.30,100.65 80.38,100.62 80.46,100.60 C 80.54,100.57 80.62,100.55 80.70,100.52 C 80.78,100.49 80.86,100.47 80.94,100.44 C 81.02,100.42 81.10,100.39 81.18,100.36 C 81.25,100.34 81.33,100.31 81.41,100.28 C 81.49,100.26 81.57,100.23 81.64,100.20 C 81.72,100.18 81.80,100.15 81.88,100.12 C 81.95,100.10 82.03,100.07 82.11,100.04 C 82.18,100.01 82.26,99.99 82.34,99.96 C 82.41,99.93 82.49,99.90 82.56,99.88 C 82.64,99.85 82.72,99.82 82.79,99.79 C 82.87,99.76 82.94,99.73 83.01,99.71 C 83.09,99.68 83.16,99.65 83.24,99.62 C 83.31,99.59 83.39,99.56 83.46,99.53 C 83.53,99.50 83.61,99.48 83.68,99.45 C 83.75,99.42 83.83,99.39 83.90,99.36 C 83.97,99.33 84.04,99.30 84.12,99.27 C 84.19,99.24 84.26,99.21 84.33,99.18 C 84.40,99.15 84.47,99.12 84.55,99.09 C 84.62,99.06 84.69,99.03 84.76,99.00 C 84.83,98.96 84.90,98.93 84.97,98.90 C 85.04,98.87 85.11,98.84 85.18,98.81 C 85.25,98.78 85.32,98.75 85.39,98.71 C 85.46,98.68 85.53,98.65 85.60,98.62 C 85.66,98.59 85.73,98.55 85.80,98.52 C 85.87,98.49 85.94,98.46 86.01,98.42 C 86.07,98.39 86.14,98.36 86.21,98.32 C 86.28,98.29 86.34,98.26 86.41,98.22 C 86.48,98.19 86.54,98.16 86.61,98.12 C 86.68,98.09 86.74,98.06 86.81,98.02 C 86.87,97.99 86.94,97.95 87.01,97.92 C 87.07,97.89 87.14,97.85 87.20,97.82 C 87.27,97.78 87.33,97.75 87.40,97.71 C 87.46,97.68 87.53,97.64 87.59,97.61 C 87.65,97.57 87.72,97.53 87.78,97.50 C 87.84,97.46 87.91,97.43 87.97,97.39 C 88.03,97.35 88.10,97.32 88.16,97.28 C 88.22,97.24 88.29,97.21 88.35,97.17 C 88.41,97.13 88.47,97.10 88.53,97.06 C 88.60,97.02 88.66,96.98 88.72,96.95 C 88.78,96.91 88.84,96.87 88.90,96.83 C 88.96,96.79 89.03,96.76 89.09,96.72 C 89.15,96.68 89.21,96.64 89.27,96.60 C 89.33,96.56 89.39,96.52 89.45,96.49 C 89.51,96.45 89.57,96.41 89.63,96.37 C 89.68,96.33 89.74,96.29 89.80,96.25 C 89.86,96.21 89.92,96.17 89.98,96.13 C 90.04,96.09 90.09,96.05 90.15,96.00 C 90.21,95.96 90.27,95.92 90.33,95.88 C 90.38,95.84 90.44,95.80 90.50,95.76 C 90.56,95.71 90.61,95.67 90.67,95.63 C 90.73,95.59 90.78,95.55 90.84,95.50 C 90.89,95.46 90.95,95.42 91.01,95.38 C 91.06,95.33 91.12,95.29 91.17,95.25 C 91.23,95.20 91.28,95.16 91.34,95.11 C 91.39,95.07 91.45,95.03 91.50,94.98 C 91.56,94.94 91.61,94.89 91.67,94.85 C 91.72,94.80 91.78,94.76 91.83,94.71 C 91.88,94.67 91.94,94.62 91.99,94.58 C 92.04,94.53 92.10,94.49 92.15,94.44 C 92.20,94.39 92.26,94.35 92.31,94.30 C 92.36,94.25 92.41,94.21 92.46,94.16 C 92.52,94.11 92.57,94.06 92.62,94.02 C 92.67,93.97 92.72,93.92 92.78,93.87 C 92.83,93.83 92.88,93.78 92.93,93.73 C 92.98,93.68 93.03,93.63 93.08,93.58 C 93.13,93.53 93.18,93.48 93.23,93.43 C 93.28,93.38 93.33,93.33 93.38,93.28 C 93.43,93.23 93.48,93.18 93.53,93.13 C 93.58,93.08 93.63,93.03 93.68,92.98 C 93.73,92.93 93.78,92.88 93.83,92.83 C 93.87,92.77 93.92,92.72 93.97,92.67 C 94.02,92.62 94.07,92.57 94.12,92.51 C 94.16,92.46 94.21,92.41 94.26,92.35 C 94.31,92.30 94.35,92.25 94.40,92.19 C 94.45,92.14 94.49,92.09 94.54,92.03 C 94.59,91.98 94.63,91.92 94.68,91.87 C 94.73,91.81 94.77,91.76 94.82,91.70 C 94.86,91.65 94.91,91.59 94.96,91.54 C 95.00,91.48 95.05,91.42 95.09,91.37 C 95.14,91.31 95.18,91.25 95.23,91.20 C 95.27,91.14 95.32,91.08 95.36,91.02 C 95.41,90.97 95.45,90.91 95.49,90.85 C 95.54,90.79 95.58,90.73 95.63,90.67 C 95.67,90.61 95.71,90.56 95.76,90.50 C 95.80,90.44 95.84,90.38 95.89,90.32 C 95.93,90.26 95.97,90.20 96.02,90.14 C 96.06,90.08 96.10,90.01 96.14,89.95 C 96.19,89.89 96.23,89.83 96.27,89.77 C 96.31,89.71 96.35,89.64 96.40,89.58 C 96.44,89.52 96.48,89.46 96.52,89.39 C 96.56,89.33 96.60,89.27 96.64,89.20 C 96.68,89.14 96.73,89.07 96.77,89.01 C 96.81,88.95 96.85,88.88 96.89,88.82 C 96.93,88.75 96.97,88.69 97.01,88.62 C 97.05,88.55 97.09,88.49 97.13,88.42 C 97.17,88.36 97.21,88.29 97.25,88.22 C 97.28,88.15 97.32,88.09 97.36,88.02 C 97.40,87.95 97.44,87.88 97.48,87.82 C 97.52,87.75 97.56,87.68 97.59,87.61 C 97.63,87.54 97.67,87.47 97.71,87.40 C 97.75,87.33 97.78,87.26 97.82,87.19 C 97.86,87.12 97.90,87.05 97.93,86.98 C 97.97,86.91 98.01,86.84 98.04,86.77 C 98.08,86.69 98.12,86.62 98.15,86.55 C 98.19,86.48 98.23,86.40 98.26,86.33 C 98.30,86.26 98.34,86.18 98.37,86.11 C 98.41,86.04 98.44,85.96 98.48,85.89 C 98.52,85.81 98.55,85.74 98.59,85.66 C 98.62,85.59 98.66,85.51 98.69,85.44 C 98.73,85.36 98.76,85.28 98.80,85.21 C 98.83,85.13 98.87,85.05 98.90,84.98 C 98.93,84.90 98.97,84.82 99.00,84.74 C 99.04,84.66 99.07,84.59 99.10,84.51 C 99.14,84.43 99.17,84.35 99.20,84.27 C 99.24,84.19 99.27,84.11 99.30,84.03 C 99.34,83.95 99.37,83.87 99.40,83.79 C 99.44,83.70 99.47,83.62 99.50,83.54 C 99.53,83.46 99.57,83.38 99.60,83.29 C 99.63,83.21 99.66,83.13 99.70,83.04 C 99.73,82.96 99.76,82.88 99.79,82.79 C 99.82,82.71 99.85,82.62 99.88,82.54 C 99.92,82.45 99.95,82.37 99.98,82.28 C 100.01,82.20 100.04,82.11 100.07,82.02 C 100.10,81.94 100.13,81.85 100.16,81.76 C 100.19,81.68 100.22,81.59 100.25,81.50 C 100.28,81.41 100.31,81.32 100.34,81.23 C 100.37,81.14 100.40,81.06 100.43,80.97 C 100.46,80.88 100.49,80.79 100.52,80.70 C 100.55,80.60 100.58,80.51 100.61,80.42 C 100.64,80.33 100.67,80.24 100.70,80.15 C 100.72,80.05 100.75,79.96 100.78,79.87 C 100.81,79.78 100.84,79.68 100.87,79.59 C 100.89,79.50 100.92,79.40 100.95,79.31 C 100.98,79.21 101.01,79.12 101.03,79.02 C 101.06,78.93 101.09,78.83 101.12,78.73 C 101.14,78.64 101.17,78.54 101.20,78.44 C 101.22,78.35 101.25,78.25 101.28,78.15 C 101.31,78.05 101.33,77.95 101.36,77.86 C 101.38,77.76 101.41,77.66 101.44,77.56 C 101.46,77.46 101.49,77.36 101.52,77.26 C 101.54,77.16 101.57,77.06 101.59,76.96 C 101.62,76.86 101.64,76.75 101.67,76.65 C 101.70,76.55 101.72,76.45 101.75,76.34 C 101.77,76.24 101.80,76.14 101.82,76.03 C 101.85,75.93 101.87,75.83 101.90,75.72 C 101.92,75.62 101.95,75.51 101.97,75.41 C 101.99,75.30 102.02,75.20 102.04,75.09 C 102.07,74.98 102.09,74.88 102.12,74.77 C 102.14,74.66 102.16,74.56 102.19,74.45 C 102.21,74.34 102.23,74.23 102.26,74.12 C 102.28,74.02 102.30,73.91 102.33,73.80 C 102.35,73.69 102.37,73.58 102.40,73.47 C 102.42,73.36 102.44,73.25 102.47,73.13 C 102.49,73.02 102.51,72.91 102.53,72.80 C 102.56,72.69 102.58,72.58 102.60,72.46 C 102.62,72.35 102.64,72.24 102.67,72.12 C 102.69,72.01 102.71,71.90 102.73,71.78 C 102.75,71.67 102.78,71.55 102.80,71.44 C 102.82,71.32 102.84,71.21 102.86,71.09 C 102.88,70.98 102.90,70.86 102.92,70.74 C 102.95,70.63 102.97,70.51 102.99,70.39 C 103.01,70.27 103.03,70.16 103.05,70.04 C 103.07,69.92 103.09,69.80 103.11,69.68 C 103.13,69.56 103.15,69.44 103.17,69.32 C 103.19,69.20 103.21,69.08 103.23,68.96 C 103.25,68.84 103.27,68.72 103.29,68.60 C 103.31,68.48 103.33,68.36 103.35,68.23 C 103.37,68.11 103.39,67.99 103.41,67.87 C 103.43,67.74 103.45,67.62 103.46,67.50 C 103.48,67.37 103.50,67.25 103.52,67.12 C 103.54,67.00 103.56,66.88 103.58,66.75 C 103.60,66.63 103.61,66.50 103.63,66.37 C 103.65,66.25 103.67,66.12 103.69,66.00 C 103.71,65.87 103.72,65.74 103.74,65.62 C 103.76,65.49 103.78,65.36 103.80,65.23 C 103.81,65.10 103.83,64.98 103.85,64.85 C 103.87,64.72 103.88,64.59 103.90,64.46 C 103.92,64.33 103.93,64.20 103.95,64.07 C 103.97,63.94 103.99,63.81 104.00,63.68 C 104.02,63.55 104.04,63.42 104.05,63.29 C 104.07,63.16 104.09,63.03 104.10,62.90 C 104.12,62.76 104.14,62.63 104.15,62.50 C 104.17,62.37 104.18,62.24 104.20,62.10 C 104.22,61.97 104.23,61.84 104.25,61.70 C 104.26,61.57 104.28,61.44 104.30,61.30 C 104.31,61.17 104.33,61.03 104.34,60.90 C 104.36,60.76 104.37,60.63 104.39,60.49 C 104.40,60.36 104.42,60.22 104.43,60.09 C 104.45,59.95 104.46,59.82 104.48,59.68 C 104.49,59.55 104.51,59.41 104.52,59.27 C 104.54,59.14 104.55,59.00 104.57,58.86 C 104.58,58.73 104.60,58.59 104.61,58.45 C 104.63,58.31 104.64,58.18 104.65,58.04 C 104.67,57.90 104.68,57.76 104.70,57.62 C 104.71,57.49 104.72,57.35 104.74,57.21 C 104.75,57.07 104.77,56.93 104.78,56.79 C 104.79,56.65 104.81,56.51 104.82,56.37 C 104.83,56.24 104.85,56.10 104.86,55.96 C 104.87,55.82 104.89,55.68 104.90,55.54 C 104.91,55.40 104.93,55.26 104.94,55.12 C 104.95,54.98 104.96,54.84 104.98,54.70 C 104.99,54.56 105.00,54.41 105.02,54.27 C 105.03,54.13 105.04,53.99 105.05,53.85 C 105.07,53.71 105.08,53.57 105.09,53.43 C 105.10,53.29 105.11,53.15 105.13,53.01 C 105.14,52.86 105.15,52.72 105.16,52.58 C 105.17,52.44 105.19,52.30 105.20,52.16 C 105.21,52.02 105.22,51.87 105.23,51.73 C 105.24,51.59 105.26,51.45 105.27,51.31 C 105.28,51.17 105.29,51.02 105.30,50.88 C 105.31,50.74 105.32,50.60 105.33,50.46 C 105.35,50.32 105.36,50.17 105.37,50.03 C 105.38,49.89 105.39,49.75 105.40,49.61 C 105.41,49.47 105.42,49.32 105.43,49.18 C 105.44,49.04 105.45,48.90 105.46,48.76 C 105.47,48.62 105.49,48.48 105.50,48.33 C 105.51,48.19 105.52,48.05 105.53,47.91 C 105.54,47.77 105.55,47.63 105.56,47.49 C 105.57,47.35 105.58,47.20 105.59,47.06 C 105.60,46.92 105.61,46.78 105.62,46.64 C 105.63,46.50 105.64,46.36 105.64,46.22 C 105.65,46.08 105.66,45.94 105.67,45.80 C 105.68,45.66 105.69,45.52 105.70,45.38 C 105.71,45.24 105.72,45.10 105.73,44.96 C 105.74,44.82 105.75,44.68 105.76,44.54 C 105.77,44.40 105.77,44.27 105.78,44.13 C 105.79,43.99 105.80,43.85 105.81,43.71 C 105.82,43.57 105.83,43.44 105.84,43.30 C 105.84,43.16 105.85,43.02 105.86,42.89 C 105.87,42.75 105.88,42.61 105.89,42.47 C 105.89,42.34 105.90,42.20 105.91,42.07 C 105.92,41.93 105.93,41.79 105.94,41.66 C 105.94,41.52 105.95,41.39 105.96,41.25 C 105.97,41.12 105.98,40.98 105.98,40.85 C 105.99,40.71 106.00,40.58 106.01,40.45 C 106.01,40.31 106.02,40.18 106.03,40.05 C 106.04,39.91 106.04,39.78 106.05,39.65 C 106.06,39.52 106.07,39.38 106.07,39.25 C 106.08,39.12 106.09,38.99 106.10,38.86 C 106.10,38.73 106.11,38.60 106.12,38.47 C 106.12,38.34 106.13,38.21 106.14,38.08 C 106.14,37.95 106.15,37.82 106.16,37.69 C 106.17,37.56 106.17,37.44 106.18,37.31 C 106.19,37.18 106.19,37.05 106.20,36.93 C 106.21,36.80 106.21,36.67 106.22,36.55 C 106.22,36.42 106.23,36.30 106.24,36.17 C 106.24,36.05 106.25,35.92 106.26,35.80 C 106.26,35.68 106.27,35.55 106.27,35.43 C 106.28,35.31 106.29,35.19 106.29,35.06 C 106.30,34.94 106.31,34.82 106.31,34.70 C 106.32,34.58 106.32,34.46 106.33,34.34 C 106.33,34.22 106.34,34.10 106.35,33.98 C 106.35,33.87 106.36,33.75 106.36,33.63 C 106.37,33.51 106.37,33.40 106.38,33.28 C 106.38,33.16 106.39,33.05 106.40,32.93 C 106.40,32.82 106.41,32.70 106.41,32.59 C 106.42,32.47 106.42,32.36 106.43,32.25 C 106.43,32.14 106.44,32.02 106.44,31.91 C 106.45,31.80 106.45,31.69 106.46,31.58 C 106.46,31.47 106.47,31.36 106.47,31.25 C 106.48,31.14 106.48,31.03 106.49,30.93 C 106.49,30.82 106.50,30.71 106.50,30.60 C 106.51,30.50 106.51,30.39 106.52,30.29 C 106.52,30.18 106.52,30.08 106.53,29.97 C 106.53,29.87 106.54,29.77 106.54,29.66 C 106.55,29.56 106.55,29.46 106.56,29.36 C 106.56,29.26 106.56,29.16 106.57,29.06 C 106.57,28.96 106.58,28.86 106.58,28.76 C 106.58,28.66 106.59,28.56 106.59,28.47 C 106.60,28.37 106.60,28.27 106.61,28.18 C 106.61,28.08 106.61,27.99 106.62,27.89 C 106.62,27.80 106.62,27.70 106.63,27.61 C 106.63,27.52 106.64,27.43 106.64,27.33 C 106.64,27.24 106.65,27.15 106.65,27.06 C 106.65,26.97 106.66,26.88 106.66,26.79 C 106.67,26.71 106.67,26.62 106.67,26.53 C 106.68,26.44 106.68,26.36 106.68,26.27 C 106.69,26.18 106.69,26.10 106.69,26.02 C 106.70,25.93 106.70,25.85 106.70,25.76 C 106.71,25.68 106.71,25.60 106.71,25.52 C 106.72,25.44 106.72,25.36 106.72,25.28 C 106.72,25.20 106.73,25.12 106.73,25.04 C 106.73,24.96 106.74,24.88 106.74,24.80 C 106.74,24.73 106.75,24.65 106.75,24.58 C 106.75,24.50 106.75,24.42 106.76,24.35 C 106.76,24.28 106.76,24.20 106.77,24.13 C 106.77,24.06 106.77,23.99 106.77,23.91 C 106.78,23.84 106.78,23.77 106.78,23.70 C 106.78,23.63 106.79,23.56 106.79,23.50 C 106.79,23.43 106.79,23.36 106.80,23.29 C 106.80,23.23 106.80,23.16 106.80,23.09 C 106.81,23.03 106.81,22.96 106.81,22.90 C 106.81,22.83 106.82,22.77 106.82,22.71 C 106.82,22.65 106.82,22.58 106.82,22.52 C 106.83,22.46 106.83,22.40 106.83,22.34 C 106.83,22.28 106.84,22.22 106.84,22.16 C 106.84,22.10 106.84,22.05 106.84,21.99 C 106.85,21.93 106.85,21.88 106.85,21.82 C 106.85,21.77 106.85,21.71 106.86,21.66 C 106.86,21.60 106.86,21.55 106.86,21.49 C 106.86,21.44 106.87,21.39 106.87,21.34 C 106.87,21.29 106.87,21.23 106.87,21.18 C 106.87,21.13 106.88,21.08 106.88,21.04 C 106.88,20.99 106.88,20.94 106.88,20.89 C 106.88,20.84 106.89,20.80 106.89,20.75 C 106.89,20.70 106.89,20.66 106.89,20.61 C 106.89,20.57 106.90,20.52 106.90,20.48 C 106.90,20.43 106.90,20.39 106.90,20.35 C 106.90,20.31 106.90,20.26 106.91,20.22 C 106.91,20.18 106.91,20.14 106.91,20.10 C 106.91,20.06 106.91,20.02 106.91,19.98 C 106.92,19.94 106.92,19.90 106.92,19.87 C 106.92,19.83 106.92,19.79 106.92,19.76 C 106.92,19.72 106.92,19.68 106.93,19.65 C 106.93,19.61 106.93,19.58 106.93,19.54 C 106.93,19.51 106.93,19.48 106.93,19.44 C 106.93,19.41 106.93,19.38 106.94,19.34 C 106.94,19.31 106.94,19.28 106.94,19.25 C 106.94,19.22 106.94,19.19 106.94,19.16 C 106.94,19.13 106.94,19.10 106.95,19.07 C 106.95,19.04 106.95,19.01 106.95,18.99 C 106.95,18.96 106.95,18.93 106.95,18.90 C 106.95,18.88 106.95,18.85 106.95,18.82 C 106.95,18.80 106.96,18.77 106.96,18.75 C 106.96,18.72 106.96,18.70 106.96,18.67 C 106.96,18.65 106.96,18.63 106.96,18.60 C 106.96,18.58 106.96,18.56 106.96,18.54 C 106.96,18.51 106.96,18.49 106.97,18.47 C 106.97,18.45 106.97,18.43 106.97,18.41 C 106.97,18.39 106.97,18.37 106.97,18.35 C 106.97,18.33 106.97,18.31 106.97,18.29 C 106.97,18.27 106.97,18.26 106.97,18.24 C 106.97,18.22 106.97,18.20 106.97,18.19 C 106.98,18.17 106.98,18.15 106.98,18.14 C 106.98,18.12 106.98,18.10 106.98,18.09 C 106.98,18.07 106.98,18.06 106.98,18.04 C 106.98,18.03 106.98,18.01 106.98,18.00 C 106.98,17.99 106.98,17.97 106.98,17.96 C 106.98,17.95 106.98,17.93 106.98,17.92 C 106.98,17.91 106.98,17.90 106.98,17.88 C 106.98,17.87 106.99,17.86 106.99,17.85 C 106.99,17.84 106.99,17.83 106.99,17.82 C 106.99,17.80 106.99,17.79 106.99,17.78 C 106.99,17.77 106.99,17.76 106.99,17.75 C 106.99,17.74 106.99,17.74 106.99,17.73 C 106.99,17.72 106.99,17.71 106.99,17.70 C 106.99,17.69 106.99,17.68 106.99,17.68 C 106.99,17.67 106.99,17.66 106.99,17.65 C 106.99,17.64 106.99,17.64 106.99,17.63 C 106.99,17.62 106.99,17.62 106.99,17.61 C 106.99,17.60 106.99,17.60 106.99,17.59 C 106.99,17.58 106.99,17.58 106.99,17.57 C 106.99,17.57 106.99,17.56 107.00,17.56 C 107.00,17.55 107.00,17.55 107.00,17.54 C 107.00,17.54 107.00,17.53 107.00,17.53 C 107.00,17.52 107.00,17.52 107.00,17.51 C 107.00,17.51 107.00,17.51 107.00,17.50 C 107.00,17.50 107.00,17.50 107.00,17.49 C 107.00,17.49 107.00,17.48 107.00,17.48 C 107.00,17.48 107.00,17.48 107.00,17.47 C 107.00,17.47 107.00,17.47 107.00,17.46 C 107.00,17.46 107.00,17.46 107.00,17.46 C 107.00,17.45 107.00,17.45 107.00,17.45 C 107.00,17.45 107.00,17.45 107.00,17.44 C 107.00,17.44 107.00,17.44 107.00,17.44 C 107.00,17.44 107.00,17.43 107.00,17.43 C 107.00,17.43 107.00,17.43 107.00,17.43 C 107.00,17.43 107.00,17.43 107.00,17.43 C 107.00,17.42 107.00,17.42 107.00,17.42 C 107.00,17.42 107.00,17.42 107.00,17.42 C 107.00,17.42 107.00,17.42 107.00,17.42 C 107.00,17.42 107.00,17.42 107.00,17.41 C 107.00,17.41 107.00,17.41 107.00,17.41 C 107.00,17.41 107.00,17.41 107.00,17.41 C 107.00,17.41 107.00,17.41 107.00,17.41 C 107.00,17.41 107.00,17.41 107.00,17.41 C 107.00,17.41 107.00,17.41 107.00,17.41 C 107.00,17.41 107.00,17.41 107.00,17.41 C 107.00,17.41 107.00,17.41 107.00,17.41 C 107.00,17.41 107.00,17.41 107.00,17.41 C 107.00,17.41 107.00,17.41 107.00,17.41 C 107.00,17.41 107.00,17.41 107.00,17.41 C 107.00,17.41 107.00,17.41 107.00,17.41 C 107.00,17.41 107.00,17.41 107.00,17.41 C 107.00,17.41 107.00,17.41 107.00,17.41 C 107.00,17.41 107.00,17.41 107.00,17.41" />
    <path d="M 113.00,202.59 C 113.00,202.59 113.00,202.59 113.00,202.59 C 113.00,202.59 113.00,202.59 113.00,202.59 C 113.00,202.59 113.00,202.59 113.00,202.59 C 113.00,202.59 113.00,202.59 113.00,202.59 C 113.00,202.59 113.00,202.59 113.00,202.59 C 113.00,202.59 113.00,202.59 113.00,202.59 C 113.00,202.59 113.00,202.59 113.00,202.59 C 113.00,202.59 113.00,202.59 113.00,202.59 C 113.00,202.59 113.00,202.59 113.00,202.59 C 113.00,202.59 113.00,202.59 113.00,202.59 C 113.00,202.59 113.00,202.59 113.00,202.59 C 113.00,202.59 113.00,202.59 113.00,202.59 C 113.00,202.59 113.00,202.59 113.00,202.59 C 113.00,202.59 113.00,202.59 113.00,202.59 C 113.00,202.58 113.00,202.58 113.00,202.58 C 113.00,202.58 113.00,202.58 113.00,202.58 C 113.00,202.58 113.00,202.58 113.00,202.58 C 113.00,202.58 113.00,202.58 113.00,202.57 C 113.00,202.57 113.00,202.57 113.00,202.57 C 113.00,202.57 113.00,202.57 113.00,202.57 C 113.00,202.57 113.00,202.56 113.00,202.56 C 113.00,202.56 113.00,202.56 113.00,202.56 C 113.00,202.55 113.00,202.55 113.00,202.55 C 113.00,202.55 113.00,202.55 113.00,202.54 C 113.00,202.54 113.00,202.54 113.00,202.54 C 113.00,202.53 113.00,202.53 113.00,202.53 C 113.00,202.52 113.00,202.52 113.00,202.52 C 113.00,202.52 113.00,202.51 113.00,202.51 C 113.00,202.50 113.00,202.50 113.00,202.50 C 113.00,202.49 113.00,202.49 113.00,202.49 C 113.00,202.48 113.00,202.48 113.00,202.47 C 113.00,202.47 113.00,202.46 113.00,202.46 C 113.00,202.45 113.00,202.45 113.00,202.44 C 113.01,202.44 113.01,202.43 113.01,202.43 C 113.01,202.42 113.01,202.42 113.01,202.41 C 113.01,202.40 113.01,202.40 113.01,202.39 C 113.01,202.38 113.01,202.38 113.01,202.37 C 113.01,202.36 113.01,202.36 113.01,202.35 C 113.01,202.34 113.01,202.33 113.01,202.32 C 113.01,202.32 113.01,202.31 113.01,202.30 C 113.01,202.29 113.01,202.28 113.01,202.27 C 113.01,202.26 113.01,202.26 113.01,202.25 C 113.01,202.24 113.01,202.23 113.01,202.22 C 113.01,202.21 113.01,202.20 113.01,202.18 C 113.01,202.17 113.01,202.16 113.01,202.15 C 113.01,202.14 113.02,202.13 113.02,202.12 C 113.02,202.10 113.02,202.09 113.02,202.08 C 113.02,202.07 113.02,202.05 113.02,202.04 C 113.02,202.03 113.02,202.01 113.02,202.00 C 113.02,201.99 113.02,201.97 113.02,201.96 C 113.02,201.94 113.02,201.93 113.02,201.91 C 113.02,201.90 113.02,201.88 113.02,201.86 C 113.02,201.85 113.02,201.83 113.03,201.81 C 113.03,201.80 113.03,201.78 113.03,201.76 C 113.03,201.74 113.03,201.73 113.03,201.71 C 113.03,201.69 113.03,201.67 113.03,201.65 C 113.03,201.63 113.03,201.61 113.03,201.59 C 113.03,201.57 113.03,201.55 113.03,201.53 C 113.04,201.51 113.04,201.49 113.04,201.46 C 113.04,201.44 113.04,201.42 113.04,201.40 C 113.04,201.37 113.04,201.35 113.04,201.33 C 113.04,201.30 113.04,201.28 113.04,201.25 C 113.04,201.23 113.05,201.20 113.05,201.18 C 113.05,201.15 113.05,201.12 113.05,201.10 C 113.05,201.07 113.05,201.04 113.05,201.01 C 113.05,200.99 113.05,200.96 113.05,200.93 C 113.06,200.90 113.06,200.87 113.06,200.84 C 113.06,200.81 113.06,200.78 113.06,200.75 C 113.06,200.72 113.06,200.69 113.06,200.66 C 113.07,200.62 113.07,200.59 113.07,200.56 C 113.07,200.52 113.07,200.49 113.07,200.46 C 113.07,200.42 113.07,200.39 113.07,200.35 C 113.08,200.32 113.08,200.28 113.08,200.24 C 113.08,200.21 113.08,200.17 113.08,200.13 C 113.08,200.10 113.08,200.06 113.09,200.02 C 113.09,199.98 113.09,199.94 113.09,199.90 C 113.09,199.86 113.09,199.82 113.09,199.78 C 113.10,199.74 113.10,199.69 113.10,199.65 C 113.10,199.61 113.10,199.57 113.10,199.52 C 113.10,199.48 113.11,199.43 113.11,199.39 C 113.11,199.34 113.11,199.30 113.11,199.25 C 113.11,199.20 113.12,199.16 113.12,199.11 C 113.12,199.06 113.12,199.01 113.12,198.96 C 113.12,198.92 113.13,198.87 113.13,198.82 C 113.13,198.77 113.13,198.71 113.13,198.66 C 113.13,198.61 113.14,198.56 113.14,198.51 C 113.14,198.45 113.14,198.40 113.14,198.34 C 113.15,198.29 113.15,198.23 113.15,198.18 C 113.15,198.12 113.15,198.07 113.16,198.01 C 113.16,197.95 113.16,197.90 113.16,197.84 C 113.16,197.78 113.17,197.72 113.17,197.66 C 113.17,197.60 113.17,197.54 113.18,197.48 C 113.18,197.42 113.18,197.35 113.18,197.29 C 113.18,197.23 113.19,197.17 113.19,197.10 C 113.19,197.04 113.19,196.97 113.20,196.91 C 113.20,196.84 113.20,196.77 113.20,196.71 C 113.21,196.64 113.21,196.57 113.21,196.50 C 113.21,196.44 113.22,196.37 113.22,196.30 C 113.22,196.23 113.22,196.16 113.23,196.09 C 113.23,196.01 113.23,195.94 113.23,195.87 C 113.24,195.80 113.24,195.72 113.24,195.65 C 113.25,195.58 113.25,195.50 113.25,195.42 C 113.25,195.35 113.26,195.27 113.26,195.20 C 113.26,195.12 113.27,195.04 113.27,194.96 C 113.27,194.88 113.28,194.80 113.28,194.72 C 113.28,194.64 113.28,194.56 113.29,194.48 C 113.29,194.40 113.29,194.32 113.30,194.24 C 113.30,194.15 113.30,194.07 113.31,193.98 C 113.31,193.90 113.31,193.82 113.32,193.73 C 113.32,193.64 113.32,193.56 113.33,193.47 C 113.33,193.38 113.33,193.29 113.34,193.21 C 113.34,193.12 113.35,193.03 113.35,192.94 C 113.35,192.85 113.36,192.76 113.36,192.67 C 113.36,192.57 113.37,192.48 113.37,192.39 C 113.38,192.30 113.38,192.20 113.38,192.11 C 113.39,192.01 113.39,191.92 113.39,191.82 C 113.40,191.73 113.40,191.63 113.41,191.53 C 113.41,191.44 113.42,191.34 113.42,191.24 C 113.42,191.14 113.43,191.04 113.43,190.94 C 113.44,190.84 113.44,190.74 113.44,190.64 C 113.45,190.54 113.45,190.44 113.46,190.34 C 113.46,190.23 113.47,190.13 113.47,190.03 C 113.48,189.92 113.48,189.82 113.48,189.71 C 113.49,189.61 113.49,189.50 113.50,189.40 C 113.50,189.29 113.51,189.18 113.51,189.07 C 113.52,188.97 113.52,188.86 113.53,188.75 C 113.53,188.64 113.54,188.53 113.54,188.42 C 113.55,188.31 113.55,188.20 113.56,188.09 C 113.56,187.98 113.57,187.86 113.57,187.75 C 113.58,187.64 113.58,187.53 113.59,187.41 C 113.59,187.30 113.60,187.18 113.60,187.07 C 113.61,186.95 113.62,186.84 113.62,186.72 C 113.63,186.60 113.63,186.49 113.64,186.37 C 113.64,186.25 113.65,186.13 113.65,186.02 C 113.66,185.90 113.67,185.78 113.67,185.66 C 113.68,185.54 113.68,185.42 113.69,185.30 C 113.69,185.18 113.70,185.06 113.71,184.94 C 113.71,184.81 113.72,184.69 113.73,184.57 C 113.73,184.45 113.74,184.32 113.74,184.20 C 113.75,184.08 113.76,183.95 113.76,183.83 C 113.77,183.70 113.78,183.58 113.78,183.45 C 113.79,183.33 113.79,183.20 113.80,183.07 C 113.81,182.95 113.81,182.82 113.82,182.69 C 113.83,182.56 113.83,182.44 113.84,182.31 C 113.85,182.18 113.86,182.05 113.86,181.92 C 113.87,181.79 113.88,181.66 113.88,181.53 C 113.89,181.40 113.90,181.27 113.90,181.14 C 113.91,181.01 113.92,180.88 113.93,180.75 C 113.93,180.62 113.94,180.48 113.95,180.35 C 113.96,180.22 113.96,180.09 113.97,179.95 C 113.98,179.82 113.99,179.69 113.99,179.55 C 114.00,179.42 114.01,179.29 114.02,179.15 C 114.02,179.02 114.03,178.88 114.04,178.75 C 114.05,178.61 114.06,178.48 114.06,178.34 C 114.07,178.21 114.08,178.07 114.09,177.93 C 114.10,177.80 114.11,177.66 114.11,177.53 C 114.12,177.39 114.13,177.25 114.14,177.11 C 114.15,176.98 114.16,176.84 114.16,176.70 C 114.17,176.56 114.18,176.43 114.19,176.29 C 114.20,176.15 114.21,176.01 114.22,175.87 C 114.23,175.73 114.23,175.60 114.24,175.46 C 114.25,175.32 114.26,175.18 114.27,175.04 C 114.28,174.90 114.29,174.76 114.30,174.62 C 114.31,174.48 114.32,174.34 114.33,174.20 C 114.34,174.06 114.35,173.92 114.36,173.78 C 114.36,173.64 114.37,173.50 114.38,173.36 C 114.39,173.22 114.40,173.08 114.41,172.94 C 114.42,172.80 114.43,172.65 114.44,172.51 C 114.45,172.37 114.46,172.23 114.47,172.09 C 114.48,171.95 114.49,171.81 114.50,171.67 C 114.51,171.52 114.53,171.38 114.54,171.24 C 114.55,171.10 114.56,170.96 114.57,170.82 C 114.58,170.68 114.59,170.53 114.60,170.39 C 114.61,170.25 114.62,170.11 114.63,169.97 C 114.64,169.83 114.65,169.68 114.67,169.54 C 114.68,169.40 114.69,169.26 114.70,169.12 C 114.71,168.98 114.72,168.83 114.73,168.69 C 114.74,168.55 114.76,168.41 114.77,168.27 C 114.78,168.13 114.79,167.98 114.80,167.84 C 114.81,167.70 114.83,167.56 114.84,167.42 C 114.85,167.28 114.86,167.14 114.87,166.99 C 114.89,166.85 114.90,166.71 114.91,166.57 C 114.92,166.43 114.93,166.29 114.95,166.15 C 114.96,166.01 114.97,165.87 114.98,165.73 C 115.00,165.59 115.01,165.44 115.02,165.30 C 115.04,165.16 115.05,165.02 115.06,164.88 C 115.07,164.74 115.09,164.60 115.10,164.46 C 115.11,164.32 115.13,164.18 115.14,164.04 C 115.15,163.90 115.17,163.76 115.18,163.63 C 115.19,163.49 115.21,163.35 115.22,163.21 C 115.23,163.07 115.25,162.93 115.26,162.79 C 115.28,162.65 115.29,162.51 115.30,162.38 C 115.32,162.24 115.33,162.10 115.35,161.96 C 115.36,161.82 115.37,161.69 115.39,161.55 C 115.40,161.41 115.42,161.27 115.43,161.14 C 115.45,161.00 115.46,160.86 115.48,160.73 C 115.49,160.59 115.51,160.45 115.52,160.32 C 115.54,160.18 115.55,160.05 115.57,159.91 C 115.58,159.78 115.60,159.64 115.61,159.51 C 115.63,159.37 115.64,159.24 115.66,159.10 C 115.67,158.97 115.69,158.83 115.70,158.70 C 115.72,158.56 115.74,158.43 115.75,158.30 C 115.77,158.16 115.78,158.03 115.80,157.90 C 115.82,157.76 115.83,157.63 115.85,157.50 C 115.86,157.37 115.88,157.24 115.90,157.10 C 115.91,156.97 115.93,156.84 115.95,156.71 C 115.96,156.58 115.98,156.45 116.00,156.32 C 116.01,156.19 116.03,156.06 116.05,155.93 C 116.07,155.80 116.08,155.67 116.10,155.54 C 116.12,155.41 116.13,155.28 116.15,155.15 C 116.17,155.02 116.19,154.90 116.20,154.77 C 116.22,154.64 116.24,154.51 116.26,154.38 C 116.28,154.26 116.29,154.13 116.31,154.00 C 116.33,153.88 116.35,153.75 116.37,153.63 C 116.39,153.50 116.40,153.37 116.42,153.25 C 116.44,153.12 116.46,153.00 116.48,152.88 C 116.50,152.75 116.52,152.63 116.54,152.50 C 116.55,152.38 116.57,152.26 116.59,152.13 C 116.61,152.01 116.63,151.89 116.65,151.77 C 116.67,151.64 116.69,151.52 116.71,151.40 C 116.73,151.28 116.75,151.16 116.77,151.04 C 116.79,150.92 116.81,150.80 116.83,150.68 C 116.85,150.56 116.87,150.44 116.89,150.32 C 116.91,150.20 116.93,150.08 116.95,149.96 C 116.97,149.84 116.99,149.73 117.01,149.61 C 117.03,149.49 117.05,149.37 117.08,149.26 C 117.10,149.14 117.12,149.02 117.14,148.91 C 117.16,148.79 117.18,148.68 117.20,148.56 C 117.22,148.45 117.25,148.33 117.27,148.22 C 117.29,148.10 117.31,147.99 117.33,147.88 C 117.36,147.76 117.38,147.65 117.40,147.54 C 117.42,147.42 117.44,147.31 117.47,147.20 C 117.49,147.09 117.51,146.98 117.53,146.87 C 117.56,146.75 117.58,146.64 117.60,146.53 C 117.63,146.42 117.65,146.31 117.67,146.20 C 117.70,146.09 117.72,145.98 117.74,145.88 C 117.77,145.77 117.79,145.66 117.81,145.55 C 117.84,145.44 117.86,145.34 117.88,145.23 C 117.91,145.12 117.93,145.02 117.96,144.91 C 117.98,144.80 118.01,144.70 118.03,144.59 C 118.05,144.49 118.08,144.38 118.10,144.28 C 118.13,144.17 118.15,144.07 118.18,143.97 C 118.20,143.86 118.23,143.76 118.25,143.66 C 118.28,143.55 118.30,143.45 118.33,143.35 C 118.36,143.25 118.38,143.14 118.41,143.04 C 118.43,142.94 118.46,142.84 118.48,142.74 C 118.51,142.64 118.54,142.54 118.56,142.44 C 118.59,142.34 118.62,142.24 118.64,142.14 C 118.67,142.05 118.69,141.95 118.72,141.85 C 118.75,141.75 118.78,141.65 118.80,141.56 C 118.83,141.46 118.86,141.36 118.88,141.27 C 118.91,141.17 118.94,141.07 118.97,140.98 C 118.99,140.88 119.02,140.79 119.05,140.69 C 119.08,140.60 119.11,140.50 119.13,140.41 C 119.16,140.32 119.19,140.22 119.22,140.13 C 119.25,140.04 119.28,139.95 119.30,139.85 C 119.33,139.76 119.36,139.67 119.39,139.58 C 119.42,139.49 119.45,139.40 119.48,139.30 C 119.51,139.21 119.54,139.12 119.57,139.03 C 119.60,138.94 119.63,138.86 119.66,138.77 C 119.69,138.68 119.72,138.59 119.75,138.50 C 119.78,138.41 119.81,138.32 119.84,138.24 C 119.87,138.15 119.90,138.06 119.93,137.98 C 119.96,137.89 119.99,137.80 120.02,137.72 C 120.05,137.63 120.08,137.55 120.12,137.46 C 120.15,137.38 120.18,137.29 120.21,137.21 C 120.24,137.12 120.27,137.04 120.30,136.96 C 120.34,136.87 120.37,136.79 120.40,136.71 C 120.43,136.62 120.47,136.54 120.50,136.46 C 120.53,136.38 120.56,136.30 120.60,136.21 C 120.63,136.13 120.66,136.05 120.70,135.97 C 120.73,135.89 120.76,135.81 120.80,135.73 C 120.83,135.65 120.86,135.57 120.90,135.49 C 120.93,135.41 120.96,135.34 121.00,135.26 C 121.03,135.18 121.07,135.10 121.10,135.02 C 121.13,134.95 121.17,134.87 121.20,134.79 C 121.24,134.72 121.27,134.64 121.31,134.56 C 121.34,134.49 121.38,134.41 121.41,134.34 C 121.45,134.26 121.48,134.19 121.52,134.11 C 121.56,134.04 121.59,133.96 121.63,133.89 C 121.66,133.82 121.70,133.74 121.74,133.67 C 121.77,133.60 121.81,133.52 121.85,133.45 C 121.88,133.38 121.92,133.31 121.96,133.23 C 121.99,133.16 122.03,133.09 122.07,133.02 C 122.10,132.95 122.14,132.88 122.18,132.81 C 122.22,132.74 122.25,132.67 122.29,132.60 C 122.33,132.53 122.37,132.46 122.41,132.39 C 122.44,132.32 122.48,132.25 122.52,132.18 C 122.56,132.12 122.60,132.05 122.64,131.98 C 122.68,131.91 122.72,131.85 122.75,131.78 C 122.79,131.71 122.83,131.64 122.87,131.58 C 122.91,131.51 122.95,131.45 122.99,131.38 C 123.03,131.31 123.07,131.25 123.11,131.18 C 123.15,131.12 123.19,131.05 123.23,130.99 C 123.27,130.93 123.32,130.86 123.36,130.80 C 123.40,130.73 123.44,130.67 123.48,130.61 C 123.52,130.54 123.56,130.48 123.60,130.42 C 123.65,130.36 123.69,130.29 123.73,130.23 C 123.77,130.17 123.81,130.11 123.86,130.05 C 123.90,129.99 123.94,129.92 123.98,129.86 C 124.03,129.80 124.07,129.74 124.11,129.68 C 124.16,129.62 124.20,129.56 124.24,129.50 C 124.29,129.44 124.33,129.39 124.37,129.33 C 124.42,129.27 124.46,129.21 124.51,129.15 C 124.55,129.09 124.59,129.03 124.64,128.98 C 124.68,128.92 124.73,128.86 124.77,128.80 C 124.82,128.75 124.86,128.69 124.91,128.63 C 124.95,128.58 125.00,128.52 125.04,128.46 C 125.09,128.41 125.14,128.35 125.18,128.30 C 125.23,128.24 125.27,128.19 125.32,128.13 C 125.37,128.08 125.41,128.02 125.46,127.97 C 125.51,127.91 125.55,127.86 125.60,127.81 C 125.65,127.75 125.69,127.70 125.74,127.65 C 125.79,127.59 125.84,127.54 125.88,127.49 C 125.93,127.43 125.98,127.38 126.03,127.33 C 126.08,127.28 126.13,127.23 126.17,127.17 C 126.22,127.12 126.27,127.07 126.32,127.02 C 126.37,126.97 126.42,126.92 126.47,126.87 C 126.52,126.82 126.57,126.77 126.62,126.72 C 126.67,126.67 126.72,126.62 126.77,126.57 C 126.82,126.52 126.87,126.47 126.92,126.42 C 126.97,126.37 127.02,126.32 127.07,126.27 C 127.12,126.22 127.17,126.17 127.22,126.13 C 127.28,126.08 127.33,126.03 127.38,125.98 C 127.43,125.94 127.48,125.89 127.54,125.84 C 127.59,125.79 127.64,125.75 127.69,125.70 C 127.74,125.65 127.80,125.61 127.85,125.56 C 127.90,125.51 127.96,125.47 128.01,125.42 C 128.06,125.38 128.12,125.33 128.17,125.29 C 128.22,125.24 128.28,125.20 128.33,125.15 C 128.39,125.11 128.44,125.06 128.50,125.02 C 128.55,124.97 128.61,124.93 128.66,124.89 C 128.72,124.84 128.77,124.80 128.83,124.75 C 128.88,124.71 128.94,124.67 128.99,124.62 C 129.05,124.58 129.11,124.54 129.16,124.50 C 129.22,124.45 129.27,124.41 129.33,124.37 C 129.39,124.33 129.44,124.29 129.50,124.24 C 129.56,124.20 129.62,124.16 129.67,124.12 C 129.73,124.08 129.79,124.04 129.85,124.00 C 129.91,123.95 129.96,123.91 130.02,123.87 C 130.08,123.83 130.14,123.79 130.20,123.75 C 130.26,123.71 130.32,123.67 130.37,123.63 C 130.43,123.59 130.49,123.55 130.55,123.51 C 130.61,123.48 130.67,123.44 130.73,123.40 C 130.79,123.36 130.85,123.32 130.91,123.28 C 130.97,123.24 131.04,123.21 131.10,123.17 C 131.16,123.13 131.22,123.09 131.28,123.05 C 131.34,123.02 131.40,122.98 131.47,122.94 C 131.53,122.90 131.59,122.87 131.65,122.83 C 131.71,122.79 131.78,122.76 131.84,122.72 C 131.90,122.68 131.97,122.65 132.03,122.61 C 132.09,122.57 132.16,122.54 132.22,122.50 C 132.28,122.47 132.35,122.43 132.41,122.39 C 132.47,122.36 132.54,122.32 132.60,122.29 C 132.67,122.25 132.73,122.22 132.80,122.18 C 132.86,122.15 132.93,122.11 132.99,122.08 C 133.06,122.05 133.13,122.01 133.19,121.98 C 133.26,121.94 133.32,121.91 133.39,121.88 C 133.46,121.84 133.52,121.81 133.59,121.78 C 133.66,121.74 133.72,121.71 133.79,121.68 C 133.86,121.64 133.93,121.61 133.99,121.58 C 134.06,121.54 134.13,121.51 134.20,121.48 C 134.27,121.45 134.34,121.41 134.40,121.38 C 134.47,121.35 134.54,121.32 134.61,121.29 C 134.68,121.25 134.75,121.22 134.82,121.19 C 134.89,121.16 134.96,121.13 135.03,121.10 C 135.10,121.07 135.17,121.04 135.24,121.00 C 135.31,120.97 135.38,120.94 135.45,120.91 C 135.53,120.88 135.60,120.85 135.67,120.82 C 135.74,120.79 135.81,120.76 135.88,120.73 C 135.96,120.70 136.03,120.67 136.10,120.64 C 136.17,120.61 136.25,120.58 136.32,120.55 C 136.39,120.52 136.47,120.50 136.54,120.47 C 136.61,120.44 136.69,120.41 136.76,120.38 C 136.84,120.35 136.91,120.32 136.99,120.29 C 137.06,120.27 137.13,120.24 137.21,120.21 C 137.28,120.18 137.36,120.15 137.44,120.12 C 137.51,120.10 137.59,120.07 137.66,120.04 C 137.74,120.01 137.82,119.99 137.89,119.96 C 137.97,119.93 138.05,119.90 138.12,119.88 C 138.20,119.85 138.28,119.82 138.36,119.80 C 138.43,119.77 138.51,119.74 138.59,119.72 C 138.67,119.69 138.75,119.66 138.82,119.64 C 138.90,119.61 138.98,119.58 139.06,119.56 C 139.14,119.53 139.22,119.51 139.30,119.48 C 139.38,119.45 139.46,119.43 139.54,119.40 C 139.62,119.38 139.70,119.35 139.78,119.33 C 139.86,119.30 139.94,119.28 140.02,119.25 C 140.10,119.23 140.19,119.20 140.27,119.18 C 140.35,119.15 140.43,119.13 140.51,119.10 C 140.60,119.08 140.68,119.05 140.76,119.03 C 140.84,119.01 140.93,118.98 141.01,118.96 C 141.09,118.93 141.18,118.91 141.26,118.89 C 141.35,118.86 141.43,118.84 141.51,118.81 C 141.60,118.79 141.68,118.77 141.77,118.74 C 141.85,118.72 141.94,118.70 142.02,118.67 C 142.11,118.65 142.20,118.63 142.28,118.60 C 142.37,118.58 142.45,118.56 142.54,118.54 C 142.63,118.51 142.71,118.49 142.80,118.47 C 142.89,118.45 142.98,118.42 143.06,118.40 C 143.15,118.38 143.24,118.36 143.33,118.33 C 143.42,118.31 143.50,118.29 143.59,118.27 C 143.68,118.25 143.77,118.23 143.86,118.20 C 143.95,118.18 144.04,118.16 144.13,118.14 C 144.22,118.12 144.31,118.10 144.40,118.08 C 144.49,118.05 144.58,118.03 144.67,118.01 C 144.76,117.99 144.85,117.97 144.95,117.95 C 145.04,117.93 145.13,117.91 145.22,117.89 C 145.31,117.87 145.41,117.85 145.50,117.83 C 145.59,117.80 145.68,117.78 145.78,117.76 C 145.87,117.74 145.96,117.72 146.06,117.70 C 146.15,117.68 146.25,117.66 146.34,117.64 C 146.43,117.62 146.53,117.60 146.62,117.58 C 146.72,117.56 146.81,117.55 146.91,117.53 C 147.01,117.51 147.10,117.49 147.20,117.47 C 147.29,117.45 147.39,117.43 147.49,117.41 C 147.58,117.39 147.68,117.37 147.78,117.35 C 147.88,117.33 147.97,117.32 148.07,117.30 C 148.17,117.28 148.27,117.26 148.37,117.24 C 148.46,117.22 148.56,117.20 148.66,117.18 C 148.76,117.17 148.86,117.15 148.96,117.13 C 149.06,117.11 149.16,117.09 149.26,117.08 C 149.36,117.06 149.46,117.04 149.56,117.02 C 149.66,117.00 149.76,116.99 149.86,116.97 C 149.97,116.95 150.07,116.93 150.17,116.92 C 150.27,116.90 150.37,116.88 150.48,116.86 C 150.58,116.85 150.68,116.83 150.79,116.81 C 150.89,116.79 150.99,116.78 151.10,116.76 C 151.20,116.74 151.30,116.73 151.41,116.71 C 151.51,116.69 151.62,116.67 151.72,116.66 C 151.83,116.64 151.93,116.62 152.04,116.61 C 152.14,116.59 152.25,116.57 152.36,116.56 C 152.46,116.54 152.57,116.53 152.68,116.51 C 152.78,116.49 152.89,116.48 153.00,116.46 C 153.11,116.44 153.21,116.43 153.32,116.41 C 153.43,116.40 153.54,116.38 153.65,116.36 C 153.76,116.35 153.87,116.33 153.97,116.32 C 154.08,116.30 154.19,116.29 154.30,116.27 C 154.41,116.25 154.52,116.24 154.63,116.22 C 154.75,116.21 154.86,116.19 154.97,116.18 C 155.08,116.16 155.19,116.15 155.30,116.13 C 155.41,116.12 155.53,116.10 155.64,116.09 C 155.75,116.07 155.86,116.06 155.98,116.04 C 156.09,116.03 156.20,116.01 156.32,116.00 C 156.43,115.98 156.55,115.97 156.66,115.95 C 156.78,115.94 156.89,115.92 157.01,115.91 C 157.12,115.90 157.24,115.88 157.35,115.87 C 157.47,115.85 157.58,115.84 157.70,115.82 C 157.82,115.81 157.93,115.80 158.05,115.78 C 158.17,115.77 158.28,115.75 158.40,115.74 C 158.52,115.73 158.64,115.71 158.76,115.70 C 158.87,115.68 158.99,115.67 159.11,115.66 C 159.23,115.64 159.35,115.63 159.47,115.62 C 159.59,115.60 159.71,115.59 159.83,115.57 C 159.95,115.56 160.07,115.55 160.19,115.53 C 160.31,115.52 160.43,115.51 160.56,115.49 C 160.68,115.48 160.80,115.47 160.92,115.45 C 161.04,115.44 161.17,115.43 161.29,115.42 C 161.41,115.40 161.54,115.39 161.66,115.38 C 161.78,115.36 161.91,115.35 162.03,115.34 C 162.16,115.33 162.28,115.31 162.41,115.30 C 162.53,115.29 162.66,115.28 162.78,115.26 C 162.91,115.25 163.03,115.24 163.16,115.23 C 163.29,115.21 163.41,115.20 163.54,115.19 C 163.67,115.18 163.80,115.16 163.92,115.15 C 164.05,115.14 164.18,115.13 164.31,115.11 C 164.44,115.10 164.56,115.09 164.69,115.08 C 164.82,115.07 164.95,115.05 165.08,115.04 C 165.21,115.03 165.34,115.02 165.47,115.01 C 165.60,115.00 165.73,114.98 165.87,114.97 C 166.00,114.96 166.13,114.95 166.26,114.94 C 166.39,114.93 166.52,114.91 166.66,114.90 C 166.79,114.89 166.92,114.88 167.06,114.87 C 167.19,114.86 167.32,114.85 167.46,114.83 C 167.59,114.82 167.73,114.81 167.86,114.80 C 168.00,114.79 168.13,114.78 168.27,114.77 C 168.40,114.76 168.54,114.75 168.67,114.73 C 168.81,114.72 168.95,114.71 169.08,114.70 C 169.22,114.69 169.36,114.68 169.49,114.67 C 169.63,114.66 169.77,114.65 169.91,114.64 C 170.05,114.63 170.19,114.62 170.32,114.60 C 170.46,114.59 170.60,114.58 170.74,114.57 C 170.88,114.56 171.02,114.55 171.16,114.54 C 171.30,114.53 171.44,114.52 171.59,114.51 C 171.73,114.50 171.87,114.49 172.01,114.48 C 172.15,114.47 172.29,114.46 172.44,114.45 C 172.58,114.44 172.72,114.43 172.87,114.42 C 173.01,114.41 173.15,114.40 173.30,114.39 C 173.44,114.38 173.59,114.37 173.73,114.36 C 173.88,114.35 174.02,114.34 174.17,114.33 C 174.31,114.32 174.46,114.31 174.60,114.30 C 174.75,114.29 174.90,114.28 175.05,114.27 C 175.19,114.26 175.34,114.25 175.49,114.24 C 175.64,114.23 175.78,114.22 175.93,114.21 C 176.08,114.20 176.23,114.19 176.38,114.18 C 176.53,114.18 176.68,114.17 176.83,114.16 C 176.98,114.15 177.13,114.14 177.28,114.13 C 177.43,114.12 177.58,114.11 177.73,114.10 C 177.89,114.09 178.04,114.08 178.19,114.07 C 178.34,114.06 178.50,114.06 178.65,114.05 C 178.80,114.04 178.96,114.03 179.11,114.02 C 179.26,114.01 179.42,114.00 179.57,113.99 C 179.73,113.98 179.88,113.97 180.04,113.97 C 180.19,113.96 180.35,113.95 180.51,113.94 C 180.66,113.93 180.82,113.92 180.98,113.91 C 181.13,113.91 181.29,113.90 181.45,113.89 C 181.61,113.88 181.76,113.87 181.92,113.86 C 182.08,113.85 182.24,113.85 182.40,113.84 C 182.56,113.83 182.72,113.82 182.88,113.81 C 183.04,113.80 183.20,113.79 183.36,113.79 C 183.52,113.78 183.68,113.77 183.84,113.76 C 184.01,113.75 184.17,113.75 184.33,113.74 C 184.49,113.73 184.66,113.72 184.82,113.71 C 184.98,113.70 185.15,113.70 185.31,113.69 C 185.47,113.68 185.64,113.67 185.80,113.66 C 185.97,113.66 186.13,113.65 186.30,113.64 C 186.47,113.63 186.63,113.62 186.80,113.62 C 186.96,113.61 187.13,113.60 187.30,113.59 C 187.47,113.59 187.63,113.58 187.80,113.57 C 187.97,113.56 188.14,113.55 188.31,113.55 C 188.48,113.54 188.65,113.53 188.82,113.52 C 188.99,113.52 189.16,113.51 189.33,113.50 C 189.50,113.49 189.67,113.49 189.84,113.48 C 190.01,113.47 190.18,113.46 190.36,113.46 C 190.53,113.45 190.70,113.44 190.87,113.43 C 191.05,113.43 191.22,113.42 191.39,113.41 C 191.57,113.41 191.74,113.40 191.92,113.39 C 192.09,113.38 192.27,113.38 192.44,113.37 C 192.62,113.36 192.79,113.36 192.97,113.35 C 193.15,113.34 193.32,113.33 193.50,113.33 C 193.68,113.32 193.85,113.31 194.03,113.31 C 194.21,113.30 194.39,113.29 194.57,113.28 C 194.75,113.28 194.93,113.27 195.11,113.26 C 195.29,113.26 195.47,113.25 195.65,113.24 C 195.83,113.24 196.01,113.23 196.19,113.22 C 196.37,113.22 196.55,113.21 196.74,113.20 C 196.92,113.20 197.10,113.19 197.28,113.18 C 197.47,113.18 197.65,113.17 197.83,113.16 C 198.02,113.16 198.20,113.15 198.39,113.14 C 198.57,113.14 198.76,113.13 198.94,113.12 C 199.13,113.12 199.31,113.11 199.50,113.10 C 199.69,113.10 199.87,113.09 200.06,113.08 C 200.25,113.08 200.44,113.07 200.63,113.07 C 200.81,113.06 201.00,113.05 201.19,113.05 C 201.38,113.04 201.57,113.03 201.76,113.03 C 201.95,113.02 202.14,113.01 202.33,113.01 C 202.52,113.00 202.71,113.00 202.91,112.99 C 203.10,112.98 203.29,112.98 203.48,112.97 C 203.67,112.97 203.87,112.96 204.06,112.95 C 204.25,112.95 204.45,112.94 204.64,112.94 C 204.84,112.93 205.03,112.92 205.23,112.92 C 205.42,112.91 205.62,112.91 205.81,112.90 C 206.01,112.89 206.21,112.89 206.40,112.88 C 206.60,112.88 206.80,112.87 207.00,112.86 C 207.20,112.86 207.39,112.85 207.59,112.85 C 207.79,112.84 207.99,112.83 208.19,112.83 C 208.39,112.82 208.59,112.82 208.79,112.81 C 208.99,112.81 209.19,112.80 209.39,112.79 C 209.60,112.79 209.90,112.78 210.00,112.78" />
  </g>

  <!-- точка (-1;1) -->
  <circle cx="93.33" cy="93.33" r="2.2" fill="#2d70b3" />

  <!-- подпись f(x) в (1;-3) -->
  <text x="124.67" y="160.00"
        font-family="Georgia, 'Times New Roman', serif"
        font-style="italic"
        font-size="13"
        fill="#2d70b3">
    f(x)
  </text>

</svg>
