<svg xmlns="http://www.w3.org/2000/svg" width="220" height="220" viewBox="0 0 220 220">

  <rect x="0" y="0" width="220" height="220" fill="white" />

  <defs>
    <!-- стрелка для осей -->
    <marker id="axis-arrow"
            viewBox="0 0 15 8"
            refX="13" refY="4"
            markerWidth="12" markerHeight="6.4"
            orient="auto"
            markerUnits="userSpaceOnUse">
      <path d="M 3 0 L 15 4 L 3 8 L 7 4 Z"
            fill="black" />
    </marker>
  </defs>

  <!-- тонкая клетчатая сетка: по x и y от -5 до 5 (10×10), без окаймления -->
  <g stroke="#d1d5db" stroke-width="0.5" shape-rendering="crispEdges">
    <!-- вертикальные линии: только внутренние -->
    <line x1="30"  y1="10" x2="30"  y2="210" />
    <line x1="50"  y1="10" x2="50"  y2="210" />
    <line x1="70"  y1="10" x2="70"  y2="210" />
    <line x1="90"  y1="10" x2="90"  y2="210" />
    <line x1="110" y1="10" x2="110" y2="210" />
    <line x1="130" y1="10" x2="130" y2="210" />
    <line x1="150" y1="10" x2="150" y2="210" />
    <line x1="170" y1="10" x2="170" y2="210" />
    <line x1="190" y1="10" x2="190" y2="210" />

    <!-- горизонтальные линии: только внутренние -->
    <line x1="10" y1="30"  x2="210" y2="30"  />
    <line x1="10" y1="50"  x2="210" y2="50"  />
    <line x1="10" y1="70"  x2="210" y2="70"  />
    <line x1="10" y1="90"  x2="210" y2="90"  />
    <line x1="10" y1="110" x2="210" y2="110" />
    <line x1="10" y1="130" x2="210" y2="130" />
    <line x1="10" y1="150" x2="210" y2="150" />
    <line x1="10" y1="170" x2="210" y2="170" />
    <line x1="10" y1="190" x2="210" y2="190" />
  </g>

  <!-- оси x и y (0 находится в точке (110;110)) -->
  <g stroke="#111827" stroke-width="1.25">
    <line x1="10" y1="110" x2="210" y2="110"
          marker-end="url(#axis-arrow)" />
    <line x1="110" y1="210" x2="110" y2="10"
          marker-end="url(#axis-arrow)" />
  </g>

  <!-- подписи осей и делений -->
  <g font-family="sans-serif" font-size="11" fill="#111827">
    <text x="106" y="123" text-anchor="end"
          font-size="13" font-style="italic"
          font-family="Georgia, 'Times New Roman', serif">O</text>

    <rect x="127" y="113" width="7" height="12" fill="white" />
    <text x="130" y="124" text-anchor="middle" font-size="13"
          font-family="'Times New Roman', serif"
          font-weight="300">1</text>

    <text x="103" y="94" text-anchor="end" font-size="13"
          font-family="'Times New Roman', serif"
          font-weight="300">1</text>

    <text x="206" y="123" text-anchor="start"
          font-family="Georgia, 'Times New Roman', serif"
          font-style="italic" font-size="13">x</text>

    <text x="107" y="13" text-anchor="end"
          font-family="Georgia, 'Times New Roman', serif"
          font-style="italic" font-size="13">y</text>
  </g>

  <!-- гипербола y = k/x, k=3 (гладкая интерполяция), в пределах окна [-5;5]×[-5;5] -->
  <g stroke="#2d70b3" stroke-width="1.25" fill="none"
     stroke-linecap="round" stroke-linejoin="round">
    <!-- ветвь в III квадранте -->
    <path d="M 10.00,122.00 C 10.14,122.02 10.55,122.07 10.83,122.10 C 11.10,122.13 11.38,122.17 11.65,122.20 C 11.92,122.24 12.20,122.27 12.47,122.30 C 12.74,122.34 13.01,122.37 13.28,122.41 C 13.55,122.44 13.82,122.48 14.09,122.51 C 14.35,122.55 14.62,122.58 14.89,122.62 C 15.15,122.65 15.42,122.69 15.68,122.72 C 15.95,122.76 16.21,122.79 16.47,122.83 C 16.74,122.87 17.00,122.90 17.26,122.94 C 17.52,122.98 17.78,123.01 18.04,123.05 C 18.30,123.09 18.56,123.12 18.82,123.16 C 19.07,123.20 19.33,123.23 19.59,123.27 C 19.84,123.31 20.10,123.35 20.35,123.39 C 20.60,123.42 20.86,123.46 21.11,123.50 C 21.36,123.54 21.61,123.58 21.86,123.62 C 22.12,123.65 22.36,123.69 22.61,123.73 C 22.86,123.77 23.11,123.81 23.36,123.85 C 23.61,123.89 23.85,123.93 24.10,123.97 C 24.34,124.01 24.59,124.05 24.83,124.09 C 25.08,124.13 25.32,124.17 25.56,124.21 C 25.80,124.25 26.04,124.29 26.28,124.33 C 26.53,124.38 26.77,124.42 27.00,124.46 C 27.24,124.50 27.48,124.54 27.72,124.58 C 27.96,124.63 28.19,124.67 28.43,124.71 C 28.66,124.75 28.90,124.80 29.13,124.84 C 29.37,124.88 29.60,124.93 29.83,124.97 C 30.06,125.01 30.30,125.06 30.53,125.10 C 30.76,125.14 30.99,125.19 31.22,125.23 C 31.44,125.28 31.67,125.32 31.90,125.36 C 32.13,125.41 32.35,125.45 32.58,125.50 C 32.81,125.55 33.03,125.59 33.26,125.64 C 33.48,125.68 33.70,125.73 33.93,125.77 C 34.15,125.82 34.37,125.87 34.59,125.91 C 34.81,125.96 35.03,126.01 35.25,126.05 C 35.47,126.10 35.69,126.15 35.91,126.20 C 36.13,126.24 36.34,126.29 36.56,126.34 C 36.78,126.39 36.99,126.44 37.21,126.48 C 37.42,126.53 37.63,126.58 37.85,126.63 C 38.06,126.68 38.27,126.73 38.48,126.78 C 38.70,126.83 38.91,126.88 39.12,126.93 C 39.33,126.98 39.54,127.03 39.74,127.08 C 39.95,127.13 40.16,127.18 40.37,127.23 C 40.57,127.28 40.78,127.34 40.99,127.39 C 41.19,127.44 41.40,127.49 41.60,127.54 C 41.80,127.60 42.01,127.65 42.21,127.70 C 42.41,127.75 42.61,127.81 42.82,127.86 C 43.02,127.91 43.22,127.97 43.42,128.02 C 43.61,128.08 43.81,128.13 44.01,128.18 C 44.21,128.24 44.41,128.29 44.60,128.35 C 44.80,128.40 45.00,128.46 45.19,128.52 C 45.38,128.57 45.58,128.63 45.77,128.68 C 45.97,128.74 46.16,128.80 46.35,128.85 C 46.54,128.91 46.73,128.97 46.92,129.02 C 47.11,129.08 47.30,129.14 47.49,129.20 C 47.68,129.26 47.87,129.31 48.06,129.37 C 48.25,129.43 48.43,129.49 48.62,129.55 C 48.81,129.61 48.99,129.67 49.18,129.73 C 49.36,129.79 49.54,129.85 49.73,129.91 C 49.91,129.97 50.09,130.03 50.27,130.09 C 50.46,130.15 50.64,130.21 50.82,130.28 C 51.00,130.34 51.18,130.40 51.36,130.46 C 51.54,130.53 51.71,130.59 51.89,130.65 C 52.07,130.71 52.25,130.78 52.42,130.84 C 52.60,130.91 52.77,130.97 52.95,131.03 C 53.12,131.10 53.30,131.16 53.47,131.23 C 53.64,131.29 53.82,131.36 53.99,131.42 C 54.16,131.49 54.33,131.56 54.50,131.62 C 54.67,131.69 54.84,131.76 55.01,131.82 C 55.18,131.89 55.35,131.96 55.52,132.03 C 55.69,132.09 55.85,132.16 56.02,132.23 C 56.19,132.30 56.35,132.37 56.52,132.44 C 56.68,132.51 56.85,132.58 57.01,132.65 C 57.17,132.72 57.34,132.79 57.50,132.86 C 57.66,132.93 57.82,133.00 57.98,133.07 C 58.15,133.14 58.31,133.21 58.47,133.29 C 58.63,133.36 58.78,133.43 58.94,133.50 C 59.10,133.58 59.26,133.65 59.42,133.72 C 59.57,133.80 59.73,133.87 59.89,133.95 C 60.04,134.02 60.20,134.09 60.35,134.17 C 60.51,134.24 60.66,134.32 60.81,134.40 C 60.97,134.47 61.12,134.55 61.27,134.63 C 61.42,134.70 61.57,134.78 61.72,134.86 C 61.87,134.93 62.02,135.01 62.17,135.09 C 62.32,135.17 62.47,135.25 62.62,135.33 C 62.77,135.41 62.91,135.49 63.06,135.57 C 63.21,135.64 63.35,135.73 63.50,135.81 C 63.64,135.89 63.79,135.97 63.93,136.05 C 64.08,136.13 64.22,136.21 64.36,136.30 C 64.51,136.38 64.65,136.46 64.79,136.54 C 64.93,136.63 65.07,136.71 65.21,136.79 C 65.35,136.88 65.49,136.96 65.63,137.05 C 65.77,137.13 65.91,137.22 66.05,137.30 C 66.19,137.39 66.33,137.48 66.46,137.56 C 66.60,137.65 66.73,137.74 66.87,137.82 C 67.01,137.91 67.14,138.00 67.28,138.09 C 67.41,138.17 67.54,138.26 67.68,138.35 C 67.81,138.44 67.94,138.53 68.07,138.62 C 68.21,138.71 68.34,138.80 68.47,138.89 C 68.60,138.98 68.73,139.08 68.86,139.17 C 68.99,139.26 69.12,139.35 69.24,139.44 C 69.37,139.54 69.50,139.63 69.63,139.72 C 69.76,139.82 69.88,139.91 70.01,140.01 C 70.13,140.10 70.26,140.20 70.38,140.29 C 70.51,140.39 70.63,140.48 70.76,140.58 C 70.88,140.67 71.00,140.77 71.13,140.87 C 71.25,140.97 71.37,141.06 71.49,141.16 C 71.61,141.26 71.73,141.36 71.85,141.46 C 71.97,141.56 72.09,141.66 72.21,141.76 C 72.33,141.86 72.45,141.96 72.57,142.06 C 72.69,142.16 72.80,142.26 72.92,142.36 C 73.04,142.46 73.15,142.57 73.27,142.67 C 73.39,142.77 73.50,142.88 73.61,142.98 C 73.73,143.08 73.84,143.19 73.96,143.29 C 74.07,143.40 74.18,143.50 74.30,143.61 C 74.41,143.72 74.52,143.82 74.63,143.93 C 74.74,144.03 74.85,144.14 74.96,144.25 C 75.07,144.36 75.18,144.47 75.29,144.57 C 75.40,144.68 75.51,144.79 75.62,144.90 C 75.73,145.01 75.83,145.12 75.94,145.23 C 76.05,145.34 76.15,145.45 76.26,145.57 C 76.37,145.68 76.47,145.79 76.58,145.90 C 76.68,146.01 76.78,146.13 76.89,146.24 C 76.99,146.35 77.10,146.47 77.20,146.58 C 77.30,146.70 77.40,146.81 77.51,146.93 C 77.61,147.04 77.71,147.16 77.81,147.28 C 77.91,147.39 78.01,147.51 78.11,147.63 C 78.21,147.75 78.31,147.86 78.41,147.98 C 78.50,148.10 78.60,148.22 78.70,148.34 C 78.80,148.46 78.90,148.58 78.99,148.70 C 79.09,148.82 79.18,148.94 79.28,149.06 C 79.38,149.18 79.47,149.31 79.56,149.43 C 79.66,149.55 79.75,149.67 79.85,149.80 C 79.94,149.92 80.03,150.04 80.13,150.17 C 80.22,150.29 80.31,150.42 80.40,150.54 C 80.49,150.67 80.58,150.80 80.68,150.92 C 80.77,151.05 80.86,151.17 80.95,151.30 C 81.04,151.43 81.12,151.56 81.21,151.69 C 81.30,151.81 81.39,151.94 81.48,152.07 C 81.57,152.20 81.65,152.33 81.74,152.46 C 81.83,152.59 81.91,152.72 82.00,152.85 C 82.08,152.99 82.17,153.12 82.25,153.25 C 82.34,153.38 82.42,153.51 82.51,153.65 C 82.59,153.78 82.67,153.91 82.76,154.05 C 82.84,154.18 82.92,154.32 83.00,154.45 C 83.09,154.59 83.17,154.72 83.25,154.86 C 83.33,154.99 83.41,155.13 83.49,155.27 C 83.57,155.41 83.65,155.54 83.73,155.68 C 83.81,155.82 83.89,155.96 83.97,156.10 C 84.05,156.23 84.12,156.37 84.20,156.51 C 84.28,156.65 84.36,156.79 84.43,156.93 C 84.51,157.07 84.58,157.21 84.66,157.36 C 84.74,157.50 84.81,157.64 84.89,157.78 C 84.96,157.92 85.04,158.07 85.11,158.21 C 85.18,158.35 85.26,158.50 85.33,158.64 C 85.40,158.79 85.48,158.93 85.55,159.07 C 85.62,159.22 85.69,159.36 85.76,159.51 C 85.83,159.66 85.90,159.80 85.98,159.95 C 86.05,160.10 86.12,160.24 86.19,160.39 C 86.26,160.54 86.32,160.68 86.39,160.83 C 86.46,160.98 86.53,161.13 86.60,161.28 C 86.67,161.43 86.73,161.58 86.80,161.73 C 86.87,161.88 86.93,162.03 87.00,162.18 C 87.07,162.33 87.13,162.48 87.20,162.63 C 87.26,162.78 87.33,162.93 87.39,163.08 C 87.46,163.23 87.52,163.39 87.59,163.54 C 87.65,163.69 87.71,163.84 87.78,164.00 C 87.84,164.15 87.90,164.30 87.96,164.46 C 88.03,164.61 88.09,164.77 88.15,164.92 C 88.21,165.07 88.27,165.23 88.33,165.38 C 88.39,165.54 88.45,165.69 88.51,165.85 C 88.57,166.01 88.63,166.16 88.69,166.32 C 88.75,166.47 88.81,166.63 88.87,166.79 C 88.93,166.94 88.98,167.10 89.04,167.26 C 89.10,167.42 89.16,167.57 89.21,167.73 C 89.27,167.89 89.33,168.05 89.38,168.21 C 89.44,168.36 89.49,168.52 89.55,168.68 C 89.61,168.84 89.66,169.00 89.72,169.16 C 89.77,169.32 89.82,169.48 89.88,169.63 C 89.93,169.79 89.98,169.95 90.04,170.11 C 90.09,170.27 90.14,170.43 90.20,170.59 C 90.25,170.75 90.30,170.91 90.35,171.08 C 90.40,171.24 90.45,171.40 90.51,171.56 C 90.56,171.72 90.61,171.88 90.66,172.04 C 90.71,172.20 90.76,172.36 90.81,172.52 C 90.86,172.68 90.91,172.85 90.95,173.01 C 91.00,173.17 91.05,173.33 91.10,173.49 C 91.15,173.65 91.20,173.81 91.24,173.98 C 91.29,174.14 91.34,174.30 91.38,174.46 C 91.43,174.62 91.48,174.79 91.52,174.95 C 91.57,175.11 91.62,175.27 91.66,175.43 C 91.71,175.60 91.75,175.76 91.80,175.92 C 91.84,176.08 91.88,176.24 91.93,176.40 C 91.97,176.57 92.02,176.73 92.06,176.89 C 92.10,177.05 92.15,177.21 92.19,177.38 C 92.23,177.54 92.27,177.70 92.32,177.86 C 92.36,178.02 92.40,178.18 92.44,178.34 C 92.48,178.51 92.52,178.67 92.57,178.83 C 92.61,178.99 92.65,179.15 92.69,179.31 C 92.73,179.47 92.77,179.63 92.81,179.79 C 92.85,179.95 92.89,180.12 92.92,180.28 C 92.96,180.44 93.00,180.60 93.04,180.76 C 93.08,180.92 93.12,181.08 93.15,181.24 C 93.19,181.39 93.23,181.55 93.27,181.71 C 93.30,181.87 93.34,182.03 93.38,182.19 C 93.41,182.35 93.45,182.51 93.49,182.66 C 93.52,182.82 93.56,182.98 93.59,183.14 C 93.63,183.30 93.66,183.45 93.70,183.61 C 93.73,183.77 93.77,183.92 93.80,184.08 C 93.84,184.24 93.87,184.39 93.90,184.55 C 93.94,184.70 93.97,184.86 94.00,185.01 C 94.04,185.17 94.07,185.32 94.10,185.48 C 94.13,185.63 94.17,185.79 94.20,185.94 C 94.23,186.09 94.26,186.25 94.29,186.40 C 94.32,186.55 94.36,186.70 94.39,186.86 C 94.42,187.01 94.45,187.16 94.48,187.31 C 94.51,187.46 94.54,187.61 94.57,187.76 C 94.60,187.91 94.63,188.06 94.66,188.21 C 94.69,188.36 94.71,188.51 94.74,188.65 C 94.77,188.80 94.80,188.95 94.83,189.10 C 94.86,189.24 94.88,189.39 94.91,189.54 C 94.94,189.68 94.97,189.83 94.99,189.97 C 95.02,190.12 95.05,190.26 95.08,190.41 C 95.10,190.55 95.13,190.69 95.15,190.83 C 95.18,190.98 95.21,191.12 95.23,191.26 C 95.26,191.40 95.28,191.54 95.31,191.68 C 95.33,191.82 95.36,191.96 95.38,192.10 C 95.41,192.24 95.43,192.38 95.46,192.51 C 95.48,192.65 95.51,192.79 95.53,192.92 C 95.55,193.06 95.58,193.20 95.60,193.33 C 95.62,193.47 95.65,193.60 95.67,193.73 C 95.69,193.87 95.71,194.00 95.74,194.13 C 95.76,194.26 95.78,194.39 95.80,194.52 C 95.82,194.65 95.85,194.78 95.87,194.91 C 95.89,195.04 95.91,195.17 95.93,195.30 C 95.95,195.42 95.97,195.55 95.99,195.68 C 96.01,195.80 96.03,195.93 96.05,196.05 C 96.08,196.18 96.10,196.30 96.11,196.42 C 96.13,196.55 96.15,196.67 96.17,196.79 C 96.19,196.91 96.21,197.03 96.23,197.15 C 96.25,197.27 96.27,197.39 96.29,197.51 C 96.30,197.62 96.32,197.74 96.34,197.86 C 96.36,197.97 96.38,198.09 96.39,198.20 C 96.41,198.32 96.43,198.43 96.45,198.54 C 96.46,198.66 96.48,198.77 96.50,198.88 C 96.52,198.99 96.53,199.10 96.55,199.21 C 96.56,199.32 96.58,199.43 96.60,199.53 C 96.61,199.64 96.63,199.75 96.64,199.85 C 96.66,199.96 96.68,200.06 96.69,200.17 C 96.71,200.27 96.72,200.37 96.74,200.48 C 96.75,200.58 96.77,200.68 96.78,200.78 C 96.80,200.88 96.81,200.98 96.82,201.08 C 96.84,201.18 96.85,201.27 96.87,201.37 C 96.88,201.47 96.89,201.56 96.91,201.66 C 96.92,201.75 96.93,201.85 96.95,201.94 C 96.96,202.03 96.97,202.13 96.99,202.22 C 97.00,202.31 97.01,202.40 97.03,202.49 C 97.04,202.58 97.05,202.66 97.06,202.75 C 97.07,202.84 97.09,202.93 97.10,203.01 C 97.11,203.10 97.12,203.18 97.13,203.27 C 97.15,203.35 97.16,203.43 97.17,203.51 C 97.18,203.60 97.19,203.68 97.20,203.76 C 97.21,203.84 97.22,203.92 97.23,203.99 C 97.24,204.07 97.25,204.15 97.26,204.23 C 97.28,204.30 97.29,204.38 97.30,204.45 C 97.31,204.53 97.32,204.60 97.32,204.67 C 97.33,204.75 97.34,204.82 97.35,204.89 C 97.36,204.96 97.37,205.03 97.38,205.10 C 97.39,205.17 97.40,205.24 97.41,205.30 C 97.42,205.37 97.43,205.44 97.43,205.50 C 97.44,205.57 97.45,205.63 97.46,205.70 C 97.47,205.76 97.48,205.82 97.48,205.88 C 97.49,205.95 97.50,206.01 97.51,206.07 C 97.52,206.13 97.52,206.19 97.53,206.25 C 97.54,206.30 97.55,206.36 97.55,206.42 C 97.56,206.47 97.57,206.53 97.58,206.59 C 97.58,206.64 97.59,206.69 97.60,206.75 C 97.60,206.80 97.61,206.85 97.62,206.90 C 97.62,206.96 97.63,207.01 97.64,207.06 C 97.64,207.11 97.65,207.16 97.65,207.20 C 97.66,207.25 97.67,207.30 97.67,207.35 C 97.68,207.39 97.68,207.44 97.69,207.48 C 97.70,207.53 97.70,207.57 97.71,207.62 C 97.71,207.66 97.72,207.70 97.72,207.75 C 97.73,207.79 97.73,207.83 97.74,207.87 C 97.74,207.91 97.75,207.95 97.75,207.99 C 97.76,208.03 97.76,208.07 97.77,208.10 C 97.77,208.14 97.78,208.18 97.78,208.21 C 97.79,208.25 97.79,208.28 97.79,208.32 C 97.80,208.35 97.80,208.39 97.81,208.42 C 97.81,208.45 97.82,208.49 97.82,208.52 C 97.82,208.55 97.83,208.58 97.83,208.61 C 97.83,208.64 97.84,208.67 97.84,208.70 C 97.85,208.73 97.85,208.76 97.85,208.79 C 97.86,208.81 97.86,208.84 97.86,208.87 C 97.87,208.89 97.87,208.92 97.87,208.95 C 97.88,208.97 97.88,209.00 97.88,209.02 C 97.88,209.04 97.89,209.07 97.89,209.09 C 97.89,209.11 97.90,209.14 97.90,209.16 C 97.90,209.18 97.90,209.20 97.91,209.22 C 97.91,209.24 97.91,209.26 97.91,209.28 C 97.92,209.30 97.92,209.32 97.92,209.34 C 97.92,209.36 97.92,209.37 97.93,209.39 C 97.93,209.41 97.93,209.43 97.93,209.44 C 97.93,209.46 97.94,209.47 97.94,209.49 C 97.94,209.51 97.94,209.52 97.94,209.54 C 97.95,209.55 97.95,209.56 97.95,209.58 C 97.95,209.59 97.95,209.60 97.95,209.62 C 97.96,209.63 97.96,209.64 97.96,209.65 C 97.96,209.67 97.96,209.68 97.96,209.69 C 97.96,209.70 97.97,209.71 97.97,209.72 C 97.97,209.73 97.97,209.74 97.97,209.75 C 97.97,209.76 97.97,209.77 97.97,209.78 C 97.97,209.79 97.98,209.79 97.98,209.80 C 97.98,209.81 97.98,209.82 97.98,209.83 C 97.98,209.83 97.98,209.84 97.98,209.85 C 97.98,209.85 97.98,209.86 97.98,209.87 C 97.98,209.87 97.99,209.88 97.99,209.88 C 97.99,209.89 97.99,209.90 97.99,209.90 C 97.99,209.91 97.99,209.91 97.99,209.91 C 97.99,209.92 97.99,209.92 97.99,209.93 C 97.99,209.93 97.99,209.94 97.99,209.94 C 97.99,209.94 97.99,209.95 97.99,209.95 C 97.99,209.95 97.99,209.96 97.99,209.96 C 98.00,209.96 98.00,209.96 98.00,209.97 C 98.00,209.97 98.00,209.97 98.00,209.97 C 98.00,209.97 98.00,209.98 98.00,209.98 C 98.00,209.98 98.00,209.98 98.00,209.98 C 98.00,209.98 98.00,209.99 98.00,209.99 C 98.00,209.99 98.00,209.99 98.00,209.99 C 98.00,209.99 98.00,209.99 98.00,209.99 C 98.00,209.99 98.00,209.99 98.00,210.00 C 98.00,210.00 98.00,210.00 98.00,210.00 C 98.00,210.00 98.00,210.00 98.00,210.00 C 98.00,210.00 98.00,210.00 98.00,210.00 C 98.00,210.00 98.00,210.00 98.00,210.00 C 98.00,210.00 98.00,210.00 98.00,210.00 C 98.00,210.00 98.00,210.00 98.00,210.00 C 98.00,210.00 98.00,210.00 98.00,210.00 C 98.00,210.00 98.00,210.00 98.00,210.00" />
    <!-- ветвь в I квадранте -->
    <path d="M 122.00,10.00 C 122.00,10.00 122.00,10.00 122.00,10.00 C 122.00,10.00 122.00,10.00 122.00,10.00 C 122.00,10.00 122.00,10.00 122.00,10.00 C 122.00,10.00 122.00,10.00 122.00,10.00 C 122.00,10.00 122.00,10.00 122.00,10.00 C 122.00,10.00 122.00,10.00 122.00,10.00 C 122.00,10.00 122.00,10.00 122.00,10.00 C 122.00,10.00 122.00,10.00 122.00,10.00 C 122.00,10.01 122.00,10.01 122.00,10.01 C 122.00,10.01 122.00,10.01 122.00,10.01 C 122.00,10.01 122.00,10.01 122.00,10.01 C 122.00,10.01 122.00,10.02 122.00,10.02 C 122.00,10.02 122.00,10.02 122.00,10.02 C 122.00,10.02 122.00,10.03 122.00,10.03 C 122.00,10.03 122.00,10.03 122.00,10.03 C 122.00,10.04 122.00,10.04 122.01,10.04 C 122.01,10.04 122.01,10.05 122.01,10.05 C 122.01,10.05 122.01,10.06 122.01,10.06 C 122.01,10.06 122.01,10.07 122.01,10.07 C 122.01,10.08 122.01,10.08 122.01,10.09 C 122.01,10.09 122.01,10.09 122.01,10.10 C 122.01,10.10 122.01,10.11 122.01,10.12 C 122.01,10.12 122.02,10.13 122.02,10.13 C 122.02,10.14 122.02,10.15 122.02,10.15 C 122.02,10.16 122.02,10.17 122.02,10.17 C 122.02,10.18 122.02,10.19 122.02,10.20 C 122.02,10.21 122.03,10.21 122.03,10.22 C 122.03,10.23 122.03,10.24 122.03,10.25 C 122.03,10.26 122.03,10.27 122.03,10.28 C 122.03,10.29 122.04,10.30 122.04,10.31 C 122.04,10.32 122.04,10.33 122.04,10.35 C 122.04,10.36 122.04,10.37 122.05,10.38 C 122.05,10.40 122.05,10.41 122.05,10.42 C 122.05,10.44 122.05,10.45 122.06,10.46 C 122.06,10.48 122.06,10.49 122.06,10.51 C 122.06,10.53 122.07,10.54 122.07,10.56 C 122.07,10.57 122.07,10.59 122.07,10.61 C 122.08,10.63 122.08,10.64 122.08,10.66 C 122.08,10.68 122.08,10.70 122.09,10.72 C 122.09,10.74 122.09,10.76 122.09,10.78 C 122.10,10.80 122.10,10.82 122.10,10.84 C 122.10,10.86 122.11,10.89 122.11,10.91 C 122.11,10.93 122.12,10.96 122.12,10.98 C 122.12,11.00 122.12,11.03 122.13,11.05 C 122.13,11.08 122.13,11.11 122.14,11.13 C 122.14,11.16 122.14,11.19 122.15,11.21 C 122.15,11.24 122.15,11.27 122.16,11.30 C 122.16,11.33 122.17,11.36 122.17,11.39 C 122.17,11.42 122.18,11.45 122.18,11.48 C 122.18,11.51 122.19,11.55 122.19,11.58 C 122.20,11.61 122.20,11.65 122.21,11.68 C 122.21,11.72 122.21,11.75 122.22,11.79 C 122.22,11.82 122.23,11.86 122.23,11.90 C 122.24,11.93 122.24,11.97 122.25,12.01 C 122.25,12.05 122.26,12.09 122.26,12.13 C 122.27,12.17 122.27,12.21 122.28,12.25 C 122.28,12.30 122.29,12.34 122.29,12.38 C 122.30,12.43 122.30,12.47 122.31,12.52 C 122.32,12.56 122.32,12.61 122.33,12.65 C 122.33,12.70 122.34,12.75 122.35,12.80 C 122.35,12.84 122.36,12.89 122.36,12.94 C 122.37,12.99 122.38,13.04 122.38,13.10 C 122.39,13.15 122.40,13.20 122.40,13.25 C 122.41,13.31 122.42,13.36 122.42,13.41 C 122.43,13.47 122.44,13.53 122.45,13.58 C 122.45,13.64 122.46,13.70 122.47,13.75 C 122.48,13.81 122.48,13.87 122.49,13.93 C 122.50,13.99 122.51,14.05 122.52,14.12 C 122.52,14.18 122.53,14.24 122.54,14.30 C 122.55,14.37 122.56,14.43 122.57,14.50 C 122.57,14.56 122.58,14.63 122.59,14.70 C 122.60,14.76 122.61,14.83 122.62,14.90 C 122.63,14.97 122.64,15.04 122.65,15.11 C 122.66,15.18 122.67,15.25 122.68,15.33 C 122.68,15.40 122.69,15.47 122.70,15.55 C 122.71,15.62 122.72,15.70 122.74,15.77 C 122.75,15.85 122.76,15.93 122.77,16.01 C 122.78,16.08 122.79,16.16 122.80,16.24 C 122.81,16.32 122.82,16.40 122.83,16.49 C 122.84,16.57 122.85,16.65 122.87,16.73 C 122.88,16.82 122.89,16.90 122.90,16.99 C 122.91,17.07 122.93,17.16 122.94,17.25 C 122.95,17.34 122.96,17.42 122.97,17.51 C 122.99,17.60 123.00,17.69 123.01,17.78 C 123.03,17.87 123.04,17.97 123.05,18.06 C 123.07,18.15 123.08,18.25 123.09,18.34 C 123.11,18.44 123.12,18.53 123.13,18.63 C 123.15,18.73 123.16,18.82 123.18,18.92 C 123.19,19.02 123.20,19.12 123.22,19.22 C 123.23,19.32 123.25,19.42 123.26,19.52 C 123.28,19.63 123.29,19.73 123.31,19.83 C 123.32,19.94 123.34,20.04 123.36,20.15 C 123.37,20.25 123.39,20.36 123.40,20.47 C 123.42,20.57 123.44,20.68 123.45,20.79 C 123.47,20.90 123.48,21.01 123.50,21.12 C 123.52,21.23 123.54,21.34 123.55,21.46 C 123.57,21.57 123.59,21.68 123.61,21.80 C 123.62,21.91 123.64,22.03 123.66,22.14 C 123.68,22.26 123.70,22.38 123.71,22.49 C 123.73,22.61 123.75,22.73 123.77,22.85 C 123.79,22.97 123.81,23.09 123.83,23.21 C 123.85,23.33 123.87,23.45 123.89,23.58 C 123.90,23.70 123.92,23.82 123.95,23.95 C 123.97,24.07 123.99,24.20 124.01,24.32 C 124.03,24.45 124.05,24.58 124.07,24.70 C 124.09,24.83 124.11,24.96 124.13,25.09 C 124.15,25.22 124.18,25.35 124.20,25.48 C 124.22,25.61 124.24,25.74 124.26,25.87 C 124.29,26.00 124.31,26.13 124.33,26.27 C 124.35,26.40 124.38,26.53 124.40,26.67 C 124.42,26.80 124.45,26.94 124.47,27.08 C 124.49,27.21 124.52,27.35 124.54,27.49 C 124.57,27.62 124.59,27.76 124.62,27.90 C 124.64,28.04 124.67,28.18 124.69,28.32 C 124.72,28.46 124.74,28.60 124.77,28.74 C 124.79,28.88 124.82,29.02 124.85,29.17 C 124.87,29.31 124.90,29.45 124.92,29.59 C 124.95,29.74 124.98,29.88 125.01,30.03 C 125.03,30.17 125.06,30.32 125.09,30.46 C 125.12,30.61 125.14,30.76 125.17,30.90 C 125.20,31.05 125.23,31.20 125.26,31.35 C 125.29,31.49 125.31,31.64 125.34,31.79 C 125.37,31.94 125.40,32.09 125.43,32.24 C 125.46,32.39 125.49,32.54 125.52,32.69 C 125.55,32.84 125.58,32.99 125.61,33.14 C 125.64,33.30 125.68,33.45 125.71,33.60 C 125.74,33.75 125.77,33.91 125.80,34.06 C 125.83,34.21 125.87,34.37 125.90,34.52 C 125.93,34.68 125.96,34.83 126.00,34.99 C 126.03,35.14 126.06,35.30 126.10,35.45 C 126.13,35.61 126.16,35.76 126.20,35.92 C 126.23,36.08 126.27,36.23 126.30,36.39 C 126.34,36.55 126.37,36.70 126.41,36.86 C 126.44,37.02 126.48,37.18 126.51,37.34 C 126.55,37.49 126.59,37.65 126.62,37.81 C 126.66,37.97 126.70,38.13 126.73,38.29 C 126.77,38.45 126.81,38.61 126.85,38.76 C 126.88,38.92 126.92,39.08 126.96,39.24 C 127.00,39.40 127.04,39.56 127.08,39.72 C 127.11,39.88 127.15,40.05 127.19,40.21 C 127.23,40.37 127.27,40.53 127.31,40.69 C 127.35,40.85 127.39,41.01 127.43,41.17 C 127.48,41.33 127.52,41.49 127.56,41.66 C 127.60,41.82 127.64,41.98 127.68,42.14 C 127.73,42.30 127.77,42.46 127.81,42.62 C 127.85,42.79 127.90,42.95 127.94,43.11 C 127.98,43.27 128.03,43.43 128.07,43.60 C 128.12,43.76 128.16,43.92 128.20,44.08 C 128.25,44.24 128.29,44.40 128.34,44.57 C 128.38,44.73 128.43,44.89 128.48,45.05 C 128.52,45.21 128.57,45.38 128.62,45.54 C 128.66,45.70 128.71,45.86 128.76,46.02 C 128.80,46.19 128.85,46.35 128.90,46.51 C 128.95,46.67 129.00,46.83 129.05,46.99 C 129.09,47.15 129.14,47.32 129.19,47.48 C 129.24,47.64 129.29,47.80 129.34,47.96 C 129.39,48.12 129.44,48.28 129.49,48.44 C 129.55,48.60 129.60,48.76 129.65,48.92 C 129.70,49.09 129.75,49.25 129.80,49.41 C 129.86,49.57 129.91,49.73 129.96,49.89 C 130.02,50.05 130.07,50.21 130.12,50.37 C 130.18,50.52 130.23,50.68 130.28,50.84 C 130.34,51.00 130.39,51.16 130.45,51.32 C 130.51,51.48 130.56,51.64 130.62,51.79 C 130.67,51.95 130.73,52.11 130.79,52.27 C 130.84,52.43 130.90,52.58 130.96,52.74 C 131.02,52.90 131.07,53.06 131.13,53.21 C 131.19,53.37 131.25,53.53 131.31,53.68 C 131.37,53.84 131.43,53.99 131.49,54.15 C 131.55,54.31 131.61,54.46 131.67,54.62 C 131.73,54.77 131.79,54.93 131.85,55.08 C 131.91,55.23 131.97,55.39 132.04,55.54 C 132.10,55.70 132.16,55.85 132.22,56.00 C 132.29,56.16 132.35,56.31 132.41,56.46 C 132.48,56.61 132.54,56.77 132.61,56.92 C 132.67,57.07 132.74,57.22 132.80,57.37 C 132.87,57.52 132.93,57.67 133.00,57.82 C 133.07,57.97 133.13,58.12 133.20,58.27 C 133.27,58.42 133.33,58.57 133.40,58.72 C 133.47,58.87 133.54,59.02 133.61,59.17 C 133.68,59.32 133.74,59.46 133.81,59.61 C 133.88,59.76 133.95,59.90 134.02,60.05 C 134.10,60.20 134.17,60.34 134.24,60.49 C 134.31,60.64 134.38,60.78 134.45,60.93 C 134.52,61.07 134.60,61.21 134.67,61.36 C 134.74,61.50 134.82,61.65 134.89,61.79 C 134.96,61.93 135.04,62.08 135.11,62.22 C 135.19,62.36 135.26,62.50 135.34,62.64 C 135.42,62.79 135.49,62.93 135.57,63.07 C 135.64,63.21 135.72,63.35 135.80,63.49 C 135.88,63.63 135.95,63.77 136.03,63.90 C 136.11,64.04 136.19,64.18 136.27,64.32 C 136.35,64.46 136.43,64.59 136.51,64.73 C 136.59,64.87 136.67,65.01 136.75,65.14 C 136.83,65.28 136.91,65.41 137.00,65.55 C 137.08,65.68 137.16,65.82 137.24,65.95 C 137.33,66.09 137.41,66.22 137.49,66.35 C 137.58,66.49 137.66,66.62 137.75,66.75 C 137.83,66.88 137.92,67.01 138.00,67.15 C 138.09,67.28 138.17,67.41 138.26,67.54 C 138.35,67.67 138.43,67.80 138.52,67.93 C 138.61,68.06 138.70,68.19 138.79,68.31 C 138.88,68.44 138.96,68.57 139.05,68.70 C 139.14,68.83 139.23,68.95 139.32,69.08 C 139.42,69.20 139.51,69.33 139.60,69.46 C 139.69,69.58 139.78,69.71 139.87,69.83 C 139.97,69.96 140.06,70.08 140.15,70.20 C 140.25,70.33 140.34,70.45 140.44,70.57 C 140.53,70.69 140.62,70.82 140.72,70.94 C 140.82,71.06 140.91,71.18 141.01,71.30 C 141.10,71.42 141.20,71.54 141.30,71.66 C 141.40,71.78 141.50,71.90 141.59,72.02 C 141.69,72.14 141.79,72.25 141.89,72.37 C 141.99,72.49 142.09,72.61 142.19,72.72 C 142.29,72.84 142.39,72.96 142.49,73.07 C 142.60,73.19 142.70,73.30 142.80,73.42 C 142.90,73.53 143.01,73.65 143.11,73.76 C 143.22,73.87 143.32,73.99 143.42,74.10 C 143.53,74.21 143.63,74.32 143.74,74.43 C 143.85,74.55 143.95,74.66 144.06,74.77 C 144.17,74.88 144.27,74.99 144.38,75.10 C 144.49,75.21 144.60,75.32 144.71,75.43 C 144.82,75.53 144.93,75.64 145.04,75.75 C 145.15,75.86 145.26,75.97 145.37,76.07 C 145.48,76.18 145.59,76.28 145.70,76.39 C 145.82,76.50 145.93,76.60 146.04,76.71 C 146.16,76.81 146.27,76.92 146.39,77.02 C 146.50,77.12 146.61,77.23 146.73,77.33 C 146.85,77.43 146.96,77.54 147.08,77.64 C 147.20,77.74 147.31,77.84 147.43,77.94 C 147.55,78.04 147.67,78.14 147.79,78.24 C 147.91,78.34 148.03,78.44 148.15,78.54 C 148.27,78.64 148.39,78.74 148.51,78.84 C 148.63,78.94 148.75,79.03 148.87,79.13 C 149.00,79.23 149.12,79.33 149.24,79.42 C 149.37,79.52 149.49,79.61 149.62,79.71 C 149.74,79.80 149.87,79.90 149.99,79.99 C 150.12,80.09 150.24,80.18 150.37,80.28 C 150.50,80.37 150.63,80.46 150.76,80.56 C 150.88,80.65 151.01,80.74 151.14,80.83 C 151.27,80.92 151.40,81.02 151.53,81.11 C 151.66,81.20 151.79,81.29 151.93,81.38 C 152.06,81.47 152.19,81.56 152.32,81.65 C 152.46,81.74 152.59,81.83 152.72,81.91 C 152.86,82.00 152.99,82.09 153.13,82.18 C 153.27,82.26 153.40,82.35 153.54,82.44 C 153.67,82.52 153.81,82.61 153.95,82.70 C 154.09,82.78 154.23,82.87 154.37,82.95 C 154.51,83.04 154.65,83.12 154.79,83.21 C 154.93,83.29 155.07,83.37 155.21,83.46 C 155.35,83.54 155.49,83.62 155.64,83.70 C 155.78,83.79 155.92,83.87 156.07,83.95 C 156.21,84.03 156.36,84.11 156.50,84.19 C 156.65,84.27 156.79,84.36 156.94,84.43 C 157.09,84.51 157.23,84.59 157.38,84.67 C 157.53,84.75 157.68,84.83 157.83,84.91 C 157.98,84.99 158.13,85.07 158.28,85.14 C 158.43,85.22 158.58,85.30 158.73,85.37 C 158.88,85.45 159.03,85.53 159.19,85.60 C 159.34,85.68 159.49,85.76 159.65,85.83 C 159.80,85.91 159.96,85.98 160.11,86.05 C 160.27,86.13 160.43,86.20 160.58,86.28 C 160.74,86.35 160.90,86.42 161.06,86.50 C 161.22,86.57 161.37,86.64 161.53,86.71 C 161.69,86.79 161.85,86.86 162.02,86.93 C 162.18,87.00 162.34,87.07 162.50,87.14 C 162.66,87.21 162.83,87.28 162.99,87.35 C 163.15,87.42 163.32,87.49 163.48,87.56 C 163.65,87.63 163.81,87.70 163.98,87.77 C 164.15,87.84 164.31,87.91 164.48,87.97 C 164.65,88.04 164.82,88.11 164.99,88.18 C 165.16,88.24 165.33,88.31 165.50,88.38 C 165.67,88.44 165.84,88.51 166.01,88.58 C 166.18,88.64 166.36,88.71 166.53,88.77 C 166.70,88.84 166.88,88.90 167.05,88.97 C 167.23,89.03 167.40,89.09 167.58,89.16 C 167.75,89.22 167.93,89.29 168.11,89.35 C 168.29,89.41 168.46,89.47 168.64,89.54 C 168.82,89.60 169.00,89.66 169.18,89.72 C 169.36,89.79 169.54,89.85 169.73,89.91 C 169.91,89.97 170.09,90.03 170.27,90.09 C 170.46,90.15 170.64,90.21 170.82,90.27 C 171.01,90.33 171.19,90.39 171.38,90.45 C 171.57,90.51 171.75,90.57 171.94,90.63 C 172.13,90.69 172.32,90.74 172.51,90.80 C 172.70,90.86 172.89,90.92 173.08,90.98 C 173.27,91.03 173.46,91.09 173.65,91.15 C 173.84,91.20 174.03,91.26 174.23,91.32 C 174.42,91.37 174.62,91.43 174.81,91.48 C 175.00,91.54 175.20,91.60 175.40,91.65 C 175.59,91.71 175.79,91.76 175.99,91.82 C 176.19,91.87 176.39,91.92 176.58,91.98 C 176.78,92.03 176.98,92.09 177.18,92.14 C 177.39,92.19 177.59,92.25 177.79,92.30 C 177.99,92.35 178.20,92.40 178.40,92.46 C 178.60,92.51 178.81,92.56 179.01,92.61 C 179.22,92.66 179.43,92.72 179.63,92.77 C 179.84,92.82 180.05,92.87 180.26,92.92 C 180.46,92.97 180.67,93.02 180.88,93.07 C 181.09,93.12 181.30,93.17 181.52,93.22 C 181.73,93.27 181.94,93.32 182.15,93.37 C 182.37,93.42 182.58,93.47 182.79,93.52 C 183.01,93.56 183.22,93.61 183.44,93.66 C 183.66,93.71 183.87,93.76 184.09,93.80 C 184.31,93.85 184.53,93.90 184.75,93.95 C 184.97,93.99 185.19,94.04 185.41,94.09 C 185.63,94.13 185.85,94.18 186.07,94.23 C 186.30,94.27 186.52,94.32 186.74,94.36 C 186.97,94.41 187.19,94.45 187.42,94.50 C 187.65,94.55 187.87,94.59 188.10,94.64 C 188.33,94.68 188.56,94.72 188.78,94.77 C 189.01,94.81 189.24,94.86 189.47,94.90 C 189.70,94.94 189.94,94.99 190.17,95.03 C 190.40,95.07 190.63,95.12 190.87,95.16 C 191.10,95.20 191.34,95.25 191.57,95.29 C 191.81,95.33 192.04,95.37 192.28,95.42 C 192.52,95.46 192.76,95.50 193.00,95.54 C 193.23,95.58 193.47,95.62 193.72,95.67 C 193.96,95.71 194.20,95.75 194.44,95.79 C 194.68,95.83 194.92,95.87 195.17,95.91 C 195.41,95.95 195.66,95.99 195.90,96.03 C 196.15,96.07 196.39,96.11 196.64,96.15 C 196.89,96.19 197.14,96.23 197.39,96.27 C 197.64,96.31 197.88,96.35 198.14,96.38 C 198.39,96.42 198.64,96.46 198.89,96.50 C 199.14,96.54 199.40,96.58 199.65,96.61 C 199.90,96.65 200.16,96.69 200.41,96.73 C 200.67,96.77 200.93,96.80 201.18,96.84 C 201.44,96.88 201.70,96.91 201.96,96.95 C 202.22,96.99 202.48,97.02 202.74,97.06 C 203.00,97.10 203.26,97.13 203.53,97.17 C 203.79,97.21 204.05,97.24 204.32,97.28 C 204.58,97.31 204.85,97.35 205.11,97.38 C 205.38,97.42 205.65,97.45 205.91,97.49 C 206.18,97.52 206.45,97.56 206.72,97.59 C 206.99,97.63 207.26,97.66 207.53,97.70 C 207.80,97.73 208.08,97.76 208.35,97.80 C 208.62,97.83 208.90,97.87 209.17,97.90 C 209.45,97.93 209.86,97.98 210.00,98.00" />
  </g>

  <!-- точка (1;3) -->
  <circle cx="130.00" cy="50.00" r="2.2" fill="#2d70b3" />

  <!-- подпись f(x) в (2;2) -->
  <text x="150" y="70"
        font-family="Georgia, 'Times New Roman', serif"
        font-style="italic"
        font-size="13"
        fill="#2d70b3">
    f(x)
  </text>

</svg>
