<svg xmlns="http://www.w3.org/2000/svg" width="220" height="220" viewBox="0 0 220 220">

  <rect x="0" y="0" width="220" height="220" fill="white" />

  <defs>
    <!-- стрелка для осей -->
    <marker id="axis-arrow"
            viewBox="0 0 15 8"
            refX="13" refY="4"
            markerWidth="12" markerHeight="6.4"
            orient="auto"
            markerUnits="userSpaceOnUse">
      <path d="M 3 0 L 15 4 L 3 8 L 7 4 Z"
            fill="black" />
    </marker>

    <!-- ограничение рисования гиперболы: x,y ∈ [-5.5;5.5] -->
    <clipPath id="clip-55">
      <rect x="18.33" y="18.33" width="183.33" height="183.33" />
    </clipPath>
  </defs>

  <!-- тонкая клетчатая сетка: по x и y от -6 до 6, без окаймления -->
  <g stroke="#d1d5db" stroke-width="0.5" shape-rendering="crispEdges">
    <line x1="26.67" y1="10" x2="26.67" y2="210" />
    <line x1="43.33" y1="10" x2="43.33" y2="210" />
    <line x1="60.00" y1="10" x2="60.00" y2="210" />
    <line x1="76.67" y1="10" x2="76.67" y2="210" />
    <line x1="93.33" y1="10" x2="93.33" y2="210" />
    <line x1="110.00" y1="10" x2="110.00" y2="210" />
    <line x1="126.67" y1="10" x2="126.67" y2="210" />
    <line x1="143.33" y1="10" x2="143.33" y2="210" />
    <line x1="160.00" y1="10" x2="160.00" y2="210" />
    <line x1="176.67" y1="10" x2="176.67" y2="210" />
    <line x1="193.33" y1="10" x2="193.33" y2="210" />
    <line x1="10" y1="193.33" x2="210" y2="193.33" />
    <line x1="10" y1="176.67" x2="210" y2="176.67" />
    <line x1="10" y1="160.00" x2="210" y2="160.00" />
    <line x1="10" y1="143.33" x2="210" y2="143.33" />
    <line x1="10" y1="126.67" x2="210" y2="126.67" />
    <line x1="10" y1="110.00" x2="210" y2="110.00" />
    <line x1="10" y1="93.33" x2="210" y2="93.33" />
    <line x1="10" y1="76.67" x2="210" y2="76.67" />
    <line x1="10" y1="60.00" x2="210" y2="60.00" />
    <line x1="10" y1="43.33" x2="210" y2="43.33" />
    <line x1="10" y1="26.67" x2="210" y2="26.67" />
  </g>

  <!-- оси x и y (0 находится в точке (110;110)) -->
  <g stroke="#111827" stroke-width="1.25">
    <line x1="10" y1="110" x2="210" y2="110"
          marker-end="url(#axis-arrow)" />
    <line x1="110" y1="210" x2="110" y2="10"
          marker-end="url(#axis-arrow)" />
  </g>

  <!-- подписи осей и делений -->
  <g font-family="sans-serif" font-size="11" fill="#111827">
    <text x="106" y="123" text-anchor="end"
          font-size="13" font-style="italic"
          font-family="Georgia, 'Times New Roman', serif">O</text>

    <rect x="123.67" y="112.00" width="7" height="12" fill="white" />
    <text x="126.67" y="123.00" text-anchor="middle" font-size="13"
          font-family="'Times New Roman', serif"
          font-weight="300">1</text>

    <text x="105.00" y="97.33" text-anchor="end" font-size="13"
          font-family="'Times New Roman', serif"
          font-weight="300">1</text>

    <text x="208.67" y="123.00" text-anchor="start"
          font-family="Georgia, 'Times New Roman', serif"
          font-style="italic" font-size="13">x</text>

    <text x="107.00" y="11.33" text-anchor="end"
          font-family="Georgia, 'Times New Roman', serif"
          font-style="italic" font-size="13">y</text>
  </g>

  <!-- гипербола y = k/x, k=-4 (гладкая интерполяция); обрезана по окну [-5.5;5.5]×[-5.5;5.5] -->
  <g stroke="#2d70b3" stroke-width="1.25" fill="none"
     stroke-linecap="round" stroke-linejoin="round"
     clip-path="url(#clip-55)">
    <path d="M 18.33,97.88 C 18.40,97.87 18.61,97.84 18.75,97.82 C 18.89,97.80 19.03,97.79 19.17,97.77 C 19.31,97.75 19.45,97.73 19.59,97.71 C 19.73,97.69 19.87,97.67 20.01,97.65 C 20.15,97.63 20.28,97.62 20.42,97.60 C 20.56,97.58 20.70,97.56 20.83,97.54 C 20.97,97.52 21.11,97.50 21.25,97.48 C 21.38,97.46 21.52,97.44 21.66,97.42 C 21.79,97.40 21.93,97.38 22.06,97.36 C 22.20,97.35 22.34,97.33 22.47,97.31 C 22.61,97.29 22.74,97.27 22.88,97.25 C 23.01,97.23 23.14,97.21 23.28,97.19 C 23.41,97.17 23.55,97.15 23.68,97.13 C 23.81,97.11 23.95,97.09 24.08,97.07 C 24.21,97.05 24.35,97.03 24.48,97.01 C 24.61,96.99 24.74,96.97 24.88,96.95 C 25.01,96.93 25.14,96.91 25.27,96.89 C 25.40,96.87 25.54,96.85 25.67,96.82 C 25.80,96.80 25.93,96.78 26.06,96.76 C 26.19,96.74 26.32,96.72 26.45,96.70 C 26.58,96.68 26.71,96.66 26.84,96.64 C 26.97,96.62 27.10,96.60 27.23,96.58 C 27.36,96.56 27.49,96.53 27.61,96.51 C 27.74,96.49 27.87,96.47 28.00,96.45 C 28.13,96.43 28.25,96.41 28.38,96.39 C 28.51,96.37 28.64,96.34 28.76,96.32 C 28.89,96.30 29.02,96.28 29.14,96.26 C 29.27,96.24 29.40,96.22 29.52,96.19 C 29.65,96.17 29.77,96.15 29.90,96.13 C 30.03,96.11 30.15,96.08 30.28,96.06 C 30.40,96.04 30.53,96.02 30.65,96.00 C 30.77,95.98 30.90,95.95 31.02,95.93 C 31.15,95.91 31.27,95.89 31.39,95.86 C 31.52,95.84 31.64,95.82 31.76,95.80 C 31.89,95.78 32.01,95.75 32.13,95.73 C 32.25,95.71 32.38,95.69 32.50,95.66 C 32.62,95.64 32.74,95.62 32.86,95.60 C 32.99,95.57 33.11,95.55 33.23,95.53 C 33.35,95.50 33.47,95.48 33.59,95.46 C 33.71,95.44 33.83,95.41 33.95,95.39 C 34.07,95.37 34.19,95.34 34.31,95.32 C 34.43,95.30 34.55,95.27 34.67,95.25 C 34.79,95.23 34.91,95.20 35.03,95.18 C 35.14,95.16 35.26,95.13 35.38,95.11 C 35.50,95.09 35.62,95.06 35.73,95.04 C 35.85,95.02 35.97,94.99 36.09,94.97 C 36.20,94.94 36.32,94.92 36.44,94.90 C 36.55,94.87 36.67,94.85 36.79,94.82 C 36.90,94.80 37.02,94.78 37.13,94.75 C 37.25,94.73 37.37,94.70 37.48,94.68 C 37.60,94.65 37.71,94.63 37.83,94.61 C 37.94,94.58 38.05,94.56 38.17,94.53 C 38.28,94.51 38.40,94.48 38.51,94.46 C 38.62,94.43 38.74,94.41 38.85,94.38 C 38.96,94.36 39.08,94.33 39.19,94.31 C 39.30,94.28 39.42,94.26 39.53,94.23 C 39.64,94.21 39.75,94.18 39.87,94.16 C 39.98,94.13 40.09,94.11 40.20,94.08 C 40.31,94.06 40.42,94.03 40.53,94.00 C 40.64,93.98 40.76,93.95 40.87,93.93 C 40.98,93.90 41.09,93.88 41.20,93.85 C 41.31,93.82 41.42,93.80 41.53,93.77 C 41.64,93.75 41.75,93.72 41.85,93.69 C 41.96,93.67 42.07,93.64 42.18,93.62 C 42.29,93.59 42.40,93.56 42.51,93.54 C 42.61,93.51 42.72,93.48 42.83,93.46 C 42.94,93.43 43.05,93.40 43.15,93.38 C 43.26,93.35 43.37,93.32 43.47,93.30 C 43.58,93.27 43.69,93.24 43.79,93.22 C 43.90,93.19 44.01,93.16 44.11,93.14 C 44.22,93.11 44.32,93.08 44.43,93.05 C 44.54,93.03 44.64,93.00 44.75,92.97 C 44.85,92.95 44.96,92.92 45.06,92.89 C 45.16,92.86 45.27,92.83 45.37,92.81 C 45.48,92.78 45.58,92.75 45.69,92.72 C 45.79,92.70 45.89,92.67 46.00,92.64 C 46.10,92.61 46.20,92.58 46.30,92.56 C 46.41,92.53 46.51,92.50 46.61,92.47 C 46.71,92.44 46.82,92.41 46.92,92.39 C 47.02,92.36 47.12,92.33 47.22,92.30 C 47.33,92.27 47.43,92.24 47.53,92.21 C 47.63,92.19 47.73,92.16 47.83,92.13 C 47.93,92.10 48.03,92.07 48.13,92.04 C 48.23,92.01 48.33,91.98 48.43,91.95 C 48.53,91.92 48.63,91.89 48.73,91.87 C 48.83,91.84 48.93,91.81 49.03,91.78 C 49.13,91.75 49.22,91.72 49.32,91.69 C 49.42,91.66 49.52,91.63 49.62,91.60 C 49.72,91.57 49.81,91.54 49.91,91.51 C 50.01,91.48 50.11,91.45 50.20,91.42 C 50.30,91.39 50.40,91.36 50.49,91.33 C 50.59,91.30 50.69,91.27 50.78,91.24 C 50.88,91.21 50.98,91.18 51.07,91.14 C 51.17,91.11 51.26,91.08 51.36,91.05 C 51.45,91.02 51.55,90.99 51.64,90.96 C 51.74,90.93 51.83,90.90 51.93,90.87 C 52.02,90.84 52.12,90.80 52.21,90.77 C 52.31,90.74 52.40,90.71 52.49,90.68 C 52.59,90.65 52.68,90.62 52.77,90.58 C 52.87,90.55 52.96,90.52 53.05,90.49 C 53.15,90.46 53.24,90.42 53.33,90.39 C 53.42,90.36 53.52,90.33 53.61,90.30 C 53.70,90.26 53.79,90.23 53.88,90.20 C 53.98,90.17 54.07,90.14 54.16,90.10 C 54.25,90.07 54.34,90.04 54.43,90.00 C 54.52,89.97 54.61,89.94 54.70,89.91 C 54.79,89.87 54.88,89.84 54.97,89.81 C 55.06,89.77 55.15,89.74 55.24,89.71 C 55.33,89.68 55.42,89.64 55.51,89.61 C 55.60,89.58 55.69,89.54 55.78,89.51 C 55.87,89.47 55.96,89.44 56.04,89.41 C 56.13,89.37 56.22,89.34 56.31,89.31 C 56.40,89.27 56.48,89.24 56.57,89.20 C 56.66,89.17 56.75,89.14 56.83,89.10 C 56.92,89.07 57.01,89.03 57.09,89.00 C 57.18,88.96 57.27,88.93 57.35,88.89 C 57.44,88.86 57.53,88.83 57.61,88.79 C 57.70,88.76 57.78,88.72 57.87,88.69 C 57.96,88.65 58.04,88.62 58.13,88.58 C 58.21,88.55 58.30,88.51 58.38,88.47 C 58.47,88.44 58.55,88.40 58.64,88.37 C 58.72,88.33 58.80,88.30 58.89,88.26 C 58.97,88.23 59.06,88.19 59.14,88.15 C 59.22,88.12 59.31,88.08 59.39,88.05 C 59.47,88.01 59.56,87.97 59.64,87.94 C 59.72,87.90 59.80,87.86 59.89,87.83 C 59.97,87.79 60.05,87.76 60.13,87.72 C 60.22,87.68 60.30,87.64 60.38,87.61 C 60.46,87.57 60.54,87.53 60.62,87.50 C 60.70,87.46 60.79,87.42 60.87,87.39 C 60.95,87.35 61.03,87.31 61.11,87.27 C 61.19,87.24 61.27,87.20 61.35,87.16 C 61.43,87.12 61.51,87.09 61.59,87.05 C 61.67,87.01 61.75,86.97 61.83,86.93 C 61.91,86.90 61.99,86.86 62.07,86.82 C 62.14,86.78 62.22,86.74 62.30,86.71 C 62.38,86.67 62.46,86.63 62.54,86.59 C 62.62,86.55 62.69,86.51 62.77,86.47 C 62.85,86.43 62.93,86.40 63.00,86.36 C 63.08,86.32 63.16,86.28 63.24,86.24 C 63.31,86.20 63.39,86.16 63.47,86.12 C 63.54,86.08 63.62,86.04 63.70,86.00 C 63.77,85.96 63.85,85.92 63.93,85.88 C 64.00,85.84 64.08,85.80 64.15,85.76 C 64.23,85.72 64.30,85.68 64.38,85.64 C 64.46,85.60 64.53,85.56 64.61,85.52 C 64.68,85.48 64.75,85.44 64.83,85.40 C 64.90,85.36 64.98,85.32 65.05,85.28 C 65.13,85.24 65.20,85.20 65.27,85.16 C 65.35,85.12 65.42,85.08 65.50,85.03 C 65.57,84.99 65.64,84.95 65.72,84.91 C 65.79,84.87 65.86,84.83 65.93,84.79 C 66.01,84.74 66.08,84.70 66.15,84.66 C 66.22,84.62 66.30,84.58 66.37,84.53 C 66.44,84.49 66.51,84.45 66.58,84.41 C 66.66,84.37 66.73,84.32 66.80,84.28 C 66.87,84.24 66.94,84.20 67.01,84.15 C 67.08,84.11 67.15,84.07 67.22,84.02 C 67.29,83.98 67.36,83.94 67.44,83.90 C 67.51,83.85 67.58,83.81 67.65,83.77 C 67.72,83.72 67.79,83.68 67.85,83.64 C 67.92,83.59 67.99,83.55 68.06,83.51 C 68.13,83.46 68.20,83.42 68.27,83.37 C 68.34,83.33 68.41,83.29 68.48,83.24 C 68.54,83.20 68.61,83.15 68.68,83.11 C 68.75,83.06 68.82,83.02 68.88,82.98 C 68.95,82.93 69.02,82.89 69.09,82.84 C 69.16,82.80 69.22,82.75 69.29,82.71 C 69.36,82.66 69.42,82.62 69.49,82.57 C 69.56,82.53 69.62,82.48 69.69,82.44 C 69.76,82.39 69.82,82.34 69.89,82.30 C 69.96,82.25 70.02,82.21 70.09,82.16 C 70.15,82.12 70.22,82.07 70.28,82.02 C 70.35,81.98 70.41,81.93 70.48,81.88 C 70.54,81.84 70.61,81.79 70.67,81.75 C 70.74,81.70 70.80,81.65 70.87,81.61 C 70.93,81.56 71.00,81.51 71.06,81.47 C 71.13,81.42 71.19,81.37 71.25,81.32 C 71.32,81.28 71.38,81.23 71.44,81.18 C 71.51,81.13 71.57,81.09 71.63,81.04 C 71.70,80.99 71.76,80.94 71.82,80.90 C 71.89,80.85 71.95,80.80 72.01,80.75 C 72.07,80.70 72.14,80.66 72.20,80.61 C 72.26,80.56 72.32,80.51 72.38,80.46 C 72.45,80.41 72.51,80.37 72.57,80.32 C 72.63,80.27 72.69,80.22 72.75,80.17 C 72.81,80.12 72.87,80.07 72.94,80.02 C 73.00,79.97 73.06,79.92 73.12,79.87 C 73.18,79.83 73.24,79.78 73.30,79.73 C 73.36,79.68 73.42,79.63 73.48,79.58 C 73.54,79.53 73.60,79.48 73.66,79.43 C 73.72,79.38 73.78,79.33 73.84,79.28 C 73.90,79.23 73.95,79.18 74.01,79.12 C 74.07,79.07 74.13,79.02 74.19,78.97 C 74.25,78.92 74.31,78.87 74.36,78.82 C 74.42,78.77 74.48,78.72 74.54,78.67 C 74.60,78.62 74.65,78.56 74.71,78.51 C 74.77,78.46 74.83,78.41 74.89,78.36 C 74.94,78.31 75.00,78.25 75.06,78.20 C 75.11,78.15 75.17,78.10 75.23,78.05 C 75.28,77.99 75.34,77.94 75.40,77.89 C 75.45,77.84 75.51,77.78 75.57,77.73 C 75.62,77.68 75.68,77.63 75.73,77.57 C 75.79,77.52 75.85,77.47 75.90,77.42 C 75.96,77.36 76.01,77.31 76.07,77.26 C 76.12,77.20 76.18,77.15 76.23,77.10 C 76.29,77.04 76.34,76.99 76.40,76.93 C 76.45,76.88 76.51,76.83 76.56,76.77 C 76.61,76.72 76.67,76.66 76.72,76.61 C 76.78,76.56 76.83,76.50 76.88,76.45 C 76.94,76.39 76.99,76.34 77.04,76.28 C 77.10,76.23 77.15,76.17 77.20,76.12 C 77.26,76.06 77.31,76.01 77.36,75.95 C 77.42,75.90 77.47,75.84 77.52,75.79 C 77.57,75.73 77.63,75.68 77.68,75.62 C 77.73,75.57 77.78,75.51 77.84,75.46 C 77.89,75.40 77.94,75.34 77.99,75.29 C 78.04,75.23 78.09,75.18 78.15,75.12 C 78.20,75.06 78.25,75.01 78.30,74.95 C 78.35,74.89 78.40,74.84 78.45,74.78 C 78.50,74.72 78.55,74.67 78.60,74.61 C 78.65,74.55 78.70,74.50 78.75,74.44 C 78.80,74.38 78.85,74.32 78.90,74.27 C 78.95,74.21 79.00,74.15 79.05,74.09 C 79.10,74.04 79.15,73.98 79.20,73.92 C 79.25,73.86 79.30,73.81 79.35,73.75 C 79.40,73.69 79.45,73.63 79.50,73.57 C 79.55,73.52 79.59,73.46 79.64,73.40 C 79.69,73.34 79.74,73.28 79.79,73.22 C 79.84,73.16 79.88,73.10 79.93,73.05 C 79.98,72.99 80.03,72.93 80.08,72.87 C 80.12,72.81 80.17,72.75 80.22,72.69 C 80.27,72.63 80.31,72.57 80.36,72.51 C 80.41,72.45 80.45,72.39 80.50,72.33 C 80.55,72.27 80.60,72.21 80.64,72.15 C 80.69,72.09 80.73,72.03 80.78,71.97 C 80.83,71.91 80.87,71.85 80.92,71.79 C 80.97,71.73 81.01,71.67 81.06,71.61 C 81.10,71.55 81.15,71.49 81.19,71.43 C 81.24,71.37 81.29,71.31 81.33,71.24 C 81.38,71.18 81.42,71.12 81.47,71.06 C 81.51,71.00 81.56,70.94 81.60,70.88 C 81.64,70.81 81.69,70.75 81.73,70.69 C 81.78,70.63 81.82,70.57 81.87,70.51 C 81.91,70.44 81.96,70.38 82.00,70.32 C 82.04,70.26 82.09,70.19 82.13,70.13 C 82.17,70.07 82.22,70.01 82.26,69.94 C 82.30,69.88 82.35,69.82 82.39,69.76 C 82.43,69.69 82.48,69.63 82.52,69.57 C 82.56,69.50 82.61,69.44 82.65,69.38 C 82.69,69.31 82.73,69.25 82.78,69.19 C 82.82,69.12 82.86,69.06 82.90,69.00 C 82.94,68.93 82.99,68.87 83.03,68.81 C 83.07,68.74 83.11,68.68 83.15,68.61 C 83.19,68.55 83.24,68.49 83.28,68.42 C 83.32,68.36 83.36,68.29 83.40,68.23 C 83.44,68.16 83.48,68.10 83.52,68.03 C 83.56,67.97 83.61,67.90 83.65,67.84 C 83.69,67.77 83.73,67.71 83.77,67.64 C 83.81,67.58 83.85,67.51 83.89,67.45 C 83.93,67.38 83.97,67.32 84.01,67.25 C 84.05,67.19 84.09,67.12 84.13,67.06 C 84.17,66.99 84.21,66.92 84.24,66.86 C 84.28,66.79 84.32,66.73 84.36,66.66 C 84.40,66.59 84.44,66.53 84.48,66.46 C 84.52,66.40 84.56,66.33 84.60,66.26 C 84.63,66.20 84.67,66.13 84.71,66.06 C 84.75,66.00 84.79,65.93 84.83,65.86 C 84.86,65.80 84.90,65.73 84.94,65.66 C 84.98,65.60 85.02,65.53 85.05,65.46 C 85.09,65.39 85.13,65.33 85.17,65.26 C 85.20,65.19 85.24,65.12 85.28,65.06 C 85.31,64.99 85.35,64.92 85.39,64.85 C 85.43,64.79 85.46,64.72 85.50,64.65 C 85.54,64.58 85.57,64.51 85.61,64.45 C 85.64,64.38 85.68,64.31 85.72,64.24 C 85.75,64.17 85.79,64.11 85.83,64.04 C 85.86,63.97 85.90,63.90 85.93,63.83 C 85.97,63.76 86.00,63.69 86.04,63.63 C 86.08,63.56 86.11,63.49 86.15,63.42 C 86.18,63.35 86.22,63.28 86.25,63.21 C 86.29,63.14 86.32,63.07 86.36,63.01 C 86.39,62.94 86.43,62.87 86.46,62.80 C 86.50,62.73 86.53,62.66 86.56,62.59 C 86.60,62.52 86.63,62.45 86.67,62.38 C 86.70,62.31 86.74,62.24 86.77,62.17 C 86.80,62.10 86.84,62.03 86.87,61.96 C 86.90,61.89 86.94,61.82 86.97,61.75 C 87.00,61.68 87.04,61.61 87.07,61.54 C 87.10,61.47 87.14,61.40 87.17,61.33 C 87.20,61.26 87.24,61.19 87.27,61.12 C 87.30,61.05 87.34,60.98 87.37,60.91 C 87.40,60.84 87.43,60.76 87.47,60.69 C 87.50,60.62 87.53,60.55 87.56,60.48 C 87.59,60.41 87.63,60.34 87.66,60.27 C 87.69,60.20 87.72,60.13 87.75,60.05 C 87.79,59.98 87.82,59.91 87.85,59.84 C 87.88,59.77 87.91,59.70 87.94,59.63 C 87.97,59.55 88.01,59.48 88.04,59.41 C 88.07,59.34 88.10,59.27 88.13,59.20 C 88.16,59.12 88.19,59.05 88.22,58.98 C 88.25,58.91 88.28,58.84 88.31,58.77 C 88.34,58.69 88.37,58.62 88.40,58.55 C 88.43,58.48 88.46,58.41 88.49,58.33 C 88.52,58.26 88.55,58.19 88.58,58.12 C 88.61,58.04 88.64,57.97 88.67,57.90 C 88.70,57.83 88.73,57.76 88.76,57.68 C 88.79,57.61 88.82,57.54 88.85,57.47 C 88.88,57.39 88.91,57.32 88.94,57.25 C 88.97,57.17 89.00,57.10 89.02,57.03 C 89.05,56.96 89.08,56.88 89.11,56.81 C 89.14,56.74 89.17,56.67 89.20,56.59 C 89.22,56.52 89.25,56.45 89.28,56.37 C 89.31,56.30 89.34,56.23 89.36,56.15 C 89.39,56.08 89.42,56.01 89.45,55.94 C 89.48,55.86 89.50,55.79 89.53,55.72 C 89.56,55.64 89.59,55.57 89.61,55.50 C 89.64,55.42 89.67,55.35 89.70,55.28 C 89.72,55.20 89.75,55.13 89.78,55.06 C 89.80,54.98 89.83,54.91 89.86,54.84 C 89.88,54.76 89.91,54.69 89.94,54.62 C 89.96,54.54 89.99,54.47 90.02,54.40 C 90.04,54.32 90.07,54.25 90.10,54.17 C 90.12,54.10 90.15,54.03 90.17,53.95 C 90.20,53.88 90.23,53.81 90.25,53.73 C 90.28,53.66 90.30,53.59 90.33,53.51 C 90.36,53.44 90.38,53.36 90.41,53.29 C 90.43,53.22 90.46,53.14 90.48,53.07 C 90.51,53.00 90.53,52.92 90.56,52.85 C 90.58,52.77 90.61,52.70 90.63,52.63 C 90.66,52.55 90.68,52.48 90.71,52.41 C 90.73,52.33 90.76,52.26 90.78,52.18 C 90.81,52.11 90.83,52.04 90.86,51.96 C 90.88,51.89 90.90,51.82 90.93,51.74 C 90.95,51.67 90.98,51.59 91.00,51.52 C 91.02,51.45 91.05,51.37 91.07,51.30 C 91.10,51.22 91.12,51.15 91.14,51.08 C 91.17,51.00 91.19,50.93 91.21,50.85 C 91.24,50.78 91.26,50.71 91.28,50.63 C 91.31,50.56 91.33,50.49 91.35,50.41 C 91.38,50.34 91.40,50.26 91.42,50.19 C 91.45,50.12 91.47,50.04 91.49,49.97 C 91.51,49.90 91.54,49.82 91.56,49.75 C 91.58,49.67 91.60,49.60 91.63,49.53 C 91.65,49.45 91.67,49.38 91.69,49.31 C 91.72,49.23 91.74,49.16 91.76,49.08 C 91.78,49.01 91.80,48.94 91.83,48.86 C 91.85,48.79 91.87,48.72 91.89,48.64 C 91.91,48.57 91.93,48.50 91.96,48.42 C 91.98,48.35 92.00,48.28 92.02,48.20 C 92.04,48.13 92.06,48.06 92.08,47.98 C 92.11,47.91 92.13,47.84 92.15,47.76 C 92.17,47.69 92.19,47.62 92.21,47.54 C 92.23,47.47 92.25,47.40 92.27,47.32 C 92.29,47.25 92.31,47.18 92.33,47.10 C 92.36,47.03 92.38,46.96 92.40,46.88 C 92.42,46.81 92.44,46.74 92.46,46.66 C 92.48,46.59 92.50,46.52 92.52,46.45 C 92.54,46.37 92.56,46.30 92.58,46.23 C 92.60,46.15 92.62,46.08 92.64,46.01 C 92.66,45.94 92.68,45.86 92.70,45.79 C 92.71,45.72 92.73,45.65 92.75,45.57 C 92.77,45.50 92.79,45.43 92.81,45.36 C 92.83,45.28 92.85,45.21 92.87,45.14 C 92.89,45.07 92.91,45.00 92.93,44.92 C 92.95,44.85 92.96,44.78 92.98,44.71 C 93.00,44.63 93.02,44.56 93.04,44.49 C 93.06,44.42 93.08,44.35 93.09,44.28 C 93.11,44.20 93.13,44.13 93.15,44.06 C 93.17,43.99 93.19,43.92 93.20,43.85 C 93.22,43.77 93.24,43.70 93.26,43.63 C 93.28,43.56 93.29,43.49 93.31,43.42 C 93.33,43.35 93.35,43.27 93.37,43.20 C 93.38,43.13 93.40,43.06 93.42,42.99 C 93.44,42.92 93.45,42.85 93.47,42.78 C 93.49,42.71 93.51,42.64 93.52,42.57 C 93.54,42.50 93.56,42.43 93.57,42.35 C 93.59,42.28 93.61,42.21 93.63,42.14 C 93.64,42.07 93.66,42.00 93.68,41.93 C 93.69,41.86 93.71,41.79 93.73,41.72 C 93.74,41.65 93.76,41.58 93.78,41.51 C 93.79,41.44 93.81,41.37 93.83,41.30 C 93.84,41.24 93.86,41.17 93.87,41.10 C 93.89,41.03 93.91,40.96 93.92,40.89 C 93.94,40.82 93.96,40.75 93.97,40.68 C 93.99,40.61 94.00,40.54 94.02,40.47 C 94.03,40.41 94.05,40.34 94.07,40.27 C 94.08,40.20 94.10,40.13 94.11,40.06 C 94.13,39.99 94.14,39.93 94.16,39.86 C 94.17,39.79 94.19,39.72 94.20,39.65 C 94.22,39.59 94.24,39.52 94.25,39.45 C 94.27,39.38 94.28,39.32 94.30,39.25 C 94.31,39.18 94.33,39.11 94.34,39.05 C 94.36,38.98 94.37,38.91 94.38,38.84 C 94.40,38.78 94.41,38.71 94.43,38.64 C 94.44,38.58 94.46,38.51 94.47,38.44 C 94.49,38.38 94.50,38.31 94.52,38.24 C 94.53,38.18 94.54,38.11 94.56,38.05 C 94.57,37.98 94.59,37.91 94.60,37.85 C 94.61,37.78 94.63,37.72 94.64,37.65 C 94.66,37.59 94.67,37.52 94.68,37.45 C 94.70,37.39 94.71,37.32 94.73,37.26 C 94.74,37.19 94.75,37.13 94.77,37.06 C 94.78,37.00 94.79,36.93 94.81,36.87 C 94.82,36.81 94.83,36.74 94.85,36.68 C 94.86,36.61 94.87,36.55 94.89,36.48 C 94.90,36.42 94.91,36.36 94.93,36.29 C 94.94,36.23 94.95,36.17 94.96,36.10 C 94.98,36.04 94.99,35.98 95.00,35.91 C 95.02,35.85 95.03,35.79 95.04,35.72 C 95.05,35.66 95.07,35.60 95.08,35.54 C 95.09,35.47 95.10,35.41 95.12,35.35 C 95.13,35.29 95.14,35.22 95.15,35.16 C 95.17,35.10 95.18,35.04 95.19,34.98 C 95.20,34.91 95.21,34.85 95.23,34.79 C 95.24,34.73 95.25,34.67 95.26,34.61 C 95.27,34.55 95.29,34.49 95.30,34.42 C 95.31,34.36 95.32,34.30 95.33,34.24 C 95.34,34.18 95.36,34.12 95.37,34.06 C 95.38,34.00 95.39,33.94 95.40,33.88 C 95.41,33.82 95.43,33.76 95.44,33.70 C 95.45,33.64 95.46,33.58 95.47,33.53 C 95.48,33.47 95.49,33.41 95.50,33.35 C 95.52,33.29 95.53,33.23 95.54,33.17 C 95.55,33.11 95.56,33.06 95.57,33.00 C 95.58,32.94 95.59,32.88 95.60,32.82 C 95.61,32.77 95.62,32.71 95.64,32.65 C 95.65,32.59 95.66,32.54 95.67,32.48 C 95.68,32.42 95.69,32.36 95.70,32.31 C 95.71,32.25 95.72,32.19 95.73,32.14 C 95.74,32.08 95.75,32.02 95.76,31.97 C 95.77,31.91 95.78,31.86 95.79,31.80 C 95.80,31.74 95.81,31.69 95.82,31.63 C 95.83,31.58 95.84,31.52 95.85,31.47 C 95.86,31.41 95.87,31.36 95.88,31.30 C 95.89,31.25 95.90,31.19 95.91,31.14 C 95.92,31.08 95.93,31.03 95.94,30.98 C 95.95,30.92 95.96,30.87 95.97,30.81 C 95.98,30.76 95.99,30.71 96.00,30.65 C 96.01,30.60 96.02,30.55 96.02,30.49 C 96.03,30.44 96.04,30.39 96.05,30.34 C 96.06,30.28 96.07,30.23 96.08,30.18 C 96.09,30.13 96.10,30.07 96.11,30.02 C 96.12,29.97 96.13,29.92 96.13,29.87 C 96.14,29.82 96.15,29.76 96.16,29.71 C 96.17,29.66 96.18,29.61 96.19,29.56 C 96.20,29.51 96.20,29.46 96.21,29.41 C 96.22,29.36 96.23,29.31 96.24,29.26 C 96.25,29.21 96.26,29.16 96.26,29.11 C 96.27,29.06 96.28,29.01 96.29,28.96 C 96.30,28.91 96.31,28.86 96.31,28.81 C 96.32,28.77 96.33,28.72 96.34,28.67 C 96.35,28.62 96.35,28.57 96.36,28.52 C 96.37,28.47 96.38,28.43 96.39,28.38 C 96.39,28.33 96.40,28.28 96.41,28.24 C 96.42,28.19 96.43,28.14 96.43,28.10 C 96.44,28.05 96.45,28.00 96.46,27.96 C 96.46,27.91 96.47,27.86 96.48,27.82 C 96.49,27.77 96.50,27.72 96.50,27.68 C 96.51,27.63 96.52,27.59 96.53,27.54 C 96.53,27.50 96.54,27.45 96.55,27.41 C 96.55,27.36 96.56,27.32 96.57,27.27 C 96.58,27.23 96.58,27.18 96.59,27.14 C 96.60,27.09 96.61,27.05 96.61,27.01 C 96.62,26.96 96.63,26.92 96.63,26.88 C 96.64,26.83 96.65,26.79 96.65,26.75 C 96.66,26.70 96.67,26.66 96.67,26.62 C 96.68,26.57 96.69,26.53 96.69,26.49 C 96.70,26.45 96.71,26.41 96.72,26.36 C 96.72,26.32 96.73,26.28 96.73,26.24 C 96.74,26.20 96.75,26.16 96.75,26.11 C 96.76,26.07 96.77,26.03 96.77,25.99 C 96.78,25.95 96.79,25.91 96.79,25.87 C 96.80,25.83 96.81,25.79 96.81,25.75 C 96.82,25.71 96.82,25.67 96.83,25.63 C 96.84,25.59 96.84,25.55 96.85,25.51 C 96.85,25.47 96.86,25.44 96.87,25.40 C 96.87,25.36 96.88,25.32 96.88,25.28 C 96.89,25.24 96.90,25.20 96.90,25.17 C 96.91,25.13 96.91,25.09 96.92,25.05 C 96.93,25.02 96.93,24.98 96.94,24.94 C 96.94,24.90 96.95,24.87 96.95,24.83 C 96.96,24.79 96.97,24.76 96.97,24.72 C 96.98,24.68 96.98,24.65 96.99,24.61 C 96.99,24.58 97.00,24.54 97.00,24.50 C 97.01,24.47 97.01,24.43 97.02,24.40 C 97.03,24.36 97.03,24.33 97.04,24.29 C 97.04,24.26 97.05,24.22 97.05,24.19 C 97.06,24.15 97.06,24.12 97.07,24.09 C 97.07,24.05 97.08,24.02 97.08,23.98 C 97.09,23.95 97.09,23.92 97.10,23.88 C 97.10,23.85 97.11,23.82 97.11,23.79 C 97.12,23.75 97.12,23.72 97.13,23.69 C 97.13,23.65 97.14,23.62 97.14,23.59 C 97.15,23.56 97.15,23.53 97.16,23.49 C 97.16,23.46 97.17,23.43 97.17,23.40 C 97.17,23.37 97.18,23.34 97.18,23.31 C 97.19,23.27 97.19,23.24 97.20,23.21 C 97.20,23.18 97.21,23.15 97.21,23.12 C 97.22,23.09 97.22,23.06 97.22,23.03 C 97.23,23.00 97.23,22.97 97.24,22.94 C 97.24,22.91 97.25,22.88 97.25,22.85 C 97.25,22.83 97.26,22.80 97.26,22.77 C 97.27,22.74 97.27,22.71 97.28,22.68 C 97.28,22.65 97.28,22.63 97.29,22.60 C 97.29,22.57 97.30,22.54 97.30,22.51 C 97.30,22.49 97.31,22.46 97.31,22.43 C 97.32,22.40 97.32,22.38 97.32,22.35 C 97.33,22.32 97.33,22.30 97.33,22.27 C 97.34,22.24 97.34,22.22 97.35,22.19 C 97.35,22.16 97.35,22.14 97.36,22.11 C 97.36,22.09 97.37,22.06 97.37,22.04 C 97.37,22.01 97.38,21.98 97.38,21.96 C 97.38,21.93 97.39,21.91 97.39,21.88 C 97.39,21.86 97.40,21.83 97.40,21.81 C 97.40,21.79 97.41,21.76 97.41,21.74 C 97.41,21.71 97.42,21.69 97.42,21.67 C 97.42,21.64 97.43,21.62 97.43,21.59 C 97.43,21.57 97.44,21.55 97.44,21.52 C 97.44,21.50 97.45,21.48 97.45,21.46 C 97.45,21.43 97.46,21.41 97.46,21.39 C 97.46,21.37 97.47,21.34 97.47,21.32 C 97.47,21.30 97.48,21.28 97.48,21.26 C 97.48,21.23 97.49,21.21 97.49,21.19 C 97.49,21.17 97.49,21.15 97.50,21.13 C 97.50,21.11 97.50,21.09 97.51,21.06 C 97.51,21.04 97.51,21.02 97.52,21.00 C 97.52,20.98 97.52,20.96 97.52,20.94 C 97.53,20.92 97.53,20.90 97.53,20.88 C 97.53,20.86 97.54,20.84 97.54,20.82 C 97.54,20.80 97.55,20.78 97.55,20.76 C 97.55,20.75 97.55,20.73 97.56,20.71 C 97.56,20.69 97.56,20.67 97.56,20.65 C 97.57,20.63 97.57,20.61 97.57,20.60 C 97.57,20.58 97.58,20.56 97.58,20.54 C 97.58,20.52 97.58,20.51 97.59,20.49 C 97.59,20.47 97.59,20.45 97.59,20.44 C 97.60,20.42 97.60,20.40 97.60,20.38 C 97.60,20.37 97.61,20.35 97.61,20.33 C 97.61,20.32 97.61,20.30 97.62,20.28 C 97.62,20.27 97.62,20.25 97.62,20.23 C 97.62,20.22 97.63,20.20 97.63,20.19 C 97.63,20.17 97.63,20.15 97.64,20.14 C 97.64,20.12 97.64,20.11 97.64,20.09 C 97.64,20.08 97.65,20.06 97.65,20.05 C 97.65,20.03 97.65,20.02 97.65,20.00 C 97.66,19.99 97.66,19.97 97.66,19.96 C 97.66,19.94 97.66,19.93 97.67,19.92 C 97.67,19.90 97.67,19.89 97.67,19.87 C 97.67,19.86 97.68,19.85 97.68,19.83 C 97.68,19.82 97.68,19.80 97.68,19.79 C 97.68,19.78 97.69,19.76 97.69,19.75 C 97.69,19.74 97.69,19.72 97.69,19.71 C 97.70,19.70 97.70,19.69 97.70,19.67 C 97.70,19.66 97.70,19.65 97.70,19.64 C 97.71,19.62 97.71,19.61 97.71,19.60 C 97.71,19.59 97.71,19.57 97.71,19.56 C 97.72,19.55 97.72,19.54 97.72,19.53 C 97.72,19.52 97.72,19.50 97.72,19.49 C 97.73,19.48 97.73,19.47 97.73,19.46 C 97.73,19.45 97.73,19.44 97.73,19.43 C 97.73,19.41 97.74,19.40 97.74,19.39 C 97.74,19.38 97.74,19.37 97.74,19.36 C 97.74,19.35 97.74,19.34 97.75,19.33 C 97.75,19.32 97.75,19.31 97.75,19.30 C 97.75,19.29 97.75,19.28 97.75,19.27 C 97.76,19.26 97.76,19.25 97.76,19.24 C 97.76,19.23 97.76,19.22 97.76,19.21 C 97.76,19.20 97.76,19.19 97.77,19.18 C 97.77,19.17 97.77,19.17 97.77,19.16 C 97.77,19.15 97.77,19.14 97.77,19.13 C 97.77,19.12 97.77,19.11 97.78,19.10 C 97.78,19.10 97.78,19.09 97.78,19.08 C 97.78,19.07 97.78,19.06 97.78,19.05 C 97.78,19.05 97.78,19.04 97.79,19.03 C 97.79,19.02 97.79,19.01 97.79,19.01 C 97.79,19.00 97.79,18.99 97.79,18.98 C 97.79,18.98 97.79,18.97 97.80,18.96 C 97.80,18.95 97.80,18.95 97.80,18.94 C 97.80,18.93 97.80,18.92 97.80,18.92 C 97.80,18.91 97.80,18.90 97.80,18.90 C 97.80,18.89 97.81,18.88 97.81,18.88 C 97.81,18.87 97.81,18.86 97.81,18.86 C 97.81,18.85 97.81,18.84 97.81,18.84 C 97.81,18.83 97.81,18.82 97.81,18.82 C 97.82,18.81 97.82,18.81 97.82,18.80 C 97.82,18.79 97.82,18.79 97.82,18.78 C 97.82,18.78 97.82,18.77 97.82,18.76 C 97.82,18.76 97.82,18.75 97.82,18.75 C 97.82,18.74 97.83,18.74 97.83,18.73 C 97.83,18.73 97.83,18.72 97.83,18.72 C 97.83,18.71 97.83,18.71 97.83,18.70 C 97.83,18.70 97.83,18.69 97.83,18.69 C 97.83,18.68 97.83,18.68 97.83,18.67 C 97.83,18.67 97.84,18.66 97.84,18.66 C 97.84,18.65 97.84,18.65 97.84,18.64 C 97.84,18.64 97.84,18.63 97.84,18.63 C 97.84,18.63 97.84,18.62 97.84,18.62 C 97.84,18.61 97.84,18.61 97.84,18.61 C 97.84,18.60 97.84,18.60 97.84,18.59 C 97.84,18.59 97.85,18.59 97.85,18.58 C 97.85,18.58 97.85,18.57 97.85,18.57 C 97.85,18.57 97.85,18.56 97.85,18.56 C 97.85,18.56 97.85,18.55 97.85,18.55 C 97.85,18.55 97.85,18.54 97.85,18.54 C 97.85,18.54 97.85,18.53 97.85,18.53 C 97.85,18.53 97.85,18.52 97.85,18.52 C 97.85,18.52 97.85,18.51 97.86,18.51 C 97.86,18.51 97.86,18.50 97.86,18.50 C 97.86,18.50 97.86,18.50 97.86,18.49 C 97.86,18.49 97.86,18.49 97.86,18.48 C 97.86,18.48 97.86,18.48 97.86,18.48 C 97.86,18.47 97.86,18.47 97.86,18.47 C 97.86,18.47 97.86,18.46 97.86,18.46 C 97.86,18.46 97.86,18.46 97.86,18.46 C 97.86,18.45 97.86,18.45 97.86,18.45 C 97.86,18.45 97.86,18.44 97.86,18.44 C 97.86,18.44 97.86,18.44 97.87,18.44 C 97.87,18.43 97.87,18.43 97.87,18.43 C 97.87,18.43 97.87,18.43 97.87,18.42 C 97.87,18.42 97.87,18.42 97.87,18.42 C 97.87,18.42 97.87,18.42 97.87,18.41 C 97.87,18.41 97.87,18.41 97.87,18.41 C 97.87,18.41 97.87,18.41 97.87,18.40 C 97.87,18.40 97.87,18.40 97.87,18.40 C 97.87,18.40 97.87,18.40 97.87,18.40 C 97.87,18.39 97.87,18.39 97.87,18.39 C 97.87,18.39 97.87,18.39 97.87,18.39 C 97.87,18.39 97.87,18.38 97.87,18.38 C 97.87,18.38 97.87,18.38 97.87,18.38 C 97.87,18.38 97.87,18.38 97.87,18.38 C 97.87,18.38 97.87,18.37 97.87,18.37 C 97.87,18.37 97.87,18.37 97.87,18.37 C 97.87,18.37 97.87,18.37 97.87,18.37 C 97.87,18.37 97.87,18.37 97.87,18.37 C 97.87,18.36 97.87,18.36 97.87,18.36 C 97.88,18.36 97.88,18.36 97.88,18.36 C 97.88,18.36 97.88,18.36 97.88,18.36 C 97.88,18.36 97.88,18.36 97.88,18.36 C 97.88,18.36 97.88,18.35 97.88,18.35 C 97.88,18.35 97.88,18.35 97.88,18.35 C 97.88,18.35 97.88,18.35 97.88,18.35 C 97.88,18.35 97.88,18.35 97.88,18.35 C 97.88,18.35 97.88,18.35 97.88,18.35 C 97.88,18.35 97.88,18.35 97.88,18.35 C 97.88,18.35 97.88,18.34 97.88,18.34 C 97.88,18.34 97.88,18.34 97.88,18.34 C 97.88,18.34 97.88,18.34 97.88,18.34 C 97.88,18.34 97.88,18.34 97.88,18.34 C 97.88,18.34 97.88,18.34 97.88,18.34 C 97.88,18.34 97.88,18.34 97.88,18.34 C 97.88,18.34 97.88,18.34 97.88,18.34 C 97.88,18.34 97.88,18.34 97.88,18.34 C 97.88,18.34 97.88,18.34 97.88,18.34 C 97.88,18.34 97.88,18.34 97.88,18.34 C 97.88,18.34 97.88,18.34 97.88,18.34 C 97.88,18.34 97.88,18.34 97.88,18.34 C 97.88,18.34 97.88,18.34 97.88,18.34 C 97.88,18.34 97.88,18.34 97.88,18.34 C 97.88,18.34 97.88,18.33 97.88,18.33 C 97.88,18.33 97.88,18.33 97.88,18.33 C 97.88,18.33 97.88,18.33 97.88,18.33 C 97.88,18.33 97.88,18.33 97.88,18.33 C 97.88,18.33 97.88,18.33 97.88,18.33 C 97.88,18.33 97.88,18.33 97.88,18.33 C 97.88,18.33 97.88,18.33 97.88,18.33 C 97.88,18.33 97.88,18.33 97.88,18.33 C 97.88,18.33 97.88,18.33 97.88,18.33 C 97.88,18.33 97.88,18.33 97.88,18.33 C 97.88,18.33 97.88,18.33 97.88,18.33 C 97.88,18.33 97.88,18.33 97.88,18.33 C 97.88,18.33 97.88,18.33 97.88,18.33 C 97.88,18.33 97.88,18.33 97.88,18.33 C 97.88,18.33 97.88,18.33 97.88,18.33 C 97.88,18.33 97.88,18.33 97.88,18.33 C 97.88,18.33 97.88,18.33 97.88,18.33 C 97.88,18.33 97.88,18.33 97.88,18.33 C 97.88,18.33 97.88,18.33 97.88,18.33 C 97.88,18.33 97.88,18.33 97.88,18.33" />
    <path d="M 122.12,201.67 C 122.12,201.67 122.12,201.67 122.12,201.67 C 122.12,201.67 122.12,201.67 122.12,201.67 C 122.12,201.67 122.12,201.67 122.12,201.67 C 122.12,201.67 122.12,201.67 122.12,201.67 C 122.12,201.67 122.12,201.67 122.12,201.67 C 122.12,201.67 122.12,201.67 122.12,201.67 C 122.12,201.67 122.12,201.67 122.12,201.67 C 122.12,201.67 122.12,201.67 122.12,201.67 C 122.12,201.67 122.12,201.67 122.12,201.67 C 122.12,201.67 122.12,201.67 122.12,201.67 C 122.12,201.67 122.12,201.67 122.12,201.67 C 122.12,201.67 122.12,201.67 122.12,201.67 C 122.12,201.67 122.12,201.67 122.12,201.67 C 122.12,201.67 122.12,201.67 122.12,201.67 C 122.12,201.67 122.12,201.67 122.12,201.67 C 122.12,201.67 122.12,201.67 122.12,201.67 C 122.12,201.67 122.12,201.67 122.12,201.67 C 122.12,201.67 122.12,201.67 122.12,201.67 C 122.12,201.67 122.12,201.67 122.12,201.67 C 122.12,201.67 122.12,201.66 122.12,201.66 C 122.12,201.66 122.12,201.66 122.12,201.66 C 122.12,201.66 122.12,201.66 122.12,201.66 C 122.12,201.66 122.12,201.66 122.12,201.66 C 122.12,201.66 122.12,201.66 122.12,201.66 C 122.12,201.66 122.12,201.66 122.12,201.66 C 122.12,201.66 122.12,201.66 122.12,201.66 C 122.12,201.66 122.12,201.66 122.12,201.66 C 122.12,201.66 122.12,201.66 122.12,201.66 C 122.12,201.66 122.12,201.66 122.12,201.66 C 122.12,201.66 122.12,201.66 122.12,201.66 C 122.12,201.66 122.12,201.66 122.12,201.66 C 122.12,201.66 122.12,201.66 122.12,201.66 C 122.12,201.66 122.12,201.66 122.12,201.66 C 122.12,201.66 122.12,201.65 122.12,201.65 C 122.12,201.65 122.12,201.65 122.12,201.65 C 122.12,201.65 122.12,201.65 122.12,201.65 C 122.12,201.65 122.12,201.65 122.12,201.65 C 122.12,201.65 122.12,201.65 122.12,201.65 C 122.12,201.65 122.12,201.65 122.12,201.65 C 122.12,201.65 122.12,201.64 122.12,201.64 C 122.12,201.64 122.12,201.64 122.12,201.64 C 122.12,201.64 122.12,201.64 122.12,201.64 C 122.12,201.64 122.12,201.64 122.13,201.64 C 122.13,201.64 122.13,201.64 122.13,201.63 C 122.13,201.63 122.13,201.63 122.13,201.63 C 122.13,201.63 122.13,201.63 122.13,201.63 C 122.13,201.63 122.13,201.63 122.13,201.63 C 122.13,201.63 122.13,201.62 122.13,201.62 C 122.13,201.62 122.13,201.62 122.13,201.62 C 122.13,201.62 122.13,201.62 122.13,201.62 C 122.13,201.62 122.13,201.61 122.13,201.61 C 122.13,201.61 122.13,201.61 122.13,201.61 C 122.13,201.61 122.13,201.61 122.13,201.60 C 122.13,201.60 122.13,201.60 122.13,201.60 C 122.13,201.60 122.13,201.60 122.13,201.60 C 122.13,201.59 122.13,201.59 122.13,201.59 C 122.13,201.59 122.13,201.59 122.13,201.59 C 122.13,201.58 122.13,201.58 122.13,201.58 C 122.13,201.58 122.13,201.58 122.13,201.58 C 122.13,201.57 122.13,201.57 122.13,201.57 C 122.13,201.57 122.13,201.57 122.13,201.56 C 122.14,201.56 122.14,201.56 122.14,201.56 C 122.14,201.56 122.14,201.55 122.14,201.55 C 122.14,201.55 122.14,201.55 122.14,201.54 C 122.14,201.54 122.14,201.54 122.14,201.54 C 122.14,201.54 122.14,201.53 122.14,201.53 C 122.14,201.53 122.14,201.53 122.14,201.52 C 122.14,201.52 122.14,201.52 122.14,201.52 C 122.14,201.51 122.14,201.51 122.14,201.51 C 122.14,201.50 122.14,201.50 122.14,201.50 C 122.14,201.50 122.14,201.49 122.14,201.49 C 122.15,201.49 122.15,201.48 122.15,201.48 C 122.15,201.48 122.15,201.47 122.15,201.47 C 122.15,201.47 122.15,201.46 122.15,201.46 C 122.15,201.46 122.15,201.45 122.15,201.45 C 122.15,201.45 122.15,201.44 122.15,201.44 C 122.15,201.44 122.15,201.43 122.15,201.43 C 122.15,201.43 122.15,201.42 122.15,201.42 C 122.15,201.41 122.16,201.41 122.16,201.41 C 122.16,201.40 122.16,201.40 122.16,201.39 C 122.16,201.39 122.16,201.39 122.16,201.38 C 122.16,201.38 122.16,201.37 122.16,201.37 C 122.16,201.37 122.16,201.36 122.16,201.36 C 122.16,201.35 122.16,201.35 122.16,201.34 C 122.16,201.34 122.17,201.33 122.17,201.33 C 122.17,201.32 122.17,201.32 122.17,201.31 C 122.17,201.31 122.17,201.30 122.17,201.30 C 122.17,201.29 122.17,201.29 122.17,201.28 C 122.17,201.28 122.17,201.27 122.17,201.27 C 122.17,201.26 122.18,201.26 122.18,201.25 C 122.18,201.25 122.18,201.24 122.18,201.24 C 122.18,201.23 122.18,201.22 122.18,201.22 C 122.18,201.21 122.18,201.21 122.18,201.20 C 122.18,201.19 122.18,201.19 122.19,201.18 C 122.19,201.18 122.19,201.17 122.19,201.16 C 122.19,201.16 122.19,201.15 122.19,201.14 C 122.19,201.14 122.19,201.13 122.19,201.12 C 122.19,201.12 122.20,201.11 122.20,201.10 C 122.20,201.10 122.20,201.09 122.20,201.08 C 122.20,201.08 122.20,201.07 122.20,201.06 C 122.20,201.05 122.20,201.05 122.20,201.04 C 122.21,201.03 122.21,201.02 122.21,201.02 C 122.21,201.01 122.21,201.00 122.21,200.99 C 122.21,200.99 122.21,200.98 122.21,200.97 C 122.22,200.96 122.22,200.95 122.22,200.95 C 122.22,200.94 122.22,200.93 122.22,200.92 C 122.22,200.91 122.22,200.90 122.22,200.90 C 122.23,200.89 122.23,200.88 122.23,200.87 C 122.23,200.86 122.23,200.85 122.23,200.84 C 122.23,200.83 122.23,200.83 122.23,200.82 C 122.24,200.81 122.24,200.80 122.24,200.79 C 122.24,200.78 122.24,200.77 122.24,200.76 C 122.24,200.75 122.24,200.74 122.25,200.73 C 122.25,200.72 122.25,200.71 122.25,200.70 C 122.25,200.69 122.25,200.68 122.25,200.67 C 122.26,200.66 122.26,200.65 122.26,200.64 C 122.26,200.63 122.26,200.62 122.26,200.61 C 122.26,200.60 122.27,200.59 122.27,200.57 C 122.27,200.56 122.27,200.55 122.27,200.54 C 122.27,200.53 122.27,200.52 122.28,200.51 C 122.28,200.50 122.28,200.48 122.28,200.47 C 122.28,200.46 122.28,200.45 122.29,200.44 C 122.29,200.43 122.29,200.41 122.29,200.40 C 122.29,200.39 122.29,200.38 122.30,200.36 C 122.30,200.35 122.30,200.34 122.30,200.33 C 122.30,200.31 122.30,200.30 122.31,200.29 C 122.31,200.28 122.31,200.26 122.31,200.25 C 122.31,200.24 122.32,200.22 122.32,200.21 C 122.32,200.20 122.32,200.18 122.32,200.17 C 122.32,200.15 122.33,200.14 122.33,200.13 C 122.33,200.11 122.33,200.10 122.33,200.08 C 122.34,200.07 122.34,200.06 122.34,200.04 C 122.34,200.03 122.34,200.01 122.35,200.00 C 122.35,199.98 122.35,199.97 122.35,199.95 C 122.35,199.94 122.36,199.92 122.36,199.91 C 122.36,199.89 122.36,199.88 122.36,199.86 C 122.37,199.85 122.37,199.83 122.37,199.81 C 122.37,199.80 122.38,199.78 122.38,199.77 C 122.38,199.75 122.38,199.73 122.38,199.72 C 122.39,199.70 122.39,199.68 122.39,199.67 C 122.39,199.65 122.40,199.63 122.40,199.62 C 122.40,199.60 122.40,199.58 122.41,199.56 C 122.41,199.55 122.41,199.53 122.41,199.51 C 122.42,199.49 122.42,199.48 122.42,199.46 C 122.42,199.44 122.43,199.42 122.43,199.40 C 122.43,199.39 122.43,199.37 122.44,199.35 C 122.44,199.33 122.44,199.31 122.44,199.29 C 122.45,199.27 122.45,199.25 122.45,199.24 C 122.45,199.22 122.46,199.20 122.46,199.18 C 122.46,199.16 122.47,199.14 122.47,199.12 C 122.47,199.10 122.47,199.08 122.48,199.06 C 122.48,199.04 122.48,199.02 122.48,199.00 C 122.49,198.98 122.49,198.96 122.49,198.94 C 122.50,198.91 122.50,198.89 122.50,198.87 C 122.51,198.85 122.51,198.83 122.51,198.81 C 122.51,198.79 122.52,198.77 122.52,198.74 C 122.52,198.72 122.53,198.70 122.53,198.68 C 122.53,198.66 122.54,198.63 122.54,198.61 C 122.54,198.59 122.55,198.57 122.55,198.54 C 122.55,198.52 122.56,198.50 122.56,198.48 C 122.56,198.45 122.57,198.43 122.57,198.41 C 122.57,198.38 122.58,198.36 122.58,198.33 C 122.58,198.31 122.59,198.29 122.59,198.26 C 122.59,198.24 122.60,198.21 122.60,198.19 C 122.60,198.17 122.61,198.14 122.61,198.12 C 122.61,198.09 122.62,198.07 122.62,198.04 C 122.62,198.02 122.63,197.99 122.63,197.96 C 122.63,197.94 122.64,197.91 122.64,197.89 C 122.65,197.86 122.65,197.84 122.65,197.81 C 122.66,197.78 122.66,197.76 122.67,197.73 C 122.67,197.70 122.67,197.68 122.68,197.65 C 122.68,197.62 122.68,197.60 122.69,197.57 C 122.69,197.54 122.70,197.51 122.70,197.49 C 122.70,197.46 122.71,197.43 122.71,197.40 C 122.72,197.37 122.72,197.35 122.72,197.32 C 122.73,197.29 122.73,197.26 122.74,197.23 C 122.74,197.20 122.75,197.17 122.75,197.15 C 122.75,197.12 122.76,197.09 122.76,197.06 C 122.77,197.03 122.77,197.00 122.78,196.97 C 122.78,196.94 122.78,196.91 122.79,196.88 C 122.79,196.85 122.80,196.82 122.80,196.79 C 122.81,196.76 122.81,196.73 122.82,196.69 C 122.82,196.66 122.83,196.63 122.83,196.60 C 122.83,196.57 122.84,196.54 122.84,196.51 C 122.85,196.47 122.85,196.44 122.86,196.41 C 122.86,196.38 122.87,196.35 122.87,196.31 C 122.88,196.28 122.88,196.25 122.89,196.21 C 122.89,196.18 122.90,196.15 122.90,196.12 C 122.91,196.08 122.91,196.05 122.92,196.02 C 122.92,195.98 122.93,195.95 122.93,195.91 C 122.94,195.88 122.94,195.85 122.95,195.81 C 122.95,195.78 122.96,195.74 122.96,195.71 C 122.97,195.67 122.97,195.64 122.98,195.60 C 122.99,195.57 122.99,195.53 123.00,195.50 C 123.00,195.46 123.01,195.42 123.01,195.39 C 123.02,195.35 123.02,195.32 123.03,195.28 C 123.03,195.24 123.04,195.21 123.05,195.17 C 123.05,195.13 123.06,195.10 123.06,195.06 C 123.07,195.02 123.07,194.98 123.08,194.95 C 123.09,194.91 123.09,194.87 123.10,194.83 C 123.10,194.80 123.11,194.76 123.12,194.72 C 123.12,194.68 123.13,194.64 123.13,194.60 C 123.14,194.56 123.15,194.53 123.15,194.49 C 123.16,194.45 123.16,194.41 123.17,194.37 C 123.18,194.33 123.18,194.29 123.19,194.25 C 123.19,194.21 123.20,194.17 123.21,194.13 C 123.21,194.09 123.22,194.05 123.23,194.01 C 123.23,193.97 123.24,193.93 123.25,193.89 C 123.25,193.84 123.26,193.80 123.27,193.76 C 123.27,193.72 123.28,193.68 123.28,193.64 C 123.29,193.59 123.30,193.55 123.31,193.51 C 123.31,193.47 123.32,193.43 123.33,193.38 C 123.33,193.34 123.34,193.30 123.35,193.25 C 123.35,193.21 123.36,193.17 123.37,193.12 C 123.37,193.08 123.38,193.04 123.39,192.99 C 123.39,192.95 123.40,192.91 123.41,192.86 C 123.42,192.82 123.42,192.77 123.43,192.73 C 123.44,192.68 123.45,192.64 123.45,192.59 C 123.46,192.55 123.47,192.50 123.47,192.46 C 123.48,192.41 123.49,192.37 123.50,192.32 C 123.50,192.28 123.51,192.23 123.52,192.18 C 123.53,192.14 123.54,192.09 123.54,192.04 C 123.55,192.00 123.56,191.95 123.57,191.90 C 123.57,191.86 123.58,191.81 123.59,191.76 C 123.60,191.72 123.61,191.67 123.61,191.62 C 123.62,191.57 123.63,191.53 123.64,191.48 C 123.65,191.43 123.65,191.38 123.66,191.33 C 123.67,191.28 123.68,191.23 123.69,191.19 C 123.69,191.14 123.70,191.09 123.71,191.04 C 123.72,190.99 123.73,190.94 123.74,190.89 C 123.74,190.84 123.75,190.79 123.76,190.74 C 123.77,190.69 123.78,190.64 123.79,190.59 C 123.80,190.54 123.80,190.49 123.81,190.44 C 123.82,190.39 123.83,190.34 123.84,190.29 C 123.85,190.24 123.86,190.18 123.87,190.13 C 123.87,190.08 123.88,190.03 123.89,189.98 C 123.90,189.93 123.91,189.87 123.92,189.82 C 123.93,189.77 123.94,189.72 123.95,189.66 C 123.96,189.61 123.97,189.56 123.98,189.51 C 123.98,189.45 123.99,189.40 124.00,189.35 C 124.01,189.29 124.02,189.24 124.03,189.19 C 124.04,189.13 124.05,189.08 124.06,189.02 C 124.07,188.97 124.08,188.92 124.09,188.86 C 124.10,188.81 124.11,188.75 124.12,188.70 C 124.13,188.64 124.14,188.59 124.15,188.53 C 124.16,188.48 124.17,188.42 124.18,188.37 C 124.19,188.31 124.20,188.26 124.21,188.20 C 124.22,188.14 124.23,188.09 124.24,188.03 C 124.25,187.98 124.26,187.92 124.27,187.86 C 124.28,187.81 124.29,187.75 124.30,187.69 C 124.31,187.64 124.32,187.58 124.33,187.52 C 124.34,187.46 124.35,187.41 124.36,187.35 C 124.38,187.29 124.39,187.23 124.40,187.18 C 124.41,187.12 124.42,187.06 124.43,187.00 C 124.44,186.94 124.45,186.89 124.46,186.83 C 124.47,186.77 124.48,186.71 124.50,186.65 C 124.51,186.59 124.52,186.53 124.53,186.47 C 124.54,186.42 124.55,186.36 124.56,186.30 C 124.57,186.24 124.59,186.18 124.60,186.12 C 124.61,186.06 124.62,186.00 124.63,185.94 C 124.64,185.88 124.66,185.82 124.67,185.76 C 124.68,185.70 124.69,185.64 124.70,185.58 C 124.71,185.51 124.73,185.45 124.74,185.39 C 124.75,185.33 124.76,185.27 124.77,185.21 C 124.79,185.15 124.80,185.09 124.81,185.02 C 124.82,184.96 124.83,184.90 124.85,184.84 C 124.86,184.78 124.87,184.71 124.88,184.65 C 124.90,184.59 124.91,184.53 124.92,184.46 C 124.93,184.40 124.95,184.34 124.96,184.28 C 124.97,184.21 124.98,184.15 125.00,184.09 C 125.01,184.02 125.02,183.96 125.04,183.90 C 125.05,183.83 125.06,183.77 125.07,183.71 C 125.09,183.64 125.10,183.58 125.11,183.52 C 125.13,183.45 125.14,183.39 125.15,183.32 C 125.17,183.26 125.18,183.19 125.19,183.13 C 125.21,183.07 125.22,183.00 125.23,182.94 C 125.25,182.87 125.26,182.81 125.27,182.74 C 125.29,182.68 125.30,182.61 125.32,182.55 C 125.33,182.48 125.34,182.41 125.36,182.35 C 125.37,182.28 125.39,182.22 125.40,182.15 C 125.41,182.09 125.43,182.02 125.44,181.95 C 125.46,181.89 125.47,181.82 125.48,181.76 C 125.50,181.69 125.51,181.62 125.53,181.56 C 125.54,181.49 125.56,181.42 125.57,181.36 C 125.59,181.29 125.60,181.22 125.62,181.16 C 125.63,181.09 125.64,181.02 125.66,180.95 C 125.67,180.89 125.69,180.82 125.70,180.75 C 125.72,180.68 125.73,180.62 125.75,180.55 C 125.76,180.48 125.78,180.41 125.80,180.35 C 125.81,180.28 125.83,180.21 125.84,180.14 C 125.86,180.07 125.87,180.01 125.89,179.94 C 125.90,179.87 125.92,179.80 125.93,179.73 C 125.95,179.66 125.97,179.59 125.98,179.53 C 126.00,179.46 126.01,179.39 126.03,179.32 C 126.04,179.25 126.06,179.18 126.08,179.11 C 126.09,179.04 126.11,178.97 126.13,178.90 C 126.14,178.83 126.16,178.76 126.17,178.70 C 126.19,178.63 126.21,178.56 126.22,178.49 C 126.24,178.42 126.26,178.35 126.27,178.28 C 126.29,178.21 126.31,178.14 126.32,178.07 C 126.34,178.00 126.36,177.93 126.37,177.86 C 126.39,177.79 126.41,177.72 126.43,177.65 C 126.44,177.57 126.46,177.50 126.48,177.43 C 126.49,177.36 126.51,177.29 126.53,177.22 C 126.55,177.15 126.56,177.08 126.58,177.01 C 126.60,176.94 126.62,176.87 126.63,176.80 C 126.65,176.73 126.67,176.65 126.69,176.58 C 126.71,176.51 126.72,176.44 126.74,176.37 C 126.76,176.30 126.78,176.23 126.80,176.15 C 126.81,176.08 126.83,176.01 126.85,175.94 C 126.87,175.87 126.89,175.80 126.91,175.72 C 126.92,175.65 126.94,175.58 126.96,175.51 C 126.98,175.44 127.00,175.37 127.02,175.29 C 127.04,175.22 127.05,175.15 127.07,175.08 C 127.09,175.00 127.11,174.93 127.13,174.86 C 127.15,174.79 127.17,174.72 127.19,174.64 C 127.21,174.57 127.23,174.50 127.25,174.43 C 127.27,174.35 127.29,174.28 127.30,174.21 C 127.32,174.14 127.34,174.06 127.36,173.99 C 127.38,173.92 127.40,173.85 127.42,173.77 C 127.44,173.70 127.46,173.63 127.48,173.55 C 127.50,173.48 127.52,173.41 127.54,173.34 C 127.56,173.26 127.58,173.19 127.60,173.12 C 127.62,173.04 127.64,172.97 127.67,172.90 C 127.69,172.82 127.71,172.75 127.73,172.68 C 127.75,172.60 127.77,172.53 127.79,172.46 C 127.81,172.38 127.83,172.31 127.85,172.24 C 127.87,172.16 127.89,172.09 127.92,172.02 C 127.94,171.94 127.96,171.87 127.98,171.80 C 128.00,171.72 128.02,171.65 128.04,171.58 C 128.07,171.50 128.09,171.43 128.11,171.36 C 128.13,171.28 128.15,171.21 128.17,171.14 C 128.20,171.06 128.22,170.99 128.24,170.92 C 128.26,170.84 128.28,170.77 128.31,170.69 C 128.33,170.62 128.35,170.55 128.37,170.47 C 128.40,170.40 128.42,170.33 128.44,170.25 C 128.46,170.18 128.49,170.10 128.51,170.03 C 128.53,169.96 128.55,169.88 128.58,169.81 C 128.60,169.74 128.62,169.66 128.65,169.59 C 128.67,169.51 128.69,169.44 128.72,169.37 C 128.74,169.29 128.76,169.22 128.79,169.15 C 128.81,169.07 128.83,169.00 128.86,168.92 C 128.88,168.85 128.90,168.78 128.93,168.70 C 128.95,168.63 128.98,168.55 129.00,168.48 C 129.02,168.41 129.05,168.33 129.07,168.26 C 129.10,168.18 129.12,168.11 129.14,168.04 C 129.17,167.96 129.19,167.89 129.22,167.82 C 129.24,167.74 129.27,167.67 129.29,167.59 C 129.32,167.52 129.34,167.45 129.37,167.37 C 129.39,167.30 129.42,167.23 129.44,167.15 C 129.47,167.08 129.49,167.00 129.52,166.93 C 129.54,166.86 129.57,166.78 129.59,166.71 C 129.62,166.64 129.64,166.56 129.67,166.49 C 129.70,166.41 129.72,166.34 129.75,166.27 C 129.77,166.19 129.80,166.12 129.83,166.05 C 129.85,165.97 129.88,165.90 129.90,165.83 C 129.93,165.75 129.96,165.68 129.98,165.60 C 130.01,165.53 130.04,165.46 130.06,165.38 C 130.09,165.31 130.12,165.24 130.14,165.16 C 130.17,165.09 130.20,165.02 130.22,164.94 C 130.25,164.87 130.28,164.80 130.30,164.72 C 130.33,164.65 130.36,164.58 130.39,164.50 C 130.41,164.43 130.44,164.36 130.47,164.28 C 130.50,164.21 130.52,164.14 130.55,164.06 C 130.58,163.99 130.61,163.92 130.64,163.85 C 130.66,163.77 130.69,163.70 130.72,163.63 C 130.75,163.55 130.78,163.48 130.80,163.41 C 130.83,163.33 130.86,163.26 130.89,163.19 C 130.92,163.12 130.95,163.04 130.98,162.97 C 131.00,162.90 131.03,162.83 131.06,162.75 C 131.09,162.68 131.12,162.61 131.15,162.53 C 131.18,162.46 131.21,162.39 131.24,162.32 C 131.27,162.24 131.30,162.17 131.33,162.10 C 131.36,162.03 131.39,161.96 131.42,161.88 C 131.45,161.81 131.48,161.74 131.51,161.67 C 131.54,161.59 131.57,161.52 131.60,161.45 C 131.63,161.38 131.66,161.31 131.69,161.23 C 131.72,161.16 131.75,161.09 131.78,161.02 C 131.81,160.95 131.84,160.88 131.87,160.80 C 131.90,160.73 131.93,160.66 131.96,160.59 C 131.99,160.52 132.03,160.45 132.06,160.37 C 132.09,160.30 132.12,160.23 132.15,160.16 C 132.18,160.09 132.21,160.02 132.25,159.95 C 132.28,159.87 132.31,159.80 132.34,159.73 C 132.37,159.66 132.41,159.59 132.44,159.52 C 132.47,159.45 132.50,159.38 132.53,159.31 C 132.57,159.24 132.60,159.16 132.63,159.09 C 132.66,159.02 132.70,158.95 132.73,158.88 C 132.76,158.81 132.80,158.74 132.83,158.67 C 132.86,158.60 132.90,158.53 132.93,158.46 C 132.96,158.39 133.00,158.32 133.03,158.25 C 133.06,158.18 133.10,158.11 133.13,158.04 C 133.16,157.97 133.20,157.90 133.23,157.83 C 133.26,157.76 133.30,157.69 133.33,157.62 C 133.37,157.55 133.40,157.48 133.44,157.41 C 133.47,157.34 133.50,157.27 133.54,157.20 C 133.57,157.13 133.61,157.06 133.64,156.99 C 133.68,156.93 133.71,156.86 133.75,156.79 C 133.78,156.72 133.82,156.65 133.85,156.58 C 133.89,156.51 133.92,156.44 133.96,156.37 C 134.00,156.31 134.03,156.24 134.07,156.17 C 134.10,156.10 134.14,156.03 134.17,155.96 C 134.21,155.89 134.25,155.83 134.28,155.76 C 134.32,155.69 134.36,155.62 134.39,155.55 C 134.43,155.49 134.46,155.42 134.50,155.35 C 134.54,155.28 134.57,155.21 134.61,155.15 C 134.65,155.08 134.69,155.01 134.72,154.94 C 134.76,154.88 134.80,154.81 134.83,154.74 C 134.87,154.67 134.91,154.61 134.95,154.54 C 134.98,154.47 135.02,154.40 135.06,154.34 C 135.10,154.27 135.14,154.20 135.17,154.14 C 135.21,154.07 135.25,154.00 135.29,153.94 C 135.33,153.87 135.37,153.80 135.40,153.74 C 135.44,153.67 135.48,153.60 135.52,153.54 C 135.56,153.47 135.60,153.41 135.64,153.34 C 135.68,153.27 135.72,153.21 135.76,153.14 C 135.79,153.08 135.83,153.01 135.87,152.94 C 135.91,152.88 135.95,152.81 135.99,152.75 C 136.03,152.68 136.07,152.62 136.11,152.55 C 136.15,152.49 136.19,152.42 136.23,152.36 C 136.27,152.29 136.31,152.23 136.35,152.16 C 136.39,152.10 136.44,152.03 136.48,151.97 C 136.52,151.90 136.56,151.84 136.60,151.77 C 136.64,151.71 136.68,151.64 136.72,151.58 C 136.76,151.51 136.81,151.45 136.85,151.39 C 136.89,151.32 136.93,151.26 136.97,151.19 C 137.01,151.13 137.06,151.07 137.10,151.00 C 137.14,150.94 137.18,150.88 137.22,150.81 C 137.27,150.75 137.31,150.69 137.35,150.62 C 137.39,150.56 137.44,150.50 137.48,150.43 C 137.52,150.37 137.57,150.31 137.61,150.24 C 137.65,150.18 137.70,150.12 137.74,150.06 C 137.78,149.99 137.83,149.93 137.87,149.87 C 137.91,149.81 137.96,149.74 138.00,149.68 C 138.04,149.62 138.09,149.56 138.13,149.49 C 138.18,149.43 138.22,149.37 138.27,149.31 C 138.31,149.25 138.36,149.19 138.40,149.12 C 138.44,149.06 138.49,149.00 138.53,148.94 C 138.58,148.88 138.62,148.82 138.67,148.76 C 138.71,148.69 138.76,148.63 138.81,148.57 C 138.85,148.51 138.90,148.45 138.94,148.39 C 138.99,148.33 139.03,148.27 139.08,148.21 C 139.13,148.15 139.17,148.09 139.22,148.03 C 139.27,147.97 139.31,147.91 139.36,147.85 C 139.40,147.79 139.45,147.73 139.50,147.67 C 139.55,147.61 139.59,147.55 139.64,147.49 C 139.69,147.43 139.73,147.37 139.78,147.31 C 139.83,147.25 139.88,147.19 139.92,147.13 C 139.97,147.07 140.02,147.01 140.07,146.95 C 140.12,146.90 140.16,146.84 140.21,146.78 C 140.26,146.72 140.31,146.66 140.36,146.60 C 140.41,146.54 140.45,146.48 140.50,146.43 C 140.55,146.37 140.60,146.31 140.65,146.25 C 140.70,146.19 140.75,146.14 140.80,146.08 C 140.85,146.02 140.90,145.96 140.95,145.91 C 141.00,145.85 141.05,145.79 141.10,145.73 C 141.15,145.68 141.20,145.62 141.25,145.56 C 141.30,145.50 141.35,145.45 141.40,145.39 C 141.45,145.33 141.50,145.28 141.55,145.22 C 141.60,145.16 141.65,145.11 141.70,145.05 C 141.75,144.99 141.80,144.94 141.85,144.88 C 141.91,144.82 141.96,144.77 142.01,144.71 C 142.06,144.66 142.11,144.60 142.16,144.54 C 142.22,144.49 142.27,144.43 142.32,144.38 C 142.37,144.32 142.43,144.27 142.48,144.21 C 142.53,144.16 142.58,144.10 142.64,144.05 C 142.69,143.99 142.74,143.94 142.80,143.88 C 142.85,143.83 142.90,143.77 142.96,143.72 C 143.01,143.66 143.06,143.61 143.12,143.55 C 143.17,143.50 143.22,143.44 143.28,143.39 C 143.33,143.34 143.39,143.28 143.44,143.23 C 143.49,143.17 143.55,143.12 143.60,143.07 C 143.66,143.01 143.71,142.96 143.77,142.90 C 143.82,142.85 143.88,142.80 143.93,142.74 C 143.99,142.69 144.04,142.64 144.10,142.58 C 144.15,142.53 144.21,142.48 144.27,142.43 C 144.32,142.37 144.38,142.32 144.43,142.27 C 144.49,142.22 144.55,142.16 144.60,142.11 C 144.66,142.06 144.72,142.01 144.77,141.95 C 144.83,141.90 144.89,141.85 144.94,141.80 C 145.00,141.75 145.06,141.69 145.11,141.64 C 145.17,141.59 145.23,141.54 145.29,141.49 C 145.35,141.44 145.40,141.38 145.46,141.33 C 145.52,141.28 145.58,141.23 145.64,141.18 C 145.69,141.13 145.75,141.08 145.81,141.03 C 145.87,140.98 145.93,140.93 145.99,140.88 C 146.05,140.82 146.10,140.77 146.16,140.72 C 146.22,140.67 146.28,140.62 146.34,140.57 C 146.40,140.52 146.46,140.47 146.52,140.42 C 146.58,140.37 146.64,140.32 146.70,140.27 C 146.76,140.22 146.82,140.17 146.88,140.13 C 146.94,140.08 147.00,140.03 147.06,139.98 C 147.13,139.93 147.19,139.88 147.25,139.83 C 147.31,139.78 147.37,139.73 147.43,139.68 C 147.49,139.63 147.55,139.59 147.62,139.54 C 147.68,139.49 147.74,139.44 147.80,139.39 C 147.86,139.34 147.93,139.30 147.99,139.25 C 148.05,139.20 148.11,139.15 148.18,139.10 C 148.24,139.06 148.30,139.01 148.37,138.96 C 148.43,138.91 148.49,138.87 148.56,138.82 C 148.62,138.77 148.68,138.72 148.75,138.68 C 148.81,138.63 148.87,138.58 148.94,138.53 C 149.00,138.49 149.07,138.44 149.13,138.39 C 149.20,138.35 149.26,138.30 149.33,138.25 C 149.39,138.21 149.46,138.16 149.52,138.12 C 149.59,138.07 149.65,138.02 149.72,137.98 C 149.78,137.93 149.85,137.88 149.91,137.84 C 149.98,137.79 150.04,137.75 150.11,137.70 C 150.18,137.66 150.24,137.61 150.31,137.56 C 150.38,137.52 150.44,137.47 150.51,137.43 C 150.58,137.38 150.64,137.34 150.71,137.29 C 150.78,137.25 150.84,137.20 150.91,137.16 C 150.98,137.11 151.05,137.07 151.12,137.02 C 151.18,136.98 151.25,136.94 151.32,136.89 C 151.39,136.85 151.46,136.80 151.52,136.76 C 151.59,136.71 151.66,136.67 151.73,136.63 C 151.80,136.58 151.87,136.54 151.94,136.49 C 152.01,136.45 152.08,136.41 152.15,136.36 C 152.21,136.32 152.28,136.28 152.35,136.23 C 152.42,136.19 152.49,136.15 152.56,136.10 C 152.64,136.06 152.71,136.02 152.78,135.98 C 152.85,135.93 152.92,135.89 152.99,135.85 C 153.06,135.80 153.13,135.76 153.20,135.72 C 153.27,135.68 153.34,135.63 153.42,135.59 C 153.49,135.55 153.56,135.51 153.63,135.47 C 153.70,135.42 153.78,135.38 153.85,135.34 C 153.92,135.30 153.99,135.26 154.07,135.21 C 154.14,135.17 154.21,135.13 154.28,135.09 C 154.36,135.05 154.43,135.01 154.50,134.97 C 154.58,134.92 154.65,134.88 154.73,134.84 C 154.80,134.80 154.87,134.76 154.95,134.72 C 155.02,134.68 155.10,134.64 155.17,134.60 C 155.25,134.56 155.32,134.52 155.39,134.48 C 155.47,134.44 155.54,134.40 155.62,134.36 C 155.70,134.32 155.77,134.28 155.85,134.24 C 155.92,134.20 156.00,134.16 156.07,134.12 C 156.15,134.08 156.23,134.04 156.30,134.00 C 156.38,133.96 156.46,133.92 156.53,133.88 C 156.61,133.84 156.69,133.80 156.76,133.76 C 156.84,133.72 156.92,133.68 157.00,133.64 C 157.07,133.60 157.15,133.57 157.23,133.53 C 157.31,133.49 157.38,133.45 157.46,133.41 C 157.54,133.37 157.62,133.33 157.70,133.29 C 157.78,133.26 157.86,133.22 157.93,133.18 C 158.01,133.14 158.09,133.10 158.17,133.07 C 158.25,133.03 158.33,132.99 158.41,132.95 C 158.49,132.91 158.57,132.88 158.65,132.84 C 158.73,132.80 158.81,132.76 158.89,132.73 C 158.97,132.69 159.05,132.65 159.13,132.61 C 159.21,132.58 159.30,132.54 159.38,132.50 C 159.46,132.47 159.54,132.43 159.62,132.39 C 159.70,132.36 159.78,132.32 159.87,132.28 C 159.95,132.24 160.03,132.21 160.11,132.17 C 160.20,132.14 160.28,132.10 160.36,132.06 C 160.44,132.03 160.53,131.99 160.61,131.95 C 160.69,131.92 160.78,131.88 160.86,131.85 C 160.94,131.81 161.03,131.77 161.11,131.74 C 161.20,131.70 161.28,131.67 161.36,131.63 C 161.45,131.60 161.53,131.56 161.62,131.53 C 161.70,131.49 161.79,131.45 161.87,131.42 C 161.96,131.38 162.04,131.35 162.13,131.31 C 162.22,131.28 162.30,131.24 162.39,131.21 C 162.47,131.17 162.56,131.14 162.65,131.11 C 162.73,131.07 162.82,131.04 162.91,131.00 C 162.99,130.97 163.08,130.93 163.17,130.90 C 163.25,130.86 163.34,130.83 163.43,130.80 C 163.52,130.76 163.60,130.73 163.69,130.69 C 163.78,130.66 163.87,130.63 163.96,130.59 C 164.04,130.56 164.13,130.53 164.22,130.49 C 164.31,130.46 164.40,130.42 164.49,130.39 C 164.58,130.36 164.67,130.32 164.76,130.29 C 164.85,130.26 164.94,130.23 165.03,130.19 C 165.12,130.16 165.21,130.13 165.30,130.09 C 165.39,130.06 165.48,130.03 165.57,130.00 C 165.66,129.96 165.75,129.93 165.84,129.90 C 165.93,129.86 166.02,129.83 166.12,129.80 C 166.21,129.77 166.30,129.74 166.39,129.70 C 166.48,129.67 166.58,129.64 166.67,129.61 C 166.76,129.58 166.85,129.54 166.95,129.51 C 167.04,129.48 167.13,129.45 167.23,129.42 C 167.32,129.38 167.41,129.35 167.51,129.32 C 167.60,129.29 167.69,129.26 167.79,129.23 C 167.88,129.20 167.98,129.16 168.07,129.13 C 168.17,129.10 168.26,129.07 168.36,129.04 C 168.45,129.01 168.55,128.98 168.64,128.95 C 168.74,128.92 168.83,128.89 168.93,128.86 C 169.02,128.82 169.12,128.79 169.22,128.76 C 169.31,128.73 169.41,128.70 169.51,128.67 C 169.60,128.64 169.70,128.61 169.80,128.58 C 169.89,128.55 169.99,128.52 170.09,128.49 C 170.19,128.46 170.28,128.43 170.38,128.40 C 170.48,128.37 170.58,128.34 170.68,128.31 C 170.78,128.28 170.87,128.25 170.97,128.22 C 171.07,128.19 171.17,128.16 171.27,128.13 C 171.37,128.11 171.47,128.08 171.57,128.05 C 171.67,128.02 171.77,127.99 171.87,127.96 C 171.97,127.93 172.07,127.90 172.17,127.87 C 172.27,127.84 172.37,127.81 172.47,127.79 C 172.57,127.76 172.67,127.73 172.78,127.70 C 172.88,127.67 172.98,127.64 173.08,127.61 C 173.18,127.59 173.29,127.56 173.39,127.53 C 173.49,127.50 173.59,127.47 173.70,127.44 C 173.80,127.42 173.90,127.39 174.00,127.36 C 174.11,127.33 174.21,127.30 174.31,127.28 C 174.42,127.25 174.52,127.22 174.63,127.19 C 174.73,127.17 174.84,127.14 174.94,127.11 C 175.04,127.08 175.15,127.05 175.25,127.03 C 175.36,127.00 175.46,126.97 175.57,126.95 C 175.68,126.92 175.78,126.89 175.89,126.86 C 175.99,126.84 176.10,126.81 176.21,126.78 C 176.31,126.76 176.42,126.73 176.53,126.70 C 176.63,126.68 176.74,126.65 176.85,126.62 C 176.95,126.60 177.06,126.57 177.17,126.54 C 177.28,126.52 177.39,126.49 177.49,126.46 C 177.60,126.44 177.71,126.41 177.82,126.38 C 177.93,126.36 178.04,126.33 178.15,126.31 C 178.25,126.28 178.36,126.25 178.47,126.23 C 178.58,126.20 178.69,126.18 178.80,126.15 C 178.91,126.12 179.02,126.10 179.13,126.07 C 179.24,126.05 179.36,126.02 179.47,126.00 C 179.58,125.97 179.69,125.94 179.80,125.92 C 179.91,125.89 180.02,125.87 180.13,125.84 C 180.25,125.82 180.36,125.79 180.47,125.77 C 180.58,125.74 180.70,125.72 180.81,125.69 C 180.92,125.67 181.04,125.64 181.15,125.62 C 181.26,125.59 181.38,125.57 181.49,125.54 C 181.60,125.52 181.72,125.49 181.83,125.47 C 181.95,125.44 182.06,125.42 182.17,125.39 C 182.29,125.37 182.40,125.35 182.52,125.32 C 182.63,125.30 182.75,125.27 182.87,125.25 C 182.98,125.22 183.10,125.20 183.21,125.18 C 183.33,125.15 183.45,125.13 183.56,125.10 C 183.68,125.08 183.80,125.06 183.91,125.03 C 184.03,125.01 184.15,124.98 184.27,124.96 C 184.38,124.94 184.50,124.91 184.62,124.89 C 184.74,124.87 184.86,124.84 184.97,124.82 C 185.09,124.80 185.21,124.77 185.33,124.75 C 185.45,124.73 185.57,124.70 185.69,124.68 C 185.81,124.66 185.93,124.63 186.05,124.61 C 186.17,124.59 186.29,124.56 186.41,124.54 C 186.53,124.52 186.65,124.50 186.77,124.47 C 186.89,124.45 187.01,124.43 187.14,124.40 C 187.26,124.38 187.38,124.36 187.50,124.34 C 187.62,124.31 187.75,124.29 187.87,124.27 C 187.99,124.25 188.11,124.22 188.24,124.20 C 188.36,124.18 188.48,124.16 188.61,124.14 C 188.73,124.11 188.85,124.09 188.98,124.07 C 189.10,124.05 189.23,124.02 189.35,124.00 C 189.47,123.98 189.60,123.96 189.72,123.94 C 189.85,123.92 189.97,123.89 190.10,123.87 C 190.23,123.85 190.35,123.83 190.48,123.81 C 190.60,123.78 190.73,123.76 190.86,123.74 C 190.98,123.72 191.11,123.70 191.24,123.68 C 191.36,123.66 191.49,123.63 191.62,123.61 C 191.75,123.59 191.87,123.57 192.00,123.55 C 192.13,123.53 192.26,123.51 192.39,123.49 C 192.51,123.47 192.64,123.44 192.77,123.42 C 192.90,123.40 193.03,123.38 193.16,123.36 C 193.29,123.34 193.42,123.32 193.55,123.30 C 193.68,123.28 193.81,123.26 193.94,123.24 C 194.07,123.22 194.20,123.20 194.33,123.18 C 194.46,123.15 194.60,123.13 194.73,123.11 C 194.86,123.09 194.99,123.07 195.12,123.05 C 195.26,123.03 195.39,123.01 195.52,122.99 C 195.65,122.97 195.79,122.95 195.92,122.93 C 196.05,122.91 196.19,122.89 196.32,122.87 C 196.45,122.85 196.59,122.83 196.72,122.81 C 196.86,122.79 196.99,122.77 197.12,122.75 C 197.26,122.73 197.39,122.71 197.53,122.69 C 197.66,122.67 197.80,122.65 197.94,122.64 C 198.07,122.62 198.21,122.60 198.34,122.58 C 198.48,122.56 198.62,122.54 198.75,122.52 C 198.89,122.50 199.03,122.48 199.17,122.46 C 199.30,122.44 199.44,122.42 199.58,122.40 C 199.72,122.38 199.85,122.37 199.99,122.35 C 200.13,122.33 200.27,122.31 200.41,122.29 C 200.55,122.27 200.69,122.25 200.83,122.23 C 200.97,122.21 201.11,122.20 201.25,122.18 C 201.39,122.16 201.60,122.13 201.67,122.12" />
  </g>

  <!-- точка (1;-4) -->
  <circle cx="126.67" cy="176.67" r="2.2" fill="#2d70b3" />

  <!-- подпись f(x) -->
  <text x="60.00" y="60.00"
        font-family="Georgia, 'Times New Roman', serif"
        font-style="italic"
        font-size="13"
        fill="#2d70b3">
    f(x)
  </text>

</svg>
