<svg xmlns="http://www.w3.org/2000/svg" width="220" height="220" viewBox="0 0 220 220">

  <rect x="0" y="0" width="220" height="220" fill="white" />

  <defs>
    <!-- стрелка для осей -->
    <marker id="axis-arrow"
            viewBox="0 0 15 8"
            refX="13" refY="4"
            markerWidth="12" markerHeight="6.4"
            orient="auto"
            markerUnits="userSpaceOnUse">
      <path d="M 3 0 L 15 4 L 3 8 L 7 4 Z"
            fill="black" />
    </marker>
  </defs>

  <!-- тонкая клетчатая сетка: по x и y от -5 до 5 (10×10), без окаймления -->
  <g stroke="#d1d5db" stroke-width="0.5" shape-rendering="crispEdges">
    <!-- вертикальные линии: только внутренние -->
    <line x1="30"  y1="10" x2="30"  y2="210" />
    <line x1="50"  y1="10" x2="50"  y2="210" />
    <line x1="70"  y1="10" x2="70"  y2="210" />
    <line x1="90"  y1="10" x2="90"  y2="210" />
    <line x1="110" y1="10" x2="110" y2="210" />
    <line x1="130" y1="10" x2="130" y2="210" />
    <line x1="150" y1="10" x2="150" y2="210" />
    <line x1="170" y1="10" x2="170" y2="210" />
    <line x1="190" y1="10" x2="190" y2="210" />

    <!-- горизонтальные линии: только внутренние -->
    <line x1="10" y1="30"  x2="210" y2="30"  />
    <line x1="10" y1="50"  x2="210" y2="50"  />
    <line x1="10" y1="70"  x2="210" y2="70"  />
    <line x1="10" y1="90"  x2="210" y2="90"  />
    <line x1="10" y1="110" x2="210" y2="110" />
    <line x1="10" y1="130" x2="210" y2="130" />
    <line x1="10" y1="150" x2="210" y2="150" />
    <line x1="10" y1="170" x2="210" y2="170" />
    <line x1="10" y1="190" x2="210" y2="190" />
  </g>

  <!-- оси x и y (0 находится в точке (110;110)) -->
  <g stroke="#111827" stroke-width="1.25">
    <line x1="10" y1="110" x2="210" y2="110"
          marker-end="url(#axis-arrow)" />
    <line x1="110" y1="210" x2="110" y2="10"
          marker-end="url(#axis-arrow)" />
  </g>

  <!-- подписи осей и делений -->
  <g font-family="sans-serif" font-size="11" fill="#111827">
    <text x="106" y="123" text-anchor="end"
          font-size="13" font-style="italic"
          font-family="Georgia, 'Times New Roman', serif">O</text>

    <rect x="127" y="113" width="7" height="12" fill="white" />
    <text x="130" y="124" text-anchor="middle" font-size="13"
          font-family="'Times New Roman', serif"
          font-weight="300">1</text>

    <text x="103" y="94" text-anchor="end" font-size="13"
          font-family="'Times New Roman', serif"
          font-weight="300">1</text>

    <text x="206" y="123" text-anchor="start"
          font-family="Georgia, 'Times New Roman', serif"
          font-style="italic" font-size="13">x</text>

    <text x="107" y="13" text-anchor="end"
          font-family="Georgia, 'Times New Roman', serif"
          font-style="italic" font-size="13">y</text>
  </g>

  <!-- гипербола y = k/x, k=4 (гладкая интерполяция), в пределах окна [-5;5]×[-5;5] -->
  <g stroke="#2d70b3" stroke-width="1.25" fill="none"
     stroke-linecap="round" stroke-linejoin="round">
    <!-- ветвь в III квадранте -->
    <path d="M 10.00,126.00 C 10.12,126.02 10.47,126.08 10.71,126.11 C 10.94,126.15 11.18,126.19 11.41,126.23 C 11.64,126.27 11.88,126.31 12.11,126.34 C 12.34,126.38 12.57,126.42 12.80,126.46 C 13.04,126.50 13.27,126.54 13.49,126.58 C 13.72,126.62 13.95,126.66 14.18,126.70 C 14.41,126.74 14.64,126.78 14.86,126.82 C 15.09,126.86 15.32,126.90 15.54,126.94 C 15.77,126.98 15.99,127.02 16.22,127.06 C 16.44,127.10 16.67,127.14 16.89,127.18 C 17.11,127.22 17.33,127.27 17.56,127.31 C 17.78,127.35 18.00,127.39 18.22,127.43 C 18.44,127.47 18.66,127.52 18.88,127.56 C 19.10,127.60 19.31,127.64 19.53,127.69 C 19.75,127.73 19.97,127.77 20.18,127.81 C 20.40,127.86 20.61,127.90 20.83,127.94 C 21.04,127.99 21.26,128.03 21.47,128.07 C 21.69,128.12 21.90,128.16 22.11,128.20 C 22.32,128.25 22.54,128.29 22.75,128.34 C 22.96,128.38 23.17,128.43 23.38,128.47 C 23.59,128.52 23.80,128.56 24.01,128.61 C 24.21,128.65 24.42,128.70 24.63,128.74 C 24.84,128.79 25.04,128.83 25.25,128.88 C 25.46,128.92 25.66,128.97 25.87,129.02 C 26.07,129.06 26.27,129.11 26.48,129.16 C 26.68,129.20 26.88,129.25 27.09,129.30 C 27.29,129.34 27.49,129.39 27.69,129.44 C 27.89,129.49 28.09,129.53 28.29,129.58 C 28.49,129.63 28.69,129.68 28.89,129.73 C 29.09,129.77 29.29,129.82 29.48,129.87 C 29.68,129.92 29.88,129.97 30.07,130.02 C 30.27,130.07 30.46,130.12 30.66,130.17 C 30.85,130.22 31.05,130.27 31.24,130.32 C 31.43,130.36 31.63,130.42 31.82,130.47 C 32.01,130.52 32.20,130.57 32.39,130.62 C 32.59,130.67 32.78,130.72 32.97,130.77 C 33.16,130.82 33.34,130.87 33.53,130.92 C 33.72,130.98 33.91,131.03 34.10,131.08 C 34.28,131.13 34.47,131.18 34.66,131.24 C 34.84,131.29 35.03,131.34 35.21,131.39 C 35.40,131.45 35.58,131.50 35.77,131.55 C 35.95,131.61 36.13,131.66 36.32,131.71 C 36.50,131.77 36.68,131.82 36.86,131.88 C 37.04,131.93 37.22,131.99 37.41,132.04 C 37.59,132.09 37.76,132.15 37.94,132.20 C 38.12,132.26 38.30,132.32 38.48,132.37 C 38.66,132.43 38.83,132.48 39.01,132.54 C 39.19,132.59 39.36,132.65 39.54,132.71 C 39.71,132.76 39.89,132.82 40.06,132.88 C 40.24,132.94 40.41,132.99 40.59,133.05 C 40.76,133.11 40.93,133.17 41.10,133.22 C 41.28,133.28 41.45,133.34 41.62,133.40 C 41.79,133.46 41.96,133.51 42.13,133.57 C 42.30,133.63 42.47,133.69 42.64,133.75 C 42.80,133.81 42.97,133.87 43.14,133.93 C 43.31,133.99 43.47,134.05 43.64,134.11 C 43.81,134.17 43.97,134.23 44.14,134.29 C 44.30,134.35 44.47,134.42 44.63,134.48 C 44.80,134.54 44.96,134.60 45.12,134.66 C 45.28,134.72 45.45,134.79 45.61,134.85 C 45.77,134.91 45.93,134.97 46.09,135.04 C 46.25,135.10 46.41,135.16 46.57,135.23 C 46.73,135.29 46.89,135.35 47.05,135.42 C 47.21,135.48 47.37,135.55 47.52,135.61 C 47.68,135.67 47.84,135.74 47.99,135.80 C 48.15,135.87 48.31,135.93 48.46,136.00 C 48.62,136.07 48.77,136.13 48.93,136.20 C 49.08,136.26 49.23,136.33 49.39,136.40 C 49.54,136.46 49.69,136.53 49.84,136.60 C 50.00,136.66 50.15,136.73 50.30,136.80 C 50.45,136.87 50.60,136.94 50.75,137.00 C 50.90,137.07 51.05,137.14 51.20,137.21 C 51.35,137.28 51.49,137.35 51.64,137.42 C 51.79,137.49 51.94,137.56 52.08,137.63 C 52.23,137.70 52.38,137.77 52.52,137.84 C 52.67,137.91 52.81,137.98 52.96,138.05 C 53.10,138.12 53.24,138.19 53.39,138.26 C 53.53,138.33 53.67,138.41 53.82,138.48 C 53.96,138.55 54.10,138.62 54.24,138.70 C 54.38,138.77 54.52,138.84 54.66,138.91 C 54.81,138.99 54.94,139.06 55.08,139.14 C 55.22,139.21 55.36,139.28 55.50,139.36 C 55.64,139.43 55.78,139.51 55.91,139.58 C 56.05,139.66 56.19,139.73 56.32,139.81 C 56.46,139.88 56.60,139.96 56.73,140.04 C 56.87,140.11 57.00,140.19 57.14,140.27 C 57.27,140.34 57.40,140.42 57.54,140.50 C 57.67,140.57 57.80,140.65 57.93,140.73 C 58.07,140.81 58.20,140.89 58.33,140.97 C 58.46,141.04 58.59,141.12 58.72,141.20 C 58.85,141.28 58.98,141.36 59.11,141.44 C 59.24,141.52 59.37,141.60 59.50,141.68 C 59.63,141.76 59.75,141.84 59.88,141.92 C 60.01,142.00 60.13,142.09 60.26,142.17 C 60.39,142.25 60.51,142.33 60.64,142.41 C 60.76,142.50 60.89,142.58 61.01,142.66 C 61.14,142.74 61.26,142.83 61.38,142.91 C 61.51,142.99 61.63,143.08 61.75,143.16 C 61.88,143.25 62.00,143.33 62.12,143.42 C 62.24,143.50 62.36,143.59 62.48,143.67 C 62.60,143.76 62.72,143.84 62.84,143.93 C 62.96,144.01 63.08,144.10 63.20,144.19 C 63.32,144.27 63.44,144.36 63.55,144.45 C 63.67,144.54 63.79,144.62 63.90,144.71 C 64.02,144.80 64.14,144.89 64.25,144.98 C 64.37,145.06 64.48,145.15 64.60,145.24 C 64.71,145.33 64.83,145.42 64.94,145.51 C 65.06,145.60 65.17,145.69 65.28,145.78 C 65.40,145.87 65.51,145.96 65.62,146.05 C 65.73,146.14 65.84,146.24 65.96,146.33 C 66.07,146.42 66.18,146.51 66.29,146.60 C 66.40,146.70 66.51,146.79 66.62,146.88 C 66.73,146.97 66.84,147.07 66.94,147.16 C 67.05,147.26 67.16,147.35 67.27,147.44 C 67.38,147.54 67.48,147.63 67.59,147.73 C 67.70,147.82 67.80,147.92 67.91,148.01 C 68.01,148.11 68.12,148.20 68.23,148.30 C 68.33,148.40 68.43,148.49 68.54,148.59 C 68.64,148.69 68.75,148.78 68.85,148.88 C 68.95,148.98 69.06,149.08 69.16,149.18 C 69.26,149.27 69.36,149.37 69.46,149.47 C 69.56,149.57 69.67,149.67 69.77,149.77 C 69.87,149.87 69.97,149.97 70.07,150.07 C 70.17,150.17 70.27,150.27 70.36,150.37 C 70.46,150.47 70.56,150.57 70.66,150.67 C 70.76,150.77 70.86,150.87 70.95,150.98 C 71.05,151.08 71.15,151.18 71.24,151.28 C 71.34,151.39 71.44,151.49 71.53,151.59 C 71.63,151.69 71.72,151.80 71.82,151.90 C 71.91,152.01 72.00,152.11 72.10,152.21 C 72.19,152.32 72.29,152.42 72.38,152.53 C 72.47,152.63 72.56,152.74 72.66,152.85 C 72.75,152.95 72.84,153.06 72.93,153.16 C 73.02,153.27 73.11,153.38 73.20,153.48 C 73.30,153.59 73.39,153.70 73.48,153.81 C 73.56,153.91 73.65,154.02 73.74,154.13 C 73.83,154.24 73.92,154.35 74.01,154.46 C 74.10,154.56 74.18,154.67 74.27,154.78 C 74.36,154.89 74.45,155.00 74.53,155.11 C 74.62,155.22 74.71,155.33 74.79,155.44 C 74.88,155.55 74.96,155.66 75.05,155.78 C 75.13,155.89 75.22,156.00 75.30,156.11 C 75.38,156.22 75.47,156.33 75.55,156.45 C 75.64,156.56 75.72,156.67 75.80,156.78 C 75.88,156.90 75.97,157.01 76.05,157.12 C 76.13,157.24 76.21,157.35 76.29,157.47 C 76.37,157.58 76.45,157.69 76.53,157.81 C 76.61,157.92 76.69,158.04 76.77,158.15 C 76.85,158.27 76.93,158.39 77.01,158.50 C 77.09,158.62 77.17,158.73 77.25,158.85 C 77.32,158.97 77.40,159.08 77.48,159.20 C 77.56,159.32 77.63,159.43 77.71,159.55 C 77.79,159.67 77.86,159.79 77.94,159.90 C 78.01,160.02 78.09,160.14 78.17,160.26 C 78.24,160.38 78.31,160.50 78.39,160.62 C 78.46,160.73 78.54,160.85 78.61,160.97 C 78.68,161.09 78.76,161.21 78.83,161.33 C 78.90,161.45 78.98,161.57 79.05,161.69 C 79.12,161.81 79.19,161.93 79.26,162.06 C 79.34,162.18 79.41,162.30 79.48,162.42 C 79.55,162.54 79.62,162.66 79.69,162.78 C 79.76,162.91 79.83,163.03 79.90,163.15 C 79.97,163.27 80.04,163.40 80.10,163.52 C 80.17,163.64 80.24,163.77 80.31,163.89 C 80.38,164.01 80.44,164.14 80.51,164.26 C 80.58,164.38 80.65,164.51 80.71,164.63 C 80.78,164.75 80.85,164.88 80.91,165.00 C 80.98,165.13 81.04,165.25 81.11,165.38 C 81.17,165.50 81.24,165.63 81.30,165.75 C 81.37,165.88 81.43,166.00 81.49,166.13 C 81.56,166.26 81.62,166.38 81.68,166.51 C 81.75,166.63 81.81,166.76 81.87,166.89 C 81.94,167.01 82.00,167.14 82.06,167.27 C 82.12,167.39 82.18,167.52 82.24,167.65 C 82.31,167.77 82.37,167.90 82.43,168.03 C 82.49,168.15 82.55,168.28 82.61,168.41 C 82.67,168.54 82.73,168.67 82.79,168.79 C 82.85,168.92 82.90,169.05 82.96,169.18 C 83.02,169.31 83.08,169.43 83.14,169.56 C 83.20,169.69 83.25,169.82 83.31,169.95 C 83.37,170.08 83.42,170.21 83.48,170.33 C 83.54,170.46 83.59,170.59 83.65,170.72 C 83.71,170.85 83.76,170.98 83.82,171.11 C 83.87,171.24 83.93,171.37 83.98,171.50 C 84.04,171.63 84.09,171.76 84.15,171.89 C 84.20,172.02 84.25,172.15 84.31,172.28 C 84.36,172.41 84.41,172.54 84.47,172.67 C 84.52,172.80 84.57,172.93 84.63,173.06 C 84.68,173.19 84.73,173.32 84.78,173.45 C 84.83,173.58 84.89,173.71 84.94,173.84 C 84.99,173.97 85.04,174.10 85.09,174.23 C 85.14,174.36 85.19,174.49 85.24,174.62 C 85.29,174.75 85.34,174.88 85.39,175.01 C 85.44,175.14 85.49,175.27 85.54,175.40 C 85.58,175.53 85.63,175.66 85.68,175.79 C 85.73,175.92 85.78,176.05 85.83,176.18 C 85.87,176.32 85.92,176.45 85.97,176.58 C 86.01,176.71 86.06,176.84 86.11,176.97 C 86.15,177.10 86.20,177.23 86.25,177.36 C 86.29,177.49 86.34,177.62 86.38,177.75 C 86.43,177.88 86.47,178.01 86.52,178.14 C 86.56,178.27 86.61,178.40 86.65,178.53 C 86.70,178.66 86.74,178.79 86.78,178.92 C 86.83,179.05 86.87,179.18 86.91,179.31 C 86.96,179.44 87.00,179.57 87.04,179.70 C 87.09,179.83 87.13,179.96 87.17,180.09 C 87.21,180.21 87.25,180.34 87.30,180.47 C 87.34,180.60 87.38,180.73 87.42,180.86 C 87.46,180.99 87.50,181.12 87.54,181.25 C 87.58,181.37 87.62,181.50 87.66,181.63 C 87.70,181.76 87.74,181.89 87.78,182.01 C 87.82,182.14 87.86,182.27 87.90,182.40 C 87.94,182.53 87.98,182.65 88.02,182.78 C 88.05,182.91 88.09,183.04 88.13,183.16 C 88.17,183.29 88.21,183.42 88.24,183.54 C 88.28,183.67 88.32,183.80 88.36,183.92 C 88.39,184.05 88.43,184.17 88.47,184.30 C 88.50,184.42 88.54,184.55 88.57,184.68 C 88.61,184.80 88.65,184.93 88.68,185.05 C 88.72,185.18 88.75,185.30 88.79,185.42 C 88.82,185.55 88.86,185.67 88.89,185.80 C 88.93,185.92 88.96,186.04 88.99,186.17 C 89.03,186.29 89.06,186.41 89.10,186.54 C 89.13,186.66 89.16,186.78 89.19,186.90 C 89.23,187.03 89.26,187.15 89.29,187.27 C 89.33,187.39 89.36,187.51 89.39,187.63 C 89.42,187.76 89.45,187.88 89.49,188.00 C 89.52,188.12 89.55,188.24 89.58,188.36 C 89.61,188.48 89.64,188.60 89.67,188.72 C 89.70,188.83 89.73,188.95 89.77,189.07 C 89.80,189.19 89.83,189.31 89.86,189.43 C 89.89,189.54 89.92,189.66 89.94,189.78 C 89.97,189.90 90.00,190.01 90.03,190.13 C 90.06,190.24 90.09,190.36 90.12,190.48 C 90.15,190.59 90.18,190.71 90.20,190.82 C 90.23,190.94 90.26,191.05 90.29,191.17 C 90.31,191.28 90.34,191.39 90.37,191.51 C 90.40,191.62 90.42,191.73 90.45,191.84 C 90.48,191.96 90.50,192.07 90.53,192.18 C 90.56,192.29 90.58,192.40 90.61,192.51 C 90.64,192.62 90.66,192.74 90.69,192.84 C 90.71,192.95 90.74,193.06 90.76,193.17 C 90.79,193.28 90.81,193.39 90.84,193.50 C 90.86,193.61 90.89,193.71 90.91,193.82 C 90.94,193.93 90.96,194.04 90.98,194.14 C 91.01,194.25 91.03,194.35 91.06,194.46 C 91.08,194.56 91.10,194.67 91.13,194.77 C 91.15,194.88 91.17,194.98 91.20,195.08 C 91.22,195.19 91.24,195.29 91.26,195.39 C 91.29,195.50 91.31,195.60 91.33,195.70 C 91.35,195.80 91.37,195.90 91.40,196.00 C 91.42,196.10 91.44,196.20 91.46,196.30 C 91.48,196.40 91.50,196.50 91.52,196.60 C 91.54,196.70 91.57,196.79 91.59,196.89 C 91.61,196.99 91.63,197.08 91.65,197.18 C 91.67,197.28 91.69,197.37 91.71,197.47 C 91.73,197.56 91.75,197.66 91.77,197.75 C 91.79,197.84 91.81,197.94 91.82,198.03 C 91.84,198.12 91.86,198.22 91.88,198.31 C 91.90,198.40 91.92,198.49 91.94,198.58 C 91.96,198.67 91.97,198.76 91.99,198.85 C 92.01,198.94 92.03,199.03 92.05,199.12 C 92.06,199.21 92.08,199.30 92.10,199.38 C 92.12,199.47 92.13,199.56 92.15,199.64 C 92.17,199.73 92.19,199.81 92.20,199.90 C 92.22,199.98 92.24,200.07 92.25,200.15 C 92.27,200.24 92.29,200.32 92.30,200.40 C 92.32,200.48 92.33,200.57 92.35,200.65 C 92.37,200.73 92.38,200.81 92.40,200.89 C 92.41,200.97 92.43,201.05 92.44,201.13 C 92.46,201.21 92.47,201.29 92.49,201.37 C 92.50,201.44 92.52,201.52 92.53,201.60 C 92.55,201.67 92.56,201.75 92.58,201.83 C 92.59,201.90 92.60,201.98 92.62,202.05 C 92.63,202.12 92.65,202.20 92.66,202.27 C 92.67,202.34 92.69,202.42 92.70,202.49 C 92.71,202.56 92.73,202.63 92.74,202.70 C 92.75,202.77 92.77,202.84 92.78,202.91 C 92.79,202.98 92.81,203.05 92.82,203.12 C 92.83,203.19 92.84,203.26 92.86,203.32 C 92.87,203.39 92.88,203.46 92.89,203.52 C 92.90,203.59 92.92,203.65 92.93,203.72 C 92.94,203.78 92.95,203.85 92.96,203.91 C 92.97,203.98 92.99,204.04 93.00,204.10 C 93.01,204.16 93.02,204.22 93.03,204.29 C 93.04,204.35 93.05,204.41 93.06,204.47 C 93.07,204.53 93.08,204.59 93.09,204.65 C 93.11,204.70 93.12,204.76 93.13,204.82 C 93.14,204.88 93.15,204.93 93.16,204.99 C 93.17,205.05 93.18,205.10 93.19,205.16 C 93.20,205.21 93.21,205.27 93.21,205.32 C 93.22,205.38 93.23,205.43 93.24,205.48 C 93.25,205.54 93.26,205.59 93.27,205.64 C 93.28,205.69 93.29,205.74 93.30,205.79 C 93.31,205.84 93.31,205.89 93.32,205.94 C 93.33,205.99 93.34,206.04 93.35,206.09 C 93.36,206.14 93.37,206.19 93.37,206.23 C 93.38,206.28 93.39,206.33 93.40,206.37 C 93.41,206.42 93.41,206.46 93.42,206.51 C 93.43,206.55 93.44,206.60 93.44,206.64 C 93.45,206.69 93.46,206.73 93.47,206.77 C 93.47,206.81 93.48,206.86 93.49,206.90 C 93.49,206.94 93.50,206.98 93.51,207.02 C 93.52,207.06 93.52,207.10 93.53,207.14 C 93.54,207.18 93.54,207.22 93.55,207.26 C 93.56,207.30 93.56,207.33 93.57,207.37 C 93.57,207.41 93.58,207.45 93.59,207.48 C 93.59,207.52 93.60,207.56 93.60,207.59 C 93.61,207.63 93.62,207.66 93.62,207.69 C 93.63,207.73 93.63,207.76 93.64,207.80 C 93.65,207.83 93.65,207.86 93.66,207.89 C 93.66,207.93 93.67,207.96 93.67,207.99 C 93.68,208.02 93.68,208.05 93.69,208.08 C 93.69,208.11 93.70,208.14 93.70,208.17 C 93.71,208.20 93.71,208.23 93.72,208.26 C 93.72,208.29 93.73,208.32 93.73,208.34 C 93.74,208.37 93.74,208.40 93.74,208.43 C 93.75,208.45 93.75,208.48 93.76,208.50 C 93.76,208.53 93.77,208.55 93.77,208.58 C 93.77,208.60 93.78,208.63 93.78,208.65 C 93.79,208.68 93.79,208.70 93.79,208.72 C 93.80,208.75 93.80,208.77 93.80,208.79 C 93.81,208.81 93.81,208.84 93.82,208.86 C 93.82,208.88 93.82,208.90 93.83,208.92 C 93.83,208.94 93.83,208.96 93.84,208.98 C 93.84,209.00 93.84,209.02 93.85,209.04 C 93.85,209.06 93.85,209.08 93.85,209.10 C 93.86,209.12 93.86,209.13 93.86,209.15 C 93.87,209.17 93.87,209.19 93.87,209.20 C 93.87,209.22 93.88,209.24 93.88,209.25 C 93.88,209.27 93.88,209.28 93.89,209.30 C 93.89,209.31 93.89,209.33 93.89,209.34 C 93.90,209.36 93.90,209.37 93.90,209.39 C 93.90,209.40 93.91,209.42 93.91,209.43 C 93.91,209.44 93.91,209.46 93.91,209.47 C 93.92,209.48 93.92,209.49 93.92,209.51 C 93.92,209.52 93.92,209.53 93.93,209.54 C 93.93,209.55 93.93,209.56 93.93,209.58 C 93.93,209.59 93.94,209.60 93.94,209.61 C 93.94,209.62 93.94,209.63 93.94,209.64 C 93.94,209.65 93.95,209.66 93.95,209.67 C 93.95,209.68 93.95,209.69 93.95,209.69 C 93.95,209.70 93.95,209.71 93.96,209.72 C 93.96,209.73 93.96,209.74 93.96,209.74 C 93.96,209.75 93.96,209.76 93.96,209.77 C 93.96,209.77 93.96,209.78 93.97,209.79 C 93.97,209.79 93.97,209.80 93.97,209.81 C 93.97,209.81 93.97,209.82 93.97,209.83 C 93.97,209.83 93.97,209.84 93.97,209.84 C 93.98,209.85 93.98,209.85 93.98,209.86 C 93.98,209.86 93.98,209.87 93.98,209.87 C 93.98,209.88 93.98,209.88 93.98,209.89 C 93.98,209.89 93.98,209.90 93.98,209.90 C 93.98,209.90 93.99,209.91 93.99,209.91 C 93.99,209.92 93.99,209.92 93.99,209.92 C 93.99,209.93 93.99,209.93 93.99,209.93 C 93.99,209.94 93.99,209.94 93.99,209.94 C 93.99,209.94 93.99,209.95 93.99,209.95 C 93.99,209.95 93.99,209.95 93.99,209.96 C 93.99,209.96 93.99,209.96 93.99,209.96 C 93.99,209.97 93.99,209.97 94.00,209.97 C 94.00,209.97 94.00,209.97 94.00,209.97 C 94.00,209.98 94.00,209.98 94.00,209.98 C 94.00,209.98 94.00,209.98 94.00,209.98 C 94.00,209.98 94.00,209.99 94.00,209.99 C 94.00,209.99 94.00,209.99 94.00,209.99 C 94.00,209.99 94.00,209.99 94.00,209.99 C 94.00,209.99 94.00,209.99 94.00,209.99 C 94.00,209.99 94.00,209.99 94.00,210.00 C 94.00,210.00 94.00,210.00 94.00,210.00 C 94.00,210.00 94.00,210.00 94.00,210.00 C 94.00,210.00 94.00,210.00 94.00,210.00 C 94.00,210.00 94.00,210.00 94.00,210.00 C 94.00,210.00 94.00,210.00 94.00,210.00 C 94.00,210.00 94.00,210.00 94.00,210.00 C 94.00,210.00 94.00,210.00 94.00,210.00 C 94.00,210.00 94.00,210.00 94.00,210.00 C 94.00,210.00 94.00,210.00 94.00,210.00 C 94.00,210.00 94.00,210.00 94.00,210.00" />
    <!-- ветвь в I квадранте -->
    <path d="M 126.00,10.00 C 126.00,10.00 126.00,10.00 126.00,10.00 C 126.00,10.00 126.00,10.00 126.00,10.00 C 126.00,10.00 126.00,10.00 126.00,10.00 C 126.00,10.00 126.00,10.00 126.00,10.00 C 126.00,10.00 126.00,10.00 126.00,10.00 C 126.00,10.00 126.00,10.00 126.00,10.00 C 126.00,10.00 126.00,10.00 126.00,10.00 C 126.00,10.00 126.00,10.00 126.00,10.00 C 126.00,10.00 126.00,10.00 126.00,10.00 C 126.00,10.00 126.00,10.00 126.00,10.00 C 126.00,10.01 126.00,10.01 126.00,10.01 C 126.00,10.01 126.00,10.01 126.00,10.01 C 126.00,10.01 126.00,10.01 126.00,10.01 C 126.00,10.01 126.00,10.01 126.00,10.01 C 126.00,10.01 126.00,10.02 126.00,10.02 C 126.00,10.02 126.00,10.02 126.00,10.02 C 126.00,10.02 126.00,10.02 126.00,10.03 C 126.00,10.03 126.00,10.03 126.00,10.03 C 126.01,10.03 126.01,10.03 126.01,10.04 C 126.01,10.04 126.01,10.04 126.01,10.04 C 126.01,10.05 126.01,10.05 126.01,10.05 C 126.01,10.05 126.01,10.06 126.01,10.06 C 126.01,10.06 126.01,10.06 126.01,10.07 C 126.01,10.07 126.01,10.07 126.01,10.08 C 126.01,10.08 126.01,10.08 126.01,10.09 C 126.01,10.09 126.02,10.10 126.02,10.10 C 126.02,10.10 126.02,10.11 126.02,10.11 C 126.02,10.12 126.02,10.12 126.02,10.13 C 126.02,10.13 126.02,10.14 126.02,10.14 C 126.02,10.15 126.02,10.15 126.03,10.16 C 126.03,10.16 126.03,10.17 126.03,10.17 C 126.03,10.18 126.03,10.19 126.03,10.19 C 126.03,10.20 126.03,10.21 126.03,10.21 C 126.04,10.22 126.04,10.23 126.04,10.23 C 126.04,10.24 126.04,10.25 126.04,10.26 C 126.04,10.26 126.04,10.27 126.04,10.28 C 126.05,10.29 126.05,10.30 126.05,10.31 C 126.05,10.31 126.05,10.32 126.05,10.33 C 126.05,10.34 126.06,10.35 126.06,10.36 C 126.06,10.37 126.06,10.38 126.06,10.39 C 126.06,10.40 126.07,10.41 126.07,10.42 C 126.07,10.44 126.07,10.45 126.07,10.46 C 126.08,10.47 126.08,10.48 126.08,10.49 C 126.08,10.51 126.08,10.52 126.09,10.53 C 126.09,10.54 126.09,10.56 126.09,10.57 C 126.09,10.58 126.10,10.60 126.10,10.61 C 126.10,10.63 126.10,10.64 126.11,10.66 C 126.11,10.67 126.11,10.69 126.11,10.70 C 126.12,10.72 126.12,10.73 126.12,10.75 C 126.12,10.76 126.13,10.78 126.13,10.80 C 126.13,10.81 126.13,10.83 126.14,10.85 C 126.14,10.87 126.14,10.88 126.15,10.90 C 126.15,10.92 126.15,10.94 126.15,10.96 C 126.16,10.98 126.16,11.00 126.16,11.02 C 126.17,11.04 126.17,11.06 126.17,11.08 C 126.18,11.10 126.18,11.12 126.18,11.14 C 126.19,11.16 126.19,11.19 126.20,11.21 C 126.20,11.23 126.20,11.25 126.21,11.28 C 126.21,11.30 126.21,11.32 126.22,11.35 C 126.22,11.37 126.23,11.40 126.23,11.42 C 126.23,11.45 126.24,11.47 126.24,11.50 C 126.25,11.52 126.25,11.55 126.26,11.57 C 126.26,11.60 126.26,11.63 126.27,11.66 C 126.27,11.68 126.28,11.71 126.28,11.74 C 126.29,11.77 126.29,11.80 126.30,11.83 C 126.30,11.86 126.31,11.89 126.31,11.92 C 126.32,11.95 126.32,11.98 126.33,12.01 C 126.33,12.04 126.34,12.07 126.34,12.11 C 126.35,12.14 126.35,12.17 126.36,12.20 C 126.37,12.24 126.37,12.27 126.38,12.31 C 126.38,12.34 126.39,12.37 126.40,12.41 C 126.40,12.44 126.41,12.48 126.41,12.52 C 126.42,12.55 126.43,12.59 126.43,12.63 C 126.44,12.67 126.44,12.70 126.45,12.74 C 126.46,12.78 126.46,12.82 126.47,12.86 C 126.48,12.90 126.48,12.94 126.49,12.98 C 126.50,13.02 126.51,13.06 126.51,13.10 C 126.52,13.14 126.53,13.19 126.53,13.23 C 126.54,13.27 126.55,13.31 126.56,13.36 C 126.56,13.40 126.57,13.45 126.58,13.49 C 126.59,13.54 126.59,13.58 126.60,13.63 C 126.61,13.67 126.62,13.72 126.63,13.77 C 126.63,13.81 126.64,13.86 126.65,13.91 C 126.66,13.96 126.67,14.01 126.68,14.06 C 126.69,14.11 126.69,14.16 126.70,14.21 C 126.71,14.26 126.72,14.31 126.73,14.36 C 126.74,14.41 126.75,14.46 126.76,14.52 C 126.77,14.57 126.78,14.62 126.79,14.68 C 126.79,14.73 126.80,14.79 126.81,14.84 C 126.82,14.90 126.83,14.95 126.84,15.01 C 126.85,15.07 126.86,15.12 126.87,15.18 C 126.88,15.24 126.89,15.30 126.91,15.35 C 126.92,15.41 126.93,15.47 126.94,15.53 C 126.95,15.59 126.96,15.65 126.97,15.71 C 126.98,15.78 126.99,15.84 127.00,15.90 C 127.01,15.96 127.03,16.02 127.04,16.09 C 127.05,16.15 127.06,16.22 127.07,16.28 C 127.08,16.35 127.10,16.41 127.11,16.48 C 127.12,16.54 127.13,16.61 127.14,16.68 C 127.16,16.74 127.17,16.81 127.18,16.88 C 127.19,16.95 127.21,17.02 127.22,17.09 C 127.23,17.16 127.25,17.23 127.26,17.30 C 127.27,17.37 127.29,17.44 127.30,17.51 C 127.31,17.58 127.33,17.66 127.34,17.73 C 127.35,17.80 127.37,17.88 127.38,17.95 C 127.40,18.02 127.41,18.10 127.42,18.17 C 127.44,18.25 127.45,18.33 127.47,18.40 C 127.48,18.48 127.50,18.56 127.51,18.63 C 127.53,18.71 127.54,18.79 127.56,18.87 C 127.57,18.95 127.59,19.03 127.60,19.11 C 127.62,19.19 127.63,19.27 127.65,19.35 C 127.67,19.43 127.68,19.52 127.70,19.60 C 127.71,19.68 127.73,19.76 127.75,19.85 C 127.76,19.93 127.78,20.02 127.80,20.10 C 127.81,20.19 127.83,20.27 127.85,20.36 C 127.87,20.44 127.88,20.53 127.90,20.62 C 127.92,20.70 127.94,20.79 127.95,20.88 C 127.97,20.97 127.99,21.06 128.01,21.15 C 128.03,21.24 128.04,21.33 128.06,21.42 C 128.08,21.51 128.10,21.60 128.12,21.69 C 128.14,21.78 128.16,21.88 128.18,21.97 C 128.19,22.06 128.21,22.16 128.23,22.25 C 128.25,22.34 128.27,22.44 128.29,22.53 C 128.31,22.63 128.33,22.72 128.35,22.82 C 128.37,22.92 128.39,23.01 128.41,23.11 C 128.43,23.21 128.46,23.30 128.48,23.40 C 128.50,23.50 128.52,23.60 128.54,23.70 C 128.56,23.80 128.58,23.90 128.60,24.00 C 128.63,24.10 128.65,24.20 128.67,24.30 C 128.69,24.40 128.71,24.50 128.74,24.61 C 128.76,24.71 128.78,24.81 128.80,24.92 C 128.83,25.02 128.85,25.12 128.87,25.23 C 128.90,25.33 128.92,25.44 128.94,25.54 C 128.97,25.65 128.99,25.75 129.02,25.86 C 129.04,25.96 129.06,26.07 129.09,26.18 C 129.11,26.29 129.14,26.39 129.16,26.50 C 129.19,26.61 129.21,26.72 129.24,26.83 C 129.26,26.94 129.29,27.05 129.31,27.16 C 129.34,27.26 129.36,27.38 129.39,27.49 C 129.42,27.60 129.44,27.71 129.47,27.82 C 129.50,27.93 129.52,28.04 129.55,28.16 C 129.58,28.27 129.60,28.38 129.63,28.49 C 129.66,28.61 129.69,28.72 129.71,28.83 C 129.74,28.95 129.77,29.06 129.80,29.18 C 129.82,29.29 129.85,29.41 129.88,29.52 C 129.91,29.64 129.94,29.76 129.97,29.87 C 130.00,29.99 130.03,30.10 130.06,30.22 C 130.08,30.34 130.11,30.46 130.14,30.57 C 130.17,30.69 130.20,30.81 130.23,30.93 C 130.27,31.05 130.30,31.17 130.33,31.28 C 130.36,31.40 130.39,31.52 130.42,31.64 C 130.45,31.76 130.48,31.88 130.51,32.00 C 130.55,32.12 130.58,32.24 130.61,32.37 C 130.64,32.49 130.67,32.61 130.71,32.73 C 130.74,32.85 130.77,32.97 130.81,33.10 C 130.84,33.22 130.87,33.34 130.90,33.46 C 130.94,33.59 130.97,33.71 131.01,33.83 C 131.04,33.96 131.07,34.08 131.11,34.20 C 131.14,34.33 131.18,34.45 131.21,34.58 C 131.25,34.70 131.28,34.82 131.32,34.95 C 131.35,35.07 131.39,35.20 131.43,35.32 C 131.46,35.45 131.50,35.58 131.53,35.70 C 131.57,35.83 131.61,35.95 131.64,36.08 C 131.68,36.20 131.72,36.33 131.76,36.46 C 131.79,36.58 131.83,36.71 131.87,36.84 C 131.91,36.96 131.95,37.09 131.98,37.22 C 132.02,37.35 132.06,37.47 132.10,37.60 C 132.14,37.73 132.18,37.86 132.22,37.99 C 132.26,38.11 132.30,38.24 132.34,38.37 C 132.38,38.50 132.42,38.63 132.46,38.75 C 132.50,38.88 132.54,39.01 132.58,39.14 C 132.62,39.27 132.66,39.40 132.70,39.53 C 132.75,39.66 132.79,39.79 132.83,39.91 C 132.87,40.04 132.91,40.17 132.96,40.30 C 133.00,40.43 133.04,40.56 133.09,40.69 C 133.13,40.82 133.17,40.95 133.22,41.08 C 133.26,41.21 133.30,41.34 133.35,41.47 C 133.39,41.60 133.44,41.73 133.48,41.86 C 133.53,41.99 133.57,42.12 133.62,42.25 C 133.66,42.38 133.71,42.51 133.75,42.64 C 133.80,42.77 133.85,42.90 133.89,43.03 C 133.94,43.16 133.99,43.29 134.03,43.42 C 134.08,43.55 134.13,43.68 134.17,43.82 C 134.22,43.95 134.27,44.08 134.32,44.21 C 134.37,44.34 134.42,44.47 134.46,44.60 C 134.51,44.73 134.56,44.86 134.61,44.99 C 134.66,45.12 134.71,45.25 134.76,45.38 C 134.81,45.51 134.86,45.64 134.91,45.77 C 134.96,45.90 135.01,46.03 135.06,46.16 C 135.11,46.29 135.17,46.42 135.22,46.55 C 135.27,46.68 135.32,46.81 135.37,46.94 C 135.43,47.07 135.48,47.20 135.53,47.33 C 135.59,47.46 135.64,47.59 135.69,47.72 C 135.75,47.85 135.80,47.98 135.85,48.11 C 135.91,48.24 135.96,48.37 136.02,48.50 C 136.07,48.63 136.13,48.76 136.18,48.89 C 136.24,49.02 136.29,49.15 136.35,49.28 C 136.41,49.41 136.46,49.54 136.52,49.67 C 136.58,49.79 136.63,49.92 136.69,50.05 C 136.75,50.18 136.80,50.31 136.86,50.44 C 136.92,50.57 136.98,50.69 137.04,50.82 C 137.10,50.95 137.15,51.08 137.21,51.21 C 137.27,51.33 137.33,51.46 137.39,51.59 C 137.45,51.72 137.51,51.85 137.57,51.97 C 137.63,52.10 137.69,52.23 137.76,52.35 C 137.82,52.48 137.88,52.61 137.94,52.73 C 138.00,52.86 138.06,52.99 138.13,53.11 C 138.19,53.24 138.25,53.37 138.32,53.49 C 138.38,53.62 138.44,53.74 138.51,53.87 C 138.57,54.00 138.63,54.12 138.70,54.25 C 138.76,54.37 138.83,54.50 138.89,54.62 C 138.96,54.75 139.02,54.87 139.09,55.00 C 139.15,55.12 139.22,55.25 139.29,55.37 C 139.35,55.49 139.42,55.62 139.49,55.74 C 139.56,55.86 139.62,55.99 139.69,56.11 C 139.76,56.23 139.83,56.36 139.90,56.48 C 139.96,56.60 140.03,56.73 140.10,56.85 C 140.17,56.97 140.24,57.09 140.31,57.22 C 140.38,57.34 140.45,57.46 140.52,57.58 C 140.59,57.70 140.66,57.82 140.74,57.94 C 140.81,58.07 140.88,58.19 140.95,58.31 C 141.02,58.43 141.10,58.55 141.17,58.67 C 141.24,58.79 141.32,58.91 141.39,59.03 C 141.46,59.15 141.54,59.27 141.61,59.38 C 141.69,59.50 141.76,59.62 141.83,59.74 C 141.91,59.86 141.99,59.98 142.06,60.10 C 142.14,60.21 142.21,60.33 142.29,60.45 C 142.37,60.57 142.44,60.68 142.52,60.80 C 142.60,60.92 142.68,61.03 142.75,61.15 C 142.83,61.27 142.91,61.38 142.99,61.50 C 143.07,61.61 143.15,61.73 143.23,61.85 C 143.31,61.96 143.39,62.08 143.47,62.19 C 143.55,62.31 143.63,62.42 143.71,62.53 C 143.79,62.65 143.87,62.76 143.95,62.88 C 144.03,62.99 144.12,63.10 144.20,63.22 C 144.28,63.33 144.36,63.44 144.45,63.55 C 144.53,63.67 144.62,63.78 144.70,63.89 C 144.78,64.00 144.87,64.11 144.95,64.22 C 145.04,64.34 145.12,64.45 145.21,64.56 C 145.29,64.67 145.38,64.78 145.47,64.89 C 145.55,65.00 145.64,65.11 145.73,65.22 C 145.82,65.33 145.90,65.44 145.99,65.54 C 146.08,65.65 146.17,65.76 146.26,65.87 C 146.35,65.98 146.44,66.09 146.52,66.19 C 146.61,66.30 146.70,66.41 146.80,66.52 C 146.89,66.62 146.98,66.73 147.07,66.84 C 147.16,66.94 147.25,67.05 147.34,67.15 C 147.44,67.26 147.53,67.37 147.62,67.47 C 147.71,67.58 147.81,67.68 147.90,67.79 C 148.00,67.89 148.09,67.99 148.18,68.10 C 148.28,68.20 148.37,68.31 148.47,68.41 C 148.56,68.51 148.66,68.61 148.76,68.72 C 148.85,68.82 148.95,68.92 149.05,69.02 C 149.14,69.13 149.24,69.23 149.34,69.33 C 149.44,69.43 149.54,69.53 149.64,69.63 C 149.73,69.73 149.83,69.83 149.93,69.93 C 150.03,70.03 150.13,70.13 150.23,70.23 C 150.33,70.33 150.44,70.43 150.54,70.53 C 150.64,70.63 150.74,70.73 150.84,70.82 C 150.94,70.92 151.05,71.02 151.15,71.12 C 151.25,71.22 151.36,71.31 151.46,71.41 C 151.57,71.51 151.67,71.60 151.77,71.70 C 151.88,71.80 151.99,71.89 152.09,71.99 C 152.20,72.08 152.30,72.18 152.41,72.27 C 152.52,72.37 152.62,72.46 152.73,72.56 C 152.84,72.65 152.95,72.74 153.06,72.84 C 153.16,72.93 153.27,73.03 153.38,73.12 C 153.49,73.21 153.60,73.30 153.71,73.40 C 153.82,73.49 153.93,73.58 154.04,73.67 C 154.16,73.76 154.27,73.86 154.38,73.95 C 154.49,74.04 154.60,74.13 154.72,74.22 C 154.83,74.31 154.94,74.40 155.06,74.49 C 155.17,74.58 155.29,74.67 155.40,74.76 C 155.52,74.85 155.63,74.94 155.75,75.02 C 155.86,75.11 155.98,75.20 156.10,75.29 C 156.21,75.38 156.33,75.46 156.45,75.55 C 156.56,75.64 156.68,75.73 156.80,75.81 C 156.92,75.90 157.04,75.99 157.16,76.07 C 157.28,76.16 157.40,76.24 157.52,76.33 C 157.64,76.41 157.76,76.50 157.88,76.58 C 158.00,76.67 158.12,76.75 158.25,76.84 C 158.37,76.92 158.49,77.01 158.62,77.09 C 158.74,77.17 158.86,77.26 158.99,77.34 C 159.11,77.42 159.24,77.50 159.36,77.59 C 159.49,77.67 159.61,77.75 159.74,77.83 C 159.87,77.91 159.99,78.00 160.12,78.08 C 160.25,78.16 160.37,78.24 160.50,78.32 C 160.63,78.40 160.76,78.48 160.89,78.56 C 161.02,78.64 161.15,78.72 161.28,78.80 C 161.41,78.88 161.54,78.96 161.67,79.03 C 161.80,79.11 161.93,79.19 162.07,79.27 C 162.20,79.35 162.33,79.43 162.46,79.50 C 162.60,79.58 162.73,79.66 162.86,79.73 C 163.00,79.81 163.13,79.89 163.27,79.96 C 163.40,80.04 163.54,80.12 163.68,80.19 C 163.81,80.27 163.95,80.34 164.09,80.42 C 164.22,80.49 164.36,80.57 164.50,80.64 C 164.64,80.72 164.78,80.79 164.92,80.86 C 165.06,80.94 165.19,81.01 165.34,81.09 C 165.48,81.16 165.62,81.23 165.76,81.30 C 165.90,81.38 166.04,81.45 166.18,81.52 C 166.33,81.59 166.47,81.67 166.61,81.74 C 166.76,81.81 166.90,81.88 167.04,81.95 C 167.19,82.02 167.33,82.09 167.48,82.16 C 167.62,82.23 167.77,82.30 167.92,82.37 C 168.06,82.44 168.21,82.51 168.36,82.58 C 168.51,82.65 168.65,82.72 168.80,82.79 C 168.95,82.86 169.10,82.93 169.25,83.00 C 169.40,83.06 169.55,83.13 169.70,83.20 C 169.85,83.27 170.00,83.34 170.16,83.40 C 170.31,83.47 170.46,83.54 170.61,83.60 C 170.77,83.67 170.92,83.74 171.07,83.80 C 171.23,83.87 171.38,83.93 171.54,84.00 C 171.69,84.07 171.85,84.13 172.01,84.20 C 172.16,84.26 172.32,84.33 172.48,84.39 C 172.63,84.45 172.79,84.52 172.95,84.58 C 173.11,84.65 173.27,84.71 173.43,84.77 C 173.59,84.84 173.75,84.90 173.91,84.96 C 174.07,85.03 174.23,85.09 174.39,85.15 C 174.55,85.21 174.72,85.28 174.88,85.34 C 175.04,85.40 175.20,85.46 175.37,85.52 C 175.53,85.58 175.70,85.65 175.86,85.71 C 176.03,85.77 176.19,85.83 176.36,85.89 C 176.53,85.95 176.69,86.01 176.86,86.07 C 177.03,86.13 177.20,86.19 177.36,86.25 C 177.53,86.31 177.70,86.37 177.87,86.43 C 178.04,86.49 178.21,86.54 178.38,86.60 C 178.55,86.66 178.72,86.72 178.90,86.78 C 179.07,86.83 179.24,86.89 179.41,86.95 C 179.59,87.01 179.76,87.06 179.94,87.12 C 180.11,87.18 180.29,87.24 180.46,87.29 C 180.64,87.35 180.81,87.41 180.99,87.46 C 181.17,87.52 181.34,87.57 181.52,87.63 C 181.70,87.68 181.88,87.74 182.06,87.80 C 182.24,87.85 182.41,87.91 182.59,87.96 C 182.78,88.01 182.96,88.07 183.14,88.12 C 183.32,88.18 183.50,88.23 183.68,88.29 C 183.87,88.34 184.05,88.39 184.23,88.45 C 184.42,88.50 184.60,88.55 184.79,88.61 C 184.97,88.66 185.16,88.71 185.34,88.76 C 185.53,88.82 185.72,88.87 185.90,88.92 C 186.09,88.97 186.28,89.02 186.47,89.08 C 186.66,89.13 186.84,89.18 187.03,89.23 C 187.22,89.28 187.41,89.33 187.61,89.38 C 187.80,89.43 187.99,89.48 188.18,89.53 C 188.37,89.58 188.57,89.64 188.76,89.68 C 188.95,89.73 189.15,89.78 189.34,89.83 C 189.54,89.88 189.73,89.93 189.93,89.98 C 190.12,90.03 190.32,90.08 190.52,90.13 C 190.71,90.18 190.91,90.23 191.11,90.27 C 191.31,90.32 191.51,90.37 191.71,90.42 C 191.91,90.47 192.11,90.51 192.31,90.56 C 192.51,90.61 192.71,90.66 192.91,90.70 C 193.12,90.75 193.32,90.80 193.52,90.84 C 193.73,90.89 193.93,90.94 194.13,90.98 C 194.34,91.03 194.54,91.08 194.75,91.12 C 194.96,91.17 195.16,91.21 195.37,91.26 C 195.58,91.30 195.79,91.35 195.99,91.39 C 196.20,91.44 196.41,91.48 196.62,91.53 C 196.83,91.57 197.04,91.62 197.25,91.66 C 197.46,91.71 197.68,91.75 197.89,91.80 C 198.10,91.84 198.31,91.88 198.53,91.93 C 198.74,91.97 198.96,92.01 199.17,92.06 C 199.39,92.10 199.60,92.14 199.82,92.19 C 200.03,92.23 200.25,92.27 200.47,92.31 C 200.69,92.36 200.90,92.40 201.12,92.44 C 201.34,92.48 201.56,92.53 201.78,92.57 C 202.00,92.61 202.22,92.65 202.44,92.69 C 202.67,92.73 202.89,92.78 203.11,92.82 C 203.33,92.86 203.56,92.90 203.78,92.94 C 204.01,92.98 204.23,93.02 204.46,93.06 C 204.68,93.10 204.91,93.14 205.14,93.18 C 205.36,93.22 205.59,93.26 205.82,93.30 C 206.05,93.34 206.28,93.38 206.51,93.42 C 206.73,93.46 206.96,93.50 207.20,93.54 C 207.43,93.58 207.66,93.62 207.89,93.66 C 208.12,93.69 208.36,93.73 208.59,93.77 C 208.82,93.81 209.06,93.85 209.29,93.89 C 209.53,93.92 209.88,93.98 210.00,94.00" />
  </g>

  <!-- точка (1;4) -->
  <circle cx="130.00" cy="30.00" r="2.2" fill="#2d70b3" />

  <!-- подпись f(x) в (2;4) -->
  <text x="150.00" y="30.00"
        font-family="Georgia, 'Times New Roman', serif"
        font-style="italic"
        font-size="13"
        fill="#2d70b3">
    f(x)
  </text>

</svg>
