<svg xmlns="http://www.w3.org/2000/svg" width="220" height="220" viewBox="0 0 220 220">

  <rect x="0" y="0" width="220" height="220" fill="white" />

  <defs>
    <!-- стрелка для осей -->
    <marker id="axis-arrow"
            viewBox="0 0 15 8"
            refX="13" refY="4"
            markerWidth="12" markerHeight="6.4"
            orient="auto"
            markerUnits="userSpaceOnUse">
      <path d="M 3 0 L 15 4 L 3 8 L 7 4 Z"
            fill="black" />
    </marker>

    <!-- ограничение рисования гиперболы: x,y ∈ [-5.5;5.5] -->
    <clipPath id="clip-55">
      <rect x="18.33" y="18.33" width="183.33" height="183.33" />
    </clipPath>
  </defs>

  <!-- тонкая клетчатая сетка: по x и y от -6 до 6, без окаймления -->
  <g stroke="#d1d5db" stroke-width="0.5" shape-rendering="crispEdges">
    <line x1="26.67" y1="10" x2="26.67" y2="210" />
    <line x1="43.33" y1="10" x2="43.33" y2="210" />
    <line x1="60.00" y1="10" x2="60.00" y2="210" />
    <line x1="76.67" y1="10" x2="76.67" y2="210" />
    <line x1="93.33" y1="10" x2="93.33" y2="210" />
    <line x1="110.00" y1="10" x2="110.00" y2="210" />
    <line x1="126.67" y1="10" x2="126.67" y2="210" />
    <line x1="143.33" y1="10" x2="143.33" y2="210" />
    <line x1="160.00" y1="10" x2="160.00" y2="210" />
    <line x1="176.67" y1="10" x2="176.67" y2="210" />
    <line x1="193.33" y1="10" x2="193.33" y2="210" />
    <line x1="10" y1="193.33" x2="210" y2="193.33" />
    <line x1="10" y1="176.67" x2="210" y2="176.67" />
    <line x1="10" y1="160.00" x2="210" y2="160.00" />
    <line x1="10" y1="143.33" x2="210" y2="143.33" />
    <line x1="10" y1="126.67" x2="210" y2="126.67" />
    <line x1="10" y1="110.00" x2="210" y2="110.00" />
    <line x1="10" y1="93.33" x2="210" y2="93.33" />
    <line x1="10" y1="76.67" x2="210" y2="76.67" />
    <line x1="10" y1="60.00" x2="210" y2="60.00" />
    <line x1="10" y1="43.33" x2="210" y2="43.33" />
    <line x1="10" y1="26.67" x2="210" y2="26.67" />
  </g>

  <!-- оси x и y (0 находится в точке (110;110)) -->
  <g stroke="#111827" stroke-width="1.25">
    <line x1="10" y1="110" x2="210" y2="110"
          marker-end="url(#axis-arrow)" />
    <line x1="110" y1="210" x2="110" y2="10"
          marker-end="url(#axis-arrow)" />
  </g>

  <!-- подписи осей и делений -->
  <g font-family="sans-serif" font-size="11" fill="#111827">
    <text x="106" y="123" text-anchor="end"
          font-size="13" font-style="italic"
          font-family="Georgia, 'Times New Roman', serif">O</text>

    <rect x="123.67" y="112.00" width="7" height="12" fill="white" />
    <text x="126.67" y="123.00" text-anchor="middle" font-size="13"
          font-family="'Times New Roman', serif"
          font-weight="300">1</text>

    <text x="105.00" y="97.33" text-anchor="end" font-size="13"
          font-family="'Times New Roman', serif"
          font-weight="300">1</text>

    <text x="208.67" y="123.00" text-anchor="start"
          font-family="Georgia, 'Times New Roman', serif"
          font-style="italic" font-size="13">x</text>

    <text x="107.00" y="11.33" text-anchor="end"
          font-family="Georgia, 'Times New Roman', serif"
          font-style="italic" font-size="13">y</text>
  </g>

  <!-- гипербола y = k/x, k=-3 (гладкая интерполяция); обрезана по окну [-5.5;5.5]×[-5.5;5.5] -->
  <g stroke="#2d70b3" stroke-width="1.25" fill="none"
     stroke-linecap="round" stroke-linejoin="round"
     clip-path="url(#clip-55)">
    <path d="M 18.33,100.91 C 18.41,100.90 18.65,100.88 18.81,100.86 C 18.96,100.85 19.12,100.83 19.28,100.81 C 19.43,100.80 19.59,100.78 19.75,100.77 C 19.90,100.75 20.06,100.73 20.21,100.72 C 20.37,100.70 20.52,100.69 20.68,100.67 C 20.83,100.65 20.99,100.64 21.14,100.62 C 21.29,100.61 21.45,100.59 21.60,100.57 C 21.75,100.56 21.91,100.54 22.06,100.52 C 22.21,100.51 22.37,100.49 22.52,100.47 C 22.67,100.46 22.82,100.44 22.97,100.42 C 23.12,100.41 23.27,100.39 23.43,100.37 C 23.58,100.36 23.73,100.34 23.88,100.32 C 24.03,100.31 24.18,100.29 24.33,100.27 C 24.48,100.26 24.63,100.24 24.77,100.22 C 24.92,100.20 25.07,100.19 25.22,100.17 C 25.37,100.15 25.52,100.14 25.66,100.12 C 25.81,100.10 25.96,100.08 26.11,100.07 C 26.25,100.05 26.40,100.03 26.55,100.01 C 26.69,100.00 26.84,99.98 26.98,99.96 C 27.13,99.94 27.28,99.93 27.42,99.91 C 27.57,99.89 27.71,99.87 27.86,99.86 C 28.00,99.84 28.14,99.82 28.29,99.80 C 28.43,99.78 28.58,99.77 28.72,99.75 C 28.86,99.73 29.01,99.71 29.15,99.69 C 29.29,99.67 29.43,99.66 29.58,99.64 C 29.72,99.62 29.86,99.60 30.00,99.58 C 30.14,99.56 30.28,99.55 30.42,99.53 C 30.57,99.51 30.71,99.49 30.85,99.47 C 30.99,99.45 31.13,99.43 31.27,99.42 C 31.41,99.40 31.55,99.38 31.68,99.36 C 31.82,99.34 31.96,99.32 32.10,99.30 C 32.24,99.28 32.38,99.26 32.52,99.25 C 32.65,99.23 32.79,99.21 32.93,99.19 C 33.07,99.17 33.20,99.15 33.34,99.13 C 33.48,99.11 33.61,99.09 33.75,99.07 C 33.88,99.05 34.02,99.03 34.16,99.01 C 34.29,98.99 34.43,98.97 34.56,98.95 C 34.70,98.93 34.83,98.91 34.96,98.89 C 35.10,98.87 35.23,98.85 35.37,98.83 C 35.50,98.81 35.63,98.79 35.77,98.77 C 35.90,98.75 36.03,98.73 36.17,98.71 C 36.30,98.69 36.43,98.67 36.56,98.65 C 36.69,98.63 36.83,98.61 36.96,98.59 C 37.09,98.57 37.22,98.55 37.35,98.53 C 37.48,98.51 37.61,98.49 37.74,98.47 C 37.87,98.45 38.00,98.43 38.13,98.40 C 38.26,98.38 38.39,98.36 38.52,98.34 C 38.65,98.32 38.78,98.30 38.91,98.28 C 39.04,98.26 39.16,98.24 39.29,98.21 C 39.42,98.19 39.55,98.17 39.67,98.15 C 39.80,98.13 39.93,98.11 40.06,98.09 C 40.18,98.06 40.31,98.04 40.43,98.02 C 40.56,98.00 40.69,97.98 40.81,97.96 C 40.94,97.93 41.06,97.91 41.19,97.89 C 41.31,97.87 41.44,97.85 41.56,97.82 C 41.69,97.80 41.81,97.78 41.94,97.76 C 42.06,97.73 42.18,97.71 42.31,97.69 C 42.43,97.67 42.55,97.64 42.68,97.62 C 42.80,97.60 42.92,97.58 43.04,97.55 C 43.17,97.53 43.29,97.51 43.41,97.49 C 43.53,97.46 43.65,97.44 43.77,97.42 C 43.90,97.39 44.02,97.37 44.14,97.35 C 44.26,97.32 44.38,97.30 44.50,97.28 C 44.62,97.25 44.74,97.23 44.86,97.21 C 44.98,97.18 45.10,97.16 45.21,97.14 C 45.33,97.11 45.45,97.09 45.57,97.07 C 45.69,97.04 45.81,97.02 45.93,96.99 C 46.04,96.97 46.16,96.95 46.28,96.92 C 46.40,96.90 46.51,96.87 46.63,96.85 C 46.75,96.83 46.86,96.80 46.98,96.78 C 47.10,96.75 47.21,96.73 47.33,96.70 C 47.44,96.68 47.56,96.65 47.67,96.63 C 47.79,96.60 47.90,96.58 48.02,96.56 C 48.13,96.53 48.25,96.51 48.36,96.48 C 48.47,96.46 48.59,96.43 48.70,96.41 C 48.82,96.38 48.93,96.35 49.04,96.33 C 49.16,96.30 49.27,96.28 49.38,96.25 C 49.49,96.23 49.61,96.20 49.72,96.18 C 49.83,96.15 49.94,96.12 50.05,96.10 C 50.16,96.07 50.27,96.05 50.39,96.02 C 50.50,96.00 50.61,95.97 50.72,95.94 C 50.83,95.92 50.94,95.89 51.05,95.86 C 51.16,95.84 51.27,95.81 51.38,95.78 C 51.49,95.76 51.60,95.73 51.70,95.71 C 51.81,95.68 51.92,95.65 52.03,95.62 C 52.14,95.60 52.25,95.57 52.35,95.54 C 52.46,95.52 52.57,95.49 52.68,95.46 C 52.78,95.44 52.89,95.41 53.00,95.38 C 53.10,95.35 53.21,95.33 53.32,95.30 C 53.42,95.27 53.53,95.24 53.64,95.22 C 53.74,95.19 53.85,95.16 53.95,95.13 C 54.06,95.10 54.16,95.08 54.27,95.05 C 54.37,95.02 54.48,94.99 54.58,94.96 C 54.68,94.93 54.79,94.91 54.89,94.88 C 55.00,94.85 55.10,94.82 55.20,94.79 C 55.31,94.76 55.41,94.74 55.51,94.71 C 55.61,94.68 55.72,94.65 55.82,94.62 C 55.92,94.59 56.02,94.56 56.12,94.53 C 56.23,94.50 56.33,94.47 56.43,94.44 C 56.53,94.41 56.63,94.39 56.73,94.36 C 56.83,94.33 56.93,94.30 57.03,94.27 C 57.13,94.24 57.23,94.21 57.33,94.18 C 57.43,94.15 57.53,94.12 57.63,94.09 C 57.73,94.06 57.83,94.03 57.93,94.00 C 58.03,93.97 58.13,93.94 58.22,93.90 C 58.32,93.87 58.42,93.84 58.52,93.81 C 58.62,93.78 58.71,93.75 58.81,93.72 C 58.91,93.69 59.01,93.66 59.10,93.63 C 59.20,93.60 59.30,93.56 59.39,93.53 C 59.49,93.50 59.58,93.47 59.68,93.44 C 59.78,93.41 59.87,93.38 59.97,93.34 C 60.06,93.31 60.16,93.28 60.25,93.25 C 60.35,93.22 60.44,93.18 60.54,93.15 C 60.63,93.12 60.73,93.09 60.82,93.06 C 60.91,93.02 61.01,92.99 61.10,92.96 C 61.19,92.93 61.29,92.89 61.38,92.86 C 61.47,92.83 61.57,92.79 61.66,92.76 C 61.75,92.73 61.84,92.70 61.94,92.66 C 62.03,92.63 62.12,92.60 62.21,92.56 C 62.30,92.53 62.39,92.50 62.48,92.46 C 62.58,92.43 62.67,92.39 62.76,92.36 C 62.85,92.33 62.94,92.29 63.03,92.26 C 63.12,92.22 63.21,92.19 63.30,92.16 C 63.39,92.12 63.48,92.09 63.57,92.05 C 63.66,92.02 63.75,91.98 63.83,91.95 C 63.92,91.91 64.01,91.88 64.10,91.84 C 64.19,91.81 64.28,91.77 64.36,91.74 C 64.45,91.70 64.54,91.67 64.63,91.63 C 64.71,91.60 64.80,91.56 64.89,91.53 C 64.98,91.49 65.06,91.46 65.15,91.42 C 65.24,91.38 65.32,91.35 65.41,91.31 C 65.49,91.28 65.58,91.24 65.67,91.20 C 65.75,91.17 65.84,91.13 65.92,91.09 C 66.01,91.06 66.09,91.02 66.18,90.98 C 66.26,90.95 66.35,90.91 66.43,90.87 C 66.51,90.84 66.60,90.80 66.68,90.76 C 66.77,90.72 66.85,90.69 66.93,90.65 C 67.02,90.61 67.10,90.58 67.18,90.54 C 67.27,90.50 67.35,90.46 67.43,90.42 C 67.51,90.39 67.60,90.35 67.68,90.31 C 67.76,90.27 67.84,90.23 67.92,90.19 C 68.01,90.16 68.09,90.12 68.17,90.08 C 68.25,90.04 68.33,90.00 68.41,89.96 C 68.49,89.92 68.57,89.88 68.65,89.85 C 68.73,89.81 68.81,89.77 68.89,89.73 C 68.97,89.69 69.05,89.65 69.13,89.61 C 69.21,89.57 69.29,89.53 69.37,89.49 C 69.45,89.45 69.53,89.41 69.61,89.37 C 69.69,89.33 69.76,89.29 69.84,89.25 C 69.92,89.21 70.00,89.17 70.08,89.13 C 70.15,89.09 70.23,89.05 70.31,89.00 C 70.39,88.96 70.46,88.92 70.54,88.88 C 70.62,88.84 70.69,88.80 70.77,88.76 C 70.85,88.72 70.92,88.67 71.00,88.63 C 71.08,88.59 71.15,88.55 71.23,88.51 C 71.30,88.47 71.38,88.42 71.45,88.38 C 71.53,88.34 71.60,88.30 71.68,88.25 C 71.75,88.21 71.83,88.17 71.90,88.13 C 71.98,88.08 72.05,88.04 72.13,88.00 C 72.20,87.95 72.27,87.91 72.35,87.87 C 72.42,87.82 72.49,87.78 72.57,87.74 C 72.64,87.69 72.71,87.65 72.79,87.61 C 72.86,87.56 72.93,87.52 73.00,87.47 C 73.08,87.43 73.15,87.39 73.22,87.34 C 73.29,87.30 73.36,87.25 73.44,87.21 C 73.51,87.16 73.58,87.12 73.65,87.07 C 73.72,87.03 73.79,86.98 73.86,86.94 C 73.93,86.89 74.01,86.85 74.08,86.80 C 74.15,86.76 74.22,86.71 74.29,86.67 C 74.36,86.62 74.43,86.57 74.50,86.53 C 74.57,86.48 74.63,86.44 74.70,86.39 C 74.77,86.34 74.84,86.30 74.91,86.25 C 74.98,86.20 75.05,86.16 75.12,86.11 C 75.19,86.06 75.25,86.02 75.32,85.97 C 75.39,85.92 75.46,85.88 75.53,85.83 C 75.59,85.78 75.66,85.73 75.73,85.69 C 75.79,85.64 75.86,85.59 75.93,85.54 C 76.00,85.49 76.06,85.45 76.13,85.40 C 76.20,85.35 76.26,85.30 76.33,85.25 C 76.39,85.20 76.46,85.15 76.53,85.11 C 76.59,85.06 76.66,85.01 76.72,84.96 C 76.79,84.91 76.85,84.86 76.92,84.81 C 76.98,84.76 77.05,84.71 77.11,84.66 C 77.18,84.61 77.24,84.56 77.30,84.51 C 77.37,84.46 77.43,84.41 77.50,84.36 C 77.56,84.31 77.62,84.26 77.69,84.21 C 77.75,84.16 77.81,84.11 77.88,84.06 C 77.94,84.01 78.00,83.96 78.07,83.90 C 78.13,83.85 78.19,83.80 78.25,83.75 C 78.32,83.70 78.38,83.65 78.44,83.59 C 78.50,83.54 78.56,83.49 78.63,83.44 C 78.69,83.39 78.75,83.33 78.81,83.28 C 78.87,83.23 78.93,83.18 78.99,83.12 C 79.05,83.07 79.11,83.02 79.18,82.97 C 79.24,82.91 79.30,82.86 79.36,82.81 C 79.42,82.75 79.48,82.70 79.54,82.64 C 79.60,82.59 79.66,82.54 79.72,82.48 C 79.77,82.43 79.83,82.38 79.89,82.32 C 79.95,82.27 80.01,82.21 80.07,82.16 C 80.13,82.10 80.19,82.05 80.25,81.99 C 80.30,81.94 80.36,81.88 80.42,81.83 C 80.48,81.77 80.54,81.72 80.59,81.66 C 80.65,81.61 80.71,81.55 80.77,81.49 C 80.82,81.44 80.88,81.38 80.94,81.33 C 80.99,81.27 81.05,81.21 81.11,81.16 C 81.16,81.10 81.22,81.04 81.28,80.99 C 81.33,80.93 81.39,80.87 81.44,80.82 C 81.50,80.76 81.56,80.70 81.61,80.64 C 81.67,80.59 81.72,80.53 81.78,80.47 C 81.83,80.41 81.89,80.36 81.94,80.30 C 82.00,80.24 82.05,80.18 82.11,80.12 C 82.16,80.06 82.22,80.01 82.27,79.95 C 82.32,79.89 82.38,79.83 82.43,79.77 C 82.49,79.71 82.54,79.65 82.59,79.59 C 82.65,79.53 82.70,79.47 82.75,79.41 C 82.81,79.36 82.86,79.30 82.91,79.24 C 82.97,79.18 83.02,79.11 83.07,79.05 C 83.12,78.99 83.18,78.93 83.23,78.87 C 83.28,78.81 83.33,78.75 83.38,78.69 C 83.44,78.63 83.49,78.57 83.54,78.51 C 83.59,78.45 83.64,78.38 83.69,78.32 C 83.74,78.26 83.80,78.20 83.85,78.14 C 83.90,78.08 83.95,78.01 84.00,77.95 C 84.05,77.89 84.10,77.83 84.15,77.76 C 84.20,77.70 84.25,77.64 84.30,77.58 C 84.35,77.51 84.40,77.45 84.45,77.39 C 84.50,77.32 84.55,77.26 84.60,77.20 C 84.65,77.13 84.70,77.07 84.74,77.00 C 84.79,76.94 84.84,76.88 84.89,76.81 C 84.94,76.75 84.99,76.68 85.04,76.62 C 85.08,76.55 85.13,76.49 85.18,76.42 C 85.23,76.36 85.28,76.29 85.32,76.23 C 85.37,76.16 85.42,76.10 85.47,76.03 C 85.51,75.97 85.56,75.90 85.61,75.84 C 85.65,75.77 85.70,75.70 85.75,75.64 C 85.79,75.57 85.84,75.51 85.89,75.44 C 85.93,75.37 85.98,75.31 86.03,75.24 C 86.07,75.17 86.12,75.11 86.16,75.04 C 86.21,74.97 86.26,74.90 86.30,74.84 C 86.35,74.77 86.39,74.70 86.44,74.63 C 86.48,74.57 86.53,74.50 86.57,74.43 C 86.62,74.36 86.66,74.29 86.71,74.22 C 86.75,74.16 86.80,74.09 86.84,74.02 C 86.88,73.95 86.93,73.88 86.97,73.81 C 87.02,73.74 87.06,73.67 87.10,73.60 C 87.15,73.53 87.19,73.46 87.23,73.40 C 87.28,73.33 87.32,73.26 87.36,73.19 C 87.41,73.12 87.45,73.04 87.49,72.97 C 87.54,72.90 87.58,72.83 87.62,72.76 C 87.66,72.69 87.71,72.62 87.75,72.55 C 87.79,72.48 87.83,72.41 87.87,72.34 C 87.92,72.27 87.96,72.19 88.00,72.12 C 88.04,72.05 88.08,71.98 88.12,71.91 C 88.17,71.83 88.21,71.76 88.25,71.69 C 88.29,71.62 88.33,71.55 88.37,71.47 C 88.41,71.40 88.45,71.33 88.49,71.25 C 88.53,71.18 88.57,71.11 88.61,71.04 C 88.65,70.96 88.69,70.89 88.73,70.82 C 88.77,70.74 88.81,70.67 88.85,70.59 C 88.89,70.52 88.93,70.45 88.97,70.37 C 89.01,70.30 89.05,70.22 89.09,70.15 C 89.13,70.07 89.17,70.00 89.21,69.93 C 89.24,69.85 89.28,69.78 89.32,69.70 C 89.36,69.63 89.40,69.55 89.44,69.48 C 89.47,69.40 89.51,69.32 89.55,69.25 C 89.59,69.17 89.63,69.10 89.66,69.02 C 89.70,68.95 89.74,68.87 89.78,68.79 C 89.81,68.72 89.85,68.64 89.89,68.56 C 89.93,68.49 89.96,68.41 90.00,68.33 C 90.04,68.26 90.07,68.18 90.11,68.10 C 90.15,68.03 90.18,67.95 90.22,67.87 C 90.26,67.79 90.29,67.72 90.33,67.64 C 90.36,67.56 90.40,67.48 90.44,67.40 C 90.47,67.33 90.51,67.25 90.54,67.17 C 90.58,67.09 90.61,67.01 90.65,66.93 C 90.68,66.86 90.72,66.78 90.75,66.70 C 90.79,66.62 90.82,66.54 90.86,66.46 C 90.89,66.38 90.93,66.30 90.96,66.22 C 91.00,66.14 91.03,66.07 91.07,65.99 C 91.10,65.91 91.14,65.83 91.17,65.75 C 91.20,65.67 91.24,65.59 91.27,65.51 C 91.30,65.43 91.34,65.35 91.37,65.27 C 91.41,65.19 91.44,65.10 91.47,65.02 C 91.50,64.94 91.54,64.86 91.57,64.78 C 91.60,64.70 91.64,64.62 91.67,64.54 C 91.70,64.46 91.73,64.38 91.77,64.29 C 91.80,64.21 91.83,64.13 91.86,64.05 C 91.90,63.97 91.93,63.89 91.96,63.80 C 91.99,63.72 92.02,63.64 92.06,63.56 C 92.09,63.48 92.12,63.39 92.15,63.31 C 92.18,63.23 92.21,63.15 92.25,63.06 C 92.28,62.98 92.31,62.90 92.34,62.82 C 92.37,62.73 92.40,62.65 92.43,62.57 C 92.46,62.48 92.49,62.40 92.52,62.32 C 92.55,62.23 92.58,62.15 92.61,62.07 C 92.64,61.98 92.68,61.90 92.71,61.82 C 92.74,61.73 92.77,61.65 92.80,61.56 C 92.82,61.48 92.85,61.40 92.88,61.31 C 92.91,61.23 92.94,61.14 92.97,61.06 C 93.00,60.98 93.03,60.89 93.06,60.81 C 93.09,60.72 93.12,60.64 93.15,60.55 C 93.18,60.47 93.20,60.38 93.23,60.30 C 93.26,60.21 93.29,60.13 93.32,60.04 C 93.35,59.96 93.38,59.87 93.40,59.79 C 93.43,59.70 93.46,59.62 93.49,59.53 C 93.52,59.45 93.54,59.36 93.57,59.27 C 93.60,59.19 93.63,59.10 93.65,59.02 C 93.68,58.93 93.71,58.85 93.74,58.76 C 93.76,58.67 93.79,58.59 93.82,58.50 C 93.85,58.41 93.87,58.33 93.90,58.24 C 93.93,58.16 93.95,58.07 93.98,57.98 C 94.01,57.90 94.03,57.81 94.06,57.72 C 94.09,57.64 94.11,57.55 94.14,57.46 C 94.16,57.38 94.19,57.29 94.22,57.20 C 94.24,57.12 94.27,57.03 94.29,56.94 C 94.32,56.86 94.35,56.77 94.37,56.68 C 94.40,56.59 94.42,56.51 94.45,56.42 C 94.47,56.33 94.50,56.25 94.52,56.16 C 94.55,56.07 94.57,55.98 94.60,55.90 C 94.62,55.81 94.65,55.72 94.67,55.63 C 94.70,55.55 94.72,55.46 94.75,55.37 C 94.77,55.28 94.79,55.20 94.82,55.11 C 94.84,55.02 94.87,54.93 94.89,54.84 C 94.92,54.76 94.94,54.67 94.96,54.58 C 94.99,54.49 95.01,54.40 95.03,54.32 C 95.06,54.23 95.08,54.14 95.11,54.05 C 95.13,53.96 95.15,53.88 95.18,53.79 C 95.20,53.70 95.22,53.61 95.24,53.52 C 95.27,53.44 95.29,53.35 95.31,53.26 C 95.34,53.17 95.36,53.08 95.38,52.99 C 95.40,52.91 95.43,52.82 95.45,52.73 C 95.47,52.64 95.49,52.55 95.52,52.46 C 95.54,52.38 95.56,52.29 95.58,52.20 C 95.60,52.11 95.63,52.02 95.65,51.93 C 95.67,51.85 95.69,51.76 95.71,51.67 C 95.74,51.58 95.76,51.49 95.78,51.40 C 95.80,51.32 95.82,51.23 95.84,51.14 C 95.86,51.05 95.88,50.96 95.91,50.87 C 95.93,50.79 95.95,50.70 95.97,50.61 C 95.99,50.52 96.01,50.43 96.03,50.34 C 96.05,50.26 96.07,50.17 96.09,50.08 C 96.11,49.99 96.13,49.90 96.15,49.81 C 96.17,49.73 96.19,49.64 96.21,49.55 C 96.23,49.46 96.25,49.37 96.27,49.28 C 96.29,49.20 96.31,49.11 96.33,49.02 C 96.35,48.93 96.37,48.84 96.39,48.76 C 96.41,48.67 96.43,48.58 96.45,48.49 C 96.47,48.40 96.49,48.32 96.51,48.23 C 96.53,48.14 96.55,48.05 96.57,47.96 C 96.59,47.88 96.61,47.79 96.62,47.70 C 96.64,47.61 96.66,47.52 96.68,47.44 C 96.70,47.35 96.72,47.26 96.74,47.17 C 96.75,47.09 96.77,47.00 96.79,46.91 C 96.81,46.82 96.83,46.74 96.85,46.65 C 96.86,46.56 96.88,46.47 96.90,46.39 C 96.92,46.30 96.94,46.21 96.95,46.13 C 96.97,46.04 96.99,45.95 97.01,45.86 C 97.02,45.78 97.04,45.69 97.06,45.60 C 97.08,45.52 97.09,45.43 97.11,45.34 C 97.13,45.26 97.15,45.17 97.16,45.08 C 97.18,45.00 97.20,44.91 97.21,44.82 C 97.23,44.74 97.25,44.65 97.26,44.56 C 97.28,44.48 97.30,44.39 97.31,44.31 C 97.33,44.22 97.35,44.13 97.36,44.05 C 97.38,43.96 97.40,43.88 97.41,43.79 C 97.43,43.71 97.45,43.62 97.46,43.53 C 97.48,43.45 97.49,43.36 97.51,43.28 C 97.53,43.19 97.54,43.11 97.56,43.02 C 97.57,42.94 97.59,42.85 97.61,42.77 C 97.62,42.68 97.64,42.60 97.65,42.51 C 97.67,42.43 97.68,42.34 97.70,42.26 C 97.71,42.18 97.73,42.09 97.74,42.01 C 97.76,41.92 97.77,41.84 97.79,41.76 C 97.80,41.67 97.82,41.59 97.83,41.50 C 97.85,41.42 97.86,41.34 97.88,41.25 C 97.89,41.17 97.91,41.09 97.92,41.00 C 97.94,40.92 97.95,40.84 97.97,40.76 C 97.98,40.67 97.99,40.59 98.01,40.51 C 98.02,40.42 98.04,40.34 98.05,40.26 C 98.06,40.18 98.08,40.10 98.09,40.01 C 98.11,39.93 98.12,39.85 98.13,39.77 C 98.15,39.69 98.16,39.61 98.18,39.52 C 98.19,39.44 98.20,39.36 98.22,39.28 C 98.23,39.20 98.24,39.12 98.26,39.04 C 98.27,38.96 98.28,38.88 98.30,38.80 C 98.31,38.72 98.32,38.64 98.34,38.56 C 98.35,38.48 98.36,38.40 98.37,38.32 C 98.39,38.24 98.40,38.16 98.41,38.08 C 98.43,38.00 98.44,37.92 98.45,37.84 C 98.46,37.76 98.48,37.68 98.49,37.60 C 98.50,37.52 98.51,37.45 98.53,37.37 C 98.54,37.29 98.55,37.21 98.56,37.13 C 98.58,37.06 98.59,36.98 98.60,36.90 C 98.61,36.82 98.62,36.75 98.64,36.67 C 98.65,36.59 98.66,36.51 98.67,36.44 C 98.68,36.36 98.70,36.28 98.71,36.21 C 98.72,36.13 98.73,36.06 98.74,35.98 C 98.75,35.90 98.76,35.83 98.78,35.75 C 98.79,35.68 98.80,35.60 98.81,35.53 C 98.82,35.45 98.83,35.38 98.84,35.30 C 98.86,35.23 98.87,35.15 98.88,35.08 C 98.89,35.00 98.90,34.93 98.91,34.86 C 98.92,34.78 98.93,34.71 98.94,34.63 C 98.95,34.56 98.96,34.49 98.97,34.42 C 98.99,34.34 99.00,34.27 99.01,34.20 C 99.02,34.12 99.03,34.05 99.04,33.98 C 99.05,33.91 99.06,33.84 99.07,33.76 C 99.08,33.69 99.09,33.62 99.10,33.55 C 99.11,33.48 99.12,33.41 99.13,33.34 C 99.14,33.27 99.15,33.20 99.16,33.13 C 99.17,33.06 99.18,32.99 99.19,32.92 C 99.20,32.85 99.21,32.78 99.22,32.71 C 99.23,32.64 99.24,32.57 99.25,32.50 C 99.26,32.43 99.27,32.36 99.28,32.29 C 99.29,32.23 99.29,32.16 99.30,32.09 C 99.31,32.02 99.32,31.95 99.33,31.89 C 99.34,31.82 99.35,31.75 99.36,31.69 C 99.37,31.62 99.38,31.55 99.39,31.49 C 99.40,31.42 99.40,31.35 99.41,31.29 C 99.42,31.22 99.43,31.16 99.44,31.09 C 99.45,31.03 99.46,30.96 99.47,30.90 C 99.47,30.83 99.48,30.77 99.49,30.70 C 99.50,30.64 99.51,30.57 99.52,30.51 C 99.52,30.45 99.53,30.38 99.54,30.32 C 99.55,30.26 99.56,30.19 99.57,30.13 C 99.57,30.07 99.58,30.01 99.59,29.94 C 99.60,29.88 99.61,29.82 99.61,29.76 C 99.62,29.70 99.63,29.64 99.64,29.57 C 99.65,29.51 99.65,29.45 99.66,29.39 C 99.67,29.33 99.68,29.27 99.69,29.21 C 99.69,29.15 99.70,29.09 99.71,29.03 C 99.72,28.97 99.72,28.91 99.73,28.85 C 99.74,28.80 99.75,28.74 99.75,28.68 C 99.76,28.62 99.77,28.56 99.77,28.50 C 99.78,28.45 99.79,28.39 99.80,28.33 C 99.80,28.27 99.81,28.22 99.82,28.16 C 99.82,28.10 99.83,28.05 99.84,27.99 C 99.85,27.93 99.85,27.88 99.86,27.82 C 99.87,27.77 99.87,27.71 99.88,27.66 C 99.89,27.60 99.89,27.55 99.90,27.49 C 99.91,27.44 99.91,27.38 99.92,27.33 C 99.93,27.28 99.93,27.22 99.94,27.17 C 99.95,27.12 99.95,27.06 99.96,27.01 C 99.97,26.96 99.97,26.90 99.98,26.85 C 99.98,26.80 99.99,26.75 100.00,26.70 C 100.00,26.64 100.01,26.59 100.01,26.54 C 100.02,26.49 100.03,26.44 100.03,26.39 C 100.04,26.34 100.05,26.29 100.05,26.24 C 100.06,26.19 100.06,26.14 100.07,26.09 C 100.07,26.04 100.08,25.99 100.09,25.94 C 100.09,25.89 100.10,25.84 100.10,25.80 C 100.11,25.75 100.11,25.70 100.12,25.65 C 100.13,25.60 100.13,25.56 100.14,25.51 C 100.14,25.46 100.15,25.42 100.15,25.37 C 100.16,25.32 100.16,25.28 100.17,25.23 C 100.17,25.18 100.18,25.14 100.19,25.09 C 100.19,25.05 100.20,25.00 100.20,24.96 C 100.21,24.91 100.21,24.87 100.22,24.82 C 100.22,24.78 100.23,24.74 100.23,24.69 C 100.24,24.65 100.24,24.60 100.25,24.56 C 100.25,24.52 100.26,24.48 100.26,24.43 C 100.27,24.39 100.27,24.35 100.28,24.31 C 100.28,24.26 100.29,24.22 100.29,24.18 C 100.29,24.14 100.30,24.10 100.30,24.06 C 100.31,24.02 100.31,23.97 100.32,23.93 C 100.32,23.89 100.33,23.85 100.33,23.81 C 100.34,23.77 100.34,23.73 100.34,23.70 C 100.35,23.66 100.35,23.62 100.36,23.58 C 100.36,23.54 100.37,23.50 100.37,23.46 C 100.37,23.42 100.38,23.39 100.38,23.35 C 100.39,23.31 100.39,23.27 100.40,23.24 C 100.40,23.20 100.40,23.16 100.41,23.13 C 100.41,23.09 100.42,23.05 100.42,23.02 C 100.42,22.98 100.43,22.95 100.43,22.91 C 100.44,22.87 100.44,22.84 100.44,22.80 C 100.45,22.77 100.45,22.73 100.45,22.70 C 100.46,22.67 100.46,22.63 100.47,22.60 C 100.47,22.56 100.47,22.53 100.48,22.50 C 100.48,22.46 100.48,22.43 100.49,22.40 C 100.49,22.37 100.49,22.33 100.50,22.30 C 100.50,22.27 100.50,22.24 100.51,22.20 C 100.51,22.17 100.52,22.14 100.52,22.11 C 100.52,22.08 100.53,22.05 100.53,22.02 C 100.53,21.99 100.54,21.96 100.54,21.92 C 100.54,21.89 100.54,21.86 100.55,21.83 C 100.55,21.81 100.55,21.78 100.56,21.75 C 100.56,21.72 100.56,21.69 100.57,21.66 C 100.57,21.63 100.57,21.60 100.58,21.57 C 100.58,21.55 100.58,21.52 100.58,21.49 C 100.59,21.46 100.59,21.43 100.59,21.41 C 100.60,21.38 100.60,21.35 100.60,21.33 C 100.61,21.30 100.61,21.27 100.61,21.25 C 100.61,21.22 100.62,21.19 100.62,21.17 C 100.62,21.14 100.62,21.12 100.63,21.09 C 100.63,21.07 100.63,21.04 100.63,21.02 C 100.64,20.99 100.64,20.97 100.64,20.94 C 100.65,20.92 100.65,20.89 100.65,20.87 C 100.65,20.85 100.66,20.82 100.66,20.80 C 100.66,20.78 100.66,20.75 100.67,20.73 C 100.67,20.71 100.67,20.68 100.67,20.66 C 100.67,20.64 100.68,20.62 100.68,20.59 C 100.68,20.57 100.68,20.55 100.69,20.53 C 100.69,20.51 100.69,20.49 100.69,20.46 C 100.69,20.44 100.70,20.42 100.70,20.40 C 100.70,20.38 100.70,20.36 100.71,20.34 C 100.71,20.32 100.71,20.30 100.71,20.28 C 100.71,20.26 100.72,20.24 100.72,20.22 C 100.72,20.20 100.72,20.18 100.72,20.16 C 100.73,20.14 100.73,20.12 100.73,20.11 C 100.73,20.09 100.73,20.07 100.74,20.05 C 100.74,20.03 100.74,20.01 100.74,20.00 C 100.74,19.98 100.74,19.96 100.75,19.94 C 100.75,19.92 100.75,19.91 100.75,19.89 C 100.75,19.87 100.76,19.86 100.76,19.84 C 100.76,19.82 100.76,19.81 100.76,19.79 C 100.76,19.77 100.77,19.76 100.77,19.74 C 100.77,19.73 100.77,19.71 100.77,19.69 C 100.77,19.68 100.78,19.66 100.78,19.65 C 100.78,19.63 100.78,19.62 100.78,19.60 C 100.78,19.59 100.78,19.57 100.79,19.56 C 100.79,19.55 100.79,19.53 100.79,19.52 C 100.79,19.50 100.79,19.49 100.79,19.48 C 100.80,19.46 100.80,19.45 100.80,19.43 C 100.80,19.42 100.80,19.41 100.80,19.39 C 100.80,19.38 100.81,19.37 100.81,19.36 C 100.81,19.34 100.81,19.33 100.81,19.32 C 100.81,19.31 100.81,19.29 100.81,19.28 C 100.82,19.27 100.82,19.26 100.82,19.25 C 100.82,19.23 100.82,19.22 100.82,19.21 C 100.82,19.20 100.82,19.19 100.82,19.18 C 100.83,19.17 100.83,19.16 100.83,19.14 C 100.83,19.13 100.83,19.12 100.83,19.11 C 100.83,19.10 100.83,19.09 100.83,19.08 C 100.84,19.07 100.84,19.06 100.84,19.05 C 100.84,19.04 100.84,19.03 100.84,19.02 C 100.84,19.01 100.84,19.00 100.84,18.99 C 100.84,18.98 100.85,18.97 100.85,18.97 C 100.85,18.96 100.85,18.95 100.85,18.94 C 100.85,18.93 100.85,18.92 100.85,18.91 C 100.85,18.90 100.85,18.90 100.85,18.89 C 100.85,18.88 100.86,18.87 100.86,18.86 C 100.86,18.86 100.86,18.85 100.86,18.84 C 100.86,18.83 100.86,18.82 100.86,18.82 C 100.86,18.81 100.86,18.80 100.86,18.79 C 100.86,18.79 100.86,18.78 100.87,18.77 C 100.87,18.77 100.87,18.76 100.87,18.75 C 100.87,18.75 100.87,18.74 100.87,18.73 C 100.87,18.73 100.87,18.72 100.87,18.71 C 100.87,18.71 100.87,18.70 100.87,18.70 C 100.87,18.69 100.87,18.68 100.87,18.68 C 100.88,18.67 100.88,18.67 100.88,18.66 C 100.88,18.65 100.88,18.65 100.88,18.64 C 100.88,18.64 100.88,18.63 100.88,18.63 C 100.88,18.62 100.88,18.62 100.88,18.61 C 100.88,18.61 100.88,18.60 100.88,18.60 C 100.88,18.59 100.88,18.59 100.88,18.58 C 100.88,18.58 100.89,18.57 100.89,18.57 C 100.89,18.56 100.89,18.56 100.89,18.56 C 100.89,18.55 100.89,18.55 100.89,18.54 C 100.89,18.54 100.89,18.53 100.89,18.53 C 100.89,18.53 100.89,18.52 100.89,18.52 C 100.89,18.52 100.89,18.51 100.89,18.51 C 100.89,18.50 100.89,18.50 100.89,18.50 C 100.89,18.49 100.89,18.49 100.89,18.49 C 100.89,18.48 100.89,18.48 100.89,18.48 C 100.90,18.47 100.90,18.47 100.90,18.47 C 100.90,18.47 100.90,18.46 100.90,18.46 C 100.90,18.46 100.90,18.45 100.90,18.45 C 100.90,18.45 100.90,18.45 100.90,18.44 C 100.90,18.44 100.90,18.44 100.90,18.44 C 100.90,18.43 100.90,18.43 100.90,18.43 C 100.90,18.43 100.90,18.42 100.90,18.42 C 100.90,18.42 100.90,18.42 100.90,18.42 C 100.90,18.41 100.90,18.41 100.90,18.41 C 100.90,18.41 100.90,18.41 100.90,18.40 C 100.90,18.40 100.90,18.40 100.90,18.40 C 100.90,18.40 100.90,18.39 100.90,18.39 C 100.90,18.39 100.90,18.39 100.90,18.39 C 100.90,18.39 100.90,18.38 100.90,18.38 C 100.90,18.38 100.90,18.38 100.90,18.38 C 100.90,18.38 100.90,18.38 100.90,18.37 C 100.91,18.37 100.91,18.37 100.91,18.37 C 100.91,18.37 100.91,18.37 100.91,18.37 C 100.91,18.37 100.91,18.37 100.91,18.36 C 100.91,18.36 100.91,18.36 100.91,18.36 C 100.91,18.36 100.91,18.36 100.91,18.36 C 100.91,18.36 100.91,18.36 100.91,18.36 C 100.91,18.36 100.91,18.35 100.91,18.35 C 100.91,18.35 100.91,18.35 100.91,18.35 C 100.91,18.35 100.91,18.35 100.91,18.35 C 100.91,18.35 100.91,18.35 100.91,18.35 C 100.91,18.35 100.91,18.35 100.91,18.35 C 100.91,18.35 100.91,18.34 100.91,18.34 C 100.91,18.34 100.91,18.34 100.91,18.34 C 100.91,18.34 100.91,18.34 100.91,18.34 C 100.91,18.34 100.91,18.34 100.91,18.34 C 100.91,18.34 100.91,18.34 100.91,18.34 C 100.91,18.34 100.91,18.34 100.91,18.34 C 100.91,18.34 100.91,18.34 100.91,18.34 C 100.91,18.34 100.91,18.34 100.91,18.34 C 100.91,18.34 100.91,18.34 100.91,18.34 C 100.91,18.34 100.91,18.34 100.91,18.34 C 100.91,18.34 100.91,18.34 100.91,18.34 C 100.91,18.34 100.91,18.33 100.91,18.33 C 100.91,18.33 100.91,18.33 100.91,18.33 C 100.91,18.33 100.91,18.33 100.91,18.33 C 100.91,18.33 100.91,18.33 100.91,18.33 C 100.91,18.33 100.91,18.33 100.91,18.33 C 100.91,18.33 100.91,18.33 100.91,18.33 C 100.91,18.33 100.91,18.33 100.91,18.33 C 100.91,18.33 100.91,18.33 100.91,18.33 C 100.91,18.33 100.91,18.33 100.91,18.33 C 100.91,18.33 100.91,18.33 100.91,18.33 C 100.91,18.33 100.91,18.33 100.91,18.33 C 100.91,18.33 100.91,18.33 100.91,18.33 C 100.91,18.33 100.91,18.33 100.91,18.33 C 100.91,18.33 100.91,18.33 100.91,18.33 C 100.91,18.33 100.91,18.33 100.91,18.33 C 100.91,18.33 100.91,18.33 100.91,18.33" />
    <path d="M 119.09,201.67 C 119.09,201.67 119.09,201.67 119.09,201.67 C 119.09,201.67 119.09,201.67 119.09,201.67 C 119.09,201.67 119.09,201.67 119.09,201.67 C 119.09,201.67 119.09,201.67 119.09,201.67 C 119.09,201.67 119.09,201.67 119.09,201.67 C 119.09,201.67 119.09,201.67 119.09,201.67 C 119.09,201.67 119.09,201.67 119.09,201.67 C 119.09,201.67 119.09,201.67 119.09,201.67 C 119.09,201.67 119.09,201.67 119.09,201.67 C 119.09,201.67 119.09,201.67 119.09,201.67 C 119.09,201.67 119.09,201.67 119.09,201.67 C 119.09,201.67 119.09,201.67 119.09,201.67 C 119.09,201.67 119.09,201.67 119.09,201.67 C 119.09,201.67 119.09,201.67 119.09,201.67 C 119.09,201.67 119.09,201.67 119.09,201.67 C 119.09,201.67 119.09,201.66 119.09,201.66 C 119.09,201.66 119.09,201.66 119.09,201.66 C 119.09,201.66 119.09,201.66 119.09,201.66 C 119.09,201.66 119.09,201.66 119.09,201.66 C 119.09,201.66 119.09,201.66 119.09,201.66 C 119.09,201.66 119.09,201.66 119.09,201.66 C 119.09,201.66 119.09,201.66 119.09,201.66 C 119.09,201.66 119.09,201.66 119.09,201.66 C 119.09,201.66 119.09,201.66 119.09,201.66 C 119.09,201.66 119.09,201.66 119.09,201.66 C 119.09,201.66 119.09,201.66 119.09,201.66 C 119.09,201.66 119.09,201.65 119.09,201.65 C 119.09,201.65 119.09,201.65 119.09,201.65 C 119.09,201.65 119.09,201.65 119.09,201.65 C 119.09,201.65 119.09,201.65 119.09,201.65 C 119.09,201.65 119.09,201.65 119.09,201.65 C 119.09,201.65 119.09,201.64 119.09,201.64 C 119.09,201.64 119.09,201.64 119.09,201.64 C 119.09,201.64 119.09,201.64 119.09,201.64 C 119.09,201.64 119.09,201.64 119.09,201.64 C 119.09,201.63 119.09,201.63 119.09,201.63 C 119.09,201.63 119.09,201.63 119.09,201.63 C 119.09,201.63 119.09,201.63 119.10,201.63 C 119.10,201.62 119.10,201.62 119.10,201.62 C 119.10,201.62 119.10,201.62 119.10,201.62 C 119.10,201.62 119.10,201.61 119.10,201.61 C 119.10,201.61 119.10,201.61 119.10,201.61 C 119.10,201.61 119.10,201.60 119.10,201.60 C 119.10,201.60 119.10,201.60 119.10,201.60 C 119.10,201.59 119.10,201.59 119.10,201.59 C 119.10,201.59 119.10,201.59 119.10,201.58 C 119.10,201.58 119.10,201.58 119.10,201.58 C 119.10,201.58 119.10,201.57 119.10,201.57 C 119.10,201.57 119.10,201.57 119.10,201.56 C 119.10,201.56 119.10,201.56 119.10,201.56 C 119.10,201.55 119.10,201.55 119.10,201.55 C 119.10,201.55 119.10,201.54 119.10,201.54 C 119.10,201.54 119.10,201.53 119.10,201.53 C 119.10,201.53 119.10,201.53 119.11,201.52 C 119.11,201.52 119.11,201.52 119.11,201.51 C 119.11,201.51 119.11,201.51 119.11,201.50 C 119.11,201.50 119.11,201.50 119.11,201.49 C 119.11,201.49 119.11,201.48 119.11,201.48 C 119.11,201.48 119.11,201.47 119.11,201.47 C 119.11,201.47 119.11,201.46 119.11,201.46 C 119.11,201.45 119.11,201.45 119.11,201.44 C 119.11,201.44 119.11,201.44 119.11,201.43 C 119.11,201.43 119.12,201.42 119.12,201.42 C 119.12,201.41 119.12,201.41 119.12,201.40 C 119.12,201.40 119.12,201.39 119.12,201.39 C 119.12,201.38 119.12,201.38 119.12,201.37 C 119.12,201.37 119.12,201.36 119.12,201.36 C 119.12,201.35 119.12,201.35 119.12,201.34 C 119.12,201.33 119.12,201.33 119.13,201.32 C 119.13,201.32 119.13,201.31 119.13,201.30 C 119.13,201.30 119.13,201.29 119.13,201.29 C 119.13,201.28 119.13,201.27 119.13,201.27 C 119.13,201.26 119.13,201.25 119.13,201.25 C 119.13,201.24 119.13,201.23 119.13,201.23 C 119.14,201.22 119.14,201.21 119.14,201.21 C 119.14,201.20 119.14,201.19 119.14,201.18 C 119.14,201.18 119.14,201.17 119.14,201.16 C 119.14,201.15 119.14,201.14 119.14,201.14 C 119.14,201.13 119.15,201.12 119.15,201.11 C 119.15,201.10 119.15,201.10 119.15,201.09 C 119.15,201.08 119.15,201.07 119.15,201.06 C 119.15,201.05 119.15,201.04 119.15,201.03 C 119.15,201.03 119.16,201.02 119.16,201.01 C 119.16,201.00 119.16,200.99 119.16,200.98 C 119.16,200.97 119.16,200.96 119.16,200.95 C 119.16,200.94 119.16,200.93 119.17,200.92 C 119.17,200.91 119.17,200.90 119.17,200.89 C 119.17,200.88 119.17,200.87 119.17,200.86 C 119.17,200.84 119.17,200.83 119.18,200.82 C 119.18,200.81 119.18,200.80 119.18,200.79 C 119.18,200.78 119.18,200.77 119.18,200.75 C 119.18,200.74 119.18,200.73 119.19,200.72 C 119.19,200.71 119.19,200.69 119.19,200.68 C 119.19,200.67 119.19,200.66 119.19,200.64 C 119.19,200.63 119.20,200.62 119.20,200.61 C 119.20,200.59 119.20,200.58 119.20,200.57 C 119.20,200.55 119.20,200.54 119.21,200.52 C 119.21,200.51 119.21,200.50 119.21,200.48 C 119.21,200.47 119.21,200.45 119.21,200.44 C 119.22,200.43 119.22,200.41 119.22,200.40 C 119.22,200.38 119.22,200.37 119.22,200.35 C 119.22,200.34 119.23,200.32 119.23,200.31 C 119.23,200.29 119.23,200.27 119.23,200.26 C 119.23,200.24 119.24,200.23 119.24,200.21 C 119.24,200.19 119.24,200.18 119.24,200.16 C 119.24,200.14 119.25,200.13 119.25,200.11 C 119.25,200.09 119.25,200.08 119.25,200.06 C 119.26,200.04 119.26,200.02 119.26,200.00 C 119.26,199.99 119.26,199.97 119.26,199.95 C 119.27,199.93 119.27,199.91 119.27,199.89 C 119.27,199.88 119.27,199.86 119.28,199.84 C 119.28,199.82 119.28,199.80 119.28,199.78 C 119.28,199.76 119.29,199.74 119.29,199.72 C 119.29,199.70 119.29,199.68 119.29,199.66 C 119.30,199.64 119.30,199.62 119.30,199.60 C 119.30,199.58 119.31,199.56 119.31,199.54 C 119.31,199.51 119.31,199.49 119.31,199.47 C 119.32,199.45 119.32,199.43 119.32,199.41 C 119.32,199.38 119.33,199.36 119.33,199.34 C 119.33,199.32 119.33,199.29 119.33,199.27 C 119.34,199.25 119.34,199.22 119.34,199.20 C 119.34,199.18 119.35,199.15 119.35,199.13 C 119.35,199.11 119.35,199.08 119.36,199.06 C 119.36,199.03 119.36,199.01 119.37,198.98 C 119.37,198.96 119.37,198.93 119.37,198.91 C 119.38,198.88 119.38,198.86 119.38,198.83 C 119.38,198.81 119.39,198.78 119.39,198.75 C 119.39,198.73 119.39,198.70 119.40,198.67 C 119.40,198.65 119.40,198.62 119.41,198.59 C 119.41,198.57 119.41,198.54 119.42,198.51 C 119.42,198.48 119.42,198.45 119.42,198.43 C 119.43,198.40 119.43,198.37 119.43,198.34 C 119.44,198.31 119.44,198.28 119.44,198.25 C 119.45,198.22 119.45,198.19 119.45,198.17 C 119.46,198.14 119.46,198.11 119.46,198.08 C 119.46,198.04 119.47,198.01 119.47,197.98 C 119.47,197.95 119.48,197.92 119.48,197.89 C 119.48,197.86 119.49,197.83 119.49,197.80 C 119.50,197.76 119.50,197.73 119.50,197.70 C 119.51,197.67 119.51,197.63 119.51,197.60 C 119.52,197.57 119.52,197.54 119.52,197.50 C 119.53,197.47 119.53,197.44 119.53,197.40 C 119.54,197.37 119.54,197.33 119.55,197.30 C 119.55,197.27 119.55,197.23 119.56,197.20 C 119.56,197.16 119.56,197.13 119.57,197.09 C 119.57,197.05 119.58,197.02 119.58,196.98 C 119.58,196.95 119.59,196.91 119.59,196.87 C 119.60,196.84 119.60,196.80 119.60,196.76 C 119.61,196.73 119.61,196.69 119.62,196.65 C 119.62,196.61 119.63,196.58 119.63,196.54 C 119.63,196.50 119.64,196.46 119.64,196.42 C 119.65,196.38 119.65,196.34 119.66,196.30 C 119.66,196.27 119.66,196.23 119.67,196.19 C 119.67,196.15 119.68,196.11 119.68,196.07 C 119.69,196.03 119.69,195.98 119.70,195.94 C 119.70,195.90 119.71,195.86 119.71,195.82 C 119.71,195.78 119.72,195.74 119.72,195.69 C 119.73,195.65 119.73,195.61 119.74,195.57 C 119.74,195.52 119.75,195.48 119.75,195.44 C 119.76,195.40 119.76,195.35 119.77,195.31 C 119.77,195.26 119.78,195.22 119.78,195.18 C 119.79,195.13 119.79,195.09 119.80,195.04 C 119.80,195.00 119.81,194.95 119.81,194.91 C 119.82,194.86 119.83,194.82 119.83,194.77 C 119.84,194.72 119.84,194.68 119.85,194.63 C 119.85,194.58 119.86,194.54 119.86,194.49 C 119.87,194.44 119.87,194.40 119.88,194.35 C 119.89,194.30 119.89,194.25 119.90,194.20 C 119.90,194.16 119.91,194.11 119.91,194.06 C 119.92,194.01 119.93,193.96 119.93,193.91 C 119.94,193.86 119.94,193.81 119.95,193.76 C 119.95,193.71 119.96,193.66 119.97,193.61 C 119.97,193.56 119.98,193.51 119.99,193.46 C 119.99,193.41 120.00,193.36 120.00,193.30 C 120.01,193.25 120.02,193.20 120.02,193.15 C 120.03,193.10 120.03,193.04 120.04,192.99 C 120.05,192.94 120.05,192.88 120.06,192.83 C 120.07,192.78 120.07,192.72 120.08,192.67 C 120.09,192.62 120.09,192.56 120.10,192.51 C 120.11,192.45 120.11,192.40 120.12,192.34 C 120.13,192.29 120.13,192.23 120.14,192.18 C 120.15,192.12 120.15,192.07 120.16,192.01 C 120.17,191.95 120.18,191.90 120.18,191.84 C 120.19,191.78 120.20,191.73 120.20,191.67 C 120.21,191.61 120.22,191.55 120.23,191.50 C 120.23,191.44 120.24,191.38 120.25,191.32 C 120.25,191.26 120.26,191.20 120.27,191.15 C 120.28,191.09 120.28,191.03 120.29,190.97 C 120.30,190.91 120.31,190.85 120.31,190.79 C 120.32,190.73 120.33,190.67 120.34,190.61 C 120.35,190.55 120.35,190.49 120.36,190.43 C 120.37,190.36 120.38,190.30 120.39,190.24 C 120.39,190.18 120.40,190.12 120.41,190.06 C 120.42,189.99 120.43,189.93 120.43,189.87 C 120.44,189.81 120.45,189.74 120.46,189.68 C 120.47,189.62 120.48,189.55 120.48,189.49 C 120.49,189.43 120.50,189.36 120.51,189.30 C 120.52,189.23 120.53,189.17 120.53,189.10 C 120.54,189.04 120.55,188.97 120.56,188.91 C 120.57,188.84 120.58,188.78 120.59,188.71 C 120.60,188.65 120.60,188.58 120.61,188.51 C 120.62,188.45 120.63,188.38 120.64,188.31 C 120.65,188.25 120.66,188.18 120.67,188.11 C 120.68,188.05 120.69,187.98 120.70,187.91 C 120.71,187.84 120.71,187.77 120.72,187.71 C 120.73,187.64 120.74,187.57 120.75,187.50 C 120.76,187.43 120.77,187.36 120.78,187.29 C 120.79,187.22 120.80,187.15 120.81,187.08 C 120.82,187.01 120.83,186.94 120.84,186.87 C 120.85,186.80 120.86,186.73 120.87,186.66 C 120.88,186.59 120.89,186.52 120.90,186.45 C 120.91,186.38 120.92,186.31 120.93,186.24 C 120.94,186.16 120.95,186.09 120.96,186.02 C 120.97,185.95 120.98,185.88 120.99,185.80 C 121.00,185.73 121.01,185.66 121.03,185.58 C 121.04,185.51 121.05,185.44 121.06,185.37 C 121.07,185.29 121.08,185.22 121.09,185.14 C 121.10,185.07 121.11,185.00 121.12,184.92 C 121.13,184.85 121.14,184.77 121.16,184.70 C 121.17,184.62 121.18,184.55 121.19,184.47 C 121.20,184.40 121.21,184.32 121.22,184.25 C 121.24,184.17 121.25,184.10 121.26,184.02 C 121.27,183.94 121.28,183.87 121.29,183.79 C 121.30,183.72 121.32,183.64 121.33,183.56 C 121.34,183.49 121.35,183.41 121.36,183.33 C 121.38,183.25 121.39,183.18 121.40,183.10 C 121.41,183.02 121.42,182.94 121.44,182.87 C 121.45,182.79 121.46,182.71 121.47,182.63 C 121.49,182.55 121.50,182.48 121.51,182.40 C 121.52,182.32 121.54,182.24 121.55,182.16 C 121.56,182.08 121.57,182.00 121.59,181.92 C 121.60,181.84 121.61,181.76 121.63,181.68 C 121.64,181.60 121.65,181.52 121.66,181.44 C 121.68,181.36 121.69,181.28 121.70,181.20 C 121.72,181.12 121.73,181.04 121.74,180.96 C 121.76,180.88 121.77,180.80 121.78,180.72 C 121.80,180.64 121.81,180.56 121.82,180.48 C 121.84,180.39 121.85,180.31 121.87,180.23 C 121.88,180.15 121.89,180.07 121.91,179.99 C 121.92,179.90 121.94,179.82 121.95,179.74 C 121.96,179.66 121.98,179.58 121.99,179.49 C 122.01,179.41 122.02,179.33 122.03,179.24 C 122.05,179.16 122.06,179.08 122.08,179.00 C 122.09,178.91 122.11,178.83 122.12,178.75 C 122.14,178.66 122.15,178.58 122.17,178.50 C 122.18,178.41 122.20,178.33 122.21,178.24 C 122.23,178.16 122.24,178.08 122.26,177.99 C 122.27,177.91 122.29,177.82 122.30,177.74 C 122.32,177.66 122.33,177.57 122.35,177.49 C 122.36,177.40 122.38,177.32 122.39,177.23 C 122.41,177.15 122.43,177.06 122.44,176.98 C 122.46,176.89 122.47,176.81 122.49,176.72 C 122.51,176.64 122.52,176.55 122.54,176.47 C 122.55,176.38 122.57,176.29 122.59,176.21 C 122.60,176.12 122.62,176.04 122.64,175.95 C 122.65,175.87 122.67,175.78 122.69,175.69 C 122.70,175.61 122.72,175.52 122.74,175.44 C 122.75,175.35 122.77,175.26 122.79,175.18 C 122.80,175.09 122.82,175.00 122.84,174.92 C 122.85,174.83 122.87,174.74 122.89,174.66 C 122.91,174.57 122.92,174.48 122.94,174.40 C 122.96,174.31 122.98,174.22 122.99,174.14 C 123.01,174.05 123.03,173.96 123.05,173.87 C 123.06,173.79 123.08,173.70 123.10,173.61 C 123.12,173.53 123.14,173.44 123.15,173.35 C 123.17,173.26 123.19,173.18 123.21,173.09 C 123.23,173.00 123.25,172.91 123.26,172.83 C 123.28,172.74 123.30,172.65 123.32,172.56 C 123.34,172.48 123.36,172.39 123.38,172.30 C 123.39,172.21 123.41,172.12 123.43,172.04 C 123.45,171.95 123.47,171.86 123.49,171.77 C 123.51,171.68 123.53,171.60 123.55,171.51 C 123.57,171.42 123.59,171.33 123.61,171.24 C 123.63,171.16 123.65,171.07 123.67,170.98 C 123.69,170.89 123.71,170.80 123.73,170.72 C 123.75,170.63 123.77,170.54 123.79,170.45 C 123.81,170.36 123.83,170.27 123.85,170.19 C 123.87,170.10 123.89,170.01 123.91,169.92 C 123.93,169.83 123.95,169.74 123.97,169.66 C 123.99,169.57 124.01,169.48 124.03,169.39 C 124.05,169.30 124.07,169.21 124.09,169.13 C 124.12,169.04 124.14,168.95 124.16,168.86 C 124.18,168.77 124.20,168.68 124.22,168.60 C 124.24,168.51 124.26,168.42 124.29,168.33 C 124.31,168.24 124.33,168.15 124.35,168.07 C 124.37,167.98 124.40,167.89 124.42,167.80 C 124.44,167.71 124.46,167.62 124.48,167.54 C 124.51,167.45 124.53,167.36 124.55,167.27 C 124.57,167.18 124.60,167.09 124.62,167.01 C 124.64,166.92 124.66,166.83 124.69,166.74 C 124.71,166.65 124.73,166.56 124.76,166.48 C 124.78,166.39 124.80,166.30 124.82,166.21 C 124.85,166.12 124.87,166.04 124.89,165.95 C 124.92,165.86 124.94,165.77 124.97,165.68 C 124.99,165.60 125.01,165.51 125.04,165.42 C 125.06,165.33 125.08,165.24 125.11,165.16 C 125.13,165.07 125.16,164.98 125.18,164.89 C 125.21,164.80 125.23,164.72 125.25,164.63 C 125.28,164.54 125.30,164.45 125.33,164.37 C 125.35,164.28 125.38,164.19 125.40,164.10 C 125.43,164.02 125.45,163.93 125.48,163.84 C 125.50,163.75 125.53,163.67 125.55,163.58 C 125.58,163.49 125.60,163.41 125.63,163.32 C 125.65,163.23 125.68,163.14 125.71,163.06 C 125.73,162.97 125.76,162.88 125.78,162.80 C 125.81,162.71 125.84,162.62 125.86,162.54 C 125.89,162.45 125.91,162.36 125.94,162.28 C 125.97,162.19 125.99,162.10 126.02,162.02 C 126.05,161.93 126.07,161.84 126.10,161.76 C 126.13,161.67 126.15,161.59 126.18,161.50 C 126.21,161.41 126.24,161.33 126.26,161.24 C 126.29,161.15 126.32,161.07 126.35,160.98 C 126.37,160.90 126.40,160.81 126.43,160.73 C 126.46,160.64 126.48,160.55 126.51,160.47 C 126.54,160.38 126.57,160.30 126.60,160.21 C 126.62,160.13 126.65,160.04 126.68,159.96 C 126.71,159.87 126.74,159.79 126.77,159.70 C 126.80,159.62 126.82,159.53 126.85,159.45 C 126.88,159.36 126.91,159.28 126.94,159.19 C 126.97,159.11 127.00,159.02 127.03,158.94 C 127.06,158.86 127.09,158.77 127.12,158.69 C 127.15,158.60 127.18,158.52 127.20,158.44 C 127.23,158.35 127.26,158.27 127.29,158.18 C 127.32,158.10 127.36,158.02 127.39,157.93 C 127.42,157.85 127.45,157.77 127.48,157.68 C 127.51,157.60 127.54,157.52 127.57,157.43 C 127.60,157.35 127.63,157.27 127.66,157.18 C 127.69,157.10 127.72,157.02 127.75,156.94 C 127.79,156.85 127.82,156.77 127.85,156.69 C 127.88,156.61 127.91,156.52 127.94,156.44 C 127.98,156.36 128.01,156.28 128.04,156.20 C 128.07,156.11 128.10,156.03 128.14,155.95 C 128.17,155.87 128.20,155.79 128.23,155.71 C 128.27,155.62 128.30,155.54 128.33,155.46 C 128.36,155.38 128.40,155.30 128.43,155.22 C 128.46,155.14 128.50,155.06 128.53,154.98 C 128.56,154.90 128.59,154.81 128.63,154.73 C 128.66,154.65 128.70,154.57 128.73,154.49 C 128.76,154.41 128.80,154.33 128.83,154.25 C 128.86,154.17 128.90,154.09 128.93,154.01 C 128.97,153.93 129.00,153.86 129.04,153.78 C 129.07,153.70 129.11,153.62 129.14,153.54 C 129.18,153.46 129.21,153.38 129.25,153.30 C 129.28,153.22 129.32,153.14 129.35,153.07 C 129.39,152.99 129.42,152.91 129.46,152.83 C 129.49,152.75 129.53,152.67 129.56,152.60 C 129.60,152.52 129.64,152.44 129.67,152.36 C 129.71,152.28 129.74,152.21 129.78,152.13 C 129.82,152.05 129.85,151.97 129.89,151.90 C 129.93,151.82 129.96,151.74 130.00,151.67 C 130.04,151.59 130.07,151.51 130.11,151.44 C 130.15,151.36 130.19,151.28 130.22,151.21 C 130.26,151.13 130.30,151.05 130.34,150.98 C 130.37,150.90 130.41,150.83 130.45,150.75 C 130.49,150.68 130.53,150.60 130.56,150.52 C 130.60,150.45 130.64,150.37 130.68,150.30 C 130.72,150.22 130.76,150.15 130.79,150.07 C 130.83,150.00 130.87,149.93 130.91,149.85 C 130.95,149.78 130.99,149.70 131.03,149.63 C 131.07,149.55 131.11,149.48 131.15,149.41 C 131.19,149.33 131.23,149.26 131.27,149.18 C 131.31,149.11 131.35,149.04 131.39,148.96 C 131.43,148.89 131.47,148.82 131.51,148.75 C 131.55,148.67 131.59,148.60 131.63,148.53 C 131.67,148.45 131.71,148.38 131.75,148.31 C 131.79,148.24 131.83,148.17 131.88,148.09 C 131.92,148.02 131.96,147.95 132.00,147.88 C 132.04,147.81 132.08,147.73 132.13,147.66 C 132.17,147.59 132.21,147.52 132.25,147.45 C 132.29,147.38 132.34,147.31 132.38,147.24 C 132.42,147.17 132.46,147.10 132.51,147.03 C 132.55,146.96 132.59,146.88 132.64,146.81 C 132.68,146.74 132.72,146.67 132.77,146.60 C 132.81,146.54 132.85,146.47 132.90,146.40 C 132.94,146.33 132.98,146.26 133.03,146.19 C 133.07,146.12 133.12,146.05 133.16,145.98 C 133.20,145.91 133.25,145.84 133.29,145.78 C 133.34,145.71 133.38,145.64 133.43,145.57 C 133.47,145.50 133.52,145.43 133.56,145.37 C 133.61,145.30 133.65,145.23 133.70,145.16 C 133.74,145.10 133.79,145.03 133.84,144.96 C 133.88,144.89 133.93,144.83 133.97,144.76 C 134.02,144.69 134.07,144.63 134.11,144.56 C 134.16,144.49 134.21,144.43 134.25,144.36 C 134.30,144.30 134.35,144.23 134.39,144.16 C 134.44,144.10 134.49,144.03 134.53,143.97 C 134.58,143.90 134.63,143.84 134.68,143.77 C 134.72,143.71 134.77,143.64 134.82,143.58 C 134.87,143.51 134.92,143.45 134.96,143.38 C 135.01,143.32 135.06,143.25 135.11,143.19 C 135.16,143.12 135.21,143.06 135.26,143.00 C 135.30,142.93 135.35,142.87 135.40,142.80 C 135.45,142.74 135.50,142.68 135.55,142.61 C 135.60,142.55 135.65,142.49 135.70,142.42 C 135.75,142.36 135.80,142.30 135.85,142.24 C 135.90,142.17 135.95,142.11 136.00,142.05 C 136.05,141.99 136.10,141.92 136.15,141.86 C 136.20,141.80 136.26,141.74 136.31,141.68 C 136.36,141.62 136.41,141.55 136.46,141.49 C 136.51,141.43 136.56,141.37 136.62,141.31 C 136.67,141.25 136.72,141.19 136.77,141.13 C 136.82,141.07 136.88,141.01 136.93,140.95 C 136.98,140.89 137.03,140.82 137.09,140.76 C 137.14,140.70 137.19,140.64 137.25,140.59 C 137.30,140.53 137.35,140.47 137.41,140.41 C 137.46,140.35 137.51,140.29 137.57,140.23 C 137.62,140.17 137.68,140.11 137.73,140.05 C 137.78,139.99 137.84,139.94 137.89,139.88 C 137.95,139.82 138.00,139.76 138.06,139.70 C 138.11,139.64 138.17,139.59 138.22,139.53 C 138.28,139.47 138.33,139.41 138.39,139.36 C 138.44,139.30 138.50,139.24 138.56,139.18 C 138.61,139.13 138.67,139.07 138.72,139.01 C 138.78,138.96 138.84,138.90 138.89,138.84 C 138.95,138.79 139.01,138.73 139.06,138.67 C 139.12,138.62 139.18,138.56 139.23,138.51 C 139.29,138.45 139.35,138.39 139.41,138.34 C 139.46,138.28 139.52,138.23 139.58,138.17 C 139.64,138.12 139.70,138.06 139.75,138.01 C 139.81,137.95 139.87,137.90 139.93,137.84 C 139.99,137.79 140.05,137.73 140.11,137.68 C 140.17,137.62 140.23,137.57 140.28,137.52 C 140.34,137.46 140.40,137.41 140.46,137.36 C 140.52,137.30 140.58,137.25 140.64,137.19 C 140.70,137.14 140.76,137.09 140.82,137.03 C 140.89,136.98 140.95,136.93 141.01,136.88 C 141.07,136.82 141.13,136.77 141.19,136.72 C 141.25,136.67 141.31,136.61 141.37,136.56 C 141.44,136.51 141.50,136.46 141.56,136.41 C 141.62,136.35 141.68,136.30 141.75,136.25 C 141.81,136.20 141.87,136.15 141.93,136.10 C 142.00,136.04 142.06,135.99 142.12,135.94 C 142.19,135.89 142.25,135.84 142.31,135.79 C 142.38,135.74 142.44,135.69 142.50,135.64 C 142.57,135.59 142.63,135.54 142.70,135.49 C 142.76,135.44 142.82,135.39 142.89,135.34 C 142.95,135.29 143.02,135.24 143.08,135.19 C 143.15,135.14 143.21,135.09 143.28,135.04 C 143.34,134.99 143.41,134.94 143.47,134.89 C 143.54,134.85 143.61,134.80 143.67,134.75 C 143.74,134.70 143.80,134.65 143.87,134.60 C 143.94,134.55 144.00,134.51 144.07,134.46 C 144.14,134.41 144.21,134.36 144.27,134.31 C 144.34,134.27 144.41,134.22 144.47,134.17 C 144.54,134.12 144.61,134.08 144.68,134.03 C 144.75,133.98 144.81,133.94 144.88,133.89 C 144.95,133.84 145.02,133.80 145.09,133.75 C 145.16,133.70 145.23,133.66 145.30,133.61 C 145.37,133.56 145.43,133.52 145.50,133.47 C 145.57,133.43 145.64,133.38 145.71,133.33 C 145.78,133.29 145.85,133.24 145.92,133.20 C 145.99,133.15 146.07,133.11 146.14,133.06 C 146.21,133.02 146.28,132.97 146.35,132.93 C 146.42,132.88 146.49,132.84 146.56,132.79 C 146.64,132.75 146.71,132.70 146.78,132.66 C 146.85,132.61 146.92,132.57 147.00,132.53 C 147.07,132.48 147.14,132.44 147.21,132.39 C 147.29,132.35 147.36,132.31 147.43,132.26 C 147.51,132.22 147.58,132.18 147.65,132.13 C 147.73,132.09 147.80,132.05 147.87,132.00 C 147.95,131.96 148.02,131.92 148.10,131.87 C 148.17,131.83 148.25,131.79 148.32,131.75 C 148.40,131.70 148.47,131.66 148.55,131.62 C 148.62,131.58 148.70,131.53 148.77,131.49 C 148.85,131.45 148.92,131.41 149.00,131.37 C 149.08,131.33 149.15,131.28 149.23,131.24 C 149.31,131.20 149.38,131.16 149.46,131.12 C 149.54,131.08 149.61,131.04 149.69,131.00 C 149.77,130.95 149.85,130.91 149.92,130.87 C 150.00,130.83 150.08,130.79 150.16,130.75 C 150.24,130.71 150.31,130.67 150.39,130.63 C 150.47,130.59 150.55,130.55 150.63,130.51 C 150.71,130.47 150.79,130.43 150.87,130.39 C 150.95,130.35 151.03,130.31 151.11,130.27 C 151.19,130.23 151.27,130.19 151.35,130.15 C 151.43,130.12 151.51,130.08 151.59,130.04 C 151.67,130.00 151.75,129.96 151.83,129.92 C 151.91,129.88 151.99,129.84 152.08,129.81 C 152.16,129.77 152.24,129.73 152.32,129.69 C 152.40,129.65 152.49,129.61 152.57,129.58 C 152.65,129.54 152.73,129.50 152.82,129.46 C 152.90,129.42 152.98,129.39 153.07,129.35 C 153.15,129.31 153.23,129.28 153.32,129.24 C 153.40,129.20 153.49,129.16 153.57,129.13 C 153.65,129.09 153.74,129.05 153.82,129.02 C 153.91,128.98 153.99,128.94 154.08,128.91 C 154.16,128.87 154.25,128.83 154.33,128.80 C 154.42,128.76 154.51,128.72 154.59,128.69 C 154.68,128.65 154.76,128.62 154.85,128.58 C 154.94,128.54 155.02,128.51 155.11,128.47 C 155.20,128.44 155.29,128.40 155.37,128.37 C 155.46,128.33 155.55,128.30 155.64,128.26 C 155.72,128.23 155.81,128.19 155.90,128.16 C 155.99,128.12 156.08,128.09 156.17,128.05 C 156.25,128.02 156.34,127.98 156.43,127.95 C 156.52,127.91 156.61,127.88 156.70,127.84 C 156.79,127.81 156.88,127.78 156.97,127.74 C 157.06,127.71 157.15,127.67 157.24,127.64 C 157.33,127.61 157.42,127.57 157.52,127.54 C 157.61,127.50 157.70,127.47 157.79,127.44 C 157.88,127.40 157.97,127.37 158.06,127.34 C 158.16,127.30 158.25,127.27 158.34,127.24 C 158.43,127.21 158.53,127.17 158.62,127.14 C 158.71,127.11 158.81,127.07 158.90,127.04 C 158.99,127.01 159.09,126.98 159.18,126.94 C 159.27,126.91 159.37,126.88 159.46,126.85 C 159.56,126.82 159.65,126.78 159.75,126.75 C 159.84,126.72 159.94,126.69 160.03,126.66 C 160.13,126.62 160.22,126.59 160.32,126.56 C 160.42,126.53 160.51,126.50 160.61,126.47 C 160.70,126.44 160.80,126.40 160.90,126.37 C 160.99,126.34 161.09,126.31 161.19,126.28 C 161.29,126.25 161.38,126.22 161.48,126.19 C 161.58,126.16 161.68,126.13 161.78,126.10 C 161.87,126.06 161.97,126.03 162.07,126.00 C 162.17,125.97 162.27,125.94 162.37,125.91 C 162.47,125.88 162.57,125.85 162.67,125.82 C 162.77,125.79 162.87,125.76 162.97,125.73 C 163.07,125.70 163.17,125.67 163.27,125.64 C 163.37,125.61 163.47,125.59 163.57,125.56 C 163.67,125.53 163.77,125.50 163.88,125.47 C 163.98,125.44 164.08,125.41 164.18,125.38 C 164.28,125.35 164.39,125.32 164.49,125.29 C 164.59,125.26 164.69,125.24 164.80,125.21 C 164.90,125.18 165.00,125.15 165.11,125.12 C 165.21,125.09 165.32,125.07 165.42,125.04 C 165.52,125.01 165.63,124.98 165.73,124.95 C 165.84,124.92 165.94,124.90 166.05,124.87 C 166.15,124.84 166.26,124.81 166.36,124.78 C 166.47,124.76 166.58,124.73 166.68,124.70 C 166.79,124.67 166.90,124.65 167.00,124.62 C 167.11,124.59 167.22,124.56 167.32,124.54 C 167.43,124.51 167.54,124.48 167.65,124.46 C 167.75,124.43 167.86,124.40 167.97,124.38 C 168.08,124.35 168.19,124.32 168.30,124.29 C 168.40,124.27 168.51,124.24 168.62,124.22 C 168.73,124.19 168.84,124.16 168.95,124.14 C 169.06,124.11 169.17,124.08 169.28,124.06 C 169.39,124.03 169.50,124.00 169.61,123.98 C 169.73,123.95 169.84,123.93 169.95,123.90 C 170.06,123.88 170.17,123.85 170.28,123.82 C 170.39,123.80 170.51,123.77 170.62,123.75 C 170.73,123.72 170.84,123.70 170.96,123.67 C 171.07,123.65 171.18,123.62 171.30,123.59 C 171.41,123.57 171.53,123.54 171.64,123.52 C 171.75,123.49 171.87,123.47 171.98,123.44 C 172.10,123.42 172.21,123.40 172.33,123.37 C 172.44,123.35 172.56,123.32 172.67,123.30 C 172.79,123.27 172.90,123.25 173.02,123.22 C 173.14,123.20 173.25,123.17 173.37,123.15 C 173.49,123.13 173.60,123.10 173.72,123.08 C 173.84,123.05 173.96,123.03 174.07,123.01 C 174.19,122.98 174.31,122.96 174.43,122.93 C 174.55,122.91 174.67,122.89 174.79,122.86 C 174.90,122.84 175.02,122.82 175.14,122.79 C 175.26,122.77 175.38,122.75 175.50,122.72 C 175.62,122.70 175.74,122.68 175.86,122.65 C 175.98,122.63 176.10,122.61 176.23,122.58 C 176.35,122.56 176.47,122.54 176.59,122.51 C 176.71,122.49 176.83,122.47 176.96,122.45 C 177.08,122.42 177.20,122.40 177.32,122.38 C 177.45,122.36 177.57,122.33 177.69,122.31 C 177.82,122.29 177.94,122.27 178.06,122.24 C 178.19,122.22 178.31,122.20 178.44,122.18 C 178.56,122.15 178.69,122.13 178.81,122.11 C 178.94,122.09 179.06,122.07 179.19,122.04 C 179.31,122.02 179.44,122.00 179.57,121.98 C 179.69,121.96 179.82,121.94 179.94,121.91 C 180.07,121.89 180.20,121.87 180.33,121.85 C 180.45,121.83 180.58,121.81 180.71,121.79 C 180.84,121.76 180.96,121.74 181.09,121.72 C 181.22,121.70 181.35,121.68 181.48,121.66 C 181.61,121.64 181.74,121.62 181.87,121.60 C 182.00,121.57 182.13,121.55 182.26,121.53 C 182.39,121.51 182.52,121.49 182.65,121.47 C 182.78,121.45 182.91,121.43 183.04,121.41 C 183.17,121.39 183.31,121.37 183.44,121.35 C 183.57,121.33 183.70,121.31 183.83,121.29 C 183.97,121.27 184.10,121.25 184.23,121.23 C 184.37,121.21 184.50,121.19 184.63,121.17 C 184.77,121.15 184.90,121.13 185.04,121.11 C 185.17,121.09 185.30,121.07 185.44,121.05 C 185.57,121.03 185.71,121.01 185.84,120.99 C 185.98,120.97 186.12,120.95 186.25,120.93 C 186.39,120.91 186.52,120.89 186.66,120.87 C 186.80,120.85 186.93,120.83 187.07,120.81 C 187.21,120.79 187.35,120.77 187.48,120.75 C 187.62,120.74 187.76,120.72 187.90,120.70 C 188.04,120.68 188.18,120.66 188.32,120.64 C 188.45,120.62 188.59,120.60 188.73,120.58 C 188.87,120.57 189.01,120.55 189.15,120.53 C 189.29,120.51 189.43,120.49 189.58,120.47 C 189.72,120.45 189.86,120.44 190.00,120.42 C 190.14,120.40 190.28,120.38 190.42,120.36 C 190.57,120.34 190.71,120.33 190.85,120.31 C 190.99,120.29 191.14,120.27 191.28,120.25 C 191.42,120.23 191.57,120.22 191.71,120.20 C 191.86,120.18 192.00,120.16 192.14,120.14 C 192.29,120.13 192.43,120.11 192.58,120.09 C 192.72,120.07 192.87,120.06 193.02,120.04 C 193.16,120.02 193.31,120.00 193.45,119.99 C 193.60,119.97 193.75,119.95 193.89,119.93 C 194.04,119.92 194.19,119.90 194.34,119.88 C 194.48,119.86 194.63,119.85 194.78,119.83 C 194.93,119.81 195.08,119.80 195.23,119.78 C 195.37,119.76 195.52,119.74 195.67,119.73 C 195.82,119.71 195.97,119.69 196.12,119.68 C 196.27,119.66 196.42,119.64 196.57,119.63 C 196.73,119.61 196.88,119.59 197.03,119.58 C 197.18,119.56 197.33,119.54 197.48,119.53 C 197.63,119.51 197.79,119.49 197.94,119.48 C 198.09,119.46 198.25,119.44 198.40,119.43 C 198.55,119.41 198.71,119.39 198.86,119.38 C 199.01,119.36 199.17,119.35 199.32,119.33 C 199.48,119.31 199.63,119.30 199.79,119.28 C 199.94,119.27 200.10,119.25 200.25,119.23 C 200.41,119.22 200.57,119.20 200.72,119.19 C 200.88,119.17 201.04,119.15 201.19,119.14 C 201.35,119.12 201.59,119.10 201.67,119.09" />
  </g>

  <!-- точка (1;-3) -->
  <circle cx="126.67" cy="160.00" r="2.2" fill="#2d70b3" />

  <!-- подпись f(x) -->
  <text x="60.00" y="60.00"
        font-family="Georgia, 'Times New Roman', serif"
        font-style="italic"
        font-size="13"
        fill="#2d70b3">
    f(x)
  </text>

</svg>
