<svg xmlns="http://www.w3.org/2000/svg" width="300" height="260" viewBox="0 0 300 260">

  <rect x="0" y="0" width="300" height="260" fill="white" />

  <defs>
    <!-- стрелка для осей -->
    <marker id="axis-arrow"
            viewBox="0 0 15 8"
            refX="13" refY="4"
            markerWidth="12" markerHeight="6.4"
            orient="auto"
            markerUnits="userSpaceOnUse">
      <path d="M 3 0 L 15 4 L 3 8 L 7 4 Z"
            fill="black" />
    </marker>
  </defs>

  <!-- клетчатая сетка: x от -7 до 7, y от -5 до 7 (клетка 20px, квадратная) -->
  <g stroke="#d1d5db" stroke-width="0.5" shape-rendering="crispEdges">
    <!-- вертикальные линии: только внутренние -->
    <line x1="30.000" y1="10.000" x2="30.000" y2="250.000" />
    <line x1="50.000" y1="10.000" x2="50.000" y2="250.000" />
    <line x1="70.000" y1="10.000" x2="70.000" y2="250.000" />
    <line x1="90.000" y1="10.000" x2="90.000" y2="250.000" />
    <line x1="110.000" y1="10.000" x2="110.000" y2="250.000" />
    <line x1="130.000" y1="10.000" x2="130.000" y2="250.000" />
    <line x1="150.000" y1="10.000" x2="150.000" y2="250.000" />
    <line x1="170.000" y1="10.000" x2="170.000" y2="250.000" />
    <line x1="190.000" y1="10.000" x2="190.000" y2="250.000" />
    <line x1="210.000" y1="10.000" x2="210.000" y2="250.000" />
    <line x1="230.000" y1="10.000" x2="230.000" y2="250.000" />
    <line x1="250.000" y1="10.000" x2="250.000" y2="250.000" />
    <line x1="270.000" y1="10.000" x2="270.000" y2="250.000" />
    <!-- горизонтальные линии: только внутренние -->
    <line x1="10.000" y1="30.000" x2="290.000" y2="30.000" />
    <line x1="10.000" y1="50.000" x2="290.000" y2="50.000" />
    <line x1="10.000" y1="70.000" x2="290.000" y2="70.000" />
    <line x1="10.000" y1="90.000" x2="290.000" y2="90.000" />
    <line x1="10.000" y1="110.000" x2="290.000" y2="110.000" />
    <line x1="10.000" y1="130.000" x2="290.000" y2="130.000" />
    <line x1="10.000" y1="150.000" x2="290.000" y2="150.000" />
    <line x1="10.000" y1="170.000" x2="290.000" y2="170.000" />
    <line x1="10.000" y1="190.000" x2="290.000" y2="190.000" />
    <line x1="10.000" y1="210.000" x2="290.000" y2="210.000" />
    <line x1="10.000" y1="230.000" x2="290.000" y2="230.000" />
  </g>

  <!-- оси x и y -->
  <g stroke="#111827" stroke-width="1.25">
    <line x1="10.000" y1="150.000" x2="290.000" y2="150.000"
          marker-end="url(#axis-arrow)" />
    <line x1="150.000" y1="250.000" x2="150.000" y2="10.000"
          marker-end="url(#axis-arrow)" />
  </g>

  <!-- подписи осей и делений -->
  <g font-family="sans-serif" font-size="11" fill="#111827">
    <text x="146.000" y="163.000" text-anchor="end"
          font-size="13" font-style="italic"
          font-family="Georgia, 'Times New Roman', serif">O</text>

    <rect x="166.500" y="153.000" width="7" height="12" fill="white" />
    <text x="170.000" y="164.000" text-anchor="middle" font-size="13"
          font-family="'Times New Roman', serif"
          font-weight="300">1</text>

    <text x="143.000" y="134.000" text-anchor="end" font-size="13"
          font-family="'Times New Roman', serif"
          font-weight="300">1</text>

    <text x="286.000" y="163.000" text-anchor="start"
          font-family="Georgia, 'Times New Roman', serif"
          font-style="italic" font-size="13">x</text>

    <text x="147.000" y="13.000" text-anchor="end"
          font-family="Georgia, 'Times New Roman', serif"
          font-style="italic" font-size="13">y</text>
  </g>

  <!-- парабола через (-3;0), (2;0), (0;-2), обрезана сверху на y<=6.5 -->
  <g stroke="#2d70b3" stroke-width="1.25" fill="none"
     stroke-linecap="round" stroke-linejoin="round">
    <path d="M 38.511 20.000 L 39.147 22.146 L 39.784 24.278 L 40.420 26.397 L 41.056 28.502 L 41.693 30.594 L 42.329 32.672 L 42.965 34.737 L 43.601 36.789 L 44.238 38.826 L 44.874 40.851 L 45.510 42.862 L 46.147 44.859 L 46.783 46.843 L 47.419 48.813 L 48.055 50.770 L 48.692 52.714 L 49.328 54.643 L 49.964 56.560 L 50.601 58.463 L 51.237 60.352 L 51.873 62.228 L 52.510 64.090 L 53.146 65.939 L 53.782 67.775 L 54.418 69.597 L 55.055 71.405 L 55.691 73.200 L 56.327 74.981 L 56.964 76.749 L 57.600 78.504 L 58.236 80.245 L 58.872 81.972 L 59.509 83.686 L 60.145 85.387 L 60.781 87.074 L 61.418 88.747 L 62.054 90.407 L 62.690 92.053 L 63.327 93.686 L 63.963 95.306 L 64.599 96.912 L 65.235 98.504 L 65.872 100.083 L 66.508 101.649 L 67.144 103.201 L 67.781 104.739 L 68.417 106.264 L 69.053 107.776 L 69.689 109.274 L 70.326 110.758 L 70.962 112.229 L 71.598 113.687 L 72.235 115.131 L 72.871 116.562 L 73.507 117.979 L 74.144 119.382 L 74.780 120.772 L 75.416 122.149 L 76.052 123.512 L 76.689 124.861 L 77.325 126.197 L 77.961 127.520 L 78.598 128.829 L 79.234 130.125 L 79.870 131.407 L 80.506 132.675 L 81.143 133.930 L 81.779 135.172 L 82.415 136.400 L 83.052 137.615 L 83.688 138.816 L 84.324 140.004 L 84.961 141.178 L 85.597 142.338 L 86.233 143.485 L 86.869 144.619 L 87.506 145.739 L 88.142 146.846 L 88.778 147.939 L 89.415 149.019 L 90.051 150.085 L 90.687 151.137 L 91.323 152.177 L 91.960 153.202 L 92.596 154.214 L 93.232 155.213 L 93.869 156.198 L 94.505 157.170 L 95.141 158.128 L 95.778 159.073 L 96.414 160.004 L 97.050 160.922 L 97.686 161.826 L 98.323 162.717 L 98.959 163.594 L 99.595 164.458 L 100.232 165.308 L 100.868 166.145 L 101.504 166.968 L 102.140 167.778 L 102.777 168.574 L 103.413 169.357 L 104.049 170.126 L 104.686 170.882 L 105.322 171.624 L 105.958 172.353 L 106.595 173.068 L 107.231 173.770 L 107.867 174.458 L 108.503 175.133 L 109.140 175.794 L 109.776 176.442 L 110.412 177.076 L 111.049 177.697 L 111.685 178.304 L 112.321 178.898 L 112.957 179.478 L 113.594 180.045 L 114.230 180.599 L 114.866 181.138 L 115.503 181.665 L 116.139 182.178 L 116.775 182.677 L 117.412 183.163 L 118.048 183.635 L 118.684 184.094 L 119.320 184.539 L 119.957 184.971 L 120.593 185.389 L 121.229 185.794 L 121.866 186.186 L 122.502 186.564 L 123.138 186.928 L 123.774 187.279 L 124.411 187.616 L 125.047 187.940 L 125.683 188.251 L 126.320 188.547 L 126.956 188.831 L 127.592 189.101 L 128.229 189.357 L 128.865 189.600 L 129.501 189.830 L 130.137 190.045 L 130.774 190.248 L 131.410 190.437 L 132.046 190.612 L 132.683 190.774 L 133.319 190.923 L 133.955 191.058 L 134.591 191.179 L 135.228 191.287 L 135.864 191.382 L 136.500 191.463 L 137.137 191.530 L 137.773 191.584 L 138.409 191.624 L 139.046 191.651 L 139.682 191.665 L 140.318 191.665 L 140.954 191.651 L 141.591 191.624 L 142.227 191.584 L 142.863 191.530 L 143.500 191.463 L 144.136 191.382 L 144.772 191.287 L 145.409 191.179 L 146.045 191.058 L 146.681 190.923 L 147.317 190.774 L 147.954 190.612 L 148.590 190.437 L 149.226 190.248 L 149.863 190.045 L 150.499 189.830 L 151.135 189.600 L 151.771 189.357 L 152.408 189.101 L 153.044 188.831 L 153.680 188.547 L 154.317 188.251 L 154.953 187.940 L 155.589 187.616 L 156.226 187.279 L 156.862 186.928 L 157.498 186.564 L 158.134 186.186 L 158.771 185.794 L 159.407 185.389 L 160.043 184.971 L 160.680 184.539 L 161.316 184.094 L 161.952 183.635 L 162.588 183.163 L 163.225 182.677 L 163.861 182.178 L 164.497 181.665 L 165.134 181.138 L 165.770 180.599 L 166.406 180.045 L 167.043 179.478 L 167.679 178.898 L 168.315 178.304 L 168.951 177.697 L 169.588 177.076 L 170.224 176.442 L 170.860 175.794 L 171.497 175.133 L 172.133 174.458 L 172.769 173.770 L 173.405 173.068 L 174.042 172.353 L 174.678 171.624 L 175.314 170.882 L 175.951 170.126 L 176.587 169.357 L 177.223 168.574 L 177.860 167.778 L 178.496 166.968 L 179.132 166.145 L 179.768 165.308 L 180.405 164.458 L 181.041 163.594 L 181.677 162.717 L 182.314 161.826 L 182.950 160.922 L 183.586 160.004 L 184.222 159.073 L 184.859 158.128 L 185.495 157.170 L 186.131 156.198 L 186.768 155.213 L 187.404 154.214 L 188.040 153.202 L 188.677 152.177 L 189.313 151.137 L 189.949 150.085 L 190.585 149.019 L 191.222 147.939 L 191.858 146.846 L 192.494 145.739 L 193.131 144.619 L 193.767 143.485 L 194.403 142.338 L 195.039 141.178 L 195.676 140.004 L 196.312 138.816 L 196.948 137.615 L 197.585 136.400 L 198.221 135.172 L 198.857 133.930 L 199.494 132.675 L 200.130 131.407 L 200.766 130.125 L 201.402 128.829 L 202.039 127.520 L 202.675 126.197 L 203.311 124.861 L 203.948 123.512 L 204.584 122.149 L 205.220 120.772 L 205.856 119.382 L 206.493 117.979 L 207.129 116.562 L 207.765 115.131 L 208.402 113.687 L 209.038 112.229 L 209.674 110.758 L 210.311 109.274 L 210.947 107.776 L 211.583 106.264 L 212.219 104.739 L 212.856 103.201 L 213.492 101.649 L 214.128 100.083 L 214.765 98.504 L 215.401 96.912 L 216.037 95.306 L 216.673 93.686 L 217.310 92.053 L 217.946 90.407 L 218.582 88.747 L 219.219 87.074 L 219.855 85.387 L 220.491 83.686 L 221.128 81.972 L 221.764 80.245 L 222.400 78.504 L 223.036 76.749 L 223.673 74.981 L 224.309 73.200 L 224.945 71.405 L 225.582 69.597 L 226.218 67.775 L 226.854 65.939 L 227.490 64.090 L 228.127 62.228 L 228.763 60.352 L 229.399 58.463 L 230.036 56.560 L 230.672 54.643 L 231.308 52.714 L 231.945 50.770 L 232.581 48.813 L 233.217 46.843 L 233.853 44.859 L 234.490 42.862 L 235.126 40.851 L 235.762 38.826 L 236.399 36.789 L 237.035 34.737 L 237.671 32.672 L 238.307 30.594 L 238.944 28.502 L 239.580 26.397 L 240.216 24.278 L 240.853 22.146 L 241.489 20.000" />
  </g>

  <!-- точки на параболе (радиус 2.2) -->
  <circle cx="90.000" cy="150.000" r="2.2" fill="#2d70b3" />
  <circle cx="190.000" cy="150.000" r="2.2" fill="#2d70b3" />
  <circle cx="150.000" cy="190.000" r="2.2" fill="#2d70b3" />

  <!-- подпись f(x) -->
  <text x="230.000" y="90.000"
        font-family="Georgia, 'Times New Roman', serif"
        font-style="italic"
        font-size="13"
        fill="#2d70b3">
    f(x)
  </text>

</svg>
