<svg xmlns="http://www.w3.org/2000/svg" width="220" height="220" viewBox="0 0 220 220">

  <rect x="0" y="0" width="220" height="220" fill="white" />

  <defs>
    <!-- стрелка для осей -->
    <marker id="axis-arrow"
            viewBox="0 0 15 8"
            refX="13" refY="4"
            markerWidth="12" markerHeight="6.4"
            orient="auto"
            markerUnits="userSpaceOnUse">
      <path d="M 3 0 L 15 4 L 3 8 L 7 4 Z"
            fill="black" />
    </marker>
  </defs>

  <!-- клетчатая сетка: x от -5 до 7, y от -5 до 7 -->
  <g stroke="#d1d5db" stroke-width="0.5" shape-rendering="crispEdges">
    <!-- вертикальные линии: только внутренние -->
    <line x1="26.667" y1="10.000" x2="26.667" y2="210.000" />
    <line x1="43.333" y1="10.000" x2="43.333" y2="210.000" />
    <line x1="60.000" y1="10.000" x2="60.000" y2="210.000" />
    <line x1="76.667" y1="10.000" x2="76.667" y2="210.000" />
    <line x1="93.333" y1="10.000" x2="93.333" y2="210.000" />
    <line x1="110.000" y1="10.000" x2="110.000" y2="210.000" />
    <line x1="126.667" y1="10.000" x2="126.667" y2="210.000" />
    <line x1="143.333" y1="10.000" x2="143.333" y2="210.000" />
    <line x1="160.000" y1="10.000" x2="160.000" y2="210.000" />
    <line x1="176.667" y1="10.000" x2="176.667" y2="210.000" />
    <line x1="193.333" y1="10.000" x2="193.333" y2="210.000" />
    <!-- горизонтальные линии: только внутренние -->
    <line x1="10.000" y1="26.667" x2="210.000" y2="26.667" />
    <line x1="10.000" y1="43.333" x2="210.000" y2="43.333" />
    <line x1="10.000" y1="60.000" x2="210.000" y2="60.000" />
    <line x1="10.000" y1="76.667" x2="210.000" y2="76.667" />
    <line x1="10.000" y1="93.333" x2="210.000" y2="93.333" />
    <line x1="10.000" y1="110.000" x2="210.000" y2="110.000" />
    <line x1="10.000" y1="126.667" x2="210.000" y2="126.667" />
    <line x1="10.000" y1="143.333" x2="210.000" y2="143.333" />
    <line x1="10.000" y1="160.000" x2="210.000" y2="160.000" />
    <line x1="10.000" y1="176.667" x2="210.000" y2="176.667" />
    <line x1="10.000" y1="193.333" x2="210.000" y2="193.333" />
  </g>

  <!-- оси x и y -->
  <g stroke="#111827" stroke-width="1.25">
    <line x1="10.000" y1="126.667" x2="210.000" y2="126.667"
          marker-end="url(#axis-arrow)" />
    <line x1="93.333" y1="210.000" x2="93.333" y2="10.000"
          marker-end="url(#axis-arrow)" />
  </g>

  <!-- подписи осей и делений -->
  <g font-family="sans-serif" font-size="11" fill="#111827">
    <text x="89.333" y="139.667" text-anchor="end"
          font-size="13" font-style="italic"
          font-family="Georgia, 'Times New Roman', serif">O</text>

    <rect x="106.500" y="129.667" width="7" height="12" fill="white" />
    <text x="110.000" y="140.667" text-anchor="middle" font-size="13"
          font-family="'Times New Roman', serif"
          font-weight="300">1</text>

    <text x="86.333" y="114.000" text-anchor="end" font-size="13"
          font-family="'Times New Roman', serif"
          font-weight="300">1</text>

    <text x="206" y="139.667" text-anchor="start"
          font-family="Georgia, 'Times New Roman', serif"
          font-style="italic" font-size="13">x</text>

    <text x="90.333" y="13" text-anchor="end"
          font-family="Georgia, 'Times New Roman', serif"
          font-style="italic" font-size="13">y</text>
  </g>

  <!-- парабола y = (8/9)x^2 - (16/3)x + 5, обрезана сверху на y<=6.5 -->
  <g stroke="#2d70b3" stroke-width="1.25" fill="none"
     stroke-linecap="round" stroke-linejoin="round">
    <path d="M 88.847 18.333 L 89.345 21.212 L 89.842 24.064 L 90.340 26.890 L 90.837 29.690 L 91.335 32.463 L 91.833 35.210 L 92.330 37.930 L 92.828 40.624 L 93.325 43.291 L 93.823 45.932 L 94.321 48.547 L 94.818 51.135 L 95.316 53.697 L 95.813 56.232 L 96.311 58.741 L 96.809 61.224 L 97.306 63.680 L 97.804 66.110 L 98.301 68.513 L 98.799 70.890 L 99.297 73.240 L 99.794 75.565 L 100.292 77.862 L 100.789 80.134 L 101.287 82.378 L 101.784 84.597 L 102.282 86.789 L 102.780 88.955 L 103.277 91.094 L 103.775 93.207 L 104.272 95.293 L 104.770 97.353 L 105.268 99.387 L 105.765 101.394 L 106.263 103.375 L 106.760 105.329 L 107.258 107.257 L 107.756 109.159 L 108.253 111.034 L 108.751 112.882 L 109.248 114.705 L 109.746 116.501 L 110.244 118.270 L 110.741 120.013 L 111.239 121.730 L 111.736 123.420 L 112.234 125.084 L 112.731 126.721 L 113.229 128.332 L 113.727 129.917 L 114.224 131.475 L 114.722 133.007 L 115.219 134.512 L 115.717 135.991 L 116.215 137.444 L 116.712 138.870 L 117.210 140.270 L 117.707 141.643 L 118.205 142.990 L 118.703 144.311 L 119.200 145.605 L 119.698 146.872 L 120.195 148.114 L 120.693 149.329 L 121.191 150.517 L 121.688 151.679 L 122.186 152.815 L 122.683 153.924 L 123.181 155.007 L 123.678 156.063 L 124.176 157.093 L 124.674 158.097 L 125.171 159.074 L 125.669 160.025 L 126.166 160.949 L 126.664 161.847 L 127.162 162.719 L 127.659 163.564 L 128.157 164.383 L 128.654 165.175 L 129.152 165.941 L 129.650 166.680 L 130.147 167.393 L 130.645 168.080 L 131.142 168.740 L 131.640 169.374 L 132.138 169.982 L 132.635 170.563 L 133.133 171.117 L 133.630 171.645 L 134.128 172.147 L 134.625 172.623 L 135.123 173.072 L 135.621 173.494 L 136.118 173.890 L 136.616 174.260 L 137.113 174.603 L 137.611 174.920 L 138.109 175.211 L 138.606 175.475 L 139.104 175.713 L 139.601 175.924 L 140.099 176.109 L 140.597 176.267 L 141.094 176.399 L 141.592 176.505 L 142.089 176.584 L 142.587 176.637 L 143.085 176.663 L 143.582 176.663 L 144.080 176.637 L 144.577 176.584 L 145.075 176.505 L 145.572 176.399 L 146.070 176.267 L 146.568 176.109 L 147.065 175.924 L 147.563 175.713 L 148.060 175.475 L 148.558 175.211 L 149.056 174.920 L 149.553 174.603 L 150.051 174.260 L 150.548 173.890 L 151.046 173.494 L 151.544 173.072 L 152.041 172.623 L 152.539 172.147 L 153.036 171.645 L 153.534 171.117 L 154.032 170.563 L 154.529 169.982 L 155.027 169.374 L 155.524 168.740 L 156.022 168.080 L 156.520 167.393 L 157.017 166.680 L 157.515 165.941 L 158.012 165.175 L 158.510 164.383 L 159.007 163.564 L 159.505 162.719 L 160.003 161.847 L 160.500 160.949 L 160.998 160.025 L 161.495 159.074 L 161.993 158.097 L 162.491 157.093 L 162.988 156.063 L 163.486 155.007 L 163.983 153.924 L 164.481 152.815 L 164.979 151.679 L 165.476 150.517 L 165.974 149.329 L 166.471 148.114 L 166.969 146.872 L 167.467 145.605 L 167.964 144.311 L 168.462 142.990 L 168.959 141.643 L 169.457 140.270 L 169.954 138.870 L 170.452 137.444 L 170.950 135.991 L 171.447 134.512 L 171.945 133.007 L 172.442 131.475 L 172.940 129.917 L 173.438 128.332 L 173.935 126.721 L 174.433 125.084 L 174.930 123.420 L 175.428 121.730 L 175.926 120.013 L 176.423 118.270 L 176.921 116.501 L 177.418 114.705 L 177.916 112.882 L 178.414 111.034 L 178.911 109.159 L 179.409 107.257 L 179.906 105.329 L 180.404 103.375 L 180.901 101.394 L 181.399 99.387 L 181.897 97.353 L 182.394 95.293 L 182.892 93.207 L 183.389 91.094 L 183.887 88.955 L 184.385 86.789 L 184.882 84.597 L 185.380 82.378 L 185.877 80.134 L 186.375 77.862 L 186.873 75.565 L 187.370 73.240 L 187.868 70.890 L 188.365 68.513 L 188.863 66.110 L 189.361 63.680 L 189.858 61.224 L 190.356 58.741 L 190.853 56.232 L 191.351 53.697 L 191.848 51.135 L 192.346 48.547 L 192.844 45.932 L 193.341 43.291 L 193.839 40.624 L 194.336 37.930 L 194.834 35.210 L 195.332 32.463 L 195.829 29.690 L 196.327 26.890 L 196.824 24.064 L 197.322 21.212 L 197.820 18.333" />
  </g>

  <!-- точки на параболе (радиус 2.2) -->
  <circle cx="93.333" cy="43.333" r="2.2" fill="#2d70b3" />
  <circle cx="193.333" cy="43.333" r="2.2" fill="#2d70b3" />
  <circle cx="143.333" cy="176.667" r="2.2" fill="#2d70b3" />

  <!-- подпись f(x) -->
  <text x="116" y="90"
        font-family="Georgia, 'Times New Roman', serif"
        font-style="italic"
        font-size="13"
        fill="#2d70b3">
    f(x)
  </text>

</svg>
