<svg xmlns="http://www.w3.org/2000/svg" width="300" height="260" viewBox="0 0 300 260">

  <rect x="0" y="0" width="300" height="260" fill="white" />

  <defs>
    <!-- стрелка для осей -->
    <marker id="axis-arrow"
            viewBox="0 0 15 8"
            refX="13" refY="4"
            markerWidth="12" markerHeight="6.4"
            orient="auto"
            markerUnits="userSpaceOnUse">
      <path d="M 3 0 L 15 4 L 3 8 L 7 4 Z"
            fill="black" />
    </marker>
  </defs>

  <!-- клетчатая сетка: x от -7 до 7, y от -5 до 7 (клетка 20px, квадратная) -->
  <g stroke="#d1d5db" stroke-width="0.5" shape-rendering="crispEdges">
    <!-- вертикальные линии: только внутренние -->
    <line x1="30.000" y1="10.000" x2="30.000" y2="250.000" />
    <line x1="50.000" y1="10.000" x2="50.000" y2="250.000" />
    <line x1="70.000" y1="10.000" x2="70.000" y2="250.000" />
    <line x1="90.000" y1="10.000" x2="90.000" y2="250.000" />
    <line x1="110.000" y1="10.000" x2="110.000" y2="250.000" />
    <line x1="130.000" y1="10.000" x2="130.000" y2="250.000" />
    <line x1="150.000" y1="10.000" x2="150.000" y2="250.000" />
    <line x1="170.000" y1="10.000" x2="170.000" y2="250.000" />
    <line x1="190.000" y1="10.000" x2="190.000" y2="250.000" />
    <line x1="210.000" y1="10.000" x2="210.000" y2="250.000" />
    <line x1="230.000" y1="10.000" x2="230.000" y2="250.000" />
    <line x1="250.000" y1="10.000" x2="250.000" y2="250.000" />
    <line x1="270.000" y1="10.000" x2="270.000" y2="250.000" />
    <!-- горизонтальные линии: только внутренние -->
    <line x1="10.000" y1="30.000" x2="290.000" y2="30.000" />
    <line x1="10.000" y1="50.000" x2="290.000" y2="50.000" />
    <line x1="10.000" y1="70.000" x2="290.000" y2="70.000" />
    <line x1="10.000" y1="90.000" x2="290.000" y2="90.000" />
    <line x1="10.000" y1="110.000" x2="290.000" y2="110.000" />
    <line x1="10.000" y1="130.000" x2="290.000" y2="130.000" />
    <line x1="10.000" y1="150.000" x2="290.000" y2="150.000" />
    <line x1="10.000" y1="170.000" x2="290.000" y2="170.000" />
    <line x1="10.000" y1="190.000" x2="290.000" y2="190.000" />
    <line x1="10.000" y1="210.000" x2="290.000" y2="210.000" />
    <line x1="10.000" y1="230.000" x2="290.000" y2="230.000" />
  </g>

  <!-- оси x и y -->
  <g stroke="#111827" stroke-width="1.25">
    <line x1="10.000" y1="150.000" x2="290.000" y2="150.000"
          marker-end="url(#axis-arrow)" />
    <line x1="150.000" y1="250.000" x2="150.000" y2="10.000"
          marker-end="url(#axis-arrow)" />
  </g>

  <!-- подписи осей и делений -->
  <g font-family="sans-serif" font-size="11" fill="#111827">
    <text x="146.000" y="163.000" text-anchor="end"
          font-size="13" font-style="italic"
          font-family="Georgia, 'Times New Roman', serif">O</text>

    <rect x="166.500" y="153.000" width="7" height="12" fill="white" />
    <text x="170.000" y="164.000" text-anchor="middle" font-size="13"
          font-family="'Times New Roman', serif"
          font-weight="300">1</text>

    <text x="143.000" y="134.000" text-anchor="end" font-size="13"
          font-family="'Times New Roman', serif"
          font-weight="300">1</text>

    <text x="286.000" y="163.000" text-anchor="start"
          font-family="Georgia, 'Times New Roman', serif"
          font-style="italic" font-size="13">x</text>

    <text x="147.000" y="13.000" text-anchor="end"
          font-family="Georgia, 'Times New Roman', serif"
          font-style="italic" font-size="13">y</text>
  </g>

  <!-- парабола через (-3;0), (2;0), (0;-2), обрезана сверху на y<=6.5 -->
  <g stroke="#2d70b3" stroke-width="1.25" fill="none"
     stroke-linecap="round" stroke-linejoin="round">
    <path d="M 85.193 20.000 L 85.554 22.333 L 85.915 24.654 L 86.276 26.961 L 86.637 29.255 L 86.998 31.536 L 87.359 33.804 L 87.720 36.059 L 88.081 38.302 L 88.442 40.531 L 88.803 42.747 L 89.164 44.950 L 89.525 47.139 L 89.886 49.316 L 90.247 51.480 L 90.608 53.631 L 90.969 55.769 L 91.330 57.894 L 91.691 60.005 L 92.052 62.104 L 92.413 64.190 L 92.775 66.262 L 93.136 68.322 L 93.497 70.368 L 93.858 72.402 L 94.219 74.422 L 94.580 76.430 L 94.941 78.424 L 95.302 80.405 L 95.663 82.374 L 96.024 84.329 L 96.385 86.271 L 96.746 88.201 L 97.107 90.117 L 97.468 92.020 L 97.829 93.910 L 98.190 95.787 L 98.551 97.651 L 98.912 99.502 L 99.273 101.340 L 99.634 103.165 L 99.995 104.977 L 100.356 106.776 L 100.717 108.562 L 101.079 110.334 L 101.440 112.094 L 101.801 113.841 L 102.162 115.575 L 102.523 117.295 L 102.884 119.003 L 103.245 120.698 L 103.606 122.379 L 103.967 124.048 L 104.328 125.703 L 104.689 127.346 L 105.050 128.975 L 105.411 130.591 L 105.772 132.195 L 106.133 133.785 L 106.494 135.362 L 106.855 136.926 L 107.216 138.478 L 107.577 140.016 L 107.938 141.541 L 108.299 143.053 L 108.660 144.552 L 109.022 146.038 L 109.383 147.511 L 109.744 148.971 L 110.105 150.418 L 110.466 151.852 L 110.827 153.273 L 111.188 154.681 L 111.549 156.075 L 111.910 157.457 L 112.271 158.826 L 112.632 160.181 L 112.993 161.524 L 113.354 162.854 L 113.715 164.170 L 114.076 165.474 L 114.437 166.764 L 114.798 168.042 L 115.159 169.306 L 115.520 170.557 L 115.881 171.796 L 116.242 173.021 L 116.603 174.233 L 116.964 175.433 L 117.326 176.619 L 117.687 177.792 L 118.048 178.952 L 118.409 180.099 L 118.770 181.233 L 119.131 182.354 L 119.492 183.462 L 119.853 184.557 L 120.214 185.639 L 120.575 186.708 L 120.936 187.764 L 121.297 188.807 L 121.658 189.837 L 122.019 190.853 L 122.380 191.857 L 122.741 192.848 L 123.102 193.825 L 123.463 194.790 L 123.824 195.742 L 124.185 196.680 L 124.546 197.606 L 124.907 198.518 L 125.268 199.418 L 125.630 200.304 L 125.991 201.177 L 126.352 202.038 L 126.713 202.885 L 127.074 203.719 L 127.435 204.540 L 127.796 205.349 L 128.157 206.144 L 128.518 206.926 L 128.879 207.695 L 129.240 208.451 L 129.601 209.194 L 129.962 209.924 L 130.323 210.641 L 130.684 211.345 L 131.045 212.036 L 131.406 212.714 L 131.767 213.378 L 132.128 214.030 L 132.489 214.669 L 132.850 215.295 L 133.211 215.907 L 133.572 216.507 L 133.934 217.093 L 134.295 217.667 L 134.656 218.228 L 135.017 218.775 L 135.378 219.309 L 135.739 219.831 L 136.100 220.339 L 136.461 220.835 L 136.822 221.317 L 137.183 221.786 L 137.544 222.242 L 137.905 222.686 L 138.266 223.116 L 138.627 223.533 L 138.988 223.937 L 139.349 224.328 L 139.710 224.706 L 140.071 225.071 L 140.432 225.423 L 140.793 225.762 L 141.154 226.088 L 141.515 226.401 L 141.877 226.700 L 142.238 226.987 L 142.599 227.261 L 142.960 227.522 L 143.321 227.769 L 143.682 228.004 L 144.043 228.226 L 144.404 228.434 L 144.765 228.630 L 145.126 228.812 L 145.487 228.982 L 145.848 229.138 L 146.209 229.281 L 146.570 229.412 L 146.931 229.529 L 147.292 229.633 L 147.653 229.725 L 148.014 229.803 L 148.375 229.868 L 148.736 229.920 L 149.097 229.959 L 149.458 229.985 L 149.819 229.998 L 150.181 229.998 L 150.542 229.985 L 150.903 229.959 L 151.264 229.920 L 151.625 229.868 L 151.986 229.803 L 152.347 229.725 L 152.708 229.633 L 153.069 229.529 L 153.430 229.412 L 153.791 229.281 L 154.152 229.138 L 154.513 228.982 L 154.874 228.812 L 155.235 228.630 L 155.596 228.434 L 155.957 228.226 L 156.318 228.004 L 156.679 227.769 L 157.040 227.522 L 157.401 227.261 L 157.762 226.987 L 158.123 226.700 L 158.485 226.401 L 158.846 226.088 L 159.207 225.762 L 159.568 225.423 L 159.929 225.071 L 160.290 224.706 L 160.651 224.328 L 161.012 223.937 L 161.373 223.533 L 161.734 223.116 L 162.095 222.686 L 162.456 222.242 L 162.817 221.786 L 163.178 221.317 L 163.539 220.835 L 163.900 220.339 L 164.261 219.831 L 164.622 219.309 L 164.983 218.775 L 165.344 218.228 L 165.705 217.667 L 166.066 217.093 L 166.428 216.507 L 166.789 215.907 L 167.150 215.295 L 167.511 214.669 L 167.872 214.030 L 168.233 213.378 L 168.594 212.714 L 168.955 212.036 L 169.316 211.345 L 169.677 210.641 L 170.038 209.924 L 170.399 209.194 L 170.760 208.451 L 171.121 207.695 L 171.482 206.926 L 171.843 206.144 L 172.204 205.349 L 172.565 204.540 L 172.926 203.719 L 173.287 202.885 L 173.648 202.038 L 174.009 201.177 L 174.370 200.304 L 174.732 199.418 L 175.093 198.518 L 175.454 197.606 L 175.815 196.680 L 176.176 195.742 L 176.537 194.790 L 176.898 193.825 L 177.259 192.848 L 177.620 191.857 L 177.981 190.853 L 178.342 189.837 L 178.703 188.807 L 179.064 187.764 L 179.425 186.708 L 179.786 185.639 L 180.147 184.557 L 180.508 183.462 L 180.869 182.354 L 181.230 181.233 L 181.591 180.099 L 181.952 178.952 L 182.313 177.792 L 182.674 176.619 L 183.036 175.433 L 183.397 174.233 L 183.758 173.021 L 184.119 171.796 L 184.480 170.557 L 184.841 169.306 L 185.202 168.042 L 185.563 166.764 L 185.924 165.474 L 186.285 164.170 L 186.646 162.854 L 187.007 161.524 L 187.368 160.181 L 187.729 158.826 L 188.090 157.457 L 188.451 156.075 L 188.812 154.681 L 189.173 153.273 L 189.534 151.852 L 189.895 150.418 L 190.256 148.971 L 190.617 147.511 L 190.978 146.038 L 191.340 144.552 L 191.701 143.053 L 192.062 141.541 L 192.423 140.016 L 192.784 138.478 L 193.145 136.926 L 193.506 135.362 L 193.867 133.785 L 194.228 132.195 L 194.589 130.591 L 194.950 128.975 L 195.311 127.346 L 195.672 125.703 L 196.033 124.048 L 196.394 122.379 L 196.755 120.698 L 197.116 119.003 L 197.477 117.295 L 197.838 115.575 L 198.199 113.841 L 198.560 112.094 L 198.921 110.334 L 199.283 108.562 L 199.644 106.776 L 200.005 104.977 L 200.366 103.165 L 200.727 101.340 L 201.088 99.502 L 201.449 97.651 L 201.810 95.787 L 202.171 93.910 L 202.532 92.020 L 202.893 90.117 L 203.254 88.201 L 203.615 86.271 L 203.976 84.329 L 204.337 82.374 L 204.698 80.405 L 205.059 78.424 L 205.420 76.430 L 205.781 74.422 L 206.142 72.402 L 206.503 70.368 L 206.864 68.322 L 207.225 66.262 L 207.587 64.190 L 207.948 62.104 L 208.309 60.005 L 208.670 57.894 L 209.031 55.769 L 209.392 53.631 L 209.753 51.480 L 210.114 49.316 L 210.475 47.139 L 210.836 44.950 L 211.197 42.747 L 211.558 40.531 L 211.919 38.302 L 212.280 36.059 L 212.641 33.804 L 213.002 31.536 L 213.363 29.255 L 213.724 26.961 L 214.085 24.654 L 214.446 22.333 L 214.807 20.000" />
  </g>

  <!-- точки на параболе (радиус 2.2) -->
  <circle cx="110.000" cy="150.000" r="2.2" fill="#2d70b3" />
  <circle cx="190.000" cy="150.000" r="2.2" fill="#2d70b3" />
  <circle cx="150.000" cy="230.000" r="2.2" fill="#2d70b3" />

  <!-- подпись f(x) -->
  <text x="210.000" y="110.000"
        font-family="Georgia, 'Times New Roman', serif"
        font-style="italic"
        font-size="13"
        fill="#2d70b3">
    f(x)
  </text>

</svg>
