<svg xmlns="http://www.w3.org/2000/svg" width="300" height="260" viewBox="0 0 300 260">

  <rect x="0" y="0" width="300" height="260" fill="white" />

  <defs>
    <!-- стрелка для осей -->
    <marker id="axis-arrow"
            viewBox="0 0 15 8"
            refX="13" refY="4"
            markerWidth="12" markerHeight="6.4"
            orient="auto"
            markerUnits="userSpaceOnUse">
      <path d="M 3 0 L 15 4 L 3 8 L 7 4 Z"
            fill="black" />
    </marker>
  </defs>

  <!-- клетчатая сетка: x от -7 до 7, y от -5 до 7 (клетка 20px, квадратная) -->
  <g stroke="#d1d5db" stroke-width="0.5" shape-rendering="crispEdges">
    <!-- вертикальные линии: только внутренние -->
    <line x1="30.000" y1="10.000" x2="30.000" y2="250.000" />
    <line x1="50.000" y1="10.000" x2="50.000" y2="250.000" />
    <line x1="70.000" y1="10.000" x2="70.000" y2="250.000" />
    <line x1="90.000" y1="10.000" x2="90.000" y2="250.000" />
    <line x1="110.000" y1="10.000" x2="110.000" y2="250.000" />
    <line x1="130.000" y1="10.000" x2="130.000" y2="250.000" />
    <line x1="150.000" y1="10.000" x2="150.000" y2="250.000" />
    <line x1="170.000" y1="10.000" x2="170.000" y2="250.000" />
    <line x1="190.000" y1="10.000" x2="190.000" y2="250.000" />
    <line x1="210.000" y1="10.000" x2="210.000" y2="250.000" />
    <line x1="230.000" y1="10.000" x2="230.000" y2="250.000" />
    <line x1="250.000" y1="10.000" x2="250.000" y2="250.000" />
    <line x1="270.000" y1="10.000" x2="270.000" y2="250.000" />
    <!-- горизонтальные линии: только внутренние -->
    <line x1="10.000" y1="30.000" x2="290.000" y2="30.000" />
    <line x1="10.000" y1="50.000" x2="290.000" y2="50.000" />
    <line x1="10.000" y1="70.000" x2="290.000" y2="70.000" />
    <line x1="10.000" y1="90.000" x2="290.000" y2="90.000" />
    <line x1="10.000" y1="110.000" x2="290.000" y2="110.000" />
    <line x1="10.000" y1="130.000" x2="290.000" y2="130.000" />
    <line x1="10.000" y1="150.000" x2="290.000" y2="150.000" />
    <line x1="10.000" y1="170.000" x2="290.000" y2="170.000" />
    <line x1="10.000" y1="190.000" x2="290.000" y2="190.000" />
    <line x1="10.000" y1="210.000" x2="290.000" y2="210.000" />
    <line x1="10.000" y1="230.000" x2="290.000" y2="230.000" />
  </g>

  <!-- оси x и y -->
  <g stroke="#111827" stroke-width="1.25">
    <line x1="10.000" y1="150.000" x2="290.000" y2="150.000"
          marker-end="url(#axis-arrow)" />
    <line x1="150.000" y1="250.000" x2="150.000" y2="10.000"
          marker-end="url(#axis-arrow)" />
  </g>

  <!-- подписи осей и делений -->
  <g font-family="sans-serif" font-size="11" fill="#111827">
    <text x="146.000" y="163.000" text-anchor="end"
          font-size="13" font-style="italic"
          font-family="Georgia, 'Times New Roman', serif">O</text>

    <rect x="166.500" y="153.000" width="7" height="12" fill="white" />
    <text x="170.000" y="164.000" text-anchor="middle" font-size="13"
          font-family="'Times New Roman', serif"
          font-weight="300">1</text>

    <text x="143.000" y="134.000" text-anchor="end" font-size="13"
          font-family="'Times New Roman', serif"
          font-weight="300">1</text>

    <text x="286.000" y="163.000" text-anchor="start"
          font-family="Georgia, 'Times New Roman', serif"
          font-style="italic" font-size="13">x</text>

    <text x="147.000" y="13.000" text-anchor="end"
          font-family="Georgia, 'Times New Roman', serif"
          font-style="italic" font-size="13">y</text>
  </g>

  <!-- парабола через (-3;0), (2;0), (0;-2), обрезана сверху на y<=6.5 -->
  <g stroke="#2d70b3" stroke-width="1.25" fill="none"
     stroke-linecap="round" stroke-linejoin="round">
    <path d="M 35.228 20.000 L 35.533 21.667 L 35.838 23.324 L 36.143 24.972 L 36.448 26.611 L 36.753 28.240 L 37.059 29.860 L 37.364 31.471 L 37.669 33.073 L 37.974 34.665 L 38.279 36.248 L 38.584 37.821 L 38.889 39.385 L 39.195 40.940 L 39.500 42.486 L 39.805 44.022 L 40.110 45.549 L 40.415 47.067 L 40.720 48.575 L 41.025 50.074 L 41.331 51.564 L 41.636 53.044 L 41.941 54.516 L 42.246 55.977 L 42.551 57.430 L 42.856 58.873 L 43.161 60.307 L 43.466 61.732 L 43.772 63.147 L 44.077 64.553 L 44.382 65.949 L 44.687 67.337 L 44.992 68.715 L 45.297 70.083 L 45.602 71.443 L 45.908 72.793 L 46.213 74.134 L 46.518 75.465 L 46.823 76.787 L 47.128 78.100 L 47.433 79.404 L 47.738 80.698 L 48.044 81.983 L 48.349 83.258 L 48.654 84.525 L 48.959 85.782 L 49.264 87.029 L 49.569 88.268 L 49.874 89.497 L 50.180 90.716 L 50.485 91.927 L 50.790 93.128 L 51.095 94.320 L 51.400 95.502 L 51.705 96.675 L 52.010 97.839 L 52.315 98.994 L 52.621 100.139 L 52.926 101.275 L 53.231 102.402 L 53.536 103.519 L 53.841 104.627 L 54.146 105.726 L 54.451 106.815 L 54.757 107.895 L 55.062 108.966 L 55.367 110.027 L 55.672 111.079 L 55.977 112.122 L 56.282 113.156 L 56.587 114.180 L 56.893 115.195 L 57.198 116.200 L 57.503 117.197 L 57.808 118.184 L 58.113 119.161 L 58.418 120.130 L 58.723 121.089 L 59.029 122.038 L 59.334 122.979 L 59.639 123.910 L 59.944 124.832 L 60.249 125.744 L 60.554 126.647 L 60.859 127.541 L 61.164 128.426 L 61.470 129.301 L 61.775 130.167 L 62.080 131.023 L 62.385 131.871 L 62.690 132.709 L 62.995 133.537 L 63.300 134.357 L 63.606 135.167 L 63.911 135.967 L 64.216 136.759 L 64.521 137.541 L 64.826 138.314 L 65.131 139.077 L 65.436 139.831 L 65.742 140.576 L 66.047 141.312 L 66.352 142.038 L 66.657 142.755 L 66.962 143.463 L 67.267 144.161 L 67.572 144.850 L 67.878 145.530 L 68.183 146.200 L 68.488 146.861 L 68.793 147.513 L 69.098 148.155 L 69.403 148.789 L 69.708 149.412 L 70.013 150.027 L 70.319 150.632 L 70.624 151.228 L 70.929 151.815 L 71.234 152.392 L 71.539 152.960 L 71.844 153.519 L 72.149 154.068 L 72.455 154.608 L 72.760 155.139 L 73.065 155.660 L 73.370 156.172 L 73.675 156.675 L 73.980 157.168 L 74.285 157.653 L 74.591 158.127 L 74.896 158.593 L 75.201 159.049 L 75.506 159.496 L 75.811 159.934 L 76.116 160.362 L 76.421 160.781 L 76.727 161.191 L 77.032 161.591 L 77.337 161.982 L 77.642 162.364 L 77.947 162.736 L 78.252 163.099 L 78.557 163.453 L 78.862 163.798 L 79.168 164.133 L 79.473 164.459 L 79.778 164.775 L 80.083 165.083 L 80.388 165.381 L 80.693 165.669 L 80.998 165.949 L 81.304 166.219 L 81.609 166.479 L 81.914 166.731 L 82.219 166.973 L 82.524 167.206 L 82.829 167.429 L 83.134 167.643 L 83.440 167.848 L 83.745 168.044 L 84.050 168.230 L 84.355 168.407 L 84.660 168.574 L 84.965 168.733 L 85.270 168.882 L 85.576 169.021 L 85.881 169.152 L 86.186 169.273 L 86.491 169.384 L 86.796 169.487 L 87.101 169.580 L 87.406 169.664 L 87.711 169.738 L 88.017 169.803 L 88.322 169.859 L 88.627 169.906 L 88.932 169.943 L 89.237 169.971 L 89.542 169.990 L 89.847 169.999 L 90.153 169.999 L 90.458 169.990 L 90.763 169.971 L 91.068 169.943 L 91.373 169.906 L 91.678 169.859 L 91.983 169.803 L 92.289 169.738 L 92.594 169.664 L 92.899 169.580 L 93.204 169.487 L 93.509 169.384 L 93.814 169.273 L 94.119 169.152 L 94.424 169.021 L 94.730 168.882 L 95.035 168.733 L 95.340 168.574 L 95.645 168.407 L 95.950 168.230 L 96.255 168.044 L 96.560 167.848 L 96.866 167.643 L 97.171 167.429 L 97.476 167.206 L 97.781 166.973 L 98.086 166.731 L 98.391 166.479 L 98.696 166.219 L 99.002 165.949 L 99.307 165.669 L 99.612 165.381 L 99.917 165.083 L 100.222 164.775 L 100.527 164.459 L 100.832 164.133 L 101.138 163.798 L 101.443 163.453 L 101.748 163.099 L 102.053 162.736 L 102.358 162.364 L 102.663 161.982 L 102.968 161.591 L 103.273 161.191 L 103.579 160.781 L 103.884 160.362 L 104.189 159.934 L 104.494 159.496 L 104.799 159.049 L 105.104 158.593 L 105.409 158.127 L 105.715 157.653 L 106.020 157.168 L 106.325 156.675 L 106.630 156.172 L 106.935 155.660 L 107.240 155.139 L 107.545 154.608 L 107.851 154.068 L 108.156 153.519 L 108.461 152.960 L 108.766 152.392 L 109.071 151.815 L 109.376 151.228 L 109.681 150.632 L 109.987 150.027 L 110.292 149.412 L 110.597 148.789 L 110.902 148.155 L 111.207 147.513 L 111.512 146.861 L 111.817 146.200 L 112.122 145.530 L 112.428 144.850 L 112.733 144.161 L 113.038 143.463 L 113.343 142.755 L 113.648 142.038 L 113.953 141.312 L 114.258 140.576 L 114.564 139.831 L 114.869 139.077 L 115.174 138.314 L 115.479 137.541 L 115.784 136.759 L 116.089 135.967 L 116.394 135.167 L 116.700 134.357 L 117.005 133.537 L 117.310 132.709 L 117.615 131.871 L 117.920 131.023 L 118.225 130.167 L 118.530 129.301 L 118.836 128.426 L 119.141 127.541 L 119.446 126.647 L 119.751 125.744 L 120.056 124.832 L 120.361 123.910 L 120.666 122.979 L 120.971 122.038 L 121.277 121.089 L 121.582 120.130 L 121.887 119.161 L 122.192 118.184 L 122.497 117.197 L 122.802 116.200 L 123.107 115.195 L 123.413 114.180 L 123.718 113.156 L 124.023 112.122 L 124.328 111.079 L 124.633 110.027 L 124.938 108.966 L 125.243 107.895 L 125.549 106.815 L 125.854 105.726 L 126.159 104.627 L 126.464 103.519 L 126.769 102.402 L 127.074 101.275 L 127.379 100.139 L 127.685 98.994 L 127.990 97.839 L 128.295 96.675 L 128.600 95.502 L 128.905 94.320 L 129.210 93.128 L 129.515 91.927 L 129.820 90.716 L 130.126 89.497 L 130.431 88.268 L 130.736 87.029 L 131.041 85.782 L 131.346 84.525 L 131.651 83.258 L 131.956 81.983 L 132.262 80.698 L 132.567 79.404 L 132.872 78.100 L 133.177 76.787 L 133.482 75.465 L 133.787 74.134 L 134.092 72.793 L 134.398 71.443 L 134.703 70.083 L 135.008 68.715 L 135.313 67.337 L 135.618 65.949 L 135.923 64.553 L 136.228 63.147 L 136.534 61.732 L 136.839 60.307 L 137.144 58.873 L 137.449 57.430 L 137.754 55.977 L 138.059 54.516 L 138.364 53.044 L 138.669 51.564 L 138.975 50.074 L 139.280 48.575 L 139.585 47.067 L 139.890 45.549 L 140.195 44.022 L 140.500 42.486 L 140.805 40.940 L 141.111 39.385 L 141.416 37.821 L 141.721 36.248 L 142.026 34.665 L 142.331 33.073 L 142.636 31.471 L 142.941 29.860 L 143.247 28.240 L 143.552 26.611 L 143.857 24.972 L 144.162 23.324 L 144.467 21.667 L 144.772 20.000" />
  </g>

  <!-- точки на параболе (радиус 2.2) -->
  <circle cx="70.000" cy="150.000" r="2.2" fill="#2d70b3" />
  <circle cx="110.000" cy="150.000" r="2.2" fill="#2d70b3" />
  <circle cx="90.000" cy="170.000" r="2.2" fill="#2d70b3" />

  <!-- подпись f(x) -->
  <text x="50.000" y="50.000"
        font-family="Georgia, 'Times New Roman', serif"
        font-style="italic"
        font-size="13"
        fill="#2d70b3">
    f(x)
  </text>

</svg>
