<svg xmlns="http://www.w3.org/2000/svg" width="220" height="220" viewBox="0 0 220 220">

  <rect x="0" y="0" width="220" height="220" fill="white" />

  <defs>
    <!-- стрелка для осей -->
    <marker id="axis-arrow"
            viewBox="0 0 15 8"
            refX="13" refY="4"
            markerWidth="12" markerHeight="6.4"
            orient="auto"
            markerUnits="userSpaceOnUse">
      <path d="M 3 0 L 15 4 L 3 8 L 7 4 Z"
            fill="black" />
    </marker>
  </defs>

  <!-- клетчатая сетка: x от -5 до 7, y от -5 до 7 -->
  <g stroke="#d1d5db" stroke-width="0.5" shape-rendering="crispEdges">
    <!-- вертикальные линии: только внутренние -->
    <line x1="26.667" y1="10.000" x2="26.667" y2="210.000" />
    <line x1="43.333" y1="10.000" x2="43.333" y2="210.000" />
    <line x1="60.000" y1="10.000" x2="60.000" y2="210.000" />
    <line x1="76.667" y1="10.000" x2="76.667" y2="210.000" />
    <line x1="93.333" y1="10.000" x2="93.333" y2="210.000" />
    <line x1="110.000" y1="10.000" x2="110.000" y2="210.000" />
    <line x1="126.667" y1="10.000" x2="126.667" y2="210.000" />
    <line x1="143.333" y1="10.000" x2="143.333" y2="210.000" />
    <line x1="160.000" y1="10.000" x2="160.000" y2="210.000" />
    <line x1="176.667" y1="10.000" x2="176.667" y2="210.000" />
    <line x1="193.333" y1="10.000" x2="193.333" y2="210.000" />
    <!-- горизонтальные линии: только внутренние -->
    <line x1="10.000" y1="26.667" x2="210.000" y2="26.667" />
    <line x1="10.000" y1="43.333" x2="210.000" y2="43.333" />
    <line x1="10.000" y1="60.000" x2="210.000" y2="60.000" />
    <line x1="10.000" y1="76.667" x2="210.000" y2="76.667" />
    <line x1="10.000" y1="93.333" x2="210.000" y2="93.333" />
    <line x1="10.000" y1="110.000" x2="210.000" y2="110.000" />
    <line x1="10.000" y1="126.667" x2="210.000" y2="126.667" />
    <line x1="10.000" y1="143.333" x2="210.000" y2="143.333" />
    <line x1="10.000" y1="160.000" x2="210.000" y2="160.000" />
    <line x1="10.000" y1="176.667" x2="210.000" y2="176.667" />
    <line x1="10.000" y1="193.333" x2="210.000" y2="193.333" />
  </g>

  <!-- оси x и y -->
  <g stroke="#111827" stroke-width="1.25">
    <line x1="10.000" y1="126.667" x2="210.000" y2="126.667"
          marker-end="url(#axis-arrow)" />
    <line x1="93.333" y1="210.000" x2="93.333" y2="10.000"
          marker-end="url(#axis-arrow)" />
  </g>

  <!-- подписи осей и делений -->
  <g font-family="sans-serif" font-size="11" fill="#111827">
    <text x="89.333" y="139.667" text-anchor="end"
          font-size="13" font-style="italic"
          font-family="Georgia, 'Times New Roman', serif">O</text>

    <rect x="106.500" y="129.667" width="7" height="12" fill="white" />
    <text x="110.000" y="140.667" text-anchor="middle" font-size="13"
          font-family="'Times New Roman', serif"
          font-weight="300">1</text>

    <text x="86.333" y="114.000" text-anchor="end" font-size="13"
          font-family="'Times New Roman', serif"
          font-weight="300">1</text>

    <text x="206" y="139.667" text-anchor="start"
          font-family="Georgia, 'Times New Roman', serif"
          font-style="italic" font-size="13">x</text>

    <text x="90.333" y="13" text-anchor="end"
          font-family="Georgia, 'Times New Roman', serif"
          font-style="italic" font-size="13">y</text>
  </g>

  <!-- парабола y = (x-2)(x-4), обрезана сверху на y<=6.5 -->
  <g stroke="#2d70b3" stroke-width="1.25" fill="none"
     stroke-linecap="round" stroke-linejoin="round">
    <path d="M 97.690 18.333 L 98.042 20.256 L 98.395 22.165 L 98.747 24.058 L 99.100 25.936 L 99.452 27.800 L 99.805 29.648 L 100.157 31.482 L 100.509 33.300 L 100.862 35.104 L 101.214 36.893 L 101.567 38.667 L 101.919 40.426 L 102.272 42.170 L 102.624 43.899 L 102.977 45.614 L 103.329 47.313 L 103.682 48.998 L 104.034 50.667 L 104.387 52.322 L 104.739 53.962 L 105.091 55.587 L 105.444 57.197 L 105.796 58.792 L 106.149 60.372 L 106.501 61.937 L 106.854 63.488 L 107.206 65.023 L 107.559 66.544 L 107.911 68.049 L 108.264 69.540 L 108.616 71.016 L 108.969 72.477 L 109.321 73.923 L 109.673 75.354 L 110.026 76.770 L 110.378 78.171 L 110.731 79.558 L 111.083 80.929 L 111.436 82.286 L 111.788 83.628 L 112.141 84.954 L 112.493 86.266 L 112.846 87.563 L 113.198 88.845 L 113.550 90.112 L 113.903 91.364 L 114.255 92.602 L 114.608 93.824 L 114.960 95.032 L 115.313 96.224 L 115.665 97.402 L 116.018 98.565 L 116.370 99.713 L 116.723 100.846 L 117.075 101.964 L 117.428 103.067 L 117.780 104.155 L 118.132 105.228 L 118.485 106.287 L 118.837 107.330 L 119.190 108.359 L 119.542 109.373 L 119.895 110.371 L 120.247 111.355 L 120.600 112.324 L 120.952 113.278 L 121.305 114.217 L 121.657 115.142 L 122.010 116.051 L 122.362 116.945 L 122.714 117.825 L 123.067 118.690 L 123.419 119.539 L 123.772 120.374 L 124.124 121.194 L 124.477 121.999 L 124.829 122.789 L 125.182 123.564 L 125.534 124.325 L 125.887 125.070 L 126.239 125.800 L 126.591 126.516 L 126.944 127.217 L 127.296 127.902 L 127.649 128.573 L 128.001 129.229 L 128.354 129.870 L 128.706 130.496 L 129.059 131.107 L 129.411 131.704 L 129.764 132.285 L 130.116 132.852 L 130.469 133.403 L 130.821 133.940 L 131.173 134.462 L 131.526 134.968 L 131.878 135.460 L 132.231 135.937 L 132.583 136.400 L 132.936 136.847 L 133.288 137.279 L 133.641 137.696 L 133.993 138.099 L 134.346 138.487 L 134.698 138.859 L 135.051 139.217 L 135.403 139.560 L 135.755 139.888 L 136.108 140.201 L 136.460 140.499 L 136.813 140.782 L 137.165 141.051 L 137.518 141.304 L 137.870 141.543 L 138.223 141.766 L 138.575 141.975 L 138.928 142.169 L 139.280 142.348 L 139.633 142.512 L 139.985 142.661 L 140.337 142.795 L 140.690 142.914 L 141.042 143.018 L 141.395 143.108 L 141.747 143.182 L 142.100 143.242 L 142.452 143.287 L 142.805 143.317 L 143.157 143.331 L 143.510 143.331 L 143.862 143.317 L 144.214 143.287 L 144.567 143.242 L 144.919 143.182 L 145.272 143.108 L 145.624 143.018 L 145.977 142.914 L 146.329 142.795 L 146.682 142.661 L 147.034 142.512 L 147.387 142.348 L 147.739 142.169 L 148.092 141.975 L 148.444 141.766 L 148.796 141.543 L 149.149 141.304 L 149.501 141.051 L 149.854 140.782 L 150.206 140.499 L 150.559 140.201 L 150.911 139.888 L 151.264 139.560 L 151.616 139.217 L 151.969 138.859 L 152.321 138.487 L 152.674 138.099 L 153.026 137.696 L 153.378 137.279 L 153.731 136.847 L 154.083 136.400 L 154.436 135.937 L 154.788 135.460 L 155.141 134.968 L 155.493 134.462 L 155.846 133.940 L 156.198 133.403 L 156.551 132.852 L 156.903 132.285 L 157.255 131.704 L 157.608 131.107 L 157.960 130.496 L 158.313 129.870 L 158.665 129.229 L 159.018 128.573 L 159.370 127.902 L 159.723 127.217 L 160.075 126.516 L 160.428 125.800 L 160.780 125.070 L 161.133 124.325 L 161.485 123.564 L 161.837 122.789 L 162.190 121.999 L 162.542 121.194 L 162.895 120.374 L 163.247 119.539 L 163.600 118.690 L 163.952 117.825 L 164.305 116.945 L 164.657 116.051 L 165.010 115.142 L 165.362 114.217 L 165.715 113.278 L 166.067 112.324 L 166.419 111.355 L 166.772 110.371 L 167.124 109.373 L 167.477 108.359 L 167.829 107.330 L 168.182 106.287 L 168.534 105.228 L 168.887 104.155 L 169.239 103.067 L 169.592 101.964 L 169.944 100.846 L 170.297 99.713 L 170.649 98.565 L 171.001 97.402 L 171.354 96.224 L 171.706 95.032 L 172.059 93.824 L 172.411 92.602 L 172.764 91.364 L 173.116 90.112 L 173.469 88.845 L 173.821 87.563 L 174.174 86.266 L 174.526 84.954 L 174.878 83.628 L 175.231 82.286 L 175.583 80.929 L 175.936 79.558 L 176.288 78.171 L 176.641 76.770 L 176.993 75.354 L 177.346 73.923 L 177.698 72.477 L 178.051 71.016 L 178.403 69.540 L 178.756 68.049 L 179.108 66.544 L 179.460 65.023 L 179.813 63.488 L 180.165 61.937 L 180.518 60.372 L 180.870 58.792 L 181.223 57.197 L 181.575 55.587 L 181.928 53.962 L 182.280 52.322 L 182.633 50.667 L 182.985 48.998 L 183.338 47.313 L 183.690 45.614 L 184.042 43.899 L 184.395 42.170 L 184.747 40.426 L 185.100 38.667 L 185.452 36.893 L 185.805 35.104 L 186.157 33.300 L 186.510 31.482 L 186.862 29.648 L 187.215 27.800 L 187.567 25.936 L 187.920 24.058 L 188.272 22.165 L 188.624 20.256 L 188.977 18.333" />
  </g>

  <!-- точки на параболе (радиус 2.2) -->
  <circle cx="126.667" cy="126.667" r="2.2" fill="#2d70b3" />
  <circle cx="160.000" cy="126.667" r="2.2" fill="#2d70b3" />
  <circle cx="143.333" cy="143.333" r="2.2" fill="#2d70b3" />

  <!-- подпись f(x) -->
  <text x="120" y="90"
        font-family="Georgia, 'Times New Roman', serif"
        font-style="italic"
        font-size="13"
        fill="#2d70b3">
    f(x)
  </text>

</svg>
