<svg xmlns="http://www.w3.org/2000/svg" width="220" height="220" viewBox="0 0 220 220">

  <rect x="0" y="0" width="220" height="220" fill="white" />

  <defs>
    <!-- стрелка для осей -->
    <marker id="axis-arrow"
            viewBox="0 0 15 8"
            refX="13" refY="4"
            markerWidth="12" markerHeight="6.4"
            orient="auto"
            markerUnits="userSpaceOnUse">
      <path d="M 3 0 L 15 4 L 3 8 L 7 4 Z"
            fill="black" />
    </marker>
  </defs>

  <!-- тонкая клетчатая сетка 10×10, без окаймления по периметру -->
  <g stroke="#d1d5db" stroke-width="0.5" shape-rendering="crispEdges">
    <!-- вертикальные линии: только внутренние -->
    <line x1="30"  y1="10" x2="30"  y2="210" />
    <line x1="50"  y1="10" x2="50"  y2="210" />
    <line x1="70"  y1="10" x2="70"  y2="210" />
    <line x1="90"  y1="10" x2="90"  y2="210" />
    <line x1="110" y1="10" x2="110" y2="210" />
    <line x1="130" y1="10" x2="130" y2="210" />
    <line x1="150" y1="10" x2="150" y2="210" />
    <line x1="170" y1="10" x2="170" y2="210" />
    <line x1="190" y1="10" x2="190" y2="210" />

    <!-- горизонтальные линии: только внутренние -->
    <line x1="10" y1="30"  x2="210" y2="30"  />
    <line x1="10" y1="50"  x2="210" y2="50"  />
    <line x1="10" y1="70"  x2="210" y2="70"  />
    <line x1="10" y1="90"  x2="210" y2="90"  />
    <line x1="10" y1="110" x2="210" y2="110" />
    <line x1="10" y1="130" x2="210" y2="130" />
    <line x1="10" y1="150" x2="210" y2="150" />
    <line x1="10" y1="170" x2="210" y2="170" />
    <line x1="10" y1="190" x2="210" y2="190" />
  </g>

  <!-- оси x и y -->
  <g stroke="#111827" stroke-width="1.25">
    <line x1="10" y1="150" x2="210" y2="150"
          marker-end="url(#axis-arrow)" />
    <line x1="70" y1="210" x2="70" y2="10"
          marker-end="url(#axis-arrow)" />
  </g>

  <!-- подписи осей и делений -->
  <g font-family="sans-serif" font-size="11" fill="#111827">
    <text x="66" y="163" text-anchor="end"
          font-size="13" font-style="italic"
          font-family="Georgia, 'Times New Roman', serif">O</text>

    <rect x="87" y="153" width="7" height="12" fill="white" />
    <text x="90" y="164" text-anchor="middle" font-size="13"
          font-family="'Times New Roman', serif"
          font-weight="300">1</text>

    <text x="63" y="134" text-anchor="end" font-size="13"
          font-family="'Times New Roman', serif"
          font-weight="300">1</text>

    <text x="206" y="163" text-anchor="start"
          font-family="Georgia, 'Times New Roman', serif"
          font-style="italic" font-size="13">x</text>

    <text x="67" y="13" text-anchor="end"
          font-family="Georgia, 'Times New Roman', serif"
          font-style="italic" font-size="13">y</text>
  </g>

  <!-- парабола y = (5/8)(x-2)(x-4), обрезана сверху на y<=6.5 -->
  <g stroke="#2d70b3" stroke-width="1.25" fill="none"
     stroke-linecap="round" stroke-linejoin="round">
    <path d="M 62.472 20.000 L 63.322 23.562 L 64.171 27.080 L 65.020 30.552 L 65.870 33.979 L 66.719 37.361 L 67.569 40.698 L 68.418 43.990 L 69.267 47.236 L 70.117 50.438 L 70.966 53.594 L 71.816 56.706 L 72.665 59.772 L 73.515 62.793 L 74.364 65.770 L 75.213 68.701 L 76.063 71.587 L 76.912 74.427 L 77.762 77.223 L 78.611 79.974 L 79.460 82.679 L 80.310 85.340 L 81.159 87.955 L 82.009 90.526 L 82.858 93.051 L 83.707 95.531 L 84.557 97.966 L 85.406 100.356 L 86.256 102.701 L 87.105 105.001 L 87.954 107.255 L 88.804 109.465 L 89.653 111.629 L 90.503 113.749 L 91.352 115.823 L 92.201 117.852 L 93.051 119.836 L 93.900 121.775 L 94.750 123.669 L 95.599 125.518 L 96.448 127.322 L 97.298 129.080 L 98.147 130.794 L 98.997 132.462 L 99.846 134.086 L 100.695 135.664 L 101.545 137.197 L 102.394 138.685 L 103.244 140.128 L 104.093 141.526 L 104.943 142.879 L 105.792 144.187 L 106.641 145.449 L 107.491 146.667 L 108.340 147.839 L 109.190 148.966 L 110.039 150.049 L 110.888 151.086 L 111.738 152.078 L 112.587 153.025 L 113.437 153.927 L 114.286 154.783 L 115.135 155.595 L 115.985 156.362 L 116.834 157.083 L 117.684 157.760 L 118.533 158.391 L 119.382 158.977 L 120.232 159.518 L 121.081 160.014 L 121.931 160.465 L 122.780 160.871 L 123.629 161.232 L 124.479 161.547 L 125.328 161.818 L 126.178 162.043 L 127.027 162.224 L 127.876 162.359 L 128.726 162.449 L 129.575 162.494 L 130.425 162.494 L 131.274 162.449 L 132.124 162.359 L 132.973 162.224 L 133.822 162.043 L 134.672 161.818 L 135.521 161.547 L 136.371 161.232 L 137.220 160.871 L 138.069 160.465 L 138.919 160.014 L 139.768 159.518 L 140.618 158.977 L 141.467 158.391 L 142.316 157.760 L 143.166 157.083 L 144.015 156.362 L 144.865 155.595 L 145.714 154.783 L 146.563 153.927 L 147.413 153.025 L 148.262 152.078 L 149.112 151.086 L 149.961 150.049 L 150.810 148.966 L 151.660 147.839 L 152.509 146.667 L 153.359 145.449 L 154.208 144.187 L 155.057 142.879 L 155.907 141.526 L 156.756 140.128 L 157.606 138.685 L 158.455 137.197 L 159.305 135.664 L 160.154 134.086 L 161.003 132.462 L 161.853 130.794 L 162.702 129.080 L 163.552 127.322 L 164.401 125.518 L 165.250 123.669 L 166.100 121.775 L 166.949 119.836 L 167.799 117.852 L 168.648 115.823 L 169.497 113.749 L 170.347 111.629 L 171.196 109.465 L 172.046 107.255 L 172.895 105.001 L 173.744 102.701 L 174.594 100.356 L 175.443 97.966 L 176.293 95.531 L 177.142 93.051 L 177.991 90.526 L 178.841 87.955 L 179.690 85.340 L 180.540 82.679 L 181.389 79.974 L 182.238 77.223 L 183.088 74.427 L 183.937 71.587 L 184.787 68.701 L 185.636 65.770 L 186.485 62.793 L 187.335 59.772 L 188.184 56.706 L 189.034 53.594 L 189.883 50.438 L 190.733 47.236 L 191.582 43.990 L 192.431 40.698 L 193.281 37.361 L 194.130 33.979 L 194.980 30.552 L 195.829 27.080 L 196.678 23.562 L 197.528 20.000" />
  </g>

  <!-- точки на параболе (радиус 2.2) -->
  <circle cx="70.000" cy="50.000" r="2.2" fill="#2d70b3" />
  <circle cx="110.000" cy="150.000" r="2.2" fill="#2d70b3" />
  <circle cx="150.000" cy="150.000" r="2.2" fill="#2d70b3" />

  <!-- подпись f(x) -->
  <text x="94" y="90"
        font-family="Georgia, 'Times New Roman', serif"
        font-style="italic"
        font-size="13"
        fill="#2d70b3">
    f(x)
  </text>

</svg>
