<svg xmlns="http://www.w3.org/2000/svg" width="300" height="260" viewBox="0 0 300 260">

  <rect x="0" y="0" width="300" height="260" fill="white" />

  <defs>
    <!-- стрелка для осей -->
    <marker id="axis-arrow"
            viewBox="0 0 15 8"
            refX="13" refY="4"
            markerWidth="12" markerHeight="6.4"
            orient="auto"
            markerUnits="userSpaceOnUse">
      <path d="M 3 0 L 15 4 L 3 8 L 7 4 Z"
            fill="black" />
    </marker>
  </defs>

  <!-- клетчатая сетка: x от -7 до 7, y от -5 до 7 (клетка 20px, квадратная) -->
  <g stroke="#d1d5db" stroke-width="0.5" shape-rendering="crispEdges">
    <!-- вертикальные линии: только внутренние -->
    <line x1="30.000" y1="10.000" x2="30.000" y2="250.000" />
    <line x1="50.000" y1="10.000" x2="50.000" y2="250.000" />
    <line x1="70.000" y1="10.000" x2="70.000" y2="250.000" />
    <line x1="90.000" y1="10.000" x2="90.000" y2="250.000" />
    <line x1="110.000" y1="10.000" x2="110.000" y2="250.000" />
    <line x1="130.000" y1="10.000" x2="130.000" y2="250.000" />
    <line x1="150.000" y1="10.000" x2="150.000" y2="250.000" />
    <line x1="170.000" y1="10.000" x2="170.000" y2="250.000" />
    <line x1="190.000" y1="10.000" x2="190.000" y2="250.000" />
    <line x1="210.000" y1="10.000" x2="210.000" y2="250.000" />
    <line x1="230.000" y1="10.000" x2="230.000" y2="250.000" />
    <line x1="250.000" y1="10.000" x2="250.000" y2="250.000" />
    <line x1="270.000" y1="10.000" x2="270.000" y2="250.000" />
    <!-- горизонтальные линии: только внутренние -->
    <line x1="10.000" y1="30.000" x2="290.000" y2="30.000" />
    <line x1="10.000" y1="50.000" x2="290.000" y2="50.000" />
    <line x1="10.000" y1="70.000" x2="290.000" y2="70.000" />
    <line x1="10.000" y1="90.000" x2="290.000" y2="90.000" />
    <line x1="10.000" y1="110.000" x2="290.000" y2="110.000" />
    <line x1="10.000" y1="130.000" x2="290.000" y2="130.000" />
    <line x1="10.000" y1="150.000" x2="290.000" y2="150.000" />
    <line x1="10.000" y1="170.000" x2="290.000" y2="170.000" />
    <line x1="10.000" y1="190.000" x2="290.000" y2="190.000" />
    <line x1="10.000" y1="210.000" x2="290.000" y2="210.000" />
    <line x1="10.000" y1="230.000" x2="290.000" y2="230.000" />
  </g>

  <!-- оси x и y -->
  <g stroke="#111827" stroke-width="1.25">
    <line x1="10.000" y1="150.000" x2="290.000" y2="150.000"
          marker-end="url(#axis-arrow)" />
    <line x1="150.000" y1="250.000" x2="150.000" y2="10.000"
          marker-end="url(#axis-arrow)" />
  </g>

  <!-- подписи осей и делений -->
  <g font-family="sans-serif" font-size="11" fill="#111827">
    <text x="146.000" y="163.000" text-anchor="end"
          font-size="13" font-style="italic"
          font-family="Georgia, 'Times New Roman', serif">O</text>

    <rect x="166.500" y="153.000" width="7" height="12" fill="white" />
    <text x="170.000" y="164.000" text-anchor="middle" font-size="13"
          font-family="'Times New Roman', serif"
          font-weight="300">1</text>

    <text x="143.000" y="134.000" text-anchor="end" font-size="13"
          font-family="'Times New Roman', serif"
          font-weight="300">1</text>

    <text x="286.000" y="163.000" text-anchor="start"
          font-family="Georgia, 'Times New Roman', serif"
          font-style="italic" font-size="13">x</text>

    <text x="147.000" y="13.000" text-anchor="end"
          font-family="Georgia, 'Times New Roman', serif"
          font-style="italic" font-size="13">y</text>
  </g>

  <!-- парабола через (-3;0), (2;0), (0;-2), обрезана сверху на y<=6.5 -->
  <g stroke="#2d70b3" stroke-width="1.25" fill="none"
     stroke-linecap="round" stroke-linejoin="round">
    <path d="M 48.769 20.000 L 48.999 21.889 L 49.228 23.767 L 49.458 25.635 L 49.688 27.492 L 49.917 29.339 L 50.147 31.175 L 50.377 33.001 L 50.607 34.816 L 50.836 36.620 L 51.066 38.414 L 51.296 40.197 L 51.525 41.970 L 51.755 43.732 L 51.985 45.484 L 52.214 47.225 L 52.444 48.956 L 52.674 50.676 L 52.904 52.385 L 53.133 54.084 L 53.363 55.773 L 53.593 57.450 L 53.822 59.118 L 54.052 60.774 L 54.282 62.421 L 54.511 64.056 L 54.741 65.681 L 54.971 67.296 L 55.201 68.900 L 55.430 70.493 L 55.660 72.076 L 55.890 73.648 L 56.119 75.210 L 56.349 76.761 L 56.579 78.302 L 56.808 79.832 L 57.038 81.351 L 57.268 82.860 L 57.498 84.359 L 57.727 85.847 L 57.957 87.324 L 58.187 88.791 L 58.416 90.247 L 58.646 91.693 L 58.876 93.128 L 59.105 94.552 L 59.335 95.967 L 59.565 97.370 L 59.795 98.763 L 60.024 100.145 L 60.254 101.517 L 60.484 102.878 L 60.713 104.229 L 60.943 105.569 L 61.173 106.899 L 61.402 108.218 L 61.632 109.526 L 61.862 110.824 L 62.092 112.112 L 62.321 113.388 L 62.551 114.655 L 62.781 115.910 L 63.010 117.156 L 63.240 118.390 L 63.470 119.614 L 63.699 120.828 L 63.929 122.031 L 64.159 123.223 L 64.389 124.405 L 64.618 125.576 L 64.848 126.737 L 65.078 127.887 L 65.307 129.027 L 65.537 130.156 L 65.767 131.275 L 65.996 132.383 L 66.226 133.480 L 66.456 134.567 L 66.686 135.643 L 66.915 136.709 L 67.145 137.764 L 67.375 138.809 L 67.604 139.843 L 67.834 140.867 L 68.064 141.880 L 68.293 142.882 L 68.523 143.874 L 68.753 144.856 L 68.982 145.826 L 69.212 146.787 L 69.442 147.736 L 69.672 148.676 L 69.901 149.604 L 70.131 150.522 L 70.361 151.430 L 70.590 152.327 L 70.820 153.213 L 71.050 154.089 L 71.279 154.954 L 71.509 155.809 L 71.739 156.653 L 71.969 157.487 L 72.198 158.310 L 72.428 159.122 L 72.658 159.924 L 72.887 160.716 L 73.117 161.497 L 73.347 162.267 L 73.576 163.027 L 73.806 163.776 L 74.036 164.515 L 74.266 165.243 L 74.495 165.960 L 74.725 166.667 L 74.955 167.364 L 75.184 168.050 L 75.414 168.725 L 75.644 169.390 L 75.873 170.044 L 76.103 170.688 L 76.333 171.321 L 76.563 171.944 L 76.792 172.556 L 77.022 173.157 L 77.252 173.748 L 77.481 174.328 L 77.711 174.898 L 77.941 175.458 L 78.170 176.006 L 78.400 176.544 L 78.630 177.072 L 78.860 177.589 L 79.089 178.096 L 79.319 178.592 L 79.549 179.077 L 79.778 179.552 L 80.008 180.016 L 80.238 180.470 L 80.467 180.913 L 80.697 181.346 L 80.927 181.768 L 81.157 182.179 L 81.386 182.580 L 81.616 182.971 L 81.846 183.351 L 82.075 183.720 L 82.305 184.079 L 82.535 184.427 L 82.764 184.765 L 82.994 185.092 L 83.224 185.408 L 83.454 185.714 L 83.683 186.010 L 83.913 186.295 L 84.143 186.569 L 84.372 186.833 L 84.602 187.086 L 84.832 187.329 L 85.061 187.561 L 85.291 187.783 L 85.521 187.994 L 85.751 188.194 L 85.980 188.384 L 86.210 188.564 L 86.440 188.732 L 86.669 188.891 L 86.899 189.038 L 87.129 189.176 L 87.358 189.302 L 87.588 189.418 L 87.818 189.524 L 88.048 189.619 L 88.277 189.703 L 88.507 189.777 L 88.737 189.840 L 88.966 189.893 L 89.196 189.935 L 89.426 189.967 L 89.655 189.988 L 89.885 189.999 L 90.115 189.999 L 90.345 189.988 L 90.574 189.967 L 90.804 189.935 L 91.034 189.893 L 91.263 189.840 L 91.493 189.777 L 91.723 189.703 L 91.952 189.619 L 92.182 189.524 L 92.412 189.418 L 92.642 189.302 L 92.871 189.176 L 93.101 189.038 L 93.331 188.891 L 93.560 188.732 L 93.790 188.564 L 94.020 188.384 L 94.249 188.194 L 94.479 187.994 L 94.709 187.783 L 94.939 187.561 L 95.168 187.329 L 95.398 187.086 L 95.628 186.833 L 95.857 186.569 L 96.087 186.295 L 96.317 186.010 L 96.546 185.714 L 96.776 185.408 L 97.006 185.092 L 97.236 184.765 L 97.465 184.427 L 97.695 184.079 L 97.925 183.720 L 98.154 183.351 L 98.384 182.971 L 98.614 182.580 L 98.843 182.179 L 99.073 181.768 L 99.303 181.346 L 99.533 180.913 L 99.762 180.470 L 99.992 180.016 L 100.222 179.552 L 100.451 179.077 L 100.681 178.592 L 100.911 178.096 L 101.140 177.589 L 101.370 177.072 L 101.600 176.544 L 101.830 176.006 L 102.059 175.458 L 102.289 174.898 L 102.519 174.328 L 102.748 173.748 L 102.978 173.157 L 103.208 172.556 L 103.437 171.944 L 103.667 171.321 L 103.897 170.688 L 104.127 170.044 L 104.356 169.390 L 104.586 168.725 L 104.816 168.050 L 105.045 167.364 L 105.275 166.667 L 105.505 165.960 L 105.734 165.243 L 105.964 164.515 L 106.194 163.776 L 106.424 163.027 L 106.653 162.267 L 106.883 161.497 L 107.113 160.716 L 107.342 159.924 L 107.572 159.122 L 107.802 158.310 L 108.031 157.487 L 108.261 156.653 L 108.491 155.809 L 108.721 154.954 L 108.950 154.089 L 109.180 153.213 L 109.410 152.327 L 109.639 151.430 L 109.869 150.522 L 110.099 149.604 L 110.328 148.676 L 110.558 147.736 L 110.788 146.787 L 111.018 145.826 L 111.247 144.856 L 111.477 143.874 L 111.707 142.882 L 111.936 141.880 L 112.166 140.867 L 112.396 139.843 L 112.625 138.809 L 112.855 137.764 L 113.085 136.709 L 113.314 135.643 L 113.544 134.567 L 113.774 133.480 L 114.004 132.383 L 114.233 131.275 L 114.463 130.156 L 114.693 129.027 L 114.922 127.887 L 115.152 126.737 L 115.382 125.576 L 115.611 124.405 L 115.841 123.223 L 116.071 122.031 L 116.301 120.828 L 116.530 119.614 L 116.760 118.390 L 116.990 117.156 L 117.219 115.910 L 117.449 114.655 L 117.679 113.388 L 117.908 112.112 L 118.138 110.824 L 118.368 109.526 L 118.598 108.218 L 118.827 106.899 L 119.057 105.569 L 119.287 104.229 L 119.516 102.878 L 119.746 101.517 L 119.976 100.145 L 120.205 98.763 L 120.435 97.370 L 120.665 95.967 L 120.895 94.552 L 121.124 93.128 L 121.354 91.693 L 121.584 90.247 L 121.813 88.791 L 122.043 87.324 L 122.273 85.847 L 122.502 84.359 L 122.732 82.860 L 122.962 81.351 L 123.192 79.832 L 123.421 78.302 L 123.651 76.761 L 123.881 75.210 L 124.110 73.648 L 124.340 72.076 L 124.570 70.493 L 124.799 68.900 L 125.029 67.296 L 125.259 65.681 L 125.489 64.056 L 125.718 62.421 L 125.948 60.774 L 126.178 59.118 L 126.407 57.450 L 126.637 55.773 L 126.867 54.084 L 127.096 52.385 L 127.326 50.676 L 127.556 48.956 L 127.786 47.225 L 128.015 45.484 L 128.245 43.732 L 128.475 41.970 L 128.704 40.197 L 128.934 38.414 L 129.164 36.620 L 129.393 34.816 L 129.623 33.001 L 129.853 31.175 L 130.083 29.339 L 130.312 27.492 L 130.542 25.635 L 130.772 23.767 L 131.001 21.889 L 131.231 20.000" />
  </g>

  <!-- точки на параболе (радиус 2.2) -->
  <circle cx="70.000" cy="150.000" r="2.2" fill="#2d70b3" />
  <circle cx="110.000" cy="150.000" r="2.2" fill="#2d70b3" />
  <circle cx="90.000" cy="190.000" r="2.2" fill="#2d70b3" />

  <!-- подпись f(x) -->
  <text x="70.000" y="110.000"
        font-family="Georgia, 'Times New Roman', serif"
        font-style="italic"
        font-size="13"
        fill="#2d70b3">
    f(x)
  </text>

</svg>
