<svg xmlns="http://www.w3.org/2000/svg" width="220" height="220" viewBox="0 0 220 220">

  <rect x="0" y="0" width="220" height="220" fill="white" />

  <defs>
    <!-- стрелка для осей -->
    <marker id="axis-arrow"
            viewBox="0 0 15 8"
            refX="13" refY="4"
            markerWidth="12" markerHeight="6.4"
            orient="auto"
            markerUnits="userSpaceOnUse">
      <path d="M 3 0 L 15 4 L 3 8 L 7 4 Z"
            fill="black" />
    </marker>
  </defs>

  <!-- клетчатая сетка: x от -5 до 7, y от -5 до 7 -->
  <g stroke="#d1d5db" stroke-width="0.5" shape-rendering="crispEdges">
    <!-- вертикальные линии: только внутренние -->
    <line x1="26.667" y1="10.000" x2="26.667" y2="210.000" />
    <line x1="43.333" y1="10.000" x2="43.333" y2="210.000" />
    <line x1="60.000" y1="10.000" x2="60.000" y2="210.000" />
    <line x1="76.667" y1="10.000" x2="76.667" y2="210.000" />
    <line x1="93.333" y1="10.000" x2="93.333" y2="210.000" />
    <line x1="110.000" y1="10.000" x2="110.000" y2="210.000" />
    <line x1="126.667" y1="10.000" x2="126.667" y2="210.000" />
    <line x1="143.333" y1="10.000" x2="143.333" y2="210.000" />
    <line x1="160.000" y1="10.000" x2="160.000" y2="210.000" />
    <line x1="176.667" y1="10.000" x2="176.667" y2="210.000" />
    <line x1="193.333" y1="10.000" x2="193.333" y2="210.000" />
    <!-- горизонтальные линии: только внутренние -->
    <line x1="10.000" y1="26.667" x2="210.000" y2="26.667" />
    <line x1="10.000" y1="43.333" x2="210.000" y2="43.333" />
    <line x1="10.000" y1="60.000" x2="210.000" y2="60.000" />
    <line x1="10.000" y1="76.667" x2="210.000" y2="76.667" />
    <line x1="10.000" y1="93.333" x2="210.000" y2="93.333" />
    <line x1="10.000" y1="110.000" x2="210.000" y2="110.000" />
    <line x1="10.000" y1="126.667" x2="210.000" y2="126.667" />
    <line x1="10.000" y1="143.333" x2="210.000" y2="143.333" />
    <line x1="10.000" y1="160.000" x2="210.000" y2="160.000" />
    <line x1="10.000" y1="176.667" x2="210.000" y2="176.667" />
    <line x1="10.000" y1="193.333" x2="210.000" y2="193.333" />
  </g>

  <!-- оси x и y -->
  <g stroke="#111827" stroke-width="1.25">
    <line x1="10.000" y1="126.667" x2="210.000" y2="126.667"
          marker-end="url(#axis-arrow)" />
    <line x1="93.333" y1="210.000" x2="93.333" y2="10.000"
          marker-end="url(#axis-arrow)" />
  </g>

  <!-- подписи осей и делений -->
  <g font-family="sans-serif" font-size="11" fill="#111827">
    <text x="89.333" y="139.667" text-anchor="end"
          font-size="13" font-style="italic"
          font-family="Georgia, 'Times New Roman', serif">O</text>

    <rect x="106.500" y="129.667" width="7" height="12" fill="white" />
    <text x="110.000" y="140.667" text-anchor="middle" font-size="13"
          font-family="'Times New Roman', serif"
          font-weight="300">1</text>

    <text x="86.333" y="114.000" text-anchor="end" font-size="13"
          font-family="'Times New Roman', serif"
          font-weight="300">1</text>

    <text x="206" y="139.667" text-anchor="start"
          font-family="Georgia, 'Times New Roman', serif"
          font-style="italic" font-size="13">x</text>

    <text x="90.333" y="13" text-anchor="end"
          font-family="Georgia, 'Times New Roman', serif"
          font-style="italic" font-size="13">y</text>
  </g>

  <!-- парабола y = 2(x-2)(x-4), обрезана сверху на y<=6.5 -->
  <g stroke="#2d70b3" stroke-width="1.25" fill="none"
     stroke-linecap="round" stroke-linejoin="round">
    <path d="M 108.974 18.333 L 109.239 20.513 L 109.505 22.675 L 109.770 24.821 L 110.035 26.950 L 110.301 29.062 L 110.566 31.157 L 110.831 33.235 L 111.097 35.296 L 111.362 37.340 L 111.627 39.368 L 111.893 41.378 L 112.158 43.372 L 112.423 45.348 L 112.689 47.308 L 112.954 49.251 L 113.219 51.177 L 113.485 53.086 L 113.750 54.979 L 114.015 56.854 L 114.281 58.712 L 114.546 60.554 L 114.811 62.379 L 115.077 64.186 L 115.342 65.977 L 115.607 67.751 L 115.872 69.508 L 116.138 71.248 L 116.403 72.972 L 116.668 74.678 L 116.934 76.368 L 117.199 78.040 L 117.464 79.696 L 117.730 81.335 L 117.995 82.957 L 118.260 84.562 L 118.526 86.150 L 118.791 87.721 L 119.056 89.275 L 119.322 90.813 L 119.587 92.333 L 119.852 93.837 L 120.118 95.324 L 120.383 96.794 L 120.648 98.247 L 120.914 99.683 L 121.179 101.102 L 121.444 102.504 L 121.710 103.890 L 121.975 105.258 L 122.240 106.610 L 122.506 107.944 L 122.771 109.262 L 123.036 110.563 L 123.302 111.847 L 123.567 113.114 L 123.832 114.364 L 124.097 115.598 L 124.363 116.814 L 124.628 118.014 L 124.893 119.196 L 125.159 120.362 L 125.424 121.511 L 125.689 122.643 L 125.955 123.758 L 126.220 124.856 L 126.485 125.938 L 126.751 127.002 L 127.016 128.049 L 127.281 129.080 L 127.547 130.094 L 127.812 131.091 L 128.077 132.070 L 128.343 133.033 L 128.608 133.980 L 128.873 134.909 L 129.139 135.821 L 129.404 136.717 L 129.669 137.595 L 129.935 138.457 L 130.200 139.302 L 130.465 140.129 L 130.731 140.940 L 130.996 141.734 L 131.261 142.512 L 131.526 143.272 L 131.792 144.015 L 132.057 144.742 L 132.322 145.451 L 132.588 146.144 L 132.853 146.820 L 133.118 147.479 L 133.384 148.121 L 133.649 148.746 L 133.914 149.354 L 134.180 149.945 L 134.445 150.520 L 134.710 151.077 L 134.976 151.618 L 135.241 152.142 L 135.506 152.649 L 135.772 153.139 L 136.037 153.612 L 136.302 154.068 L 136.568 154.507 L 136.833 154.929 L 137.098 155.335 L 137.364 155.723 L 137.629 156.095 L 137.894 156.450 L 138.160 156.788 L 138.425 157.109 L 138.690 157.413 L 138.956 157.700 L 139.221 157.970 L 139.486 158.224 L 139.751 158.460 L 140.017 158.680 L 140.282 158.883 L 140.547 159.069 L 140.813 159.238 L 141.078 159.390 L 141.343 159.525 L 141.609 159.643 L 141.874 159.744 L 142.139 159.829 L 142.405 159.897 L 142.670 159.947 L 142.935 159.981 L 143.201 159.998 L 143.466 159.998 L 143.731 159.981 L 143.997 159.947 L 144.262 159.897 L 144.527 159.829 L 144.793 159.744 L 145.058 159.643 L 145.323 159.525 L 145.589 159.390 L 145.854 159.238 L 146.119 159.069 L 146.385 158.883 L 146.650 158.680 L 146.915 158.460 L 147.181 158.224 L 147.446 157.970 L 147.711 157.700 L 147.976 157.413 L 148.242 157.109 L 148.507 156.788 L 148.772 156.450 L 149.038 156.095 L 149.303 155.723 L 149.568 155.335 L 149.834 154.929 L 150.099 154.507 L 150.364 154.068 L 150.630 153.612 L 150.895 153.139 L 151.160 152.649 L 151.426 152.142 L 151.691 151.618 L 151.956 151.077 L 152.222 150.520 L 152.487 149.945 L 152.752 149.354 L 153.018 148.746 L 153.283 148.121 L 153.548 147.479 L 153.814 146.820 L 154.079 146.144 L 154.344 145.451 L 154.610 144.742 L 154.875 144.015 L 155.140 143.272 L 155.405 142.512 L 155.671 141.734 L 155.936 140.940 L 156.201 140.129 L 156.467 139.302 L 156.732 138.457 L 156.997 137.595 L 157.263 136.717 L 157.528 135.821 L 157.793 134.909 L 158.059 133.980 L 158.324 133.033 L 158.589 132.070 L 158.855 131.091 L 159.120 130.094 L 159.385 129.080 L 159.651 128.049 L 159.916 127.002 L 160.181 125.938 L 160.447 124.856 L 160.712 123.758 L 160.977 122.643 L 161.243 121.511 L 161.508 120.362 L 161.773 119.196 L 162.039 118.014 L 162.304 116.814 L 162.569 115.598 L 162.835 114.364 L 163.100 113.114 L 163.365 111.847 L 163.630 110.563 L 163.896 109.262 L 164.161 107.944 L 164.426 106.610 L 164.692 105.258 L 164.957 103.890 L 165.222 102.504 L 165.488 101.102 L 165.753 99.683 L 166.018 98.247 L 166.284 96.794 L 166.549 95.324 L 166.814 93.837 L 167.080 92.333 L 167.345 90.813 L 167.610 89.275 L 167.876 87.721 L 168.141 86.150 L 168.406 84.562 L 168.672 82.957 L 168.937 81.335 L 169.202 79.696 L 169.468 78.040 L 169.733 76.368 L 169.998 74.678 L 170.264 72.972 L 170.529 71.248 L 170.794 69.508 L 171.059 67.751 L 171.325 65.977 L 171.590 64.186 L 171.855 62.379 L 172.121 60.554 L 172.386 58.712 L 172.651 56.854 L 172.917 54.979 L 173.182 53.086 L 173.447 51.177 L 173.713 49.251 L 173.978 47.308 L 174.243 45.348 L 174.509 43.372 L 174.774 41.378 L 175.039 39.368 L 175.305 37.340 L 175.570 35.296 L 175.835 33.235 L 176.101 31.157 L 176.366 29.062 L 176.631 26.950 L 176.897 24.821 L 177.162 22.675 L 177.427 20.513 L 177.693 18.333" />
  </g>

  <!-- точки на параболе (радиус 2.2) -->
  <circle cx="126.667" cy="126.667" r="2.2" fill="#2d70b3" />
  <circle cx="160.000" cy="126.667" r="2.2" fill="#2d70b3" />
  <circle cx="143.333" cy="160.000" r="2.2" fill="#2d70b3" />

  <!-- подпись f(x) -->
  <text x="125" y="90"
        font-family="Georgia, 'Times New Roman', serif"
        font-style="italic"
        font-size="13"
        fill="#2d70b3">
    f(x)
  </text>

</svg>
