<svg xmlns="http://www.w3.org/2000/svg" width="220" height="220" viewBox="0 0 220 220">

  <rect x="0" y="0" width="220" height="220" fill="white" />

  <defs>
    <!-- стрелка для осей -->
    <marker id="axis-arrow"
            viewBox="0 0 15 8"
            refX="13" refY="4"
            markerWidth="12" markerHeight="6.4"
            orient="auto"
            markerUnits="userSpaceOnUse">
      <path d="M 3 0 L 15 4 L 3 8 L 7 4 Z"
            fill="black" />
    </marker>
  </defs>

  <!-- тонкая клетчатая сетка 10×10, без окаймления по периметру -->
  <g stroke="#d1d5db" stroke-width="0.5" shape-rendering="crispEdges">
    <!-- вертикальные линии: только внутренние -->
    <line x1="30"  y1="10" x2="30"  y2="210" />
    <line x1="50"  y1="10" x2="50"  y2="210" />
    <line x1="70"  y1="10" x2="70"  y2="210" />
    <line x1="90"  y1="10" x2="90"  y2="210" />
    <line x1="110" y1="10" x2="110" y2="210" />
    <line x1="130" y1="10" x2="130" y2="210" />
    <line x1="150" y1="10" x2="150" y2="210" />
    <line x1="170" y1="10" x2="170" y2="210" />
    <line x1="190" y1="10" x2="190" y2="210" />

    <!-- горизонтальные линии: только внутренние -->
    <line x1="10" y1="30"  x2="210" y2="30"  />
    <line x1="10" y1="50"  x2="210" y2="50"  />
    <line x1="10" y1="70"  x2="210" y2="70"  />
    <line x1="10" y1="90"  x2="210" y2="90"  />
    <line x1="10" y1="110" x2="210" y2="110" />
    <line x1="10" y1="130" x2="210" y2="130" />
    <line x1="10" y1="150" x2="210" y2="150" />
    <line x1="10" y1="170" x2="210" y2="170" />
    <line x1="10" y1="190" x2="210" y2="190" />
  </g>

  <!-- оси x и y -->
  <g stroke="#111827" stroke-width="1.25">
    <line x1="10" y1="150" x2="210" y2="150"
          marker-end="url(#axis-arrow)" />
    <line x1="70" y1="210" x2="70" y2="10"
          marker-end="url(#axis-arrow)" />
  </g>

  <!-- подписи осей и делений -->
  <g font-family="sans-serif" font-size="11" fill="#111827">
    <text x="66" y="163" text-anchor="end"
          font-size="13" font-style="italic"
          font-family="Georgia, 'Times New Roman', serif">O</text>

    <rect x="87" y="153" width="7" height="12" fill="white" />
    <text x="90" y="164" text-anchor="middle" font-size="13"
          font-family="'Times New Roman', serif"
          font-weight="300">1</text>

    <text x="63" y="134" text-anchor="end" font-size="13"
          font-family="'Times New Roman', serif"
          font-weight="300">1</text>

    <text x="206" y="163" text-anchor="start"
          font-family="Georgia, 'Times New Roman', serif"
          font-style="italic" font-size="13">x</text>

    <text x="67" y="13" text-anchor="end"
          font-family="Georgia, 'Times New Roman', serif"
          font-style="italic" font-size="13">y</text>
  </g>

  <!-- парабола y = 1.5(x-1)(x-2), цвет #2d70b3 -->
  <g stroke="#2d70b3" stroke-width="1.25" fill="none"
     stroke-linecap="round" stroke-linejoin="round">
    <path d="M 55.653 10.000 L 56.467 15.363 L 57.280 20.627 L 58.094 25.792 L 58.908 30.857 L 59.721 35.823 L 60.535 40.689 L 61.349 45.457 L 62.163 50.125 L 62.976 54.693 L 63.790 59.163 L 64.604 63.533 L 65.417 67.803 L 66.231 71.975 L 67.045 76.047 L 67.859 80.019 L 68.672 83.893 L 69.486 87.667 L 70.300 91.342 L 71.113 94.917 L 71.927 98.393 L 72.741 101.770 L 73.554 105.048 L 74.368 108.226 L 75.182 111.305 L 75.996 114.284 L 76.809 117.164 L 77.623 119.945 L 78.437 122.627 L 79.250 125.209 L 80.064 127.692 L 80.878 130.076 L 81.692 132.360 L 82.505 134.545 L 83.319 136.631 L 84.133 138.617 L 84.946 140.504 L 85.760 142.292 L 86.574 143.980 L 87.388 145.569 L 88.201 147.059 L 89.015 148.450 L 89.829 149.741 L 90.642 150.933 L 91.456 152.025 L 92.270 153.018 L 93.083 153.912 L 93.897 154.707 L 94.711 155.402 L 95.525 155.998 L 96.338 156.494 L 97.152 156.892 L 97.966 157.190 L 98.779 157.388 L 99.593 157.488 L 100.407 157.488 L 101.221 157.388 L 102.034 157.190 L 102.848 156.892 L 103.662 156.494 L 104.475 155.998 L 105.289 155.402 L 106.103 154.707 L 106.917 153.912 L 107.730 153.018 L 108.544 152.025 L 109.358 150.933 L 110.171 149.741 L 110.985 148.450 L 111.799 147.059 L 112.612 145.569 L 113.426 143.980 L 114.240 142.292 L 115.054 140.504 L 115.867 138.617 L 116.681 136.631 L 117.495 134.545 L 118.308 132.360 L 119.122 130.076 L 119.936 127.692 L 120.750 125.209 L 121.563 122.627 L 122.377 119.945 L 123.191 117.164 L 124.004 114.284 L 124.818 111.305 L 125.632 108.226 L 126.446 105.048 L 127.259 101.770 L 128.073 98.393 L 128.887 94.917 L 129.700 91.342 L 130.514 87.667 L 131.328 83.893 L 132.141 80.019 L 132.955 76.047 L 133.769 71.975 L 134.583 67.803 L 135.396 63.533 L 136.210 59.163 L 137.024 54.693 L 137.837 50.125 L 138.651 45.457 L 139.465 40.689 L 140.279 35.823 L 141.092 30.857 L 141.906 25.792 L 142.720 20.627 L 143.533 15.363 L 144.347 10.000" />
  </g>

  <!-- точки на параболе (радиус 2.2) -->
  <circle cx="70.000" cy="90.000" r="2.2" fill="#2d70b3" />
  <circle cx="90.000" cy="150.000" r="2.2" fill="#2d70b3" />
  <circle cx="110.000" cy="150.000" r="2.2" fill="#2d70b3" />

  <!-- подпись f(x) -->
  <text x="142" y="90"
        font-family="Georgia, 'Times New Roman', serif"
        font-style="italic"
        font-size="13"
        fill="#2d70b3">
    f(x)
  </text>

</svg>
