<svg xmlns="http://www.w3.org/2000/svg" width="300" height="260" viewBox="0 0 300 260">

  <rect x="0" y="0" width="300" height="260" fill="white" />

  <defs>
    <!-- стрелка для осей -->
    <marker id="axis-arrow"
            viewBox="0 0 15 8"
            refX="13" refY="4"
            markerWidth="12" markerHeight="6.4"
            orient="auto"
            markerUnits="userSpaceOnUse">
      <path d="M 3 0 L 15 4 L 3 8 L 7 4 Z"
            fill="black" />
    </marker>
  </defs>

  <!-- клетчатая сетка: x от -7 до 7, y от -5 до 7 (клетка 20px, квадратная) -->
  <g stroke="#d1d5db" stroke-width="0.5" shape-rendering="crispEdges">
    <!-- вертикальные линии: только внутренние -->
    <line x1="30.000" y1="10.000" x2="30.000" y2="250.000" />
    <line x1="50.000" y1="10.000" x2="50.000" y2="250.000" />
    <line x1="70.000" y1="10.000" x2="70.000" y2="250.000" />
    <line x1="90.000" y1="10.000" x2="90.000" y2="250.000" />
    <line x1="110.000" y1="10.000" x2="110.000" y2="250.000" />
    <line x1="130.000" y1="10.000" x2="130.000" y2="250.000" />
    <line x1="150.000" y1="10.000" x2="150.000" y2="250.000" />
    <line x1="170.000" y1="10.000" x2="170.000" y2="250.000" />
    <line x1="190.000" y1="10.000" x2="190.000" y2="250.000" />
    <line x1="210.000" y1="10.000" x2="210.000" y2="250.000" />
    <line x1="230.000" y1="10.000" x2="230.000" y2="250.000" />
    <line x1="250.000" y1="10.000" x2="250.000" y2="250.000" />
    <line x1="270.000" y1="10.000" x2="270.000" y2="250.000" />
    <!-- горизонтальные линии: только внутренние -->
    <line x1="10.000" y1="30.000" x2="290.000" y2="30.000" />
    <line x1="10.000" y1="50.000" x2="290.000" y2="50.000" />
    <line x1="10.000" y1="70.000" x2="290.000" y2="70.000" />
    <line x1="10.000" y1="90.000" x2="290.000" y2="90.000" />
    <line x1="10.000" y1="110.000" x2="290.000" y2="110.000" />
    <line x1="10.000" y1="130.000" x2="290.000" y2="130.000" />
    <line x1="10.000" y1="150.000" x2="290.000" y2="150.000" />
    <line x1="10.000" y1="170.000" x2="290.000" y2="170.000" />
    <line x1="10.000" y1="190.000" x2="290.000" y2="190.000" />
    <line x1="10.000" y1="210.000" x2="290.000" y2="210.000" />
    <line x1="10.000" y1="230.000" x2="290.000" y2="230.000" />
  </g>

  <!-- оси x и y -->
  <g stroke="#111827" stroke-width="1.25">
    <line x1="10.000" y1="150.000" x2="290.000" y2="150.000"
          marker-end="url(#axis-arrow)" />
    <line x1="150.000" y1="250.000" x2="150.000" y2="10.000"
          marker-end="url(#axis-arrow)" />
  </g>

  <!-- подписи осей и делений -->
  <g font-family="sans-serif" font-size="11" fill="#111827">
    <text x="146.000" y="163.000" text-anchor="end"
          font-size="13" font-style="italic"
          font-family="Georgia, 'Times New Roman', serif">O</text>

    <rect x="166.500" y="153.000" width="7" height="12" fill="white" />
    <text x="170.000" y="164.000" text-anchor="middle" font-size="13"
          font-family="'Times New Roman', serif"
          font-weight="300">1</text>

    <text x="143.000" y="134.000" text-anchor="end" font-size="13"
          font-family="'Times New Roman', serif"
          font-weight="300">1</text>

    <text x="286.000" y="163.000" text-anchor="start"
          font-family="Georgia, 'Times New Roman', serif"
          font-style="italic" font-size="13">x</text>

    <text x="147.000" y="13.000" text-anchor="end"
          font-family="Georgia, 'Times New Roman', serif"
          font-style="italic" font-size="13">y</text>
  </g>

  <!-- парабола через (-3;0), (2;0), (0;-2), обрезана сверху на y<=6.5 -->
  <g stroke="#2d70b3" stroke-width="1.25" fill="none"
     stroke-linecap="round" stroke-linejoin="round">
    <path d="M 52.250 20.000 L 52.739 22.139 L 53.228 24.266 L 53.717 26.381 L 54.206 28.484 L 54.695 30.575 L 55.183 32.654 L 55.672 34.721 L 56.161 36.776 L 56.650 38.820 L 57.139 40.851 L 57.628 42.870 L 58.117 44.878 L 58.605 46.873 L 59.094 48.857 L 59.583 50.828 L 60.072 52.788 L 60.561 54.736 L 61.050 56.672 L 61.539 58.595 L 62.027 60.507 L 62.516 62.407 L 63.005 64.295 L 63.494 66.171 L 63.983 68.035 L 64.472 69.887 L 64.961 71.727 L 65.449 73.555 L 65.938 75.372 L 66.427 77.176 L 66.916 78.968 L 67.405 80.749 L 67.894 82.517 L 68.383 84.274 L 68.871 86.018 L 69.360 87.751 L 69.849 89.472 L 70.338 91.180 L 70.827 92.877 L 71.316 94.562 L 71.805 96.235 L 72.293 97.896 L 72.782 99.545 L 73.271 101.182 L 73.760 102.807 L 74.249 104.420 L 74.738 106.021 L 75.227 107.610 L 75.715 109.187 L 76.204 110.753 L 76.693 112.306 L 77.182 113.848 L 77.671 115.377 L 78.160 116.894 L 78.649 118.400 L 79.137 119.894 L 79.626 121.375 L 80.115 122.845 L 80.604 124.303 L 81.093 125.749 L 81.582 127.183 L 82.071 128.605 L 82.559 130.015 L 83.048 131.413 L 83.537 132.799 L 84.026 134.173 L 84.515 135.535 L 85.004 136.885 L 85.493 138.223 L 85.981 139.550 L 86.470 140.864 L 86.959 142.167 L 87.448 143.457 L 87.937 144.736 L 88.426 146.002 L 88.915 147.257 L 89.403 148.500 L 89.892 149.730 L 90.381 150.949 L 90.870 152.156 L 91.359 153.351 L 91.848 154.534 L 92.337 155.705 L 92.825 156.864 L 93.314 158.011 L 93.803 159.146 L 94.292 160.269 L 94.781 161.381 L 95.270 162.480 L 95.759 163.567 L 96.247 164.643 L 96.736 165.706 L 97.225 166.758 L 97.714 167.797 L 98.203 168.825 L 98.692 169.841 L 99.181 170.844 L 99.669 171.836 L 100.158 172.816 L 100.647 173.784 L 101.136 174.740 L 101.625 175.684 L 102.114 176.616 L 102.603 177.536 L 103.091 178.444 L 103.580 179.340 L 104.069 180.224 L 104.558 181.097 L 105.047 181.957 L 105.536 182.805 L 106.025 183.642 L 106.513 184.466 L 107.002 185.279 L 107.491 186.079 L 107.980 186.868 L 108.469 187.645 L 108.958 188.409 L 109.447 189.162 L 109.935 189.903 L 110.424 190.632 L 110.913 191.349 L 111.402 192.054 L 111.891 192.747 L 112.380 193.428 L 112.868 194.097 L 113.357 194.754 L 113.846 195.399 L 114.335 196.033 L 114.824 196.654 L 115.313 197.264 L 115.802 197.861 L 116.290 198.446 L 116.779 199.020 L 117.268 199.582 L 117.757 200.131 L 118.246 200.669 L 118.735 201.195 L 119.224 201.709 L 119.712 202.210 L 120.201 202.700 L 120.690 203.178 L 121.179 203.644 L 121.668 204.098 L 122.157 204.540 L 122.646 204.971 L 123.134 205.389 L 123.623 205.795 L 124.112 206.189 L 124.601 206.572 L 125.090 206.942 L 125.579 207.301 L 126.068 207.647 L 126.556 207.982 L 127.045 208.304 L 127.534 208.615 L 128.023 208.914 L 128.512 209.201 L 129.001 209.475 L 129.490 209.738 L 129.978 209.989 L 130.467 210.228 L 130.956 210.455 L 131.445 210.670 L 131.934 210.873 L 132.423 211.065 L 132.912 211.244 L 133.400 211.411 L 133.889 211.566 L 134.378 211.710 L 134.867 211.841 L 135.356 211.961 L 135.845 212.068 L 136.334 212.164 L 136.822 212.248 L 137.311 212.319 L 137.800 212.379 L 138.289 212.427 L 138.778 212.463 L 139.267 212.487 L 139.756 212.499 L 140.244 212.499 L 140.733 212.487 L 141.222 212.463 L 141.711 212.427 L 142.200 212.379 L 142.689 212.319 L 143.178 212.248 L 143.666 212.164 L 144.155 212.068 L 144.644 211.961 L 145.133 211.841 L 145.622 211.710 L 146.111 211.566 L 146.600 211.411 L 147.088 211.244 L 147.577 211.065 L 148.066 210.873 L 148.555 210.670 L 149.044 210.455 L 149.533 210.228 L 150.022 209.989 L 150.510 209.738 L 150.999 209.475 L 151.488 209.201 L 151.977 208.914 L 152.466 208.615 L 152.955 208.304 L 153.444 207.982 L 153.932 207.647 L 154.421 207.301 L 154.910 206.942 L 155.399 206.572 L 155.888 206.189 L 156.377 205.795 L 156.866 205.389 L 157.354 204.971 L 157.843 204.540 L 158.332 204.098 L 158.821 203.644 L 159.310 203.178 L 159.799 202.700 L 160.288 202.210 L 160.776 201.709 L 161.265 201.195 L 161.754 200.669 L 162.243 200.131 L 162.732 199.582 L 163.221 199.020 L 163.710 198.446 L 164.198 197.861 L 164.687 197.264 L 165.176 196.654 L 165.665 196.033 L 166.154 195.399 L 166.643 194.754 L 167.132 194.097 L 167.620 193.428 L 168.109 192.747 L 168.598 192.054 L 169.087 191.349 L 169.576 190.632 L 170.065 189.903 L 170.553 189.162 L 171.042 188.409 L 171.531 187.645 L 172.020 186.868 L 172.509 186.079 L 172.998 185.279 L 173.487 184.466 L 173.975 183.642 L 174.464 182.805 L 174.953 181.957 L 175.442 181.097 L 175.931 180.224 L 176.420 179.340 L 176.909 178.444 L 177.397 177.536 L 177.886 176.616 L 178.375 175.684 L 178.864 174.740 L 179.353 173.784 L 179.842 172.816 L 180.331 171.836 L 180.819 170.844 L 181.308 169.841 L 181.797 168.825 L 182.286 167.797 L 182.775 166.758 L 183.264 165.706 L 183.753 164.643 L 184.241 163.567 L 184.730 162.480 L 185.219 161.381 L 185.708 160.269 L 186.197 159.146 L 186.686 158.011 L 187.175 156.864 L 187.663 155.705 L 188.152 154.534 L 188.641 153.351 L 189.130 152.156 L 189.619 150.949 L 190.108 149.730 L 190.597 148.500 L 191.085 147.257 L 191.574 146.002 L 192.063 144.736 L 192.552 143.457 L 193.041 142.167 L 193.530 140.864 L 194.019 139.550 L 194.507 138.223 L 194.996 136.885 L 195.485 135.535 L 195.974 134.173 L 196.463 132.799 L 196.952 131.413 L 197.441 130.015 L 197.929 128.605 L 198.418 127.183 L 198.907 125.749 L 199.396 124.303 L 199.885 122.845 L 200.374 121.375 L 200.863 119.894 L 201.351 118.400 L 201.840 116.894 L 202.329 115.377 L 202.818 113.848 L 203.307 112.306 L 203.796 110.753 L 204.285 109.187 L 204.773 107.610 L 205.262 106.021 L 205.751 104.420 L 206.240 102.807 L 206.729 101.182 L 207.218 99.545 L 207.707 97.896 L 208.195 96.235 L 208.684 94.562 L 209.173 92.877 L 209.662 91.180 L 210.151 89.472 L 210.640 87.751 L 211.129 86.018 L 211.617 84.274 L 212.106 82.517 L 212.595 80.749 L 213.084 78.968 L 213.573 77.176 L 214.062 75.372 L 214.551 73.555 L 215.039 71.727 L 215.528 69.887 L 216.017 68.035 L 216.506 66.171 L 216.995 64.295 L 217.484 62.407 L 217.973 60.507 L 218.461 58.595 L 218.950 56.672 L 219.439 54.736 L 219.928 52.788 L 220.417 50.828 L 220.906 48.857 L 221.395 46.873 L 221.883 44.878 L 222.372 42.870 L 222.861 40.851 L 223.350 38.820 L 223.839 36.776 L 224.328 34.721 L 224.817 32.654 L 225.305 30.575 L 225.794 28.484 L 226.283 26.381 L 226.772 24.266 L 227.261 22.139 L 227.750 20.000" />
  </g>

  <!-- точки на параболе (радиус 2.2) -->
  <circle cx="90.000" cy="150.000" r="2.2" fill="#2d70b3" />
  <circle cx="190.000" cy="150.000" r="2.2" fill="#2d70b3" />
  <circle cx="150.000" cy="210.000" r="2.2" fill="#2d70b3" />

  <!-- подпись f(x) -->
  <text x="230.000" y="90.000"
        font-family="Georgia, 'Times New Roman', serif"
        font-style="italic"
        font-size="13"
        fill="#2d70b3">
    f(x)
  </text>

</svg>
