<svg xmlns="http://www.w3.org/2000/svg" width="470" height="470" viewBox="0 0 470 470"><rect width="470" height="470" fill="#fff"/><line x1="47.0" y1="235.0" x2="423.0" y2="235.0" stroke="#0a0000" stroke-width="2.5"/><line x1="235.0" y1="423.0" x2="235.0" y2="47.0" stroke="#0a0000" stroke-width="2.5"/><polygon points="423.0,235.0 413.0,230.0 413.0,240.0" fill="#0a0000" stroke="#0a0000" stroke-width="2.5" stroke-linejoin="round"/><polygon points="235.0,47.0 230.0,57.0 240.0,57.0" fill="#0a0000" stroke="#0a0000" stroke-width="2.5" stroke-linejoin="round"/><circle cx="235.0" cy="235.0" r="160" fill="none" stroke="#000000" stroke-width="2.5"/><circle cx="235.0" cy="235.0" r="2.5" fill="#0a0000"/><text x="407.0" y="222.0" font-size="19" font-style="italic" fill="#444444" stroke="#444444" stroke-width="0.6" paint-order="stroke">cos x</text><text x="246.0" y="58.0" font-size="19" font-style="italic" fill="#444444" stroke="#444444" stroke-width="0.6" paint-order="stroke">sin x</text><polyline points="75.0,235.0 75.3,244.4 76.1,253.8 77.5,263.1 79.4,272.4 81.9,281.4 84.9,290.4 88.4,299.1 92.4,307.6 97.0,315.9 102.0,323.9 107.4,331.6 113.3,338.9 119.7,345.9 126.4,352.5 133.5,358.7 141.0,364.4 148.7,369.8 156.8,374.6 165.2,379.0 173.8,382.8 182.6,386.2 191.6,389.0 200.7,391.3 210.0,393.0 219.3,394.2 228.7,394.9 238.1,395.0 247.6,394.5 256.9,393.5 266.2,391.9 275.4,389.8 284.4,387.2 293.3,384.0 302.0,380.3 310.4,376.1 318.6,371.4 326.5,366.3 334.1,360.7 341.3,354.6 348.1,348.1 354.6,341.3 360.7,334.1 366.3,326.5 371.4,318.6 376.1,310.4 380.3,302.0 384.0,293.3 387.2,284.4 389.8,275.4 391.9,266.2 393.5,256.9 394.5,247.6 395.0,238.1 394.9,228.7 394.2,219.3 393.0,210.0 391.3,200.7 389.0,191.6 386.2,182.6 382.8,173.8 379.0,165.2 374.6,156.8 369.8,148.7 364.4,141.0 358.7,133.5 352.5,126.4 345.9,119.7 338.9,113.3 331.6,107.4 323.9,102.0 315.9,97.0 307.6,92.4 299.1,88.4 290.4,84.9 281.4,81.9 272.4,79.4 263.1,77.5 253.8,76.1 244.4,75.3 235.0,75.0" fill="none" stroke="#4f78c9" stroke-width="3.5" stroke-linecap="round"/><circle cx="75.0" cy="235.0" r="5" fill="#4f78c9"/><text x="63.0" y="216.0" font-size="17" fill="#4f78c9" stroke="#4f78c9" stroke-width="0.4" paint-order="stroke" text-anchor="end" dominant-baseline="middle">− 5π</text><circle cx="235.0" cy="75.0" r="5" fill="#4f78c9"/><text x="181.7" y="52.0" font-size="17" fill="#4f78c9" stroke="#4f78c9" stroke-width="0.4" paint-order="stroke" text-anchor="end" dominant-baseline="middle">−</text><text x="200.6" y="41.8" font-size="17" fill="#4f78c9" stroke="#4f78c9" stroke-width="0.4" paint-order="stroke" text-anchor="middle" dominant-baseline="middle">7π</text><line x1="187.7" y1="52.0" x2="213.5" y2="52.0" stroke="#4f78c9" stroke-width="1.2"/><text x="200.6" y="64.6" font-size="17" fill="#4f78c9" stroke="#4f78c9" stroke-width="0.4" paint-order="stroke" text-anchor="middle" dominant-baseline="middle">2</text><circle cx="235.0" cy="395.0" r="3.5" fill="#333333"/><text x="250.5" y="418.0" font-size="17" fill="#333333" stroke="#333333" stroke-width="0.4" paint-order="stroke" text-anchor="end" dominant-baseline="middle">−</text><text x="269.4" y="407.8" font-size="17" fill="#333333" stroke="#333333" stroke-width="0.4" paint-order="stroke" text-anchor="middle" dominant-baseline="middle">9π</text><line x1="256.5" y1="418.0" x2="282.3" y2="418.0" stroke="#333333" stroke-width="1.2"/><text x="269.4" y="430.6" font-size="17" fill="#333333" stroke="#333333" stroke-width="0.4" paint-order="stroke" text-anchor="middle" dominant-baseline="middle">2</text><circle cx="395.0" cy="235.0" r="3.5" fill="#333333"/><text x="407.0" y="254.0" font-size="17" fill="#333333" stroke="#333333" stroke-width="0.4" paint-order="stroke" text-anchor="start" dominant-baseline="middle">− 4π</text><line x1="229.5" y1="389.5" x2="240.5" y2="400.5" stroke="#c40808" stroke-width="3.6" stroke-linecap="round"/><line x1="229.5" y1="400.5" x2="240.5" y2="389.5" stroke="#c40808" stroke-width="3.6" stroke-linecap="round"/><text x="223.0" y="419.0" font-size="17" fill="#c40808" stroke="#c40808" stroke-width="0.4" paint-order="stroke" text-anchor="end" dominant-baseline="middle">x₁</text><line x1="389.5" y1="229.5" x2="400.5" y2="240.5" stroke="#c40808" stroke-width="3.6" stroke-linecap="round"/><line x1="389.5" y1="240.5" x2="400.5" y2="229.5" stroke="#c40808" stroke-width="3.6" stroke-linecap="round"/><text x="383.0" y="219.0" font-size="17" fill="#c40808" stroke="#c40808" stroke-width="0.4" paint-order="stroke" text-anchor="end" dominant-baseline="middle">x₂</text></svg>