<svg xmlns="http://www.w3.org/2000/svg" width="470" height="470" viewBox="0 0 470 470"><rect width="470" height="470" fill="#fff"/><line x1="47.0" y1="235.0" x2="423.0" y2="235.0" stroke="#0a0000" stroke-width="2.5"/><line x1="235.0" y1="423.0" x2="235.0" y2="47.0" stroke="#0a0000" stroke-width="2.5"/><polygon points="423.0,235.0 413.0,230.0 413.0,240.0" fill="#0a0000" stroke="#0a0000" stroke-width="2.5" stroke-linejoin="round"/><polygon points="235.0,47.0 230.0,57.0 240.0,57.0" fill="#0a0000" stroke="#0a0000" stroke-width="2.5" stroke-linejoin="round"/><circle cx="235.0" cy="235.0" r="160" fill="none" stroke="#000000" stroke-width="2.5"/><circle cx="235.0" cy="235.0" r="2.5" fill="#0a0000"/><text x="407.0" y="222.0" font-size="19" font-style="italic" fill="#444444" stroke="#444444" stroke-width="0.6" paint-order="stroke">cos x</text><text x="246.0" y="58.0" font-size="19" font-style="italic" fill="#444444" stroke="#444444" stroke-width="0.6" paint-order="stroke">sin x</text><polyline points="235.0,395.0 244.4,394.7 253.8,393.9 263.1,392.5 272.4,390.6 281.4,388.1 290.4,385.1 299.1,381.6 307.6,377.6 315.9,373.0 323.9,368.0 331.6,362.6 338.9,356.7 345.9,350.3 352.5,343.6 358.7,336.5 364.4,329.0 369.8,321.3 374.6,313.2 379.0,304.8 382.8,296.2 386.2,287.4 389.0,278.4 391.3,269.3 393.0,260.0 394.2,250.7 394.9,241.3 395.0,231.9 394.5,222.4 393.5,213.1 391.9,203.8 389.8,194.6 387.2,185.6 384.0,176.7 380.3,168.0 376.1,159.6 371.4,151.4 366.3,143.5 360.7,135.9 354.6,128.7 348.1,121.9 341.3,115.4 334.1,109.3 326.5,103.7 318.6,98.6 310.4,93.9 302.0,89.7 293.3,86.0 284.4,82.8 275.4,80.2 266.2,78.1 256.9,76.5 247.6,75.5 238.1,75.0 228.7,75.1 219.3,75.8 210.0,77.0 200.7,78.7 191.6,81.0 182.6,83.8 173.8,87.2 165.2,91.0 156.8,95.4 148.7,100.2 141.0,105.6 133.5,111.3 126.4,117.5 119.7,124.1 113.3,131.1 107.4,138.4 102.0,146.1 97.0,154.1 92.4,162.4 88.4,170.9 84.9,179.6 81.9,188.6 79.4,197.6 77.5,206.9 76.1,216.2 75.3,225.6 75.0,235.0" fill="none" stroke="#4f78c9" stroke-width="3.5" stroke-linecap="round"/><circle cx="235.0" cy="395.0" r="5" fill="#4f78c9"/><text x="250.5" y="418.0" font-size="17" fill="#4f78c9" stroke="#4f78c9" stroke-width="0.4" paint-order="stroke" text-anchor="end" dominant-baseline="middle">−</text><text x="269.4" y="407.8" font-size="17" fill="#4f78c9" stroke="#4f78c9" stroke-width="0.4" paint-order="stroke" text-anchor="middle" dominant-baseline="middle">9π</text><line x1="256.5" y1="418.0" x2="282.3" y2="418.0" stroke="#4f78c9" stroke-width="1.2"/><text x="269.4" y="430.6" font-size="17" fill="#4f78c9" stroke="#4f78c9" stroke-width="0.4" paint-order="stroke" text-anchor="middle" dominant-baseline="middle">2</text><circle cx="75.0" cy="235.0" r="5" fill="#4f78c9"/><text x="63.0" y="216.0" font-size="17" fill="#4f78c9" stroke="#4f78c9" stroke-width="0.4" paint-order="stroke" text-anchor="end" dominant-baseline="middle">− 3π</text><circle cx="395.0" cy="235.0" r="3.5" fill="#333333"/><text x="407.0" y="254.0" font-size="17" fill="#333333" stroke="#333333" stroke-width="0.4" paint-order="stroke" text-anchor="start" dominant-baseline="middle">− 4π</text><line x1="368.1" y1="149.5" x2="379.1" y2="160.5" stroke="#c40808" stroke-width="3.6" stroke-linecap="round"/><line x1="368.1" y1="160.5" x2="379.1" y2="149.5" stroke="#c40808" stroke-width="3.6" stroke-linecap="round"/><text x="399.5" y="140.0" font-size="17" fill="#c40808" stroke="#c40808" stroke-width="0.4" paint-order="stroke" text-anchor="middle" dominant-baseline="middle">x₁</text><line x1="90.9" y1="149.5" x2="101.9" y2="160.5" stroke="#c40808" stroke-width="3.6" stroke-linecap="round"/><line x1="90.9" y1="160.5" x2="101.9" y2="149.5" stroke="#c40808" stroke-width="3.6" stroke-linecap="round"/><text x="70.5" y="140.0" font-size="17" fill="#c40808" stroke="#c40808" stroke-width="0.4" paint-order="stroke" text-anchor="middle" dominant-baseline="middle">x₂</text></svg>