<svg xmlns="http://www.w3.org/2000/svg" width="470" height="470" viewBox="0 0 470 470"><rect width="470" height="470" fill="#fff"/><line x1="47.0" y1="235.0" x2="423.0" y2="235.0" stroke="#0a0000" stroke-width="2.5"/><line x1="235.0" y1="423.0" x2="235.0" y2="47.0" stroke="#0a0000" stroke-width="2.5"/><polygon points="423.0,235.0 413.0,230.0 413.0,240.0" fill="#0a0000" stroke="#0a0000" stroke-width="2.5" stroke-linejoin="round"/><polygon points="235.0,47.0 230.0,57.0 240.0,57.0" fill="#0a0000" stroke="#0a0000" stroke-width="2.5" stroke-linejoin="round"/><circle cx="235.0" cy="235.0" r="160" fill="none" stroke="#000000" stroke-width="2.5"/><circle cx="235.0" cy="235.0" r="2.5" fill="#0a0000"/><text x="407.0" y="222.0" font-size="19" font-style="italic" fill="#444444" stroke="#444444" stroke-width="0.6" paint-order="stroke">cos x</text><text x="246.0" y="58.0" font-size="19" font-style="italic" fill="#444444" stroke="#444444" stroke-width="0.6" paint-order="stroke">sin x</text><polyline points="235.0,75.0 225.6,75.3 216.2,76.1 206.9,77.5 197.6,79.4 188.6,81.9 179.6,84.9 170.9,88.4 162.4,92.4 154.1,97.0 146.1,102.0 138.4,107.4 131.1,113.3 124.1,119.7 117.5,126.4 111.3,133.5 105.6,141.0 100.2,148.7 95.4,156.8 91.0,165.2 87.2,173.8 83.8,182.6 81.0,191.6 78.7,200.7 77.0,210.0 75.8,219.3 75.1,228.7 75.0,238.1 75.5,247.6 76.5,256.9 78.1,266.2 80.2,275.4 82.8,284.4 86.0,293.3 89.7,302.0 93.9,310.4 98.6,318.6 103.7,326.5 109.3,334.1 115.4,341.3 121.9,348.1 128.7,354.6 135.9,360.7 143.5,366.3 151.4,371.4 159.6,376.1 168.0,380.3 176.7,384.0 185.6,387.2 194.6,389.8 203.8,391.9 213.1,393.5 222.4,394.5 231.9,395.0 241.3,394.9 250.7,394.2 260.0,393.0 269.3,391.3 278.4,389.0 287.4,386.2 296.2,382.8 304.8,379.0 313.2,374.6 321.3,369.8 329.0,364.4 336.5,358.7 343.6,352.5 350.3,345.9 356.7,338.9 362.6,331.6 368.0,323.9 373.0,315.9 377.6,307.6 381.6,299.1 385.1,290.4 388.1,281.4 390.6,272.4 392.5,263.1 393.9,253.8 394.7,244.4 395.0,235.0" fill="none" stroke="#4f78c9" stroke-width="3.5" stroke-linecap="round"/><circle cx="235.0" cy="75.0" r="5" fill="#4f78c9"/><text x="170.8" y="52.0" font-size="17" fill="#4f78c9" stroke="#4f78c9" stroke-width="0.4" paint-order="stroke" text-anchor="end" dominant-baseline="middle">−</text><text x="195.1" y="41.8" font-size="17" fill="#4f78c9" stroke="#4f78c9" stroke-width="0.4" paint-order="stroke" text-anchor="middle" dominant-baseline="middle">11π</text><line x1="176.8" y1="52.0" x2="213.5" y2="52.0" stroke="#4f78c9" stroke-width="1.2"/><text x="195.1" y="64.6" font-size="17" fill="#4f78c9" stroke="#4f78c9" stroke-width="0.4" paint-order="stroke" text-anchor="middle" dominant-baseline="middle">2</text><circle cx="395.0" cy="235.0" r="5" fill="#4f78c9"/><text x="407.0" y="254.0" font-size="17" fill="#4f78c9" stroke="#4f78c9" stroke-width="0.4" paint-order="stroke" text-anchor="start" dominant-baseline="middle">− 4π</text><circle cx="75.0" cy="235.0" r="3.5" fill="#333333"/><text x="63.0" y="216.0" font-size="17" fill="#333333" stroke="#333333" stroke-width="0.4" paint-order="stroke" text-anchor="end" dominant-baseline="middle">− 5π</text><line x1="229.5" y1="69.5" x2="240.5" y2="80.5" stroke="#c40808" stroke-width="3.6" stroke-linecap="round"/><line x1="229.5" y1="80.5" x2="240.5" y2="69.5" stroke="#c40808" stroke-width="3.6" stroke-linecap="round"/><text x="247.0" y="92.0" font-size="17" fill="#c40808" stroke="#c40808" stroke-width="0.4" paint-order="stroke" text-anchor="start" dominant-baseline="middle">x₁</text><line x1="69.5" y1="229.5" x2="80.5" y2="240.5" stroke="#c40808" stroke-width="3.6" stroke-linecap="round"/><line x1="69.5" y1="240.5" x2="80.5" y2="229.5" stroke="#c40808" stroke-width="3.6" stroke-linecap="round"/><text x="63.0" y="255.0" font-size="17" fill="#c40808" stroke="#c40808" stroke-width="0.4" paint-order="stroke" text-anchor="end" dominant-baseline="middle">x₂</text><line x1="389.5" y1="229.5" x2="400.5" y2="240.5" stroke="#c40808" stroke-width="3.6" stroke-linecap="round"/><line x1="389.5" y1="240.5" x2="400.5" y2="229.5" stroke="#c40808" stroke-width="3.6" stroke-linecap="round"/><text x="383.0" y="219.0" font-size="17" fill="#c40808" stroke="#c40808" stroke-width="0.4" paint-order="stroke" text-anchor="end" dominant-baseline="middle">x₃</text></svg>