<svg xmlns="http://www.w3.org/2000/svg" width="220" height="220" viewBox="0 0 220 220">
  <rect x="0" y="0" width="220" height="220" fill="white" />

  <defs>
    <marker id="axis-arrow"
            viewBox="0 0 15 8"
            refX="13" refY="4"
            markerWidth="12" markerHeight="6.4"
            orient="auto"
            markerUnits="userSpaceOnUse">
      <path d="M 3 0 L 15 4 L 3 8 L 7 4 Z" fill="black" />
    </marker>
  </defs>

  <!-- сетка: x от -2 до 7, y от -5 до 5 -->
  <g stroke="#d1d5db" stroke-width="0.5" shape-rendering="crispEdges">
    <line x1="30"  y1="10" x2="30"  y2="210" />
    <line x1="50"  y1="10" x2="50"  y2="210" />
    <line x1="70"  y1="10" x2="70"  y2="210" />
    <line x1="90"  y1="10" x2="90"  y2="210" />
    <line x1="110" y1="10" x2="110" y2="210" />
    <line x1="130" y1="10" x2="130" y2="210" />
    <line x1="150" y1="10" x2="150"  y2="210" />
    <line x1="170" y1="10" x2="170" y2="210" />

    <line x1="10" y1="30"  x2="190" y2="30"  />
    <line x1="10" y1="50"  x2="190" y2="50"  />
    <line x1="10" y1="70"  x2="190" y2="70"  />
    <line x1="10" y1="90"  x2="190" y2="90"  />
    <line x1="10" y1="110" x2="190" y2="110" />
    <line x1="10" y1="130" x2="190" y2="130" />
    <line x1="10" y1="150" x2="190" y2="150" />
    <line x1="10" y1="170" x2="190" y2="170" />
    <line x1="10" y1="190" x2="190" y2="190" />
  </g>

  <!-- оси -->
  <g stroke="#111827" stroke-width="1.25">
    <line x1="10" y1="110" x2="190" y2="110" />
    <line x1="50" y1="210" x2="50" y2="10" marker-end="url(#axis-arrow)" />
  </g>

  <!-- подписи осей и делений -->
  <g font-family="sans-serif" font-size="11" fill="#111827">
    <text x="46" y="123" text-anchor="end"
          font-size="13" font-style="italic"
          font-family="Georgia, 'Times New Roman', serif">O</text>

    <rect x="67" y="113" width="7" height="12" fill="white" />
    <text x="70" y="124" text-anchor="middle" font-size="13"
          font-family="'Times New Roman', serif"
          font-weight="300">1</text>

    <text x="43" y="94" text-anchor="end" font-size="13"
          font-family="'Times New Roman', serif"
          font-weight="300">1</text>

    <text x="186" y="123" text-anchor="start"
          font-family="Georgia, 'Times New Roman', serif"
          font-style="italic" font-size="13">x</text>

    <text x="47" y="13" text-anchor="end"
          font-family="Georgia, 'Times New Roman', serif"
          font-style="italic" font-size="13">y</text>
  </g>

  <!-- интерполяция (PCHIP) по точкам -->
  <g stroke="#2d70b3" stroke-width="1.25" fill="none"
     stroke-linecap="round" stroke-linejoin="round">
    <polyline points="
      50.039,200.000
      50.225,174.743
      50.411,166.054
      50.597,160.669
      50.783,156.756
      50.969,153.674
      51.155,151.149
      51.341,148.987
      51.526,147.121
      51.712,145.459
      51.898,143.968
      52.084,142.627
      52.270,141.394
      52.456,140.253
      52.642,139.199
      52.828,138.223
      53.014,137.307
      53.200,136.441
      53.386,135.623
      53.572,134.849
      53.758,134.118
      53.943,133.427
      54.129,132.764
      54.315,132.128
      54.501,131.517
      54.687,130.930
      54.873,130.367
      55.059,129.827
      55.245,129.307
      55.431,128.809
      55.617,128.325
      55.803,127.856
      55.989,127.400
      56.175,126.958
      56.360,126.528
      56.546,126.110
      56.732,125.705
      56.918,125.311
      57.104,124.929
      57.290,124.557
      57.476,124.197
      57.662,123.845
      57.848,123.500
      58.034,123.163
      58.220,122.832
      58.406,122.509
      58.592,122.192
      58.777,121.881
      58.963,121.578
      59.149,121.280
      59.335,120.989
      59.521,120.704
      59.707,120.425
      59.893,120.151
      60.079,119.884
      60.265,119.622
      60.451,119.365
      60.637,119.112
      60.823,118.863
      61.009,118.618
      61.195,118.376
      61.380,118.138
      61.566,117.904
      61.752,117.673
      61.938,117.446
      62.124,117.222
      62.310,117.001
      62.496,116.784
      62.682,116.570
      62.868,116.359
      63.054,116.152
      63.240,115.947
      63.426,115.746
      63.612,115.548
      63.797,115.352
      63.983,115.160
      64.169,114.970
      64.355,114.784
      64.541,114.600
      64.727,114.418
      64.913,114.238
      65.099,114.060
      65.285,113.884
      65.471,113.710
      65.657,113.538
      65.843,113.368
      66.029,113.200
      66.214,113.034
      66.400,112.870
      66.586,112.707
      66.772,112.546
      66.958,112.387
      67.144,112.229
      67.330,112.073
      67.516,111.919
      67.702,111.767
      67.888,111.616
      68.074,111.466
      68.260,111.318
      68.446,111.172
      68.631,111.027
      68.817,110.883
      69.003,110.741
      69.189,110.600
      69.375,110.460
      69.561,110.322
      69.747,110.185
      69.933,110.049
      70.119,109.914
      70.305,109.781
      70.491,109.649
      70.677,109.518
      70.863,109.388
      71.048,109.260
      71.234,109.133
      71.420,109.007
      71.606,108.882
      71.792,108.759
      71.978,108.636
      72.164,108.515
      72.350,108.395
      72.536,108.275
      72.722,108.157
      72.908,108.040
      73.094,107.923
      73.280,107.808
      73.465,107.694
      73.651,107.580
      73.837,107.467
      74.023,107.356
      74.209,107.245
      74.395,107.135
      74.581,107.025
      74.767,106.917
      74.953,106.809
      75.139,106.702
      75.325,106.595
      75.511,106.490
      75.697,106.384
      75.883,106.280
      76.068,106.176
      76.254,106.074
      76.440,105.971
      76.626,105.870
      76.812,105.770
      76.998,105.670
      77.184,105.571
      77.370,105.472
      77.556,105.375
      77.742,105.278
      77.928,105.181
      78.114,105.086
      78.300,104.991
      78.485,104.896
      78.671,104.803
      78.857,104.710
      79.043,104.617
      79.229,104.525
      79.415,104.434
      79.601,104.343
      79.787,104.253
      79.973,104.164
      80.159,104.074
      80.345,103.986
      80.531,103.898
      80.717,103.810
      80.902,103.723
      81.088,103.637
      81.274,103.551
      81.460,103.465
      81.646,103.380
      81.832,103.295
      82.018,103.211
      82.204,103.127
      82.390,103.044
      82.576,102.961
      82.762,102.879
      82.948,102.797
      83.134,102.716
      83.319,102.635
      83.505,102.555
      83.691,102.475
      83.877,102.396
      84.063,102.317
      84.249,102.239
      84.435,102.161
      84.621,102.083
      84.807,102.006
      84.993,101.929
      85.179,101.853
      85.365,101.777
      85.551,101.701
      85.736,101.626
      85.922,101.551
      86.108,101.477
      86.294,101.403
      86.480,101.329
      86.666,101.256
      86.852,101.183
      87.038,101.110
      87.224,101.038
      87.410,100.966
      87.596,100.894
      87.782,100.823
      87.968,100.752
      88.153,100.681
      88.339,100.611
      88.525,100.541
      88.711,100.472
      88.897,100.403
      89.083,100.334
      89.269,100.266
      89.455,100.197
      89.641,100.130
      89.827,100.062
      90.013,99.995
      90.199,99.928
      90.385,99.862
      90.571,99.795
      90.756,99.730
      90.942,99.664
      91.128,99.599
      91.314,99.534
      91.500,99.469
      91.686,99.404
      91.872,99.340
      92.058,99.276
      92.244,99.213
      92.430,99.149
      92.616,99.086
      92.802,99.023
      92.988,98.961
      93.173,98.899
      93.359,98.836
      93.545,98.775
      93.731,98.713
      93.917,98.652
      94.103,98.591
      94.289,98.530
      94.475,98.470
      94.661,98.410
      94.847,98.350
      95.033,98.290
      95.219,98.231
      95.405,98.171
      95.590,98.112
      95.776,98.054
      95.962,97.995
      96.148,97.937
      96.334,97.879
      96.520,97.821
      96.706,97.764
      96.892,97.707
      97.078,97.650
      97.264,97.593
      97.450,97.536
      97.636,97.480
      97.822,97.424
      98.007,97.368
      98.193,97.312
      98.379,97.256
      98.565,97.201
      98.751,97.146
      98.937,97.091
      99.123,97.036
      99.309,96.981
      99.495,96.927
      99.681,96.873
      99.867,96.819
      100.053,96.765
      100.239,96.712
      100.424,96.659
      100.610,96.605
      100.796,96.553
      100.982,96.500
      101.168,96.447
      101.354,96.395
      101.540,96.343
      101.726,96.291
      101.912,96.239
      102.098,96.188
      102.284,96.136
      102.470,96.085
      102.656,96.034
      102.842,95.983
      103.027,95.933
      103.213,95.882
      103.399,95.832
      103.585,95.782
      103.771,95.732
      103.957,95.682
      104.143,95.632
      104.329,95.583
      104.515,95.534
      104.701,95.484
      104.887,95.435
      105.073,95.387
      105.259,95.338
      105.444,95.289
      105.630,95.241
      105.816,95.193
      106.002,95.145
      106.188,95.097
      106.374,95.050
      106.560,95.002
      106.746,94.955
      106.932,94.908
      107.118,94.860
      107.304,94.814
      107.490,94.767
      107.676,94.720
      107.861,94.674
      108.047,94.628
      108.233,94.582
      108.419,94.536
      108.605,94.490
      108.791,94.444
      108.977,94.399
      109.163,94.353
      109.349,94.308
      109.535,94.263
      109.721,94.218
      109.907,94.173
      110.093,94.128
      110.278,94.084
      110.464,94.039
      110.650,93.995
      110.836,93.951
      111.022,93.907
      111.208,93.863
      111.394,93.819
      111.580,93.775
      111.766,93.732
      111.952,93.688
      112.138,93.645
      112.324,93.602
      112.510,93.559
      112.695,93.516
      112.881,93.474
      113.067,93.431
      113.253,93.389
      113.439,93.346
      113.625,93.304
      113.811,93.262
      113.997,93.220
      114.183,93.178
      114.369,93.136
      114.555,93.095
      114.741,93.053
      114.927,93.012
      115.112,92.971
      115.298,92.930
      115.484,92.889
      115.670,92.848
      115.856,92.807
      116.042,92.766
      116.228,92.726
      116.414,92.685
      116.600,92.645
      116.786,92.605
      116.972,92.564
      117.158,92.524
      117.344,92.485
      117.530,92.445
      117.715,92.405
      117.901,92.366
      118.087,92.326
      118.273,92.287
      118.459,92.248
      118.645,92.208
      118.831,92.169
      119.017,92.130
      119.203,92.092
      119.389,92.053
      119.575,92.014
      119.761,91.976
      119.947,91.937
      120.132,91.899
      120.318,91.861
      120.504,91.823
      120.690,91.785
      120.876,91.747
      121.062,91.709
      121.248,91.672
      121.434,91.634
      121.620,91.596
      121.806,91.559
      121.992,91.522
      122.178,91.484
      122.364,91.447
      122.549,91.410
      122.735,91.373
      122.921,91.337
      123.107,91.300
      123.293,91.263
      123.479,91.227
      123.665,91.190
      123.851,91.154
      124.037,91.118
      124.223,91.081
      124.409,91.045
      124.595,91.009
      124.781,90.973
      124.966,90.938
      125.152,90.902
      125.338,90.866
      125.524,90.831
      125.710,90.795
      125.896,90.760
      126.082,90.724
      126.268,90.689
      126.454,90.654
      126.640,90.619
      126.826,90.584
      127.012,90.549
      127.198,90.514
      127.383,90.480
      127.569,90.445
      127.755,90.411
      127.941,90.376
      128.127,90.342
      128.313,90.307
      128.499,90.273
      128.685,90.239
      128.871,90.205
      129.057,90.171
      129.243,90.137
      129.429,90.103
      129.615,90.070
      129.800,90.036
      129.986,90.002
      130.172,89.969
      130.358,89.935
      130.544,89.902
      130.730,89.869
      130.916,89.836
      131.102,89.803
      131.288,89.770
      131.474,89.737
      131.660,89.704
      131.846,89.671
      132.032,89.638
      132.218,89.606
      132.403,89.573
      132.589,89.540
      132.775,89.508
      132.961,89.476
      133.147,89.443
      133.333,89.411
      133.519,89.379
      133.705,89.347
      133.891,89.315
      134.077,89.283
      134.263,89.251
      134.449,89.219
      134.635,89.187
      134.820,89.156
      135.006,89.124
      135.192,89.093
      135.378,89.061
      135.564,89.030
      135.750,88.999
      135.936,88.967
      136.122,88.936
      136.308,88.905
      136.494,88.874
      136.680,88.843
      136.866,88.812
      137.052,88.781
      137.237,88.751
      137.423,88.720
      137.609,88.689
      137.795,88.659
      137.981,88.628
      138.167,88.598
      138.353,88.567
      138.539,88.537
      138.725,88.507
      138.911,88.476
      139.097,88.446
      139.283,88.416
      139.469,88.386
      139.654,88.356
      139.840,88.326
      140.026,88.297
      140.212,88.267
      140.398,88.237
      140.584,88.207
      140.770,88.178
      140.956,88.148
      141.142,88.119
      141.328,88.089
      141.514,88.060
      141.700,88.031
      141.886,88.002
      142.071,87.972
      142.257,87.943
      142.443,87.914
      142.629,87.885
      142.815,87.856
      143.001,87.828
      143.187,87.799
      143.373,87.770
      143.559,87.741
      143.745,87.713
      143.931,87.684
      144.117,87.656
      144.303,87.627
      144.488,87.599
      144.674,87.570
      144.860,87.542
      145.046,87.514
      145.232,87.486
      145.418,87.457
      145.604,87.429
      145.790,87.401
      145.976,87.373
      146.162,87.345
      146.348,87.317
      146.534,87.290
      146.720,87.262
      146.906,87.234
      147.091,87.207
      147.277,87.179
      147.463,87.151
      147.649,87.124
      147.835,87.096
      148.021,87.069
      148.207,87.042
      148.393,87.014
      148.579,86.987
      148.765,86.960
      148.951,86.933
      149.137,86.906
      149.323,86.879
      149.508,86.852
      149.694,86.825
      149.880,86.798
      150.066,86.771
      150.252,86.744
      150.438,86.718
      150.624,86.691
      150.810,86.664
      150.996,86.638
      151.182,86.611
      151.368,86.585
      151.554,86.558
      151.740,86.532
      151.925,86.506
      152.111,86.479
      152.297,86.453
      152.483,86.427
      152.669,86.401
      152.855,86.375
      153.041,86.349
      153.227,86.323
      153.413,86.297
      153.599,86.271
      153.785,86.245
      153.971,86.219
      154.157,86.193
      154.342,86.167
      154.528,86.142
      154.714,86.116
      154.900,86.091
      155.086,86.065
      155.272,86.040
      155.458,86.014
      155.644,85.989
      155.830,85.963
      156.016,85.938
      156.202,85.913
      156.388,85.887
      156.574,85.862
      156.759,85.837
      156.945,85.812
      157.131,85.787
      157.317,85.762
      157.503,85.737
      157.689,85.712
      157.875,85.687
      158.061,85.662
      158.247,85.637
      158.433,85.613
      158.619,85.588
      158.805,85.563
      158.991,85.539
      159.177,85.514
      159.362,85.490
      159.548,85.465
      159.734,85.441
      159.920,85.416
      160.106,85.392
      160.292,85.367
      160.478,85.343
      160.664,85.319
      160.850,85.295
      161.036,85.270
      161.222,85.246
      161.408,85.222
      161.594,85.198
      161.779,85.174
      161.965,85.150
      162.151,85.126
      162.337,85.102
      162.523,85.079
      162.709,85.055
      162.895,85.031
      163.081,85.007
      163.267,84.983
      163.453,84.960
      163.639,84.936
      163.825,84.913
      164.011,84.889
      164.196,84.866
      164.382,84.842
      164.568,84.819
      164.754,84.795
      164.940,84.772
      165.126,84.749
      165.312,84.725
      165.498,84.702
      165.684,84.679
      165.870,84.656
      166.056,84.633
      166.242,84.609
      166.428,84.586
      166.613,84.563
      166.799,84.540
      166.985,84.517
      167.171,84.495
      167.357,84.472
      167.543,84.449
      167.729,84.426
      167.915,84.403
      168.101,84.381
      168.287,84.358
      168.473,84.335
      168.659,84.313
      168.845,84.290
      169.030,84.267
      169.216,84.245
      169.402,84.222
      169.588,84.200
      169.774,84.178
      169.960,84.155
      170.146,84.133
      170.332,84.111
      170.518,84.088
      170.704,84.066
      170.890,84.044
      171.076,84.022
      171.262,83.999
      171.447,83.977
      171.633,83.955
      171.819,83.933
      172.005,83.911
      172.191,83.889
      172.377,83.867
      172.563,83.845
      172.749,83.824
      172.935,83.802
      173.121,83.780
      173.307,83.758
      173.493,83.736
      173.679,83.715
      173.865,83.693
      174.050,83.671
      174.236,83.650
      174.422,83.628
      174.608,83.607
      174.794,83.585
      174.980,83.564
      175.166,83.543
      175.352,83.521
      175.538,83.500
      175.724,83.479
      175.910,83.458
      176.096,83.437
      176.282,83.415
      176.467,83.394
      176.653,83.373
      176.839,83.352
      177.025,83.331
      177.211,83.310
      177.397,83.289
      177.583,83.268
      177.769,83.247
      177.955,83.227
      178.141,83.206
      178.327,83.185
      178.513,83.164
      178.699,83.143
      178.884,83.122
      179.070,83.101
      179.256,83.080
      179.442,83.059
      179.628,83.038
      179.814,83.017
      180.000,82.996
    " />
  </g>

  <!-- точка (3;1) -->
  <circle cx="130" cy="90" r="2.2" fill="#2d70b3" stroke="#2d70b3" stroke-width="0.6" />

  <!-- стрелка оси x поверх графика -->
  <g stroke="#111827" stroke-width="1.25">
    <line x1="175" y1="110" x2="190" y2="110" marker-end="url(#axis-arrow)" />
  </g>

  <!-- подпись -->
  <text x="77" y="90"
        font-family="Georgia, 'Times New Roman', serif"
        font-style="italic"
        font-size="13"
        fill="#2d70b3">f(x)</text>
</svg>
