<svg xmlns="http://www.w3.org/2000/svg" width="220" height="220" viewBox="0 0 220 220">
  <rect x="0" y="0" width="220" height="220" fill="white"></rect>

  <defs>
    <marker id="axis-arrow" viewBox="0 0 15 8" refX="13" refY="4" markerWidth="12" markerHeight="6.4" orient="auto" markerUnits="userSpaceOnUse">
      <path d="M 3 0 L 15 4 L 3 8 L 7 4 Z" fill="black"></path>
    </marker>
  </defs>

  <!-- сетка: x от -2 до 7, y от -5 до 5 -->
  <g stroke="#d1d5db" stroke-width="0.5" shape-rendering="crispEdges">
    <line x1="30" y1="10" x2="30" y2="210"></line>
    <line x1="50" y1="10" x2="50" y2="210"></line>
    <line x1="70" y1="10" x2="70" y2="210"></line>
    <line x1="90" y1="10" x2="90" y2="210"></line>
    <line x1="110" y1="10" x2="110" y2="210"></line>
    <line x1="130" y1="10" x2="130" y2="210"></line>
    <line x1="150" y1="10" x2="150" y2="210"></line>
    <line x1="170" y1="10" x2="170" y2="210"></line>

    <line x1="10" y1="30" x2="190" y2="30"></line>
    <line x1="10" y1="50" x2="190" y2="50"></line>
    <line x1="10" y1="70" x2="190" y2="70"></line>
    <line x1="10" y1="90" x2="190" y2="90"></line>
    <line x1="10" y1="110" x2="190" y2="110"></line>
    <line x1="10" y1="130" x2="190" y2="130"></line>
    <line x1="10" y1="150" x2="190" y2="150"></line>
    <line x1="10" y1="170" x2="190" y2="170"></line>
    <line x1="10" y1="190" x2="190" y2="190"></line>
  </g>

  <!-- оси -->
  <g stroke="#111827" stroke-width="1.25">
    <line x1="10" y1="110" x2="190" y2="110"></line>
    <line x1="50" y1="210" x2="50" y2="10" marker-end="url(#axis-arrow)"></line>
  </g>

  <!-- подписи -->
  <g font-family="sans-serif" font-size="11" fill="#111827">
    <text x="46" y="123" text-anchor="end" font-size="13" font-style="italic" font-family="Georgia, 'Times New Roman', serif">O</text>

    <rect x="67" y="113" width="7" height="12" fill="white"></rect>
    <text x="70" y="124" text-anchor="middle" font-size="13" font-family="'Times New Roman', serif" font-weight="300">1</text>

    <text x="43" y="94" text-anchor="end" font-size="13" font-family="'Times New Roman', serif" font-weight="300">1</text>

    <text x="186" y="123" text-anchor="start" font-family="Georgia, 'Times New Roman', serif" font-style="italic" font-size="13">x</text>

    <text x="47" y="13" text-anchor="end" font-family="Georgia, 'Times New Roman', serif" font-style="italic" font-size="13">y</text>
  </g>

  <!-- график (линейная интерполяция: соединение точек отрезками) -->
  <g stroke="#2d70b3" stroke-width="1.25" fill="none" stroke-linecap="round" stroke-linejoin="round">
    <polyline points="
      50.006,20.000
      50.008,22.901
      50.011,25.802
      50.014,28.703
      50.018,31.605
      50.023,34.506
      50.030,37.407
      50.039,40.308
      50.050,43.209
      50.065,46.110
      50.085,49.011
      50.110,51.913
      50.143,54.814
      50.185,57.715
      50.240,60.616
      50.311,63.517
      50.403,66.418
      50.523,69.319
      50.678,72.221
      50.879,75.122
      51.140,78.023
      51.478,80.924
      51.917,83.825
      52.486,86.726
      53.224,89.627
      54.181,92.528
      55.422,95.430
      57.031,98.331
      59.118,101.232
      61.824,104.133
      63.137,105.309
      64.450,106.372
      65.763,107.343
      67.076,108.236
      68.389,109.063
      69.702,109.833
      71.015,110.553
      72.328,111.229
      73.642,111.867
      74.955,112.470
      76.268,113.043
      77.581,113.587
      78.894,114.107
      80.207,114.603
      81.520,115.078
      82.833,115.533
      84.146,115.971
      85.459,116.392
      86.772,116.798
      88.085,117.189
      89.398,117.568
      90.711,117.934
      92.024,118.288
      93.338,118.632
      94.651,118.965
      95.964,119.288
      97.277,119.603
      98.590,119.908
      99.903,120.206
      101.216,120.496
      102.529,120.779
      103.842,121.054
      105.155,121.323
      106.468,121.586
      107.781,121.842
      109.094,122.093
      110.407,122.338
      111.720,122.579
      113.033,122.814
      114.347,123.044
      115.660,123.269
      116.973,123.490
      118.286,123.707
      119.599,123.919
      120.912,124.128
      122.225,124.333
      123.538,124.534
      124.851,124.732
      126.164,124.926
      127.477,125.116
      128.790,125.304
      130.103,125.488
      131.416,125.670
      132.729,125.849
      134.043,126.024
      135.356,126.197
      136.669,126.368
      137.982,126.536
      139.295,126.701
      140.608,126.864
      141.921,127.025
      143.234,127.183
      144.547,127.339
      145.860,127.493
      147.173,127.645
      148.486,127.795
      149.799,127.942
      151.113,128.088
      152.426,128.232
      153.739,128.375
      155.052,128.515
      156.365,128.654
      157.678,128.791
      158.991,128.926
      160.304,129.060
      161.617,129.192
      162.930,129.322
      164.243,129.451
      165.556,129.579
      166.869,129.705
      168.182,129.830
      169.496,129.953
      170.809,130.075
      172.122,130.196
      173.435,130.315
      174.748,130.433
      176.061,130.550
      177.374,130.666
      178.687,130.780
      180.000,130.893
    "></polyline>
  </g>

  <!-- точка (6; -1) -->
  <circle cx="170" cy="130" r="2.2" fill="#2d70b3"></circle>

  <!-- стрелка оси x поверх функции -->
  <g stroke="#111827" stroke-width="1.25">
    <line x1="175" y1="110" x2="190" y2="110" marker-end="url(#axis-arrow)"></line>
  </g>

  <!-- подпись f(x) -->
  <text x="67" y="83" font-family="Georgia, 'Times New Roman', serif" font-style="italic" font-size="13" fill="#2d70b3">f(x)</text>
</svg>
