<svg xmlns="http://www.w3.org/2000/svg" width="220" height="220" viewBox="0 0 220 220">

  <rect x="0" y="0" width="220" height="220" fill="white"></rect>

  <defs>
    <marker id="axis-arrow" viewBox="0 0 15 8" refX="13" refY="4" markerWidth="12" markerHeight="6.4" orient="auto" markerUnits="userSpaceOnUse">
      <path d="M 3 0 L 15 4 L 3 8 L 7 4 Z" fill="black"></path>
    </marker>
  </defs>

  <!-- сетка: x от -2 до 7, y от -5 до 5 -->
  <g stroke="#d1d5db" stroke-width="0.5" shape-rendering="crispEdges">
    <line x1="30" y1="10" x2="30" y2="210"></line>
    <line x1="50" y1="10" x2="50" y2="210"></line>
    <line x1="70" y1="10" x2="70" y2="210"></line>
    <line x1="90" y1="10" x2="90" y2="210"></line>
    <line x1="110" y1="10" x2="110" y2="210"></line>
    <line x1="130" y1="10" x2="130" y2="210"></line>
    <line x1="150" y1="10" x2="150" y2="210"></line>
    <line x1="170" y1="10" x2="170" y2="210"></line>

    <line x1="10" y1="30" x2="190" y2="30"></line>
    <line x1="10" y1="50" x2="190" y2="50"></line>
    <line x1="10" y1="70" x2="190" y2="70"></line>
    <line x1="10" y1="90" x2="190" y2="90"></line>
    <line x1="10" y1="110" x2="190" y2="110"></line>
    <line x1="10" y1="130" x2="190" y2="130"></line>
    <line x1="10" y1="150" x2="190" y2="150"></line>
    <line x1="10" y1="170" x2="190" y2="170"></line>
    <line x1="10" y1="190" x2="190" y2="190"></line>
  </g>

  <!-- оси (0,0) -> (50,110), ось x до 7 (до 190px) -->
  <g stroke="#111827" stroke-width="1.25">
    <line x1="10" y1="110" x2="190" y2="110"></line>
    <line x1="50" y1="210" x2="50" y2="10" marker-end="url(#axis-arrow)"></line>
  </g>

  <!-- подписи осей и делений -->
  <g font-family="sans-serif" font-size="11" fill="#111827">
    <text x="46" y="123" text-anchor="end" font-size="13" font-style="italic" font-family="Georgia, 'Times New Roman', serif">O</text>

    <rect x="67" y="113" width="7" height="12" fill="white"></rect>
    <text x="70" y="124" text-anchor="middle" font-size="13" font-family="'Times New Roman', serif" font-weight="300">1</text>

    <text x="43" y="94" text-anchor="end" font-size="13" font-family="'Times New Roman', serif" font-weight="300">1</text>

    <text x="186" y="123" text-anchor="start" font-family="Georgia, 'Times New Roman', serif" font-style="italic" font-size="13">x</text>

    <text x="47" y="13" text-anchor="end" font-family="Georgia, 'Times New Roman', serif" font-style="italic" font-size="13">y</text>
  </g>

  <!-- y = log_a(x), через (4; -1) => a = 1/4
       функция не рисуется правее x=6.5 (x_svg=180)
       выше y=4.5 (y_svg=20) не рисуем -->
  <g stroke="#2d70b3" stroke-width="1.25" fill="none" stroke-linecap="round" stroke-linejoin="round">
    <path d="M 50.039 20.000 C 50.041 20.764 50.048 23.056 50.054 24.583 C 50.061 26.111 50.067 27.639 50.074 29.167 C 50.082 30.694 50.090 32.222 50.101 33.750 C 50.111 35.278 50.124 36.806 50.139 38.333 C 50.155 39.861 50.173 41.389 50.191 42.917 C 50.209 44.444 50.232 45.972 50.263 47.500 C 50.294 49.028 50.326 50.556 50.361 52.083 C 50.396 53.611 50.441 55.139 50.496 56.667 C 50.551 58.194 50.611 59.722 50.681 61.250 C 50.751 62.778 50.836 64.306 50.935 65.833 C 51.033 67.361 51.146 68.889 51.285 70.417 C 51.423 71.944 51.584 73.472 51.764 75.000 C 51.944 76.528 52.155 78.056 52.423 79.583 C 52.690 81.111 52.993 82.639 53.328 84.167 C 53.663 85.694 54.050 87.222 54.572 88.750 C 55.094 90.278 55.659 91.806 56.279 93.333 C 56.899 94.861 57.626 96.389 58.623 97.917 C 59.620 99.444 60.682 100.972 61.844 102.500 C 63.006 104.028 64.423 105.556 66.267 107.083 C 68.112 108.611 70.182 110.139 72.343 111.667 C 74.505 113.194 77.152 114.722 80.688 116.250 C 84.224 117.778 88.018 119.306 92.379 120.833 C 96.739 122.361 101.712 123.889 108.226 125.417 C 114.741 126.944 121.756 128.472 130.000 130.000 C 131.015 130.177 131.999 130.354 132.993 130.525 C 133.987 130.696 134.986 130.867 136.462 131.121 C 137.938 131.375 139.423 131.629 141.650 131.961 C 143.876 132.293 146.108 132.625 149.058 133.082 C 152.009 133.539 154.965 133.996 159.173 134.483 C 163.381 134.969 167.596 135.455 172.704 136.164 C 177.812 136.873 179.021 137.053 180.000 137.004"></path>
  </g>

  <!-- точка (4; -1) -->
  <circle cx="130" cy="130" r="2.2" fill="#2d70b3"></circle>

  <!-- стрелка оси x поверх функции -->
  <g stroke="#111827" stroke-width="1.25">
    <line x1="175" y1="110" x2="190" y2="110" marker-end="url(#axis-arrow)"></line>
  </g>

  <!-- подпись f(x) -->
  <text x="67" y="83" font-family="Georgia, 'Times New Roman', serif" font-style="italic" font-size="13" fill="#2d70b3">
    f(x)
  </text>

</svg>
