<svg xmlns="http://www.w3.org/2000/svg" width="220" height="220" viewBox="0 0 220 220">
  <rect x="0" y="0" width="220" height="220" fill="white" />

  <defs>
    <marker id="axis-arrow"
            viewBox="0 0 15 8"
            refX="13" refY="4"
            markerWidth="12" markerHeight="6.4"
            orient="auto"
            markerUnits="userSpaceOnUse">
      <path d="M 3 0 L 15 4 L 3 8 L 7 4 Z" fill="black" />
    </marker>
  </defs>

  <!-- сетка: x от -2 до 7, y от -5 до 5 -->
  <g stroke="#d1d5db" stroke-width="0.5" shape-rendering="crispEdges">
    <line x1="30"  y1="10" x2="30"  y2="210" />
    <line x1="50"  y1="10" x2="50"  y2="210" />
    <line x1="70"  y1="10" x2="70"  y2="210" />
    <line x1="90"  y1="10" x2="90"  y2="210" />
    <line x1="110" y1="10" x2="110" y2="210" />
    <line x1="130" y1="10" x2="130" y2="210" />
    <line x1="150" y1="10" x2="150" y2="210" />
    <line x1="170" y1="10" x2="170" y2="210" />

    <line x1="10" y1="30"  x2="190" y2="30"  />
    <line x1="10" y1="50"  x2="190" y2="50"  />
    <line x1="10" y1="70"  x2="190" y2="70"  />
    <line x1="10" y1="90"  x2="190" y2="90"  />
    <line x1="10" y1="110" x2="190" y2="110" />
    <line x1="10" y1="130" x2="190" y2="130" />
    <line x1="10" y1="150" x2="190" y2="150" />
    <line x1="10" y1="170" x2="190" y2="170" />
    <line x1="10" y1="190" x2="190" y2="190" />
  </g>

  <!-- оси -->
  <g stroke="#111827" stroke-width="1.25">
    <line x1="10" y1="110" x2="190" y2="110" />
    <line x1="50" y1="210" x2="50" y2="10" marker-end="url(#axis-arrow)" />
  </g>

  <!-- подписи осей и делений -->
  <g font-family="sans-serif" font-size="11" fill="#111827">
    <text x="46" y="123" text-anchor="end"
          font-size="13" font-style="italic"
          font-family="Georgia, 'Times New Roman', serif">O</text>

    <rect x="67" y="113" width="7" height="12" fill="white" />
    <text x="70" y="124" text-anchor="middle" font-size="13"
          font-family="'Times New Roman', serif"
          font-weight="300">1</text>

    <text x="43" y="94" text-anchor="end" font-size="13"
          font-family="'Times New Roman', serif"
          font-weight="300">1</text>

    <text x="186" y="123" text-anchor="start"
          font-family="Georgia, 'Times New Roman', serif"
          font-style="italic" font-size="13">x</text>

    <text x="47" y="13" text-anchor="end"
          font-family="Georgia, 'Times New Roman', serif"
          font-style="italic" font-size="13">y</text>
  </g>

  <!-- интерполяция (PCHIP) по исходным точкам, отрисовка ломаной с мелким шагом -->
  <g stroke="#2d70b3" stroke-width="1.25" fill="none"
     stroke-linecap="round" stroke-linejoin="round">
    <polyline points="
      50.884,200.000
      50.886,199.943
      51.071,194.443
      51.257,189.836
      51.443,185.854
      51.629,182.366
      51.815,179.242
      52.000,176.438
      52.186,173.872
      52.372,171.514
      52.558,169.345
      52.743,167.322
      52.929,165.426
      53.115,163.650
      53.301,161.985
      53.487,160.407
      53.672,158.905
      53.858,157.478
      54.044,156.120
      54.230,154.829
      54.415,153.592
      54.601,152.401
      54.787,151.256
      54.973,150.155
      55.159,149.095
      55.344,148.076
      55.530,147.095
      55.716,146.143
      55.902,145.220
      56.087,144.324
      56.273,143.454
      56.459,142.610
      56.645,141.790
      56.830,140.995
      57.016,140.223
      57.202,139.473
      57.388,138.740
      57.574,138.023
      57.759,137.322
      57.945,136.638
      58.131,135.969
      58.317,135.316
      58.502,134.677
      58.688,134.053
      58.874,133.443
      59.060,132.847
      59.246,132.265
      59.431,131.693
      59.617,131.130
      59.803,130.578
      59.989,130.036
      60.174,129.503
      60.360,128.979
      60.546,128.465
      60.732,127.960
      60.918,127.464
      61.103,126.976
      61.289,126.497
      61.475,126.027
      61.661,125.565
      61.846,125.110
      62.032,124.664
      62.218,124.223
      62.404,123.788
      62.590,123.360
      62.775,122.937
      62.961,122.519
      63.147,122.108
      63.333,121.702
      63.518,121.302
      63.704,120.907
      63.890,120.517
      64.076,120.133
      64.262,119.754
      64.447,119.380
      64.633,119.011
      64.819,118.647
      65.005,118.289
      65.190,117.935
      65.376,117.586
      65.562,117.241
      65.748,116.900
      65.934,116.562
      66.119,116.228
      66.305,115.898
      66.491,115.571
      66.677,115.247
      66.862,114.927
      67.048,114.611
      67.234,114.297
      67.420,113.987
      67.606,113.680
      67.791,113.376
      67.977,113.076
      68.163,112.779
      68.349,112.484
      68.534,112.193
      68.720,111.905
      68.906,111.620
      69.092,111.338
      69.277,111.059
      69.463,110.782
      69.649,110.509
      69.835,110.238
      70.021,109.970
      70.206,109.705
      70.392,109.442
      70.578,109.181
      70.764,108.922
      70.949,108.666
      71.135,108.412
      71.321,108.160
      71.507,107.910
      71.693,107.662
      71.878,107.416
      72.064,107.172
      72.250,106.930
      72.436,106.690
      72.621,106.453
      72.807,106.217
      72.993,105.982
      73.179,105.750
      73.365,105.520
      73.550,105.291
      73.736,105.064
      73.922,104.839
      74.108,104.615
      74.293,104.393
      74.479,104.173
      74.665,103.955
      74.851,103.738
      75.037,103.522
      75.222,103.308
      75.408,103.096
      75.594,102.885
      75.780,102.675
      75.965,102.467
      76.151,102.261
      76.337,102.056
      76.523,101.853
      76.709,101.651
      76.894,101.451
      77.080,101.252
      77.266,101.054
      77.452,100.858
      77.637,100.664
      77.823,100.471
      78.009,100.279
      78.195,100.088
      78.381,99.899
      78.566,99.711
      78.752,99.524
      78.938,99.339
      79.124,99.155
      79.309,98.972
      79.495,98.790
      79.681,98.609
      79.867,98.429
      80.052,98.251
      80.238,98.073
      80.424,97.897
      80.610,97.721
      80.796,97.546
      80.981,97.373
      81.167,97.200
      81.353,97.028
      81.539,96.858
      81.724,96.688
      81.910,96.519
      82.096,96.351
      82.282,96.184
      82.468,96.018
      82.653,95.854
      82.839,95.690
      83.025,95.527
      83.211,95.365
      83.396,95.204
      83.582,95.044
      83.768,94.885
      83.954,94.727
      84.140,94.570
      84.325,94.413
      84.511,94.258
      84.697,94.103
      84.883,93.949
      85.068,93.796
      85.254,93.644
      85.440,93.493
      85.626,93.342
      85.812,93.192
      85.997,93.043
      86.183,92.894
      86.369,92.747
      86.555,92.600
      86.740,92.453
      86.926,92.308
      87.112,92.163
      87.298,92.018
      87.484,91.874
      87.669,91.732
      87.855,91.589
      88.041,91.448
      88.227,91.307
      88.412,91.167
      88.598,91.028
      88.784,90.889
      88.970,90.751
      89.156,90.614
      89.341,90.477
      89.527,90.341
      89.713,90.206
      89.899,90.071
      90.084,89.937
      90.270,89.804
      90.456,89.671
      90.642,89.539
      90.828,89.407
      91.013,89.276
      91.199,89.146
      91.385,89.016
      91.571,88.887
      91.756,88.758
      91.942,88.630
      92.128,88.502
      92.314,88.375
      92.499,88.249
      92.685,88.123
      92.871,87.997
      93.057,87.872
      93.243,87.747
      93.428,87.623
      93.614,87.500
      93.800,87.377
      93.986,87.254
      94.171,87.132
      94.357,87.011
      94.543,86.890
      94.729,86.770
      94.915,86.650
      95.100,86.530
      95.286,86.411
      95.472,86.293
      95.658,86.175
      95.843,86.058
      96.029,85.941
      96.215,85.824
      96.401,85.708
      96.587,85.593
      96.772,85.478
      96.958,85.363
      97.144,85.249
      97.330,85.135
      97.515,85.022
      97.701,84.909
      97.887,84.797
      98.073,84.685
      98.259,84.574
      98.444,84.463
      98.630,84.353
      98.816,84.242
      99.002,84.133
      99.187,84.024
      99.373,83.915
      99.559,83.807
      99.745,83.699
      99.931,83.592
      100.116,83.485
      100.302,83.378
      100.488,83.272
      100.674,83.167
      100.859,83.061
      101.045,82.957
      101.231,82.852
      101.417,82.748
      101.603,82.645
      101.788,82.542
      101.974,82.439
      102.160,82.336
      102.346,82.234
      102.531,82.133
      102.717,82.031
      102.903,81.930
      103.089,81.829
      103.275,81.729
      103.460,81.629
      103.646,81.529
      103.832,81.430
      104.018,81.331
      104.203,81.232
      104.389,81.133
      104.575,81.035
      104.761,80.937
      104.946,80.840
      105.132,80.742
      105.318,80.645
      105.504,80.548
      105.690,80.452
      105.875,80.356
      106.061,80.260
      106.247,80.165
      106.433,80.070
      106.618,79.975
      106.804,79.880
      106.990,79.786
      107.176,79.692
      107.362,79.599
      107.547,79.505
      107.733,79.412
      107.919,79.320
      108.105,79.227
      108.290,79.135
      108.476,79.043
      108.662,78.952
      108.848,78.861
      109.034,78.770
      109.219,78.679
      109.405,78.589
      109.591,78.498
      109.777,78.409
      109.962,78.319
      110.148,78.230
      110.334,78.141
      110.520,78.052
      110.706,77.963
      110.891,77.875
      111.077,77.787
      111.263,77.700
      111.449,77.612
      111.634,77.525
      111.820,77.438
      112.006,77.352
      112.192,77.265
      112.378,77.179
      112.563,77.093
      112.749,77.008
      112.935,76.923
      113.121,76.838
      113.306,76.753
      113.492,76.668
      113.678,76.584
      113.864,76.500
      114.050,76.416
      114.235,76.333
      114.421,76.249
      114.607,76.166
      114.793,76.084
      114.978,76.001
      115.164,75.919
      115.350,75.836
      115.536,75.754
      115.721,75.673
      115.907,75.591
      116.093,75.510
      116.279,75.429
      116.465,75.348
      116.650,75.268
      116.836,75.187
      117.022,75.107
      117.208,75.027
      117.393,74.948
      117.579,74.868
      117.765,74.789
      117.951,74.710
      118.137,74.631
      118.322,74.553
      118.508,74.474
      118.694,74.396
      118.880,74.318
      119.065,74.241
      119.251,74.163
      119.437,74.086
      119.623,74.009
      119.809,73.932
      119.994,73.855
      120.180,73.779
      120.366,73.703
      120.552,73.626
      120.737,73.551
      120.923,73.475
      121.109,73.399
      121.295,73.324
      121.481,73.249
      121.666,73.174
      121.852,73.099
      122.038,73.025
      122.224,72.951
      122.409,72.876
      122.595,72.802
      122.781,72.729
      122.967,72.655
      123.153,72.582
      123.338,72.509
      123.524,72.436
      123.710,72.363
      123.896,72.290
      124.081,72.218
      124.267,72.145
      124.453,72.073
      124.639,72.001
      124.825,71.930
      125.010,71.858
      125.196,71.787
      125.382,71.716
      125.568,71.645
      125.753,71.574
      125.939,71.503
      126.125,71.433
      126.311,71.362
      126.497,71.292
      126.682,71.222
      126.868,71.152
      127.054,71.083
      127.240,71.013
      127.425,70.944
      127.611,70.875
      127.797,70.806
      127.983,70.737
      128.168,70.668
      128.354,70.600
      128.540,70.531
      128.726,70.463
      128.912,70.395
      129.097,70.327
      129.283,70.260
      129.469,70.192
      129.655,70.125
      129.840,70.058
      130.026,69.990
      130.212,69.924
      130.398,69.857
      130.584,69.790
      130.769,69.724
      130.955,69.658
      131.141,69.591
      131.327,69.525
      131.512,69.460
      131.698,69.394
      131.884,69.328
      132.070,69.263
      132.256,69.198
      132.441,69.133
      132.627,69.068
      132.813,69.003
      132.999,68.938
      133.184,68.874
      133.370,68.809
      133.556,68.745
      133.742,68.681
      133.928,68.617
      134.113,68.553
      134.299,68.490
      134.485,68.426
      134.671,68.363
      134.856,68.299
      135.042,68.236
      135.228,68.173
      135.414,68.111
      135.600,68.048
      135.785,67.985
      135.971,67.923
      136.157,67.861
      136.343,67.799
      136.528,67.737
      136.714,67.675
      136.900,67.613
      137.086,67.551
      137.272,67.490
      137.457,67.428
      137.643,67.367
      137.829,67.306
      138.015,67.245
      138.200,67.184
      138.386,67.124
      138.572,67.063
      138.758,67.003
      138.943,66.942
      139.129,66.882
      139.315,66.822
      139.501,66.762
      139.687,66.702
      139.872,66.642
      140.058,66.583
      140.244,66.523
      140.430,66.464
      140.615,66.405
      140.801,66.346
      140.987,66.287
      141.173,66.228
      141.359,66.169
      141.544,66.111
      141.730,66.052
      141.916,65.994
      142.102,65.935
      142.287,65.877
      142.473,65.819
      142.659,65.761
      142.845,65.704
      143.031,65.646
      143.216,65.588
      143.402,65.531
      143.588,65.474
      143.774,65.416
      143.959,65.359
      144.145,65.302
      144.331,65.245
      144.517,65.189
      144.703,65.132
      144.888,65.075
      145.074,65.019
      145.260,64.963
      145.446,64.906
      145.631,64.850
      145.817,64.794
      146.003,64.738
      146.189,64.683
      146.375,64.627
      146.560,64.571
      146.746,64.516
      146.932,64.461
      147.118,64.405
      147.303,64.350
      147.489,64.295
      147.675,64.240
      147.861,64.185
      148.047,64.131
      148.232,64.076
      148.418,64.022
      148.604,63.967
      148.790,63.913
      148.975,63.859
      149.161,63.805
      149.347,63.751
      149.533,63.697
      149.719,63.643
      149.904,63.589
      150.090,63.536
      150.276,63.482
      150.462,63.429
      150.647,63.375
      150.833,63.322
      151.019,63.269
      151.205,63.216
      151.390,63.163
      151.576,63.110
      151.762,63.057
      151.948,63.005
      152.134,62.952
      152.319,62.900
      152.505,62.847
      152.691,62.795
      152.877,62.743
      153.062,62.691
      153.248,62.639
      153.434,62.587
      153.620,62.535
      153.806,62.484
      153.991,62.432
      154.177,62.381
      154.363,62.329
      154.549,62.278
      154.734,62.227
      154.920,62.176
      155.106,62.125
      155.292,62.074
      155.478,62.023
      155.663,61.972
      155.849,61.921
      156.035,61.871
      156.221,61.820
      156.406,61.770
      156.592,61.719
      156.778,61.669
      156.964,61.619
      157.150,61.569
      157.335,61.519
      157.521,61.469
      157.707,61.419
      157.893,61.369
      158.078,61.320
      158.264,61.270
      158.450,61.221
      158.636,61.171
      158.822,61.122
      159.007,61.073
      159.193,61.024
      159.379,60.975
      159.565,60.926
      159.750,60.877
      159.936,60.828
      160.122,60.779
      160.308,60.731
      160.494,60.682
      160.679,60.634
      160.865,60.585
      161.051,60.537
      161.237,60.489
      161.422,60.441
      161.608,60.393
      161.794,60.345
      161.980,60.297
      162.166,60.249
      162.351,60.201
      162.537,60.153
      162.723,60.106
      162.909,60.058
      163.094,60.011
      163.280,59.964
      163.466,59.916
      163.652,59.869
      163.837,59.822
      164.023,59.775
      164.209,59.728
      164.395,59.681
      164.581,59.634
      164.766,59.587
      164.952,59.541
      165.138,59.494
      165.324,59.448
      165.509,59.401
      165.695,59.355
      165.881,59.309
      166.067,59.262
      166.253,59.216
      166.438,59.170
      166.624,59.124
      166.810,59.078
      166.996,59.032
      167.181,58.987
      167.367,58.941
      167.553,58.895
      167.739,58.850
      167.925,58.804
      168.110,58.759
      168.296,58.713
      168.482,58.668
      168.668,58.623
      168.853,58.578
      169.039,58.533
      169.225,58.488
      169.411,58.443
      169.597,58.398
      169.782,58.353
      169.968,58.308
      170.154,58.264
      170.340,58.219
      170.525,58.175
      170.711,58.130
      170.897,58.086
      171.083,58.042
      171.269,57.997
      171.454,57.953
      171.640,57.909
      171.826,57.865
      172.012,57.821
      172.197,57.777
      172.383,57.733
      172.569,57.690
      172.755,57.646
      172.941,57.602
      173.126,57.559
      173.312,57.515
      173.498,57.472
      173.684,57.428
      173.869,57.385
      174.055,57.342
      174.241,57.299
      174.427,57.256
      174.612,57.213
      174.798,57.170
      174.984,57.127
      175.170,57.084
      175.356,57.042
      175.541,56.999
      175.727,56.957
      175.913,56.915
      176.099,56.872
      176.284,56.830
      176.470,56.788
      176.656,56.746
      176.842,56.704
      177.028,56.662
      177.213,56.620
      177.399,56.578
      177.585,56.536
      177.771,56.495
      177.956,56.453
      178.142,56.411
      178.328,56.369
      178.514,56.327
      178.700,56.285
      178.885,56.243
      179.071,56.201
      179.257,56.159
      179.443,56.117
      179.628,56.075
      179.814,56.033
      180.000,55.991
    " />
  </g>
  <!-- точка (2;1) -->
  <circle cx="90" cy="90" r="2.2" fill="#2d70b3" stroke="#2d70b3" stroke-width="0.6" />


  <!-- стрелка оси x поверх графика -->
  <g stroke="#111827" stroke-width="1.25">
    <line x1="175" y1="110" x2="190" y2="110" marker-end="url(#axis-arrow)" />
  </g>

  <!-- подпись -->
  <text x="97" y="70"
        font-family="Georgia, 'Times New Roman', serif"
        font-style="italic"
        font-size="13"
        fill="#2d70b3">f(x)</text>
</svg>
