<svg xmlns="http://www.w3.org/2000/svg" width="220" height="220" viewBox="0 0 220 220">
  <rect x="0" y="0" width="220" height="220" fill="white" />

  <defs>
    <marker id="axis-arrow"
            viewBox="0 0 15 8"
            refX="13" refY="4"
            markerWidth="12" markerHeight="6.4"
            orient="auto"
            markerUnits="userSpaceOnUse">
      <path d="M 3 0 L 15 4 L 3 8 L 7 4 Z" fill="black" />
    </marker>
  </defs>

  <!-- сетка: x от -2 до 7, y от -5 до 5 -->
  <g stroke="#d1d5db" stroke-width="0.5" shape-rendering="crispEdges">
    <line x1="30"  y1="10" x2="30"  y2="210" />
    <line x1="50"  y1="10" x2="50"  y2="210" />
    <line x1="70"  y1="10" x2="70"  y2="210" />
    <line x1="90"  y1="10" x2="90"  y2="210" />
    <line x1="110" y1="10" x2="110" y2="210" />
    <line x1="130" y1="10" x2="130" y2="210" />
    <line x1="150" y1="10" x2="150"  y2="210" />
    <line x1="170" y1="10" x2="170" y2="210" />

    <line x1="10" y1="30"  x2="190" y2="30"  />
    <line x1="10" y1="50"  x2="190" y2="50"  />
    <line x1="10" y1="70"  x2="190" y2="70"  />
    <line x1="10" y1="90"  x2="190" y2="90"  />
    <line x1="10" y1="110" x2="190" y2="110" />
    <line x1="10" y1="130" x2="190" y2="130" />
    <line x1="10" y1="150" x2="190" y2="150" />
    <line x1="10" y1="170" x2="190" y2="170" />
    <line x1="10" y1="190" x2="190" y2="190" />
  </g>

  <!-- оси -->
  <g stroke="#111827" stroke-width="1.25">
    <line x1="10" y1="110" x2="190" y2="110" />
    <line x1="50" y1="210" x2="50" y2="10" marker-end="url(#axis-arrow)" />
  </g>

  <!-- подписи осей и делений -->
  <g font-family="sans-serif" font-size="11" fill="#111827">
    <text x="46" y="123" text-anchor="end"
          font-size="13" font-style="italic"
          font-family="Georgia, 'Times New Roman', serif">O</text>

    <rect x="67" y="113" width="7" height="12" fill="white" />
    <text x="70" y="124" text-anchor="middle" font-size="13"
          font-family="'Times New Roman', serif"
          font-weight="300">1</text>

    <text x="43" y="94" text-anchor="end" font-size="13"
          font-family="'Times New Roman', serif"
          font-weight="300">1</text>

    <text x="186" y="123" text-anchor="start"
          font-family="Georgia, 'Times New Roman', serif"
          font-style="italic" font-size="13">x</text>

    <text x="47" y="13" text-anchor="end"
          font-family="Georgia, 'Times New Roman', serif"
          font-style="italic" font-size="13">y</text>
  </g>

  <!-- интерполяция (PCHIP) по точкам -->
  <g stroke="#2d70b3" stroke-width="1.25" fill="none"
     stroke-linecap="round" stroke-linejoin="round">
    <polyline points="
      50.006,200.000
      50.151,164.549
      50.295,157.051
      50.440,152.601
      50.585,149.424
      50.729,146.970
      50.874,144.939
      51.018,143.233
      51.163,141.759
      51.308,140.442
      51.452,139.267
      51.597,138.217
      51.741,137.254
      51.886,136.359
      52.031,135.528
      52.175,134.757
      52.320,134.042
      52.464,133.375
      52.609,132.741
      52.754,132.138
      52.898,131.563
      53.043,131.016
      53.187,130.494
      53.332,129.997
      53.477,129.524
      53.621,129.073
      53.766,128.642
      53.910,128.224
      54.055,127.819
      54.200,127.427
      54.344,127.047
      54.489,126.679
      54.633,126.322
      54.778,125.977
      54.923,125.642
      55.067,125.318
      55.212,125.004
      55.356,124.700
      55.501,124.406
      55.646,124.120
      55.790,123.841
      55.935,123.567
      56.079,123.299
      56.224,123.037
      56.369,122.780
      56.513,122.528
      56.658,122.281
      56.802,122.040
      56.947,121.803
      57.092,121.571
      57.236,121.344
      57.381,121.122
      57.525,120.904
      57.670,120.691
      57.815,120.483
      57.959,120.278
      58.104,120.078
      58.248,119.882
      58.393,119.690
      58.538,119.501
      58.682,119.317
      58.827,119.134
      58.971,118.954
      59.116,118.777
      59.261,118.601
      59.405,118.429
      59.550,118.258
      59.694,118.090
      59.839,117.924
      59.984,117.760
      60.128,117.599
      60.273,117.439
      60.417,117.282
      60.562,117.127
      60.707,116.974
      60.851,116.823
      60.996,116.674
      61.140,116.528
      61.285,116.383
      61.430,116.240
      61.574,116.099
      61.719,115.960
      61.863,115.823
      62.008,115.688
      62.153,115.554
      62.297,115.423
      62.442,115.293
      62.586,115.165
      62.731,115.038
      62.876,114.913
      63.020,114.790
      63.165,114.669
      63.309,114.549
      63.454,114.430
      63.599,114.312
      63.743,114.195
      63.888,114.079
      64.032,113.964
      64.177,113.851
      64.322,113.738
      64.466,113.627
      64.611,113.516
      64.755,113.407
      64.900,113.299
      65.045,113.191
      65.189,113.085
      65.334,112.979
      65.478,112.875
      65.623,112.771
      65.767,112.668
      65.912,112.567
      66.057,112.466
      66.201,112.366
      66.346,112.267
      66.490,112.168
      66.635,112.071
      66.780,111.974
      66.924,111.878
      67.069,111.783
      67.213,111.689
      67.358,111.595
      67.503,111.502
      67.647,111.410
      67.792,111.319
      67.936,111.228
      68.081,111.138
      68.226,111.049
      68.370,110.960
      68.515,110.872
      68.659,110.784
      68.804,110.697
      68.949,110.611
      69.093,110.525
      69.238,110.440
      69.382,110.356
      69.527,110.272
      69.672,110.188
      69.816,110.105
      69.961,110.022
      70.105,109.940
      70.250,109.859
      70.395,109.778
      70.539,109.698
      70.684,109.619
      70.828,109.541
      70.973,109.463
      71.118,109.385
      71.262,109.309
      71.407,109.233
      71.551,109.157
      71.696,109.083
      71.841,109.008
      71.985,108.935
      72.130,108.862
      72.274,108.789
      72.419,108.717
      72.564,108.646
      72.708,108.575
      72.853,108.505
      72.997,108.435
      73.142,108.365
      73.287,108.296
      73.431,108.228
      73.576,108.159
      73.720,108.092
      73.865,108.024
      74.010,107.958
      74.154,107.891
      74.299,107.825
      74.443,107.759
      74.588,107.694
      74.733,107.629
      74.877,107.564
      75.022,107.500
      75.166,107.435
      75.311,107.372
      75.456,107.308
      75.600,107.245
      75.745,107.182
      75.889,107.119
      76.034,107.056
      76.179,106.994
      76.323,106.933
      76.468,106.871
      76.612,106.810
      76.757,106.750
      76.902,106.690
      77.046,106.630
      77.191,106.570
      77.335,106.511
      77.480,106.452
      77.625,106.393
      77.769,106.335
      77.914,106.277
      78.058,106.220
      78.203,106.162
      78.348,106.105
      78.492,106.049
      78.637,105.992
      78.781,105.936
      78.926,105.880
      79.071,105.825
      79.215,105.770
      79.360,105.715
      79.504,105.660
      79.649,105.605
      79.794,105.551
      79.938,105.497
      80.083,105.444
      80.227,105.390
      80.372,105.337
      80.517,105.284
      80.661,105.231
      80.806,105.179
      80.950,105.126
      81.095,105.074
      81.239,105.022
      81.384,104.971
      81.529,104.919
      81.673,104.868
      81.818,104.817
      81.962,104.766
      82.107,104.716
      82.252,104.666
      82.396,104.616
      82.541,104.566
      82.685,104.516
      82.830,104.467
      82.975,104.418
      83.119,104.369
      83.264,104.321
      83.408,104.272
      83.553,104.224
      83.698,104.176
      83.842,104.128
      83.987,104.081
      84.131,104.033
      84.276,103.986
      84.421,103.939
      84.565,103.893
      84.710,103.846
      84.854,103.800
      84.999,103.754
      85.144,103.708
      85.288,103.662
      85.433,103.616
      85.577,103.571
      85.722,103.526
      85.867,103.481
      86.011,103.436
      86.156,103.391
      86.300,103.346
      86.445,103.302
      86.590,103.258
      86.734,103.214
      86.879,103.170
      87.023,103.126
      87.168,103.083
      87.313,103.039
      87.457,102.996
      87.602,102.953
      87.746,102.910
      87.891,102.867
      88.036,102.825
      88.180,102.782
      88.325,102.740
      88.469,102.698
      88.614,102.656
      88.759,102.614
      88.903,102.573
      89.048,102.531
      89.192,102.490
      89.337,102.449
      89.482,102.408
      89.626,102.367
      89.771,102.327
      89.915,102.286
      90.060,102.246
      90.205,102.206
      90.349,102.166
      90.494,102.126
      90.638,102.086
      90.783,102.046
      90.928,102.007
      91.072,101.968
      91.217,101.928
      91.361,101.889
      91.506,101.851
      91.651,101.812
      91.795,101.773
      91.940,101.735
      92.084,101.696
      92.229,101.658
      92.374,101.620
      92.518,101.582
      92.663,101.544
      92.807,101.506
      92.952,101.468
      93.097,101.431
      93.241,101.393
      93.386,101.356
      93.530,101.319
      93.675,101.282
      93.820,101.245
      93.964,101.208
      94.109,101.171
      94.253,101.135
      94.398,101.098
      94.543,101.062
      94.687,101.026
      94.832,100.990
      94.976,100.954
      95.121,100.918
      95.266,100.882
      95.410,100.847
      95.555,100.811
      95.699,100.776
      95.844,100.741
      95.988,100.706
      96.133,100.671
      96.278,100.636
      96.422,100.601
      96.567,100.566
      96.711,100.532
      96.856,100.497
      97.001,100.463
      97.145,100.428
      97.290,100.394
      97.434,100.360
      97.579,100.326
      97.724,100.292
      97.868,100.259
      98.013,100.225
      98.157,100.191
      98.302,100.158
      98.447,100.125
      98.591,100.091
      98.736,100.058
      98.880,100.025
      99.025,99.992
      99.170,99.959
      99.314,99.926
      99.459,99.894
      99.603,99.861
      99.748,99.828
      99.893,99.796
      100.037,99.764
      100.182,99.731
      100.326,99.699
      100.471,99.667
      100.616,99.635
      100.760,99.604
      100.905,99.572
      101.049,99.540
      101.194,99.509
      101.339,99.477
      101.483,99.446
      101.628,99.414
      101.772,99.383
      101.917,99.352
      102.062,99.321
      102.206,99.290
      102.351,99.259
      102.495,99.229
      102.640,99.198
      102.785,99.167
      102.929,99.137
      103.074,99.106
      103.218,99.076
      103.363,99.046
      103.508,99.015
      103.652,98.985
      103.797,98.955
      103.941,98.925
      104.086,98.895
      104.231,98.866
      104.375,98.836
      104.520,98.806
      104.664,98.777
      104.809,98.747
      104.954,98.718
      105.098,98.688
      105.243,98.659
      105.387,98.630
      105.532,98.601
      105.677,98.572
      105.821,98.543
      105.966,98.514
      106.110,98.485
      106.255,98.456
      106.400,98.428
      106.544,98.399
      106.689,98.371
      106.833,98.342
      106.978,98.314
      107.123,98.286
      107.267,98.257
      107.412,98.229
      107.556,98.201
      107.701,98.173
      107.846,98.145
      107.990,98.117
      108.135,98.090
      108.279,98.062
      108.424,98.034
      108.569,98.007
      108.713,97.979
      108.858,97.952
      109.002,97.924
      109.147,97.897
      109.292,97.870
      109.436,97.843
      109.581,97.815
      109.725,97.788
      109.870,97.761
      110.015,97.734
      110.159,97.708
      110.304,97.681
      110.448,97.654
      110.593,97.627
      110.738,97.601
      110.882,97.574
      111.027,97.548
      111.171,97.521
      111.316,97.495
      111.460,97.469
      111.605,97.442
      111.750,97.416
      111.894,97.390
      112.039,97.364
      112.183,97.338
      112.328,97.312
      112.473,97.286
      112.617,97.260
      112.762,97.235
      112.906,97.209
      113.051,97.183
      113.196,97.158
      113.340,97.132
      113.485,97.107
      113.629,97.081
      113.774,97.056
      113.919,97.031
      114.063,97.006
      114.208,96.980
      114.352,96.955
      114.497,96.930
      114.642,96.905
      114.786,96.880
      114.931,96.856
      115.075,96.831
      115.220,96.806
      115.365,96.781
      115.509,96.757
      115.654,96.732
      115.798,96.707
      115.943,96.683
      116.088,96.658
      116.232,96.634
      116.377,96.610
      116.521,96.585
      116.666,96.561
      116.811,96.537
      116.955,96.513
      117.100,96.489
      117.244,96.465
      117.389,96.441
      117.534,96.417
      117.678,96.393
      117.823,96.369
      117.967,96.345
      118.112,96.322
      118.257,96.298
      118.401,96.274
      118.546,96.251
      118.690,96.227
      118.835,96.204
      118.980,96.180
      119.124,96.157
      119.269,96.134
      119.413,96.110
      119.558,96.087
      119.703,96.064
      119.847,96.041
      119.992,96.018
      120.136,95.995
      120.281,95.972
      120.426,95.949
      120.570,95.926
      120.715,95.903
      120.859,95.880
      121.004,95.857
      121.149,95.835
      121.293,95.812
      121.438,95.789
      121.582,95.767
      121.727,95.744
      121.872,95.722
      122.016,95.699
      122.161,95.677
      122.305,95.655
      122.450,95.632
      122.595,95.610
      122.739,95.588
      122.884,95.566
      123.028,95.544
      123.173,95.522
      123.318,95.499
      123.462,95.477
      123.607,95.456
      123.751,95.434
      123.896,95.412
      124.041,95.390
      124.185,95.368
      124.330,95.346
      124.474,95.325
      124.619,95.303
      124.764,95.282
      124.908,95.260
      125.053,95.238
      125.197,95.217
      125.342,95.196
      125.487,95.174
      125.631,95.153
      125.776,95.131
      125.920,95.110
      126.065,95.089
      126.210,95.068
      126.354,95.047
      126.499,95.025
      126.643,95.004
      126.788,94.983
      126.932,94.962
      127.077,94.941
      127.222,94.920
      127.366,94.900
      127.511,94.879
      127.655,94.858
      127.800,94.837
      127.945,94.816
      128.089,94.796
      128.234,94.775
      128.378,94.754
      128.523,94.734
      128.668,94.713
      128.812,94.693
      128.957,94.672
      129.101,94.652
      129.246,94.632
      129.391,94.611
      129.535,94.591
      129.680,94.571
      129.824,94.550
      129.969,94.530
      130.114,94.510
      130.258,94.490
      130.403,94.470
      130.547,94.450
      130.692,94.430
      130.837,94.410
      130.981,94.390
      131.126,94.370
      131.270,94.350
      131.415,94.330
      131.560,94.310
      131.704,94.291
      131.849,94.271
      131.993,94.251
      132.138,94.232
      132.283,94.212
      132.427,94.192
      132.572,94.173
      132.716,94.153
      132.861,94.134
      133.006,94.114
      133.150,94.095
      133.295,94.075
      133.439,94.056
      133.584,94.037
      133.729,94.017
      133.873,93.998
      134.018,93.979
      134.162,93.960
      134.307,93.941
      134.452,93.921
      134.596,93.902
      134.741,93.883
      134.885,93.864
      135.030,93.845
      135.175,93.826
      135.319,93.807
      135.464,93.788
      135.608,93.770
      135.753,93.751
      135.898,93.732
      136.042,93.713
      136.187,93.694
      136.331,93.676
      136.476,93.657
      136.621,93.638
      136.765,93.620
      136.910,93.601
      137.054,93.583
      137.199,93.564
      137.344,93.546
      137.488,93.527
      137.633,93.509
      137.777,93.490
      137.922,93.472
      138.067,93.454
      138.211,93.435
      138.356,93.417
      138.500,93.399
      138.645,93.381
      138.790,93.362
      138.934,93.344
      139.079,93.326
      139.223,93.308
      139.368,93.290
      139.513,93.272
      139.657,93.254
      139.802,93.236
      139.946,93.218
      140.091,93.200
      140.236,93.182
      140.380,93.164
      140.525,93.146
      140.669,93.128
      140.814,93.111
      140.959,93.093
      141.103,93.075
      141.248,93.057
      141.392,93.040
      141.537,93.022
      141.682,93.005
      141.826,92.987
      141.971,92.969
      142.115,92.952
      142.260,92.934
      142.404,92.917
      142.549,92.899
      142.694,92.882
      142.838,92.865
      142.983,92.847
      143.127,92.830
      143.272,92.813
      143.417,92.795
      143.561,92.778
      143.706,92.761
      143.850,92.744
      143.995,92.726
      144.140,92.709
      144.284,92.692
      144.429,92.675
      144.573,92.658
      144.718,92.641
      144.863,92.624
      145.007,92.607
      145.152,92.590
      145.296,92.573
      145.441,92.556
      145.586,92.539
      145.730,92.522
      145.875,92.505
      146.019,92.488
      146.164,92.472
      146.309,92.455
      146.453,92.438
      146.598,92.421
      146.742,92.405
      146.887,92.388
      147.032,92.371
      147.176,92.355
      147.321,92.338
      147.465,92.322
      147.610,92.305
      147.755,92.289
      147.899,92.272
      148.044,92.256
      148.188,92.239
      148.333,92.223
      148.478,92.206
      148.622,92.190
      148.767,92.174
      148.911,92.157
      149.056,92.141
      149.201,92.125
      149.345,92.108
      149.490,92.092
      149.634,92.076
      149.779,92.060
      149.924,92.044
      150.068,92.028
      150.213,92.011
      150.357,91.995
      150.502,91.979
      150.647,91.963
      150.791,91.947
      150.936,91.931
      151.080,91.915
      151.225,91.899
      151.370,91.883
      151.514,91.867
      151.659,91.851
      151.803,91.836
      151.948,91.820
      152.093,91.804
      152.237,91.788
      152.382,91.772
      152.526,91.757
      152.671,91.741
      152.816,91.725
      152.960,91.709
      153.105,91.694
      153.249,91.678
      153.394,91.663
      153.539,91.647
      153.683,91.631
      153.828,91.616
      153.972,91.600
      154.117,91.585
      154.262,91.569
      154.406,91.554
      154.551,91.538
      154.695,91.523
      154.840,91.508
      154.985,91.492
      155.129,91.477
      155.274,91.461
      155.418,91.446
      155.563,91.431
      155.708,91.416
      155.852,91.400
      155.997,91.385
      156.141,91.370
      156.286,91.355
      156.431,91.339
      156.575,91.324
      156.720,91.309
      156.864,91.294
      157.009,91.279
      157.153,91.264
      157.298,91.249
      157.443,91.234
      157.587,91.219
      157.732,91.204
      157.876,91.189
      158.021,91.174
      158.166,91.159
      158.310,91.144
      158.455,91.129
      158.599,91.114
      158.744,91.099
      158.889,91.085
      159.033,91.070
      159.178,91.055
      159.322,91.040
      159.467,91.025
      159.612,91.011
      159.756,90.996
      159.901,90.981
      160.045,90.967
      160.190,90.952
      160.335,90.937
      160.479,90.923
      160.624,90.908
      160.768,90.894
      160.913,90.879
      161.058,90.864
      161.202,90.850
      161.347,90.835
      161.491,90.821
      161.636,90.806
      161.781,90.792
      161.925,90.778
      162.070,90.763
      162.214,90.749
      162.359,90.734
      162.504,90.720
      162.648,90.706
      162.793,90.691
      162.937,90.677
      163.082,90.663
      163.227,90.649
      163.371,90.634
      163.516,90.620
      163.660,90.606
      163.805,90.592
      163.950,90.577
      164.094,90.563
      164.239,90.549
      164.383,90.535
      164.528,90.521
      164.673,90.507
      164.817,90.493
      164.962,90.479
      165.106,90.465
      165.251,90.451
      165.396,90.437
      165.540,90.423
      165.685,90.409
      165.829,90.395
      165.974,90.381
      166.119,90.367
      166.263,90.353
      166.408,90.339
      166.552,90.325
      166.697,90.312
      166.842,90.298
      166.986,90.284
      167.131,90.270
      167.275,90.256
      167.420,90.243
      167.565,90.229
      167.709,90.215
      167.854,90.201
      167.998,90.188
      168.143,90.174
      168.288,90.160
      168.432,90.147
      168.577,90.133
      168.721,90.120
      168.866,90.106
      169.011,90.092
      169.155,90.079
      169.300,90.065
      169.444,90.052
      169.589,90.038
      169.734,90.025
      169.878,90.011
      170.023,89.998
      170.167,89.984
      170.312,89.971
      170.457,89.958
      170.601,89.944
      170.746,89.931
      170.890,89.917
      171.035,89.904
      171.180,89.891
      171.324,89.878
      171.469,89.864
      171.613,89.851
      171.758,89.838
      171.903,89.824
      172.047,89.811
      172.192,89.798
      172.336,89.785
      172.481,89.772
      172.625,89.758
      172.770,89.745
      172.915,89.732
      173.059,89.719
      173.204,89.706
      173.348,89.693
      173.493,89.680
      173.638,89.667
      173.782,89.654
      173.927,89.641
      174.071,89.628
      174.216,89.615
      174.361,89.602
      174.505,89.589
      174.650,89.576
      174.794,89.563
      174.939,89.550
      175.084,89.537
      175.228,89.524
      175.373,89.511
      175.517,89.499
      175.662,89.486
      175.807,89.473
      175.951,89.460
      176.096,89.448
      176.240,89.435
      176.385,89.422
      176.530,89.410
      176.674,89.397
      176.819,89.384
      176.963,89.372
      177.108,89.359
      177.253,89.346
      177.397,89.334
      177.542,89.321
      177.686,89.309
      177.831,89.296
      177.976,89.283
      178.120,89.271
      178.265,89.258
      178.409,89.246
      178.554,89.233
      178.699,89.220
      178.843,89.208
      178.988,89.195
      179.132,89.183
      179.277,89.170
      179.422,89.157
      179.566,89.145
      179.711,89.132
      179.855,89.119
      180.000,89.107
    " />
  </g>

  <!-- точка (6;1) -->
  <circle cx="170" cy="90" r="2.2" fill="#2d70b3" stroke="#2d70b3" stroke-width="0.6" />

  <!-- стрелка оси x поверх графика -->
  <g stroke="#111827" stroke-width="1.25">
    <line x1="175" y1="110" x2="190" y2="110" marker-end="url(#axis-arrow)" />
  </g>

  <!-- подпись -->
  <text x="77" y="93"
        font-family="Georgia, 'Times New Roman', serif"
        font-style="italic"
        font-size="13"
        fill="#2d70b3">f(x)</text>
</svg>
