<svg xmlns="http://www.w3.org/2000/svg" width="220" height="220" viewBox="0 0 220 220">

  <rect x="0" y="0" width="220" height="220" fill="white"></rect>

  <defs>
    <marker id="axis-arrow" viewBox="0 0 15 8" refX="13" refY="4" markerWidth="12" markerHeight="6.4" orient="auto" markerUnits="userSpaceOnUse">
      <path d="M 3 0 L 15 4 L 3 8 L 7 4 Z" fill="black"></path>
    </marker>
  </defs>

  <!-- сетка: x от -2 до 7, y от -5 до 5 -->
  <g stroke="#d1d5db" stroke-width="0.5" shape-rendering="crispEdges">
    <line x1="30" y1="10" x2="30" y2="210"></line>
    <line x1="50" y1="10" x2="50" y2="210"></line>
    <line x1="70" y1="10" x2="70" y2="210"></line>
    <line x1="90" y1="10" x2="90" y2="210"></line>
    <line x1="110" y1="10" x2="110" y2="210"></line>
    <line x1="130" y1="10" x2="130" y2="210"></line>
    <line x1="150" y1="10" x2="150" y2="210"></line>
    <line x1="170" y1="10" x2="170" y2="210"></line>

    <line x1="10" y1="30" x2="190" y2="30"></line>
    <line x1="10" y1="50" x2="190" y2="50"></line>
    <line x1="10" y1="70" x2="190" y2="70"></line>
    <line x1="10" y1="90" x2="190" y2="90"></line>
    <line x1="10" y1="110" x2="190" y2="110"></line>
    <line x1="10" y1="130" x2="190" y2="130"></line>
    <line x1="10" y1="150" x2="190" y2="150"></line>
    <line x1="10" y1="170" x2="190" y2="170"></line>
    <line x1="10" y1="190" x2="190" y2="190"></line>
  </g>

  <!-- оси (0,0) -> (50,110), ось x до 7 (до 190px) -->
  <g stroke="#111827" stroke-width="1.25">
    <line x1="10" y1="110" x2="190" y2="110"></line>
    <line x1="50" y1="210" x2="50" y2="10" marker-end="url(#axis-arrow)"></line>
  </g>

  <!-- подписи осей и делений -->
  <g font-family="sans-serif" font-size="11" fill="#111827">
    <text x="46" y="123" text-anchor="end" font-size="13" font-style="italic" font-family="Georgia, 'Times New Roman', serif">O</text>

    <rect x="67" y="113" width="7" height="12" fill="white"></rect>
    <text x="70" y="124" text-anchor="middle" font-size="13" font-family="'Times New Roman', serif" font-weight="300">1</text>

    <text x="43" y="94" text-anchor="end" font-size="13" font-family="'Times New Roman', serif" font-weight="300">1</text>

    <text x="186" y="123" text-anchor="start" font-family="Georgia, 'Times New Roman', serif" font-style="italic" font-size="13">x</text>

    <text x="47" y="13" text-anchor="end" font-family="Georgia, 'Times New Roman', serif" font-style="italic" font-size="13">y</text>
  </g>

  <!-- y = log_a(x), через (5; -1) => a = 1/5
       функция не рисуется правее x=6.5 (x_svg=180)
       выше y=4.5 (y_svg=20) не рисуем -->
  <g stroke="#2d70b3" stroke-width="1.25" fill="none" stroke-linecap="round" stroke-linejoin="round">
    <path d="M 50.014 20 C 50.015 20.764 50.018 23.056 50.021 24.583 C 50.023 26.111 50.027 27.639 50.03 29.167 C 50.033 30.694 50.038 32.222 50.043 33.75 C 50.047 35.278 50.055 36.806 50.063 38.333 C 50.07 39.861 50.08 41.389 50.09 42.917 C 50.1 44.444 50.114 45.972 50.131 47.5 C 50.148 49.028 50.168 50.556 50.189 52.083 C 50.21 53.611 50.238 55.139 50.273 56.667 C 50.308 58.194 50.348 59.722 50.395 61.25 C 50.443 62.778 50.503 64.306 50.571 65.833 C 50.639 67.361 50.721 68.889 50.826 70.417 C 50.931 71.944 51.054 73.472 51.194 75 C 51.333 76.528 51.507 78.056 51.726 79.583 C 51.944 81.111 52.199 82.639 52.494 84.167 C 52.789 85.694 53.141 87.222 53.606 88.75 C 54.071 90.278 54.595 91.806 55.212 93.333 C 55.829 94.861 56.543 96.389 57.535 97.917 C 58.527 99.444 59.601 100.972 60.892 102.5 C 62.183 104.028 63.682 105.556 65.746 107.083 C 67.81 108.611 70.063 110.139 72.763 111.667 C 75.463 113.194 78.63 114.722 82.907 116.25 C 87.184 117.778 91.867 119.306 97.572 120.833 C 103.278 122.361 109.624 123.889 118.774 125.417 C 127.924 126.944 138.364 128.472 150 130 C 151.105 130.173 152.043 130.26 153.198 130.391 C 154.353 130.521 155.757 130.652 156.499 130.782 C 157.241 130.913 158.241 131.043 158.758 131.043 C 159.275 131.043 160.4 131.174 161.065 131.304 C 161.73 131.435 162.759 131.565 163.421 131.565 C 164.083 131.565 165.269 131.695 165.826 131.826 C 166.383 131.956 167.667 132.087 168.282 132.087 C 168.897 132.087 170.14 132.217 170.79 132.347 C 171.441 132.478 172.71 132.608 173.35 132.608 C 173.99 132.608 175.315 132.739 175.965 132.869 C 176.616 132.999 178.02 133.13 178.634 133.13 C 179.249 133.13 179.773 133.239 180 133.26"></path>
  </g>

  <!-- точка (5; -1) -->
  <circle cx="150" cy="130" r="2.2" fill="#2d70b3"></circle>

  <!-- стрелка оси x поверх функции -->
  <g stroke="#111827" stroke-width="1.25">
    <line x1="175" y1="110" x2="190" y2="110" marker-end="url(#axis-arrow)"></line>
  </g>

  <!-- подпись f(x) -->
  <text x="67" y="83" font-family="Georgia, 'Times New Roman', serif" font-style="italic" font-size="13" fill="#2d70b3">
    f(x)
  </text>

</svg>
