<svg xmlns="http://www.w3.org/2000/svg" width="220" height="220" viewBox="0 0 220 220">

  <rect x="0" y="0" width="220" height="220" fill="white"></rect>

  <defs>
    <marker id="axis-arrow" viewBox="0 0 15 8" refX="13" refY="4" markerWidth="12" markerHeight="6.4" orient="auto" markerUnits="userSpaceOnUse">
      <path d="M 3 0 L 15 4 L 3 8 L 7 4 Z" fill="black"></path>
    </marker>
  </defs>

  <!-- сетка: x от -2 до 7, y от -5 до 5 -->
  <g stroke="#d1d5db" stroke-width="0.5" shape-rendering="crispEdges">
    <line x1="30" y1="10" x2="30" y2="210"></line>
    <line x1="50" y1="10" x2="50" y2="210"></line>
    <line x1="70" y1="10" x2="70" y2="210"></line>
    <line x1="90" y1="10" x2="90" y2="210"></line>
    <line x1="110" y1="10" x2="110" y2="210"></line>
    <line x1="130" y1="10" x2="130" y2="210"></line>
    <line x1="150" y1="10" x2="150" y2="210"></line>
    <line x1="170" y1="10" x2="170" y2="210"></line>

    <line x1="10" y1="30" x2="190" y2="30"></line>
    <line x1="10" y1="50" x2="190" y2="50"></line>
    <line x1="10" y1="70" x2="190" y2="70"></line>
    <line x1="10" y1="90" x2="190" y2="90"></line>
    <line x1="10" y1="110" x2="190" y2="110"></line>
    <line x1="10" y1="130" x2="190" y2="130"></line>
    <line x1="10" y1="150" x2="190" y2="150"></line>
    <line x1="10" y1="170" x2="190" y2="170"></line>
    <line x1="10" y1="190" x2="190" y2="190"></line>
  </g>

  <!-- оси (0,0) -> (50,110), ось x до 7 (до 190px) -->
  <g stroke="#111827" stroke-width="1.25">
    <line x1="10" y1="110" x2="190" y2="110"></line>
    <line x1="50" y1="210" x2="50" y2="10" marker-end="url(#axis-arrow)"></line>
  </g>

  <!-- подписи осей и делений -->
  <g font-family="sans-serif" font-size="11" fill="#111827">
    <text x="46" y="123" text-anchor="end" font-size="13" font-style="italic" font-family="Georgia, 'Times New Roman', serif">O</text>

    <rect x="67" y="113" width="7" height="12" fill="white"></rect>
    <text x="70" y="124" text-anchor="middle" font-size="13" font-family="'Times New Roman', serif" font-weight="300">1</text>

    <text x="43" y="94" text-anchor="end" font-size="13" font-family="'Times New Roman', serif" font-weight="300">1</text>

    <text x="186" y="123" text-anchor="start" font-family="Georgia, 'Times New Roman', serif" font-style="italic" font-size="13">x</text>

    <text x="47" y="13" text-anchor="end" font-family="Georgia, 'Times New Roman', serif" font-style="italic" font-size="13">y</text>
  </g>

  <!-- y = log_a(x), через (3; -1) => a = 1/3
       функция не рисуется правее x=6.5 (x_svg=180)
       выше y=4.5 (y_svg=20) не рисуем -->
  <g stroke="#2d70b3" stroke-width="1.25" fill="none" stroke-linecap="round" stroke-linejoin="round">
    <path d="M 50.143 20 C 50.149 20.733 50.167 22.933 50.182 24.4 C 50.196 25.867 50.214 27.333 50.231 28.8 C 50.248 30.267 50.268 31.733 50.294 33.2 C 50.318 34.667 50.344 36.133 50.375 37.6 C 50.409 39.067 50.445 40.533 50.477 42 C 50.51 43.467 50.567 44.933 50.608 46.4 C 50.65 47.867 50.714 49.333 50.774 50.8 C 50.833 52.267 50.909 53.733 50.986 55.2 C 51.062 56.667 51.165 58.133 51.255 59.6 C 51.346 61.067 51.484 62.533 51.598 64 C 51.711 65.467 51.895 66.933 52.035 68.4 C 52.176 69.867 52.376 71.333 52.591 72.8 C 52.807 74.267 53.041 75.733 53.299 77.2 C 53.557 78.667 53.882 80.133 54.2 81.6 C 54.517 83.067 54.918 84.533 55.349 86 C 55.78 87.467 56.281 88.933 56.811 90.4 C 57.342 91.867 57.977 93.333 58.672 94.8 C 59.367 96.267 60.161 97.733 61.043 99.2 C 61.926 100.667 62.959 102.133 64.062 103.6 C 65.165 105.067 66.46 106.533 67.906 108 C 69.353 109.467 70.989 110.933 72.801 112.4 C 74.613 113.867 76.667 115.333 79.035 116.8 C 81.402 118.267 84.032 119.733 86.973 121.2 C 89.914 122.667 93.263 124.133 97.118 125.6 C 100.973 127.067 105.38 128.533 110 130 C 111.272 130.4 112.631 130.8 113.993 131.173 C 115.355 131.546 117.394 132.105 118.253 132.346 C 119.112 132.586 120.175 132.88 120.488 132.932 C 120.802 132.984 122.396 133.453 122.797 133.519 C 123.198 133.586 124.784 134.053 125.181 134.105 C 125.579 134.156 127.197 134.627 127.643 134.692 C 128.09 134.757 129.764 135.227 130.187 135.278 C 130.611 135.329 132.388 135.8 132.813 135.865 C 133.238 135.93 135.053 136.4 135.527 136.451 C 136.002 136.502 137.853 136.973 138.329 137.038 C 138.805 137.103 140.724 137.573 141.223 137.624 C 141.721 137.675 143.706 138.145 144.213 138.21 C 144.72 138.276 146.795 138.746 147.302 138.797 C 147.809 138.848 149.967 139.318 150.493 139.383 C 151.019 139.449 153.263 139.919 153.791 139.97 C 154.319 140.022 156.662 140.492 157.197 140.556 C 157.732 140.621 160.175 141.092 160.718 141.143 C 161.261 141.194 163.812 141.664 164.356 141.729 C 164.9 141.794 167.559 142.264 168.116 142.315 C 168.673 142.367 171.415 142.836 171.888 142.903 C 172.361 142.969 175.148 143.423 175.879 143.489 C 176.61 143.554 179.313 143.978 180 144.076"></path>
  </g>

  <!-- точка (3; -1) -->
  <circle cx="110" cy="130" r="2.2" fill="#2d70b3"></circle>

  <!-- стрелка оси x поверх функции -->
  <g stroke="#111827" stroke-width="1.25">
    <line x1="175" y1="110" x2="190" y2="110" marker-end="url(#axis-arrow)"></line>
  </g>

  <!-- подпись f(x) -->
  <text x="67" y="83" font-family="Georgia, 'Times New Roman', serif" font-style="italic" font-size="13" fill="#2d70b3">
    f(x)
  </text>

</svg>
