<svg xmlns="http://www.w3.org/2000/svg" width="220" height="220" viewBox="0 0 220 220">
  <rect x="0" y="0" width="220" height="220" fill="white" />

  <defs>
    <marker id="axis-arrow"
            viewBox="0 0 15 8"
            refX="13" refY="4"
            markerWidth="12" markerHeight="6.4"
            orient="auto"
            markerUnits="userSpaceOnUse">
      <path d="M 3 0 L 15 4 L 3 8 L 7 4 Z" fill="black" />
    </marker>
  </defs>

  <!-- сетка: x от -2 до 7, y от -5 до 5 -->
  <g stroke="#d1d5db" stroke-width="0.5" shape-rendering="crispEdges">
    <line x1="30"  y1="10" x2="30"  y2="210" />
    <line x1="50"  y1="10" x2="50"  y2="210" />
    <line x1="70"  y1="10" x2="70"  y2="210" />
    <line x1="90"  y1="10" x2="90"  y2="210" />
    <line x1="110" y1="10" x2="110" y2="210" />
    <line x1="130" y1="10" x2="130" y2="210" />
    <line x1="150" y1="10" x2="150"  y2="210" />
    <line x1="170" y1="10" x2="170" y2="210" />

    <line x1="10" y1="30"  x2="190" y2="30"  />
    <line x1="10" y1="50"  x2="190" y2="50"  />
    <line x1="10" y1="70"  x2="190" y2="70"  />
    <line x1="10" y1="90"  x2="190" y2="90"  />
    <line x1="10" y1="110" x2="190" y2="110" />
    <line x1="10" y1="130" x2="190" y2="130" />
    <line x1="10" y1="150" x2="190" y2="150" />
    <line x1="10" y1="170" x2="190" y2="170" />
    <line x1="10" y1="190" x2="190" y2="190" />
  </g>

  <!-- оси -->
  <g stroke="#111827" stroke-width="1.25">
    <line x1="10" y1="110" x2="190" y2="110" />
    <line x1="50" y1="210" x2="50" y2="10" marker-end="url(#axis-arrow)" />
  </g>

  <!-- подписи осей и делений -->
  <g font-family="sans-serif" font-size="11" fill="#111827">
    <text x="46" y="123" text-anchor="end"
          font-size="13" font-style="italic"
          font-family="Georgia, 'Times New Roman', serif">O</text>

    <rect x="67" y="113" width="7" height="12" fill="white" />
    <text x="70" y="124" text-anchor="middle" font-size="13"
          font-family="'Times New Roman', serif"
          font-weight="300">1</text>

    <text x="43" y="94" text-anchor="end" font-size="13"
          font-family="'Times New Roman', serif"
          font-weight="300">1</text>

    <text x="186" y="123" text-anchor="start"
          font-family="Georgia, 'Times New Roman', serif"
          font-style="italic" font-size="13">x</text>

    <text x="47" y="13" text-anchor="end"
          font-family="Georgia, 'Times New Roman', serif"
          font-style="italic" font-size="13">y</text>
  </g>

  <!-- интерполяция (PCHIP) по точкам -->
  <g stroke="#2d70b3" stroke-width="1.25" fill="none"
     stroke-linecap="round" stroke-linejoin="round">
    <polyline points="
      50.014,200.000
      50.177,168.742
      50.340,160.649
      50.502,155.786
      50.665,152.299
      50.828,149.572
      50.990,147.351
      51.153,145.456
      51.316,143.812
      51.478,142.373
      51.641,141.073
      51.804,139.892
      51.967,138.819
      52.129,137.840
      52.292,136.925
      52.455,136.068
      52.617,135.267
      52.780,134.516
      52.943,133.813
      53.105,133.151
      53.268,132.517
      53.431,131.911
      53.593,131.332
      53.756,130.779
      53.919,130.250
      54.081,129.744
      54.244,129.261
      54.407,128.798
      54.570,128.351
      54.732,127.917
      54.895,127.496
      55.058,127.088
      55.220,126.692
      55.383,126.308
      55.546,125.936
      55.708,125.576
      55.871,125.226
      56.034,124.887
      56.196,124.558
      56.359,124.239
      56.522,123.928
      56.684,123.624
      56.847,123.326
      57.010,123.034
      57.172,122.748
      57.335,122.468
      57.498,122.194
      57.661,121.926
      57.823,121.663
      57.986,121.406
      58.149,121.154
      58.311,120.907
      58.474,120.666
      58.637,120.429
      58.799,120.198
      58.962,119.971
      59.125,119.749
      59.287,119.532
      59.450,119.318
      59.613,119.108
      59.775,118.900
      59.938,118.696
      60.101,118.494
      60.264,118.296
      60.426,118.100
      60.589,117.907
      60.752,117.717
      60.914,117.529
      61.077,117.344
      61.240,117.162
      61.402,116.982
      61.565,116.805
      61.728,116.630
      61.890,116.458
      62.053,116.289
      62.216,116.121
      62.378,115.957
      62.541,115.794
      62.704,115.634
      62.866,115.476
      63.029,115.321
      63.192,115.167
      63.355,115.016
      63.517,114.867
      63.680,114.720
      63.843,114.575
      64.005,114.431
      64.168,114.289
      64.331,114.148
      64.493,114.009
      64.656,113.871
      64.819,113.734
      64.981,113.599
      65.144,113.466
      65.307,113.333
      65.469,113.202
      65.632,113.072
      65.795,112.944
      65.957,112.817
      66.120,112.691
      66.283,112.566
      66.446,112.443
      66.608,112.320
      66.771,112.199
      66.934,112.079
      67.096,111.960
      67.259,111.842
      67.422,111.725
      67.584,111.610
      67.747,111.495
      67.910,111.381
      68.072,111.269
      68.235,111.157
      68.398,111.046
      68.560,110.936
      68.723,110.827
      68.886,110.719
      69.049,110.612
      69.211,110.505
      69.374,110.399
      69.537,110.295
      69.699,110.190
      69.862,110.087
      70.025,109.985
      70.187,109.883
      70.350,109.782
      70.513,109.682
      70.675,109.583
      70.838,109.485
      71.001,109.388
      71.163,109.291
      71.326,109.196
      71.489,109.101
      71.651,109.007
      71.814,108.914
      71.977,108.822
      72.140,108.731
      72.302,108.640
      72.465,108.550
      72.628,108.460
      72.790,108.372
      72.953,108.284
      73.116,108.196
      73.278,108.110
      73.441,108.024
      73.604,107.938
      73.766,107.853
      73.929,107.769
      74.092,107.685
      74.254,107.602
      74.417,107.519
      74.580,107.437
      74.743,107.356
      74.905,107.274
      75.068,107.194
      75.231,107.113
      75.393,107.034
      75.556,106.954
      75.719,106.875
      75.881,106.796
      76.044,106.718
      76.207,106.641
      76.369,106.563
      76.532,106.487
      76.695,106.411
      76.857,106.335
      77.020,106.260
      77.183,106.185
      77.345,106.111
      77.508,106.037
      77.671,105.964
      77.834,105.891
      77.996,105.819
      78.159,105.747
      78.322,105.676
      78.484,105.605
      78.647,105.534
      78.810,105.464
      78.972,105.394
      79.135,105.324
      79.298,105.255
      79.460,105.187
      79.623,105.118
      79.786,105.050
      79.948,104.983
      80.111,104.916
      80.274,104.849
      80.437,104.782
      80.599,104.716
      80.762,104.650
      80.925,104.585
      81.087,104.519
      81.250,104.454
      81.413,104.390
      81.575,104.325
      81.738,104.261
      81.901,104.198
      82.063,104.134
      82.226,104.071
      82.389,104.009
      82.551,103.946
      82.714,103.884
      82.877,103.823
      83.039,103.761
      83.202,103.700
      83.365,103.640
      83.528,103.579
      83.690,103.519
      83.853,103.459
      84.016,103.400
      84.178,103.340
      84.341,103.282
      84.504,103.223
      84.666,103.164
      84.829,103.106
      84.992,103.049
      85.154,102.991
      85.317,102.934
      85.480,102.877
      85.642,102.820
      85.805,102.763
      85.968,102.707
      86.130,102.651
      86.293,102.595
      86.456,102.540
      86.619,102.484
      86.781,102.429
      86.944,102.374
      87.107,102.320
      87.269,102.265
      87.432,102.211
      87.595,102.157
      87.757,102.103
      87.920,102.050
      88.083,101.996
      88.245,101.943
      88.408,101.891
      88.571,101.838
      88.733,101.786
      88.896,101.734
      89.059,101.682
      89.222,101.630
      89.384,101.579
      89.547,101.528
      89.710,101.477
      89.872,101.426
      90.035,101.375
      90.198,101.325
      90.360,101.275
      90.523,101.225
      90.686,101.175
      90.848,101.126
      91.011,101.076
      91.174,101.027
      91.336,100.978
      91.499,100.929
      91.662,100.881
      91.824,100.832
      91.987,100.784
      92.150,100.736
      92.313,100.688
      92.475,100.641
      92.638,100.593
      92.801,100.546
      92.963,100.498
      93.126,100.451
      93.289,100.405
      93.451,100.358
      93.614,100.311
      93.777,100.265
      93.939,100.219
      94.102,100.173
      94.265,100.127
      94.427,100.082
      94.590,100.036
      94.753,99.991
      94.916,99.946
      95.078,99.901
      95.241,99.856
      95.404,99.812
      95.566,99.767
      95.729,99.723
      95.892,99.679
      96.054,99.635
      96.217,99.591
      96.380,99.547
      96.542,99.504
      96.705,99.461
      96.868,99.417
      97.030,99.374
      97.193,99.332
      97.356,99.289
      97.518,99.246
      97.681,99.204
      97.844,99.161
      98.007,99.119
      98.169,99.077
      98.332,99.035
      98.495,98.994
      98.657,98.952
      98.820,98.910
      98.983,98.869
      99.145,98.828
      99.308,98.787
      99.471,98.746
      99.633,98.705
      99.796,98.664
      99.959,98.624
      100.121,98.583
      100.284,98.543
      100.447,98.503
      100.609,98.463
      100.772,98.423
      100.935,98.383
      101.098,98.344
      101.260,98.304
      101.423,98.265
      101.586,98.225
      101.748,98.186
      101.911,98.147
      102.074,98.108
      102.236,98.070
      102.399,98.031
      102.562,97.993
      102.724,97.954
      102.887,97.916
      103.050,97.878
      103.212,97.840
      103.375,97.802
      103.538,97.764
      103.701,97.726
      103.863,97.689
      104.026,97.651
      104.189,97.614
      104.351,97.577
      104.514,97.539
      104.677,97.502
      104.839,97.465
      105.002,97.429
      105.165,97.392
      105.327,97.355
      105.490,97.319
      105.653,97.282
      105.815,97.246
      105.978,97.210
      106.141,97.174
      106.303,97.138
      106.466,97.102
      106.629,97.066
      106.792,97.031
      106.954,96.995
      107.117,96.960
      107.280,96.924
      107.442,96.889
      107.605,96.854
      107.768,96.819
      107.930,96.784
      108.093,96.749
      108.256,96.714
      108.418,96.680
      108.581,96.645
      108.744,96.611
      108.906,96.576
      109.069,96.542
      109.232,96.508
      109.395,96.474
      109.557,96.440
      109.720,96.406
      109.883,96.372
      110.045,96.339
      110.208,96.305
      110.371,96.271
      110.533,96.238
      110.696,96.205
      110.859,96.171
      111.021,96.138
      111.184,96.105
      111.347,96.072
      111.509,96.039
      111.672,96.006
      111.835,95.973
      111.997,95.941
      112.160,95.908
      112.323,95.876
      112.486,95.843
      112.648,95.811
      112.811,95.779
      112.974,95.747
      113.136,95.715
      113.299,95.683
      113.462,95.651
      113.624,95.619
      113.787,95.587
      113.950,95.556
      114.112,95.524
      114.275,95.493
      114.438,95.461
      114.600,95.430
      114.763,95.399
      114.926,95.367
      115.089,95.336
      115.251,95.305
      115.414,95.274
      115.577,95.244
      115.739,95.213
      115.902,95.182
      116.065,95.151
      116.227,95.121
      116.390,95.090
      116.553,95.060
      116.715,95.029
      116.878,94.999
      117.041,94.969
      117.203,94.939
      117.366,94.909
      117.529,94.879
      117.691,94.849
      117.854,94.819
      118.017,94.789
      118.180,94.760
      118.342,94.730
      118.505,94.701
      118.668,94.671
      118.830,94.642
      118.993,94.612
      119.156,94.583
      119.318,94.554
      119.481,94.525
      119.644,94.496
      119.806,94.467
      119.969,94.438
      120.132,94.409
      120.294,94.380
      120.457,94.351
      120.620,94.323
      120.782,94.294
      120.945,94.266
      121.108,94.237
      121.271,94.209
      121.433,94.180
      121.596,94.152
      121.759,94.124
      121.921,94.096
      122.084,94.068
      122.247,94.040
      122.409,94.012
      122.572,93.984
      122.735,93.956
      122.897,93.928
      123.060,93.901
      123.223,93.873
      123.385,93.845
      123.548,93.818
      123.711,93.790
      123.874,93.763
      124.036,93.736
      124.199,93.708
      124.362,93.681
      124.524,93.654
      124.687,93.627
      124.850,93.600
      125.012,93.573
      125.175,93.546
      125.338,93.519
      125.500,93.492
      125.663,93.466
      125.826,93.439
      125.988,93.412
      126.151,93.386
      126.314,93.359
      126.476,93.333
      126.639,93.306
      126.802,93.280
      126.965,93.254
      127.127,93.227
      127.290,93.201
      127.453,93.175
      127.615,93.149
      127.778,93.123
      127.941,93.097
      128.103,93.071
      128.266,93.045
      128.429,93.019
      128.591,92.994
      128.754,92.968
      128.917,92.942
      129.079,92.917
      129.242,92.891
      129.405,92.866
      129.568,92.840
      129.730,92.815
      129.893,92.790
      130.056,92.764
      130.218,92.739
      130.381,92.714
      130.544,92.689
      130.706,92.664
      130.869,92.639
      131.032,92.614
      131.194,92.589
      131.357,92.564
      131.520,92.539
      131.682,92.514
      131.845,92.490
      132.008,92.465
      132.170,92.440
      132.333,92.416
      132.496,92.391
      132.659,92.367
      132.821,92.342
      132.984,92.318
      133.147,92.294
      133.309,92.269
      133.472,92.245
      133.635,92.221
      133.797,92.197
      133.960,92.173
      134.123,92.148
      134.285,92.124
      134.448,92.100
      134.611,92.077
      134.773,92.053
      134.936,92.029
      135.099,92.005
      135.261,91.981
      135.424,91.958
      135.587,91.934
      135.750,91.910
      135.912,91.887
      136.075,91.863
      136.238,91.840
      136.400,91.817
      136.563,91.793
      136.726,91.770
      136.888,91.747
      137.051,91.723
      137.214,91.700
      137.376,91.677
      137.539,91.654
      137.702,91.631
      137.864,91.608
      138.027,91.585
      138.190,91.562
      138.353,91.539
      138.515,91.516
      138.678,91.493
      138.841,91.470
      139.003,91.448
      139.166,91.425
      139.329,91.402
      139.491,91.380
      139.654,91.357
      139.817,91.335
      139.979,91.312
      140.142,91.290
      140.305,91.267
      140.467,91.245
      140.630,91.223
      140.793,91.200
      140.955,91.178
      141.118,91.156
      141.281,91.134
      141.444,91.112
      141.606,91.089
      141.769,91.067
      141.932,91.045
      142.094,91.023
      142.257,91.001
      142.420,90.980
      142.582,90.958
      142.745,90.936
      142.908,90.914
      143.070,90.892
      143.233,90.871
      143.396,90.849
      143.558,90.827
      143.721,90.806
      143.884,90.784
      144.047,90.763
      144.209,90.741
      144.372,90.720
      144.535,90.698
      144.697,90.677
      144.860,90.656
      145.023,90.634
      145.185,90.613
      145.348,90.592
      145.511,90.571
      145.673,90.550
      145.836,90.529
      145.999,90.507
      146.161,90.486
      146.324,90.465
      146.487,90.444
      146.649,90.423
      146.812,90.403
      146.975,90.382
      147.138,90.361
      147.300,90.340
      147.463,90.319
      147.626,90.299
      147.788,90.278
      147.951,90.257
      148.114,90.237
      148.276,90.216
      148.439,90.196
      148.602,90.175
      148.764,90.155
      148.927,90.134
      149.090,90.114
      149.252,90.093
      149.415,90.073
      149.578,90.053
      149.741,90.032
      149.903,90.012
      150.066,89.992
      150.229,89.972
      150.391,89.951
      150.554,89.931
      150.717,89.911
      150.879,89.891
      151.042,89.871
      151.205,89.851
      151.367,89.831
      151.530,89.811
      151.693,89.791
      151.855,89.772
      152.018,89.752
      152.181,89.732
      152.343,89.712
      152.506,89.692
      152.669,89.673
      152.832,89.653
      152.994,89.633
      153.157,89.614
      153.320,89.594
      153.482,89.575
      153.645,89.555
      153.808,89.536
      153.970,89.516
      154.133,89.497
      154.296,89.477
      154.458,89.458
      154.621,89.439
      154.784,89.419
      154.946,89.400
      155.109,89.381
      155.272,89.362
      155.434,89.342
      155.597,89.323
      155.760,89.304
      155.923,89.285
      156.085,89.266
      156.248,89.247
      156.411,89.228
      156.573,89.209
      156.736,89.190
      156.899,89.171
      157.061,89.152
      157.224,89.133
      157.387,89.114
      157.549,89.096
      157.712,89.077
      157.875,89.058
      158.037,89.039
      158.200,89.021
      158.363,89.002
      158.526,88.983
      158.688,88.965
      158.851,88.946
      159.014,88.928
      159.176,88.909
      159.339,88.891
      159.502,88.872
      159.664,88.854
      159.827,88.835
      159.990,88.817
      160.152,88.798
      160.315,88.780
      160.478,88.762
      160.640,88.743
      160.803,88.725
      160.966,88.707
      161.128,88.689
      161.291,88.671
      161.454,88.652
      161.617,88.634
      161.779,88.616
      161.942,88.598
      162.105,88.580
      162.267,88.562
      162.430,88.544
      162.593,88.526
      162.755,88.508
      162.918,88.490
      163.081,88.472
      163.243,88.454
      163.406,88.437
      163.569,88.419
      163.731,88.401
      163.894,88.383
      164.057,88.366
      164.220,88.348
      164.382,88.330
      164.545,88.312
      164.708,88.295
      164.870,88.277
      165.033,88.260
      165.196,88.242
      165.358,88.225
      165.521,88.207
      165.684,88.190
      165.846,88.172
      166.009,88.155
      166.172,88.137
      166.334,88.120
      166.497,88.102
      166.660,88.085
      166.822,88.068
      166.985,88.051
      167.148,88.033
      167.311,88.016
      167.473,87.999
      167.636,87.982
      167.799,87.964
      167.961,87.947
      168.124,87.930
      168.287,87.913
      168.449,87.896
      168.612,87.879
      168.775,87.862
      168.937,87.845
      169.100,87.828
      169.263,87.811
      169.425,87.794
      169.588,87.777
      169.751,87.760
      169.914,87.743
      170.076,87.726
      170.239,87.710
      170.402,87.693
      170.564,87.676
      170.727,87.659
      170.890,87.643
      171.052,87.626
      171.215,87.609
      171.378,87.592
      171.540,87.576
      171.703,87.559
      171.866,87.543
      172.028,87.526
      172.191,87.509
      172.354,87.493
      172.516,87.476
      172.679,87.460
      172.842,87.443
      173.005,87.427
      173.167,87.411
      173.330,87.394
      173.493,87.378
      173.655,87.361
      173.818,87.345
      173.981,87.329
      174.143,87.313
      174.306,87.296
      174.469,87.280
      174.631,87.264
      174.794,87.248
      174.957,87.232
      175.119,87.215
      175.282,87.199
      175.445,87.183
      175.607,87.167
      175.770,87.151
      175.933,87.135
      176.096,87.120
      176.258,87.104
      176.421,87.088
      176.584,87.072
      176.746,87.056
      176.909,87.040
      177.072,87.024
      177.234,87.009
      177.397,86.993
      177.560,86.977
      177.722,86.961
      177.885,86.945
      178.048,86.930
      178.210,86.914
      178.373,86.898
      178.536,86.882
      178.699,86.866
      178.861,86.851
      179.024,86.835
      179.187,86.819
      179.349,86.803
      179.512,86.787
      179.675,86.771
      179.837,86.756
      180.000,86.740
    " />
  </g>

  <!-- точка (4;1) -->
  <circle cx="150" cy="90" r="2.2" fill="#2d70b3" stroke="#2d70b3" stroke-width="0.6" />

  <!-- стрелка оси x поверх графика -->
  <g stroke="#111827" stroke-width="1.25">
    <line x1="175" y1="110" x2="190" y2="110" marker-end="url(#axis-arrow)" />
  </g>

  <!-- подпись -->
  <text x="77" y="93"
        font-family="Georgia, 'Times New Roman', serif"
        font-style="italic"
        font-size="13"
        fill="#2d70b3">f(x)</text>
</svg>
