<svg xmlns="http://www.w3.org/2000/svg" width="220" height="220" viewBox="0 0 220 220">
  <rect x="0" y="0" width="220" height="220" fill="white" />

  <defs>
    <marker id="axis-arrow"
            viewBox="0 0 15 8"
            refX="13" refY="4"
            markerWidth="12" markerHeight="6.4"
            orient="auto"
            markerUnits="userSpaceOnUse">
      <path d="M 3 0 L 15 4 L 3 8 L 7 4 Z" fill="black" />
    </marker>
  </defs>

  <!-- сетка: x от -2 до 7, y от -5 до 5 -->
  <g stroke="#d1d5db" stroke-width="0.5" shape-rendering="crispEdges">
    <line x1="30"  y1="10" x2="30"  y2="210" />
    <line x1="50"  y1="10" x2="50"  y2="210" />
    <line x1="70"  y1="10" x2="70"  y2="210" />
    <line x1="90"  y1="10" x2="90"  y2="210" />
    <line x1="110" y1="10" x2="110" y2="210" />
    <line x1="130" y1="10" x2="130" y2="210" />
    <line x1="150" y1="10" x2="150" y2="210" />
    <line x1="170" y1="10" x2="170" y2="210" />

    <line x1="10" y1="30"  x2="190" y2="30"  />
    <line x1="10" y1="50"  x2="190" y2="50"  />
    <line x1="10" y1="70"  x2="190" y2="70"  />
    <line x1="10" y1="90"  x2="190" y2="90"  />
    <line x1="10" y1="110" x2="190" y2="110" />
    <line x1="10" y1="130" x2="190" y2="130" />
    <line x1="10" y1="150" x2="190" y2="150" />
    <line x1="10" y1="170" x2="190" y2="170" />
    <line x1="10" y1="190" x2="190" y2="190" />
  </g>

  <!-- оси -->
  <g stroke="#111827" stroke-width="1.25">
    <line x1="10" y1="110" x2="190" y2="110" />
    <line x1="50" y1="210" x2="50" y2="10" marker-end="url(#axis-arrow)" />
  </g>

  <!-- подписи осей и делений -->
  <g font-family="sans-serif" font-size="11" fill="#111827">
    <text x="46" y="123" text-anchor="end"
          font-size="13" font-style="italic"
          font-family="Georgia, 'Times New Roman', serif">O</text>

    <rect x="67" y="113" width="7" height="12" fill="white" />
    <text x="70" y="124" text-anchor="middle" font-size="13"
          font-family="'Times New Roman', serif"
          font-weight="300">1</text>

    <text x="43" y="94" text-anchor="end" font-size="13"
          font-family="'Times New Roman', serif"
          font-weight="300">1</text>

    <text x="186" y="123" text-anchor="start"
          font-family="Georgia, 'Times New Roman', serif"
          font-style="italic" font-size="13">x</text>

    <text x="47" y="13" text-anchor="end"
          font-family="Georgia, 'Times New Roman', serif"
          font-style="italic" font-size="13">y</text>
  </g>

  <!-- интерполяция (PCHIP) по исходным точкам, отрисовка ломаной с мелким шагом -->
  <g stroke="#2d70b3" stroke-width="1.25" fill="none"
     stroke-linecap="round" stroke-linejoin="round">
    <polyline points="
      50.143,199.999
      50.359,183.168
      50.576,174.577
      50.793,168.759
      51.010,164.360
      51.227,160.822
      51.443,157.855
      51.660,155.310
      51.877,153.073
      52.094,151.087
      52.310,149.289
      52.527,147.660
      52.744,146.162
      52.961,144.774
      53.178,143.488
      53.394,142.291
      53.611,141.162
      53.828,140.098
      54.045,139.094
      54.262,138.148
      54.478,137.246
      54.695,136.383
      54.912,135.559
      55.129,134.772
      55.346,134.019
      55.562,133.299
      55.779,132.604
      55.996,131.932
      56.213,131.284
      56.429,130.658
      56.646,130.053
      56.863,129.469
      57.080,128.905
      57.297,128.358
      57.513,127.826
      57.730,127.307
      57.947,126.802
      58.164,126.311
      58.381,125.833
      58.597,125.367
      58.814,124.914
      59.031,124.473
      59.248,124.043
      59.465,123.623
      59.681,123.211
      59.898,122.807
      60.115,122.412
      60.332,122.025
      60.548,121.646
      60.765,121.275
      60.982,120.911
      61.199,120.555
      61.416,120.206
      61.632,119.864
      61.849,119.529
      62.066,119.201
      62.283,118.878
      62.500,118.559
      62.716,118.246
      62.933,117.938
      63.150,117.635
      63.367,117.336
      63.584,117.043
      63.800,116.754
      64.017,116.469
      64.234,116.189
      64.451,115.914
      64.668,115.643
      64.884,115.376
      65.101,115.113
      65.318,114.855
      65.535,114.600
      65.751,114.349
      65.968,114.101
      66.185,113.856
      66.402,113.613
      66.619,113.374
      66.835,113.138
      67.052,112.905
      67.269,112.674
      67.486,112.446
      67.703,112.222
      67.919,111.999
      68.136,111.780
      68.353,111.563
      68.570,111.349
      68.787,111.138
      69.003,110.929
      69.220,110.722
      69.437,110.518
      69.654,110.317
      69.870,110.118
      70.087,109.921
      70.304,109.726
      70.521,109.534
      70.738,109.343
      70.954,109.154
      71.171,108.967
      71.388,108.782
      71.605,108.599
      71.822,108.417
      72.038,108.237
      72.255,108.059
      72.472,107.882
      72.689,107.708
      72.906,107.535
      73.122,107.363
      73.339,107.193
      73.556,107.025
      73.773,106.858
      73.990,106.692
      74.206,106.528
      74.423,106.366
      74.640,106.204
      74.857,106.045
      75.073,105.886
      75.290,105.729
      75.507,105.573
      75.724,105.418
      75.941,105.265
      76.157,105.113
      76.374,104.962
      76.591,104.813
      76.808,104.665
      77.025,104.518
      77.241,104.372
      77.458,104.228
      77.675,104.085
      77.892,103.943
      78.109,103.802
      78.325,103.662
      78.542,103.524
      78.759,103.386
      78.976,103.250
      79.192,103.115
      79.409,102.980
      79.626,102.847
      79.843,102.714
      80.060,102.583
      80.276,102.452
      80.493,102.322
      80.710,102.193
      80.927,102.065
      81.144,101.938
      81.360,101.812
      81.577,101.686
      81.794,101.561
      82.011,101.437
      82.228,101.314
      82.444,101.192
      82.661,101.070
      82.878,100.950
      83.095,100.830
      83.311,100.711
      83.528,100.593
      83.745,100.476
      83.962,100.359
      84.179,100.244
      84.395,100.129
      84.612,100.015
      84.829,99.901
      85.046,99.788
      85.263,99.676
      85.479,99.565
      85.696,99.454
      85.913,99.344
      86.130,99.234
      86.347,99.125
      86.563,99.017
      86.780,98.910
      86.997,98.802
      87.214,98.696
      87.431,98.590
      87.647,98.485
      87.864,98.380
      88.081,98.276
      88.298,98.173
      88.514,98.070
      88.731,97.968
      88.948,97.866
      89.165,97.765
      89.382,97.665
      89.598,97.565
      89.815,97.466
      90.032,97.367
      90.249,97.269
      90.466,97.171
      90.682,97.074
      90.899,96.977
      91.116,96.881
      91.333,96.785
      91.550,96.690
      91.766,96.595
      91.983,96.501
      92.200,96.407
      92.417,96.314
      92.633,96.221
      92.850,96.129
      93.067,96.037
      93.284,95.945
      93.501,95.854
      93.717,95.763
      93.934,95.673
      94.151,95.583
      94.368,95.493
      94.585,95.404
      94.801,95.316
      95.018,95.228
      95.235,95.140
      95.452,95.053
      95.669,94.966
      95.885,94.880
      96.102,94.794
      96.319,94.708
      96.536,94.623
      96.752,94.538
      96.969,94.454
      97.186,94.370
      97.403,94.286
      97.620,94.203
      97.836,94.120
      98.053,94.037
      98.270,93.955
      98.487,93.873
      98.704,93.792
      98.920,93.711
      99.137,93.630
      99.354,93.549
      99.571,93.469
      99.788,93.390
      100.004,93.310
      100.221,93.231
      100.438,93.153
      100.655,93.075
      100.872,92.997
      101.088,92.919
      101.305,92.842
      101.522,92.765
      101.739,92.688
      101.955,92.612
      102.172,92.536
      102.389,92.460
      102.606,92.385
      102.823,92.310
      103.039,92.236
      103.256,92.161
      103.473,92.087
      103.690,92.014
      103.907,91.940
      104.123,91.867
      104.340,91.794
      104.557,91.722
      104.774,91.650
      104.991,91.578
      105.207,91.506
      105.424,91.435
      105.641,91.364
      105.858,91.293
      106.074,91.223
      106.291,91.153
      106.508,91.083
      106.725,91.014
      106.942,90.944
      107.158,90.875
      107.375,90.807
      107.592,90.738
      107.809,90.670
      108.026,90.603
      108.242,90.535
      108.459,90.468
      108.676,90.401
      108.893,90.334
      109.110,90.267
      109.326,90.201
      109.543,90.135
      109.760,90.070
      109.977,90.004
      110.193,89.939
      110.410,89.874
      110.627,89.809
      110.844,89.745
      111.061,89.681
      111.277,89.617
      111.494,89.553
      111.711,89.490
      111.928,89.427
      112.145,89.364
      112.361,89.301
      112.578,89.239
      112.795,89.177
      113.012,89.115
      113.229,89.053
      113.445,88.992
      113.662,88.930
      113.879,88.869
      114.096,88.809
      114.313,88.748
      114.529,88.688
      114.746,88.628
      114.963,88.568
      115.180,88.508
      115.396,88.449
      115.613,88.390
      115.830,88.331
      116.047,88.272
      116.264,88.213
      116.480,88.155
      116.697,88.097
      116.914,88.040
      117.131,87.982
      117.348,87.925
      117.564,87.869
      117.781,87.813
      117.998,87.756
      118.215,87.701
      118.432,87.645
      118.648,87.590
      118.865,87.534
      119.082,87.479
      119.299,87.424
      119.515,87.369
      119.732,87.314
      119.949,87.260
      120.166,87.205
      120.383,87.150
      120.599,87.096
      120.816,87.041
      121.033,86.986
      121.250,86.931
      121.467,86.877
      121.683,86.822
      121.900,86.767
      122.117,86.711
      122.334,86.656
      122.551,86.601
      122.767,86.545
      122.984,86.489
      123.201,86.433
      123.418,86.377
      123.635,86.321
      123.851,86.265
      124.068,86.210
      124.285,86.154
      124.502,86.098
      124.718,86.042
      124.935,85.986
      125.152,85.931
      125.369,85.875
      125.586,85.820
      125.802,85.765
      126.019,85.710
      126.236,85.655
      126.453,85.601
      126.670,85.547
      126.886,85.493
      127.103,85.440
      127.320,85.387
      127.537,85.334
      127.754,85.282
      127.970,85.230
      128.187,85.179
      128.404,85.128
      128.621,85.077
      128.837,85.026
      129.054,84.976
      129.271,84.926
      129.488,84.876
      129.705,84.826
      129.921,84.777
      130.138,84.727
      130.355,84.678
      130.572,84.629
      130.789,84.581
      131.005,84.532
      131.222,84.484
      131.439,84.436
      131.656,84.388
      131.873,84.340
      132.089,84.292
      132.306,84.244
      132.523,84.197
      132.740,84.149
      132.956,84.102
      133.173,84.054
      133.390,84.007
      133.607,83.960
      133.824,83.913
      134.040,83.866
      134.257,83.819
      134.474,83.772
      134.691,83.725
      134.908,83.679
      135.124,83.632
      135.341,83.586
      135.558,83.540
      135.775,83.494
      135.992,83.448
      136.208,83.402
      136.425,83.356
      136.642,83.311
      136.859,83.265
      137.076,83.220
      137.292,83.175
      137.509,83.130
      137.726,83.085
      137.943,83.040
      138.159,82.995
      138.376,82.950
      138.593,82.905
      138.810,82.861
      139.027,82.817
      139.243,82.772
      139.460,82.728
      139.677,82.684
      139.894,82.640
      140.111,82.596
      140.327,82.552
      140.544,82.509
      140.761,82.465
      140.978,82.422
      141.195,82.378
      141.411,82.335
      141.628,82.292
      141.845,82.249
      142.062,82.206
      142.278,82.163
      142.495,82.121
      142.712,82.078
      142.929,82.035
      143.146,81.993
      143.362,81.951
      143.579,81.908
      143.796,81.866
      144.013,81.824
      144.230,81.782
      144.446,81.740
      144.663,81.699
      144.880,81.657
      145.097,81.615
      145.314,81.574
      145.530,81.532
      145.747,81.491
      145.964,81.450
      146.181,81.409
      146.397,81.368
      146.614,81.327
      146.831,81.286
      147.048,81.245
      147.265,81.205
      147.481,81.164
      147.698,81.123
      147.915,81.083
      148.132,81.043
      148.349,81.003
      148.565,80.962
      148.782,80.922
      148.999,80.882
      149.216,80.843
      149.433,80.803
      149.649,80.763
      149.866,80.723
      150.083,80.684
      150.300,80.644
      150.517,80.605
      150.733,80.566
      150.950,80.527
      151.167,80.487
      151.384,80.448
      151.600,80.409
      151.817,80.371
      152.034,80.332
      152.251,80.293
      152.468,80.254
      152.684,80.216
      152.901,80.177
      153.118,80.139
      153.335,80.101
      153.552,80.062
      153.768,80.024
      153.985,79.986
      154.202,79.948
      154.419,79.910
      154.636,79.873
      154.852,79.835
      155.069,79.797
      155.286,79.759
      155.503,79.722
      155.719,79.684
      155.936,79.647
      156.153,79.610
      156.370,79.572
      156.587,79.535
      156.803,79.498
      157.020,79.461
      157.237,79.424
      157.454,79.387
      157.671,79.351
      157.887,79.314
      158.104,79.277
      158.321,79.241
      158.538,79.204
      158.755,79.168
      158.971,79.131
      159.188,79.095
      159.405,79.059
      159.622,79.023
      159.838,78.987
      160.055,78.951
      160.272,78.915
      160.489,78.879
      160.706,78.843
      160.922,78.807
      161.139,78.772
      161.356,78.736
      161.573,78.700
      161.790,78.665
      162.006,78.630
      162.223,78.594
      162.440,78.559
      162.657,78.524
      162.874,78.489
      163.090,78.453
      163.307,78.418
      163.524,78.383
      163.741,78.348
      163.958,78.314
      164.174,78.279
      164.391,78.244
      164.608,78.209
      164.825,78.175
      165.041,78.140
      165.258,78.105
      165.475,78.071
      165.692,78.037
      165.909,78.002
      166.125,77.968
      166.342,77.934
      166.559,77.900
      166.776,77.866
      166.993,77.832
      167.209,77.798
      167.426,77.765
      167.643,77.731
      167.860,77.698
      168.077,77.664
      168.293,77.631
      168.510,77.598
      168.727,77.565
      168.944,77.532
      169.160,77.499
      169.377,77.466
      169.594,77.433
      169.811,77.401
      170.028,77.368
      170.244,77.336
      170.461,77.304
      170.678,77.272
      170.895,77.239
      171.112,77.207
      171.328,77.175
      171.545,77.143
      171.762,77.111
      171.979,77.080
      172.196,77.048
      172.412,77.016
      172.629,76.984
      172.846,76.953
      173.063,76.921
      173.279,76.889
      173.496,76.858
      173.713,76.826
      173.930,76.794
      174.147,76.763
      174.363,76.731
      174.580,76.700
      174.797,76.668
      175.014,76.637
      175.231,76.606
      175.447,76.575
      175.664,76.543
      175.881,76.512
      176.098,76.481
      176.315,76.450
      176.531,76.419
      176.748,76.388
      176.965,76.357
      177.182,76.326
      177.399,76.295
      177.615,76.264
      177.832,76.234
      178.049,76.203
      178.266,76.172
      178.482,76.141
      178.699,76.110
      178.916,76.079
      179.133,76.048
      179.350,76.017
      179.566,75.986
      179.783,75.955
      180.000,75.924
    " />
  </g>
  <!-- точка (3;1) -->
  <circle cx="110" cy="90" r="2.2" fill="#2d70b3" stroke="#2d70b3" stroke-width="0.6" />

  <!-- стрелка оси x поверх графика -->
  <g stroke="#111827" stroke-width="1.25">
    <line x1="175" y1="110" x2="190" y2="110" marker-end="url(#axis-arrow)" />
  </g>

  <!-- подпись -->
  <text x="77" y="90"
        font-family="Georgia, 'Times New Roman', serif"
        font-style="italic"
        font-size="13"
        fill="#2d70b3">f(x)</text>
</svg>
